G04 #@! TF.GenerationSoftware,KiCad,Pcbnew,(6.0.5)*
G04 #@! TF.CreationDate,2022-07-12T22:45:23+02:00*
G04 #@! TF.ProjectId,resistor_network,72657369-7374-46f7-925f-6e6574776f72,rev?*
G04 #@! TF.SameCoordinates,Original*
G04 #@! TF.FileFunction,Copper,L2,Bot*
G04 #@! TF.FilePolarity,Positive*
%FSLAX46Y46*%
G04 Gerber Fmt 4.6, Leading zero omitted, Abs format (unit mm)*
G04 Created by KiCad (PCBNEW (6.0.5)) date 2022-07-12 22:45:23*
%MOMM*%
%LPD*%
G01*
G04 APERTURE LIST*
G04 Aperture macros list*
%AMRoundRect*
0 Rectangle with rounded corners*
0 $1 Rounding radius*
0 $2 $3 $4 $5 $6 $7 $8 $9 X,Y pos of 4 corners*
0 Add a 4 corners polygon primitive as box body*
4,1,4,$2,$3,$4,$5,$6,$7,$8,$9,$2,$3,0*
0 Add four circle primitives for the rounded corners*
1,1,$1+$1,$2,$3*
1,1,$1+$1,$4,$5*
1,1,$1+$1,$6,$7*
1,1,$1+$1,$8,$9*
0 Add four rect primitives between the rounded corners*
20,1,$1+$1,$2,$3,$4,$5,0*
20,1,$1+$1,$4,$5,$6,$7,0*
20,1,$1+$1,$6,$7,$8,$9,0*
20,1,$1+$1,$8,$9,$2,$3,0*%
G04 Aperture macros list end*
G04 #@! TA.AperFunction,SMDPad,CuDef*
%ADD10RoundRect,0.250000X-0.312500X-0.625000X0.312500X-0.625000X0.312500X0.625000X-0.312500X0.625000X0*%
G04 #@! TD*
G04 #@! TA.AperFunction,SMDPad,CuDef*
%ADD11R,2.510000X1.000000*%
G04 #@! TD*
G04 #@! TA.AperFunction,Conductor*
%ADD12C,1.000000*%
G04 #@! TD*
G04 APERTURE END LIST*
D10*
G04 #@! TO.P,R18,1*
G04 #@! TO.N,Net-(J4-Pad8)*
X138846100Y-104278600D03*
G04 #@! TO.P,R18,2*
G04 #@! TO.N,Net-(J5-Pad8)*
X141771100Y-104278600D03*
G04 #@! TD*
D11*
G04 #@! TO.P,J5,1,Pin_1*
G04 #@! TO.N,Net-(J5-Pad1)*
X147438600Y-86498600D03*
G04 #@! TO.P,J5,2,Pin_2*
G04 #@! TO.N,Net-(J5-Pad2)*
X144128600Y-89038600D03*
G04 #@! TO.P,J5,3,Pin_3*
G04 #@! TO.N,Net-(J5-Pad3)*
X147438600Y-91578600D03*
G04 #@! TO.P,J5,4,Pin_4*
G04 #@! TO.N,Net-(J5-Pad4)*
X144128600Y-94118600D03*
G04 #@! TO.P,J5,5,Pin_5*
G04 #@! TO.N,Net-(J5-Pad5)*
X147438600Y-96658600D03*
G04 #@! TO.P,J5,6,Pin_6*
G04 #@! TO.N,Net-(J5-Pad6)*
X144128600Y-99198600D03*
G04 #@! TO.P,J5,7,Pin_7*
G04 #@! TO.N,Net-(J5-Pad7)*
X147438600Y-101738600D03*
G04 #@! TO.P,J5,8,Pin_8*
G04 #@! TO.N,Net-(J5-Pad8)*
X144128600Y-104278600D03*
G04 #@! TD*
D10*
G04 #@! TO.P,R17,1*
G04 #@! TO.N,Net-(J4-Pad7)*
X142148100Y-101738600D03*
G04 #@! TO.P,R17,2*
G04 #@! TO.N,Net-(J5-Pad7)*
X145073100Y-101738600D03*
G04 #@! TD*
G04 #@! TO.P,R11,1*
G04 #@! TO.N,Net-(J4-Pad1)*
X142148100Y-86498600D03*
G04 #@! TO.P,R11,2*
G04 #@! TO.N,Net-(J5-Pad1)*
X145073100Y-86498600D03*
G04 #@! TD*
G04 #@! TO.P,R12,1*
G04 #@! TO.N,Net-(J4-Pad2)*
X138846100Y-89038600D03*
G04 #@! TO.P,R12,2*
G04 #@! TO.N,Net-(J5-Pad2)*
X141771100Y-89038600D03*
G04 #@! TD*
D11*
G04 #@! TO.P,J4,1,Pin_1*
G04 #@! TO.N,Net-(J4-Pad1)*
X139818600Y-86498600D03*
G04 #@! TO.P,J4,2,Pin_2*
G04 #@! TO.N,Net-(J4-Pad2)*
X136508600Y-89038600D03*
G04 #@! TO.P,J4,3,Pin_3*
G04 #@! TO.N,Net-(J4-Pad3)*
X139818600Y-91578600D03*
G04 #@! TO.P,J4,4,Pin_4*
G04 #@! TO.N,Net-(J4-Pad4)*
X136508600Y-94118600D03*
G04 #@! TO.P,J4,5,Pin_5*
G04 #@! TO.N,Net-(J4-Pad5)*
X139818600Y-96658600D03*
G04 #@! TO.P,J4,6,Pin_6*
G04 #@! TO.N,Net-(J4-Pad6)*
X136508600Y-99198600D03*
G04 #@! TO.P,J4,7,Pin_7*
G04 #@! TO.N,Net-(J4-Pad7)*
X139818600Y-101738600D03*
G04 #@! TO.P,J4,8,Pin_8*
G04 #@! TO.N,Net-(J4-Pad8)*
X136508600Y-104278600D03*
G04 #@! TD*
D10*
G04 #@! TO.P,R16,1*
G04 #@! TO.N,Net-(J4-Pad6)*
X138846100Y-99198600D03*
G04 #@! TO.P,R16,2*
G04 #@! TO.N,Net-(J5-Pad6)*
X141771100Y-99198600D03*
G04 #@! TD*
G04 #@! TO.P,R13,1*
G04 #@! TO.N,Net-(J4-Pad3)*
X142148100Y-91578600D03*
G04 #@! TO.P,R13,2*
G04 #@! TO.N,Net-(J5-Pad3)*
X145073100Y-91578600D03*
G04 #@! TD*
G04 #@! TO.P,R15,1*
G04 #@! TO.N,Net-(J4-Pad5)*
X142148100Y-96658600D03*
G04 #@! TO.P,R15,2*
G04 #@! TO.N,Net-(J5-Pad5)*
X145073100Y-96658600D03*
G04 #@! TD*
G04 #@! TO.P,R14,1*
G04 #@! TO.N,Net-(J4-Pad4)*
X138846100Y-94118600D03*
G04 #@! TO.P,R14,2*
G04 #@! TO.N,Net-(J5-Pad4)*
X141771100Y-94118600D03*
G04 #@! TD*
D12*
G04 #@! TO.N,Net-(J4-Pad8)*
X138846100Y-104278600D02*
X136508600Y-104278600D01*
G04 #@! TO.N,Net-(J4-Pad7)*
X142141300Y-101745400D02*
X142148100Y-101738600D01*
X139818600Y-101745400D02*
X142141300Y-101745400D01*
G04 #@! TO.N,Net-(J4-Pad6)*
X138839300Y-99205400D02*
X138846100Y-99198600D01*
X136508600Y-99205400D02*
X138839300Y-99205400D01*
G04 #@! TO.N,Net-(J4-Pad5)*
X142141300Y-96665400D02*
X142148100Y-96658600D01*
X139818600Y-96665400D02*
X142141300Y-96665400D01*
G04 #@! TO.N,Net-(J4-Pad4)*
X138839300Y-94125400D02*
X138846100Y-94118600D01*
X136508600Y-94125400D02*
X138839300Y-94125400D01*
G04 #@! TO.N,Net-(J4-Pad3)*
X139818600Y-91585400D02*
X142141300Y-91585400D01*
X142141300Y-91585400D02*
X142148100Y-91578600D01*
G04 #@! TO.N,Net-(J4-Pad2)*
X136508600Y-89045400D02*
X138839300Y-89045400D01*
X138839300Y-89045400D02*
X138846100Y-89038600D01*
G04 #@! TO.N,Net-(J4-Pad1)*
X142141300Y-86505400D02*
X142148100Y-86498600D01*
X139818600Y-86505400D02*
X142141300Y-86505400D01*
G04 #@! TO.N,Net-(J5-Pad8)*
X141771100Y-104278600D02*
X144128600Y-104278600D01*
G04 #@! TO.N,Net-(J5-Pad7)*
X145079900Y-101745400D02*
X145073100Y-101738600D01*
X147438600Y-101745400D02*
X145079900Y-101745400D01*
G04 #@! TO.N,Net-(J5-Pad6)*
X141777900Y-99205400D02*
X141771100Y-99198600D01*
X144128600Y-99205400D02*
X141777900Y-99205400D01*
G04 #@! TO.N,Net-(J5-Pad5)*
X147438600Y-96665400D02*
X145079900Y-96665400D01*
X145079900Y-96665400D02*
X145073100Y-96658600D01*
G04 #@! TO.N,Net-(J5-Pad4)*
X144128600Y-94125400D02*
X141777900Y-94125400D01*
X141777900Y-94125400D02*
X141771100Y-94118600D01*
G04 #@! TO.N,Net-(J5-Pad3)*
X147438600Y-91585400D02*
X145079900Y-91585400D01*
X145079900Y-91585400D02*
X145073100Y-91578600D01*
G04 #@! TO.N,Net-(J5-Pad2)*
X141777900Y-89045400D02*
X141771100Y-89038600D01*
X144128600Y-89045400D02*
X141777900Y-89045400D01*
G04 #@! TO.N,Net-(J5-Pad1)*
X145079900Y-86505400D02*
X145073100Y-86498600D01*
X147438600Y-86505400D02*
X145079900Y-86505400D01*
G04 #@! TD*
G04 #@! TA.AperFunction,Conductor*
G04 #@! TO.N,Net-(J4-Pad3)*
G36*
X143298721Y-90582602D02*
G01*
X143345214Y-90636258D01*
X143356600Y-90688600D01*
X143356600Y-92468600D01*
X143336598Y-92536721D01*
X143282942Y-92583214D01*
X143230600Y-92594600D01*
X135634500Y-92594600D01*
X135566379Y-92574598D01*
X135519886Y-92520942D01*
X135508500Y-92468600D01*
X135508500Y-90688600D01*
X135528502Y-90620479D01*
X135582158Y-90573986D01*
X135634500Y-90562600D01*
X143230600Y-90562600D01*
X143298721Y-90582602D01*
G37*
G04 #@! TD.AperFunction*
G04 #@! TD*
G04 #@! TA.AperFunction,Conductor*
G04 #@! TO.N,Net-(J5-Pad1)*
G36*
X148433621Y-85528502D02*
G01*
X148480114Y-85582158D01*
X148491500Y-85634500D01*
X148491500Y-87388600D01*
X148471498Y-87456721D01*
X148417842Y-87503214D01*
X148365500Y-87514600D01*
X143990600Y-87514600D01*
X143922479Y-87494598D01*
X143875986Y-87440942D01*
X143864600Y-87388600D01*
X143864600Y-85634500D01*
X143884602Y-85566379D01*
X143938258Y-85519886D01*
X143990600Y-85508500D01*
X148365500Y-85508500D01*
X148433621Y-85528502D01*
G37*
G04 #@! TD.AperFunction*
G04 #@! TD*
G04 #@! TA.AperFunction,Conductor*
G04 #@! TO.N,Net-(J5-Pad7)*
G36*
X148433621Y-100742602D02*
G01*
X148480114Y-100796258D01*
X148491500Y-100848600D01*
X148491500Y-102628600D01*
X148471498Y-102696721D01*
X148417842Y-102743214D01*
X148365500Y-102754600D01*
X143990600Y-102754600D01*
X143922479Y-102734598D01*
X143875986Y-102680942D01*
X143864600Y-102628600D01*
X143864600Y-100848600D01*
X143884602Y-100780479D01*
X143938258Y-100733986D01*
X143990600Y-100722600D01*
X148365500Y-100722600D01*
X148433621Y-100742602D01*
G37*
G04 #@! TD.AperFunction*
G04 #@! TD*
G04 #@! TA.AperFunction,Conductor*
G04 #@! TO.N,Net-(J4-Pad2)*
G36*
X139996721Y-88042602D02*
G01*
X140043214Y-88096258D01*
X140054600Y-88148600D01*
X140054600Y-89928600D01*
X140034598Y-89996721D01*
X139980942Y-90043214D01*
X139928600Y-90054600D01*
X135634500Y-90054600D01*
X135566379Y-90034598D01*
X135519886Y-89980942D01*
X135508500Y-89928600D01*
X135508500Y-88148600D01*
X135528502Y-88080479D01*
X135582158Y-88033986D01*
X135634500Y-88022600D01*
X139928600Y-88022600D01*
X139996721Y-88042602D01*
G37*
G04 #@! TD.AperFunction*
G04 #@! TD*
G04 #@! TA.AperFunction,Conductor*
G04 #@! TO.N,Net-(J4-Pad8)*
G36*
X139996721Y-103282602D02*
G01*
X140043214Y-103336258D01*
X140054600Y-103388600D01*
X140054600Y-105168600D01*
X140034598Y-105236721D01*
X139980942Y-105283214D01*
X139928600Y-105294600D01*
X135634500Y-105294600D01*
X135566379Y-105274598D01*
X135519886Y-105220942D01*
X135508500Y-105168600D01*
X135508500Y-103388600D01*
X135528502Y-103320479D01*
X135582158Y-103273986D01*
X135634500Y-103262600D01*
X139928600Y-103262600D01*
X139996721Y-103282602D01*
G37*
G04 #@! TD.AperFunction*
G04 #@! TD*
G04 #@! TA.AperFunction,Conductor*
G04 #@! TO.N,Net-(J5-Pad2)*
G36*
X148433621Y-88042602D02*
G01*
X148480114Y-88096258D01*
X148491500Y-88148600D01*
X148491500Y-89928600D01*
X148471498Y-89996721D01*
X148417842Y-90043214D01*
X148365500Y-90054600D01*
X140688600Y-90054600D01*
X140620479Y-90034598D01*
X140573986Y-89980942D01*
X140562600Y-89928600D01*
X140562600Y-88148600D01*
X140582602Y-88080479D01*
X140636258Y-88033986D01*
X140688600Y-88022600D01*
X148365500Y-88022600D01*
X148433621Y-88042602D01*
G37*
G04 #@! TD.AperFunction*
G04 #@! TD*
G04 #@! TA.AperFunction,Conductor*
G04 #@! TO.N,Net-(J5-Pad6)*
G36*
X148433621Y-98202602D02*
G01*
X148480114Y-98256258D01*
X148491500Y-98308600D01*
X148491500Y-100088600D01*
X148471498Y-100156721D01*
X148417842Y-100203214D01*
X148365500Y-100214600D01*
X140688600Y-100214600D01*
X140620479Y-100194598D01*
X140573986Y-100140942D01*
X140562600Y-100088600D01*
X140562600Y-98308600D01*
X140582602Y-98240479D01*
X140636258Y-98193986D01*
X140688600Y-98182600D01*
X148365500Y-98182600D01*
X148433621Y-98202602D01*
G37*
G04 #@! TD.AperFunction*
G04 #@! TD*
G04 #@! TA.AperFunction,Conductor*
G04 #@! TO.N,Net-(J5-Pad8)*
G36*
X148433621Y-103282602D02*
G01*
X148480114Y-103336258D01*
X148491500Y-103388600D01*
X148491500Y-105168600D01*
X148471498Y-105236721D01*
X148417842Y-105283214D01*
X148365500Y-105294600D01*
X140688600Y-105294600D01*
X140620479Y-105274598D01*
X140573986Y-105220942D01*
X140562600Y-105168600D01*
X140562600Y-103388600D01*
X140582602Y-103320479D01*
X140636258Y-103273986D01*
X140688600Y-103262600D01*
X148365500Y-103262600D01*
X148433621Y-103282602D01*
G37*
G04 #@! TD.AperFunction*
G04 #@! TD*
G04 #@! TA.AperFunction,Conductor*
G04 #@! TO.N,Net-(J4-Pad1)*
G36*
X143298721Y-85528502D02*
G01*
X143345214Y-85582158D01*
X143356600Y-85634500D01*
X143356600Y-87388600D01*
X143336598Y-87456721D01*
X143282942Y-87503214D01*
X143230600Y-87514600D01*
X135634500Y-87514600D01*
X135566379Y-87494598D01*
X135519886Y-87440942D01*
X135508500Y-87388600D01*
X135508500Y-85634500D01*
X135528502Y-85566379D01*
X135582158Y-85519886D01*
X135634500Y-85508500D01*
X143230600Y-85508500D01*
X143298721Y-85528502D01*
G37*
G04 #@! TD.AperFunction*
G04 #@! TD*
G04 #@! TA.AperFunction,Conductor*
G04 #@! TO.N,Net-(J4-Pad6)*
G36*
X139996721Y-98202602D02*
G01*
X140043214Y-98256258D01*
X140054600Y-98308600D01*
X140054600Y-100088600D01*
X140034598Y-100156721D01*
X139980942Y-100203214D01*
X139928600Y-100214600D01*
X135634500Y-100214600D01*
X135566379Y-100194598D01*
X135519886Y-100140942D01*
X135508500Y-100088600D01*
X135508500Y-98308600D01*
X135528502Y-98240479D01*
X135582158Y-98193986D01*
X135634500Y-98182600D01*
X139928600Y-98182600D01*
X139996721Y-98202602D01*
G37*
G04 #@! TD.AperFunction*
G04 #@! TD*
G04 #@! TA.AperFunction,Conductor*
G04 #@! TO.N,Net-(J5-Pad3)*
G36*
X148433621Y-90582602D02*
G01*
X148480114Y-90636258D01*
X148491500Y-90688600D01*
X148491500Y-92468600D01*
X148471498Y-92536721D01*
X148417842Y-92583214D01*
X148365500Y-92594600D01*
X143990600Y-92594600D01*
X143922479Y-92574598D01*
X143875986Y-92520942D01*
X143864600Y-92468600D01*
X143864600Y-90688600D01*
X143884602Y-90620479D01*
X143938258Y-90573986D01*
X143990600Y-90562600D01*
X148365500Y-90562600D01*
X148433621Y-90582602D01*
G37*
G04 #@! TD.AperFunction*
G04 #@! TD*
G04 #@! TA.AperFunction,Conductor*
G04 #@! TO.N,Net-(J4-Pad4)*
G36*
X139996721Y-93122602D02*
G01*
X140043214Y-93176258D01*
X140054600Y-93228600D01*
X140054600Y-95008600D01*
X140034598Y-95076721D01*
X139980942Y-95123214D01*
X139928600Y-95134600D01*
X135634500Y-95134600D01*
X135566379Y-95114598D01*
X135519886Y-95060942D01*
X135508500Y-95008600D01*
X135508500Y-93228600D01*
X135528502Y-93160479D01*
X135582158Y-93113986D01*
X135634500Y-93102600D01*
X139928600Y-93102600D01*
X139996721Y-93122602D01*
G37*
G04 #@! TD.AperFunction*
G04 #@! TD*
G04 #@! TA.AperFunction,Conductor*
G04 #@! TO.N,Net-(J4-Pad5)*
G36*
X143298721Y-95662602D02*
G01*
X143345214Y-95716258D01*
X143356600Y-95768600D01*
X143356600Y-97548600D01*
X143336598Y-97616721D01*
X143282942Y-97663214D01*
X143230600Y-97674600D01*
X135634500Y-97674600D01*
X135566379Y-97654598D01*
X135519886Y-97600942D01*
X135508500Y-97548600D01*
X135508500Y-95768600D01*
X135528502Y-95700479D01*
X135582158Y-95653986D01*
X135634500Y-95642600D01*
X143230600Y-95642600D01*
X143298721Y-95662602D01*
G37*
G04 #@! TD.AperFunction*
G04 #@! TD*
G04 #@! TA.AperFunction,Conductor*
G04 #@! TO.N,Net-(J4-Pad7)*
G36*
X143298721Y-100742602D02*
G01*
X143345214Y-100796258D01*
X143356600Y-100848600D01*
X143356600Y-102628600D01*
X143336598Y-102696721D01*
X143282942Y-102743214D01*
X143230600Y-102754600D01*
X135634500Y-102754600D01*
X135566379Y-102734598D01*
X135519886Y-102680942D01*
X135508500Y-102628600D01*
X135508500Y-100848600D01*
X135528502Y-100780479D01*
X135582158Y-100733986D01*
X135634500Y-100722600D01*
X143230600Y-100722600D01*
X143298721Y-100742602D01*
G37*
G04 #@! TD.AperFunction*
G04 #@! TD*
G04 #@! TA.AperFunction,Conductor*
G04 #@! TO.N,Net-(J5-Pad5)*
G36*
X148433621Y-95662602D02*
G01*
X148480114Y-95716258D01*
X148491500Y-95768600D01*
X148491500Y-97548600D01*
X148471498Y-97616721D01*
X148417842Y-97663214D01*
X148365500Y-97674600D01*
X143990600Y-97674600D01*
X143922479Y-97654598D01*
X143875986Y-97600942D01*
X143864600Y-97548600D01*
X143864600Y-95768600D01*
X143884602Y-95700479D01*
X143938258Y-95653986D01*
X143990600Y-95642600D01*
X148365500Y-95642600D01*
X148433621Y-95662602D01*
G37*
G04 #@! TD.AperFunction*
G04 #@! TD*
G04 #@! TA.AperFunction,Conductor*
G04 #@! TO.N,Net-(J5-Pad4)*
G36*
X148433621Y-93122602D02*
G01*
X148480114Y-93176258D01*
X148491500Y-93228600D01*
X148491500Y-95008600D01*
X148471498Y-95076721D01*
X148417842Y-95123214D01*
X148365500Y-95134600D01*
X140688600Y-95134600D01*
X140620479Y-95114598D01*
X140573986Y-95060942D01*
X140562600Y-95008600D01*
X140562600Y-93228600D01*
X140582602Y-93160479D01*
X140636258Y-93113986D01*
X140688600Y-93102600D01*
X148365500Y-93102600D01*
X148433621Y-93122602D01*
G37*
G04 #@! TD.AperFunction*
G04 #@! TD*
M02*
