G04 #@! TF.GenerationSoftware,KiCad,Pcbnew,(6.0.5)*
G04 #@! TF.CreationDate,2022-07-12T22:45:23+02:00*
G04 #@! TF.ProjectId,resistor_network,72657369-7374-46f7-925f-6e6574776f72,rev?*
G04 #@! TF.SameCoordinates,Original*
G04 #@! TF.FileFunction,Legend,Bot*
G04 #@! TF.FilePolarity,Positive*
%FSLAX46Y46*%
G04 Gerber Fmt 4.6, Leading zero omitted, Abs format (unit mm)*
G04 Created by KiCad (PCBNEW (6.0.5)) date 2022-07-12 22:45:23*
%MOMM*%
%LPD*%
G01*
G04 APERTURE LIST*
%ADD10C,0.583000*%
%ADD11C,0.150000*%
%ADD12C,0.120000*%
G04 APERTURE END LIST*
D10*
X136790100Y-85990600D02*
G75*
G03*
X136790100Y-85990600I-291500J0D01*
G01*
D11*
G04 #@! TO.C,J5*
X146116933Y-83620980D02*
X146116933Y-84335266D01*
X146164552Y-84478123D01*
X146259790Y-84573361D01*
X146402647Y-84620980D01*
X146497885Y-84620980D01*
X145164552Y-83620980D02*
X145640742Y-83620980D01*
X145688361Y-84097171D01*
X145640742Y-84049552D01*
X145545504Y-84001933D01*
X145307409Y-84001933D01*
X145212171Y-84049552D01*
X145164552Y-84097171D01*
X145116933Y-84192409D01*
X145116933Y-84430504D01*
X145164552Y-84525742D01*
X145212171Y-84573361D01*
X145307409Y-84620980D01*
X145545504Y-84620980D01*
X145640742Y-84573361D01*
X145688361Y-84525742D01*
G04 #@! TO.C,J4*
X138496933Y-83620980D02*
X138496933Y-84335266D01*
X138544552Y-84478123D01*
X138639790Y-84573361D01*
X138782647Y-84620980D01*
X138877885Y-84620980D01*
X137592171Y-83954314D02*
X137592171Y-84620980D01*
X137830266Y-83573361D02*
X138068361Y-84287647D01*
X137449314Y-84287647D01*
D12*
G04 #@! TO.C,R18*
X139581536Y-103368600D02*
X141035664Y-103368600D01*
X139581536Y-105188600D02*
X141035664Y-105188600D01*
G04 #@! TO.C,R17*
X142883536Y-102648600D02*
X144337664Y-102648600D01*
X142883536Y-100828600D02*
X144337664Y-100828600D01*
G04 #@! TO.C,R11*
X142883536Y-85588600D02*
X144337664Y-85588600D01*
X142883536Y-87408600D02*
X144337664Y-87408600D01*
G04 #@! TO.C,R12*
X139581536Y-88128600D02*
X141035664Y-88128600D01*
X139581536Y-89948600D02*
X141035664Y-89948600D01*
G04 #@! TO.C,R16*
X139581536Y-100108600D02*
X141035664Y-100108600D01*
X139581536Y-98288600D02*
X141035664Y-98288600D01*
G04 #@! TO.C,R13*
X142883536Y-92488600D02*
X144337664Y-92488600D01*
X142883536Y-90668600D02*
X144337664Y-90668600D01*
G04 #@! TO.C,R15*
X142883536Y-97568600D02*
X144337664Y-97568600D01*
X142883536Y-95748600D02*
X144337664Y-95748600D01*
G04 #@! TO.C,R14*
X139581536Y-93208600D02*
X141035664Y-93208600D01*
X139581536Y-95028600D02*
X141035664Y-95028600D01*
G04 #@! TD*
M02*
