G04 #@! TF.GenerationSoftware,KiCad,Pcbnew,(6.0.5)*
G04 #@! TF.CreationDate,2023-01-29T19:40:19+01:00*
G04 #@! TF.ProjectId,xformer_spacer,78666f72-6d65-4725-9f73-70616365722e,0.9*
G04 #@! TF.SameCoordinates,Original*
G04 #@! TF.FileFunction,Profile,NP*
%FSLAX46Y46*%
G04 Gerber Fmt 4.6, Leading zero omitted, Abs format (unit mm)*
G04 Created by KiCad (PCBNEW (6.0.5)) date 2023-01-29 19:40:19*
%MOMM*%
%LPD*%
G01*
G04 APERTURE LIST*
G04 #@! TA.AperFunction,Profile*
%ADD10C,0.100000*%
G04 #@! TD*
G04 APERTURE END LIST*
D10*
X173736544Y-116263456D02*
G75*
G03*
X206263456Y-116263456I16263456J16263456D01*
G01*
X184343146Y-105656854D02*
G75*
G03*
X182928932Y-107071068I-707107J-707107D01*
G01*
X207677670Y-117677670D02*
G75*
G03*
X206263456Y-116263456I-707107J707107D01*
G01*
X195656854Y-94343146D02*
G75*
G03*
X197071068Y-92928932I707107J707107D01*
G01*
X173736544Y-116263456D02*
G75*
G03*
X172322330Y-117677670I-707107J-707107D01*
G01*
X212999999Y-77000001D02*
G75*
G03*
X167000001Y-77000001I-22999999J-22999997D01*
G01*
X206263456Y-83736544D02*
G75*
G03*
X173736544Y-83736544I-16263456J-16263456D01*
G01*
X184343146Y-105656854D02*
G75*
G03*
X195656854Y-105656854I5656854J5656853D01*
G01*
X195656854Y-94343146D02*
G75*
G03*
X184343146Y-94343146I-5656854J-5656853D01*
G01*
X172322330Y-117677670D02*
G75*
G03*
X207677670Y-117677670I17677670J17677669D01*
G01*
X182928932Y-107071068D02*
G75*
G03*
X197071068Y-107071068I7071068J7071069D01*
G01*
X197071068Y-92928932D02*
G75*
G03*
X182928932Y-92928932I-7071068J-7071069D01*
G01*
X167000001Y-122999999D02*
G75*
G03*
X212999999Y-122999999I22999999J22999997D01*
G01*
X212999999Y-77000001D02*
X212999999Y-122999999D01*
X172322330Y-82322330D02*
G75*
G03*
X173736544Y-83736544I707107J-707107D01*
G01*
X197071068Y-107071068D02*
G75*
G03*
X195656854Y-105656854I-707107J707107D01*
G01*
X182928932Y-92928932D02*
G75*
G03*
X184343146Y-94343146I707107J-707107D01*
G01*
X207677670Y-82322330D02*
G75*
G03*
X172322330Y-82322330I-17677670J-17677669D01*
G01*
X167000001Y-77000001D02*
X167000001Y-122999999D01*
X206263456Y-83736544D02*
G75*
G03*
X207677670Y-82322330I707107J707107D01*
G01*
M02*
