G04 #@! TF.GenerationSoftware,KiCad,Pcbnew,(6.0.5)*
G04 #@! TF.CreationDate,2022-07-11T09:40:14+02:00*
G04 #@! TF.ProjectId,ADRmu_battery,4144526d-755f-4626-9174-746572792e6b,0.6*
G04 #@! TF.SameCoordinates,Original*
G04 #@! TF.FileFunction,Legend,Top*
G04 #@! TF.FilePolarity,Positive*
%FSLAX46Y46*%
G04 Gerber Fmt 4.6, Leading zero omitted, Abs format (unit mm)*
G04 Created by KiCad (PCBNEW (6.0.5)) date 2022-07-11 09:40:14*
%MOMM*%
%LPD*%
G01*
G04 APERTURE LIST*
%ADD10C,0.150000*%
%ADD11C,0.120000*%
G04 APERTURE END LIST*
D10*
X93000000Y-114500000D02*
X97000000Y-115450000D01*
X92000000Y-96000000D02*
X93200000Y-94800000D01*
G04 #@! TO.C,TH102*
X105461904Y-110852380D02*
X106033333Y-110852380D01*
X105747619Y-111852380D02*
X105747619Y-110852380D01*
X106366666Y-111852380D02*
X106366666Y-110852380D01*
X106366666Y-111328571D02*
X106938095Y-111328571D01*
X106938095Y-111852380D02*
X106938095Y-110852380D01*
X107938095Y-111852380D02*
X107366666Y-111852380D01*
X107652380Y-111852380D02*
X107652380Y-110852380D01*
X107557142Y-110995238D01*
X107461904Y-111090476D01*
X107366666Y-111138095D01*
X108557142Y-110852380D02*
X108652380Y-110852380D01*
X108747619Y-110900000D01*
X108795238Y-110947619D01*
X108842857Y-111042857D01*
X108890476Y-111233333D01*
X108890476Y-111471428D01*
X108842857Y-111661904D01*
X108795238Y-111757142D01*
X108747619Y-111804761D01*
X108652380Y-111852380D01*
X108557142Y-111852380D01*
X108461904Y-111804761D01*
X108414285Y-111757142D01*
X108366666Y-111661904D01*
X108319047Y-111471428D01*
X108319047Y-111233333D01*
X108366666Y-111042857D01*
X108414285Y-110947619D01*
X108461904Y-110900000D01*
X108557142Y-110852380D01*
X109271428Y-110947619D02*
X109319047Y-110900000D01*
X109414285Y-110852380D01*
X109652380Y-110852380D01*
X109747619Y-110900000D01*
X109795238Y-110947619D01*
X109842857Y-111042857D01*
X109842857Y-111138095D01*
X109795238Y-111280952D01*
X109223809Y-111852380D01*
X109842857Y-111852380D01*
G04 #@! TO.C,C110*
X93515817Y-101977142D02*
X93468198Y-102024761D01*
X93325341Y-102072380D01*
X93230103Y-102072380D01*
X93087245Y-102024761D01*
X92992007Y-101929523D01*
X92944388Y-101834285D01*
X92896769Y-101643809D01*
X92896769Y-101500952D01*
X92944388Y-101310476D01*
X92992007Y-101215238D01*
X93087245Y-101120000D01*
X93230103Y-101072380D01*
X93325341Y-101072380D01*
X93468198Y-101120000D01*
X93515817Y-101167619D01*
X94468198Y-102072380D02*
X93896769Y-102072380D01*
X94182484Y-102072380D02*
X94182484Y-101072380D01*
X94087245Y-101215238D01*
X93992007Y-101310476D01*
X93896769Y-101358095D01*
X95420579Y-102072380D02*
X94849150Y-102072380D01*
X95134865Y-102072380D02*
X95134865Y-101072380D01*
X95039626Y-101215238D01*
X94944388Y-101310476D01*
X94849150Y-101358095D01*
X96039626Y-101072380D02*
X96134865Y-101072380D01*
X96230103Y-101120000D01*
X96277722Y-101167619D01*
X96325341Y-101262857D01*
X96372960Y-101453333D01*
X96372960Y-101691428D01*
X96325341Y-101881904D01*
X96277722Y-101977142D01*
X96230103Y-102024761D01*
X96134865Y-102072380D01*
X96039626Y-102072380D01*
X95944388Y-102024761D01*
X95896769Y-101977142D01*
X95849150Y-101881904D01*
X95801531Y-101691428D01*
X95801531Y-101453333D01*
X95849150Y-101262857D01*
X95896769Y-101167619D01*
X95944388Y-101120000D01*
X96039626Y-101072380D01*
G04 #@! TO.C,C108*
X94357142Y-86119047D02*
X94404761Y-86166666D01*
X94452380Y-86309523D01*
X94452380Y-86404761D01*
X94404761Y-86547619D01*
X94309523Y-86642857D01*
X94214285Y-86690476D01*
X94023809Y-86738095D01*
X93880952Y-86738095D01*
X93690476Y-86690476D01*
X93595238Y-86642857D01*
X93500000Y-86547619D01*
X93452380Y-86404761D01*
X93452380Y-86309523D01*
X93500000Y-86166666D01*
X93547619Y-86119047D01*
X94452380Y-85166666D02*
X94452380Y-85738095D01*
X94452380Y-85452380D02*
X93452380Y-85452380D01*
X93595238Y-85547619D01*
X93690476Y-85642857D01*
X93738095Y-85738095D01*
X93452380Y-84547619D02*
X93452380Y-84452380D01*
X93500000Y-84357142D01*
X93547619Y-84309523D01*
X93642857Y-84261904D01*
X93833333Y-84214285D01*
X94071428Y-84214285D01*
X94261904Y-84261904D01*
X94357142Y-84309523D01*
X94404761Y-84357142D01*
X94452380Y-84452380D01*
X94452380Y-84547619D01*
X94404761Y-84642857D01*
X94357142Y-84690476D01*
X94261904Y-84738095D01*
X94071428Y-84785714D01*
X93833333Y-84785714D01*
X93642857Y-84738095D01*
X93547619Y-84690476D01*
X93500000Y-84642857D01*
X93452380Y-84547619D01*
X93880952Y-83642857D02*
X93833333Y-83738095D01*
X93785714Y-83785714D01*
X93690476Y-83833333D01*
X93642857Y-83833333D01*
X93547619Y-83785714D01*
X93500000Y-83738095D01*
X93452380Y-83642857D01*
X93452380Y-83452380D01*
X93500000Y-83357142D01*
X93547619Y-83309523D01*
X93642857Y-83261904D01*
X93690476Y-83261904D01*
X93785714Y-83309523D01*
X93833333Y-83357142D01*
X93880952Y-83452380D01*
X93880952Y-83642857D01*
X93928571Y-83738095D01*
X93976190Y-83785714D01*
X94071428Y-83833333D01*
X94261904Y-83833333D01*
X94357142Y-83785714D01*
X94404761Y-83738095D01*
X94452380Y-83642857D01*
X94452380Y-83452380D01*
X94404761Y-83357142D01*
X94357142Y-83309523D01*
X94261904Y-83261904D01*
X94071428Y-83261904D01*
X93976190Y-83309523D01*
X93928571Y-83357142D01*
X93880952Y-83452380D01*
G04 #@! TO.C,C116*
X208684952Y-115800142D02*
X208637333Y-115847761D01*
X208494476Y-115895380D01*
X208399238Y-115895380D01*
X208256380Y-115847761D01*
X208161142Y-115752523D01*
X208113523Y-115657285D01*
X208065904Y-115466809D01*
X208065904Y-115323952D01*
X208113523Y-115133476D01*
X208161142Y-115038238D01*
X208256380Y-114943000D01*
X208399238Y-114895380D01*
X208494476Y-114895380D01*
X208637333Y-114943000D01*
X208684952Y-114990619D01*
X209637333Y-115895380D02*
X209065904Y-115895380D01*
X209351619Y-115895380D02*
X209351619Y-114895380D01*
X209256380Y-115038238D01*
X209161142Y-115133476D01*
X209065904Y-115181095D01*
X210589714Y-115895380D02*
X210018285Y-115895380D01*
X210304000Y-115895380D02*
X210304000Y-114895380D01*
X210208761Y-115038238D01*
X210113523Y-115133476D01*
X210018285Y-115181095D01*
X211446857Y-114895380D02*
X211256380Y-114895380D01*
X211161142Y-114943000D01*
X211113523Y-114990619D01*
X211018285Y-115133476D01*
X210970666Y-115323952D01*
X210970666Y-115704904D01*
X211018285Y-115800142D01*
X211065904Y-115847761D01*
X211161142Y-115895380D01*
X211351619Y-115895380D01*
X211446857Y-115847761D01*
X211494476Y-115800142D01*
X211542095Y-115704904D01*
X211542095Y-115466809D01*
X211494476Y-115371571D01*
X211446857Y-115323952D01*
X211351619Y-115276333D01*
X211161142Y-115276333D01*
X211065904Y-115323952D01*
X211018285Y-115371571D01*
X210970666Y-115466809D01*
G04 #@! TO.C,C113*
X206107142Y-59986724D02*
X206154761Y-60034343D01*
X206202380Y-60177200D01*
X206202380Y-60272438D01*
X206154761Y-60415296D01*
X206059523Y-60510534D01*
X205964285Y-60558153D01*
X205773809Y-60605772D01*
X205630952Y-60605772D01*
X205440476Y-60558153D01*
X205345238Y-60510534D01*
X205250000Y-60415296D01*
X205202380Y-60272438D01*
X205202380Y-60177200D01*
X205250000Y-60034343D01*
X205297619Y-59986724D01*
X206202380Y-59034343D02*
X206202380Y-59605772D01*
X206202380Y-59320057D02*
X205202380Y-59320057D01*
X205345238Y-59415296D01*
X205440476Y-59510534D01*
X205488095Y-59605772D01*
X206202380Y-58081962D02*
X206202380Y-58653391D01*
X206202380Y-58367677D02*
X205202380Y-58367677D01*
X205345238Y-58462915D01*
X205440476Y-58558153D01*
X205488095Y-58653391D01*
X205202380Y-57748629D02*
X205202380Y-57129581D01*
X205583333Y-57462915D01*
X205583333Y-57320057D01*
X205630952Y-57224819D01*
X205678571Y-57177200D01*
X205773809Y-57129581D01*
X206011904Y-57129581D01*
X206107142Y-57177200D01*
X206154761Y-57224819D01*
X206202380Y-57320057D01*
X206202380Y-57605772D01*
X206154761Y-57701010D01*
X206107142Y-57748629D01*
G04 #@! TO.C,Q102*
X79547619Y-114547619D02*
X79500000Y-114642857D01*
X79404761Y-114738095D01*
X79261904Y-114880952D01*
X79214285Y-114976190D01*
X79214285Y-115071428D01*
X79452380Y-115023809D02*
X79404761Y-115119047D01*
X79309523Y-115214285D01*
X79119047Y-115261904D01*
X78785714Y-115261904D01*
X78595238Y-115214285D01*
X78500000Y-115119047D01*
X78452380Y-115023809D01*
X78452380Y-114833333D01*
X78500000Y-114738095D01*
X78595238Y-114642857D01*
X78785714Y-114595238D01*
X79119047Y-114595238D01*
X79309523Y-114642857D01*
X79404761Y-114738095D01*
X79452380Y-114833333D01*
X79452380Y-115023809D01*
X79452380Y-113642857D02*
X79452380Y-114214285D01*
X79452380Y-113928571D02*
X78452380Y-113928571D01*
X78595238Y-114023809D01*
X78690476Y-114119047D01*
X78738095Y-114214285D01*
X78452380Y-113023809D02*
X78452380Y-112928571D01*
X78500000Y-112833333D01*
X78547619Y-112785714D01*
X78642857Y-112738095D01*
X78833333Y-112690476D01*
X79071428Y-112690476D01*
X79261904Y-112738095D01*
X79357142Y-112785714D01*
X79404761Y-112833333D01*
X79452380Y-112928571D01*
X79452380Y-113023809D01*
X79404761Y-113119047D01*
X79357142Y-113166666D01*
X79261904Y-113214285D01*
X79071428Y-113261904D01*
X78833333Y-113261904D01*
X78642857Y-113214285D01*
X78547619Y-113166666D01*
X78500000Y-113119047D01*
X78452380Y-113023809D01*
X78547619Y-112309523D02*
X78500000Y-112261904D01*
X78452380Y-112166666D01*
X78452380Y-111928571D01*
X78500000Y-111833333D01*
X78547619Y-111785714D01*
X78642857Y-111738095D01*
X78738095Y-111738095D01*
X78880952Y-111785714D01*
X79452380Y-112357142D01*
X79452380Y-111738095D01*
G04 #@! TO.C,U105*
X83375714Y-141692380D02*
X83375714Y-142501904D01*
X83423333Y-142597142D01*
X83470952Y-142644761D01*
X83566190Y-142692380D01*
X83756666Y-142692380D01*
X83851904Y-142644761D01*
X83899523Y-142597142D01*
X83947142Y-142501904D01*
X83947142Y-141692380D01*
X84947142Y-142692380D02*
X84375714Y-142692380D01*
X84661428Y-142692380D02*
X84661428Y-141692380D01*
X84566190Y-141835238D01*
X84470952Y-141930476D01*
X84375714Y-141978095D01*
X85566190Y-141692380D02*
X85661428Y-141692380D01*
X85756666Y-141740000D01*
X85804285Y-141787619D01*
X85851904Y-141882857D01*
X85899523Y-142073333D01*
X85899523Y-142311428D01*
X85851904Y-142501904D01*
X85804285Y-142597142D01*
X85756666Y-142644761D01*
X85661428Y-142692380D01*
X85566190Y-142692380D01*
X85470952Y-142644761D01*
X85423333Y-142597142D01*
X85375714Y-142501904D01*
X85328095Y-142311428D01*
X85328095Y-142073333D01*
X85375714Y-141882857D01*
X85423333Y-141787619D01*
X85470952Y-141740000D01*
X85566190Y-141692380D01*
X86804285Y-141692380D02*
X86328095Y-141692380D01*
X86280476Y-142168571D01*
X86328095Y-142120952D01*
X86423333Y-142073333D01*
X86661428Y-142073333D01*
X86756666Y-142120952D01*
X86804285Y-142168571D01*
X86851904Y-142263809D01*
X86851904Y-142501904D01*
X86804285Y-142597142D01*
X86756666Y-142644761D01*
X86661428Y-142692380D01*
X86423333Y-142692380D01*
X86328095Y-142644761D01*
X86280476Y-142597142D01*
G04 #@! TO.C,U103*
X203285714Y-71952380D02*
X203285714Y-72761904D01*
X203333333Y-72857142D01*
X203380952Y-72904761D01*
X203476190Y-72952380D01*
X203666666Y-72952380D01*
X203761904Y-72904761D01*
X203809523Y-72857142D01*
X203857142Y-72761904D01*
X203857142Y-71952380D01*
X204857142Y-72952380D02*
X204285714Y-72952380D01*
X204571428Y-72952380D02*
X204571428Y-71952380D01*
X204476190Y-72095238D01*
X204380952Y-72190476D01*
X204285714Y-72238095D01*
X205476190Y-71952380D02*
X205571428Y-71952380D01*
X205666666Y-72000000D01*
X205714285Y-72047619D01*
X205761904Y-72142857D01*
X205809523Y-72333333D01*
X205809523Y-72571428D01*
X205761904Y-72761904D01*
X205714285Y-72857142D01*
X205666666Y-72904761D01*
X205571428Y-72952380D01*
X205476190Y-72952380D01*
X205380952Y-72904761D01*
X205333333Y-72857142D01*
X205285714Y-72761904D01*
X205238095Y-72571428D01*
X205238095Y-72333333D01*
X205285714Y-72142857D01*
X205333333Y-72047619D01*
X205380952Y-72000000D01*
X205476190Y-71952380D01*
X206142857Y-71952380D02*
X206761904Y-71952380D01*
X206428571Y-72333333D01*
X206571428Y-72333333D01*
X206666666Y-72380952D01*
X206714285Y-72428571D01*
X206761904Y-72523809D01*
X206761904Y-72761904D01*
X206714285Y-72857142D01*
X206666666Y-72904761D01*
X206571428Y-72952380D01*
X206285714Y-72952380D01*
X206190476Y-72904761D01*
X206142857Y-72857142D01*
G04 #@! TO.C,F101*
X103256785Y-138468571D02*
X102923452Y-138468571D01*
X102923452Y-138992380D02*
X102923452Y-137992380D01*
X103399642Y-137992380D01*
X104304404Y-138992380D02*
X103732976Y-138992380D01*
X104018690Y-138992380D02*
X104018690Y-137992380D01*
X103923452Y-138135238D01*
X103828214Y-138230476D01*
X103732976Y-138278095D01*
X104923452Y-137992380D02*
X105018690Y-137992380D01*
X105113928Y-138040000D01*
X105161547Y-138087619D01*
X105209166Y-138182857D01*
X105256785Y-138373333D01*
X105256785Y-138611428D01*
X105209166Y-138801904D01*
X105161547Y-138897142D01*
X105113928Y-138944761D01*
X105018690Y-138992380D01*
X104923452Y-138992380D01*
X104828214Y-138944761D01*
X104780595Y-138897142D01*
X104732976Y-138801904D01*
X104685357Y-138611428D01*
X104685357Y-138373333D01*
X104732976Y-138182857D01*
X104780595Y-138087619D01*
X104828214Y-138040000D01*
X104923452Y-137992380D01*
X106209166Y-138992380D02*
X105637738Y-138992380D01*
X105923452Y-138992380D02*
X105923452Y-137992380D01*
X105828214Y-138135238D01*
X105732976Y-138230476D01*
X105637738Y-138278095D01*
G04 #@! TO.C,R107*
X89637452Y-93567380D02*
X89304119Y-93091190D01*
X89066023Y-93567380D02*
X89066023Y-92567380D01*
X89446976Y-92567380D01*
X89542214Y-92615000D01*
X89589833Y-92662619D01*
X89637452Y-92757857D01*
X89637452Y-92900714D01*
X89589833Y-92995952D01*
X89542214Y-93043571D01*
X89446976Y-93091190D01*
X89066023Y-93091190D01*
X90589833Y-93567380D02*
X90018404Y-93567380D01*
X90304119Y-93567380D02*
X90304119Y-92567380D01*
X90208880Y-92710238D01*
X90113642Y-92805476D01*
X90018404Y-92853095D01*
X91208880Y-92567380D02*
X91304119Y-92567380D01*
X91399357Y-92615000D01*
X91446976Y-92662619D01*
X91494595Y-92757857D01*
X91542214Y-92948333D01*
X91542214Y-93186428D01*
X91494595Y-93376904D01*
X91446976Y-93472142D01*
X91399357Y-93519761D01*
X91304119Y-93567380D01*
X91208880Y-93567380D01*
X91113642Y-93519761D01*
X91066023Y-93472142D01*
X91018404Y-93376904D01*
X90970785Y-93186428D01*
X90970785Y-92948333D01*
X91018404Y-92757857D01*
X91066023Y-92662619D01*
X91113642Y-92615000D01*
X91208880Y-92567380D01*
X91875547Y-92567380D02*
X92542214Y-92567380D01*
X92113642Y-93567380D01*
G04 #@! TO.C,B101*
X183642857Y-59428571D02*
X183785714Y-59476190D01*
X183833333Y-59523809D01*
X183880952Y-59619047D01*
X183880952Y-59761904D01*
X183833333Y-59857142D01*
X183785714Y-59904761D01*
X183690476Y-59952380D01*
X183309523Y-59952380D01*
X183309523Y-58952380D01*
X183642857Y-58952380D01*
X183738095Y-59000000D01*
X183785714Y-59047619D01*
X183833333Y-59142857D01*
X183833333Y-59238095D01*
X183785714Y-59333333D01*
X183738095Y-59380952D01*
X183642857Y-59428571D01*
X183309523Y-59428571D01*
X184833333Y-59952380D02*
X184261904Y-59952380D01*
X184547619Y-59952380D02*
X184547619Y-58952380D01*
X184452380Y-59095238D01*
X184357142Y-59190476D01*
X184261904Y-59238095D01*
X185452380Y-58952380D02*
X185547619Y-58952380D01*
X185642857Y-59000000D01*
X185690476Y-59047619D01*
X185738095Y-59142857D01*
X185785714Y-59333333D01*
X185785714Y-59571428D01*
X185738095Y-59761904D01*
X185690476Y-59857142D01*
X185642857Y-59904761D01*
X185547619Y-59952380D01*
X185452380Y-59952380D01*
X185357142Y-59904761D01*
X185309523Y-59857142D01*
X185261904Y-59761904D01*
X185214285Y-59571428D01*
X185214285Y-59333333D01*
X185261904Y-59142857D01*
X185309523Y-59047619D01*
X185357142Y-59000000D01*
X185452380Y-58952380D01*
X186738095Y-59952380D02*
X186166666Y-59952380D01*
X186452380Y-59952380D02*
X186452380Y-58952380D01*
X186357142Y-59095238D01*
X186261904Y-59190476D01*
X186166666Y-59238095D01*
X179164285Y-60192857D02*
X179164285Y-57907142D01*
X180307142Y-59050000D02*
X178021428Y-59050000D01*
X140564285Y-60192857D02*
X140564285Y-57907142D01*
X141707142Y-59050000D02*
X139421428Y-59050000D01*
X121264285Y-60192857D02*
X121264285Y-57907142D01*
X122407142Y-59050000D02*
X120121428Y-59050000D01*
X159864285Y-60192857D02*
X159864285Y-57907142D01*
X161007142Y-59050000D02*
X158721428Y-59050000D01*
G04 #@! TO.C,R120*
X101880952Y-87952380D02*
X101547619Y-87476190D01*
X101309523Y-87952380D02*
X101309523Y-86952380D01*
X101690476Y-86952380D01*
X101785714Y-87000000D01*
X101833333Y-87047619D01*
X101880952Y-87142857D01*
X101880952Y-87285714D01*
X101833333Y-87380952D01*
X101785714Y-87428571D01*
X101690476Y-87476190D01*
X101309523Y-87476190D01*
X102833333Y-87952380D02*
X102261904Y-87952380D01*
X102547619Y-87952380D02*
X102547619Y-86952380D01*
X102452380Y-87095238D01*
X102357142Y-87190476D01*
X102261904Y-87238095D01*
X103214285Y-87047619D02*
X103261904Y-87000000D01*
X103357142Y-86952380D01*
X103595238Y-86952380D01*
X103690476Y-87000000D01*
X103738095Y-87047619D01*
X103785714Y-87142857D01*
X103785714Y-87238095D01*
X103738095Y-87380952D01*
X103166666Y-87952380D01*
X103785714Y-87952380D01*
X104404761Y-86952380D02*
X104500000Y-86952380D01*
X104595238Y-87000000D01*
X104642857Y-87047619D01*
X104690476Y-87142857D01*
X104738095Y-87333333D01*
X104738095Y-87571428D01*
X104690476Y-87761904D01*
X104642857Y-87857142D01*
X104595238Y-87904761D01*
X104500000Y-87952380D01*
X104404761Y-87952380D01*
X104309523Y-87904761D01*
X104261904Y-87857142D01*
X104214285Y-87761904D01*
X104166666Y-87571428D01*
X104166666Y-87333333D01*
X104214285Y-87142857D01*
X104261904Y-87047619D01*
X104309523Y-87000000D01*
X104404761Y-86952380D01*
G04 #@! TO.C,C117*
X83335952Y-129262142D02*
X83288333Y-129309761D01*
X83145476Y-129357380D01*
X83050238Y-129357380D01*
X82907380Y-129309761D01*
X82812142Y-129214523D01*
X82764523Y-129119285D01*
X82716904Y-128928809D01*
X82716904Y-128785952D01*
X82764523Y-128595476D01*
X82812142Y-128500238D01*
X82907380Y-128405000D01*
X83050238Y-128357380D01*
X83145476Y-128357380D01*
X83288333Y-128405000D01*
X83335952Y-128452619D01*
X84288333Y-129357380D02*
X83716904Y-129357380D01*
X84002619Y-129357380D02*
X84002619Y-128357380D01*
X83907380Y-128500238D01*
X83812142Y-128595476D01*
X83716904Y-128643095D01*
X85240714Y-129357380D02*
X84669285Y-129357380D01*
X84955000Y-129357380D02*
X84955000Y-128357380D01*
X84859761Y-128500238D01*
X84764523Y-128595476D01*
X84669285Y-128643095D01*
X85574047Y-128357380D02*
X86240714Y-128357380D01*
X85812142Y-129357380D01*
G04 #@! TO.C,R129*
X97305952Y-142947380D02*
X96972619Y-142471190D01*
X96734523Y-142947380D02*
X96734523Y-141947380D01*
X97115476Y-141947380D01*
X97210714Y-141995000D01*
X97258333Y-142042619D01*
X97305952Y-142137857D01*
X97305952Y-142280714D01*
X97258333Y-142375952D01*
X97210714Y-142423571D01*
X97115476Y-142471190D01*
X96734523Y-142471190D01*
X98258333Y-142947380D02*
X97686904Y-142947380D01*
X97972619Y-142947380D02*
X97972619Y-141947380D01*
X97877380Y-142090238D01*
X97782142Y-142185476D01*
X97686904Y-142233095D01*
X98639285Y-142042619D02*
X98686904Y-141995000D01*
X98782142Y-141947380D01*
X99020238Y-141947380D01*
X99115476Y-141995000D01*
X99163095Y-142042619D01*
X99210714Y-142137857D01*
X99210714Y-142233095D01*
X99163095Y-142375952D01*
X98591666Y-142947380D01*
X99210714Y-142947380D01*
X99686904Y-142947380D02*
X99877380Y-142947380D01*
X99972619Y-142899761D01*
X100020238Y-142852142D01*
X100115476Y-142709285D01*
X100163095Y-142518809D01*
X100163095Y-142137857D01*
X100115476Y-142042619D01*
X100067857Y-141995000D01*
X99972619Y-141947380D01*
X99782142Y-141947380D01*
X99686904Y-141995000D01*
X99639285Y-142042619D01*
X99591666Y-142137857D01*
X99591666Y-142375952D01*
X99639285Y-142471190D01*
X99686904Y-142518809D01*
X99782142Y-142566428D01*
X99972619Y-142566428D01*
X100067857Y-142518809D01*
X100115476Y-142471190D01*
X100163095Y-142375952D01*
G04 #@! TO.C,R135*
X75080952Y-142692380D02*
X74747619Y-142216190D01*
X74509523Y-142692380D02*
X74509523Y-141692380D01*
X74890476Y-141692380D01*
X74985714Y-141740000D01*
X75033333Y-141787619D01*
X75080952Y-141882857D01*
X75080952Y-142025714D01*
X75033333Y-142120952D01*
X74985714Y-142168571D01*
X74890476Y-142216190D01*
X74509523Y-142216190D01*
X76033333Y-142692380D02*
X75461904Y-142692380D01*
X75747619Y-142692380D02*
X75747619Y-141692380D01*
X75652380Y-141835238D01*
X75557142Y-141930476D01*
X75461904Y-141978095D01*
X76366666Y-141692380D02*
X76985714Y-141692380D01*
X76652380Y-142073333D01*
X76795238Y-142073333D01*
X76890476Y-142120952D01*
X76938095Y-142168571D01*
X76985714Y-142263809D01*
X76985714Y-142501904D01*
X76938095Y-142597142D01*
X76890476Y-142644761D01*
X76795238Y-142692380D01*
X76509523Y-142692380D01*
X76414285Y-142644761D01*
X76366666Y-142597142D01*
X77890476Y-141692380D02*
X77414285Y-141692380D01*
X77366666Y-142168571D01*
X77414285Y-142120952D01*
X77509523Y-142073333D01*
X77747619Y-142073333D01*
X77842857Y-142120952D01*
X77890476Y-142168571D01*
X77938095Y-142263809D01*
X77938095Y-142501904D01*
X77890476Y-142597142D01*
X77842857Y-142644761D01*
X77747619Y-142692380D01*
X77509523Y-142692380D01*
X77414285Y-142644761D01*
X77366666Y-142597142D01*
G04 #@! TO.C,U104*
X203009714Y-114768380D02*
X203009714Y-115577904D01*
X203057333Y-115673142D01*
X203104952Y-115720761D01*
X203200190Y-115768380D01*
X203390666Y-115768380D01*
X203485904Y-115720761D01*
X203533523Y-115673142D01*
X203581142Y-115577904D01*
X203581142Y-114768380D01*
X204581142Y-115768380D02*
X204009714Y-115768380D01*
X204295428Y-115768380D02*
X204295428Y-114768380D01*
X204200190Y-114911238D01*
X204104952Y-115006476D01*
X204009714Y-115054095D01*
X205200190Y-114768380D02*
X205295428Y-114768380D01*
X205390666Y-114816000D01*
X205438285Y-114863619D01*
X205485904Y-114958857D01*
X205533523Y-115149333D01*
X205533523Y-115387428D01*
X205485904Y-115577904D01*
X205438285Y-115673142D01*
X205390666Y-115720761D01*
X205295428Y-115768380D01*
X205200190Y-115768380D01*
X205104952Y-115720761D01*
X205057333Y-115673142D01*
X205009714Y-115577904D01*
X204962095Y-115387428D01*
X204962095Y-115149333D01*
X205009714Y-114958857D01*
X205057333Y-114863619D01*
X205104952Y-114816000D01*
X205200190Y-114768380D01*
X206390666Y-115101714D02*
X206390666Y-115768380D01*
X206152571Y-114720761D02*
X205914476Y-115435047D01*
X206533523Y-115435047D01*
G04 #@! TO.C,R108*
X88452380Y-99119047D02*
X87976190Y-99452380D01*
X88452380Y-99690476D02*
X87452380Y-99690476D01*
X87452380Y-99309523D01*
X87500000Y-99214285D01*
X87547619Y-99166666D01*
X87642857Y-99119047D01*
X87785714Y-99119047D01*
X87880952Y-99166666D01*
X87928571Y-99214285D01*
X87976190Y-99309523D01*
X87976190Y-99690476D01*
X88452380Y-98166666D02*
X88452380Y-98738095D01*
X88452380Y-98452380D02*
X87452380Y-98452380D01*
X87595238Y-98547619D01*
X87690476Y-98642857D01*
X87738095Y-98738095D01*
X87452380Y-97547619D02*
X87452380Y-97452380D01*
X87500000Y-97357142D01*
X87547619Y-97309523D01*
X87642857Y-97261904D01*
X87833333Y-97214285D01*
X88071428Y-97214285D01*
X88261904Y-97261904D01*
X88357142Y-97309523D01*
X88404761Y-97357142D01*
X88452380Y-97452380D01*
X88452380Y-97547619D01*
X88404761Y-97642857D01*
X88357142Y-97690476D01*
X88261904Y-97738095D01*
X88071428Y-97785714D01*
X87833333Y-97785714D01*
X87642857Y-97738095D01*
X87547619Y-97690476D01*
X87500000Y-97642857D01*
X87452380Y-97547619D01*
X87880952Y-96642857D02*
X87833333Y-96738095D01*
X87785714Y-96785714D01*
X87690476Y-96833333D01*
X87642857Y-96833333D01*
X87547619Y-96785714D01*
X87500000Y-96738095D01*
X87452380Y-96642857D01*
X87452380Y-96452380D01*
X87500000Y-96357142D01*
X87547619Y-96309523D01*
X87642857Y-96261904D01*
X87690476Y-96261904D01*
X87785714Y-96309523D01*
X87833333Y-96357142D01*
X87880952Y-96452380D01*
X87880952Y-96642857D01*
X87928571Y-96738095D01*
X87976190Y-96785714D01*
X88071428Y-96833333D01*
X88261904Y-96833333D01*
X88357142Y-96785714D01*
X88404761Y-96738095D01*
X88452380Y-96642857D01*
X88452380Y-96452380D01*
X88404761Y-96357142D01*
X88357142Y-96309523D01*
X88261904Y-96261904D01*
X88071428Y-96261904D01*
X87976190Y-96309523D01*
X87928571Y-96357142D01*
X87880952Y-96452380D01*
G04 #@! TO.C,R105*
X80880952Y-89452380D02*
X80547619Y-88976190D01*
X80309523Y-89452380D02*
X80309523Y-88452380D01*
X80690476Y-88452380D01*
X80785714Y-88500000D01*
X80833333Y-88547619D01*
X80880952Y-88642857D01*
X80880952Y-88785714D01*
X80833333Y-88880952D01*
X80785714Y-88928571D01*
X80690476Y-88976190D01*
X80309523Y-88976190D01*
X81833333Y-89452380D02*
X81261904Y-89452380D01*
X81547619Y-89452380D02*
X81547619Y-88452380D01*
X81452380Y-88595238D01*
X81357142Y-88690476D01*
X81261904Y-88738095D01*
X82452380Y-88452380D02*
X82547619Y-88452380D01*
X82642857Y-88500000D01*
X82690476Y-88547619D01*
X82738095Y-88642857D01*
X82785714Y-88833333D01*
X82785714Y-89071428D01*
X82738095Y-89261904D01*
X82690476Y-89357142D01*
X82642857Y-89404761D01*
X82547619Y-89452380D01*
X82452380Y-89452380D01*
X82357142Y-89404761D01*
X82309523Y-89357142D01*
X82261904Y-89261904D01*
X82214285Y-89071428D01*
X82214285Y-88833333D01*
X82261904Y-88642857D01*
X82309523Y-88547619D01*
X82357142Y-88500000D01*
X82452380Y-88452380D01*
X83690476Y-88452380D02*
X83214285Y-88452380D01*
X83166666Y-88928571D01*
X83214285Y-88880952D01*
X83309523Y-88833333D01*
X83547619Y-88833333D01*
X83642857Y-88880952D01*
X83690476Y-88928571D01*
X83738095Y-89023809D01*
X83738095Y-89261904D01*
X83690476Y-89357142D01*
X83642857Y-89404761D01*
X83547619Y-89452380D01*
X83309523Y-89452380D01*
X83214285Y-89404761D01*
X83166666Y-89357142D01*
G04 #@! TO.C,R137*
X91590952Y-140152380D02*
X91257619Y-139676190D01*
X91019523Y-140152380D02*
X91019523Y-139152380D01*
X91400476Y-139152380D01*
X91495714Y-139200000D01*
X91543333Y-139247619D01*
X91590952Y-139342857D01*
X91590952Y-139485714D01*
X91543333Y-139580952D01*
X91495714Y-139628571D01*
X91400476Y-139676190D01*
X91019523Y-139676190D01*
X92543333Y-140152380D02*
X91971904Y-140152380D01*
X92257619Y-140152380D02*
X92257619Y-139152380D01*
X92162380Y-139295238D01*
X92067142Y-139390476D01*
X91971904Y-139438095D01*
X92876666Y-139152380D02*
X93495714Y-139152380D01*
X93162380Y-139533333D01*
X93305238Y-139533333D01*
X93400476Y-139580952D01*
X93448095Y-139628571D01*
X93495714Y-139723809D01*
X93495714Y-139961904D01*
X93448095Y-140057142D01*
X93400476Y-140104761D01*
X93305238Y-140152380D01*
X93019523Y-140152380D01*
X92924285Y-140104761D01*
X92876666Y-140057142D01*
X93829047Y-139152380D02*
X94495714Y-139152380D01*
X94067142Y-140152380D01*
G04 #@! TO.C,R127*
X73810952Y-129992380D02*
X73477619Y-129516190D01*
X73239523Y-129992380D02*
X73239523Y-128992380D01*
X73620476Y-128992380D01*
X73715714Y-129040000D01*
X73763333Y-129087619D01*
X73810952Y-129182857D01*
X73810952Y-129325714D01*
X73763333Y-129420952D01*
X73715714Y-129468571D01*
X73620476Y-129516190D01*
X73239523Y-129516190D01*
X74763333Y-129992380D02*
X74191904Y-129992380D01*
X74477619Y-129992380D02*
X74477619Y-128992380D01*
X74382380Y-129135238D01*
X74287142Y-129230476D01*
X74191904Y-129278095D01*
X75144285Y-129087619D02*
X75191904Y-129040000D01*
X75287142Y-128992380D01*
X75525238Y-128992380D01*
X75620476Y-129040000D01*
X75668095Y-129087619D01*
X75715714Y-129182857D01*
X75715714Y-129278095D01*
X75668095Y-129420952D01*
X75096666Y-129992380D01*
X75715714Y-129992380D01*
X76049047Y-128992380D02*
X76715714Y-128992380D01*
X76287142Y-129992380D01*
G04 #@! TO.C,Q101*
X79547619Y-106547619D02*
X79500000Y-106642857D01*
X79404761Y-106738095D01*
X79261904Y-106880952D01*
X79214285Y-106976190D01*
X79214285Y-107071428D01*
X79452380Y-107023809D02*
X79404761Y-107119047D01*
X79309523Y-107214285D01*
X79119047Y-107261904D01*
X78785714Y-107261904D01*
X78595238Y-107214285D01*
X78500000Y-107119047D01*
X78452380Y-107023809D01*
X78452380Y-106833333D01*
X78500000Y-106738095D01*
X78595238Y-106642857D01*
X78785714Y-106595238D01*
X79119047Y-106595238D01*
X79309523Y-106642857D01*
X79404761Y-106738095D01*
X79452380Y-106833333D01*
X79452380Y-107023809D01*
X79452380Y-105642857D02*
X79452380Y-106214285D01*
X79452380Y-105928571D02*
X78452380Y-105928571D01*
X78595238Y-106023809D01*
X78690476Y-106119047D01*
X78738095Y-106214285D01*
X78452380Y-105023809D02*
X78452380Y-104928571D01*
X78500000Y-104833333D01*
X78547619Y-104785714D01*
X78642857Y-104738095D01*
X78833333Y-104690476D01*
X79071428Y-104690476D01*
X79261904Y-104738095D01*
X79357142Y-104785714D01*
X79404761Y-104833333D01*
X79452380Y-104928571D01*
X79452380Y-105023809D01*
X79404761Y-105119047D01*
X79357142Y-105166666D01*
X79261904Y-105214285D01*
X79071428Y-105261904D01*
X78833333Y-105261904D01*
X78642857Y-105214285D01*
X78547619Y-105166666D01*
X78500000Y-105119047D01*
X78452380Y-105023809D01*
X79452380Y-103738095D02*
X79452380Y-104309523D01*
X79452380Y-104023809D02*
X78452380Y-104023809D01*
X78595238Y-104119047D01*
X78690476Y-104214285D01*
X78738095Y-104309523D01*
G04 #@! TO.C,D103*
X73647380Y-87690476D02*
X72647380Y-87690476D01*
X72647380Y-87452380D01*
X72695000Y-87309523D01*
X72790238Y-87214285D01*
X72885476Y-87166666D01*
X73075952Y-87119047D01*
X73218809Y-87119047D01*
X73409285Y-87166666D01*
X73504523Y-87214285D01*
X73599761Y-87309523D01*
X73647380Y-87452380D01*
X73647380Y-87690476D01*
X73647380Y-86166666D02*
X73647380Y-86738095D01*
X73647380Y-86452380D02*
X72647380Y-86452380D01*
X72790238Y-86547619D01*
X72885476Y-86642857D01*
X72933095Y-86738095D01*
X72647380Y-85547619D02*
X72647380Y-85452380D01*
X72695000Y-85357142D01*
X72742619Y-85309523D01*
X72837857Y-85261904D01*
X73028333Y-85214285D01*
X73266428Y-85214285D01*
X73456904Y-85261904D01*
X73552142Y-85309523D01*
X73599761Y-85357142D01*
X73647380Y-85452380D01*
X73647380Y-85547619D01*
X73599761Y-85642857D01*
X73552142Y-85690476D01*
X73456904Y-85738095D01*
X73266428Y-85785714D01*
X73028333Y-85785714D01*
X72837857Y-85738095D01*
X72742619Y-85690476D01*
X72695000Y-85642857D01*
X72647380Y-85547619D01*
X72647380Y-84880952D02*
X72647380Y-84261904D01*
X73028333Y-84595238D01*
X73028333Y-84452380D01*
X73075952Y-84357142D01*
X73123571Y-84309523D01*
X73218809Y-84261904D01*
X73456904Y-84261904D01*
X73552142Y-84309523D01*
X73599761Y-84357142D01*
X73647380Y-84452380D01*
X73647380Y-84738095D01*
X73599761Y-84833333D01*
X73552142Y-84880952D01*
G04 #@! TO.C,C112*
X212830952Y-70037142D02*
X212783333Y-70084761D01*
X212640476Y-70132380D01*
X212545238Y-70132380D01*
X212402380Y-70084761D01*
X212307142Y-69989523D01*
X212259523Y-69894285D01*
X212211904Y-69703809D01*
X212211904Y-69560952D01*
X212259523Y-69370476D01*
X212307142Y-69275238D01*
X212402380Y-69180000D01*
X212545238Y-69132380D01*
X212640476Y-69132380D01*
X212783333Y-69180000D01*
X212830952Y-69227619D01*
X213783333Y-70132380D02*
X213211904Y-70132380D01*
X213497619Y-70132380D02*
X213497619Y-69132380D01*
X213402380Y-69275238D01*
X213307142Y-69370476D01*
X213211904Y-69418095D01*
X214735714Y-70132380D02*
X214164285Y-70132380D01*
X214450000Y-70132380D02*
X214450000Y-69132380D01*
X214354761Y-69275238D01*
X214259523Y-69370476D01*
X214164285Y-69418095D01*
X215116666Y-69227619D02*
X215164285Y-69180000D01*
X215259523Y-69132380D01*
X215497619Y-69132380D01*
X215592857Y-69180000D01*
X215640476Y-69227619D01*
X215688095Y-69322857D01*
X215688095Y-69418095D01*
X215640476Y-69560952D01*
X215069047Y-70132380D01*
X215688095Y-70132380D01*
G04 #@! TO.C,R130*
X194460952Y-108656380D02*
X194127619Y-108180190D01*
X193889523Y-108656380D02*
X193889523Y-107656380D01*
X194270476Y-107656380D01*
X194365714Y-107704000D01*
X194413333Y-107751619D01*
X194460952Y-107846857D01*
X194460952Y-107989714D01*
X194413333Y-108084952D01*
X194365714Y-108132571D01*
X194270476Y-108180190D01*
X193889523Y-108180190D01*
X195413333Y-108656380D02*
X194841904Y-108656380D01*
X195127619Y-108656380D02*
X195127619Y-107656380D01*
X195032380Y-107799238D01*
X194937142Y-107894476D01*
X194841904Y-107942095D01*
X195746666Y-107656380D02*
X196365714Y-107656380D01*
X196032380Y-108037333D01*
X196175238Y-108037333D01*
X196270476Y-108084952D01*
X196318095Y-108132571D01*
X196365714Y-108227809D01*
X196365714Y-108465904D01*
X196318095Y-108561142D01*
X196270476Y-108608761D01*
X196175238Y-108656380D01*
X195889523Y-108656380D01*
X195794285Y-108608761D01*
X195746666Y-108561142D01*
X196984761Y-107656380D02*
X197080000Y-107656380D01*
X197175238Y-107704000D01*
X197222857Y-107751619D01*
X197270476Y-107846857D01*
X197318095Y-108037333D01*
X197318095Y-108275428D01*
X197270476Y-108465904D01*
X197222857Y-108561142D01*
X197175238Y-108608761D01*
X197080000Y-108656380D01*
X196984761Y-108656380D01*
X196889523Y-108608761D01*
X196841904Y-108561142D01*
X196794285Y-108465904D01*
X196746666Y-108275428D01*
X196746666Y-108037333D01*
X196794285Y-107846857D01*
X196841904Y-107751619D01*
X196889523Y-107704000D01*
X196984761Y-107656380D01*
G04 #@! TO.C,R118*
X100302380Y-102619047D02*
X99826190Y-102952380D01*
X100302380Y-103190476D02*
X99302380Y-103190476D01*
X99302380Y-102809523D01*
X99350000Y-102714285D01*
X99397619Y-102666666D01*
X99492857Y-102619047D01*
X99635714Y-102619047D01*
X99730952Y-102666666D01*
X99778571Y-102714285D01*
X99826190Y-102809523D01*
X99826190Y-103190476D01*
X100302380Y-101666666D02*
X100302380Y-102238095D01*
X100302380Y-101952380D02*
X99302380Y-101952380D01*
X99445238Y-102047619D01*
X99540476Y-102142857D01*
X99588095Y-102238095D01*
X100302380Y-100714285D02*
X100302380Y-101285714D01*
X100302380Y-101000000D02*
X99302380Y-101000000D01*
X99445238Y-101095238D01*
X99540476Y-101190476D01*
X99588095Y-101285714D01*
X99730952Y-100142857D02*
X99683333Y-100238095D01*
X99635714Y-100285714D01*
X99540476Y-100333333D01*
X99492857Y-100333333D01*
X99397619Y-100285714D01*
X99350000Y-100238095D01*
X99302380Y-100142857D01*
X99302380Y-99952380D01*
X99350000Y-99857142D01*
X99397619Y-99809523D01*
X99492857Y-99761904D01*
X99540476Y-99761904D01*
X99635714Y-99809523D01*
X99683333Y-99857142D01*
X99730952Y-99952380D01*
X99730952Y-100142857D01*
X99778571Y-100238095D01*
X99826190Y-100285714D01*
X99921428Y-100333333D01*
X100111904Y-100333333D01*
X100207142Y-100285714D01*
X100254761Y-100238095D01*
X100302380Y-100142857D01*
X100302380Y-99952380D01*
X100254761Y-99857142D01*
X100207142Y-99809523D01*
X100111904Y-99761904D01*
X99921428Y-99761904D01*
X99826190Y-99809523D01*
X99778571Y-99857142D01*
X99730952Y-99952380D01*
G04 #@! TO.C,R119*
X106510952Y-110452380D02*
X106177619Y-109976190D01*
X105939523Y-110452380D02*
X105939523Y-109452380D01*
X106320476Y-109452380D01*
X106415714Y-109500000D01*
X106463333Y-109547619D01*
X106510952Y-109642857D01*
X106510952Y-109785714D01*
X106463333Y-109880952D01*
X106415714Y-109928571D01*
X106320476Y-109976190D01*
X105939523Y-109976190D01*
X107463333Y-110452380D02*
X106891904Y-110452380D01*
X107177619Y-110452380D02*
X107177619Y-109452380D01*
X107082380Y-109595238D01*
X106987142Y-109690476D01*
X106891904Y-109738095D01*
X108415714Y-110452380D02*
X107844285Y-110452380D01*
X108130000Y-110452380D02*
X108130000Y-109452380D01*
X108034761Y-109595238D01*
X107939523Y-109690476D01*
X107844285Y-109738095D01*
X108891904Y-110452380D02*
X109082380Y-110452380D01*
X109177619Y-110404761D01*
X109225238Y-110357142D01*
X109320476Y-110214285D01*
X109368095Y-110023809D01*
X109368095Y-109642857D01*
X109320476Y-109547619D01*
X109272857Y-109500000D01*
X109177619Y-109452380D01*
X108987142Y-109452380D01*
X108891904Y-109500000D01*
X108844285Y-109547619D01*
X108796666Y-109642857D01*
X108796666Y-109880952D01*
X108844285Y-109976190D01*
X108891904Y-110023809D01*
X108987142Y-110071428D01*
X109177619Y-110071428D01*
X109272857Y-110023809D01*
X109320476Y-109976190D01*
X109368095Y-109880952D01*
G04 #@! TO.C,C106*
X96357142Y-86119047D02*
X96404761Y-86166666D01*
X96452380Y-86309523D01*
X96452380Y-86404761D01*
X96404761Y-86547619D01*
X96309523Y-86642857D01*
X96214285Y-86690476D01*
X96023809Y-86738095D01*
X95880952Y-86738095D01*
X95690476Y-86690476D01*
X95595238Y-86642857D01*
X95500000Y-86547619D01*
X95452380Y-86404761D01*
X95452380Y-86309523D01*
X95500000Y-86166666D01*
X95547619Y-86119047D01*
X96452380Y-85166666D02*
X96452380Y-85738095D01*
X96452380Y-85452380D02*
X95452380Y-85452380D01*
X95595238Y-85547619D01*
X95690476Y-85642857D01*
X95738095Y-85738095D01*
X95452380Y-84547619D02*
X95452380Y-84452380D01*
X95500000Y-84357142D01*
X95547619Y-84309523D01*
X95642857Y-84261904D01*
X95833333Y-84214285D01*
X96071428Y-84214285D01*
X96261904Y-84261904D01*
X96357142Y-84309523D01*
X96404761Y-84357142D01*
X96452380Y-84452380D01*
X96452380Y-84547619D01*
X96404761Y-84642857D01*
X96357142Y-84690476D01*
X96261904Y-84738095D01*
X96071428Y-84785714D01*
X95833333Y-84785714D01*
X95642857Y-84738095D01*
X95547619Y-84690476D01*
X95500000Y-84642857D01*
X95452380Y-84547619D01*
X95452380Y-83357142D02*
X95452380Y-83547619D01*
X95500000Y-83642857D01*
X95547619Y-83690476D01*
X95690476Y-83785714D01*
X95880952Y-83833333D01*
X96261904Y-83833333D01*
X96357142Y-83785714D01*
X96404761Y-83738095D01*
X96452380Y-83642857D01*
X96452380Y-83452380D01*
X96404761Y-83357142D01*
X96357142Y-83309523D01*
X96261904Y-83261904D01*
X96023809Y-83261904D01*
X95928571Y-83309523D01*
X95880952Y-83357142D01*
X95833333Y-83452380D01*
X95833333Y-83642857D01*
X95880952Y-83738095D01*
X95928571Y-83785714D01*
X96023809Y-83833333D01*
G04 #@! TO.C,R134*
X75080952Y-139159880D02*
X74747619Y-138683690D01*
X74509523Y-139159880D02*
X74509523Y-138159880D01*
X74890476Y-138159880D01*
X74985714Y-138207500D01*
X75033333Y-138255119D01*
X75080952Y-138350357D01*
X75080952Y-138493214D01*
X75033333Y-138588452D01*
X74985714Y-138636071D01*
X74890476Y-138683690D01*
X74509523Y-138683690D01*
X76033333Y-139159880D02*
X75461904Y-139159880D01*
X75747619Y-139159880D02*
X75747619Y-138159880D01*
X75652380Y-138302738D01*
X75557142Y-138397976D01*
X75461904Y-138445595D01*
X76366666Y-138159880D02*
X76985714Y-138159880D01*
X76652380Y-138540833D01*
X76795238Y-138540833D01*
X76890476Y-138588452D01*
X76938095Y-138636071D01*
X76985714Y-138731309D01*
X76985714Y-138969404D01*
X76938095Y-139064642D01*
X76890476Y-139112261D01*
X76795238Y-139159880D01*
X76509523Y-139159880D01*
X76414285Y-139112261D01*
X76366666Y-139064642D01*
X77842857Y-138493214D02*
X77842857Y-139159880D01*
X77604761Y-138112261D02*
X77366666Y-138826547D01*
X77985714Y-138826547D01*
G04 #@! TO.C,D101*
X92635023Y-118952380D02*
X92635023Y-117952380D01*
X92873119Y-117952380D01*
X93015976Y-118000000D01*
X93111214Y-118095238D01*
X93158833Y-118190476D01*
X93206452Y-118380952D01*
X93206452Y-118523809D01*
X93158833Y-118714285D01*
X93111214Y-118809523D01*
X93015976Y-118904761D01*
X92873119Y-118952380D01*
X92635023Y-118952380D01*
X94158833Y-118952380D02*
X93587404Y-118952380D01*
X93873119Y-118952380D02*
X93873119Y-117952380D01*
X93777880Y-118095238D01*
X93682642Y-118190476D01*
X93587404Y-118238095D01*
X94777880Y-117952380D02*
X94873119Y-117952380D01*
X94968357Y-118000000D01*
X95015976Y-118047619D01*
X95063595Y-118142857D01*
X95111214Y-118333333D01*
X95111214Y-118571428D01*
X95063595Y-118761904D01*
X95015976Y-118857142D01*
X94968357Y-118904761D01*
X94873119Y-118952380D01*
X94777880Y-118952380D01*
X94682642Y-118904761D01*
X94635023Y-118857142D01*
X94587404Y-118761904D01*
X94539785Y-118571428D01*
X94539785Y-118333333D01*
X94587404Y-118142857D01*
X94635023Y-118047619D01*
X94682642Y-118000000D01*
X94777880Y-117952380D01*
X96063595Y-118952380D02*
X95492166Y-118952380D01*
X95777880Y-118952380D02*
X95777880Y-117952380D01*
X95682642Y-118095238D01*
X95587404Y-118190476D01*
X95492166Y-118238095D01*
G04 #@! TO.C,R124*
X210170952Y-92219880D02*
X209837619Y-91743690D01*
X209599523Y-92219880D02*
X209599523Y-91219880D01*
X209980476Y-91219880D01*
X210075714Y-91267500D01*
X210123333Y-91315119D01*
X210170952Y-91410357D01*
X210170952Y-91553214D01*
X210123333Y-91648452D01*
X210075714Y-91696071D01*
X209980476Y-91743690D01*
X209599523Y-91743690D01*
X211123333Y-92219880D02*
X210551904Y-92219880D01*
X210837619Y-92219880D02*
X210837619Y-91219880D01*
X210742380Y-91362738D01*
X210647142Y-91457976D01*
X210551904Y-91505595D01*
X211504285Y-91315119D02*
X211551904Y-91267500D01*
X211647142Y-91219880D01*
X211885238Y-91219880D01*
X211980476Y-91267500D01*
X212028095Y-91315119D01*
X212075714Y-91410357D01*
X212075714Y-91505595D01*
X212028095Y-91648452D01*
X211456666Y-92219880D01*
X212075714Y-92219880D01*
X212932857Y-91553214D02*
X212932857Y-92219880D01*
X212694761Y-91172261D02*
X212456666Y-91886547D01*
X213075714Y-91886547D01*
G04 #@! TO.C,R104*
X81380952Y-85452380D02*
X81047619Y-84976190D01*
X80809523Y-85452380D02*
X80809523Y-84452380D01*
X81190476Y-84452380D01*
X81285714Y-84500000D01*
X81333333Y-84547619D01*
X81380952Y-84642857D01*
X81380952Y-84785714D01*
X81333333Y-84880952D01*
X81285714Y-84928571D01*
X81190476Y-84976190D01*
X80809523Y-84976190D01*
X82333333Y-85452380D02*
X81761904Y-85452380D01*
X82047619Y-85452380D02*
X82047619Y-84452380D01*
X81952380Y-84595238D01*
X81857142Y-84690476D01*
X81761904Y-84738095D01*
X82952380Y-84452380D02*
X83047619Y-84452380D01*
X83142857Y-84500000D01*
X83190476Y-84547619D01*
X83238095Y-84642857D01*
X83285714Y-84833333D01*
X83285714Y-85071428D01*
X83238095Y-85261904D01*
X83190476Y-85357142D01*
X83142857Y-85404761D01*
X83047619Y-85452380D01*
X82952380Y-85452380D01*
X82857142Y-85404761D01*
X82809523Y-85357142D01*
X82761904Y-85261904D01*
X82714285Y-85071428D01*
X82714285Y-84833333D01*
X82761904Y-84642857D01*
X82809523Y-84547619D01*
X82857142Y-84500000D01*
X82952380Y-84452380D01*
X84142857Y-84785714D02*
X84142857Y-85452380D01*
X83904761Y-84404761D02*
X83666666Y-85119047D01*
X84285714Y-85119047D01*
G04 #@! TO.C,D106*
X74112380Y-117690476D02*
X73112380Y-117690476D01*
X73112380Y-117452380D01*
X73160000Y-117309523D01*
X73255238Y-117214285D01*
X73350476Y-117166666D01*
X73540952Y-117119047D01*
X73683809Y-117119047D01*
X73874285Y-117166666D01*
X73969523Y-117214285D01*
X74064761Y-117309523D01*
X74112380Y-117452380D01*
X74112380Y-117690476D01*
X74112380Y-116166666D02*
X74112380Y-116738095D01*
X74112380Y-116452380D02*
X73112380Y-116452380D01*
X73255238Y-116547619D01*
X73350476Y-116642857D01*
X73398095Y-116738095D01*
X73112380Y-115547619D02*
X73112380Y-115452380D01*
X73160000Y-115357142D01*
X73207619Y-115309523D01*
X73302857Y-115261904D01*
X73493333Y-115214285D01*
X73731428Y-115214285D01*
X73921904Y-115261904D01*
X74017142Y-115309523D01*
X74064761Y-115357142D01*
X74112380Y-115452380D01*
X74112380Y-115547619D01*
X74064761Y-115642857D01*
X74017142Y-115690476D01*
X73921904Y-115738095D01*
X73731428Y-115785714D01*
X73493333Y-115785714D01*
X73302857Y-115738095D01*
X73207619Y-115690476D01*
X73160000Y-115642857D01*
X73112380Y-115547619D01*
X73112380Y-114357142D02*
X73112380Y-114547619D01*
X73160000Y-114642857D01*
X73207619Y-114690476D01*
X73350476Y-114785714D01*
X73540952Y-114833333D01*
X73921904Y-114833333D01*
X74017142Y-114785714D01*
X74064761Y-114738095D01*
X74112380Y-114642857D01*
X74112380Y-114452380D01*
X74064761Y-114357142D01*
X74017142Y-114309523D01*
X73921904Y-114261904D01*
X73683809Y-114261904D01*
X73588571Y-114309523D01*
X73540952Y-114357142D01*
X73493333Y-114452380D01*
X73493333Y-114642857D01*
X73540952Y-114738095D01*
X73588571Y-114785714D01*
X73683809Y-114833333D01*
G04 #@! TO.C,R116*
X106614452Y-107452380D02*
X106281119Y-106976190D01*
X106043023Y-107452380D02*
X106043023Y-106452380D01*
X106423976Y-106452380D01*
X106519214Y-106500000D01*
X106566833Y-106547619D01*
X106614452Y-106642857D01*
X106614452Y-106785714D01*
X106566833Y-106880952D01*
X106519214Y-106928571D01*
X106423976Y-106976190D01*
X106043023Y-106976190D01*
X107566833Y-107452380D02*
X106995404Y-107452380D01*
X107281119Y-107452380D02*
X107281119Y-106452380D01*
X107185880Y-106595238D01*
X107090642Y-106690476D01*
X106995404Y-106738095D01*
X108519214Y-107452380D02*
X107947785Y-107452380D01*
X108233500Y-107452380D02*
X108233500Y-106452380D01*
X108138261Y-106595238D01*
X108043023Y-106690476D01*
X107947785Y-106738095D01*
X109376357Y-106452380D02*
X109185880Y-106452380D01*
X109090642Y-106500000D01*
X109043023Y-106547619D01*
X108947785Y-106690476D01*
X108900166Y-106880952D01*
X108900166Y-107261904D01*
X108947785Y-107357142D01*
X108995404Y-107404761D01*
X109090642Y-107452380D01*
X109281119Y-107452380D01*
X109376357Y-107404761D01*
X109423976Y-107357142D01*
X109471595Y-107261904D01*
X109471595Y-107023809D01*
X109423976Y-106928571D01*
X109376357Y-106880952D01*
X109281119Y-106833333D01*
X109090642Y-106833333D01*
X108995404Y-106880952D01*
X108947785Y-106928571D01*
X108900166Y-107023809D01*
G04 #@! TO.C,R122*
X196170952Y-92132380D02*
X195837619Y-91656190D01*
X195599523Y-92132380D02*
X195599523Y-91132380D01*
X195980476Y-91132380D01*
X196075714Y-91180000D01*
X196123333Y-91227619D01*
X196170952Y-91322857D01*
X196170952Y-91465714D01*
X196123333Y-91560952D01*
X196075714Y-91608571D01*
X195980476Y-91656190D01*
X195599523Y-91656190D01*
X197123333Y-92132380D02*
X196551904Y-92132380D01*
X196837619Y-92132380D02*
X196837619Y-91132380D01*
X196742380Y-91275238D01*
X196647142Y-91370476D01*
X196551904Y-91418095D01*
X197504285Y-91227619D02*
X197551904Y-91180000D01*
X197647142Y-91132380D01*
X197885238Y-91132380D01*
X197980476Y-91180000D01*
X198028095Y-91227619D01*
X198075714Y-91322857D01*
X198075714Y-91418095D01*
X198028095Y-91560952D01*
X197456666Y-92132380D01*
X198075714Y-92132380D01*
X198456666Y-91227619D02*
X198504285Y-91180000D01*
X198599523Y-91132380D01*
X198837619Y-91132380D01*
X198932857Y-91180000D01*
X198980476Y-91227619D01*
X199028095Y-91322857D01*
X199028095Y-91418095D01*
X198980476Y-91560952D01*
X198409047Y-92132380D01*
X199028095Y-92132380D01*
G04 #@! TO.C,D105*
X89114523Y-143962380D02*
X89114523Y-142962380D01*
X89352619Y-142962380D01*
X89495476Y-143010000D01*
X89590714Y-143105238D01*
X89638333Y-143200476D01*
X89685952Y-143390952D01*
X89685952Y-143533809D01*
X89638333Y-143724285D01*
X89590714Y-143819523D01*
X89495476Y-143914761D01*
X89352619Y-143962380D01*
X89114523Y-143962380D01*
X90638333Y-143962380D02*
X90066904Y-143962380D01*
X90352619Y-143962380D02*
X90352619Y-142962380D01*
X90257380Y-143105238D01*
X90162142Y-143200476D01*
X90066904Y-143248095D01*
X91257380Y-142962380D02*
X91352619Y-142962380D01*
X91447857Y-143010000D01*
X91495476Y-143057619D01*
X91543095Y-143152857D01*
X91590714Y-143343333D01*
X91590714Y-143581428D01*
X91543095Y-143771904D01*
X91495476Y-143867142D01*
X91447857Y-143914761D01*
X91352619Y-143962380D01*
X91257380Y-143962380D01*
X91162142Y-143914761D01*
X91114523Y-143867142D01*
X91066904Y-143771904D01*
X91019285Y-143581428D01*
X91019285Y-143343333D01*
X91066904Y-143152857D01*
X91114523Y-143057619D01*
X91162142Y-143010000D01*
X91257380Y-142962380D01*
X92495476Y-142962380D02*
X92019285Y-142962380D01*
X91971666Y-143438571D01*
X92019285Y-143390952D01*
X92114523Y-143343333D01*
X92352619Y-143343333D01*
X92447857Y-143390952D01*
X92495476Y-143438571D01*
X92543095Y-143533809D01*
X92543095Y-143771904D01*
X92495476Y-143867142D01*
X92447857Y-143914761D01*
X92352619Y-143962380D01*
X92114523Y-143962380D01*
X92019285Y-143914761D01*
X91971666Y-143867142D01*
G04 #@! TO.C,R115*
X106580952Y-105952380D02*
X106247619Y-105476190D01*
X106009523Y-105952380D02*
X106009523Y-104952380D01*
X106390476Y-104952380D01*
X106485714Y-105000000D01*
X106533333Y-105047619D01*
X106580952Y-105142857D01*
X106580952Y-105285714D01*
X106533333Y-105380952D01*
X106485714Y-105428571D01*
X106390476Y-105476190D01*
X106009523Y-105476190D01*
X107533333Y-105952380D02*
X106961904Y-105952380D01*
X107247619Y-105952380D02*
X107247619Y-104952380D01*
X107152380Y-105095238D01*
X107057142Y-105190476D01*
X106961904Y-105238095D01*
X108485714Y-105952380D02*
X107914285Y-105952380D01*
X108200000Y-105952380D02*
X108200000Y-104952380D01*
X108104761Y-105095238D01*
X108009523Y-105190476D01*
X107914285Y-105238095D01*
X109390476Y-104952380D02*
X108914285Y-104952380D01*
X108866666Y-105428571D01*
X108914285Y-105380952D01*
X109009523Y-105333333D01*
X109247619Y-105333333D01*
X109342857Y-105380952D01*
X109390476Y-105428571D01*
X109438095Y-105523809D01*
X109438095Y-105761904D01*
X109390476Y-105857142D01*
X109342857Y-105904761D01*
X109247619Y-105952380D01*
X109009523Y-105952380D01*
X108914285Y-105904761D01*
X108866666Y-105857142D01*
G04 #@! TO.C,R102*
X90452380Y-89119047D02*
X89976190Y-89452380D01*
X90452380Y-89690476D02*
X89452380Y-89690476D01*
X89452380Y-89309523D01*
X89500000Y-89214285D01*
X89547619Y-89166666D01*
X89642857Y-89119047D01*
X89785714Y-89119047D01*
X89880952Y-89166666D01*
X89928571Y-89214285D01*
X89976190Y-89309523D01*
X89976190Y-89690476D01*
X90452380Y-88166666D02*
X90452380Y-88738095D01*
X90452380Y-88452380D02*
X89452380Y-88452380D01*
X89595238Y-88547619D01*
X89690476Y-88642857D01*
X89738095Y-88738095D01*
X89452380Y-87547619D02*
X89452380Y-87452380D01*
X89500000Y-87357142D01*
X89547619Y-87309523D01*
X89642857Y-87261904D01*
X89833333Y-87214285D01*
X90071428Y-87214285D01*
X90261904Y-87261904D01*
X90357142Y-87309523D01*
X90404761Y-87357142D01*
X90452380Y-87452380D01*
X90452380Y-87547619D01*
X90404761Y-87642857D01*
X90357142Y-87690476D01*
X90261904Y-87738095D01*
X90071428Y-87785714D01*
X89833333Y-87785714D01*
X89642857Y-87738095D01*
X89547619Y-87690476D01*
X89500000Y-87642857D01*
X89452380Y-87547619D01*
X89547619Y-86833333D02*
X89500000Y-86785714D01*
X89452380Y-86690476D01*
X89452380Y-86452380D01*
X89500000Y-86357142D01*
X89547619Y-86309523D01*
X89642857Y-86261904D01*
X89738095Y-86261904D01*
X89880952Y-86309523D01*
X90452380Y-86880952D01*
X90452380Y-86261904D01*
G04 #@! TO.C,C107*
X93465817Y-96357142D02*
X93418198Y-96404761D01*
X93275341Y-96452380D01*
X93180103Y-96452380D01*
X93037245Y-96404761D01*
X92942007Y-96309523D01*
X92894388Y-96214285D01*
X92846769Y-96023809D01*
X92846769Y-95880952D01*
X92894388Y-95690476D01*
X92942007Y-95595238D01*
X93037245Y-95500000D01*
X93180103Y-95452380D01*
X93275341Y-95452380D01*
X93418198Y-95500000D01*
X93465817Y-95547619D01*
X94418198Y-96452380D02*
X93846769Y-96452380D01*
X94132484Y-96452380D02*
X94132484Y-95452380D01*
X94037245Y-95595238D01*
X93942007Y-95690476D01*
X93846769Y-95738095D01*
X95037245Y-95452380D02*
X95132484Y-95452380D01*
X95227722Y-95500000D01*
X95275341Y-95547619D01*
X95322960Y-95642857D01*
X95370579Y-95833333D01*
X95370579Y-96071428D01*
X95322960Y-96261904D01*
X95275341Y-96357142D01*
X95227722Y-96404761D01*
X95132484Y-96452380D01*
X95037245Y-96452380D01*
X94942007Y-96404761D01*
X94894388Y-96357142D01*
X94846769Y-96261904D01*
X94799150Y-96071428D01*
X94799150Y-95833333D01*
X94846769Y-95642857D01*
X94894388Y-95547619D01*
X94942007Y-95500000D01*
X95037245Y-95452380D01*
X95703912Y-95452380D02*
X96370579Y-95452380D01*
X95942007Y-96452380D01*
G04 #@! TO.C,R110*
X97880952Y-106952380D02*
X97547619Y-106476190D01*
X97309523Y-106952380D02*
X97309523Y-105952380D01*
X97690476Y-105952380D01*
X97785714Y-106000000D01*
X97833333Y-106047619D01*
X97880952Y-106142857D01*
X97880952Y-106285714D01*
X97833333Y-106380952D01*
X97785714Y-106428571D01*
X97690476Y-106476190D01*
X97309523Y-106476190D01*
X98833333Y-106952380D02*
X98261904Y-106952380D01*
X98547619Y-106952380D02*
X98547619Y-105952380D01*
X98452380Y-106095238D01*
X98357142Y-106190476D01*
X98261904Y-106238095D01*
X99785714Y-106952380D02*
X99214285Y-106952380D01*
X99500000Y-106952380D02*
X99500000Y-105952380D01*
X99404761Y-106095238D01*
X99309523Y-106190476D01*
X99214285Y-106238095D01*
X100404761Y-105952380D02*
X100500000Y-105952380D01*
X100595238Y-106000000D01*
X100642857Y-106047619D01*
X100690476Y-106142857D01*
X100738095Y-106333333D01*
X100738095Y-106571428D01*
X100690476Y-106761904D01*
X100642857Y-106857142D01*
X100595238Y-106904761D01*
X100500000Y-106952380D01*
X100404761Y-106952380D01*
X100309523Y-106904761D01*
X100261904Y-106857142D01*
X100214285Y-106761904D01*
X100166666Y-106571428D01*
X100166666Y-106333333D01*
X100214285Y-106142857D01*
X100261904Y-106047619D01*
X100309523Y-106000000D01*
X100404761Y-105952380D01*
G04 #@! TO.C,R109*
X85880952Y-101452380D02*
X85547619Y-100976190D01*
X85309523Y-101452380D02*
X85309523Y-100452380D01*
X85690476Y-100452380D01*
X85785714Y-100500000D01*
X85833333Y-100547619D01*
X85880952Y-100642857D01*
X85880952Y-100785714D01*
X85833333Y-100880952D01*
X85785714Y-100928571D01*
X85690476Y-100976190D01*
X85309523Y-100976190D01*
X86833333Y-101452380D02*
X86261904Y-101452380D01*
X86547619Y-101452380D02*
X86547619Y-100452380D01*
X86452380Y-100595238D01*
X86357142Y-100690476D01*
X86261904Y-100738095D01*
X87452380Y-100452380D02*
X87547619Y-100452380D01*
X87642857Y-100500000D01*
X87690476Y-100547619D01*
X87738095Y-100642857D01*
X87785714Y-100833333D01*
X87785714Y-101071428D01*
X87738095Y-101261904D01*
X87690476Y-101357142D01*
X87642857Y-101404761D01*
X87547619Y-101452380D01*
X87452380Y-101452380D01*
X87357142Y-101404761D01*
X87309523Y-101357142D01*
X87261904Y-101261904D01*
X87214285Y-101071428D01*
X87214285Y-100833333D01*
X87261904Y-100642857D01*
X87309523Y-100547619D01*
X87357142Y-100500000D01*
X87452380Y-100452380D01*
X88261904Y-101452380D02*
X88452380Y-101452380D01*
X88547619Y-101404761D01*
X88595238Y-101357142D01*
X88690476Y-101214285D01*
X88738095Y-101023809D01*
X88738095Y-100642857D01*
X88690476Y-100547619D01*
X88642857Y-100500000D01*
X88547619Y-100452380D01*
X88357142Y-100452380D01*
X88261904Y-100500000D01*
X88214285Y-100547619D01*
X88166666Y-100642857D01*
X88166666Y-100880952D01*
X88214285Y-100976190D01*
X88261904Y-101023809D01*
X88357142Y-101071428D01*
X88547619Y-101071428D01*
X88642857Y-101023809D01*
X88690476Y-100976190D01*
X88738095Y-100880952D01*
G04 #@! TO.C,C111*
X94380952Y-109357142D02*
X94333333Y-109404761D01*
X94190476Y-109452380D01*
X94095238Y-109452380D01*
X93952380Y-109404761D01*
X93857142Y-109309523D01*
X93809523Y-109214285D01*
X93761904Y-109023809D01*
X93761904Y-108880952D01*
X93809523Y-108690476D01*
X93857142Y-108595238D01*
X93952380Y-108500000D01*
X94095238Y-108452380D01*
X94190476Y-108452380D01*
X94333333Y-108500000D01*
X94380952Y-108547619D01*
X95333333Y-109452380D02*
X94761904Y-109452380D01*
X95047619Y-109452380D02*
X95047619Y-108452380D01*
X94952380Y-108595238D01*
X94857142Y-108690476D01*
X94761904Y-108738095D01*
X96285714Y-109452380D02*
X95714285Y-109452380D01*
X96000000Y-109452380D02*
X96000000Y-108452380D01*
X95904761Y-108595238D01*
X95809523Y-108690476D01*
X95714285Y-108738095D01*
X97238095Y-109452380D02*
X96666666Y-109452380D01*
X96952380Y-109452380D02*
X96952380Y-108452380D01*
X96857142Y-108595238D01*
X96761904Y-108690476D01*
X96666666Y-108738095D01*
G04 #@! TO.C,D102*
X87452380Y-121190476D02*
X86452380Y-121190476D01*
X86452380Y-120952380D01*
X86500000Y-120809523D01*
X86595238Y-120714285D01*
X86690476Y-120666666D01*
X86880952Y-120619047D01*
X87023809Y-120619047D01*
X87214285Y-120666666D01*
X87309523Y-120714285D01*
X87404761Y-120809523D01*
X87452380Y-120952380D01*
X87452380Y-121190476D01*
X87452380Y-119666666D02*
X87452380Y-120238095D01*
X87452380Y-119952380D02*
X86452380Y-119952380D01*
X86595238Y-120047619D01*
X86690476Y-120142857D01*
X86738095Y-120238095D01*
X86452380Y-119047619D02*
X86452380Y-118952380D01*
X86500000Y-118857142D01*
X86547619Y-118809523D01*
X86642857Y-118761904D01*
X86833333Y-118714285D01*
X87071428Y-118714285D01*
X87261904Y-118761904D01*
X87357142Y-118809523D01*
X87404761Y-118857142D01*
X87452380Y-118952380D01*
X87452380Y-119047619D01*
X87404761Y-119142857D01*
X87357142Y-119190476D01*
X87261904Y-119238095D01*
X87071428Y-119285714D01*
X86833333Y-119285714D01*
X86642857Y-119238095D01*
X86547619Y-119190476D01*
X86500000Y-119142857D01*
X86452380Y-119047619D01*
X86547619Y-118333333D02*
X86500000Y-118285714D01*
X86452380Y-118190476D01*
X86452380Y-117952380D01*
X86500000Y-117857142D01*
X86547619Y-117809523D01*
X86642857Y-117761904D01*
X86738095Y-117761904D01*
X86880952Y-117809523D01*
X87452380Y-118380952D01*
X87452380Y-117761904D01*
G04 #@! TO.C,R132*
X75080952Y-132174880D02*
X74747619Y-131698690D01*
X74509523Y-132174880D02*
X74509523Y-131174880D01*
X74890476Y-131174880D01*
X74985714Y-131222500D01*
X75033333Y-131270119D01*
X75080952Y-131365357D01*
X75080952Y-131508214D01*
X75033333Y-131603452D01*
X74985714Y-131651071D01*
X74890476Y-131698690D01*
X74509523Y-131698690D01*
X76033333Y-132174880D02*
X75461904Y-132174880D01*
X75747619Y-132174880D02*
X75747619Y-131174880D01*
X75652380Y-131317738D01*
X75557142Y-131412976D01*
X75461904Y-131460595D01*
X76366666Y-131174880D02*
X76985714Y-131174880D01*
X76652380Y-131555833D01*
X76795238Y-131555833D01*
X76890476Y-131603452D01*
X76938095Y-131651071D01*
X76985714Y-131746309D01*
X76985714Y-131984404D01*
X76938095Y-132079642D01*
X76890476Y-132127261D01*
X76795238Y-132174880D01*
X76509523Y-132174880D01*
X76414285Y-132127261D01*
X76366666Y-132079642D01*
X77366666Y-131270119D02*
X77414285Y-131222500D01*
X77509523Y-131174880D01*
X77747619Y-131174880D01*
X77842857Y-131222500D01*
X77890476Y-131270119D01*
X77938095Y-131365357D01*
X77938095Y-131460595D01*
X77890476Y-131603452D01*
X77319047Y-132174880D01*
X77938095Y-132174880D01*
G04 #@! TO.C,R101*
X97627952Y-87952380D02*
X97294619Y-87476190D01*
X97056523Y-87952380D02*
X97056523Y-86952380D01*
X97437476Y-86952380D01*
X97532714Y-87000000D01*
X97580333Y-87047619D01*
X97627952Y-87142857D01*
X97627952Y-87285714D01*
X97580333Y-87380952D01*
X97532714Y-87428571D01*
X97437476Y-87476190D01*
X97056523Y-87476190D01*
X98580333Y-87952380D02*
X98008904Y-87952380D01*
X98294619Y-87952380D02*
X98294619Y-86952380D01*
X98199380Y-87095238D01*
X98104142Y-87190476D01*
X98008904Y-87238095D01*
X99199380Y-86952380D02*
X99294619Y-86952380D01*
X99389857Y-87000000D01*
X99437476Y-87047619D01*
X99485095Y-87142857D01*
X99532714Y-87333333D01*
X99532714Y-87571428D01*
X99485095Y-87761904D01*
X99437476Y-87857142D01*
X99389857Y-87904761D01*
X99294619Y-87952380D01*
X99199380Y-87952380D01*
X99104142Y-87904761D01*
X99056523Y-87857142D01*
X99008904Y-87761904D01*
X98961285Y-87571428D01*
X98961285Y-87333333D01*
X99008904Y-87142857D01*
X99056523Y-87047619D01*
X99104142Y-87000000D01*
X99199380Y-86952380D01*
X100485095Y-87952380D02*
X99913666Y-87952380D01*
X100199380Y-87952380D02*
X100199380Y-86952380D01*
X100104142Y-87095238D01*
X100008904Y-87190476D01*
X99913666Y-87238095D01*
G04 #@! TO.C,C115*
X208684952Y-110212142D02*
X208637333Y-110259761D01*
X208494476Y-110307380D01*
X208399238Y-110307380D01*
X208256380Y-110259761D01*
X208161142Y-110164523D01*
X208113523Y-110069285D01*
X208065904Y-109878809D01*
X208065904Y-109735952D01*
X208113523Y-109545476D01*
X208161142Y-109450238D01*
X208256380Y-109355000D01*
X208399238Y-109307380D01*
X208494476Y-109307380D01*
X208637333Y-109355000D01*
X208684952Y-109402619D01*
X209637333Y-110307380D02*
X209065904Y-110307380D01*
X209351619Y-110307380D02*
X209351619Y-109307380D01*
X209256380Y-109450238D01*
X209161142Y-109545476D01*
X209065904Y-109593095D01*
X210589714Y-110307380D02*
X210018285Y-110307380D01*
X210304000Y-110307380D02*
X210304000Y-109307380D01*
X210208761Y-109450238D01*
X210113523Y-109545476D01*
X210018285Y-109593095D01*
X211494476Y-109307380D02*
X211018285Y-109307380D01*
X210970666Y-109783571D01*
X211018285Y-109735952D01*
X211113523Y-109688333D01*
X211351619Y-109688333D01*
X211446857Y-109735952D01*
X211494476Y-109783571D01*
X211542095Y-109878809D01*
X211542095Y-110116904D01*
X211494476Y-110212142D01*
X211446857Y-110259761D01*
X211351619Y-110307380D01*
X211113523Y-110307380D01*
X211018285Y-110259761D01*
X210970666Y-110212142D01*
G04 #@! TO.C,R117*
X106580952Y-108952380D02*
X106247619Y-108476190D01*
X106009523Y-108952380D02*
X106009523Y-107952380D01*
X106390476Y-107952380D01*
X106485714Y-108000000D01*
X106533333Y-108047619D01*
X106580952Y-108142857D01*
X106580952Y-108285714D01*
X106533333Y-108380952D01*
X106485714Y-108428571D01*
X106390476Y-108476190D01*
X106009523Y-108476190D01*
X107533333Y-108952380D02*
X106961904Y-108952380D01*
X107247619Y-108952380D02*
X107247619Y-107952380D01*
X107152380Y-108095238D01*
X107057142Y-108190476D01*
X106961904Y-108238095D01*
X108485714Y-108952380D02*
X107914285Y-108952380D01*
X108200000Y-108952380D02*
X108200000Y-107952380D01*
X108104761Y-108095238D01*
X108009523Y-108190476D01*
X107914285Y-108238095D01*
X108819047Y-107952380D02*
X109485714Y-107952380D01*
X109057142Y-108952380D01*
G04 #@! TO.C,J101*
X223152380Y-56835714D02*
X223866666Y-56835714D01*
X224009523Y-56883333D01*
X224104761Y-56978571D01*
X224152380Y-57121428D01*
X224152380Y-57216666D01*
X224152380Y-55835714D02*
X224152380Y-56407142D01*
X224152380Y-56121428D02*
X223152380Y-56121428D01*
X223295238Y-56216666D01*
X223390476Y-56311904D01*
X223438095Y-56407142D01*
X223152380Y-55216666D02*
X223152380Y-55121428D01*
X223200000Y-55026190D01*
X223247619Y-54978571D01*
X223342857Y-54930952D01*
X223533333Y-54883333D01*
X223771428Y-54883333D01*
X223961904Y-54930952D01*
X224057142Y-54978571D01*
X224104761Y-55026190D01*
X224152380Y-55121428D01*
X224152380Y-55216666D01*
X224104761Y-55311904D01*
X224057142Y-55359523D01*
X223961904Y-55407142D01*
X223771428Y-55454761D01*
X223533333Y-55454761D01*
X223342857Y-55407142D01*
X223247619Y-55359523D01*
X223200000Y-55311904D01*
X223152380Y-55216666D01*
X224152380Y-53930952D02*
X224152380Y-54502380D01*
X224152380Y-54216666D02*
X223152380Y-54216666D01*
X223295238Y-54311904D01*
X223390476Y-54407142D01*
X223438095Y-54502380D01*
G04 #@! TO.C,R121*
X191180952Y-63352380D02*
X190847619Y-62876190D01*
X190609523Y-63352380D02*
X190609523Y-62352380D01*
X190990476Y-62352380D01*
X191085714Y-62400000D01*
X191133333Y-62447619D01*
X191180952Y-62542857D01*
X191180952Y-62685714D01*
X191133333Y-62780952D01*
X191085714Y-62828571D01*
X190990476Y-62876190D01*
X190609523Y-62876190D01*
X192133333Y-63352380D02*
X191561904Y-63352380D01*
X191847619Y-63352380D02*
X191847619Y-62352380D01*
X191752380Y-62495238D01*
X191657142Y-62590476D01*
X191561904Y-62638095D01*
X192514285Y-62447619D02*
X192561904Y-62400000D01*
X192657142Y-62352380D01*
X192895238Y-62352380D01*
X192990476Y-62400000D01*
X193038095Y-62447619D01*
X193085714Y-62542857D01*
X193085714Y-62638095D01*
X193038095Y-62780952D01*
X192466666Y-63352380D01*
X193085714Y-63352380D01*
X194038095Y-63352380D02*
X193466666Y-63352380D01*
X193752380Y-63352380D02*
X193752380Y-62352380D01*
X193657142Y-62495238D01*
X193561904Y-62590476D01*
X193466666Y-62638095D01*
G04 #@! TO.C,R112*
X98380952Y-113952380D02*
X98047619Y-113476190D01*
X97809523Y-113952380D02*
X97809523Y-112952380D01*
X98190476Y-112952380D01*
X98285714Y-113000000D01*
X98333333Y-113047619D01*
X98380952Y-113142857D01*
X98380952Y-113285714D01*
X98333333Y-113380952D01*
X98285714Y-113428571D01*
X98190476Y-113476190D01*
X97809523Y-113476190D01*
X99333333Y-113952380D02*
X98761904Y-113952380D01*
X99047619Y-113952380D02*
X99047619Y-112952380D01*
X98952380Y-113095238D01*
X98857142Y-113190476D01*
X98761904Y-113238095D01*
X100285714Y-113952380D02*
X99714285Y-113952380D01*
X100000000Y-113952380D02*
X100000000Y-112952380D01*
X99904761Y-113095238D01*
X99809523Y-113190476D01*
X99714285Y-113238095D01*
X100666666Y-113047619D02*
X100714285Y-113000000D01*
X100809523Y-112952380D01*
X101047619Y-112952380D01*
X101142857Y-113000000D01*
X101190476Y-113047619D01*
X101238095Y-113142857D01*
X101238095Y-113238095D01*
X101190476Y-113380952D01*
X100619047Y-113952380D01*
X101238095Y-113952380D01*
G04 #@! TO.C,D116*
X212304523Y-104632380D02*
X212304523Y-103632380D01*
X212542619Y-103632380D01*
X212685476Y-103680000D01*
X212780714Y-103775238D01*
X212828333Y-103870476D01*
X212875952Y-104060952D01*
X212875952Y-104203809D01*
X212828333Y-104394285D01*
X212780714Y-104489523D01*
X212685476Y-104584761D01*
X212542619Y-104632380D01*
X212304523Y-104632380D01*
X213828333Y-104632380D02*
X213256904Y-104632380D01*
X213542619Y-104632380D02*
X213542619Y-103632380D01*
X213447380Y-103775238D01*
X213352142Y-103870476D01*
X213256904Y-103918095D01*
X214780714Y-104632380D02*
X214209285Y-104632380D01*
X214495000Y-104632380D02*
X214495000Y-103632380D01*
X214399761Y-103775238D01*
X214304523Y-103870476D01*
X214209285Y-103918095D01*
X215637857Y-103632380D02*
X215447380Y-103632380D01*
X215352142Y-103680000D01*
X215304523Y-103727619D01*
X215209285Y-103870476D01*
X215161666Y-104060952D01*
X215161666Y-104441904D01*
X215209285Y-104537142D01*
X215256904Y-104584761D01*
X215352142Y-104632380D01*
X215542619Y-104632380D01*
X215637857Y-104584761D01*
X215685476Y-104537142D01*
X215733095Y-104441904D01*
X215733095Y-104203809D01*
X215685476Y-104108571D01*
X215637857Y-104060952D01*
X215542619Y-104013333D01*
X215352142Y-104013333D01*
X215256904Y-104060952D01*
X215209285Y-104108571D01*
X215161666Y-104203809D01*
G04 #@! TO.C,C102*
X80880952Y-83357142D02*
X80833333Y-83404761D01*
X80690476Y-83452380D01*
X80595238Y-83452380D01*
X80452380Y-83404761D01*
X80357142Y-83309523D01*
X80309523Y-83214285D01*
X80261904Y-83023809D01*
X80261904Y-82880952D01*
X80309523Y-82690476D01*
X80357142Y-82595238D01*
X80452380Y-82500000D01*
X80595238Y-82452380D01*
X80690476Y-82452380D01*
X80833333Y-82500000D01*
X80880952Y-82547619D01*
X81833333Y-83452380D02*
X81261904Y-83452380D01*
X81547619Y-83452380D02*
X81547619Y-82452380D01*
X81452380Y-82595238D01*
X81357142Y-82690476D01*
X81261904Y-82738095D01*
X82452380Y-82452380D02*
X82547619Y-82452380D01*
X82642857Y-82500000D01*
X82690476Y-82547619D01*
X82738095Y-82642857D01*
X82785714Y-82833333D01*
X82785714Y-83071428D01*
X82738095Y-83261904D01*
X82690476Y-83357142D01*
X82642857Y-83404761D01*
X82547619Y-83452380D01*
X82452380Y-83452380D01*
X82357142Y-83404761D01*
X82309523Y-83357142D01*
X82261904Y-83261904D01*
X82214285Y-83071428D01*
X82214285Y-82833333D01*
X82261904Y-82642857D01*
X82309523Y-82547619D01*
X82357142Y-82500000D01*
X82452380Y-82452380D01*
X83166666Y-82547619D02*
X83214285Y-82500000D01*
X83309523Y-82452380D01*
X83547619Y-82452380D01*
X83642857Y-82500000D01*
X83690476Y-82547619D01*
X83738095Y-82642857D01*
X83738095Y-82738095D01*
X83690476Y-82880952D01*
X83119047Y-83452380D01*
X83738095Y-83452380D01*
G04 #@! TO.C,D112*
X73647380Y-137690476D02*
X72647380Y-137690476D01*
X72647380Y-137452380D01*
X72695000Y-137309523D01*
X72790238Y-137214285D01*
X72885476Y-137166666D01*
X73075952Y-137119047D01*
X73218809Y-137119047D01*
X73409285Y-137166666D01*
X73504523Y-137214285D01*
X73599761Y-137309523D01*
X73647380Y-137452380D01*
X73647380Y-137690476D01*
X73647380Y-136166666D02*
X73647380Y-136738095D01*
X73647380Y-136452380D02*
X72647380Y-136452380D01*
X72790238Y-136547619D01*
X72885476Y-136642857D01*
X72933095Y-136738095D01*
X73647380Y-135214285D02*
X73647380Y-135785714D01*
X73647380Y-135500000D02*
X72647380Y-135500000D01*
X72790238Y-135595238D01*
X72885476Y-135690476D01*
X72933095Y-135785714D01*
X72742619Y-134833333D02*
X72695000Y-134785714D01*
X72647380Y-134690476D01*
X72647380Y-134452380D01*
X72695000Y-134357142D01*
X72742619Y-134309523D01*
X72837857Y-134261904D01*
X72933095Y-134261904D01*
X73075952Y-134309523D01*
X73647380Y-134880952D01*
X73647380Y-134261904D01*
G04 #@! TO.C,R114*
X97880952Y-111952380D02*
X97547619Y-111476190D01*
X97309523Y-111952380D02*
X97309523Y-110952380D01*
X97690476Y-110952380D01*
X97785714Y-111000000D01*
X97833333Y-111047619D01*
X97880952Y-111142857D01*
X97880952Y-111285714D01*
X97833333Y-111380952D01*
X97785714Y-111428571D01*
X97690476Y-111476190D01*
X97309523Y-111476190D01*
X98833333Y-111952380D02*
X98261904Y-111952380D01*
X98547619Y-111952380D02*
X98547619Y-110952380D01*
X98452380Y-111095238D01*
X98357142Y-111190476D01*
X98261904Y-111238095D01*
X99785714Y-111952380D02*
X99214285Y-111952380D01*
X99500000Y-111952380D02*
X99500000Y-110952380D01*
X99404761Y-111095238D01*
X99309523Y-111190476D01*
X99214285Y-111238095D01*
X100642857Y-111285714D02*
X100642857Y-111952380D01*
X100404761Y-110904761D02*
X100166666Y-111619047D01*
X100785714Y-111619047D01*
G04 #@! TO.C,C103*
X81380952Y-87357142D02*
X81333333Y-87404761D01*
X81190476Y-87452380D01*
X81095238Y-87452380D01*
X80952380Y-87404761D01*
X80857142Y-87309523D01*
X80809523Y-87214285D01*
X80761904Y-87023809D01*
X80761904Y-86880952D01*
X80809523Y-86690476D01*
X80857142Y-86595238D01*
X80952380Y-86500000D01*
X81095238Y-86452380D01*
X81190476Y-86452380D01*
X81333333Y-86500000D01*
X81380952Y-86547619D01*
X82333333Y-87452380D02*
X81761904Y-87452380D01*
X82047619Y-87452380D02*
X82047619Y-86452380D01*
X81952380Y-86595238D01*
X81857142Y-86690476D01*
X81761904Y-86738095D01*
X82952380Y-86452380D02*
X83047619Y-86452380D01*
X83142857Y-86500000D01*
X83190476Y-86547619D01*
X83238095Y-86642857D01*
X83285714Y-86833333D01*
X83285714Y-87071428D01*
X83238095Y-87261904D01*
X83190476Y-87357142D01*
X83142857Y-87404761D01*
X83047619Y-87452380D01*
X82952380Y-87452380D01*
X82857142Y-87404761D01*
X82809523Y-87357142D01*
X82761904Y-87261904D01*
X82714285Y-87071428D01*
X82714285Y-86833333D01*
X82761904Y-86642857D01*
X82809523Y-86547619D01*
X82857142Y-86500000D01*
X82952380Y-86452380D01*
X83619047Y-86452380D02*
X84238095Y-86452380D01*
X83904761Y-86833333D01*
X84047619Y-86833333D01*
X84142857Y-86880952D01*
X84190476Y-86928571D01*
X84238095Y-87023809D01*
X84238095Y-87261904D01*
X84190476Y-87357142D01*
X84142857Y-87404761D01*
X84047619Y-87452380D01*
X83761904Y-87452380D01*
X83666666Y-87404761D01*
X83619047Y-87357142D01*
G04 #@! TO.C,C114*
X208684952Y-113260142D02*
X208637333Y-113307761D01*
X208494476Y-113355380D01*
X208399238Y-113355380D01*
X208256380Y-113307761D01*
X208161142Y-113212523D01*
X208113523Y-113117285D01*
X208065904Y-112926809D01*
X208065904Y-112783952D01*
X208113523Y-112593476D01*
X208161142Y-112498238D01*
X208256380Y-112403000D01*
X208399238Y-112355380D01*
X208494476Y-112355380D01*
X208637333Y-112403000D01*
X208684952Y-112450619D01*
X209637333Y-113355380D02*
X209065904Y-113355380D01*
X209351619Y-113355380D02*
X209351619Y-112355380D01*
X209256380Y-112498238D01*
X209161142Y-112593476D01*
X209065904Y-112641095D01*
X210589714Y-113355380D02*
X210018285Y-113355380D01*
X210304000Y-113355380D02*
X210304000Y-112355380D01*
X210208761Y-112498238D01*
X210113523Y-112593476D01*
X210018285Y-112641095D01*
X211446857Y-112688714D02*
X211446857Y-113355380D01*
X211208761Y-112307761D02*
X210970666Y-113022047D01*
X211589714Y-113022047D01*
G04 #@! TO.C,C109*
X94357142Y-94119047D02*
X94404761Y-94166666D01*
X94452380Y-94309523D01*
X94452380Y-94404761D01*
X94404761Y-94547619D01*
X94309523Y-94642857D01*
X94214285Y-94690476D01*
X94023809Y-94738095D01*
X93880952Y-94738095D01*
X93690476Y-94690476D01*
X93595238Y-94642857D01*
X93500000Y-94547619D01*
X93452380Y-94404761D01*
X93452380Y-94309523D01*
X93500000Y-94166666D01*
X93547619Y-94119047D01*
X94452380Y-93166666D02*
X94452380Y-93738095D01*
X94452380Y-93452380D02*
X93452380Y-93452380D01*
X93595238Y-93547619D01*
X93690476Y-93642857D01*
X93738095Y-93738095D01*
X93452380Y-92547619D02*
X93452380Y-92452380D01*
X93500000Y-92357142D01*
X93547619Y-92309523D01*
X93642857Y-92261904D01*
X93833333Y-92214285D01*
X94071428Y-92214285D01*
X94261904Y-92261904D01*
X94357142Y-92309523D01*
X94404761Y-92357142D01*
X94452380Y-92452380D01*
X94452380Y-92547619D01*
X94404761Y-92642857D01*
X94357142Y-92690476D01*
X94261904Y-92738095D01*
X94071428Y-92785714D01*
X93833333Y-92785714D01*
X93642857Y-92738095D01*
X93547619Y-92690476D01*
X93500000Y-92642857D01*
X93452380Y-92547619D01*
X94452380Y-91738095D02*
X94452380Y-91547619D01*
X94404761Y-91452380D01*
X94357142Y-91404761D01*
X94214285Y-91309523D01*
X94023809Y-91261904D01*
X93642857Y-91261904D01*
X93547619Y-91309523D01*
X93500000Y-91357142D01*
X93452380Y-91452380D01*
X93452380Y-91642857D01*
X93500000Y-91738095D01*
X93547619Y-91785714D01*
X93642857Y-91833333D01*
X93880952Y-91833333D01*
X93976190Y-91785714D01*
X94023809Y-91738095D01*
X94071428Y-91642857D01*
X94071428Y-91452380D01*
X94023809Y-91357142D01*
X93976190Y-91309523D01*
X93880952Y-91261904D01*
G04 #@! TO.C,R106*
X80880952Y-95452380D02*
X80547619Y-94976190D01*
X80309523Y-95452380D02*
X80309523Y-94452380D01*
X80690476Y-94452380D01*
X80785714Y-94500000D01*
X80833333Y-94547619D01*
X80880952Y-94642857D01*
X80880952Y-94785714D01*
X80833333Y-94880952D01*
X80785714Y-94928571D01*
X80690476Y-94976190D01*
X80309523Y-94976190D01*
X81833333Y-95452380D02*
X81261904Y-95452380D01*
X81547619Y-95452380D02*
X81547619Y-94452380D01*
X81452380Y-94595238D01*
X81357142Y-94690476D01*
X81261904Y-94738095D01*
X82452380Y-94452380D02*
X82547619Y-94452380D01*
X82642857Y-94500000D01*
X82690476Y-94547619D01*
X82738095Y-94642857D01*
X82785714Y-94833333D01*
X82785714Y-95071428D01*
X82738095Y-95261904D01*
X82690476Y-95357142D01*
X82642857Y-95404761D01*
X82547619Y-95452380D01*
X82452380Y-95452380D01*
X82357142Y-95404761D01*
X82309523Y-95357142D01*
X82261904Y-95261904D01*
X82214285Y-95071428D01*
X82214285Y-94833333D01*
X82261904Y-94642857D01*
X82309523Y-94547619D01*
X82357142Y-94500000D01*
X82452380Y-94452380D01*
X83642857Y-94452380D02*
X83452380Y-94452380D01*
X83357142Y-94500000D01*
X83309523Y-94547619D01*
X83214285Y-94690476D01*
X83166666Y-94880952D01*
X83166666Y-95261904D01*
X83214285Y-95357142D01*
X83261904Y-95404761D01*
X83357142Y-95452380D01*
X83547619Y-95452380D01*
X83642857Y-95404761D01*
X83690476Y-95357142D01*
X83738095Y-95261904D01*
X83738095Y-95023809D01*
X83690476Y-94928571D01*
X83642857Y-94880952D01*
X83547619Y-94833333D01*
X83357142Y-94833333D01*
X83261904Y-94880952D01*
X83214285Y-94928571D01*
X83166666Y-95023809D01*
G04 #@! TO.C,R133*
X75080952Y-135707380D02*
X74747619Y-135231190D01*
X74509523Y-135707380D02*
X74509523Y-134707380D01*
X74890476Y-134707380D01*
X74985714Y-134755000D01*
X75033333Y-134802619D01*
X75080952Y-134897857D01*
X75080952Y-135040714D01*
X75033333Y-135135952D01*
X74985714Y-135183571D01*
X74890476Y-135231190D01*
X74509523Y-135231190D01*
X76033333Y-135707380D02*
X75461904Y-135707380D01*
X75747619Y-135707380D02*
X75747619Y-134707380D01*
X75652380Y-134850238D01*
X75557142Y-134945476D01*
X75461904Y-134993095D01*
X76366666Y-134707380D02*
X76985714Y-134707380D01*
X76652380Y-135088333D01*
X76795238Y-135088333D01*
X76890476Y-135135952D01*
X76938095Y-135183571D01*
X76985714Y-135278809D01*
X76985714Y-135516904D01*
X76938095Y-135612142D01*
X76890476Y-135659761D01*
X76795238Y-135707380D01*
X76509523Y-135707380D01*
X76414285Y-135659761D01*
X76366666Y-135612142D01*
X77319047Y-134707380D02*
X77938095Y-134707380D01*
X77604761Y-135088333D01*
X77747619Y-135088333D01*
X77842857Y-135135952D01*
X77890476Y-135183571D01*
X77938095Y-135278809D01*
X77938095Y-135516904D01*
X77890476Y-135612142D01*
X77842857Y-135659761D01*
X77747619Y-135707380D01*
X77461904Y-135707380D01*
X77366666Y-135659761D01*
X77319047Y-135612142D01*
G04 #@! TO.C,R131*
X191031952Y-113482380D02*
X190698619Y-113006190D01*
X190460523Y-113482380D02*
X190460523Y-112482380D01*
X190841476Y-112482380D01*
X190936714Y-112530000D01*
X190984333Y-112577619D01*
X191031952Y-112672857D01*
X191031952Y-112815714D01*
X190984333Y-112910952D01*
X190936714Y-112958571D01*
X190841476Y-113006190D01*
X190460523Y-113006190D01*
X191984333Y-113482380D02*
X191412904Y-113482380D01*
X191698619Y-113482380D02*
X191698619Y-112482380D01*
X191603380Y-112625238D01*
X191508142Y-112720476D01*
X191412904Y-112768095D01*
X192317666Y-112482380D02*
X192936714Y-112482380D01*
X192603380Y-112863333D01*
X192746238Y-112863333D01*
X192841476Y-112910952D01*
X192889095Y-112958571D01*
X192936714Y-113053809D01*
X192936714Y-113291904D01*
X192889095Y-113387142D01*
X192841476Y-113434761D01*
X192746238Y-113482380D01*
X192460523Y-113482380D01*
X192365285Y-113434761D01*
X192317666Y-113387142D01*
X193889095Y-113482380D02*
X193317666Y-113482380D01*
X193603380Y-113482380D02*
X193603380Y-112482380D01*
X193508142Y-112625238D01*
X193412904Y-112720476D01*
X193317666Y-112768095D01*
G04 #@! TO.C,R111*
X93880952Y-103952380D02*
X93547619Y-103476190D01*
X93309523Y-103952380D02*
X93309523Y-102952380D01*
X93690476Y-102952380D01*
X93785714Y-103000000D01*
X93833333Y-103047619D01*
X93880952Y-103142857D01*
X93880952Y-103285714D01*
X93833333Y-103380952D01*
X93785714Y-103428571D01*
X93690476Y-103476190D01*
X93309523Y-103476190D01*
X94833333Y-103952380D02*
X94261904Y-103952380D01*
X94547619Y-103952380D02*
X94547619Y-102952380D01*
X94452380Y-103095238D01*
X94357142Y-103190476D01*
X94261904Y-103238095D01*
X95785714Y-103952380D02*
X95214285Y-103952380D01*
X95500000Y-103952380D02*
X95500000Y-102952380D01*
X95404761Y-103095238D01*
X95309523Y-103190476D01*
X95214285Y-103238095D01*
X96738095Y-103952380D02*
X96166666Y-103952380D01*
X96452380Y-103952380D02*
X96452380Y-102952380D01*
X96357142Y-103095238D01*
X96261904Y-103190476D01*
X96166666Y-103238095D01*
G04 #@! TO.C,U101*
X95452380Y-94714285D02*
X96261904Y-94714285D01*
X96357142Y-94666666D01*
X96404761Y-94619047D01*
X96452380Y-94523809D01*
X96452380Y-94333333D01*
X96404761Y-94238095D01*
X96357142Y-94190476D01*
X96261904Y-94142857D01*
X95452380Y-94142857D01*
X96452380Y-93142857D02*
X96452380Y-93714285D01*
X96452380Y-93428571D02*
X95452380Y-93428571D01*
X95595238Y-93523809D01*
X95690476Y-93619047D01*
X95738095Y-93714285D01*
X95452380Y-92523809D02*
X95452380Y-92428571D01*
X95500000Y-92333333D01*
X95547619Y-92285714D01*
X95642857Y-92238095D01*
X95833333Y-92190476D01*
X96071428Y-92190476D01*
X96261904Y-92238095D01*
X96357142Y-92285714D01*
X96404761Y-92333333D01*
X96452380Y-92428571D01*
X96452380Y-92523809D01*
X96404761Y-92619047D01*
X96357142Y-92666666D01*
X96261904Y-92714285D01*
X96071428Y-92761904D01*
X95833333Y-92761904D01*
X95642857Y-92714285D01*
X95547619Y-92666666D01*
X95500000Y-92619047D01*
X95452380Y-92523809D01*
X96452380Y-91238095D02*
X96452380Y-91809523D01*
X96452380Y-91523809D02*
X95452380Y-91523809D01*
X95595238Y-91619047D01*
X95690476Y-91714285D01*
X95738095Y-91809523D01*
G04 #@! TO.C,D104*
X73852380Y-67690476D02*
X72852380Y-67690476D01*
X72852380Y-67452380D01*
X72900000Y-67309523D01*
X72995238Y-67214285D01*
X73090476Y-67166666D01*
X73280952Y-67119047D01*
X73423809Y-67119047D01*
X73614285Y-67166666D01*
X73709523Y-67214285D01*
X73804761Y-67309523D01*
X73852380Y-67452380D01*
X73852380Y-67690476D01*
X73852380Y-66166666D02*
X73852380Y-66738095D01*
X73852380Y-66452380D02*
X72852380Y-66452380D01*
X72995238Y-66547619D01*
X73090476Y-66642857D01*
X73138095Y-66738095D01*
X72852380Y-65547619D02*
X72852380Y-65452380D01*
X72900000Y-65357142D01*
X72947619Y-65309523D01*
X73042857Y-65261904D01*
X73233333Y-65214285D01*
X73471428Y-65214285D01*
X73661904Y-65261904D01*
X73757142Y-65309523D01*
X73804761Y-65357142D01*
X73852380Y-65452380D01*
X73852380Y-65547619D01*
X73804761Y-65642857D01*
X73757142Y-65690476D01*
X73661904Y-65738095D01*
X73471428Y-65785714D01*
X73233333Y-65785714D01*
X73042857Y-65738095D01*
X72947619Y-65690476D01*
X72900000Y-65642857D01*
X72852380Y-65547619D01*
X73185714Y-64357142D02*
X73852380Y-64357142D01*
X72804761Y-64595238D02*
X73519047Y-64833333D01*
X73519047Y-64214285D01*
G04 #@! TO.C,R103*
X80880952Y-81452380D02*
X80547619Y-80976190D01*
X80309523Y-81452380D02*
X80309523Y-80452380D01*
X80690476Y-80452380D01*
X80785714Y-80500000D01*
X80833333Y-80547619D01*
X80880952Y-80642857D01*
X80880952Y-80785714D01*
X80833333Y-80880952D01*
X80785714Y-80928571D01*
X80690476Y-80976190D01*
X80309523Y-80976190D01*
X81833333Y-81452380D02*
X81261904Y-81452380D01*
X81547619Y-81452380D02*
X81547619Y-80452380D01*
X81452380Y-80595238D01*
X81357142Y-80690476D01*
X81261904Y-80738095D01*
X82452380Y-80452380D02*
X82547619Y-80452380D01*
X82642857Y-80500000D01*
X82690476Y-80547619D01*
X82738095Y-80642857D01*
X82785714Y-80833333D01*
X82785714Y-81071428D01*
X82738095Y-81261904D01*
X82690476Y-81357142D01*
X82642857Y-81404761D01*
X82547619Y-81452380D01*
X82452380Y-81452380D01*
X82357142Y-81404761D01*
X82309523Y-81357142D01*
X82261904Y-81261904D01*
X82214285Y-81071428D01*
X82214285Y-80833333D01*
X82261904Y-80642857D01*
X82309523Y-80547619D01*
X82357142Y-80500000D01*
X82452380Y-80452380D01*
X83119047Y-80452380D02*
X83738095Y-80452380D01*
X83404761Y-80833333D01*
X83547619Y-80833333D01*
X83642857Y-80880952D01*
X83690476Y-80928571D01*
X83738095Y-81023809D01*
X83738095Y-81261904D01*
X83690476Y-81357142D01*
X83642857Y-81404761D01*
X83547619Y-81452380D01*
X83261904Y-81452380D01*
X83166666Y-81404761D01*
X83119047Y-81357142D01*
G04 #@! TO.C,R128*
X71270952Y-143327380D02*
X70937619Y-142851190D01*
X70699523Y-143327380D02*
X70699523Y-142327380D01*
X71080476Y-142327380D01*
X71175714Y-142375000D01*
X71223333Y-142422619D01*
X71270952Y-142517857D01*
X71270952Y-142660714D01*
X71223333Y-142755952D01*
X71175714Y-142803571D01*
X71080476Y-142851190D01*
X70699523Y-142851190D01*
X72223333Y-143327380D02*
X71651904Y-143327380D01*
X71937619Y-143327380D02*
X71937619Y-142327380D01*
X71842380Y-142470238D01*
X71747142Y-142565476D01*
X71651904Y-142613095D01*
X72604285Y-142422619D02*
X72651904Y-142375000D01*
X72747142Y-142327380D01*
X72985238Y-142327380D01*
X73080476Y-142375000D01*
X73128095Y-142422619D01*
X73175714Y-142517857D01*
X73175714Y-142613095D01*
X73128095Y-142755952D01*
X72556666Y-143327380D01*
X73175714Y-143327380D01*
X73747142Y-142755952D02*
X73651904Y-142708333D01*
X73604285Y-142660714D01*
X73556666Y-142565476D01*
X73556666Y-142517857D01*
X73604285Y-142422619D01*
X73651904Y-142375000D01*
X73747142Y-142327380D01*
X73937619Y-142327380D01*
X74032857Y-142375000D01*
X74080476Y-142422619D01*
X74128095Y-142517857D01*
X74128095Y-142565476D01*
X74080476Y-142660714D01*
X74032857Y-142708333D01*
X73937619Y-142755952D01*
X73747142Y-142755952D01*
X73651904Y-142803571D01*
X73604285Y-142851190D01*
X73556666Y-142946428D01*
X73556666Y-143136904D01*
X73604285Y-143232142D01*
X73651904Y-143279761D01*
X73747142Y-143327380D01*
X73937619Y-143327380D01*
X74032857Y-143279761D01*
X74080476Y-143232142D01*
X74128095Y-143136904D01*
X74128095Y-142946428D01*
X74080476Y-142851190D01*
X74032857Y-142803571D01*
X73937619Y-142755952D01*
G04 #@! TO.C,R136*
X91590952Y-136342380D02*
X91257619Y-135866190D01*
X91019523Y-136342380D02*
X91019523Y-135342380D01*
X91400476Y-135342380D01*
X91495714Y-135390000D01*
X91543333Y-135437619D01*
X91590952Y-135532857D01*
X91590952Y-135675714D01*
X91543333Y-135770952D01*
X91495714Y-135818571D01*
X91400476Y-135866190D01*
X91019523Y-135866190D01*
X92543333Y-136342380D02*
X91971904Y-136342380D01*
X92257619Y-136342380D02*
X92257619Y-135342380D01*
X92162380Y-135485238D01*
X92067142Y-135580476D01*
X91971904Y-135628095D01*
X92876666Y-135342380D02*
X93495714Y-135342380D01*
X93162380Y-135723333D01*
X93305238Y-135723333D01*
X93400476Y-135770952D01*
X93448095Y-135818571D01*
X93495714Y-135913809D01*
X93495714Y-136151904D01*
X93448095Y-136247142D01*
X93400476Y-136294761D01*
X93305238Y-136342380D01*
X93019523Y-136342380D01*
X92924285Y-136294761D01*
X92876666Y-136247142D01*
X94352857Y-135342380D02*
X94162380Y-135342380D01*
X94067142Y-135390000D01*
X94019523Y-135437619D01*
X93924285Y-135580476D01*
X93876666Y-135770952D01*
X93876666Y-136151904D01*
X93924285Y-136247142D01*
X93971904Y-136294761D01*
X94067142Y-136342380D01*
X94257619Y-136342380D01*
X94352857Y-136294761D01*
X94400476Y-136247142D01*
X94448095Y-136151904D01*
X94448095Y-135913809D01*
X94400476Y-135818571D01*
X94352857Y-135770952D01*
X94257619Y-135723333D01*
X94067142Y-135723333D01*
X93971904Y-135770952D01*
X93924285Y-135818571D01*
X93876666Y-135913809D01*
G04 #@! TO.C,R126*
X73810952Y-120467380D02*
X73477619Y-119991190D01*
X73239523Y-120467380D02*
X73239523Y-119467380D01*
X73620476Y-119467380D01*
X73715714Y-119515000D01*
X73763333Y-119562619D01*
X73810952Y-119657857D01*
X73810952Y-119800714D01*
X73763333Y-119895952D01*
X73715714Y-119943571D01*
X73620476Y-119991190D01*
X73239523Y-119991190D01*
X74763333Y-120467380D02*
X74191904Y-120467380D01*
X74477619Y-120467380D02*
X74477619Y-119467380D01*
X74382380Y-119610238D01*
X74287142Y-119705476D01*
X74191904Y-119753095D01*
X75144285Y-119562619D02*
X75191904Y-119515000D01*
X75287142Y-119467380D01*
X75525238Y-119467380D01*
X75620476Y-119515000D01*
X75668095Y-119562619D01*
X75715714Y-119657857D01*
X75715714Y-119753095D01*
X75668095Y-119895952D01*
X75096666Y-120467380D01*
X75715714Y-120467380D01*
X76572857Y-119467380D02*
X76382380Y-119467380D01*
X76287142Y-119515000D01*
X76239523Y-119562619D01*
X76144285Y-119705476D01*
X76096666Y-119895952D01*
X76096666Y-120276904D01*
X76144285Y-120372142D01*
X76191904Y-120419761D01*
X76287142Y-120467380D01*
X76477619Y-120467380D01*
X76572857Y-120419761D01*
X76620476Y-120372142D01*
X76668095Y-120276904D01*
X76668095Y-120038809D01*
X76620476Y-119943571D01*
X76572857Y-119895952D01*
X76477619Y-119848333D01*
X76287142Y-119848333D01*
X76191904Y-119895952D01*
X76144285Y-119943571D01*
X76096666Y-120038809D01*
G04 #@! TO.C,D109*
X74112380Y-127690476D02*
X73112380Y-127690476D01*
X73112380Y-127452380D01*
X73160000Y-127309523D01*
X73255238Y-127214285D01*
X73350476Y-127166666D01*
X73540952Y-127119047D01*
X73683809Y-127119047D01*
X73874285Y-127166666D01*
X73969523Y-127214285D01*
X74064761Y-127309523D01*
X74112380Y-127452380D01*
X74112380Y-127690476D01*
X74112380Y-126166666D02*
X74112380Y-126738095D01*
X74112380Y-126452380D02*
X73112380Y-126452380D01*
X73255238Y-126547619D01*
X73350476Y-126642857D01*
X73398095Y-126738095D01*
X73112380Y-125547619D02*
X73112380Y-125452380D01*
X73160000Y-125357142D01*
X73207619Y-125309523D01*
X73302857Y-125261904D01*
X73493333Y-125214285D01*
X73731428Y-125214285D01*
X73921904Y-125261904D01*
X74017142Y-125309523D01*
X74064761Y-125357142D01*
X74112380Y-125452380D01*
X74112380Y-125547619D01*
X74064761Y-125642857D01*
X74017142Y-125690476D01*
X73921904Y-125738095D01*
X73731428Y-125785714D01*
X73493333Y-125785714D01*
X73302857Y-125738095D01*
X73207619Y-125690476D01*
X73160000Y-125642857D01*
X73112380Y-125547619D01*
X74112380Y-124738095D02*
X74112380Y-124547619D01*
X74064761Y-124452380D01*
X74017142Y-124404761D01*
X73874285Y-124309523D01*
X73683809Y-124261904D01*
X73302857Y-124261904D01*
X73207619Y-124309523D01*
X73160000Y-124357142D01*
X73112380Y-124452380D01*
X73112380Y-124642857D01*
X73160000Y-124738095D01*
X73207619Y-124785714D01*
X73302857Y-124833333D01*
X73540952Y-124833333D01*
X73636190Y-124785714D01*
X73683809Y-124738095D01*
X73731428Y-124642857D01*
X73731428Y-124452380D01*
X73683809Y-124357142D01*
X73636190Y-124309523D01*
X73540952Y-124261904D01*
G04 #@! TO.C,C105*
X80880952Y-93357142D02*
X80833333Y-93404761D01*
X80690476Y-93452380D01*
X80595238Y-93452380D01*
X80452380Y-93404761D01*
X80357142Y-93309523D01*
X80309523Y-93214285D01*
X80261904Y-93023809D01*
X80261904Y-92880952D01*
X80309523Y-92690476D01*
X80357142Y-92595238D01*
X80452380Y-92500000D01*
X80595238Y-92452380D01*
X80690476Y-92452380D01*
X80833333Y-92500000D01*
X80880952Y-92547619D01*
X81833333Y-93452380D02*
X81261904Y-93452380D01*
X81547619Y-93452380D02*
X81547619Y-92452380D01*
X81452380Y-92595238D01*
X81357142Y-92690476D01*
X81261904Y-92738095D01*
X82452380Y-92452380D02*
X82547619Y-92452380D01*
X82642857Y-92500000D01*
X82690476Y-92547619D01*
X82738095Y-92642857D01*
X82785714Y-92833333D01*
X82785714Y-93071428D01*
X82738095Y-93261904D01*
X82690476Y-93357142D01*
X82642857Y-93404761D01*
X82547619Y-93452380D01*
X82452380Y-93452380D01*
X82357142Y-93404761D01*
X82309523Y-93357142D01*
X82261904Y-93261904D01*
X82214285Y-93071428D01*
X82214285Y-92833333D01*
X82261904Y-92642857D01*
X82309523Y-92547619D01*
X82357142Y-92500000D01*
X82452380Y-92452380D01*
X83690476Y-92452380D02*
X83214285Y-92452380D01*
X83166666Y-92928571D01*
X83214285Y-92880952D01*
X83309523Y-92833333D01*
X83547619Y-92833333D01*
X83642857Y-92880952D01*
X83690476Y-92928571D01*
X83738095Y-93023809D01*
X83738095Y-93261904D01*
X83690476Y-93357142D01*
X83642857Y-93404761D01*
X83547619Y-93452380D01*
X83309523Y-93452380D01*
X83214285Y-93404761D01*
X83166666Y-93357142D01*
G04 #@! TO.C,R125*
X75405952Y-70937380D02*
X75072619Y-70461190D01*
X74834523Y-70937380D02*
X74834523Y-69937380D01*
X75215476Y-69937380D01*
X75310714Y-69985000D01*
X75358333Y-70032619D01*
X75405952Y-70127857D01*
X75405952Y-70270714D01*
X75358333Y-70365952D01*
X75310714Y-70413571D01*
X75215476Y-70461190D01*
X74834523Y-70461190D01*
X76358333Y-70937380D02*
X75786904Y-70937380D01*
X76072619Y-70937380D02*
X76072619Y-69937380D01*
X75977380Y-70080238D01*
X75882142Y-70175476D01*
X75786904Y-70223095D01*
X76739285Y-70032619D02*
X76786904Y-69985000D01*
X76882142Y-69937380D01*
X77120238Y-69937380D01*
X77215476Y-69985000D01*
X77263095Y-70032619D01*
X77310714Y-70127857D01*
X77310714Y-70223095D01*
X77263095Y-70365952D01*
X76691666Y-70937380D01*
X77310714Y-70937380D01*
X78215476Y-69937380D02*
X77739285Y-69937380D01*
X77691666Y-70413571D01*
X77739285Y-70365952D01*
X77834523Y-70318333D01*
X78072619Y-70318333D01*
X78167857Y-70365952D01*
X78215476Y-70413571D01*
X78263095Y-70508809D01*
X78263095Y-70746904D01*
X78215476Y-70842142D01*
X78167857Y-70889761D01*
X78072619Y-70937380D01*
X77834523Y-70937380D01*
X77739285Y-70889761D01*
X77691666Y-70842142D01*
G04 #@! TO.C,C101*
X89380952Y-81357142D02*
X89333333Y-81404761D01*
X89190476Y-81452380D01*
X89095238Y-81452380D01*
X88952380Y-81404761D01*
X88857142Y-81309523D01*
X88809523Y-81214285D01*
X88761904Y-81023809D01*
X88761904Y-80880952D01*
X88809523Y-80690476D01*
X88857142Y-80595238D01*
X88952380Y-80500000D01*
X89095238Y-80452380D01*
X89190476Y-80452380D01*
X89333333Y-80500000D01*
X89380952Y-80547619D01*
X90333333Y-81452380D02*
X89761904Y-81452380D01*
X90047619Y-81452380D02*
X90047619Y-80452380D01*
X89952380Y-80595238D01*
X89857142Y-80690476D01*
X89761904Y-80738095D01*
X90952380Y-80452380D02*
X91047619Y-80452380D01*
X91142857Y-80500000D01*
X91190476Y-80547619D01*
X91238095Y-80642857D01*
X91285714Y-80833333D01*
X91285714Y-81071428D01*
X91238095Y-81261904D01*
X91190476Y-81357142D01*
X91142857Y-81404761D01*
X91047619Y-81452380D01*
X90952380Y-81452380D01*
X90857142Y-81404761D01*
X90809523Y-81357142D01*
X90761904Y-81261904D01*
X90714285Y-81071428D01*
X90714285Y-80833333D01*
X90761904Y-80642857D01*
X90809523Y-80547619D01*
X90857142Y-80500000D01*
X90952380Y-80452380D01*
X92238095Y-81452380D02*
X91666666Y-81452380D01*
X91952380Y-81452380D02*
X91952380Y-80452380D01*
X91857142Y-80595238D01*
X91761904Y-80690476D01*
X91666666Y-80738095D01*
G04 #@! TO.C,U102*
X203009714Y-92162380D02*
X203009714Y-92971904D01*
X203057333Y-93067142D01*
X203104952Y-93114761D01*
X203200190Y-93162380D01*
X203390666Y-93162380D01*
X203485904Y-93114761D01*
X203533523Y-93067142D01*
X203581142Y-92971904D01*
X203581142Y-92162380D01*
X204581142Y-93162380D02*
X204009714Y-93162380D01*
X204295428Y-93162380D02*
X204295428Y-92162380D01*
X204200190Y-92305238D01*
X204104952Y-92400476D01*
X204009714Y-92448095D01*
X205200190Y-92162380D02*
X205295428Y-92162380D01*
X205390666Y-92210000D01*
X205438285Y-92257619D01*
X205485904Y-92352857D01*
X205533523Y-92543333D01*
X205533523Y-92781428D01*
X205485904Y-92971904D01*
X205438285Y-93067142D01*
X205390666Y-93114761D01*
X205295428Y-93162380D01*
X205200190Y-93162380D01*
X205104952Y-93114761D01*
X205057333Y-93067142D01*
X205009714Y-92971904D01*
X204962095Y-92781428D01*
X204962095Y-92543333D01*
X205009714Y-92352857D01*
X205057333Y-92257619D01*
X205104952Y-92210000D01*
X205200190Y-92162380D01*
X205914476Y-92257619D02*
X205962095Y-92210000D01*
X206057333Y-92162380D01*
X206295428Y-92162380D01*
X206390666Y-92210000D01*
X206438285Y-92257619D01*
X206485904Y-92352857D01*
X206485904Y-92448095D01*
X206438285Y-92590952D01*
X205866857Y-93162380D01*
X206485904Y-93162380D01*
G04 #@! TO.C,C104*
X80880952Y-91357142D02*
X80833333Y-91404761D01*
X80690476Y-91452380D01*
X80595238Y-91452380D01*
X80452380Y-91404761D01*
X80357142Y-91309523D01*
X80309523Y-91214285D01*
X80261904Y-91023809D01*
X80261904Y-90880952D01*
X80309523Y-90690476D01*
X80357142Y-90595238D01*
X80452380Y-90500000D01*
X80595238Y-90452380D01*
X80690476Y-90452380D01*
X80833333Y-90500000D01*
X80880952Y-90547619D01*
X81833333Y-91452380D02*
X81261904Y-91452380D01*
X81547619Y-91452380D02*
X81547619Y-90452380D01*
X81452380Y-90595238D01*
X81357142Y-90690476D01*
X81261904Y-90738095D01*
X82452380Y-90452380D02*
X82547619Y-90452380D01*
X82642857Y-90500000D01*
X82690476Y-90547619D01*
X82738095Y-90642857D01*
X82785714Y-90833333D01*
X82785714Y-91071428D01*
X82738095Y-91261904D01*
X82690476Y-91357142D01*
X82642857Y-91404761D01*
X82547619Y-91452380D01*
X82452380Y-91452380D01*
X82357142Y-91404761D01*
X82309523Y-91357142D01*
X82261904Y-91261904D01*
X82214285Y-91071428D01*
X82214285Y-90833333D01*
X82261904Y-90642857D01*
X82309523Y-90547619D01*
X82357142Y-90500000D01*
X82452380Y-90452380D01*
X83642857Y-90785714D02*
X83642857Y-91452380D01*
X83404761Y-90404761D02*
X83166666Y-91119047D01*
X83785714Y-91119047D01*
G04 #@! TO.C,R113*
X97880952Y-115952380D02*
X97547619Y-115476190D01*
X97309523Y-115952380D02*
X97309523Y-114952380D01*
X97690476Y-114952380D01*
X97785714Y-115000000D01*
X97833333Y-115047619D01*
X97880952Y-115142857D01*
X97880952Y-115285714D01*
X97833333Y-115380952D01*
X97785714Y-115428571D01*
X97690476Y-115476190D01*
X97309523Y-115476190D01*
X98833333Y-115952380D02*
X98261904Y-115952380D01*
X98547619Y-115952380D02*
X98547619Y-114952380D01*
X98452380Y-115095238D01*
X98357142Y-115190476D01*
X98261904Y-115238095D01*
X99785714Y-115952380D02*
X99214285Y-115952380D01*
X99500000Y-115952380D02*
X99500000Y-114952380D01*
X99404761Y-115095238D01*
X99309523Y-115190476D01*
X99214285Y-115238095D01*
X100119047Y-114952380D02*
X100738095Y-114952380D01*
X100404761Y-115333333D01*
X100547619Y-115333333D01*
X100642857Y-115380952D01*
X100690476Y-115428571D01*
X100738095Y-115523809D01*
X100738095Y-115761904D01*
X100690476Y-115857142D01*
X100642857Y-115904761D01*
X100547619Y-115952380D01*
X100261904Y-115952380D01*
X100166666Y-115904761D01*
X100119047Y-115857142D01*
D11*
G04 #@! TO.C,TH102*
X109320000Y-103320000D02*
G75*
G03*
X109320000Y-103320000I-920000J0D01*
G01*
X108400000Y-102400000D02*
X108400000Y-101780000D01*
G04 #@! TO.C,C110*
X94896117Y-99205000D02*
X94373613Y-99205000D01*
X94896117Y-100675000D02*
X94373613Y-100675000D01*
G04 #@! TO.C,C108*
X94703000Y-88756748D02*
X94703000Y-89279252D01*
X93233000Y-88756748D02*
X93233000Y-89279252D01*
G04 #@! TO.C,C116*
X213098748Y-115670000D02*
X213621252Y-115670000D01*
X213098748Y-114200000D02*
X213621252Y-114200000D01*
G04 #@! TO.C,C113*
X209230000Y-54586677D02*
X214770000Y-54586677D01*
X207379000Y-56746677D02*
X210759000Y-56746677D01*
X213241000Y-55866677D02*
X216110000Y-55866677D01*
X207018000Y-57866677D02*
X216982000Y-57866677D01*
X209111000Y-54666677D02*
X214889000Y-54666677D01*
X213241000Y-56666677D02*
X216584000Y-56666677D01*
X213241000Y-57066677D02*
X216754000Y-57066677D01*
X213241000Y-57506677D02*
X216897000Y-57506677D01*
X213241000Y-57266677D02*
X216824000Y-57266677D01*
X213241000Y-56706677D02*
X216603000Y-56706677D01*
X208653000Y-55026677D02*
X215347000Y-55026677D01*
X213241000Y-56106677D02*
X216273000Y-56106677D01*
X213241000Y-55826677D02*
X216080000Y-55826677D01*
X207310000Y-56906677D02*
X210759000Y-56906677D01*
X208625000Y-63847323D02*
X209625000Y-63847323D01*
X207475000Y-56546677D02*
X210759000Y-56546677D01*
X207326000Y-56866677D02*
X210759000Y-56866677D01*
X206946000Y-58347677D02*
X217054000Y-58347677D01*
X213241000Y-56586677D02*
X216545000Y-56586677D01*
X206976000Y-58106677D02*
X217024000Y-58106677D01*
X206989000Y-58026677D02*
X217011000Y-58026677D01*
X208564000Y-55106677D02*
X215436000Y-55106677D01*
X206920000Y-58867677D02*
X217080000Y-58867677D01*
X207072000Y-57626677D02*
X216928000Y-57626677D01*
X208439000Y-55226677D02*
X210759000Y-55226677D01*
X213241000Y-56266677D02*
X216371000Y-56266677D01*
X207455000Y-56586677D02*
X210759000Y-56586677D01*
X213241000Y-55506677D02*
X215824000Y-55506677D01*
X208011000Y-55706677D02*
X210759000Y-55706677D01*
X207103000Y-57506677D02*
X210759000Y-57506677D01*
X213241000Y-56746677D02*
X216621000Y-56746677D01*
X208043000Y-55666677D02*
X210759000Y-55666677D01*
X209711000Y-54306677D02*
X214289000Y-54306677D01*
X213241000Y-55786677D02*
X216050000Y-55786677D01*
X211401000Y-53786677D02*
X212599000Y-53786677D01*
X213241000Y-55706677D02*
X215989000Y-55706677D01*
X207779000Y-56026677D02*
X210759000Y-56026677D01*
X206960000Y-58227677D02*
X217040000Y-58227677D01*
X208894000Y-54826677D02*
X215106000Y-54826677D01*
X206930000Y-58547677D02*
X217070000Y-58547677D01*
X207189000Y-57226677D02*
X210759000Y-57226677D01*
X208480000Y-55186677D02*
X210759000Y-55186677D01*
X207753000Y-56066677D02*
X210759000Y-56066677D01*
X209635000Y-54346677D02*
X214365000Y-54346677D01*
X207003000Y-57946677D02*
X216997000Y-57946677D01*
X206935000Y-58467677D02*
X217065000Y-58467677D01*
X207583000Y-56346677D02*
X210759000Y-56346677D01*
X213241000Y-55426677D02*
X215753000Y-55426677D01*
X213241000Y-55986677D02*
X216194000Y-55986677D01*
X213241000Y-56626677D02*
X216564000Y-56626677D01*
X213241000Y-56146677D02*
X216298000Y-56146677D01*
X213241000Y-57426677D02*
X216874000Y-57426677D01*
X209291000Y-54546677D02*
X214709000Y-54546677D01*
X210622000Y-53946677D02*
X213378000Y-53946677D01*
X207436000Y-56626677D02*
X210759000Y-56626677D01*
X213241000Y-56786677D02*
X216639000Y-56786677D01*
X207560000Y-56386677D02*
X210759000Y-56386677D01*
X207834000Y-55946677D02*
X210759000Y-55946677D01*
X213241000Y-56026677D02*
X216221000Y-56026677D01*
X208321000Y-55346677D02*
X210759000Y-55346677D01*
X206965000Y-58187677D02*
X217035000Y-58187677D01*
X207517000Y-56466677D02*
X210759000Y-56466677D01*
X207806000Y-55986677D02*
X210759000Y-55986677D01*
X208247000Y-55426677D02*
X210759000Y-55426677D01*
X210056000Y-54146677D02*
X213944000Y-54146677D01*
X213241000Y-56506677D02*
X216504000Y-56506677D01*
X207293000Y-56946677D02*
X210759000Y-56946677D01*
X208794000Y-54906677D02*
X215206000Y-54906677D01*
X207044000Y-57746677D02*
X216956000Y-57746677D01*
X207150000Y-57346677D02*
X210759000Y-57346677D01*
X207062000Y-57666677D02*
X216938000Y-57666677D01*
X206923000Y-58667677D02*
X217077000Y-58667677D01*
X207538000Y-56426677D02*
X210759000Y-56426677D01*
X209490000Y-54426677D02*
X214510000Y-54426677D01*
X207217000Y-57146677D02*
X210759000Y-57146677D01*
X213241000Y-55466677D02*
X215789000Y-55466677D01*
X213241000Y-57346677D02*
X216850000Y-57346677D01*
X207653000Y-56226677D02*
X210759000Y-56226677D01*
X207035000Y-57786677D02*
X216965000Y-57786677D01*
X213241000Y-55346677D02*
X215679000Y-55346677D01*
X209561000Y-54386677D02*
X214439000Y-54386677D01*
X209170000Y-54626677D02*
X214830000Y-54626677D01*
X210490000Y-53986677D02*
X213510000Y-53986677D01*
X207343000Y-56826677D02*
X210759000Y-56826677D01*
X207138000Y-57386677D02*
X210759000Y-57386677D01*
X208844000Y-54866677D02*
X215156000Y-54866677D01*
X206938000Y-58427677D02*
X217062000Y-58427677D01*
X213241000Y-55186677D02*
X215520000Y-55186677D01*
X209000000Y-54746677D02*
X215000000Y-54746677D01*
X208211000Y-55466677D02*
X210759000Y-55466677D01*
X213241000Y-57106677D02*
X216768000Y-57106677D01*
X208699000Y-54986677D02*
X215301000Y-54986677D01*
X208075000Y-55626677D02*
X210759000Y-55626677D01*
X208746000Y-54946677D02*
X215254000Y-54946677D01*
X207082000Y-57586677D02*
X210759000Y-57586677D01*
X207126000Y-57426677D02*
X210759000Y-57426677D01*
X210154000Y-54106677D02*
X213846000Y-54106677D01*
X207176000Y-57266677D02*
X210759000Y-57266677D01*
X210258000Y-54066677D02*
X213742000Y-54066677D01*
X206921000Y-58747677D02*
X217079000Y-58747677D01*
X213241000Y-56346677D02*
X216417000Y-56346677D01*
X213241000Y-56466677D02*
X216483000Y-56466677D01*
X213241000Y-56066677D02*
X216247000Y-56066677D01*
X213241000Y-57306677D02*
X216837000Y-57306677D01*
X208608000Y-55066677D02*
X215392000Y-55066677D01*
X213241000Y-55306677D02*
X215640000Y-55306677D01*
X208176000Y-55506677D02*
X210759000Y-55506677D01*
X210370000Y-54026677D02*
X213630000Y-54026677D01*
X213241000Y-56866677D02*
X216674000Y-56866677D01*
X213241000Y-56306677D02*
X216395000Y-56306677D01*
X207727000Y-56106677D02*
X210759000Y-56106677D01*
X213241000Y-56186677D02*
X216323000Y-56186677D01*
X213241000Y-56546677D02*
X216525000Y-56546677D01*
X207496000Y-56506677D02*
X210759000Y-56506677D01*
X208399000Y-55266677D02*
X210759000Y-55266677D01*
X210938000Y-53866677D02*
X213062000Y-53866677D01*
X206927000Y-58587677D02*
X217073000Y-58587677D01*
X206970000Y-58146677D02*
X217030000Y-58146677D01*
X213241000Y-56426677D02*
X216462000Y-56426677D01*
X207890000Y-55866677D02*
X210759000Y-55866677D01*
X213241000Y-56906677D02*
X216690000Y-56906677D01*
X206942000Y-58387677D02*
X217058000Y-58387677D01*
X213241000Y-56386677D02*
X216440000Y-56386677D01*
X213241000Y-57146677D02*
X216783000Y-57146677D01*
X213241000Y-56826677D02*
X216657000Y-56826677D01*
X213241000Y-56946677D02*
X216707000Y-56946677D01*
X213241000Y-57386677D02*
X216862000Y-57386677D01*
X207115000Y-57466677D02*
X210759000Y-57466677D01*
X206955000Y-58267677D02*
X217045000Y-58267677D01*
X213241000Y-57026677D02*
X216738000Y-57026677D01*
X207053000Y-57706677D02*
X216947000Y-57706677D01*
X207862000Y-55906677D02*
X210759000Y-55906677D01*
X207026000Y-57826677D02*
X216974000Y-57826677D01*
X207246000Y-57066677D02*
X210759000Y-57066677D01*
X207980000Y-55746677D02*
X210759000Y-55746677D01*
X207093000Y-57546677D02*
X210759000Y-57546677D01*
X207920000Y-55826677D02*
X210759000Y-55826677D01*
X213241000Y-55946677D02*
X216166000Y-55946677D01*
X213241000Y-55746677D02*
X216020000Y-55746677D01*
X207262000Y-57026677D02*
X210759000Y-57026677D01*
X206922000Y-58707677D02*
X217078000Y-58707677D01*
X213241000Y-55626677D02*
X215925000Y-55626677D01*
X206950000Y-58307677D02*
X217050000Y-58307677D01*
X213241000Y-56986677D02*
X216723000Y-56986677D01*
X207677000Y-56186677D02*
X210759000Y-56186677D01*
X209963000Y-54186677D02*
X214037000Y-54186677D01*
X207605000Y-56306677D02*
X210759000Y-56306677D01*
X206996000Y-57986677D02*
X217004000Y-57986677D01*
X208946000Y-54786677D02*
X215054000Y-54786677D01*
X207629000Y-56266677D02*
X210759000Y-56266677D01*
X213241000Y-57226677D02*
X216811000Y-57226677D01*
X207397000Y-56706677D02*
X210759000Y-56706677D01*
X207232000Y-57106677D02*
X210759000Y-57106677D01*
X213241000Y-57186677D02*
X216797000Y-57186677D01*
X207163000Y-57306677D02*
X210759000Y-57306677D01*
X208360000Y-55306677D02*
X210759000Y-55306677D01*
X206920000Y-58787677D02*
X217080000Y-58787677D01*
X209421000Y-54466677D02*
X214579000Y-54466677D01*
X206925000Y-58627677D02*
X217075000Y-58627677D01*
X213241000Y-57466677D02*
X216885000Y-57466677D01*
X213241000Y-55906677D02*
X216138000Y-55906677D01*
X213241000Y-55386677D02*
X215716000Y-55386677D01*
X208142000Y-55546677D02*
X210759000Y-55546677D01*
X213241000Y-57546677D02*
X216907000Y-57546677D01*
X209355000Y-54506677D02*
X214645000Y-54506677D01*
X207950000Y-55786677D02*
X210759000Y-55786677D01*
X209125000Y-64347323D02*
X209125000Y-63347323D01*
X213241000Y-55266677D02*
X215601000Y-55266677D01*
X206932000Y-58507677D02*
X217068000Y-58507677D01*
X213241000Y-55666677D02*
X215957000Y-55666677D01*
X213241000Y-55546677D02*
X215858000Y-55546677D01*
X213241000Y-55226677D02*
X215561000Y-55226677D01*
X211138000Y-53826677D02*
X212862000Y-53826677D01*
X206982000Y-58066677D02*
X217018000Y-58066677D01*
X208284000Y-55386677D02*
X210759000Y-55386677D01*
X209791000Y-54266677D02*
X214209000Y-54266677D01*
X210770000Y-53906677D02*
X213230000Y-53906677D01*
X207277000Y-56986677D02*
X210759000Y-56986677D01*
X213241000Y-57586677D02*
X216918000Y-57586677D01*
X207010000Y-57906677D02*
X216990000Y-57906677D01*
X207361000Y-56786677D02*
X210759000Y-56786677D01*
X213241000Y-55146677D02*
X215478000Y-55146677D01*
X207203000Y-57186677D02*
X210759000Y-57186677D01*
X208522000Y-55146677D02*
X210759000Y-55146677D01*
X209055000Y-54706677D02*
X214945000Y-54706677D01*
X207702000Y-56146677D02*
X210759000Y-56146677D01*
X213241000Y-55586677D02*
X215892000Y-55586677D01*
X213241000Y-56226677D02*
X216347000Y-56226677D01*
X209875000Y-54226677D02*
X214125000Y-54226677D01*
X208108000Y-55586677D02*
X210759000Y-55586677D01*
X206920000Y-58827677D02*
X217080000Y-58827677D01*
X207416000Y-56666677D02*
X210759000Y-56666677D01*
X217120000Y-58867677D02*
G75*
G03*
X217120000Y-58867677I-5120000J0D01*
G01*
G04 #@! TO.C,Q102*
X88076500Y-109951000D02*
X88076500Y-110221000D01*
X88076500Y-116851000D02*
X88076500Y-116581000D01*
X86576500Y-109951000D02*
X88076500Y-109951000D01*
X88076500Y-116581000D02*
X90906500Y-116581000D01*
X86576500Y-116851000D02*
X88076500Y-116851000D01*
X88076500Y-110221000D02*
X89176500Y-110221000D01*
G04 #@! TO.C,U105*
X84455000Y-132090000D02*
X81005000Y-132090000D01*
X84455000Y-132090000D02*
X86405000Y-132090000D01*
X84455000Y-140960000D02*
X82505000Y-140960000D01*
X84455000Y-140960000D02*
X86405000Y-140960000D01*
G04 #@! TO.C,HS104*
X214905000Y-95961252D02*
X214905000Y-94538748D01*
X213085000Y-95961252D02*
X213085000Y-94538748D01*
G04 #@! TO.C,U103*
X205970000Y-71450000D02*
X207470000Y-71450000D01*
X207470000Y-71180000D02*
X210300000Y-71180000D01*
X205970000Y-64550000D02*
X207470000Y-64550000D01*
X207470000Y-64820000D02*
X208570000Y-64820000D01*
X207470000Y-64550000D02*
X207470000Y-64820000D01*
X207470000Y-71450000D02*
X207470000Y-71180000D01*
G04 #@! TO.C,F101*
X105928752Y-137600000D02*
X103156248Y-137600000D01*
X105928752Y-134180000D02*
X103156248Y-134180000D01*
G04 #@! TO.C,R107*
X90529436Y-94030000D02*
X90983564Y-94030000D01*
X90529436Y-95500000D02*
X90983564Y-95500000D01*
G04 #@! TO.C,B101*
X189550000Y-61150000D02*
X110450000Y-61130000D01*
X110450000Y-61130000D02*
X110450000Y-139350000D01*
X189550000Y-139350000D02*
X110450000Y-139350000D01*
X189550000Y-61150000D02*
X189550000Y-139350000D01*
G04 #@! TO.C,R120*
X102122936Y-88537000D02*
X102577064Y-88537000D01*
X102122936Y-90007000D02*
X102577064Y-90007000D01*
G04 #@! TO.C,C117*
X84716252Y-130075000D02*
X84193748Y-130075000D01*
X84716252Y-131545000D02*
X84193748Y-131545000D01*
G04 #@! TO.C,R129*
X98197936Y-144880000D02*
X98652064Y-144880000D01*
X98197936Y-143410000D02*
X98652064Y-143410000D01*
G04 #@! TO.C,HS103*
X212365000Y-95961252D02*
X212365000Y-94538748D01*
X210545000Y-95961252D02*
X210545000Y-94538748D01*
G04 #@! TO.C,R135*
X80110000Y-142467064D02*
X80110000Y-142012936D01*
X78640000Y-142467064D02*
X78640000Y-142012936D01*
G04 #@! TO.C,U104*
X209670000Y-107060000D02*
X209670000Y-108560000D01*
X199270000Y-108560000D02*
X201080000Y-108560000D01*
X207860000Y-108560000D02*
X207860000Y-109660000D01*
X199270000Y-107060000D02*
X199270000Y-108560000D01*
X201080000Y-108560000D02*
X201080000Y-113685000D01*
X209670000Y-108560000D02*
X207860000Y-108560000D01*
G04 #@! TO.C,R108*
X89021500Y-97537936D02*
X89021500Y-97992064D01*
X90491500Y-97537936D02*
X90491500Y-97992064D01*
G04 #@! TO.C,R105*
X85819936Y-88316000D02*
X86274064Y-88316000D01*
X85819936Y-89786000D02*
X86274064Y-89786000D01*
G04 #@! TO.C,R137*
X90270000Y-139292064D02*
X90270000Y-138837936D01*
X88800000Y-139292064D02*
X88800000Y-138837936D01*
G04 #@! TO.C,R127*
X71020000Y-129947936D02*
X71020000Y-130402064D01*
X72490000Y-129947936D02*
X72490000Y-130402064D01*
G04 #@! TO.C,Q101*
X88076500Y-101901000D02*
X88076500Y-102171000D01*
X86576500Y-108801000D02*
X88076500Y-108801000D01*
X88076500Y-108801000D02*
X88076500Y-108531000D01*
X88076500Y-108531000D02*
X90906500Y-108531000D01*
X86576500Y-101901000D02*
X88076500Y-101901000D01*
X88076500Y-102171000D02*
X89176500Y-102171000D01*
G04 #@! TO.C,D103*
X72510000Y-87600000D02*
X72510000Y-83715000D01*
X70240000Y-83715000D02*
X70240000Y-87600000D01*
X72510000Y-83715000D02*
X70240000Y-83715000D01*
G04 #@! TO.C,C112*
X214211252Y-68735000D02*
X213688748Y-68735000D01*
X214211252Y-67265000D02*
X213688748Y-67265000D01*
G04 #@! TO.C,R130*
X195807064Y-110590000D02*
X195352936Y-110590000D01*
X195807064Y-109120000D02*
X195352936Y-109120000D01*
G04 #@! TO.C,R118*
X102235000Y-101727064D02*
X102235000Y-101272936D01*
X100765000Y-101727064D02*
X100765000Y-101272936D01*
G04 #@! TO.C,R119*
X107657064Y-97681000D02*
X107202936Y-97681000D01*
X107657064Y-99151000D02*
X107202936Y-99151000D01*
G04 #@! TO.C,C106*
X95265000Y-89311252D02*
X95265000Y-88788748D01*
X96735000Y-89311252D02*
X96735000Y-88788748D01*
G04 #@! TO.C,R134*
X80110000Y-138934564D02*
X80110000Y-138480436D01*
X78640000Y-138934564D02*
X78640000Y-138480436D01*
G04 #@! TO.C,D101*
X92075500Y-115450000D02*
X92075500Y-117450000D01*
X92075500Y-115450000D02*
X95975500Y-115450000D01*
X92075500Y-117450000D02*
X95975500Y-117450000D01*
G04 #@! TO.C,R124*
X209025000Y-91540436D02*
X209025000Y-91994564D01*
X207555000Y-91540436D02*
X207555000Y-91994564D01*
G04 #@! TO.C,R104*
X85923436Y-85722000D02*
X86377564Y-85722000D01*
X85923436Y-84252000D02*
X86377564Y-84252000D01*
G04 #@! TO.C,D106*
X72510000Y-113715000D02*
X70240000Y-113715000D01*
X70240000Y-113715000D02*
X70240000Y-117600000D01*
X72510000Y-117600000D02*
X72510000Y-113715000D01*
G04 #@! TO.C,R116*
X107306436Y-94579000D02*
X107760564Y-94579000D01*
X107306436Y-93109000D02*
X107760564Y-93109000D01*
G04 #@! TO.C,R122*
X199555000Y-91452936D02*
X199555000Y-91907064D01*
X201025000Y-91452936D02*
X201025000Y-91907064D01*
G04 #@! TO.C,D105*
X94615000Y-146340000D02*
X95265000Y-146340000D01*
X94615000Y-146340000D02*
X93965000Y-146340000D01*
X94615000Y-143220000D02*
X95265000Y-143220000D01*
X94615000Y-143220000D02*
X92940000Y-143220000D01*
G04 #@! TO.C,R115*
X107306436Y-90823000D02*
X107760564Y-90823000D01*
X107306436Y-92293000D02*
X107760564Y-92293000D01*
G04 #@! TO.C,R102*
X91201000Y-88028936D02*
X91201000Y-88483064D01*
X92671000Y-88028936D02*
X92671000Y-88483064D01*
G04 #@! TO.C,C107*
X94846117Y-97205000D02*
X94323613Y-97205000D01*
X94846117Y-98675000D02*
X94323613Y-98675000D01*
G04 #@! TO.C,R110*
X95114436Y-105555000D02*
X95568564Y-105555000D01*
X95114436Y-107025000D02*
X95568564Y-107025000D01*
G04 #@! TO.C,R109*
X90529436Y-100030000D02*
X90983564Y-100030000D01*
X90529436Y-101500000D02*
X90983564Y-101500000D01*
G04 #@! TO.C,C111*
X93028500Y-108822748D02*
X93028500Y-109345252D01*
X91558500Y-108822748D02*
X91558500Y-109345252D01*
G04 #@! TO.C,D102*
X90513500Y-120570000D02*
X90513500Y-119640000D01*
X90513500Y-117410000D02*
X88353500Y-117410000D01*
X90513500Y-117410000D02*
X90513500Y-118340000D01*
X90513500Y-120570000D02*
X89053500Y-120570000D01*
G04 #@! TO.C,R132*
X78640000Y-131949564D02*
X78640000Y-131495436D01*
X80110000Y-131949564D02*
X80110000Y-131495436D01*
G04 #@! TO.C,R101*
X98974064Y-88537000D02*
X98519936Y-88537000D01*
X98974064Y-90007000D02*
X98519936Y-90007000D01*
G04 #@! TO.C,HS101*
X193950000Y-95961252D02*
X193950000Y-94538748D01*
X192130000Y-95961252D02*
X192130000Y-94538748D01*
G04 #@! TO.C,C115*
X213098748Y-110590000D02*
X213621252Y-110590000D01*
X213098748Y-109120000D02*
X213621252Y-109120000D01*
G04 #@! TO.C,R117*
X107760564Y-97119000D02*
X107306436Y-97119000D01*
X107760564Y-95649000D02*
X107306436Y-95649000D01*
G04 #@! TO.C,J101*
X225440000Y-95122000D02*
X225440000Y-97259000D01*
X225440000Y-125602000D02*
X225440000Y-127739000D01*
X225440000Y-105282000D02*
X225440000Y-107419000D01*
X225440000Y-140842000D02*
X225440000Y-141740000D01*
X224440000Y-147260000D02*
X224440000Y-141740000D01*
X230000000Y-147260000D02*
X224440000Y-147260000D01*
X225440000Y-120522000D02*
X225440000Y-122659000D01*
X225440000Y-74802000D02*
X225440000Y-76939000D01*
X224400000Y-60950000D02*
X224700000Y-61550000D01*
X224440000Y-58260000D02*
X225440000Y-58260000D01*
X225440000Y-79882000D02*
X225440000Y-82019000D01*
X225440000Y-84962000D02*
X225440000Y-87099000D01*
X225000000Y-60950000D02*
X224400000Y-60950000D01*
X224440000Y-52740000D02*
X224440000Y-58260000D01*
X224700000Y-61550000D02*
X225000000Y-60950000D01*
X230000000Y-52740000D02*
X224440000Y-52740000D01*
X225440000Y-110362000D02*
X225440000Y-112499000D01*
X225440000Y-58259000D02*
X225440000Y-61550000D01*
X225440000Y-130682000D02*
X225440000Y-132819000D01*
X224440000Y-141740000D02*
X225440000Y-141740000D01*
X225440000Y-69722000D02*
X225440000Y-71859000D01*
X225440000Y-90042000D02*
X225440000Y-92179000D01*
X225440000Y-100202000D02*
X225440000Y-102339000D01*
X225440000Y-135762000D02*
X225440000Y-137899000D01*
X225440000Y-64790000D02*
X225440000Y-66779000D01*
X225440000Y-115442000D02*
X225440000Y-117579000D01*
G04 #@! TO.C,R121*
X191265000Y-66227064D02*
X191265000Y-65772936D01*
X192735000Y-66227064D02*
X192735000Y-65772936D01*
G04 #@! TO.C,R112*
X95568564Y-114645000D02*
X95114436Y-114645000D01*
X95568564Y-113175000D02*
X95114436Y-113175000D01*
G04 #@! TO.C,D116*
X210595000Y-105030000D02*
X210595000Y-108330000D01*
X210595000Y-108330000D02*
X215995000Y-108330000D01*
X210595000Y-105030000D02*
X215995000Y-105030000D01*
G04 #@! TO.C,C102*
X86308252Y-83690000D02*
X85785748Y-83690000D01*
X86308252Y-82220000D02*
X85785748Y-82220000D01*
G04 #@! TO.C,D112*
X72510000Y-133715000D02*
X70240000Y-133715000D01*
X70240000Y-133715000D02*
X70240000Y-137600000D01*
X72510000Y-137600000D02*
X72510000Y-133715000D01*
G04 #@! TO.C,R114*
X95568564Y-110635000D02*
X95114436Y-110635000D01*
X95568564Y-112105000D02*
X95114436Y-112105000D01*
G04 #@! TO.C,C103*
X86308252Y-87754000D02*
X85785748Y-87754000D01*
X86308252Y-86284000D02*
X85785748Y-86284000D01*
G04 #@! TO.C,C114*
X213098748Y-113130000D02*
X213621252Y-113130000D01*
X213098748Y-111660000D02*
X213621252Y-111660000D01*
G04 #@! TO.C,C109*
X91021500Y-97503748D02*
X91021500Y-98026252D01*
X92491500Y-97503748D02*
X92491500Y-98026252D01*
G04 #@! TO.C,R106*
X86170564Y-95849000D02*
X85716436Y-95849000D01*
X86170564Y-94379000D02*
X85716436Y-94379000D01*
G04 #@! TO.C,R133*
X80110000Y-135482064D02*
X80110000Y-135027936D01*
X78640000Y-135482064D02*
X78640000Y-135027936D01*
G04 #@! TO.C,R131*
X195352936Y-111660000D02*
X195807064Y-111660000D01*
X195352936Y-113130000D02*
X195807064Y-113130000D01*
G04 #@! TO.C,R111*
X91558500Y-105046936D02*
X91558500Y-105501064D01*
X93028500Y-105046936D02*
X93028500Y-105501064D01*
G04 #@! TO.C,U101*
X100869500Y-99389000D02*
X98669500Y-99389000D01*
X100869500Y-99389000D02*
X103069500Y-99389000D01*
X100869500Y-91319000D02*
X97269500Y-91319000D01*
X100869500Y-91319000D02*
X103069500Y-91319000D01*
G04 #@! TO.C,D104*
X70240000Y-63715000D02*
X70240000Y-67600000D01*
X72510000Y-63715000D02*
X70240000Y-63715000D01*
X72510000Y-67600000D02*
X72510000Y-63715000D01*
G04 #@! TO.C,R103*
X85923436Y-81658000D02*
X86377564Y-81658000D01*
X85923436Y-80188000D02*
X86377564Y-80188000D01*
G04 #@! TO.C,R128*
X71020000Y-139830436D02*
X71020000Y-140284564D01*
X72490000Y-139830436D02*
X72490000Y-140284564D01*
G04 #@! TO.C,R136*
X90270000Y-135759564D02*
X90270000Y-135305436D01*
X88800000Y-135759564D02*
X88800000Y-135305436D01*
G04 #@! TO.C,R126*
X71020000Y-120145436D02*
X71020000Y-120599564D01*
X72490000Y-120145436D02*
X72490000Y-120599564D01*
G04 #@! TO.C,D109*
X72510000Y-127600000D02*
X72510000Y-123715000D01*
X70240000Y-123715000D02*
X70240000Y-127600000D01*
X72510000Y-123715000D02*
X70240000Y-123715000D01*
G04 #@! TO.C,C105*
X86204752Y-92347000D02*
X85682248Y-92347000D01*
X86204752Y-93817000D02*
X85682248Y-93817000D01*
G04 #@! TO.C,R125*
X73760000Y-70712064D02*
X73760000Y-70257936D01*
X72290000Y-70712064D02*
X72290000Y-70257936D01*
G04 #@! TO.C,C101*
X89864252Y-82220000D02*
X89341748Y-82220000D01*
X89864252Y-83690000D02*
X89341748Y-83690000D01*
G04 #@! TO.C,U102*
X204290000Y-96790000D02*
X202790000Y-96790000D01*
X205790000Y-93570000D02*
X202790000Y-93570000D01*
G04 #@! TO.C,C104*
X86204752Y-91818000D02*
X85682248Y-91818000D01*
X86204752Y-90348000D02*
X85682248Y-90348000D01*
G04 #@! TO.C,R113*
X93028500Y-112666936D02*
X93028500Y-113121064D01*
X91558500Y-112666936D02*
X91558500Y-113121064D01*
G04 #@! TO.C,HS102*
X194670000Y-95961252D02*
X194670000Y-94538748D01*
X196490000Y-95961252D02*
X196490000Y-94538748D01*
G04 #@! TD*
M02*
