G04 #@! TF.GenerationSoftware,KiCad,Pcbnew,(6.0.0)*
G04 #@! TF.CreationDate,2022-02-14T09:23:14+01:00*
G04 #@! TF.ProjectId,ADRmu_battery,4144526d-755f-4626-9174-746572792e6b,rev?*
G04 #@! TF.SameCoordinates,Original*
G04 #@! TF.FileFunction,Legend,Bot*
G04 #@! TF.FilePolarity,Positive*
%FSLAX46Y46*%
G04 Gerber Fmt 4.6, Leading zero omitted, Abs format (unit mm)*
G04 Created by KiCad (PCBNEW (6.0.0)) date 2022-02-14 09:23:14*
%MOMM*%
%LPD*%
G01*
G04 APERTURE LIST*
%ADD10C,0.150000*%
%ADD11C,0.120000*%
G04 APERTURE END LIST*
D10*
G04 #@! TO.C,TH101*
X128102380Y-97761904D02*
X128102380Y-98333333D01*
X129102380Y-98047619D02*
X128102380Y-98047619D01*
X129102380Y-98666666D02*
X128102380Y-98666666D01*
X128578571Y-98666666D02*
X128578571Y-99238095D01*
X129102380Y-99238095D02*
X128102380Y-99238095D01*
X129102380Y-100238095D02*
X129102380Y-99666666D01*
X129102380Y-99952380D02*
X128102380Y-99952380D01*
X128245238Y-99857142D01*
X128340476Y-99761904D01*
X128388095Y-99666666D01*
X128102380Y-100857142D02*
X128102380Y-100952380D01*
X128150000Y-101047619D01*
X128197619Y-101095238D01*
X128292857Y-101142857D01*
X128483333Y-101190476D01*
X128721428Y-101190476D01*
X128911904Y-101142857D01*
X129007142Y-101095238D01*
X129054761Y-101047619D01*
X129102380Y-100952380D01*
X129102380Y-100857142D01*
X129054761Y-100761904D01*
X129007142Y-100714285D01*
X128911904Y-100666666D01*
X128721428Y-100619047D01*
X128483333Y-100619047D01*
X128292857Y-100666666D01*
X128197619Y-100714285D01*
X128150000Y-100761904D01*
X128102380Y-100857142D01*
X129102380Y-102142857D02*
X129102380Y-101571428D01*
X129102380Y-101857142D02*
X128102380Y-101857142D01*
X128245238Y-101761904D01*
X128340476Y-101666666D01*
X128388095Y-101571428D01*
D11*
X126265000Y-100227064D02*
X126265000Y-99772936D01*
X127735000Y-100227064D02*
X127735000Y-99772936D01*
G04 #@! TD*
M02*
