M48
; DRILL file {KiCad (6.0.0)} date Thu Apr  7 21:27:14 2022
; FORMAT={-:-/ absolute / inch / decimal}
; #@! TF.CreationDate,2022-04-07T21:27:14+02:00
; #@! TF.GenerationSoftware,Kicad,Pcbnew,(6.0.0)
; #@! TF.FileFunction,Plated,1,2,PTH
FMAT,2
INCH
; #@! TA.AperFunction,Plated,PTH,ViaDrill
T1C0.0157
; #@! TA.AperFunction,Plated,PTH,ViaDrill
T2C0.0197
; #@! TA.AperFunction,Plated,PTH,ComponentDrill
T3C0.0630
%
G90
G05
T1
X2.8346Y-2.4803
X2.8346Y-2.7165
X2.874Y-3.5236
X3.1693Y-3.3268
X3.1693Y-3.4252
X3.3071Y-3.622
X3.7395Y-3.4746
X3.7495Y-3.8946
X3.9095Y-3.8146
X4.0195Y-3.6346
X4.1732Y-3.4252
X4.311Y-3.3268
X4.3307Y-3.7402
X4.3307Y-3.7992
X8.0236Y-4.342
X8.1102Y-4.3504
X8.1102Y-4.4685
X8.2677Y-4.0354
T2
X2.815Y-2.0374
X2.815Y-2.8839
X2.815Y-3.7303
X2.815Y-4.1535
X2.815Y-4.5768
X2.815Y-5.0
X2.815Y-5.4232
X2.815Y-5.8465
X3.2382Y-2.0374
X3.2382Y-2.4606
X3.2382Y-5.0
X3.2382Y-5.4232
X3.2382Y-5.8465
X3.6614Y-2.0374
X3.6614Y-2.4606
X3.6614Y-2.8839
X3.6614Y-5.0
X3.6614Y-5.4232
X3.6614Y-5.8465
X4.0846Y-2.0374
X4.0846Y-2.4606
X4.0846Y-5.4232
X4.0846Y-5.8465
X4.5079Y-2.0374
X4.5079Y-2.4606
X4.5079Y-2.8839
X4.5079Y-4.1535
X4.5079Y-4.5768
X4.5079Y-5.0
X4.5079Y-5.4232
X4.5079Y-5.8465
X4.9311Y-2.0374
X4.9311Y-2.4606
X4.9311Y-2.8839
X4.9311Y-3.7303
X4.9311Y-4.1535
X4.9311Y-4.5768
X4.9311Y-5.0
X4.9311Y-5.4232
X4.9311Y-5.8465
X5.3543Y-2.0374
X5.3543Y-2.4606
X5.3543Y-2.8839
X5.3543Y-3.3071
X5.3543Y-3.7303
X5.3543Y-4.1535
X5.3543Y-4.5768
X5.3543Y-5.0
X5.3543Y-5.4232
X5.3543Y-5.8465
X5.7776Y-2.0374
X5.7776Y-2.4606
X5.7776Y-2.8839
X5.7776Y-3.3071
X5.7776Y-3.7303
X5.7776Y-4.1535
X5.7776Y-4.5768
X5.7776Y-5.0
X5.7776Y-5.4232
X5.7776Y-5.8465
X6.2008Y-2.0374
X6.2008Y-2.8839
X6.2008Y-3.3071
X6.2008Y-3.7303
X6.2008Y-4.1535
X6.2008Y-4.5768
X6.2008Y-5.0
X6.2008Y-5.8465
X6.624Y-2.0374
X6.624Y-2.4606
X6.624Y-3.3071
X6.624Y-3.7303
X6.624Y-4.1535
X6.624Y-4.5768
X6.624Y-5.0
X6.624Y-5.4232
X6.624Y-5.8465
X7.0472Y-2.0374
X7.0472Y-3.3071
X7.0472Y-3.7303
X7.0472Y-4.1535
X7.0472Y-4.5768
X7.0472Y-5.8465
X7.4705Y-2.0374
X7.4705Y-2.8839
X7.4705Y-3.7303
X7.4705Y-4.1535
X7.4705Y-4.5768
X7.4705Y-5.0
X7.4705Y-5.4232
X7.4705Y-5.8465
X7.8937Y-2.0374
X7.8937Y-2.8839
X7.8937Y-3.3071
X7.8937Y-3.7303
X7.8937Y-4.1535
X7.8937Y-5.0
X7.8937Y-5.4232
X7.8937Y-5.8465
X8.3169Y-2.0374
X8.3169Y-2.8839
X8.3169Y-3.3071
X8.3169Y-3.7303
X8.3169Y-5.0
X8.3169Y-5.4232
X8.3169Y-5.8465
X8.7402Y-2.0374
X8.7402Y-2.8839
X8.7402Y-3.3071
X8.7402Y-3.7303
X8.7402Y-4.1535
X8.7402Y-4.5768
X8.7402Y-5.0
X8.7402Y-5.4232
X8.7402Y-5.8465
T3
X4.7657Y-2.502
X4.7657Y-5.372
X5.5256Y-2.502
X5.5256Y-5.372
X6.2854Y-2.502
X6.2854Y-5.372
X7.0453Y-2.502
X7.0453Y-5.372
X8.6465Y-2.487
X8.6465Y-2.687
X8.6465Y-2.887
X8.6465Y-3.087
X8.6465Y-3.287
X8.6465Y-3.487
X8.6465Y-3.687
X8.6465Y-3.887
X8.6465Y-4.087
X8.6465Y-4.287
X8.6465Y-4.487
X8.6465Y-4.687
X8.6465Y-4.887
X8.6465Y-5.087
X8.6465Y-5.287
X8.6465Y-5.487
X8.8465Y-2.487
X8.8465Y-2.687
X8.8465Y-2.887
X8.8465Y-3.087
X8.8465Y-3.287
X8.8465Y-3.487
X8.8465Y-3.687
X8.8465Y-3.887
X8.8465Y-4.087
X8.8465Y-4.287
X8.8465Y-4.487
X8.8465Y-4.687
X8.8465Y-4.887
X8.8465Y-5.087
X8.8465Y-5.287
X8.8465Y-5.487
T0
M30
