G04 #@! TF.GenerationSoftware,KiCad,Pcbnew,(6.0.0)*
G04 #@! TF.CreationDate,2022-04-07T21:27:10+02:00*
G04 #@! TF.ProjectId,ADRmu_battery,4144526d-755f-4626-9174-746572792e6b,0.2*
G04 #@! TF.SameCoordinates,Original*
G04 #@! TF.FileFunction,Soldermask,Top*
G04 #@! TF.FilePolarity,Negative*
%FSLAX46Y46*%
G04 Gerber Fmt 4.6, Leading zero omitted, Abs format (unit mm)*
G04 Created by KiCad (PCBNEW (6.0.0)) date 2022-04-07 21:27:10*
%MOMM*%
%LPD*%
G01*
G04 APERTURE LIST*
G04 Aperture macros list*
%AMRoundRect*
0 Rectangle with rounded corners*
0 $1 Rounding radius*
0 $2 $3 $4 $5 $6 $7 $8 $9 X,Y pos of 4 corners*
0 Add a 4 corners polygon primitive as box body*
4,1,4,$2,$3,$4,$5,$6,$7,$8,$9,$2,$3,0*
0 Add four circle primitives for the rounded corners*
1,1,$1+$1,$2,$3*
1,1,$1+$1,$4,$5*
1,1,$1+$1,$6,$7*
1,1,$1+$1,$8,$9*
0 Add four rect primitives between the rounded corners*
20,1,$1+$1,$2,$3,$4,$5,0*
20,1,$1+$1,$4,$5,$6,$7,0*
20,1,$1+$1,$6,$7,$8,$9,0*
20,1,$1+$1,$8,$9,$2,$3,0*%
G04 Aperture macros list end*
%ADD10C,0.150000*%
%ADD11RoundRect,0.250000X0.250000X0.475000X-0.250000X0.475000X-0.250000X-0.475000X0.250000X-0.475000X0*%
%ADD12RoundRect,0.250000X-0.475000X0.250000X-0.475000X-0.250000X0.475000X-0.250000X0.475000X0.250000X0*%
%ADD13C,4.300000*%
%ADD14R,2.200000X1.200000*%
%ADD15R,6.400000X5.800000*%
%ADD16RoundRect,0.250000X-0.262500X-0.450000X0.262500X-0.450000X0.262500X0.450000X-0.262500X0.450000X0*%
%ADD17C,3.200000*%
%ADD18R,4.000000X4.000000*%
%ADD19C,4.000000*%
%ADD20RoundRect,0.250000X-0.450000X0.262500X-0.450000X-0.262500X0.450000X-0.262500X0.450000X0.262500X0*%
%ADD21RoundRect,0.250000X-0.625000X0.375000X-0.625000X-0.375000X0.625000X-0.375000X0.625000X0.375000X0*%
%ADD22RoundRect,0.250000X0.450000X-0.262500X0.450000X0.262500X-0.450000X0.262500X-0.450000X-0.262500X0*%
%ADD23RoundRect,0.250000X0.262500X0.450000X-0.262500X0.450000X-0.262500X-0.450000X0.262500X-0.450000X0*%
%ADD24RoundRect,0.250000X0.475000X-0.250000X0.475000X0.250000X-0.475000X0.250000X-0.475000X-0.250000X0*%
%ADD25R,0.900000X1.200000*%
%ADD26R,0.900000X0.800000*%
%ADD27C,2.850000*%
%ADD28RoundRect,0.250000X-1.050000X1.050000X-1.050000X-1.050000X1.050000X-1.050000X1.050000X1.050000X0*%
%ADD29C,2.600000*%
%ADD30RoundRect,0.100000X-0.637500X-0.100000X0.637500X-0.100000X0.637500X0.100000X-0.637500X0.100000X0*%
%ADD31RoundRect,0.062500X0.362500X0.062500X-0.362500X0.062500X-0.362500X-0.062500X0.362500X-0.062500X0*%
%ADD32R,1.650000X2.380000*%
G04 APERTURE END LIST*
D10*
X70000000Y-150000000D02*
X230000000Y-150000000D01*
X230000000Y-150000000D02*
X230000000Y-147000000D01*
X230000000Y-147000000D02*
X70000000Y-147000000D01*
X70000000Y-147000000D02*
X70000000Y-150000000D01*
G36*
X70000000Y-150000000D02*
G01*
X230000000Y-150000000D01*
X230000000Y-147000000D01*
X70000000Y-147000000D01*
X70000000Y-150000000D01*
G37*
X70000000Y-50000000D02*
X230000000Y-50000000D01*
X230000000Y-50000000D02*
X230000000Y-53000000D01*
X230000000Y-53000000D02*
X70000000Y-53000000D01*
X70000000Y-53000000D02*
X70000000Y-50000000D01*
G36*
X70000000Y-50000000D02*
G01*
X230000000Y-50000000D01*
X230000000Y-53000000D01*
X70000000Y-53000000D01*
X70000000Y-50000000D01*
G37*
D11*
G04 #@! TO.C,C110*
X95584865Y-99940000D03*
X93684865Y-99940000D03*
G04 #@! TD*
D12*
G04 #@! TO.C,C108*
X93968000Y-88068000D03*
X93968000Y-89968000D03*
G04 #@! TD*
D13*
G04 #@! TO.C,H104*
X195000000Y-75000000D03*
G04 #@! TD*
D14*
G04 #@! TO.C,Q102*
X89806500Y-115681000D03*
D15*
X83506500Y-113401000D03*
D14*
X89806500Y-111121000D03*
G04 #@! TD*
D16*
G04 #@! TO.C,R107*
X89844000Y-94765000D03*
X91669000Y-94765000D03*
G04 #@! TD*
D17*
G04 #@! TO.C,B101*
X159650000Y-127805000D03*
X178950000Y-127805000D03*
X140350000Y-127805000D03*
X178950000Y-72195000D03*
X140350000Y-72195000D03*
X121050000Y-127805000D03*
X121050000Y-72195000D03*
X159650000Y-72195000D03*
D18*
X178950000Y-63550000D03*
D19*
X178950000Y-136450000D03*
X159650000Y-63550000D03*
X159650000Y-136450000D03*
X140350000Y-63550000D03*
X140350000Y-136450000D03*
X121050000Y-63550000D03*
X121050000Y-136450000D03*
G04 #@! TD*
D16*
G04 #@! TO.C,R122*
X101437500Y-89272000D03*
X103262500Y-89272000D03*
G04 #@! TD*
D20*
G04 #@! TO.C,R108*
X89756500Y-96852500D03*
X89756500Y-98677500D03*
G04 #@! TD*
D12*
G04 #@! TO.C,C112*
X210000000Y-111450000D03*
X210000000Y-113350000D03*
G04 #@! TD*
D16*
G04 #@! TO.C,R105*
X85134500Y-89051000D03*
X86959500Y-89051000D03*
G04 #@! TD*
D14*
G04 #@! TO.C,Q101*
X89806500Y-107631000D03*
D15*
X83506500Y-105351000D03*
D14*
X89806500Y-103071000D03*
G04 #@! TD*
D21*
G04 #@! TO.C,D103*
X71375000Y-84600000D03*
X71375000Y-87400000D03*
G04 #@! TD*
D13*
G04 #@! TO.C,H101*
X195000000Y-125000000D03*
G04 #@! TD*
D22*
G04 #@! TO.C,R120*
X101500000Y-102412500D03*
X101500000Y-100587500D03*
G04 #@! TD*
D23*
G04 #@! TO.C,R121*
X108342500Y-98416000D03*
X106517500Y-98416000D03*
G04 #@! TD*
D24*
G04 #@! TO.C,C106*
X96000000Y-90000000D03*
X96000000Y-88100000D03*
G04 #@! TD*
D20*
G04 #@! TO.C,R123*
X210000000Y-104087500D03*
X210000000Y-105912500D03*
G04 #@! TD*
D25*
G04 #@! TO.C,D101*
X92675500Y-116450000D03*
X95975500Y-116450000D03*
G04 #@! TD*
D20*
G04 #@! TO.C,R124*
X210000000Y-107675000D03*
X210000000Y-109500000D03*
G04 #@! TD*
D13*
G04 #@! TO.C,H102*
X105000000Y-75000000D03*
G04 #@! TD*
D16*
G04 #@! TO.C,R104*
X85238000Y-84987000D03*
X87063000Y-84987000D03*
G04 #@! TD*
G04 #@! TO.C,R118*
X106621000Y-93844000D03*
X108446000Y-93844000D03*
G04 #@! TD*
D20*
G04 #@! TO.C,R117*
X202000000Y-107587500D03*
X202000000Y-109412500D03*
G04 #@! TD*
D16*
G04 #@! TO.C,R115*
X106621000Y-91558000D03*
X108446000Y-91558000D03*
G04 #@! TD*
D20*
G04 #@! TO.C,R102*
X91936000Y-87343500D03*
X91936000Y-89168500D03*
G04 #@! TD*
D11*
G04 #@! TO.C,C107*
X95534865Y-97940000D03*
X93634865Y-97940000D03*
G04 #@! TD*
D16*
G04 #@! TO.C,R110*
X94429000Y-106290000D03*
X96254000Y-106290000D03*
G04 #@! TD*
G04 #@! TO.C,R109*
X89844000Y-100765000D03*
X91669000Y-100765000D03*
G04 #@! TD*
D12*
G04 #@! TO.C,C111*
X92293500Y-108134000D03*
X92293500Y-110034000D03*
G04 #@! TD*
D26*
G04 #@! TO.C,D102*
X88753500Y-119940000D03*
X90753500Y-118990000D03*
X88753500Y-118040000D03*
G04 #@! TD*
D23*
G04 #@! TO.C,R101*
X99659500Y-89272000D03*
X97834500Y-89272000D03*
G04 #@! TD*
G04 #@! TO.C,R119*
X108446000Y-96384000D03*
X106621000Y-96384000D03*
G04 #@! TD*
D27*
G04 #@! TO.C,J101*
X227240000Y-144450000D03*
X227240000Y-55550000D03*
D28*
X224700000Y-63170000D03*
D29*
X224700000Y-68250000D03*
X224700000Y-73330000D03*
X224700000Y-78410000D03*
X224700000Y-83490000D03*
X224700000Y-88570000D03*
X224700000Y-93650000D03*
X224700000Y-98730000D03*
X224700000Y-103810000D03*
X224700000Y-108890000D03*
X224700000Y-113970000D03*
X224700000Y-119050000D03*
X224700000Y-124130000D03*
X224700000Y-129210000D03*
X224700000Y-134290000D03*
X224700000Y-139370000D03*
X219620000Y-63170000D03*
X219620000Y-68250000D03*
X219620000Y-73330000D03*
X219620000Y-78410000D03*
X219620000Y-83490000D03*
X219620000Y-88570000D03*
X219620000Y-93650000D03*
X219620000Y-98730000D03*
X219620000Y-103810000D03*
X219620000Y-108890000D03*
X219620000Y-113970000D03*
X219620000Y-119050000D03*
X219620000Y-124130000D03*
X219620000Y-129210000D03*
X219620000Y-134290000D03*
X219620000Y-139370000D03*
G04 #@! TD*
D22*
G04 #@! TO.C,R116*
X192000000Y-66912500D03*
X192000000Y-65087500D03*
G04 #@! TD*
D23*
G04 #@! TO.C,R112*
X96254000Y-113910000D03*
X94429000Y-113910000D03*
G04 #@! TD*
D11*
G04 #@! TO.C,C102*
X86997000Y-82955000D03*
X85097000Y-82955000D03*
G04 #@! TD*
D23*
G04 #@! TO.C,R114*
X96254000Y-111370000D03*
X94429000Y-111370000D03*
G04 #@! TD*
D11*
G04 #@! TO.C,C103*
X86997000Y-87019000D03*
X85097000Y-87019000D03*
G04 #@! TD*
D12*
G04 #@! TO.C,C109*
X91756500Y-96815000D03*
X91756500Y-98715000D03*
G04 #@! TD*
D23*
G04 #@! TO.C,R106*
X86856000Y-95114000D03*
X85031000Y-95114000D03*
G04 #@! TD*
D20*
G04 #@! TO.C,R111*
X92293500Y-104361500D03*
X92293500Y-106186500D03*
G04 #@! TD*
D30*
G04 #@! TO.C,U101*
X98007000Y-91779000D03*
X98007000Y-92429000D03*
X98007000Y-93079000D03*
X98007000Y-93729000D03*
X98007000Y-94379000D03*
X98007000Y-95029000D03*
X98007000Y-95679000D03*
X98007000Y-96329000D03*
X98007000Y-96979000D03*
X98007000Y-97629000D03*
X98007000Y-98279000D03*
X98007000Y-98929000D03*
X103732000Y-98929000D03*
X103732000Y-98279000D03*
X103732000Y-97629000D03*
X103732000Y-96979000D03*
X103732000Y-96329000D03*
X103732000Y-95679000D03*
X103732000Y-95029000D03*
X103732000Y-94379000D03*
X103732000Y-93729000D03*
X103732000Y-93079000D03*
X103732000Y-92429000D03*
X103732000Y-91779000D03*
G04 #@! TD*
D21*
G04 #@! TO.C,D104*
X71375000Y-64600000D03*
X71375000Y-67400000D03*
G04 #@! TD*
D16*
G04 #@! TO.C,R103*
X85238000Y-80923000D03*
X87063000Y-80923000D03*
G04 #@! TD*
D13*
G04 #@! TO.C,H103*
X105000000Y-125000000D03*
G04 #@! TD*
D11*
G04 #@! TO.C,C105*
X86893500Y-93082000D03*
X84993500Y-93082000D03*
G04 #@! TD*
D20*
G04 #@! TO.C,R125*
X215500000Y-114087500D03*
X215500000Y-115912500D03*
G04 #@! TD*
D11*
G04 #@! TO.C,C101*
X90553000Y-82955000D03*
X88653000Y-82955000D03*
G04 #@! TD*
D31*
G04 #@! TO.C,U102*
X207450000Y-113000000D03*
X207450000Y-112500000D03*
X207450000Y-112000000D03*
X207450000Y-111500000D03*
X207450000Y-111000000D03*
X204550000Y-111000000D03*
X204550000Y-111500000D03*
X204550000Y-112000000D03*
X204550000Y-112500000D03*
X204550000Y-113000000D03*
D32*
X206000000Y-112000000D03*
G04 #@! TD*
D11*
G04 #@! TO.C,C104*
X86893500Y-91083000D03*
X84993500Y-91083000D03*
G04 #@! TD*
D20*
G04 #@! TO.C,R113*
X92293500Y-111981500D03*
X92293500Y-113806500D03*
G04 #@! TD*
M02*
