G04 #@! TF.GenerationSoftware,KiCad,Pcbnew,(6.0.0)*
G04 #@! TF.CreationDate,2022-02-14T09:23:14+01:00*
G04 #@! TF.ProjectId,ADRmu_battery,4144526d-755f-4626-9174-746572792e6b,rev?*
G04 #@! TF.SameCoordinates,Original*
G04 #@! TF.FileFunction,Copper,L2,Bot*
G04 #@! TF.FilePolarity,Positive*
%FSLAX46Y46*%
G04 Gerber Fmt 4.6, Leading zero omitted, Abs format (unit mm)*
G04 Created by KiCad (PCBNEW (6.0.0)) date 2022-02-14 09:23:14*
%MOMM*%
%LPD*%
G01*
G04 APERTURE LIST*
G04 Aperture macros list*
%AMRoundRect*
0 Rectangle with rounded corners*
0 $1 Rounding radius*
0 $2 $3 $4 $5 $6 $7 $8 $9 X,Y pos of 4 corners*
0 Add a 4 corners polygon primitive as box body*
4,1,4,$2,$3,$4,$5,$6,$7,$8,$9,$2,$3,0*
0 Add four circle primitives for the rounded corners*
1,1,$1+$1,$2,$3*
1,1,$1+$1,$4,$5*
1,1,$1+$1,$6,$7*
1,1,$1+$1,$8,$9*
0 Add four rect primitives between the rounded corners*
20,1,$1+$1,$2,$3,$4,$5,0*
20,1,$1+$1,$4,$5,$6,$7,0*
20,1,$1+$1,$6,$7,$8,$9,0*
20,1,$1+$1,$8,$9,$2,$3,0*%
G04 Aperture macros list end*
G04 #@! TA.AperFunction,ComponentPad*
%ADD10R,4.000000X4.000000*%
G04 #@! TD*
G04 #@! TA.AperFunction,ComponentPad*
%ADD11C,4.000000*%
G04 #@! TD*
G04 #@! TA.AperFunction,ComponentPad*
%ADD12RoundRect,0.250000X-1.050000X1.050000X-1.050000X-1.050000X1.050000X-1.050000X1.050000X1.050000X0*%
G04 #@! TD*
G04 #@! TA.AperFunction,ComponentPad*
%ADD13C,2.600000*%
G04 #@! TD*
G04 #@! TA.AperFunction,SMDPad,CuDef*
%ADD14RoundRect,0.250000X0.450000X-0.262500X0.450000X0.262500X-0.450000X0.262500X-0.450000X-0.262500X0*%
G04 #@! TD*
G04 #@! TA.AperFunction,ViaPad*
%ADD15C,0.800000*%
G04 #@! TD*
G04 #@! TA.AperFunction,Conductor*
%ADD16C,1.000000*%
G04 #@! TD*
G04 #@! TA.AperFunction,Conductor*
%ADD17C,0.400000*%
G04 #@! TD*
G04 #@! TA.AperFunction,Conductor*
%ADD18C,2.000000*%
G04 #@! TD*
G04 APERTURE END LIST*
D10*
G04 #@! TO.P,B101,1,+*
G04 #@! TO.N,+BATT*
X178950000Y-63550000D03*
D11*
G04 #@! TO.P,B101,2,-*
G04 #@! TO.N,Net-(B101-Pad2)*
X178950000Y-136450000D03*
G04 #@! TO.P,B101,3,+*
X159650000Y-63550000D03*
G04 #@! TO.P,B101,4,-*
G04 #@! TO.N,Net-(B101-Pad4)*
X159650000Y-136450000D03*
G04 #@! TO.P,B101,5,+*
X140350000Y-63550000D03*
G04 #@! TO.P,B101,6,-*
G04 #@! TO.N,Net-(B101-Pad6)*
X140350000Y-136450000D03*
G04 #@! TO.P,B101,7,+*
X121050000Y-63550000D03*
G04 #@! TO.P,B101,8,-*
G04 #@! TO.N,-BATT*
X121050000Y-136450000D03*
G04 #@! TD*
D12*
G04 #@! TO.P,J101,a2,Pin_a2*
G04 #@! TO.N,+BATT*
X224700000Y-63170000D03*
D13*
G04 #@! TO.P,J101,a4,Pin_a4*
G04 #@! TO.N,/-out*
X224700000Y-68250000D03*
G04 #@! TO.P,J101,a6,Pin_a6*
G04 #@! TO.N,unconnected-(J101-Pada6)*
X224700000Y-73330000D03*
G04 #@! TO.P,J101,a8,Pin_a8*
G04 #@! TO.N,unconnected-(J101-Pada8)*
X224700000Y-78410000D03*
G04 #@! TO.P,J101,a10,Pin_a10*
G04 #@! TO.N,unconnected-(J101-Pada10)*
X224700000Y-83490000D03*
G04 #@! TO.P,J101,a12,Pin_a12*
G04 #@! TO.N,unconnected-(J101-Pada12)*
X224700000Y-88570000D03*
G04 #@! TO.P,J101,a14,Pin_a14*
G04 #@! TO.N,unconnected-(J101-Pada14)*
X224700000Y-93650000D03*
G04 #@! TO.P,J101,a16,Pin_a16*
G04 #@! TO.N,unconnected-(J101-Pada16)*
X224700000Y-98730000D03*
G04 #@! TO.P,J101,a18,Pin_a18*
G04 #@! TO.N,unconnected-(J101-Pada18)*
X224700000Y-103810000D03*
G04 #@! TO.P,J101,a20,Pin_a20*
G04 #@! TO.N,/in+*
X224700000Y-108890000D03*
G04 #@! TO.P,J101,a22,Pin_a22*
G04 #@! TO.N,GND*
X224700000Y-113970000D03*
G04 #@! TO.P,J101,a24,Pin_a24*
X224700000Y-119050000D03*
G04 #@! TO.P,J101,a26,Pin_a26*
G04 #@! TO.N,unconnected-(J101-Pada26)*
X224700000Y-124130000D03*
G04 #@! TO.P,J101,a28,Pin_a28*
G04 #@! TO.N,unconnected-(J101-Pada28)*
X224700000Y-129210000D03*
G04 #@! TO.P,J101,a30,Pin_a30*
G04 #@! TO.N,unconnected-(J101-Pada30)*
X224700000Y-134290000D03*
G04 #@! TO.P,J101,a32,Pin_a32*
G04 #@! TO.N,unconnected-(J101-Pada32)*
X224700000Y-139370000D03*
G04 #@! TO.P,J101,c2,Pin_c2*
G04 #@! TO.N,+BATT*
X219620000Y-63170000D03*
G04 #@! TO.P,J101,c4,Pin_c4*
G04 #@! TO.N,/-out*
X219620000Y-68250000D03*
G04 #@! TO.P,J101,c6,Pin_c6*
G04 #@! TO.N,unconnected-(J101-Padc6)*
X219620000Y-73330000D03*
G04 #@! TO.P,J101,c8,Pin_c8*
G04 #@! TO.N,unconnected-(J101-Padc8)*
X219620000Y-78410000D03*
G04 #@! TO.P,J101,c10,Pin_c10*
G04 #@! TO.N,unconnected-(J101-Padc10)*
X219620000Y-83490000D03*
G04 #@! TO.P,J101,c12,Pin_c12*
G04 #@! TO.N,unconnected-(J101-Padc12)*
X219620000Y-88570000D03*
G04 #@! TO.P,J101,c14,Pin_c14*
G04 #@! TO.N,unconnected-(J101-Padc14)*
X219620000Y-93650000D03*
G04 #@! TO.P,J101,c16,Pin_c16*
G04 #@! TO.N,unconnected-(J101-Padc16)*
X219620000Y-98730000D03*
G04 #@! TO.P,J101,c18,Pin_c18*
G04 #@! TO.N,unconnected-(J101-Padc18)*
X219620000Y-103810000D03*
G04 #@! TO.P,J101,c20,Pin_c20*
G04 #@! TO.N,/in+*
X219620000Y-108890000D03*
G04 #@! TO.P,J101,c22,Pin_c22*
G04 #@! TO.N,GND*
X219620000Y-113970000D03*
G04 #@! TO.P,J101,c24,Pin_c24*
X219620000Y-119050000D03*
G04 #@! TO.P,J101,c26,Pin_c26*
G04 #@! TO.N,unconnected-(J101-Padc26)*
X219620000Y-124130000D03*
G04 #@! TO.P,J101,c28,Pin_c28*
G04 #@! TO.N,unconnected-(J101-Padc28)*
X219620000Y-129210000D03*
G04 #@! TO.P,J101,c30,Pin_c30*
G04 #@! TO.N,unconnected-(J101-Padc30)*
X219620000Y-134290000D03*
G04 #@! TO.P,J101,c32,Pin_c32*
G04 #@! TO.N,unconnected-(J101-Padc32)*
X219620000Y-139370000D03*
G04 #@! TD*
D14*
G04 #@! TO.P,TH101,1*
G04 #@! TO.N,Net-(R116-Pad1)*
X127000000Y-100912500D03*
G04 #@! TO.P,TH101,2*
G04 #@! TO.N,GND*
X127000000Y-99087500D03*
G04 #@! TD*
D15*
G04 #@! TO.N,GND*
X222000000Y-51750000D03*
X211250000Y-51750000D03*
X200500000Y-51750000D03*
X189750000Y-51750000D03*
X179000000Y-51750000D03*
X168250000Y-51750000D03*
X157500000Y-51750000D03*
X146750000Y-51750000D03*
X136000000Y-51750000D03*
X125250000Y-51750000D03*
X114500000Y-51750000D03*
X103750000Y-51750000D03*
X93000000Y-51750000D03*
X82250000Y-51750000D03*
X71500000Y-51750000D03*
G04 #@! TO.N,+BATT*
X222000000Y-62500000D03*
X211250000Y-62500000D03*
X200500000Y-62500000D03*
X189750000Y-62500000D03*
G04 #@! TO.N,GND*
X168250000Y-62500000D03*
X146750000Y-62500000D03*
X136000000Y-62500000D03*
X125250000Y-62500000D03*
X114500000Y-62500000D03*
X103750000Y-62500000D03*
X93000000Y-62500000D03*
X82250000Y-62500000D03*
X71500000Y-62500000D03*
G04 #@! TO.N,+BATT*
X222000000Y-73250000D03*
X211250000Y-73250000D03*
G04 #@! TO.N,Net-(R121-Pad1)*
X200500000Y-73250000D03*
G04 #@! TO.N,GND*
X189750000Y-73250000D03*
X157500000Y-73250000D03*
X146750000Y-73250000D03*
X136000000Y-73250000D03*
X125250000Y-73250000D03*
X114500000Y-73250000D03*
X93000000Y-73250000D03*
X71500000Y-73250000D03*
G04 #@! TO.N,+BATT*
X222000000Y-84000000D03*
X211250000Y-84000000D03*
G04 #@! TO.N,Net-(R121-Pad1)*
X200500000Y-84000000D03*
G04 #@! TO.N,GND*
X189750000Y-84000000D03*
X179000000Y-84000000D03*
X168250000Y-84000000D03*
X157500000Y-84000000D03*
X146750000Y-84000000D03*
X136000000Y-84000000D03*
G04 #@! TO.N,+BATT*
X222000000Y-94750000D03*
X211250000Y-94750000D03*
G04 #@! TO.N,Net-(R121-Pad1)*
X200500000Y-94750000D03*
G04 #@! TO.N,GND*
X189750000Y-94750000D03*
X179000000Y-94750000D03*
X168250000Y-94750000D03*
X157500000Y-94750000D03*
X146750000Y-94750000D03*
X136000000Y-94750000D03*
X125250000Y-94750000D03*
X82250000Y-94750000D03*
X71500000Y-94750000D03*
G04 #@! TO.N,+BATT*
X222000000Y-105500000D03*
X211250000Y-105500000D03*
G04 #@! TO.N,Net-(R121-Pad1)*
X200500000Y-105500000D03*
G04 #@! TO.N,GND*
X189750000Y-105500000D03*
X179000000Y-105500000D03*
X168250000Y-105500000D03*
X157500000Y-105500000D03*
X146750000Y-105500000D03*
X136000000Y-105500000D03*
X125250000Y-105500000D03*
X114500000Y-105500000D03*
X71500000Y-105500000D03*
X222000000Y-116250000D03*
X189750000Y-116250000D03*
X179000000Y-116250000D03*
X168250000Y-116250000D03*
X157500000Y-116250000D03*
X146750000Y-116250000D03*
X136000000Y-116250000D03*
X125250000Y-116250000D03*
X114500000Y-116250000D03*
X103750000Y-116250000D03*
X71500000Y-116250000D03*
X222000000Y-127000000D03*
G04 #@! TO.N,Net-(R121-Pad1)*
X211250000Y-127000000D03*
X200500000Y-127000000D03*
G04 #@! TO.N,GND*
X189750000Y-127000000D03*
X168250000Y-127000000D03*
X157500000Y-127000000D03*
X146750000Y-127000000D03*
X136000000Y-127000000D03*
X125250000Y-127000000D03*
X114500000Y-127000000D03*
X93000000Y-127000000D03*
X82250000Y-127000000D03*
X71500000Y-127000000D03*
X222000000Y-137750000D03*
G04 #@! TO.N,Net-(R121-Pad1)*
X211250000Y-137750000D03*
X200500000Y-137750000D03*
G04 #@! TO.N,GND*
X189750000Y-137750000D03*
X168250000Y-137750000D03*
X146750000Y-137750000D03*
X136000000Y-137750000D03*
X125250000Y-137750000D03*
X114500000Y-137750000D03*
X103750000Y-137750000D03*
X93000000Y-137750000D03*
X82250000Y-137750000D03*
X71500000Y-137750000D03*
X222000000Y-148500000D03*
X211250000Y-148500000D03*
X200500000Y-148500000D03*
X189750000Y-148500000D03*
X179000000Y-148500000D03*
X168250000Y-148500000D03*
X157500000Y-148500000D03*
X146750000Y-148500000D03*
X136000000Y-148500000D03*
X125250000Y-148500000D03*
X114500000Y-148500000D03*
X103750000Y-148500000D03*
X93000000Y-148500000D03*
X82250000Y-148500000D03*
X71500000Y-148500000D03*
G04 #@! TO.N,/-out*
X80500000Y-84500000D03*
X109500000Y-84500000D03*
G04 #@! TO.N,Net-(D103-Pad2)*
X80500000Y-87000000D03*
X106000000Y-87000000D03*
G04 #@! TO.N,Net-(D104-Pad2)*
X72000000Y-69000000D03*
X73000000Y-89500000D03*
G04 #@! TO.N,GND*
X102096000Y-92320000D03*
X95238000Y-98924000D03*
X110000000Y-96500000D03*
X94984000Y-88256000D03*
X99302000Y-96892000D03*
G04 #@! TO.N,Net-(R116-Pad1)*
X110000000Y-95000000D03*
G04 #@! TD*
D16*
G04 #@! TO.N,Net-(D104-Pad2)*
X73000000Y-70000000D02*
X72000000Y-69000000D01*
X73000000Y-89500000D02*
X73000000Y-70000000D01*
D17*
G04 #@! TO.N,Net-(R116-Pad1)*
X120912500Y-100912500D02*
X127000000Y-100912500D01*
X115000000Y-95000000D02*
X120912500Y-100912500D01*
X110000000Y-95000000D02*
X115000000Y-95000000D01*
D16*
G04 #@! TO.N,/-out*
X80500000Y-84500000D02*
X109500000Y-84500000D01*
G04 #@! TO.N,Net-(D103-Pad2)*
X80500000Y-87000000D02*
X106000000Y-87000000D01*
D18*
G04 #@! TO.N,Net-(B101-Pad2)*
X170000000Y-127500000D02*
X178950000Y-136450000D01*
X170000000Y-73500000D02*
X170000000Y-127500000D01*
X160050000Y-63550000D02*
X170000000Y-73500000D01*
G04 #@! TO.N,Net-(B101-Pad4)*
X140350000Y-63550000D02*
X150000000Y-73200000D01*
X150000000Y-73200000D02*
X150000000Y-126800000D01*
X150000000Y-126800000D02*
X159650000Y-136450000D01*
G04 #@! TO.N,Net-(B101-Pad6)*
X130000000Y-72500000D02*
X130000000Y-126100000D01*
X121050000Y-63550000D02*
X130000000Y-72500000D01*
X130000000Y-126100000D02*
X140350000Y-136450000D01*
G04 #@! TD*
G04 #@! TA.AperFunction,Conductor*
G04 #@! TO.N,+BATT*
G36*
X217015931Y-54020002D02*
G01*
X217036905Y-54036905D01*
X224146906Y-61146906D01*
X224180932Y-61209218D01*
X224175867Y-61280033D01*
X224133320Y-61336869D01*
X224066800Y-61361680D01*
X224057811Y-61362001D01*
X223602905Y-61362001D01*
X223596386Y-61362338D01*
X223500794Y-61372257D01*
X223487400Y-61375149D01*
X223333216Y-61426588D01*
X223320038Y-61432761D01*
X223182193Y-61518063D01*
X223170792Y-61527099D01*
X223056261Y-61641829D01*
X223047249Y-61653240D01*
X222962184Y-61791243D01*
X222956037Y-61804424D01*
X222904862Y-61958710D01*
X222901995Y-61972086D01*
X222892328Y-62066438D01*
X222892000Y-62072855D01*
X222892000Y-62897885D01*
X222896475Y-62913124D01*
X222897865Y-62914329D01*
X222905548Y-62916000D01*
X224828000Y-62916000D01*
X224896121Y-62936002D01*
X224942614Y-62989658D01*
X224954000Y-63042000D01*
X224954000Y-64959884D01*
X224958475Y-64975123D01*
X224959865Y-64976328D01*
X224967548Y-64977999D01*
X225797095Y-64977999D01*
X225803614Y-64977662D01*
X225899206Y-64967743D01*
X225912600Y-64964851D01*
X226066784Y-64913412D01*
X226079962Y-64907239D01*
X226217807Y-64821937D01*
X226229208Y-64812901D01*
X226343739Y-64698171D01*
X226352751Y-64686760D01*
X226437816Y-64548757D01*
X226443963Y-64535576D01*
X226495138Y-64381290D01*
X226498005Y-64367914D01*
X226507672Y-64273562D01*
X226508000Y-64267146D01*
X226508000Y-63812190D01*
X226528002Y-63744069D01*
X226581658Y-63697576D01*
X226651932Y-63687472D01*
X226716512Y-63716966D01*
X226723095Y-63723095D01*
X229455095Y-66455095D01*
X229489121Y-66517407D01*
X229492000Y-66544190D01*
X229492000Y-108874000D01*
X229471998Y-108942121D01*
X229418342Y-108988614D01*
X229366000Y-109000000D01*
X226638730Y-109000000D01*
X226570609Y-108979998D01*
X226524116Y-108926342D01*
X226513076Y-108883338D01*
X226493996Y-108626592D01*
X226493996Y-108626591D01*
X226493650Y-108621937D01*
X226434327Y-108359763D01*
X226336902Y-108109238D01*
X226203518Y-107875864D01*
X226037105Y-107664769D01*
X225841317Y-107480591D01*
X225620457Y-107327374D01*
X225616264Y-107325306D01*
X225383564Y-107210551D01*
X225383561Y-107210550D01*
X225379376Y-107208486D01*
X225331745Y-107193239D01*
X225277621Y-107175914D01*
X225123370Y-107126538D01*
X225118763Y-107125788D01*
X225118760Y-107125787D01*
X224862674Y-107084081D01*
X224862675Y-107084081D01*
X224858063Y-107083330D01*
X224727719Y-107081624D01*
X224593961Y-107079873D01*
X224593958Y-107079873D01*
X224589284Y-107079812D01*
X224322937Y-107116060D01*
X224064874Y-107191278D01*
X223820763Y-107303815D01*
X223816854Y-107306378D01*
X223599881Y-107448631D01*
X223599876Y-107448635D01*
X223595968Y-107451197D01*
X223395426Y-107630188D01*
X223223544Y-107836854D01*
X223084096Y-108066656D01*
X222980148Y-108314545D01*
X222913981Y-108575077D01*
X222887050Y-108842526D01*
X222887274Y-108847193D01*
X222887274Y-108847200D01*
X222888271Y-108867957D01*
X222871559Y-108936959D01*
X222820195Y-108985971D01*
X222762416Y-109000000D01*
X221558730Y-109000000D01*
X221490609Y-108979998D01*
X221444116Y-108926342D01*
X221433076Y-108883338D01*
X221413996Y-108626592D01*
X221413996Y-108626591D01*
X221413650Y-108621937D01*
X221354327Y-108359763D01*
X221256902Y-108109238D01*
X221123518Y-107875864D01*
X220957105Y-107664769D01*
X220761317Y-107480591D01*
X220540457Y-107327374D01*
X220536264Y-107325306D01*
X220303564Y-107210551D01*
X220303561Y-107210550D01*
X220299376Y-107208486D01*
X220251745Y-107193239D01*
X220197621Y-107175914D01*
X220043370Y-107126538D01*
X220038763Y-107125788D01*
X220038760Y-107125787D01*
X219782674Y-107084081D01*
X219782675Y-107084081D01*
X219778063Y-107083330D01*
X219647719Y-107081624D01*
X219513961Y-107079873D01*
X219513958Y-107079873D01*
X219509284Y-107079812D01*
X219242937Y-107116060D01*
X218984874Y-107191278D01*
X218740763Y-107303815D01*
X218736854Y-107306378D01*
X218519881Y-107448631D01*
X218519876Y-107448635D01*
X218515968Y-107451197D01*
X218315426Y-107630188D01*
X218143544Y-107836854D01*
X218004096Y-108066656D01*
X217900148Y-108314545D01*
X217833981Y-108575077D01*
X217807050Y-108842526D01*
X217807274Y-108847193D01*
X217807274Y-108847200D01*
X217808271Y-108867957D01*
X217791559Y-108936959D01*
X217740195Y-108985971D01*
X217682416Y-109000000D01*
X206126000Y-109000000D01*
X206057879Y-108979998D01*
X206011386Y-108926342D01*
X206000000Y-108874000D01*
X206000000Y-103762526D01*
X217807050Y-103762526D01*
X217819947Y-104031019D01*
X217872388Y-104294656D01*
X217963220Y-104547646D01*
X218090450Y-104784431D01*
X218093241Y-104788168D01*
X218093245Y-104788175D01*
X218117857Y-104821134D01*
X218251281Y-104999810D01*
X218254590Y-105003090D01*
X218254595Y-105003096D01*
X218438863Y-105185762D01*
X218442180Y-105189050D01*
X218445942Y-105191808D01*
X218445945Y-105191811D01*
X218558299Y-105274192D01*
X218658954Y-105347995D01*
X218663089Y-105350171D01*
X218663093Y-105350173D01*
X218892698Y-105470975D01*
X218896840Y-105473154D01*
X219150613Y-105561775D01*
X219155206Y-105562647D01*
X219410109Y-105611042D01*
X219410112Y-105611042D01*
X219414698Y-105611913D01*
X219542370Y-105616929D01*
X219678625Y-105622283D01*
X219678630Y-105622283D01*
X219683293Y-105622466D01*
X219787607Y-105611042D01*
X219945844Y-105593713D01*
X219945850Y-105593712D01*
X219950497Y-105593203D01*
X219955021Y-105592012D01*
X220205918Y-105525956D01*
X220205920Y-105525955D01*
X220210441Y-105524765D01*
X220268083Y-105500000D01*
X220453120Y-105420502D01*
X220453122Y-105420501D01*
X220457414Y-105418657D01*
X220632886Y-105310072D01*
X220682017Y-105279669D01*
X220682021Y-105279666D01*
X220685990Y-105277210D01*
X220891149Y-105103530D01*
X221068382Y-104901434D01*
X221213797Y-104675361D01*
X221324199Y-104430278D01*
X221361209Y-104299051D01*
X221395893Y-104176072D01*
X221395894Y-104176069D01*
X221397163Y-104171568D01*
X221415043Y-104031019D01*
X221430688Y-103908045D01*
X221430688Y-103908041D01*
X221431086Y-103904915D01*
X221433571Y-103810000D01*
X221430043Y-103762526D01*
X222887050Y-103762526D01*
X222899947Y-104031019D01*
X222952388Y-104294656D01*
X223043220Y-104547646D01*
X223170450Y-104784431D01*
X223173241Y-104788168D01*
X223173245Y-104788175D01*
X223197857Y-104821134D01*
X223331281Y-104999810D01*
X223334590Y-105003090D01*
X223334595Y-105003096D01*
X223518863Y-105185762D01*
X223522180Y-105189050D01*
X223525942Y-105191808D01*
X223525945Y-105191811D01*
X223638299Y-105274192D01*
X223738954Y-105347995D01*
X223743089Y-105350171D01*
X223743093Y-105350173D01*
X223972698Y-105470975D01*
X223976840Y-105473154D01*
X224230613Y-105561775D01*
X224235206Y-105562647D01*
X224490109Y-105611042D01*
X224490112Y-105611042D01*
X224494698Y-105611913D01*
X224622370Y-105616929D01*
X224758625Y-105622283D01*
X224758630Y-105622283D01*
X224763293Y-105622466D01*
X224867607Y-105611042D01*
X225025844Y-105593713D01*
X225025850Y-105593712D01*
X225030497Y-105593203D01*
X225035021Y-105592012D01*
X225285918Y-105525956D01*
X225285920Y-105525955D01*
X225290441Y-105524765D01*
X225348083Y-105500000D01*
X225533120Y-105420502D01*
X225533122Y-105420501D01*
X225537414Y-105418657D01*
X225712886Y-105310072D01*
X225762017Y-105279669D01*
X225762021Y-105279666D01*
X225765990Y-105277210D01*
X225971149Y-105103530D01*
X226148382Y-104901434D01*
X226293797Y-104675361D01*
X226404199Y-104430278D01*
X226441209Y-104299051D01*
X226475893Y-104176072D01*
X226475894Y-104176069D01*
X226477163Y-104171568D01*
X226495043Y-104031019D01*
X226510688Y-103908045D01*
X226510688Y-103908041D01*
X226511086Y-103904915D01*
X226513571Y-103810000D01*
X226493650Y-103541937D01*
X226434327Y-103279763D01*
X226336902Y-103029238D01*
X226203518Y-102795864D01*
X226037105Y-102584769D01*
X225841317Y-102400591D01*
X225620457Y-102247374D01*
X225616264Y-102245306D01*
X225383564Y-102130551D01*
X225383561Y-102130550D01*
X225379376Y-102128486D01*
X225331745Y-102113239D01*
X225277621Y-102095914D01*
X225123370Y-102046538D01*
X225118763Y-102045788D01*
X225118760Y-102045787D01*
X224862674Y-102004081D01*
X224862675Y-102004081D01*
X224858063Y-102003330D01*
X224727719Y-102001624D01*
X224593961Y-101999873D01*
X224593958Y-101999873D01*
X224589284Y-101999812D01*
X224322937Y-102036060D01*
X224064874Y-102111278D01*
X223820763Y-102223815D01*
X223816854Y-102226378D01*
X223599881Y-102368631D01*
X223599876Y-102368635D01*
X223595968Y-102371197D01*
X223395426Y-102550188D01*
X223223544Y-102756854D01*
X223084096Y-102986656D01*
X222980148Y-103234545D01*
X222913981Y-103495077D01*
X222887050Y-103762526D01*
X221430043Y-103762526D01*
X221413650Y-103541937D01*
X221354327Y-103279763D01*
X221256902Y-103029238D01*
X221123518Y-102795864D01*
X220957105Y-102584769D01*
X220761317Y-102400591D01*
X220540457Y-102247374D01*
X220536264Y-102245306D01*
X220303564Y-102130551D01*
X220303561Y-102130550D01*
X220299376Y-102128486D01*
X220251745Y-102113239D01*
X220197621Y-102095914D01*
X220043370Y-102046538D01*
X220038763Y-102045788D01*
X220038760Y-102045787D01*
X219782674Y-102004081D01*
X219782675Y-102004081D01*
X219778063Y-102003330D01*
X219647719Y-102001624D01*
X219513961Y-101999873D01*
X219513958Y-101999873D01*
X219509284Y-101999812D01*
X219242937Y-102036060D01*
X218984874Y-102111278D01*
X218740763Y-102223815D01*
X218736854Y-102226378D01*
X218519881Y-102368631D01*
X218519876Y-102368635D01*
X218515968Y-102371197D01*
X218315426Y-102550188D01*
X218143544Y-102756854D01*
X218004096Y-102986656D01*
X217900148Y-103234545D01*
X217833981Y-103495077D01*
X217807050Y-103762526D01*
X206000000Y-103762526D01*
X206000000Y-98682526D01*
X217807050Y-98682526D01*
X217819947Y-98951019D01*
X217872388Y-99214656D01*
X217963220Y-99467646D01*
X218090450Y-99704431D01*
X218093241Y-99708168D01*
X218093245Y-99708175D01*
X218174887Y-99817506D01*
X218251281Y-99919810D01*
X218254590Y-99923090D01*
X218254595Y-99923096D01*
X218438863Y-100105762D01*
X218442180Y-100109050D01*
X218445942Y-100111808D01*
X218445945Y-100111811D01*
X218558299Y-100194192D01*
X218658954Y-100267995D01*
X218663089Y-100270171D01*
X218663093Y-100270173D01*
X218892698Y-100390975D01*
X218896840Y-100393154D01*
X219150613Y-100481775D01*
X219155206Y-100482647D01*
X219410109Y-100531042D01*
X219410112Y-100531042D01*
X219414698Y-100531913D01*
X219542370Y-100536929D01*
X219678625Y-100542283D01*
X219678630Y-100542283D01*
X219683293Y-100542466D01*
X219787607Y-100531042D01*
X219945844Y-100513713D01*
X219945850Y-100513712D01*
X219950497Y-100513203D01*
X219955021Y-100512012D01*
X220205918Y-100445956D01*
X220205920Y-100445955D01*
X220210441Y-100444765D01*
X220214738Y-100442919D01*
X220453120Y-100340502D01*
X220453122Y-100340501D01*
X220457414Y-100338657D01*
X220576071Y-100265230D01*
X220682017Y-100199669D01*
X220682021Y-100199666D01*
X220685990Y-100197210D01*
X220891149Y-100023530D01*
X221068382Y-99821434D01*
X221213797Y-99595361D01*
X221324199Y-99350278D01*
X221361209Y-99219051D01*
X221395893Y-99096072D01*
X221395894Y-99096069D01*
X221397163Y-99091568D01*
X221415043Y-98951019D01*
X221430688Y-98828045D01*
X221430688Y-98828041D01*
X221431086Y-98824915D01*
X221433571Y-98730000D01*
X221430043Y-98682526D01*
X222887050Y-98682526D01*
X222899947Y-98951019D01*
X222952388Y-99214656D01*
X223043220Y-99467646D01*
X223170450Y-99704431D01*
X223173241Y-99708168D01*
X223173245Y-99708175D01*
X223254887Y-99817506D01*
X223331281Y-99919810D01*
X223334590Y-99923090D01*
X223334595Y-99923096D01*
X223518863Y-100105762D01*
X223522180Y-100109050D01*
X223525942Y-100111808D01*
X223525945Y-100111811D01*
X223638299Y-100194192D01*
X223738954Y-100267995D01*
X223743089Y-100270171D01*
X223743093Y-100270173D01*
X223972698Y-100390975D01*
X223976840Y-100393154D01*
X224230613Y-100481775D01*
X224235206Y-100482647D01*
X224490109Y-100531042D01*
X224490112Y-100531042D01*
X224494698Y-100531913D01*
X224622370Y-100536929D01*
X224758625Y-100542283D01*
X224758630Y-100542283D01*
X224763293Y-100542466D01*
X224867607Y-100531042D01*
X225025844Y-100513713D01*
X225025850Y-100513712D01*
X225030497Y-100513203D01*
X225035021Y-100512012D01*
X225285918Y-100445956D01*
X225285920Y-100445955D01*
X225290441Y-100444765D01*
X225294738Y-100442919D01*
X225533120Y-100340502D01*
X225533122Y-100340501D01*
X225537414Y-100338657D01*
X225656071Y-100265230D01*
X225762017Y-100199669D01*
X225762021Y-100199666D01*
X225765990Y-100197210D01*
X225971149Y-100023530D01*
X226148382Y-99821434D01*
X226293797Y-99595361D01*
X226404199Y-99350278D01*
X226441209Y-99219051D01*
X226475893Y-99096072D01*
X226475894Y-99096069D01*
X226477163Y-99091568D01*
X226495043Y-98951019D01*
X226510688Y-98828045D01*
X226510688Y-98828041D01*
X226511086Y-98824915D01*
X226513571Y-98730000D01*
X226493650Y-98461937D01*
X226434327Y-98199763D01*
X226336902Y-97949238D01*
X226203518Y-97715864D01*
X226037105Y-97504769D01*
X225841317Y-97320591D01*
X225620457Y-97167374D01*
X225616264Y-97165306D01*
X225383564Y-97050551D01*
X225383561Y-97050550D01*
X225379376Y-97048486D01*
X225331745Y-97033239D01*
X225277621Y-97015914D01*
X225123370Y-96966538D01*
X225118763Y-96965788D01*
X225118760Y-96965787D01*
X224862674Y-96924081D01*
X224862675Y-96924081D01*
X224858063Y-96923330D01*
X224727719Y-96921624D01*
X224593961Y-96919873D01*
X224593958Y-96919873D01*
X224589284Y-96919812D01*
X224322937Y-96956060D01*
X224064874Y-97031278D01*
X223820763Y-97143815D01*
X223816854Y-97146378D01*
X223599881Y-97288631D01*
X223599876Y-97288635D01*
X223595968Y-97291197D01*
X223395426Y-97470188D01*
X223223544Y-97676854D01*
X223084096Y-97906656D01*
X222980148Y-98154545D01*
X222913981Y-98415077D01*
X222887050Y-98682526D01*
X221430043Y-98682526D01*
X221413650Y-98461937D01*
X221354327Y-98199763D01*
X221256902Y-97949238D01*
X221123518Y-97715864D01*
X220957105Y-97504769D01*
X220761317Y-97320591D01*
X220540457Y-97167374D01*
X220536264Y-97165306D01*
X220303564Y-97050551D01*
X220303561Y-97050550D01*
X220299376Y-97048486D01*
X220251745Y-97033239D01*
X220197621Y-97015914D01*
X220043370Y-96966538D01*
X220038763Y-96965788D01*
X220038760Y-96965787D01*
X219782674Y-96924081D01*
X219782675Y-96924081D01*
X219778063Y-96923330D01*
X219647719Y-96921624D01*
X219513961Y-96919873D01*
X219513958Y-96919873D01*
X219509284Y-96919812D01*
X219242937Y-96956060D01*
X218984874Y-97031278D01*
X218740763Y-97143815D01*
X218736854Y-97146378D01*
X218519881Y-97288631D01*
X218519876Y-97288635D01*
X218515968Y-97291197D01*
X218315426Y-97470188D01*
X218143544Y-97676854D01*
X218004096Y-97906656D01*
X217900148Y-98154545D01*
X217833981Y-98415077D01*
X217807050Y-98682526D01*
X206000000Y-98682526D01*
X206000000Y-93602526D01*
X217807050Y-93602526D01*
X217819947Y-93871019D01*
X217872388Y-94134656D01*
X217963220Y-94387646D01*
X218090450Y-94624431D01*
X218093241Y-94628168D01*
X218093245Y-94628175D01*
X218174887Y-94737506D01*
X218251281Y-94839810D01*
X218254590Y-94843090D01*
X218254595Y-94843096D01*
X218438863Y-95025762D01*
X218442180Y-95029050D01*
X218445942Y-95031808D01*
X218445945Y-95031811D01*
X218558299Y-95114192D01*
X218658954Y-95187995D01*
X218663089Y-95190171D01*
X218663093Y-95190173D01*
X218847023Y-95286944D01*
X218896840Y-95313154D01*
X219150613Y-95401775D01*
X219155206Y-95402647D01*
X219410109Y-95451042D01*
X219410112Y-95451042D01*
X219414698Y-95451913D01*
X219542370Y-95456929D01*
X219678625Y-95462283D01*
X219678630Y-95462283D01*
X219683293Y-95462466D01*
X219787607Y-95451042D01*
X219945844Y-95433713D01*
X219945850Y-95433712D01*
X219950497Y-95433203D01*
X219966970Y-95428866D01*
X220205918Y-95365956D01*
X220205920Y-95365955D01*
X220210441Y-95364765D01*
X220214738Y-95362919D01*
X220453120Y-95260502D01*
X220453122Y-95260501D01*
X220457414Y-95258657D01*
X220576071Y-95185230D01*
X220682017Y-95119669D01*
X220682021Y-95119666D01*
X220685990Y-95117210D01*
X220891149Y-94943530D01*
X221068382Y-94741434D01*
X221213797Y-94515361D01*
X221324199Y-94270278D01*
X221361209Y-94139051D01*
X221395893Y-94016072D01*
X221395894Y-94016069D01*
X221397163Y-94011568D01*
X221415043Y-93871019D01*
X221430688Y-93748045D01*
X221430688Y-93748041D01*
X221431086Y-93744915D01*
X221433571Y-93650000D01*
X221430043Y-93602526D01*
X222887050Y-93602526D01*
X222899947Y-93871019D01*
X222952388Y-94134656D01*
X223043220Y-94387646D01*
X223170450Y-94624431D01*
X223173241Y-94628168D01*
X223173245Y-94628175D01*
X223254887Y-94737506D01*
X223331281Y-94839810D01*
X223334590Y-94843090D01*
X223334595Y-94843096D01*
X223518863Y-95025762D01*
X223522180Y-95029050D01*
X223525942Y-95031808D01*
X223525945Y-95031811D01*
X223638299Y-95114192D01*
X223738954Y-95187995D01*
X223743089Y-95190171D01*
X223743093Y-95190173D01*
X223927023Y-95286944D01*
X223976840Y-95313154D01*
X224230613Y-95401775D01*
X224235206Y-95402647D01*
X224490109Y-95451042D01*
X224490112Y-95451042D01*
X224494698Y-95451913D01*
X224622370Y-95456929D01*
X224758625Y-95462283D01*
X224758630Y-95462283D01*
X224763293Y-95462466D01*
X224867607Y-95451042D01*
X225025844Y-95433713D01*
X225025850Y-95433712D01*
X225030497Y-95433203D01*
X225046970Y-95428866D01*
X225285918Y-95365956D01*
X225285920Y-95365955D01*
X225290441Y-95364765D01*
X225294738Y-95362919D01*
X225533120Y-95260502D01*
X225533122Y-95260501D01*
X225537414Y-95258657D01*
X225656071Y-95185230D01*
X225762017Y-95119669D01*
X225762021Y-95119666D01*
X225765990Y-95117210D01*
X225971149Y-94943530D01*
X226148382Y-94741434D01*
X226293797Y-94515361D01*
X226404199Y-94270278D01*
X226441209Y-94139051D01*
X226475893Y-94016072D01*
X226475894Y-94016069D01*
X226477163Y-94011568D01*
X226495043Y-93871019D01*
X226510688Y-93748045D01*
X226510688Y-93748041D01*
X226511086Y-93744915D01*
X226513571Y-93650000D01*
X226493650Y-93381937D01*
X226434327Y-93119763D01*
X226336902Y-92869238D01*
X226203518Y-92635864D01*
X226037105Y-92424769D01*
X225841317Y-92240591D01*
X225620457Y-92087374D01*
X225616264Y-92085306D01*
X225383564Y-91970551D01*
X225383561Y-91970550D01*
X225379376Y-91968486D01*
X225331745Y-91953239D01*
X225277621Y-91935914D01*
X225123370Y-91886538D01*
X225118763Y-91885788D01*
X225118760Y-91885787D01*
X224862674Y-91844081D01*
X224862675Y-91844081D01*
X224858063Y-91843330D01*
X224727719Y-91841624D01*
X224593961Y-91839873D01*
X224593958Y-91839873D01*
X224589284Y-91839812D01*
X224322937Y-91876060D01*
X224064874Y-91951278D01*
X223820763Y-92063815D01*
X223816854Y-92066378D01*
X223599881Y-92208631D01*
X223599876Y-92208635D01*
X223595968Y-92211197D01*
X223395426Y-92390188D01*
X223223544Y-92596854D01*
X223084096Y-92826656D01*
X222980148Y-93074545D01*
X222913981Y-93335077D01*
X222887050Y-93602526D01*
X221430043Y-93602526D01*
X221413650Y-93381937D01*
X221354327Y-93119763D01*
X221256902Y-92869238D01*
X221123518Y-92635864D01*
X220957105Y-92424769D01*
X220761317Y-92240591D01*
X220540457Y-92087374D01*
X220536264Y-92085306D01*
X220303564Y-91970551D01*
X220303561Y-91970550D01*
X220299376Y-91968486D01*
X220251745Y-91953239D01*
X220197621Y-91935914D01*
X220043370Y-91886538D01*
X220038763Y-91885788D01*
X220038760Y-91885787D01*
X219782674Y-91844081D01*
X219782675Y-91844081D01*
X219778063Y-91843330D01*
X219647719Y-91841624D01*
X219513961Y-91839873D01*
X219513958Y-91839873D01*
X219509284Y-91839812D01*
X219242937Y-91876060D01*
X218984874Y-91951278D01*
X218740763Y-92063815D01*
X218736854Y-92066378D01*
X218519881Y-92208631D01*
X218519876Y-92208635D01*
X218515968Y-92211197D01*
X218315426Y-92390188D01*
X218143544Y-92596854D01*
X218004096Y-92826656D01*
X217900148Y-93074545D01*
X217833981Y-93335077D01*
X217807050Y-93602526D01*
X206000000Y-93602526D01*
X206000000Y-88522526D01*
X217807050Y-88522526D01*
X217819947Y-88791019D01*
X217872388Y-89054656D01*
X217963220Y-89307646D01*
X218090450Y-89544431D01*
X218093241Y-89548168D01*
X218093245Y-89548175D01*
X218174887Y-89657506D01*
X218251281Y-89759810D01*
X218254590Y-89763090D01*
X218254595Y-89763096D01*
X218438863Y-89945762D01*
X218442180Y-89949050D01*
X218445942Y-89951808D01*
X218445945Y-89951811D01*
X218558299Y-90034192D01*
X218658954Y-90107995D01*
X218663089Y-90110171D01*
X218663093Y-90110173D01*
X218892698Y-90230975D01*
X218896840Y-90233154D01*
X219150613Y-90321775D01*
X219155206Y-90322647D01*
X219410109Y-90371042D01*
X219410112Y-90371042D01*
X219414698Y-90371913D01*
X219542370Y-90376929D01*
X219678625Y-90382283D01*
X219678630Y-90382283D01*
X219683293Y-90382466D01*
X219787607Y-90371042D01*
X219945844Y-90353713D01*
X219945850Y-90353712D01*
X219950497Y-90353203D01*
X219955021Y-90352012D01*
X220205918Y-90285956D01*
X220205920Y-90285955D01*
X220210441Y-90284765D01*
X220214738Y-90282919D01*
X220453120Y-90180502D01*
X220453122Y-90180501D01*
X220457414Y-90178657D01*
X220576071Y-90105230D01*
X220682017Y-90039669D01*
X220682021Y-90039666D01*
X220685990Y-90037210D01*
X220891149Y-89863530D01*
X221068382Y-89661434D01*
X221213797Y-89435361D01*
X221324199Y-89190278D01*
X221361209Y-89059051D01*
X221395893Y-88936072D01*
X221395894Y-88936069D01*
X221397163Y-88931568D01*
X221415043Y-88791019D01*
X221430688Y-88668045D01*
X221430688Y-88668041D01*
X221431086Y-88664915D01*
X221433571Y-88570000D01*
X221430043Y-88522526D01*
X222887050Y-88522526D01*
X222899947Y-88791019D01*
X222952388Y-89054656D01*
X223043220Y-89307646D01*
X223170450Y-89544431D01*
X223173241Y-89548168D01*
X223173245Y-89548175D01*
X223254887Y-89657506D01*
X223331281Y-89759810D01*
X223334590Y-89763090D01*
X223334595Y-89763096D01*
X223518863Y-89945762D01*
X223522180Y-89949050D01*
X223525942Y-89951808D01*
X223525945Y-89951811D01*
X223638299Y-90034192D01*
X223738954Y-90107995D01*
X223743089Y-90110171D01*
X223743093Y-90110173D01*
X223972698Y-90230975D01*
X223976840Y-90233154D01*
X224230613Y-90321775D01*
X224235206Y-90322647D01*
X224490109Y-90371042D01*
X224490112Y-90371042D01*
X224494698Y-90371913D01*
X224622370Y-90376929D01*
X224758625Y-90382283D01*
X224758630Y-90382283D01*
X224763293Y-90382466D01*
X224867607Y-90371042D01*
X225025844Y-90353713D01*
X225025850Y-90353712D01*
X225030497Y-90353203D01*
X225035021Y-90352012D01*
X225285918Y-90285956D01*
X225285920Y-90285955D01*
X225290441Y-90284765D01*
X225294738Y-90282919D01*
X225533120Y-90180502D01*
X225533122Y-90180501D01*
X225537414Y-90178657D01*
X225656071Y-90105230D01*
X225762017Y-90039669D01*
X225762021Y-90039666D01*
X225765990Y-90037210D01*
X225971149Y-89863530D01*
X226148382Y-89661434D01*
X226293797Y-89435361D01*
X226404199Y-89190278D01*
X226441209Y-89059051D01*
X226475893Y-88936072D01*
X226475894Y-88936069D01*
X226477163Y-88931568D01*
X226495043Y-88791019D01*
X226510688Y-88668045D01*
X226510688Y-88668041D01*
X226511086Y-88664915D01*
X226513571Y-88570000D01*
X226493650Y-88301937D01*
X226434327Y-88039763D01*
X226336902Y-87789238D01*
X226203518Y-87555864D01*
X226037105Y-87344769D01*
X225841317Y-87160591D01*
X225620457Y-87007374D01*
X225616264Y-87005306D01*
X225383564Y-86890551D01*
X225383561Y-86890550D01*
X225379376Y-86888486D01*
X225331745Y-86873239D01*
X225277621Y-86855914D01*
X225123370Y-86806538D01*
X225118763Y-86805788D01*
X225118760Y-86805787D01*
X224862674Y-86764081D01*
X224862675Y-86764081D01*
X224858063Y-86763330D01*
X224727719Y-86761624D01*
X224593961Y-86759873D01*
X224593958Y-86759873D01*
X224589284Y-86759812D01*
X224322937Y-86796060D01*
X224064874Y-86871278D01*
X223820763Y-86983815D01*
X223816854Y-86986378D01*
X223599881Y-87128631D01*
X223599876Y-87128635D01*
X223595968Y-87131197D01*
X223395426Y-87310188D01*
X223223544Y-87516854D01*
X223084096Y-87746656D01*
X222980148Y-87994545D01*
X222913981Y-88255077D01*
X222887050Y-88522526D01*
X221430043Y-88522526D01*
X221413650Y-88301937D01*
X221354327Y-88039763D01*
X221256902Y-87789238D01*
X221123518Y-87555864D01*
X220957105Y-87344769D01*
X220761317Y-87160591D01*
X220540457Y-87007374D01*
X220536264Y-87005306D01*
X220303564Y-86890551D01*
X220303561Y-86890550D01*
X220299376Y-86888486D01*
X220251745Y-86873239D01*
X220197621Y-86855914D01*
X220043370Y-86806538D01*
X220038763Y-86805788D01*
X220038760Y-86805787D01*
X219782674Y-86764081D01*
X219782675Y-86764081D01*
X219778063Y-86763330D01*
X219647719Y-86761624D01*
X219513961Y-86759873D01*
X219513958Y-86759873D01*
X219509284Y-86759812D01*
X219242937Y-86796060D01*
X218984874Y-86871278D01*
X218740763Y-86983815D01*
X218736854Y-86986378D01*
X218519881Y-87128631D01*
X218519876Y-87128635D01*
X218515968Y-87131197D01*
X218315426Y-87310188D01*
X218143544Y-87516854D01*
X218004096Y-87746656D01*
X217900148Y-87994545D01*
X217833981Y-88255077D01*
X217807050Y-88522526D01*
X206000000Y-88522526D01*
X206000000Y-83442526D01*
X217807050Y-83442526D01*
X217819947Y-83711019D01*
X217872388Y-83974656D01*
X217963220Y-84227646D01*
X218090450Y-84464431D01*
X218093241Y-84468168D01*
X218093245Y-84468175D01*
X218144598Y-84536944D01*
X218251281Y-84679810D01*
X218254590Y-84683090D01*
X218254595Y-84683096D01*
X218438863Y-84865762D01*
X218442180Y-84869050D01*
X218445942Y-84871808D01*
X218445945Y-84871811D01*
X218495983Y-84908500D01*
X218658954Y-85027995D01*
X218663089Y-85030171D01*
X218663093Y-85030173D01*
X218892698Y-85150975D01*
X218896840Y-85153154D01*
X219150613Y-85241775D01*
X219155206Y-85242647D01*
X219410109Y-85291042D01*
X219410112Y-85291042D01*
X219414698Y-85291913D01*
X219542370Y-85296929D01*
X219678625Y-85302283D01*
X219678630Y-85302283D01*
X219683293Y-85302466D01*
X219787607Y-85291042D01*
X219945844Y-85273713D01*
X219945850Y-85273712D01*
X219950497Y-85273203D01*
X219955021Y-85272012D01*
X220205918Y-85205956D01*
X220205920Y-85205955D01*
X220210441Y-85204765D01*
X220214738Y-85202919D01*
X220453120Y-85100502D01*
X220453122Y-85100501D01*
X220457414Y-85098657D01*
X220576071Y-85025230D01*
X220682017Y-84959669D01*
X220682021Y-84959666D01*
X220685990Y-84957210D01*
X220891149Y-84783530D01*
X221068382Y-84581434D01*
X221213797Y-84355361D01*
X221324199Y-84110278D01*
X221361209Y-83979051D01*
X221395893Y-83856072D01*
X221395894Y-83856069D01*
X221397163Y-83851568D01*
X221415043Y-83711019D01*
X221430688Y-83588045D01*
X221430688Y-83588041D01*
X221431086Y-83584915D01*
X221433571Y-83490000D01*
X221430043Y-83442526D01*
X222887050Y-83442526D01*
X222899947Y-83711019D01*
X222952388Y-83974656D01*
X223043220Y-84227646D01*
X223170450Y-84464431D01*
X223173241Y-84468168D01*
X223173245Y-84468175D01*
X223224598Y-84536944D01*
X223331281Y-84679810D01*
X223334590Y-84683090D01*
X223334595Y-84683096D01*
X223518863Y-84865762D01*
X223522180Y-84869050D01*
X223525942Y-84871808D01*
X223525945Y-84871811D01*
X223575983Y-84908500D01*
X223738954Y-85027995D01*
X223743089Y-85030171D01*
X223743093Y-85030173D01*
X223972698Y-85150975D01*
X223976840Y-85153154D01*
X224230613Y-85241775D01*
X224235206Y-85242647D01*
X224490109Y-85291042D01*
X224490112Y-85291042D01*
X224494698Y-85291913D01*
X224622370Y-85296929D01*
X224758625Y-85302283D01*
X224758630Y-85302283D01*
X224763293Y-85302466D01*
X224867607Y-85291042D01*
X225025844Y-85273713D01*
X225025850Y-85273712D01*
X225030497Y-85273203D01*
X225035021Y-85272012D01*
X225285918Y-85205956D01*
X225285920Y-85205955D01*
X225290441Y-85204765D01*
X225294738Y-85202919D01*
X225533120Y-85100502D01*
X225533122Y-85100501D01*
X225537414Y-85098657D01*
X225656071Y-85025230D01*
X225762017Y-84959669D01*
X225762021Y-84959666D01*
X225765990Y-84957210D01*
X225971149Y-84783530D01*
X226148382Y-84581434D01*
X226293797Y-84355361D01*
X226404199Y-84110278D01*
X226441209Y-83979051D01*
X226475893Y-83856072D01*
X226475894Y-83856069D01*
X226477163Y-83851568D01*
X226495043Y-83711019D01*
X226510688Y-83588045D01*
X226510688Y-83588041D01*
X226511086Y-83584915D01*
X226513571Y-83490000D01*
X226493650Y-83221937D01*
X226434327Y-82959763D01*
X226336902Y-82709238D01*
X226203518Y-82475864D01*
X226037105Y-82264769D01*
X225841317Y-82080591D01*
X225620457Y-81927374D01*
X225616264Y-81925306D01*
X225383564Y-81810551D01*
X225383561Y-81810550D01*
X225379376Y-81808486D01*
X225331745Y-81793239D01*
X225277621Y-81775914D01*
X225123370Y-81726538D01*
X225118763Y-81725788D01*
X225118760Y-81725787D01*
X224862674Y-81684081D01*
X224862675Y-81684081D01*
X224858063Y-81683330D01*
X224727719Y-81681624D01*
X224593961Y-81679873D01*
X224593958Y-81679873D01*
X224589284Y-81679812D01*
X224322937Y-81716060D01*
X224064874Y-81791278D01*
X223820763Y-81903815D01*
X223816854Y-81906378D01*
X223599881Y-82048631D01*
X223599876Y-82048635D01*
X223595968Y-82051197D01*
X223395426Y-82230188D01*
X223223544Y-82436854D01*
X223084096Y-82666656D01*
X222980148Y-82914545D01*
X222913981Y-83175077D01*
X222887050Y-83442526D01*
X221430043Y-83442526D01*
X221413650Y-83221937D01*
X221354327Y-82959763D01*
X221256902Y-82709238D01*
X221123518Y-82475864D01*
X220957105Y-82264769D01*
X220761317Y-82080591D01*
X220540457Y-81927374D01*
X220536264Y-81925306D01*
X220303564Y-81810551D01*
X220303561Y-81810550D01*
X220299376Y-81808486D01*
X220251745Y-81793239D01*
X220197621Y-81775914D01*
X220043370Y-81726538D01*
X220038763Y-81725788D01*
X220038760Y-81725787D01*
X219782674Y-81684081D01*
X219782675Y-81684081D01*
X219778063Y-81683330D01*
X219647719Y-81681624D01*
X219513961Y-81679873D01*
X219513958Y-81679873D01*
X219509284Y-81679812D01*
X219242937Y-81716060D01*
X218984874Y-81791278D01*
X218740763Y-81903815D01*
X218736854Y-81906378D01*
X218519881Y-82048631D01*
X218519876Y-82048635D01*
X218515968Y-82051197D01*
X218315426Y-82230188D01*
X218143544Y-82436854D01*
X218004096Y-82666656D01*
X217900148Y-82914545D01*
X217833981Y-83175077D01*
X217807050Y-83442526D01*
X206000000Y-83442526D01*
X206000000Y-78362526D01*
X217807050Y-78362526D01*
X217819947Y-78631019D01*
X217872388Y-78894656D01*
X217963220Y-79147646D01*
X218090450Y-79384431D01*
X218093241Y-79388168D01*
X218093245Y-79388175D01*
X218174887Y-79497506D01*
X218251281Y-79599810D01*
X218254590Y-79603090D01*
X218254595Y-79603096D01*
X218438863Y-79785762D01*
X218442180Y-79789050D01*
X218445942Y-79791808D01*
X218445945Y-79791811D01*
X218558299Y-79874192D01*
X218658954Y-79947995D01*
X218663089Y-79950171D01*
X218663093Y-79950173D01*
X218892698Y-80070975D01*
X218896840Y-80073154D01*
X219150613Y-80161775D01*
X219155206Y-80162647D01*
X219410109Y-80211042D01*
X219410112Y-80211042D01*
X219414698Y-80211913D01*
X219542370Y-80216929D01*
X219678625Y-80222283D01*
X219678630Y-80222283D01*
X219683293Y-80222466D01*
X219787607Y-80211042D01*
X219945844Y-80193713D01*
X219945850Y-80193712D01*
X219950497Y-80193203D01*
X219955021Y-80192012D01*
X220205918Y-80125956D01*
X220205920Y-80125955D01*
X220210441Y-80124765D01*
X220214738Y-80122919D01*
X220453120Y-80020502D01*
X220453122Y-80020501D01*
X220457414Y-80018657D01*
X220576071Y-79945230D01*
X220682017Y-79879669D01*
X220682021Y-79879666D01*
X220685990Y-79877210D01*
X220891149Y-79703530D01*
X221068382Y-79501434D01*
X221213797Y-79275361D01*
X221324199Y-79030278D01*
X221361209Y-78899051D01*
X221395893Y-78776072D01*
X221395894Y-78776069D01*
X221397163Y-78771568D01*
X221415043Y-78631019D01*
X221430688Y-78508045D01*
X221430688Y-78508041D01*
X221431086Y-78504915D01*
X221433571Y-78410000D01*
X221430043Y-78362526D01*
X222887050Y-78362526D01*
X222899947Y-78631019D01*
X222952388Y-78894656D01*
X223043220Y-79147646D01*
X223170450Y-79384431D01*
X223173241Y-79388168D01*
X223173245Y-79388175D01*
X223254887Y-79497506D01*
X223331281Y-79599810D01*
X223334590Y-79603090D01*
X223334595Y-79603096D01*
X223518863Y-79785762D01*
X223522180Y-79789050D01*
X223525942Y-79791808D01*
X223525945Y-79791811D01*
X223638299Y-79874192D01*
X223738954Y-79947995D01*
X223743089Y-79950171D01*
X223743093Y-79950173D01*
X223972698Y-80070975D01*
X223976840Y-80073154D01*
X224230613Y-80161775D01*
X224235206Y-80162647D01*
X224490109Y-80211042D01*
X224490112Y-80211042D01*
X224494698Y-80211913D01*
X224622370Y-80216929D01*
X224758625Y-80222283D01*
X224758630Y-80222283D01*
X224763293Y-80222466D01*
X224867607Y-80211042D01*
X225025844Y-80193713D01*
X225025850Y-80193712D01*
X225030497Y-80193203D01*
X225035021Y-80192012D01*
X225285918Y-80125956D01*
X225285920Y-80125955D01*
X225290441Y-80124765D01*
X225294738Y-80122919D01*
X225533120Y-80020502D01*
X225533122Y-80020501D01*
X225537414Y-80018657D01*
X225656071Y-79945230D01*
X225762017Y-79879669D01*
X225762021Y-79879666D01*
X225765990Y-79877210D01*
X225971149Y-79703530D01*
X226148382Y-79501434D01*
X226293797Y-79275361D01*
X226404199Y-79030278D01*
X226441209Y-78899051D01*
X226475893Y-78776072D01*
X226475894Y-78776069D01*
X226477163Y-78771568D01*
X226495043Y-78631019D01*
X226510688Y-78508045D01*
X226510688Y-78508041D01*
X226511086Y-78504915D01*
X226513571Y-78410000D01*
X226493650Y-78141937D01*
X226434327Y-77879763D01*
X226336902Y-77629238D01*
X226203518Y-77395864D01*
X226037105Y-77184769D01*
X225841317Y-77000591D01*
X225620457Y-76847374D01*
X225616264Y-76845306D01*
X225383564Y-76730551D01*
X225383561Y-76730550D01*
X225379376Y-76728486D01*
X225331745Y-76713239D01*
X225277621Y-76695914D01*
X225123370Y-76646538D01*
X225118763Y-76645788D01*
X225118760Y-76645787D01*
X224862674Y-76604081D01*
X224862675Y-76604081D01*
X224858063Y-76603330D01*
X224727719Y-76601624D01*
X224593961Y-76599873D01*
X224593958Y-76599873D01*
X224589284Y-76599812D01*
X224322937Y-76636060D01*
X224064874Y-76711278D01*
X223820763Y-76823815D01*
X223816854Y-76826378D01*
X223599881Y-76968631D01*
X223599876Y-76968635D01*
X223595968Y-76971197D01*
X223395426Y-77150188D01*
X223223544Y-77356854D01*
X223221121Y-77360847D01*
X223144788Y-77486640D01*
X223084096Y-77586656D01*
X222980148Y-77834545D01*
X222913981Y-78095077D01*
X222887050Y-78362526D01*
X221430043Y-78362526D01*
X221413650Y-78141937D01*
X221354327Y-77879763D01*
X221256902Y-77629238D01*
X221123518Y-77395864D01*
X220957105Y-77184769D01*
X220761317Y-77000591D01*
X220540457Y-76847374D01*
X220536264Y-76845306D01*
X220303564Y-76730551D01*
X220303561Y-76730550D01*
X220299376Y-76728486D01*
X220251745Y-76713239D01*
X220197621Y-76695914D01*
X220043370Y-76646538D01*
X220038763Y-76645788D01*
X220038760Y-76645787D01*
X219782674Y-76604081D01*
X219782675Y-76604081D01*
X219778063Y-76603330D01*
X219647719Y-76601624D01*
X219513961Y-76599873D01*
X219513958Y-76599873D01*
X219509284Y-76599812D01*
X219242937Y-76636060D01*
X218984874Y-76711278D01*
X218740763Y-76823815D01*
X218736854Y-76826378D01*
X218519881Y-76968631D01*
X218519876Y-76968635D01*
X218515968Y-76971197D01*
X218315426Y-77150188D01*
X218143544Y-77356854D01*
X218141121Y-77360847D01*
X218064788Y-77486640D01*
X218004096Y-77586656D01*
X217900148Y-77834545D01*
X217833981Y-78095077D01*
X217807050Y-78362526D01*
X206000000Y-78362526D01*
X206000000Y-73282526D01*
X217807050Y-73282526D01*
X217819947Y-73551019D01*
X217872388Y-73814656D01*
X217963220Y-74067646D01*
X218090450Y-74304431D01*
X218093241Y-74308168D01*
X218093245Y-74308175D01*
X218162435Y-74400831D01*
X218251281Y-74519810D01*
X218254590Y-74523090D01*
X218254595Y-74523096D01*
X218438863Y-74705762D01*
X218442180Y-74709050D01*
X218445942Y-74711808D01*
X218445945Y-74711811D01*
X218558299Y-74794192D01*
X218658954Y-74867995D01*
X218663089Y-74870171D01*
X218663093Y-74870173D01*
X218821499Y-74953515D01*
X218896840Y-74993154D01*
X219150613Y-75081775D01*
X219155206Y-75082647D01*
X219410109Y-75131042D01*
X219410112Y-75131042D01*
X219414698Y-75131913D01*
X219542370Y-75136929D01*
X219678625Y-75142283D01*
X219678630Y-75142283D01*
X219683293Y-75142466D01*
X219787607Y-75131042D01*
X219945844Y-75113713D01*
X219945850Y-75113712D01*
X219950497Y-75113203D01*
X219955021Y-75112012D01*
X220205918Y-75045956D01*
X220205920Y-75045955D01*
X220210441Y-75044765D01*
X220214738Y-75042919D01*
X220453120Y-74940502D01*
X220453122Y-74940501D01*
X220457414Y-74938657D01*
X220576071Y-74865230D01*
X220682017Y-74799669D01*
X220682021Y-74799666D01*
X220685990Y-74797210D01*
X220891149Y-74623530D01*
X221068382Y-74421434D01*
X221081635Y-74400831D01*
X221211269Y-74199291D01*
X221213797Y-74195361D01*
X221324199Y-73950278D01*
X221330238Y-73928866D01*
X221395893Y-73696072D01*
X221395894Y-73696069D01*
X221397163Y-73691568D01*
X221415043Y-73551019D01*
X221430688Y-73428045D01*
X221430688Y-73428041D01*
X221431086Y-73424915D01*
X221433571Y-73330000D01*
X221430043Y-73282526D01*
X222887050Y-73282526D01*
X222899947Y-73551019D01*
X222952388Y-73814656D01*
X223043220Y-74067646D01*
X223170450Y-74304431D01*
X223173241Y-74308168D01*
X223173245Y-74308175D01*
X223242435Y-74400831D01*
X223331281Y-74519810D01*
X223334590Y-74523090D01*
X223334595Y-74523096D01*
X223518863Y-74705762D01*
X223522180Y-74709050D01*
X223525942Y-74711808D01*
X223525945Y-74711811D01*
X223638299Y-74794192D01*
X223738954Y-74867995D01*
X223743089Y-74870171D01*
X223743093Y-74870173D01*
X223901499Y-74953515D01*
X223976840Y-74993154D01*
X224230613Y-75081775D01*
X224235206Y-75082647D01*
X224490109Y-75131042D01*
X224490112Y-75131042D01*
X224494698Y-75131913D01*
X224622370Y-75136929D01*
X224758625Y-75142283D01*
X224758630Y-75142283D01*
X224763293Y-75142466D01*
X224867607Y-75131042D01*
X225025844Y-75113713D01*
X225025850Y-75113712D01*
X225030497Y-75113203D01*
X225035021Y-75112012D01*
X225285918Y-75045956D01*
X225285920Y-75045955D01*
X225290441Y-75044765D01*
X225294738Y-75042919D01*
X225533120Y-74940502D01*
X225533122Y-74940501D01*
X225537414Y-74938657D01*
X225656071Y-74865230D01*
X225762017Y-74799669D01*
X225762021Y-74799666D01*
X225765990Y-74797210D01*
X225971149Y-74623530D01*
X226148382Y-74421434D01*
X226161635Y-74400831D01*
X226291269Y-74199291D01*
X226293797Y-74195361D01*
X226404199Y-73950278D01*
X226410238Y-73928866D01*
X226475893Y-73696072D01*
X226475894Y-73696069D01*
X226477163Y-73691568D01*
X226495043Y-73551019D01*
X226510688Y-73428045D01*
X226510688Y-73428041D01*
X226511086Y-73424915D01*
X226513571Y-73330000D01*
X226502681Y-73183462D01*
X226493996Y-73066592D01*
X226493996Y-73066591D01*
X226493650Y-73061937D01*
X226492619Y-73057379D01*
X226435361Y-72804331D01*
X226435360Y-72804326D01*
X226434327Y-72799763D01*
X226336902Y-72549238D01*
X226203518Y-72315864D01*
X226037105Y-72104769D01*
X225841317Y-71920591D01*
X225684751Y-71811976D01*
X225624299Y-71770039D01*
X225624296Y-71770037D01*
X225620457Y-71767374D01*
X225596570Y-71755594D01*
X225383564Y-71650551D01*
X225383561Y-71650550D01*
X225379376Y-71648486D01*
X225331745Y-71633239D01*
X225277621Y-71615914D01*
X225123370Y-71566538D01*
X225118763Y-71565788D01*
X225118760Y-71565787D01*
X224862674Y-71524081D01*
X224862675Y-71524081D01*
X224858063Y-71523330D01*
X224727719Y-71521624D01*
X224593961Y-71519873D01*
X224593958Y-71519873D01*
X224589284Y-71519812D01*
X224322937Y-71556060D01*
X224064874Y-71631278D01*
X223820763Y-71743815D01*
X223816854Y-71746378D01*
X223599881Y-71888631D01*
X223599876Y-71888635D01*
X223595968Y-71891197D01*
X223395426Y-72070188D01*
X223223544Y-72276854D01*
X223084096Y-72506656D01*
X223082287Y-72510970D01*
X223082285Y-72510974D01*
X223039614Y-72612734D01*
X222980148Y-72754545D01*
X222913981Y-73015077D01*
X222887050Y-73282526D01*
X221430043Y-73282526D01*
X221422681Y-73183462D01*
X221413996Y-73066592D01*
X221413996Y-73066591D01*
X221413650Y-73061937D01*
X221412619Y-73057379D01*
X221355361Y-72804331D01*
X221355360Y-72804326D01*
X221354327Y-72799763D01*
X221256902Y-72549238D01*
X221123518Y-72315864D01*
X220957105Y-72104769D01*
X220761317Y-71920591D01*
X220604751Y-71811976D01*
X220544299Y-71770039D01*
X220544296Y-71770037D01*
X220540457Y-71767374D01*
X220516570Y-71755594D01*
X220303564Y-71650551D01*
X220303561Y-71650550D01*
X220299376Y-71648486D01*
X220251745Y-71633239D01*
X220197621Y-71615914D01*
X220043370Y-71566538D01*
X220038763Y-71565788D01*
X220038760Y-71565787D01*
X219782674Y-71524081D01*
X219782675Y-71524081D01*
X219778063Y-71523330D01*
X219647719Y-71521624D01*
X219513961Y-71519873D01*
X219513958Y-71519873D01*
X219509284Y-71519812D01*
X219242937Y-71556060D01*
X218984874Y-71631278D01*
X218740763Y-71743815D01*
X218736854Y-71746378D01*
X218519881Y-71888631D01*
X218519876Y-71888635D01*
X218515968Y-71891197D01*
X218315426Y-72070188D01*
X218143544Y-72276854D01*
X218004096Y-72506656D01*
X218002287Y-72510970D01*
X218002285Y-72510974D01*
X217959614Y-72612734D01*
X217900148Y-72754545D01*
X217833981Y-73015077D01*
X217807050Y-73282526D01*
X206000000Y-73282526D01*
X206000000Y-68202526D01*
X217807050Y-68202526D01*
X217819947Y-68471019D01*
X217872388Y-68734656D01*
X217963220Y-68987646D01*
X218090450Y-69224431D01*
X218093241Y-69228168D01*
X218093245Y-69228175D01*
X218174887Y-69337506D01*
X218251281Y-69439810D01*
X218254590Y-69443090D01*
X218254595Y-69443096D01*
X218438863Y-69625762D01*
X218442180Y-69629050D01*
X218445942Y-69631808D01*
X218445945Y-69631811D01*
X218558299Y-69714192D01*
X218658954Y-69787995D01*
X218663089Y-69790171D01*
X218663093Y-69790173D01*
X218892698Y-69910975D01*
X218896840Y-69913154D01*
X219150613Y-70001775D01*
X219155206Y-70002647D01*
X219410109Y-70051042D01*
X219410112Y-70051042D01*
X219414698Y-70051913D01*
X219542370Y-70056929D01*
X219678625Y-70062283D01*
X219678630Y-70062283D01*
X219683293Y-70062466D01*
X219787607Y-70051042D01*
X219945844Y-70033713D01*
X219945850Y-70033712D01*
X219950497Y-70033203D01*
X219955021Y-70032012D01*
X220205918Y-69965956D01*
X220205920Y-69965955D01*
X220210441Y-69964765D01*
X220214738Y-69962919D01*
X220453120Y-69860502D01*
X220453122Y-69860501D01*
X220457414Y-69858657D01*
X220576071Y-69785230D01*
X220682017Y-69719669D01*
X220682021Y-69719666D01*
X220685990Y-69717210D01*
X220891149Y-69543530D01*
X221068382Y-69341434D01*
X221213797Y-69115361D01*
X221324199Y-68870278D01*
X221361209Y-68739051D01*
X221395893Y-68616072D01*
X221395894Y-68616069D01*
X221397163Y-68611568D01*
X221415043Y-68471019D01*
X221430688Y-68348045D01*
X221430688Y-68348041D01*
X221431086Y-68344915D01*
X221433571Y-68250000D01*
X221430043Y-68202526D01*
X222887050Y-68202526D01*
X222899947Y-68471019D01*
X222952388Y-68734656D01*
X223043220Y-68987646D01*
X223170450Y-69224431D01*
X223173241Y-69228168D01*
X223173245Y-69228175D01*
X223254887Y-69337506D01*
X223331281Y-69439810D01*
X223334590Y-69443090D01*
X223334595Y-69443096D01*
X223518863Y-69625762D01*
X223522180Y-69629050D01*
X223525942Y-69631808D01*
X223525945Y-69631811D01*
X223638299Y-69714192D01*
X223738954Y-69787995D01*
X223743089Y-69790171D01*
X223743093Y-69790173D01*
X223972698Y-69910975D01*
X223976840Y-69913154D01*
X224230613Y-70001775D01*
X224235206Y-70002647D01*
X224490109Y-70051042D01*
X224490112Y-70051042D01*
X224494698Y-70051913D01*
X224622370Y-70056929D01*
X224758625Y-70062283D01*
X224758630Y-70062283D01*
X224763293Y-70062466D01*
X224867607Y-70051042D01*
X225025844Y-70033713D01*
X225025850Y-70033712D01*
X225030497Y-70033203D01*
X225035021Y-70032012D01*
X225285918Y-69965956D01*
X225285920Y-69965955D01*
X225290441Y-69964765D01*
X225294738Y-69962919D01*
X225533120Y-69860502D01*
X225533122Y-69860501D01*
X225537414Y-69858657D01*
X225656071Y-69785230D01*
X225762017Y-69719669D01*
X225762021Y-69719666D01*
X225765990Y-69717210D01*
X225971149Y-69543530D01*
X226148382Y-69341434D01*
X226293797Y-69115361D01*
X226404199Y-68870278D01*
X226441209Y-68739051D01*
X226475893Y-68616072D01*
X226475894Y-68616069D01*
X226477163Y-68611568D01*
X226495043Y-68471019D01*
X226510688Y-68348045D01*
X226510688Y-68348041D01*
X226511086Y-68344915D01*
X226513571Y-68250000D01*
X226493650Y-67981937D01*
X226434327Y-67719763D01*
X226336902Y-67469238D01*
X226203518Y-67235864D01*
X226037105Y-67024769D01*
X225841317Y-66840591D01*
X225620457Y-66687374D01*
X225616264Y-66685306D01*
X225383564Y-66570551D01*
X225383561Y-66570550D01*
X225379376Y-66568486D01*
X225331745Y-66553239D01*
X225219805Y-66517407D01*
X225123370Y-66486538D01*
X225118763Y-66485788D01*
X225118760Y-66485787D01*
X224862674Y-66444081D01*
X224862675Y-66444081D01*
X224858063Y-66443330D01*
X224727719Y-66441624D01*
X224593961Y-66439873D01*
X224593958Y-66439873D01*
X224589284Y-66439812D01*
X224322937Y-66476060D01*
X224064874Y-66551278D01*
X223820763Y-66663815D01*
X223816854Y-66666378D01*
X223599881Y-66808631D01*
X223599876Y-66808635D01*
X223595968Y-66811197D01*
X223395426Y-66990188D01*
X223223544Y-67196854D01*
X223084096Y-67426656D01*
X222980148Y-67674545D01*
X222913981Y-67935077D01*
X222887050Y-68202526D01*
X221430043Y-68202526D01*
X221413650Y-67981937D01*
X221354327Y-67719763D01*
X221256902Y-67469238D01*
X221123518Y-67235864D01*
X220957105Y-67024769D01*
X220761317Y-66840591D01*
X220540457Y-66687374D01*
X220536264Y-66685306D01*
X220303564Y-66570551D01*
X220303561Y-66570550D01*
X220299376Y-66568486D01*
X220251745Y-66553239D01*
X220139805Y-66517407D01*
X220043370Y-66486538D01*
X220038763Y-66485788D01*
X220038760Y-66485787D01*
X219782674Y-66444081D01*
X219782675Y-66444081D01*
X219778063Y-66443330D01*
X219647719Y-66441624D01*
X219513961Y-66439873D01*
X219513958Y-66439873D01*
X219509284Y-66439812D01*
X219242937Y-66476060D01*
X218984874Y-66551278D01*
X218740763Y-66663815D01*
X218736854Y-66666378D01*
X218519881Y-66808631D01*
X218519876Y-66808635D01*
X218515968Y-66811197D01*
X218315426Y-66990188D01*
X218143544Y-67196854D01*
X218004096Y-67426656D01*
X217900148Y-67674545D01*
X217833981Y-67935077D01*
X217807050Y-68202526D01*
X206000000Y-68202526D01*
X206000000Y-67000000D01*
X175126000Y-67000000D01*
X175057879Y-66979998D01*
X175011386Y-66926342D01*
X175000000Y-66874000D01*
X175000000Y-65594669D01*
X176442001Y-65594669D01*
X176442371Y-65601490D01*
X176447895Y-65652352D01*
X176451521Y-65667604D01*
X176496676Y-65788054D01*
X176505214Y-65803649D01*
X176581715Y-65905724D01*
X176594276Y-65918285D01*
X176696351Y-65994786D01*
X176711946Y-66003324D01*
X176832394Y-66048478D01*
X176847649Y-66052105D01*
X176898514Y-66057631D01*
X176905328Y-66058000D01*
X178677885Y-66058000D01*
X178693124Y-66053525D01*
X178694329Y-66052135D01*
X178696000Y-66044452D01*
X178696000Y-66039884D01*
X179204000Y-66039884D01*
X179208475Y-66055123D01*
X179209865Y-66056328D01*
X179217548Y-66057999D01*
X180994669Y-66057999D01*
X181001490Y-66057629D01*
X181052352Y-66052105D01*
X181067604Y-66048479D01*
X181188054Y-66003324D01*
X181203649Y-65994786D01*
X181305724Y-65918285D01*
X181318285Y-65905724D01*
X181394786Y-65803649D01*
X181403324Y-65788054D01*
X181448478Y-65667606D01*
X181452105Y-65652351D01*
X181457631Y-65601486D01*
X181458000Y-65594672D01*
X181458000Y-64614906D01*
X218539839Y-64614906D01*
X218548553Y-64626427D01*
X218655452Y-64704809D01*
X218663351Y-64709745D01*
X218892905Y-64830519D01*
X218901454Y-64834236D01*
X219146327Y-64919749D01*
X219155336Y-64922163D01*
X219410166Y-64970544D01*
X219419423Y-64971598D01*
X219678607Y-64981783D01*
X219687921Y-64981457D01*
X219945753Y-64953220D01*
X219954930Y-64951519D01*
X220205758Y-64885481D01*
X220214574Y-64882445D01*
X220452880Y-64780062D01*
X220461167Y-64775748D01*
X220681718Y-64639266D01*
X220689268Y-64633780D01*
X220694559Y-64629301D01*
X220702997Y-64616497D01*
X220696935Y-64606145D01*
X220357885Y-64267095D01*
X222892001Y-64267095D01*
X222892338Y-64273614D01*
X222902257Y-64369206D01*
X222905149Y-64382600D01*
X222956588Y-64536784D01*
X222962761Y-64549962D01*
X223048063Y-64687807D01*
X223057099Y-64699208D01*
X223171829Y-64813739D01*
X223183240Y-64822751D01*
X223321243Y-64907816D01*
X223334424Y-64913963D01*
X223488710Y-64965138D01*
X223502086Y-64968005D01*
X223596438Y-64977672D01*
X223602854Y-64978000D01*
X224427885Y-64978000D01*
X224443124Y-64973525D01*
X224444329Y-64972135D01*
X224446000Y-64964452D01*
X224446000Y-63442115D01*
X224441525Y-63426876D01*
X224440135Y-63425671D01*
X224432452Y-63424000D01*
X222910116Y-63424000D01*
X222894877Y-63428475D01*
X222893672Y-63429865D01*
X222892001Y-63437548D01*
X222892001Y-64267095D01*
X220357885Y-64267095D01*
X219632812Y-63542022D01*
X219618868Y-63534408D01*
X219617035Y-63534539D01*
X219610420Y-63538790D01*
X218546497Y-64602713D01*
X218539839Y-64614906D01*
X181458000Y-64614906D01*
X181458000Y-63822115D01*
X181453525Y-63806876D01*
X181452135Y-63805671D01*
X181444452Y-63804000D01*
X179222115Y-63804000D01*
X179206876Y-63808475D01*
X179205671Y-63809865D01*
X179204000Y-63817548D01*
X179204000Y-66039884D01*
X178696000Y-66039884D01*
X178696000Y-63822115D01*
X178691525Y-63806876D01*
X178690135Y-63805671D01*
X178682452Y-63804000D01*
X176460116Y-63804000D01*
X176444877Y-63808475D01*
X176443672Y-63809865D01*
X176442001Y-63817548D01*
X176442001Y-65594669D01*
X175000000Y-65594669D01*
X175000000Y-63277885D01*
X176442000Y-63277885D01*
X176446475Y-63293124D01*
X176447865Y-63294329D01*
X176455548Y-63296000D01*
X178677885Y-63296000D01*
X178693124Y-63291525D01*
X178694329Y-63290135D01*
X178696000Y-63282452D01*
X178696000Y-63277885D01*
X179204000Y-63277885D01*
X179208475Y-63293124D01*
X179209865Y-63294329D01*
X179217548Y-63296000D01*
X181439884Y-63296000D01*
X181455123Y-63291525D01*
X181456328Y-63290135D01*
X181457999Y-63282452D01*
X181457999Y-63127211D01*
X217807775Y-63127211D01*
X217820220Y-63386288D01*
X217821356Y-63395543D01*
X217871961Y-63649945D01*
X217874449Y-63658917D01*
X217962095Y-63903033D01*
X217965895Y-63911568D01*
X218088658Y-64140042D01*
X218093666Y-64147904D01*
X218163720Y-64241716D01*
X218174979Y-64250165D01*
X218187397Y-64243393D01*
X219247978Y-63182812D01*
X219254356Y-63171132D01*
X219984408Y-63171132D01*
X219984539Y-63172965D01*
X219988790Y-63179580D01*
X221056094Y-64246884D01*
X221068474Y-64253644D01*
X221076815Y-64247400D01*
X221210832Y-64039048D01*
X221215275Y-64030864D01*
X221321807Y-63794370D01*
X221324997Y-63785605D01*
X221395402Y-63535972D01*
X221397262Y-63526830D01*
X221430187Y-63268019D01*
X221430668Y-63261733D01*
X221432987Y-63173160D01*
X221432836Y-63166851D01*
X221413501Y-62906663D01*
X221412125Y-62897457D01*
X221354878Y-62644467D01*
X221352154Y-62635556D01*
X221258143Y-62393806D01*
X221254132Y-62385397D01*
X221125422Y-62160202D01*
X221120211Y-62152476D01*
X221076996Y-62097658D01*
X221065071Y-62089187D01*
X221053537Y-62095673D01*
X219992022Y-63157188D01*
X219984408Y-63171132D01*
X219254356Y-63171132D01*
X219255592Y-63168868D01*
X219255461Y-63167035D01*
X219251210Y-63160420D01*
X218185816Y-62095026D01*
X218172507Y-62087758D01*
X218162472Y-62094878D01*
X218146937Y-62113556D01*
X218141531Y-62121135D01*
X218006965Y-62342891D01*
X218002736Y-62351192D01*
X217902432Y-62590389D01*
X217899471Y-62599239D01*
X217835628Y-62850625D01*
X217834006Y-62859822D01*
X217808020Y-63117885D01*
X217807775Y-63127211D01*
X181457999Y-63127211D01*
X181457999Y-61722689D01*
X218537102Y-61722689D01*
X218541675Y-61732465D01*
X219607188Y-62797978D01*
X219621132Y-62805592D01*
X219622965Y-62805461D01*
X219629580Y-62801210D01*
X220694349Y-61736441D01*
X220700733Y-61724751D01*
X220691321Y-61712641D01*
X220544045Y-61610471D01*
X220536010Y-61605738D01*
X220303376Y-61491016D01*
X220294743Y-61487528D01*
X220047703Y-61408450D01*
X220038643Y-61406274D01*
X219782630Y-61364580D01*
X219773343Y-61363768D01*
X219513992Y-61360373D01*
X219504681Y-61360943D01*
X219247682Y-61395919D01*
X219238546Y-61397860D01*
X218989543Y-61470439D01*
X218980800Y-61473707D01*
X218745252Y-61582296D01*
X218737097Y-61586816D01*
X218546240Y-61711947D01*
X218537102Y-61722689D01*
X181457999Y-61722689D01*
X181457999Y-61505331D01*
X181457629Y-61498510D01*
X181452105Y-61447648D01*
X181448479Y-61432396D01*
X181403324Y-61311946D01*
X181394786Y-61296351D01*
X181318285Y-61194276D01*
X181305724Y-61181715D01*
X181203649Y-61105214D01*
X181188054Y-61096676D01*
X181067606Y-61051522D01*
X181052351Y-61047895D01*
X181001486Y-61042369D01*
X180994672Y-61042000D01*
X179222115Y-61042000D01*
X179206876Y-61046475D01*
X179205671Y-61047865D01*
X179204000Y-61055548D01*
X179204000Y-63277885D01*
X178696000Y-63277885D01*
X178696000Y-61060116D01*
X178691525Y-61044877D01*
X178690135Y-61043672D01*
X178682452Y-61042001D01*
X176905331Y-61042001D01*
X176898510Y-61042371D01*
X176847648Y-61047895D01*
X176832396Y-61051521D01*
X176711946Y-61096676D01*
X176696351Y-61105214D01*
X176594276Y-61181715D01*
X176581715Y-61194276D01*
X176505214Y-61296351D01*
X176496676Y-61311946D01*
X176451522Y-61432394D01*
X176447895Y-61447649D01*
X176442369Y-61498514D01*
X176442000Y-61505328D01*
X176442000Y-63277885D01*
X175000000Y-63277885D01*
X175000000Y-54126000D01*
X175020002Y-54057879D01*
X175073658Y-54011386D01*
X175126000Y-54000000D01*
X216947810Y-54000000D01*
X217015931Y-54020002D01*
G37*
G04 #@! TD.AperFunction*
G04 #@! TD*
G04 #@! TA.AperFunction,Conductor*
G04 #@! TO.N,GND*
G36*
X229642121Y-50320002D02*
G01*
X229688614Y-50373658D01*
X229700000Y-50426000D01*
X229700000Y-65677390D01*
X229679998Y-65745511D01*
X229626342Y-65792004D01*
X229556068Y-65802108D01*
X229491488Y-65772614D01*
X229484905Y-65766485D01*
X227082305Y-63363885D01*
X227069256Y-63351293D01*
X227062673Y-63345164D01*
X227049188Y-63333051D01*
X226927551Y-63254876D01*
X226862971Y-63225382D01*
X226858659Y-63224116D01*
X226858654Y-63224114D01*
X226732871Y-63187181D01*
X226732870Y-63187181D01*
X226724227Y-63184643D01*
X226579635Y-63184643D01*
X226544811Y-63189650D01*
X226513817Y-63194106D01*
X226513813Y-63194107D01*
X226509361Y-63194747D01*
X226505049Y-63196013D01*
X226505045Y-63196014D01*
X226476559Y-63204379D01*
X226461998Y-63208654D01*
X226391002Y-63208654D01*
X226331276Y-63170271D01*
X226301783Y-63105690D01*
X226300500Y-63087758D01*
X226300500Y-62077228D01*
X226289636Y-61987453D01*
X226234113Y-61847217D01*
X226142922Y-61727078D01*
X226022783Y-61635887D01*
X225959168Y-61610700D01*
X225890077Y-61583345D01*
X225890075Y-61583344D01*
X225882547Y-61580364D01*
X225792772Y-61569500D01*
X224783843Y-61569500D01*
X224715722Y-61549498D01*
X224669229Y-61495842D01*
X224659125Y-61425568D01*
X224660723Y-61416716D01*
X224681616Y-61320675D01*
X224681616Y-61320672D01*
X224682573Y-61316275D01*
X224687638Y-61245460D01*
X224677321Y-61101228D01*
X224626790Y-60965754D01*
X224592764Y-60903442D01*
X224586654Y-60895281D01*
X224508813Y-60791298D01*
X224508809Y-60791294D01*
X224506116Y-60787696D01*
X219177849Y-55459429D01*
X225511794Y-55459429D01*
X225517979Y-55721881D01*
X225518813Y-55726586D01*
X225550527Y-55905532D01*
X225563791Y-55980377D01*
X225648177Y-56228970D01*
X225650380Y-56233211D01*
X225732678Y-56391641D01*
X225769194Y-56461938D01*
X225924058Y-56673921D01*
X226109205Y-56860039D01*
X226320373Y-57016011D01*
X226453327Y-57085961D01*
X226548477Y-57136022D01*
X226548482Y-57136024D01*
X226552705Y-57138246D01*
X226800852Y-57223932D01*
X226805558Y-57224791D01*
X226805560Y-57224792D01*
X226865794Y-57235793D01*
X227059105Y-57271098D01*
X227143103Y-57275500D01*
X227306757Y-57275500D01*
X227309136Y-57275319D01*
X227309137Y-57275319D01*
X227497002Y-57261029D01*
X227497007Y-57261028D01*
X227501769Y-57260666D01*
X227506422Y-57259587D01*
X227506425Y-57259587D01*
X227752849Y-57202468D01*
X227752848Y-57202468D01*
X227757513Y-57201387D01*
X228001349Y-57104107D01*
X228147417Y-57018238D01*
X228223533Y-56973492D01*
X228223538Y-56973489D01*
X228227664Y-56971063D01*
X228431251Y-56805317D01*
X228607425Y-56610683D01*
X228752131Y-56391641D01*
X228862040Y-56153231D01*
X228934621Y-55900939D01*
X228958335Y-55717101D01*
X228967595Y-55645308D01*
X228968206Y-55640571D01*
X228962021Y-55378119D01*
X228931128Y-55203802D01*
X228917043Y-55124327D01*
X228917042Y-55124323D01*
X228916209Y-55119623D01*
X228831823Y-54871030D01*
X228749579Y-54712703D01*
X228713015Y-54642314D01*
X228713013Y-54642311D01*
X228710806Y-54638062D01*
X228555942Y-54426079D01*
X228370795Y-54239961D01*
X228159627Y-54083989D01*
X227992183Y-53995893D01*
X227931523Y-53963978D01*
X227931518Y-53963976D01*
X227927295Y-53961754D01*
X227679148Y-53876068D01*
X227674442Y-53875209D01*
X227674440Y-53875208D01*
X227614206Y-53864207D01*
X227420895Y-53828902D01*
X227336897Y-53824500D01*
X227173243Y-53824500D01*
X227170864Y-53824681D01*
X227170863Y-53824681D01*
X226982998Y-53838971D01*
X226982993Y-53838972D01*
X226978231Y-53839334D01*
X226973578Y-53840413D01*
X226973575Y-53840413D01*
X226813013Y-53877630D01*
X226722487Y-53898613D01*
X226478651Y-53995893D01*
X226474520Y-53998321D01*
X226474521Y-53998321D01*
X226256467Y-54126508D01*
X226256462Y-54126511D01*
X226252336Y-54128937D01*
X226048749Y-54294683D01*
X225872575Y-54489317D01*
X225727869Y-54708359D01*
X225617960Y-54946769D01*
X225545379Y-55199061D01*
X225544768Y-55203796D01*
X225544767Y-55203802D01*
X225512405Y-55454692D01*
X225511794Y-55459429D01*
X219177849Y-55459429D01*
X217396115Y-53677695D01*
X217355672Y-53641365D01*
X217334698Y-53624462D01*
X217333324Y-53623471D01*
X217333308Y-53623459D01*
X217313108Y-53608893D01*
X217290576Y-53592645D01*
X217284950Y-53590075D01*
X217284947Y-53590074D01*
X217204981Y-53553555D01*
X217159050Y-53532579D01*
X217135296Y-53525604D01*
X217095252Y-53513846D01*
X217095248Y-53513845D01*
X217090929Y-53512577D01*
X217086481Y-53511937D01*
X217086474Y-53511936D01*
X216952258Y-53492639D01*
X216952251Y-53492638D01*
X216947810Y-53492000D01*
X175126000Y-53492000D01*
X175018020Y-53503609D01*
X175014736Y-53504323D01*
X175014732Y-53504324D01*
X174989661Y-53509778D01*
X174965678Y-53514995D01*
X174862628Y-53549293D01*
X174740990Y-53627465D01*
X174687334Y-53673958D01*
X174592645Y-53783234D01*
X174532579Y-53914760D01*
X174512577Y-53982881D01*
X174511937Y-53987329D01*
X174511936Y-53987336D01*
X174492639Y-54121552D01*
X174492638Y-54121559D01*
X174492000Y-54126000D01*
X174492000Y-66874000D01*
X174503609Y-66981980D01*
X174514995Y-67034322D01*
X174549293Y-67137372D01*
X174627465Y-67259010D01*
X174673958Y-67312666D01*
X174783234Y-67407355D01*
X174914760Y-67467421D01*
X174938514Y-67474396D01*
X174978558Y-67486154D01*
X174978562Y-67486155D01*
X174982881Y-67487423D01*
X174987329Y-67488063D01*
X174987336Y-67488064D01*
X175121552Y-67507361D01*
X175121559Y-67507362D01*
X175126000Y-67508000D01*
X190366000Y-67508000D01*
X190434121Y-67528002D01*
X190480614Y-67581658D01*
X190492000Y-67634000D01*
X190492000Y-145874000D01*
X190503609Y-145981980D01*
X190514995Y-146034322D01*
X190549293Y-146137372D01*
X190627465Y-146259010D01*
X190673958Y-146312666D01*
X190677352Y-146315607D01*
X190700786Y-146335913D01*
X190783234Y-146407355D01*
X190914760Y-146467421D01*
X190938514Y-146474396D01*
X190978558Y-146486154D01*
X190978562Y-146486155D01*
X190982881Y-146487423D01*
X190987329Y-146488063D01*
X190987336Y-146488064D01*
X191121552Y-146507361D01*
X191121559Y-146507362D01*
X191126000Y-146508000D01*
X216874000Y-146508000D01*
X216981980Y-146496391D01*
X216985264Y-146495677D01*
X216985268Y-146495676D01*
X217010339Y-146490222D01*
X217034322Y-146485005D01*
X217137372Y-146450707D01*
X217259010Y-146372535D01*
X217312666Y-146326042D01*
X217324257Y-146312666D01*
X217401453Y-146223577D01*
X217407355Y-146216766D01*
X217467421Y-146085240D01*
X217487423Y-146017119D01*
X217489643Y-146001679D01*
X217507361Y-145878448D01*
X217507362Y-145878441D01*
X217508000Y-145874000D01*
X217508000Y-144359429D01*
X225511794Y-144359429D01*
X225517979Y-144621881D01*
X225518813Y-144626586D01*
X225550527Y-144805532D01*
X225563791Y-144880377D01*
X225648177Y-145128970D01*
X225650380Y-145133211D01*
X225732678Y-145291641D01*
X225769194Y-145361938D01*
X225924058Y-145573921D01*
X226109205Y-145760039D01*
X226320373Y-145916011D01*
X226439393Y-145978630D01*
X226548477Y-146036022D01*
X226548482Y-146036024D01*
X226552705Y-146038246D01*
X226800852Y-146123932D01*
X226805558Y-146124791D01*
X226805560Y-146124792D01*
X226865794Y-146135793D01*
X227059105Y-146171098D01*
X227143103Y-146175500D01*
X227306757Y-146175500D01*
X227309136Y-146175319D01*
X227309137Y-146175319D01*
X227497002Y-146161029D01*
X227497007Y-146161028D01*
X227501769Y-146160666D01*
X227506422Y-146159587D01*
X227506425Y-146159587D01*
X227752849Y-146102468D01*
X227752848Y-146102468D01*
X227757513Y-146101387D01*
X228001349Y-146004107D01*
X228147417Y-145918238D01*
X228223533Y-145873492D01*
X228223538Y-145873489D01*
X228227664Y-145871063D01*
X228431251Y-145705317D01*
X228607425Y-145510683D01*
X228752131Y-145291641D01*
X228862040Y-145053231D01*
X228934621Y-144800939D01*
X228958335Y-144617101D01*
X228967595Y-144545308D01*
X228968206Y-144540571D01*
X228962021Y-144278119D01*
X228931128Y-144103802D01*
X228917043Y-144024327D01*
X228917042Y-144024323D01*
X228916209Y-144019623D01*
X228831823Y-143771030D01*
X228749579Y-143612703D01*
X228713015Y-143542314D01*
X228713013Y-143542311D01*
X228710806Y-143538062D01*
X228555942Y-143326079D01*
X228370795Y-143139961D01*
X228159627Y-142983989D01*
X227992183Y-142895893D01*
X227931523Y-142863978D01*
X227931518Y-142863976D01*
X227927295Y-142861754D01*
X227679148Y-142776068D01*
X227674442Y-142775209D01*
X227674440Y-142775208D01*
X227614206Y-142764207D01*
X227420895Y-142728902D01*
X227336897Y-142724500D01*
X227173243Y-142724500D01*
X227170864Y-142724681D01*
X227170863Y-142724681D01*
X226982998Y-142738971D01*
X226982993Y-142738972D01*
X226978231Y-142739334D01*
X226973578Y-142740413D01*
X226973575Y-142740413D01*
X226813013Y-142777630D01*
X226722487Y-142798613D01*
X226478651Y-142895893D01*
X226474520Y-142898321D01*
X226474521Y-142898321D01*
X226256467Y-143026508D01*
X226256462Y-143026511D01*
X226252336Y-143028937D01*
X226048749Y-143194683D01*
X225872575Y-143389317D01*
X225727869Y-143608359D01*
X225617960Y-143846769D01*
X225545379Y-144099061D01*
X225544768Y-144103796D01*
X225544767Y-144103802D01*
X225512405Y-144354692D01*
X225511794Y-144359429D01*
X217508000Y-144359429D01*
X217508000Y-139370000D01*
X218014551Y-139370000D01*
X218034317Y-139621148D01*
X218093127Y-139866111D01*
X218189534Y-140098859D01*
X218321164Y-140313659D01*
X218324376Y-140317419D01*
X218324379Y-140317424D01*
X218469256Y-140487052D01*
X218484776Y-140505224D01*
X218488538Y-140508437D01*
X218672576Y-140665621D01*
X218672581Y-140665624D01*
X218676341Y-140668836D01*
X218891141Y-140800466D01*
X218895711Y-140802359D01*
X218895715Y-140802361D01*
X219119316Y-140894979D01*
X219123889Y-140896873D01*
X219208289Y-140917135D01*
X219364039Y-140954528D01*
X219364045Y-140954529D01*
X219368852Y-140955683D01*
X219620000Y-140975449D01*
X219871148Y-140955683D01*
X219875955Y-140954529D01*
X219875961Y-140954528D01*
X220031711Y-140917135D01*
X220116111Y-140896873D01*
X220120684Y-140894979D01*
X220344285Y-140802361D01*
X220344289Y-140802359D01*
X220348859Y-140800466D01*
X220563659Y-140668836D01*
X220567419Y-140665624D01*
X220567424Y-140665621D01*
X220751462Y-140508437D01*
X220755224Y-140505224D01*
X220770744Y-140487052D01*
X220915621Y-140317424D01*
X220915624Y-140317419D01*
X220918836Y-140313659D01*
X221050466Y-140098859D01*
X221146873Y-139866111D01*
X221205683Y-139621148D01*
X221225449Y-139370000D01*
X223094551Y-139370000D01*
X223114317Y-139621148D01*
X223173127Y-139866111D01*
X223269534Y-140098859D01*
X223401164Y-140313659D01*
X223404376Y-140317419D01*
X223404379Y-140317424D01*
X223549256Y-140487052D01*
X223564776Y-140505224D01*
X223568538Y-140508437D01*
X223752576Y-140665621D01*
X223752581Y-140665624D01*
X223756341Y-140668836D01*
X223971141Y-140800466D01*
X223975711Y-140802359D01*
X223975715Y-140802361D01*
X224199316Y-140894979D01*
X224203889Y-140896873D01*
X224288289Y-140917135D01*
X224444039Y-140954528D01*
X224444045Y-140954529D01*
X224448852Y-140955683D01*
X224700000Y-140975449D01*
X224951148Y-140955683D01*
X224955955Y-140954529D01*
X224955961Y-140954528D01*
X225111711Y-140917135D01*
X225196111Y-140896873D01*
X225200684Y-140894979D01*
X225424285Y-140802361D01*
X225424289Y-140802359D01*
X225428859Y-140800466D01*
X225643659Y-140668836D01*
X225647419Y-140665624D01*
X225647424Y-140665621D01*
X225831462Y-140508437D01*
X225835224Y-140505224D01*
X225850744Y-140487052D01*
X225995621Y-140317424D01*
X225995624Y-140317419D01*
X225998836Y-140313659D01*
X226130466Y-140098859D01*
X226226873Y-139866111D01*
X226285683Y-139621148D01*
X226305449Y-139370000D01*
X226285683Y-139118852D01*
X226226873Y-138873889D01*
X226224979Y-138869316D01*
X226132361Y-138645715D01*
X226132359Y-138645711D01*
X226130466Y-138641141D01*
X225998836Y-138426341D01*
X225995624Y-138422581D01*
X225995621Y-138422576D01*
X225838437Y-138238538D01*
X225835224Y-138234776D01*
X225657398Y-138082898D01*
X225647424Y-138074379D01*
X225647419Y-138074376D01*
X225643659Y-138071164D01*
X225428859Y-137939534D01*
X225424289Y-137937641D01*
X225424285Y-137937639D01*
X225200684Y-137845021D01*
X225200682Y-137845020D01*
X225196111Y-137843127D01*
X225111711Y-137822865D01*
X224955961Y-137785472D01*
X224955955Y-137785471D01*
X224951148Y-137784317D01*
X224700000Y-137764551D01*
X224448852Y-137784317D01*
X224444045Y-137785471D01*
X224444039Y-137785472D01*
X224288289Y-137822865D01*
X224203889Y-137843127D01*
X224199318Y-137845020D01*
X224199316Y-137845021D01*
X223975715Y-137937639D01*
X223975711Y-137937641D01*
X223971141Y-137939534D01*
X223756341Y-138071164D01*
X223752581Y-138074376D01*
X223752576Y-138074379D01*
X223742602Y-138082898D01*
X223564776Y-138234776D01*
X223561563Y-138238538D01*
X223404379Y-138422576D01*
X223404376Y-138422581D01*
X223401164Y-138426341D01*
X223269534Y-138641141D01*
X223267641Y-138645711D01*
X223267639Y-138645715D01*
X223175021Y-138869316D01*
X223173127Y-138873889D01*
X223114317Y-139118852D01*
X223094551Y-139370000D01*
X221225449Y-139370000D01*
X221205683Y-139118852D01*
X221146873Y-138873889D01*
X221144979Y-138869316D01*
X221052361Y-138645715D01*
X221052359Y-138645711D01*
X221050466Y-138641141D01*
X220918836Y-138426341D01*
X220915624Y-138422581D01*
X220915621Y-138422576D01*
X220758437Y-138238538D01*
X220755224Y-138234776D01*
X220577398Y-138082898D01*
X220567424Y-138074379D01*
X220567419Y-138074376D01*
X220563659Y-138071164D01*
X220348859Y-137939534D01*
X220344289Y-137937641D01*
X220344285Y-137937639D01*
X220120684Y-137845021D01*
X220120682Y-137845020D01*
X220116111Y-137843127D01*
X220031711Y-137822865D01*
X219875961Y-137785472D01*
X219875955Y-137785471D01*
X219871148Y-137784317D01*
X219620000Y-137764551D01*
X219368852Y-137784317D01*
X219364045Y-137785471D01*
X219364039Y-137785472D01*
X219208289Y-137822865D01*
X219123889Y-137843127D01*
X219119318Y-137845020D01*
X219119316Y-137845021D01*
X218895715Y-137937639D01*
X218895711Y-137937641D01*
X218891141Y-137939534D01*
X218676341Y-138071164D01*
X218672581Y-138074376D01*
X218672576Y-138074379D01*
X218662602Y-138082898D01*
X218484776Y-138234776D01*
X218481563Y-138238538D01*
X218324379Y-138422576D01*
X218324376Y-138422581D01*
X218321164Y-138426341D01*
X218189534Y-138641141D01*
X218187641Y-138645711D01*
X218187639Y-138645715D01*
X218095021Y-138869316D01*
X218093127Y-138873889D01*
X218034317Y-139118852D01*
X218014551Y-139370000D01*
X217508000Y-139370000D01*
X217508000Y-134290000D01*
X218014551Y-134290000D01*
X218034317Y-134541148D01*
X218035471Y-134545955D01*
X218035472Y-134545961D01*
X218054134Y-134623693D01*
X218093127Y-134786111D01*
X218189534Y-135018859D01*
X218321164Y-135233659D01*
X218324376Y-135237419D01*
X218324379Y-135237424D01*
X218469256Y-135407052D01*
X218484776Y-135425224D01*
X218488538Y-135428437D01*
X218672576Y-135585621D01*
X218672581Y-135585624D01*
X218676341Y-135588836D01*
X218891141Y-135720466D01*
X218895711Y-135722359D01*
X218895715Y-135722361D01*
X219119316Y-135814979D01*
X219123889Y-135816873D01*
X219208289Y-135837135D01*
X219364039Y-135874528D01*
X219364045Y-135874529D01*
X219368852Y-135875683D01*
X219620000Y-135895449D01*
X219871148Y-135875683D01*
X219875955Y-135874529D01*
X219875961Y-135874528D01*
X220031711Y-135837135D01*
X220116111Y-135816873D01*
X220120684Y-135814979D01*
X220344285Y-135722361D01*
X220344289Y-135722359D01*
X220348859Y-135720466D01*
X220563659Y-135588836D01*
X220567419Y-135585624D01*
X220567424Y-135585621D01*
X220751462Y-135428437D01*
X220755224Y-135425224D01*
X220770744Y-135407052D01*
X220915621Y-135237424D01*
X220915624Y-135237419D01*
X220918836Y-135233659D01*
X221050466Y-135018859D01*
X221146873Y-134786111D01*
X221185866Y-134623693D01*
X221204528Y-134545961D01*
X221204529Y-134545955D01*
X221205683Y-134541148D01*
X221225449Y-134290000D01*
X223094551Y-134290000D01*
X223114317Y-134541148D01*
X223115471Y-134545955D01*
X223115472Y-134545961D01*
X223134134Y-134623693D01*
X223173127Y-134786111D01*
X223269534Y-135018859D01*
X223401164Y-135233659D01*
X223404376Y-135237419D01*
X223404379Y-135237424D01*
X223549256Y-135407052D01*
X223564776Y-135425224D01*
X223568538Y-135428437D01*
X223752576Y-135585621D01*
X223752581Y-135585624D01*
X223756341Y-135588836D01*
X223971141Y-135720466D01*
X223975711Y-135722359D01*
X223975715Y-135722361D01*
X224199316Y-135814979D01*
X224203889Y-135816873D01*
X224288289Y-135837135D01*
X224444039Y-135874528D01*
X224444045Y-135874529D01*
X224448852Y-135875683D01*
X224700000Y-135895449D01*
X224951148Y-135875683D01*
X224955955Y-135874529D01*
X224955961Y-135874528D01*
X225111711Y-135837135D01*
X225196111Y-135816873D01*
X225200684Y-135814979D01*
X225424285Y-135722361D01*
X225424289Y-135722359D01*
X225428859Y-135720466D01*
X225643659Y-135588836D01*
X225647419Y-135585624D01*
X225647424Y-135585621D01*
X225831462Y-135428437D01*
X225835224Y-135425224D01*
X225850744Y-135407052D01*
X225995621Y-135237424D01*
X225995624Y-135237419D01*
X225998836Y-135233659D01*
X226130466Y-135018859D01*
X226226873Y-134786111D01*
X226265866Y-134623693D01*
X226284528Y-134545961D01*
X226284529Y-134545955D01*
X226285683Y-134541148D01*
X226305449Y-134290000D01*
X226285683Y-134038852D01*
X226226873Y-133793889D01*
X226130466Y-133561141D01*
X225998836Y-133346341D01*
X225995624Y-133342581D01*
X225995621Y-133342576D01*
X225838437Y-133158538D01*
X225835224Y-133154776D01*
X225817052Y-133139256D01*
X225647424Y-132994379D01*
X225647419Y-132994376D01*
X225643659Y-132991164D01*
X225428859Y-132859534D01*
X225424289Y-132857641D01*
X225424285Y-132857639D01*
X225200684Y-132765021D01*
X225200682Y-132765020D01*
X225196111Y-132763127D01*
X225111711Y-132742865D01*
X224955961Y-132705472D01*
X224955955Y-132705471D01*
X224951148Y-132704317D01*
X224700000Y-132684551D01*
X224448852Y-132704317D01*
X224444045Y-132705471D01*
X224444039Y-132705472D01*
X224288289Y-132742865D01*
X224203889Y-132763127D01*
X224199318Y-132765020D01*
X224199316Y-132765021D01*
X223975715Y-132857639D01*
X223975711Y-132857641D01*
X223971141Y-132859534D01*
X223756341Y-132991164D01*
X223752581Y-132994376D01*
X223752576Y-132994379D01*
X223582948Y-133139256D01*
X223564776Y-133154776D01*
X223561563Y-133158538D01*
X223404379Y-133342576D01*
X223404376Y-133342581D01*
X223401164Y-133346341D01*
X223269534Y-133561141D01*
X223173127Y-133793889D01*
X223114317Y-134038852D01*
X223094551Y-134290000D01*
X221225449Y-134290000D01*
X221205683Y-134038852D01*
X221146873Y-133793889D01*
X221050466Y-133561141D01*
X220918836Y-133346341D01*
X220915624Y-133342581D01*
X220915621Y-133342576D01*
X220758437Y-133158538D01*
X220755224Y-133154776D01*
X220737052Y-133139256D01*
X220567424Y-132994379D01*
X220567419Y-132994376D01*
X220563659Y-132991164D01*
X220348859Y-132859534D01*
X220344289Y-132857641D01*
X220344285Y-132857639D01*
X220120684Y-132765021D01*
X220120682Y-132765020D01*
X220116111Y-132763127D01*
X220031711Y-132742865D01*
X219875961Y-132705472D01*
X219875955Y-132705471D01*
X219871148Y-132704317D01*
X219620000Y-132684551D01*
X219368852Y-132704317D01*
X219364045Y-132705471D01*
X219364039Y-132705472D01*
X219208289Y-132742865D01*
X219123889Y-132763127D01*
X219119318Y-132765020D01*
X219119316Y-132765021D01*
X218895715Y-132857639D01*
X218895711Y-132857641D01*
X218891141Y-132859534D01*
X218676341Y-132991164D01*
X218672581Y-132994376D01*
X218672576Y-132994379D01*
X218502948Y-133139256D01*
X218484776Y-133154776D01*
X218481563Y-133158538D01*
X218324379Y-133342576D01*
X218324376Y-133342581D01*
X218321164Y-133346341D01*
X218189534Y-133561141D01*
X218093127Y-133793889D01*
X218034317Y-134038852D01*
X218014551Y-134290000D01*
X217508000Y-134290000D01*
X217508000Y-129210000D01*
X218014551Y-129210000D01*
X218034317Y-129461148D01*
X218093127Y-129706111D01*
X218189534Y-129938859D01*
X218321164Y-130153659D01*
X218324376Y-130157419D01*
X218324379Y-130157424D01*
X218469256Y-130327052D01*
X218484776Y-130345224D01*
X218488538Y-130348437D01*
X218672576Y-130505621D01*
X218672581Y-130505624D01*
X218676341Y-130508836D01*
X218891141Y-130640466D01*
X218895711Y-130642359D01*
X218895715Y-130642361D01*
X219119316Y-130734979D01*
X219123889Y-130736873D01*
X219208289Y-130757135D01*
X219364039Y-130794528D01*
X219364045Y-130794529D01*
X219368852Y-130795683D01*
X219620000Y-130815449D01*
X219871148Y-130795683D01*
X219875955Y-130794529D01*
X219875961Y-130794528D01*
X220031711Y-130757135D01*
X220116111Y-130736873D01*
X220120684Y-130734979D01*
X220344285Y-130642361D01*
X220344289Y-130642359D01*
X220348859Y-130640466D01*
X220563659Y-130508836D01*
X220567419Y-130505624D01*
X220567424Y-130505621D01*
X220751462Y-130348437D01*
X220755224Y-130345224D01*
X220770744Y-130327052D01*
X220915621Y-130157424D01*
X220915624Y-130157419D01*
X220918836Y-130153659D01*
X221050466Y-129938859D01*
X221146873Y-129706111D01*
X221205683Y-129461148D01*
X221225449Y-129210000D01*
X223094551Y-129210000D01*
X223114317Y-129461148D01*
X223173127Y-129706111D01*
X223269534Y-129938859D01*
X223401164Y-130153659D01*
X223404376Y-130157419D01*
X223404379Y-130157424D01*
X223549256Y-130327052D01*
X223564776Y-130345224D01*
X223568538Y-130348437D01*
X223752576Y-130505621D01*
X223752581Y-130505624D01*
X223756341Y-130508836D01*
X223971141Y-130640466D01*
X223975711Y-130642359D01*
X223975715Y-130642361D01*
X224199316Y-130734979D01*
X224203889Y-130736873D01*
X224288289Y-130757135D01*
X224444039Y-130794528D01*
X224444045Y-130794529D01*
X224448852Y-130795683D01*
X224700000Y-130815449D01*
X224951148Y-130795683D01*
X224955955Y-130794529D01*
X224955961Y-130794528D01*
X225111711Y-130757135D01*
X225196111Y-130736873D01*
X225200684Y-130734979D01*
X225424285Y-130642361D01*
X225424289Y-130642359D01*
X225428859Y-130640466D01*
X225643659Y-130508836D01*
X225647419Y-130505624D01*
X225647424Y-130505621D01*
X225831462Y-130348437D01*
X225835224Y-130345224D01*
X225850744Y-130327052D01*
X225995621Y-130157424D01*
X225995624Y-130157419D01*
X225998836Y-130153659D01*
X226130466Y-129938859D01*
X226226873Y-129706111D01*
X226285683Y-129461148D01*
X226305449Y-129210000D01*
X226285683Y-128958852D01*
X226226873Y-128713889D01*
X226198888Y-128646326D01*
X226132361Y-128485715D01*
X226132359Y-128485711D01*
X226130466Y-128481141D01*
X225998836Y-128266341D01*
X225995624Y-128262581D01*
X225995621Y-128262576D01*
X225838437Y-128078538D01*
X225835224Y-128074776D01*
X225739677Y-127993171D01*
X225647424Y-127914379D01*
X225647419Y-127914376D01*
X225643659Y-127911164D01*
X225428859Y-127779534D01*
X225424289Y-127777641D01*
X225424285Y-127777639D01*
X225200684Y-127685021D01*
X225200682Y-127685020D01*
X225196111Y-127683127D01*
X225111711Y-127662865D01*
X224955961Y-127625472D01*
X224955955Y-127625471D01*
X224951148Y-127624317D01*
X224700000Y-127604551D01*
X224448852Y-127624317D01*
X224444045Y-127625471D01*
X224444039Y-127625472D01*
X224288289Y-127662865D01*
X224203889Y-127683127D01*
X224199318Y-127685020D01*
X224199316Y-127685021D01*
X223975715Y-127777639D01*
X223975711Y-127777641D01*
X223971141Y-127779534D01*
X223756341Y-127911164D01*
X223752581Y-127914376D01*
X223752576Y-127914379D01*
X223660323Y-127993171D01*
X223564776Y-128074776D01*
X223561563Y-128078538D01*
X223404379Y-128262576D01*
X223404376Y-128262581D01*
X223401164Y-128266341D01*
X223269534Y-128481141D01*
X223267641Y-128485711D01*
X223267639Y-128485715D01*
X223201112Y-128646326D01*
X223173127Y-128713889D01*
X223114317Y-128958852D01*
X223094551Y-129210000D01*
X221225449Y-129210000D01*
X221205683Y-128958852D01*
X221146873Y-128713889D01*
X221118888Y-128646326D01*
X221052361Y-128485715D01*
X221052359Y-128485711D01*
X221050466Y-128481141D01*
X220918836Y-128266341D01*
X220915624Y-128262581D01*
X220915621Y-128262576D01*
X220758437Y-128078538D01*
X220755224Y-128074776D01*
X220659677Y-127993171D01*
X220567424Y-127914379D01*
X220567419Y-127914376D01*
X220563659Y-127911164D01*
X220348859Y-127779534D01*
X220344289Y-127777641D01*
X220344285Y-127777639D01*
X220120684Y-127685021D01*
X220120682Y-127685020D01*
X220116111Y-127683127D01*
X220031711Y-127662865D01*
X219875961Y-127625472D01*
X219875955Y-127625471D01*
X219871148Y-127624317D01*
X219620000Y-127604551D01*
X219368852Y-127624317D01*
X219364045Y-127625471D01*
X219364039Y-127625472D01*
X219208289Y-127662865D01*
X219123889Y-127683127D01*
X219119318Y-127685020D01*
X219119316Y-127685021D01*
X218895715Y-127777639D01*
X218895711Y-127777641D01*
X218891141Y-127779534D01*
X218676341Y-127911164D01*
X218672581Y-127914376D01*
X218672576Y-127914379D01*
X218580323Y-127993171D01*
X218484776Y-128074776D01*
X218481563Y-128078538D01*
X218324379Y-128262576D01*
X218324376Y-128262581D01*
X218321164Y-128266341D01*
X218189534Y-128481141D01*
X218187641Y-128485711D01*
X218187639Y-128485715D01*
X218121112Y-128646326D01*
X218093127Y-128713889D01*
X218034317Y-128958852D01*
X218014551Y-129210000D01*
X217508000Y-129210000D01*
X217508000Y-124130000D01*
X218014551Y-124130000D01*
X218034317Y-124381148D01*
X218093127Y-124626111D01*
X218095020Y-124630682D01*
X218095021Y-124630684D01*
X218159473Y-124786284D01*
X218189534Y-124858859D01*
X218321164Y-125073659D01*
X218324376Y-125077419D01*
X218324379Y-125077424D01*
X218437392Y-125209745D01*
X218484776Y-125265224D01*
X218488538Y-125268437D01*
X218672576Y-125425621D01*
X218672581Y-125425624D01*
X218676341Y-125428836D01*
X218891141Y-125560466D01*
X218895711Y-125562359D01*
X218895715Y-125562361D01*
X219119316Y-125654979D01*
X219123889Y-125656873D01*
X219208289Y-125677135D01*
X219364039Y-125714528D01*
X219364045Y-125714529D01*
X219368852Y-125715683D01*
X219620000Y-125735449D01*
X219871148Y-125715683D01*
X219875955Y-125714529D01*
X219875961Y-125714528D01*
X220031711Y-125677135D01*
X220116111Y-125656873D01*
X220120684Y-125654979D01*
X220344285Y-125562361D01*
X220344289Y-125562359D01*
X220348859Y-125560466D01*
X220563659Y-125428836D01*
X220567419Y-125425624D01*
X220567424Y-125425621D01*
X220751462Y-125268437D01*
X220755224Y-125265224D01*
X220802608Y-125209745D01*
X220915621Y-125077424D01*
X220915624Y-125077419D01*
X220918836Y-125073659D01*
X221050466Y-124858859D01*
X221080528Y-124786284D01*
X221144979Y-124630684D01*
X221144980Y-124630682D01*
X221146873Y-124626111D01*
X221205683Y-124381148D01*
X221225449Y-124130000D01*
X223094551Y-124130000D01*
X223114317Y-124381148D01*
X223173127Y-124626111D01*
X223175020Y-124630682D01*
X223175021Y-124630684D01*
X223239473Y-124786284D01*
X223269534Y-124858859D01*
X223401164Y-125073659D01*
X223404376Y-125077419D01*
X223404379Y-125077424D01*
X223517392Y-125209745D01*
X223564776Y-125265224D01*
X223568538Y-125268437D01*
X223752576Y-125425621D01*
X223752581Y-125425624D01*
X223756341Y-125428836D01*
X223971141Y-125560466D01*
X223975711Y-125562359D01*
X223975715Y-125562361D01*
X224199316Y-125654979D01*
X224203889Y-125656873D01*
X224288289Y-125677135D01*
X224444039Y-125714528D01*
X224444045Y-125714529D01*
X224448852Y-125715683D01*
X224700000Y-125735449D01*
X224951148Y-125715683D01*
X224955955Y-125714529D01*
X224955961Y-125714528D01*
X225111711Y-125677135D01*
X225196111Y-125656873D01*
X225200684Y-125654979D01*
X225424285Y-125562361D01*
X225424289Y-125562359D01*
X225428859Y-125560466D01*
X225643659Y-125428836D01*
X225647419Y-125425624D01*
X225647424Y-125425621D01*
X225831462Y-125268437D01*
X225835224Y-125265224D01*
X225882608Y-125209745D01*
X225995621Y-125077424D01*
X225995624Y-125077419D01*
X225998836Y-125073659D01*
X226130466Y-124858859D01*
X226160528Y-124786284D01*
X226224979Y-124630684D01*
X226224980Y-124630682D01*
X226226873Y-124626111D01*
X226285683Y-124381148D01*
X226305449Y-124130000D01*
X226285683Y-123878852D01*
X226226873Y-123633889D01*
X226224979Y-123629316D01*
X226132361Y-123405715D01*
X226132359Y-123405711D01*
X226130466Y-123401141D01*
X225998836Y-123186341D01*
X225995624Y-123182581D01*
X225995621Y-123182576D01*
X225838437Y-122998538D01*
X225835224Y-122994776D01*
X225673325Y-122856501D01*
X225647424Y-122834379D01*
X225647419Y-122834376D01*
X225643659Y-122831164D01*
X225428859Y-122699534D01*
X225424289Y-122697641D01*
X225424285Y-122697639D01*
X225200684Y-122605021D01*
X225200682Y-122605020D01*
X225196111Y-122603127D01*
X225037804Y-122565121D01*
X224955961Y-122545472D01*
X224955955Y-122545471D01*
X224951148Y-122544317D01*
X224700000Y-122524551D01*
X224448852Y-122544317D01*
X224444045Y-122545471D01*
X224444039Y-122545472D01*
X224362196Y-122565121D01*
X224203889Y-122603127D01*
X224199318Y-122605020D01*
X224199316Y-122605021D01*
X223975715Y-122697639D01*
X223975711Y-122697641D01*
X223971141Y-122699534D01*
X223756341Y-122831164D01*
X223752581Y-122834376D01*
X223752576Y-122834379D01*
X223726675Y-122856501D01*
X223564776Y-122994776D01*
X223561563Y-122998538D01*
X223404379Y-123182576D01*
X223404376Y-123182581D01*
X223401164Y-123186341D01*
X223269534Y-123401141D01*
X223267641Y-123405711D01*
X223267639Y-123405715D01*
X223175021Y-123629316D01*
X223173127Y-123633889D01*
X223114317Y-123878852D01*
X223094551Y-124130000D01*
X221225449Y-124130000D01*
X221205683Y-123878852D01*
X221146873Y-123633889D01*
X221144979Y-123629316D01*
X221052361Y-123405715D01*
X221052359Y-123405711D01*
X221050466Y-123401141D01*
X220918836Y-123186341D01*
X220915624Y-123182581D01*
X220915621Y-123182576D01*
X220758437Y-122998538D01*
X220755224Y-122994776D01*
X220593325Y-122856501D01*
X220567424Y-122834379D01*
X220567419Y-122834376D01*
X220563659Y-122831164D01*
X220348859Y-122699534D01*
X220344289Y-122697641D01*
X220344285Y-122697639D01*
X220120684Y-122605021D01*
X220120682Y-122605020D01*
X220116111Y-122603127D01*
X219957804Y-122565121D01*
X219875961Y-122545472D01*
X219875955Y-122545471D01*
X219871148Y-122544317D01*
X219620000Y-122524551D01*
X219368852Y-122544317D01*
X219364045Y-122545471D01*
X219364039Y-122545472D01*
X219282196Y-122565121D01*
X219123889Y-122603127D01*
X219119318Y-122605020D01*
X219119316Y-122605021D01*
X218895715Y-122697639D01*
X218895711Y-122697641D01*
X218891141Y-122699534D01*
X218676341Y-122831164D01*
X218672581Y-122834376D01*
X218672576Y-122834379D01*
X218646675Y-122856501D01*
X218484776Y-122994776D01*
X218481563Y-122998538D01*
X218324379Y-123182576D01*
X218324376Y-123182581D01*
X218321164Y-123186341D01*
X218189534Y-123401141D01*
X218187641Y-123405711D01*
X218187639Y-123405715D01*
X218095021Y-123629316D01*
X218093127Y-123633889D01*
X218034317Y-123878852D01*
X218014551Y-124130000D01*
X217508000Y-124130000D01*
X217508000Y-120494906D01*
X218539839Y-120494906D01*
X218548553Y-120506427D01*
X218655452Y-120584809D01*
X218663351Y-120589745D01*
X218892905Y-120710519D01*
X218901454Y-120714236D01*
X219146327Y-120799749D01*
X219155336Y-120802163D01*
X219410166Y-120850544D01*
X219419423Y-120851598D01*
X219678607Y-120861783D01*
X219687921Y-120861457D01*
X219945753Y-120833220D01*
X219954930Y-120831519D01*
X220205758Y-120765481D01*
X220214574Y-120762445D01*
X220452880Y-120660062D01*
X220461167Y-120655748D01*
X220681718Y-120519266D01*
X220689268Y-120513780D01*
X220694559Y-120509301D01*
X220702997Y-120496497D01*
X220702065Y-120494906D01*
X223619839Y-120494906D01*
X223628553Y-120506427D01*
X223735452Y-120584809D01*
X223743351Y-120589745D01*
X223972905Y-120710519D01*
X223981454Y-120714236D01*
X224226327Y-120799749D01*
X224235336Y-120802163D01*
X224490166Y-120850544D01*
X224499423Y-120851598D01*
X224758607Y-120861783D01*
X224767921Y-120861457D01*
X225025753Y-120833220D01*
X225034930Y-120831519D01*
X225285758Y-120765481D01*
X225294574Y-120762445D01*
X225532880Y-120660062D01*
X225541167Y-120655748D01*
X225761718Y-120519266D01*
X225769268Y-120513780D01*
X225774559Y-120509301D01*
X225782997Y-120496497D01*
X225776935Y-120486145D01*
X224712812Y-119422022D01*
X224698868Y-119414408D01*
X224697035Y-119414539D01*
X224690420Y-119418790D01*
X223626497Y-120482713D01*
X223619839Y-120494906D01*
X220702065Y-120494906D01*
X220696935Y-120486145D01*
X219632812Y-119422022D01*
X219618868Y-119414408D01*
X219617035Y-119414539D01*
X219610420Y-119418790D01*
X218546497Y-120482713D01*
X218539839Y-120494906D01*
X217508000Y-120494906D01*
X217508000Y-119007211D01*
X217807775Y-119007211D01*
X217820220Y-119266288D01*
X217821356Y-119275543D01*
X217871961Y-119529945D01*
X217874449Y-119538917D01*
X217962095Y-119783033D01*
X217965895Y-119791568D01*
X218088658Y-120020042D01*
X218093666Y-120027904D01*
X218163720Y-120121716D01*
X218174979Y-120130165D01*
X218187397Y-120123393D01*
X219247978Y-119062812D01*
X219254356Y-119051132D01*
X219984408Y-119051132D01*
X219984539Y-119052965D01*
X219988790Y-119059580D01*
X221056094Y-120126884D01*
X221068474Y-120133644D01*
X221076815Y-120127400D01*
X221210832Y-119919048D01*
X221215275Y-119910864D01*
X221321807Y-119674370D01*
X221324997Y-119665605D01*
X221395402Y-119415972D01*
X221397262Y-119406830D01*
X221430187Y-119148019D01*
X221430668Y-119141733D01*
X221432987Y-119053160D01*
X221432836Y-119046851D01*
X221429890Y-119007211D01*
X222887775Y-119007211D01*
X222900220Y-119266288D01*
X222901356Y-119275543D01*
X222951961Y-119529945D01*
X222954449Y-119538917D01*
X223042095Y-119783033D01*
X223045895Y-119791568D01*
X223168658Y-120020042D01*
X223173666Y-120027904D01*
X223243720Y-120121716D01*
X223254979Y-120130165D01*
X223267397Y-120123393D01*
X224327978Y-119062812D01*
X224334356Y-119051132D01*
X225064408Y-119051132D01*
X225064539Y-119052965D01*
X225068790Y-119059580D01*
X226136094Y-120126884D01*
X226148474Y-120133644D01*
X226156815Y-120127400D01*
X226290832Y-119919048D01*
X226295275Y-119910864D01*
X226401807Y-119674370D01*
X226404997Y-119665605D01*
X226475402Y-119415972D01*
X226477262Y-119406830D01*
X226510187Y-119148019D01*
X226510668Y-119141733D01*
X226512987Y-119053160D01*
X226512836Y-119046851D01*
X226493501Y-118786663D01*
X226492125Y-118777457D01*
X226434878Y-118524467D01*
X226432154Y-118515556D01*
X226338143Y-118273806D01*
X226334132Y-118265397D01*
X226205422Y-118040202D01*
X226200211Y-118032476D01*
X226156996Y-117977658D01*
X226145071Y-117969187D01*
X226133537Y-117975673D01*
X225072022Y-119037188D01*
X225064408Y-119051132D01*
X224334356Y-119051132D01*
X224335592Y-119048868D01*
X224335461Y-119047035D01*
X224331210Y-119040420D01*
X223265816Y-117975026D01*
X223252507Y-117967758D01*
X223242472Y-117974878D01*
X223226937Y-117993556D01*
X223221531Y-118001135D01*
X223086965Y-118222891D01*
X223082736Y-118231192D01*
X222982432Y-118470389D01*
X222979471Y-118479239D01*
X222915628Y-118730625D01*
X222914006Y-118739822D01*
X222888020Y-118997885D01*
X222887775Y-119007211D01*
X221429890Y-119007211D01*
X221413501Y-118786663D01*
X221412125Y-118777457D01*
X221354878Y-118524467D01*
X221352154Y-118515556D01*
X221258143Y-118273806D01*
X221254132Y-118265397D01*
X221125422Y-118040202D01*
X221120211Y-118032476D01*
X221076996Y-117977658D01*
X221065071Y-117969187D01*
X221053537Y-117975673D01*
X219992022Y-119037188D01*
X219984408Y-119051132D01*
X219254356Y-119051132D01*
X219255592Y-119048868D01*
X219255461Y-119047035D01*
X219251210Y-119040420D01*
X218185816Y-117975026D01*
X218172507Y-117967758D01*
X218162472Y-117974878D01*
X218146937Y-117993556D01*
X218141531Y-118001135D01*
X218006965Y-118222891D01*
X218002736Y-118231192D01*
X217902432Y-118470389D01*
X217899471Y-118479239D01*
X217835628Y-118730625D01*
X217834006Y-118739822D01*
X217808020Y-118997885D01*
X217807775Y-119007211D01*
X217508000Y-119007211D01*
X217508000Y-117602689D01*
X218537102Y-117602689D01*
X218541675Y-117612465D01*
X219607188Y-118677978D01*
X219621132Y-118685592D01*
X219622965Y-118685461D01*
X219629580Y-118681210D01*
X220694349Y-117616441D01*
X220700733Y-117604751D01*
X220699130Y-117602689D01*
X223617102Y-117602689D01*
X223621675Y-117612465D01*
X224687188Y-118677978D01*
X224701132Y-118685592D01*
X224702965Y-118685461D01*
X224709580Y-118681210D01*
X225774349Y-117616441D01*
X225780733Y-117604751D01*
X225771321Y-117592641D01*
X225624045Y-117490471D01*
X225616010Y-117485738D01*
X225383376Y-117371016D01*
X225374743Y-117367528D01*
X225127703Y-117288450D01*
X225118643Y-117286274D01*
X224862630Y-117244580D01*
X224853343Y-117243768D01*
X224593992Y-117240373D01*
X224584681Y-117240943D01*
X224327682Y-117275919D01*
X224318546Y-117277860D01*
X224069543Y-117350439D01*
X224060800Y-117353707D01*
X223825252Y-117462296D01*
X223817097Y-117466816D01*
X223626240Y-117591947D01*
X223617102Y-117602689D01*
X220699130Y-117602689D01*
X220691321Y-117592641D01*
X220544045Y-117490471D01*
X220536010Y-117485738D01*
X220303376Y-117371016D01*
X220294743Y-117367528D01*
X220047703Y-117288450D01*
X220038643Y-117286274D01*
X219782630Y-117244580D01*
X219773343Y-117243768D01*
X219513992Y-117240373D01*
X219504681Y-117240943D01*
X219247682Y-117275919D01*
X219238546Y-117277860D01*
X218989543Y-117350439D01*
X218980800Y-117353707D01*
X218745252Y-117462296D01*
X218737097Y-117466816D01*
X218546240Y-117591947D01*
X218537102Y-117602689D01*
X217508000Y-117602689D01*
X217508000Y-115414906D01*
X218539839Y-115414906D01*
X218548553Y-115426427D01*
X218655452Y-115504809D01*
X218663351Y-115509745D01*
X218892905Y-115630519D01*
X218901454Y-115634236D01*
X219146327Y-115719749D01*
X219155336Y-115722163D01*
X219410166Y-115770544D01*
X219419423Y-115771598D01*
X219678607Y-115781783D01*
X219687921Y-115781457D01*
X219945753Y-115753220D01*
X219954930Y-115751519D01*
X220205758Y-115685481D01*
X220214574Y-115682445D01*
X220452880Y-115580062D01*
X220461167Y-115575748D01*
X220681718Y-115439266D01*
X220689268Y-115433780D01*
X220694559Y-115429301D01*
X220702997Y-115416497D01*
X220702065Y-115414906D01*
X223619839Y-115414906D01*
X223628553Y-115426427D01*
X223735452Y-115504809D01*
X223743351Y-115509745D01*
X223972905Y-115630519D01*
X223981454Y-115634236D01*
X224226327Y-115719749D01*
X224235336Y-115722163D01*
X224490166Y-115770544D01*
X224499423Y-115771598D01*
X224758607Y-115781783D01*
X224767921Y-115781457D01*
X225025753Y-115753220D01*
X225034930Y-115751519D01*
X225285758Y-115685481D01*
X225294574Y-115682445D01*
X225532880Y-115580062D01*
X225541167Y-115575748D01*
X225761718Y-115439266D01*
X225769268Y-115433780D01*
X225774559Y-115429301D01*
X225782997Y-115416497D01*
X225776935Y-115406145D01*
X224712812Y-114342022D01*
X224698868Y-114334408D01*
X224697035Y-114334539D01*
X224690420Y-114338790D01*
X223626497Y-115402713D01*
X223619839Y-115414906D01*
X220702065Y-115414906D01*
X220696935Y-115406145D01*
X219632812Y-114342022D01*
X219618868Y-114334408D01*
X219617035Y-114334539D01*
X219610420Y-114338790D01*
X218546497Y-115402713D01*
X218539839Y-115414906D01*
X217508000Y-115414906D01*
X217508000Y-113927211D01*
X217807775Y-113927211D01*
X217820220Y-114186288D01*
X217821356Y-114195543D01*
X217871961Y-114449945D01*
X217874449Y-114458917D01*
X217962095Y-114703033D01*
X217965895Y-114711568D01*
X218088658Y-114940042D01*
X218093666Y-114947904D01*
X218163720Y-115041716D01*
X218174979Y-115050165D01*
X218187397Y-115043393D01*
X219247978Y-113982812D01*
X219254356Y-113971132D01*
X219984408Y-113971132D01*
X219984539Y-113972965D01*
X219988790Y-113979580D01*
X221056094Y-115046884D01*
X221068474Y-115053644D01*
X221076815Y-115047400D01*
X221210832Y-114839048D01*
X221215275Y-114830864D01*
X221321807Y-114594370D01*
X221324997Y-114585605D01*
X221395402Y-114335972D01*
X221397262Y-114326830D01*
X221430187Y-114068019D01*
X221430668Y-114061733D01*
X221432987Y-113973160D01*
X221432836Y-113966851D01*
X221429890Y-113927211D01*
X222887775Y-113927211D01*
X222900220Y-114186288D01*
X222901356Y-114195543D01*
X222951961Y-114449945D01*
X222954449Y-114458917D01*
X223042095Y-114703033D01*
X223045895Y-114711568D01*
X223168658Y-114940042D01*
X223173666Y-114947904D01*
X223243720Y-115041716D01*
X223254979Y-115050165D01*
X223267397Y-115043393D01*
X224327978Y-113982812D01*
X224334356Y-113971132D01*
X225064408Y-113971132D01*
X225064539Y-113972965D01*
X225068790Y-113979580D01*
X226136094Y-115046884D01*
X226148474Y-115053644D01*
X226156815Y-115047400D01*
X226290832Y-114839048D01*
X226295275Y-114830864D01*
X226401807Y-114594370D01*
X226404997Y-114585605D01*
X226475402Y-114335972D01*
X226477262Y-114326830D01*
X226510187Y-114068019D01*
X226510668Y-114061733D01*
X226512987Y-113973160D01*
X226512836Y-113966851D01*
X226493501Y-113706663D01*
X226492125Y-113697457D01*
X226434878Y-113444467D01*
X226432154Y-113435556D01*
X226338143Y-113193806D01*
X226334132Y-113185397D01*
X226205422Y-112960202D01*
X226200211Y-112952476D01*
X226156996Y-112897658D01*
X226145071Y-112889187D01*
X226133537Y-112895673D01*
X225072022Y-113957188D01*
X225064408Y-113971132D01*
X224334356Y-113971132D01*
X224335592Y-113968868D01*
X224335461Y-113967035D01*
X224331210Y-113960420D01*
X223265816Y-112895026D01*
X223252507Y-112887758D01*
X223242472Y-112894878D01*
X223226937Y-112913556D01*
X223221531Y-112921135D01*
X223086965Y-113142891D01*
X223082736Y-113151192D01*
X222982432Y-113390389D01*
X222979471Y-113399239D01*
X222915628Y-113650625D01*
X222914006Y-113659822D01*
X222888020Y-113917885D01*
X222887775Y-113927211D01*
X221429890Y-113927211D01*
X221413501Y-113706663D01*
X221412125Y-113697457D01*
X221354878Y-113444467D01*
X221352154Y-113435556D01*
X221258143Y-113193806D01*
X221254132Y-113185397D01*
X221125422Y-112960202D01*
X221120211Y-112952476D01*
X221076996Y-112897658D01*
X221065071Y-112889187D01*
X221053537Y-112895673D01*
X219992022Y-113957188D01*
X219984408Y-113971132D01*
X219254356Y-113971132D01*
X219255592Y-113968868D01*
X219255461Y-113967035D01*
X219251210Y-113960420D01*
X218185816Y-112895026D01*
X218172507Y-112887758D01*
X218162472Y-112894878D01*
X218146937Y-112913556D01*
X218141531Y-112921135D01*
X218006965Y-113142891D01*
X218002736Y-113151192D01*
X217902432Y-113390389D01*
X217899471Y-113399239D01*
X217835628Y-113650625D01*
X217834006Y-113659822D01*
X217808020Y-113917885D01*
X217807775Y-113927211D01*
X217508000Y-113927211D01*
X217508000Y-112522689D01*
X218537102Y-112522689D01*
X218541675Y-112532465D01*
X219607188Y-113597978D01*
X219621132Y-113605592D01*
X219622965Y-113605461D01*
X219629580Y-113601210D01*
X220694349Y-112536441D01*
X220700733Y-112524751D01*
X220699130Y-112522689D01*
X223617102Y-112522689D01*
X223621675Y-112532465D01*
X224687188Y-113597978D01*
X224701132Y-113605592D01*
X224702965Y-113605461D01*
X224709580Y-113601210D01*
X225774349Y-112536441D01*
X225780733Y-112524751D01*
X225771321Y-112512641D01*
X225624045Y-112410471D01*
X225616010Y-112405738D01*
X225383376Y-112291016D01*
X225374743Y-112287528D01*
X225127703Y-112208450D01*
X225118643Y-112206274D01*
X224862630Y-112164580D01*
X224853343Y-112163768D01*
X224593992Y-112160373D01*
X224584681Y-112160943D01*
X224327682Y-112195919D01*
X224318546Y-112197860D01*
X224069543Y-112270439D01*
X224060800Y-112273707D01*
X223825252Y-112382296D01*
X223817097Y-112386816D01*
X223626240Y-112511947D01*
X223617102Y-112522689D01*
X220699130Y-112522689D01*
X220691321Y-112512641D01*
X220544045Y-112410471D01*
X220536010Y-112405738D01*
X220303376Y-112291016D01*
X220294743Y-112287528D01*
X220047703Y-112208450D01*
X220038643Y-112206274D01*
X219782630Y-112164580D01*
X219773343Y-112163768D01*
X219513992Y-112160373D01*
X219504681Y-112160943D01*
X219247682Y-112195919D01*
X219238546Y-112197860D01*
X218989543Y-112270439D01*
X218980800Y-112273707D01*
X218745252Y-112382296D01*
X218737097Y-112386816D01*
X218546240Y-112511947D01*
X218537102Y-112522689D01*
X217508000Y-112522689D01*
X217508000Y-109634000D01*
X217528002Y-109565879D01*
X217581658Y-109519386D01*
X217634000Y-109508000D01*
X217682416Y-109508000D01*
X217785406Y-109495676D01*
X217798543Y-109494104D01*
X217798544Y-109494104D01*
X217802278Y-109493657D01*
X217805926Y-109492771D01*
X217805933Y-109492770D01*
X217856401Y-109480516D01*
X217856406Y-109480515D01*
X217860057Y-109479628D01*
X217966639Y-109439841D01*
X217966642Y-109439840D01*
X217973142Y-109437413D01*
X217973520Y-109438426D01*
X218035585Y-109425674D01*
X218101814Y-109451253D01*
X218141553Y-109503023D01*
X218182523Y-109601932D01*
X218189534Y-109618859D01*
X218321164Y-109833659D01*
X218324376Y-109837419D01*
X218324379Y-109837424D01*
X218469256Y-110007052D01*
X218484776Y-110025224D01*
X218488538Y-110028437D01*
X218672576Y-110185621D01*
X218672581Y-110185624D01*
X218676341Y-110188836D01*
X218891141Y-110320466D01*
X218895711Y-110322359D01*
X218895715Y-110322361D01*
X219119316Y-110414979D01*
X219123889Y-110416873D01*
X219208289Y-110437135D01*
X219364039Y-110474528D01*
X219364045Y-110474529D01*
X219368852Y-110475683D01*
X219620000Y-110495449D01*
X219871148Y-110475683D01*
X219875955Y-110474529D01*
X219875961Y-110474528D01*
X220031711Y-110437135D01*
X220116111Y-110416873D01*
X220120684Y-110414979D01*
X220344285Y-110322361D01*
X220344289Y-110322359D01*
X220348859Y-110320466D01*
X220563659Y-110188836D01*
X220567419Y-110185624D01*
X220567424Y-110185621D01*
X220751462Y-110028437D01*
X220755224Y-110025224D01*
X220770744Y-110007052D01*
X220915621Y-109837424D01*
X220915624Y-109837419D01*
X220918836Y-109833659D01*
X221050466Y-109618859D01*
X221057478Y-109601932D01*
X221100493Y-109498083D01*
X221145041Y-109442802D01*
X221212405Y-109420381D01*
X221269245Y-109431688D01*
X221343391Y-109465550D01*
X221343402Y-109465554D01*
X221347490Y-109467421D01*
X221371244Y-109474396D01*
X221411288Y-109486154D01*
X221411292Y-109486155D01*
X221415611Y-109487423D01*
X221420059Y-109488063D01*
X221420066Y-109488064D01*
X221554282Y-109507361D01*
X221554289Y-109507362D01*
X221558730Y-109508000D01*
X222762416Y-109508000D01*
X222865406Y-109495676D01*
X222878543Y-109494104D01*
X222878544Y-109494104D01*
X222882278Y-109493657D01*
X222885926Y-109492771D01*
X222885933Y-109492770D01*
X222936401Y-109480516D01*
X222936406Y-109480515D01*
X222940057Y-109479628D01*
X223046639Y-109439841D01*
X223046642Y-109439840D01*
X223053142Y-109437413D01*
X223053520Y-109438426D01*
X223115585Y-109425674D01*
X223181814Y-109451253D01*
X223221553Y-109503023D01*
X223262523Y-109601932D01*
X223269534Y-109618859D01*
X223401164Y-109833659D01*
X223404376Y-109837419D01*
X223404379Y-109837424D01*
X223549256Y-110007052D01*
X223564776Y-110025224D01*
X223568538Y-110028437D01*
X223752576Y-110185621D01*
X223752581Y-110185624D01*
X223756341Y-110188836D01*
X223971141Y-110320466D01*
X223975711Y-110322359D01*
X223975715Y-110322361D01*
X224199316Y-110414979D01*
X224203889Y-110416873D01*
X224288289Y-110437135D01*
X224444039Y-110474528D01*
X224444045Y-110474529D01*
X224448852Y-110475683D01*
X224700000Y-110495449D01*
X224951148Y-110475683D01*
X224955955Y-110474529D01*
X224955961Y-110474528D01*
X225111711Y-110437135D01*
X225196111Y-110416873D01*
X225200684Y-110414979D01*
X225424285Y-110322361D01*
X225424289Y-110322359D01*
X225428859Y-110320466D01*
X225643659Y-110188836D01*
X225647419Y-110185624D01*
X225647424Y-110185621D01*
X225831462Y-110028437D01*
X225835224Y-110025224D01*
X225850744Y-110007052D01*
X225995621Y-109837424D01*
X225995624Y-109837419D01*
X225998836Y-109833659D01*
X226130466Y-109618859D01*
X226137478Y-109601932D01*
X226180493Y-109498083D01*
X226225041Y-109442802D01*
X226292405Y-109420381D01*
X226349245Y-109431688D01*
X226423391Y-109465550D01*
X226423402Y-109465554D01*
X226427490Y-109467421D01*
X226451244Y-109474396D01*
X226491288Y-109486154D01*
X226491292Y-109486155D01*
X226495611Y-109487423D01*
X226500059Y-109488063D01*
X226500066Y-109488064D01*
X226634282Y-109507361D01*
X226634289Y-109507362D01*
X226638730Y-109508000D01*
X229366000Y-109508000D01*
X229370149Y-109507554D01*
X229412293Y-109503023D01*
X229473980Y-109496391D01*
X229477264Y-109495677D01*
X229477268Y-109495676D01*
X229502339Y-109490222D01*
X229526322Y-109485005D01*
X229534215Y-109482378D01*
X229605166Y-109479847D01*
X229666222Y-109516077D01*
X229697999Y-109579566D01*
X229700000Y-109601932D01*
X229700000Y-149574000D01*
X229679998Y-149642121D01*
X229626342Y-149688614D01*
X229574000Y-149700000D01*
X70426000Y-149700000D01*
X70357879Y-149679998D01*
X70311386Y-149626342D01*
X70300000Y-149574000D01*
X70300000Y-136450000D01*
X118744564Y-136450000D01*
X118764287Y-136750920D01*
X118823120Y-137046691D01*
X118920055Y-137332252D01*
X119053434Y-137602718D01*
X119055728Y-137606151D01*
X119215336Y-137845021D01*
X119220975Y-137853461D01*
X119223689Y-137856555D01*
X119223693Y-137856561D01*
X119294797Y-137937639D01*
X119419811Y-138080189D01*
X119422900Y-138082898D01*
X119643439Y-138276307D01*
X119643445Y-138276311D01*
X119646539Y-138279025D01*
X119649965Y-138281314D01*
X119649970Y-138281318D01*
X119837533Y-138406643D01*
X119897282Y-138446566D01*
X119900981Y-138448390D01*
X119900986Y-138448393D01*
X120039834Y-138516865D01*
X120167748Y-138579945D01*
X120171653Y-138581271D01*
X120171654Y-138581271D01*
X120449396Y-138675552D01*
X120449400Y-138675553D01*
X120453309Y-138676880D01*
X120457353Y-138677684D01*
X120457359Y-138677686D01*
X120745041Y-138734910D01*
X120745047Y-138734911D01*
X120749080Y-138735713D01*
X120753185Y-138735982D01*
X120753192Y-138735983D01*
X121045881Y-138755166D01*
X121050000Y-138755436D01*
X121054119Y-138755166D01*
X121346808Y-138735983D01*
X121346815Y-138735982D01*
X121350920Y-138735713D01*
X121354953Y-138734911D01*
X121354959Y-138734910D01*
X121642641Y-138677686D01*
X121642647Y-138677684D01*
X121646691Y-138676880D01*
X121650600Y-138675553D01*
X121650604Y-138675552D01*
X121928346Y-138581271D01*
X121928347Y-138581271D01*
X121932252Y-138579945D01*
X122060166Y-138516865D01*
X122199014Y-138448393D01*
X122199019Y-138448390D01*
X122202718Y-138446566D01*
X122262467Y-138406643D01*
X122450030Y-138281318D01*
X122450035Y-138281314D01*
X122453461Y-138279025D01*
X122456555Y-138276311D01*
X122456561Y-138276307D01*
X122677100Y-138082898D01*
X122680189Y-138080189D01*
X122805203Y-137937639D01*
X122876307Y-137856561D01*
X122876311Y-137856555D01*
X122879025Y-137853461D01*
X122884665Y-137845021D01*
X123044272Y-137606151D01*
X123046566Y-137602718D01*
X123179945Y-137332252D01*
X123276880Y-137046691D01*
X123335713Y-136750920D01*
X123355436Y-136450000D01*
X123335713Y-136149080D01*
X123285263Y-135895449D01*
X123277686Y-135857359D01*
X123277684Y-135857353D01*
X123276880Y-135853309D01*
X123187104Y-135588836D01*
X123181271Y-135571654D01*
X123181271Y-135571653D01*
X123179945Y-135567748D01*
X123046566Y-135297282D01*
X122879025Y-135046539D01*
X122876311Y-135043445D01*
X122876307Y-135043439D01*
X122682898Y-134822900D01*
X122680189Y-134819811D01*
X122636275Y-134781299D01*
X122456561Y-134623693D01*
X122456555Y-134623689D01*
X122453461Y-134620975D01*
X122450035Y-134618686D01*
X122450030Y-134618682D01*
X122206151Y-134455728D01*
X122202718Y-134453434D01*
X122199019Y-134451610D01*
X122199014Y-134451607D01*
X122060166Y-134383135D01*
X121932252Y-134320055D01*
X121928346Y-134318729D01*
X121650604Y-134224448D01*
X121650600Y-134224447D01*
X121646691Y-134223120D01*
X121642647Y-134222316D01*
X121642641Y-134222314D01*
X121354959Y-134165090D01*
X121354953Y-134165089D01*
X121350920Y-134164287D01*
X121346815Y-134164018D01*
X121346808Y-134164017D01*
X121054119Y-134144834D01*
X121050000Y-134144564D01*
X121045881Y-134144834D01*
X120753192Y-134164017D01*
X120753185Y-134164018D01*
X120749080Y-134164287D01*
X120745047Y-134165089D01*
X120745041Y-134165090D01*
X120457359Y-134222314D01*
X120457353Y-134222316D01*
X120453309Y-134223120D01*
X120449400Y-134224447D01*
X120449396Y-134224448D01*
X120171654Y-134318729D01*
X120167748Y-134320055D01*
X120039834Y-134383135D01*
X119900986Y-134451607D01*
X119900981Y-134451610D01*
X119897282Y-134453434D01*
X119893849Y-134455728D01*
X119649970Y-134618682D01*
X119649965Y-134618686D01*
X119646539Y-134620975D01*
X119643445Y-134623689D01*
X119643439Y-134623693D01*
X119463725Y-134781299D01*
X119419811Y-134819811D01*
X119417102Y-134822900D01*
X119223693Y-135043439D01*
X119223689Y-135043445D01*
X119220975Y-135046539D01*
X119053434Y-135297282D01*
X118920055Y-135567748D01*
X118918729Y-135571653D01*
X118918729Y-135571654D01*
X118912897Y-135588836D01*
X118823120Y-135853309D01*
X118822316Y-135857353D01*
X118822314Y-135857359D01*
X118814738Y-135895449D01*
X118764287Y-136149080D01*
X118744564Y-136450000D01*
X70300000Y-136450000D01*
X70300000Y-127848233D01*
X119144906Y-127848233D01*
X119171102Y-128122792D01*
X119172187Y-128127226D01*
X119172188Y-128127232D01*
X119215288Y-128303366D01*
X119236657Y-128390694D01*
X119340199Y-128646326D01*
X119342500Y-128650256D01*
X119342503Y-128650262D01*
X119477255Y-128880403D01*
X119477260Y-128880410D01*
X119479558Y-128884335D01*
X119482405Y-128887895D01*
X119600028Y-129034974D01*
X119651816Y-129099732D01*
X119655157Y-129102853D01*
X119775135Y-129214930D01*
X119853364Y-129288008D01*
X120079979Y-129445216D01*
X120084055Y-129447244D01*
X120084057Y-129447245D01*
X120322827Y-129566032D01*
X120322830Y-129566033D01*
X120326914Y-129568065D01*
X120588998Y-129653980D01*
X120593489Y-129654760D01*
X120593490Y-129654760D01*
X120856957Y-129700506D01*
X120856965Y-129700507D01*
X120860738Y-129701162D01*
X120864575Y-129701353D01*
X120946305Y-129705422D01*
X120946313Y-129705422D01*
X120947876Y-129705500D01*
X121120070Y-129705500D01*
X121122338Y-129705335D01*
X121122350Y-129705335D01*
X121256603Y-129695594D01*
X121325083Y-129690625D01*
X121329538Y-129689641D01*
X121329541Y-129689641D01*
X121589947Y-129632148D01*
X121589950Y-129632147D01*
X121594403Y-129631164D01*
X121852319Y-129533449D01*
X121973821Y-129465961D01*
X122089435Y-129401743D01*
X122089436Y-129401742D01*
X122093428Y-129399525D01*
X122312678Y-129232198D01*
X122334378Y-129210000D01*
X122502283Y-129038242D01*
X122502287Y-129038237D01*
X122505477Y-129034974D01*
X122508166Y-129031280D01*
X122665100Y-128815676D01*
X122665102Y-128815673D01*
X122667787Y-128811984D01*
X122796206Y-128567899D01*
X122888045Y-128307832D01*
X122924516Y-128122792D01*
X122940499Y-128041704D01*
X122940500Y-128041698D01*
X122941380Y-128037232D01*
X122945649Y-127951481D01*
X122954867Y-127766336D01*
X122954867Y-127766330D01*
X122955094Y-127761767D01*
X122928898Y-127487208D01*
X122921565Y-127457238D01*
X122864429Y-127223744D01*
X122863343Y-127219306D01*
X122759801Y-126963674D01*
X122757500Y-126959744D01*
X122757497Y-126959738D01*
X122622745Y-126729597D01*
X122622740Y-126729590D01*
X122620442Y-126725665D01*
X122565116Y-126656484D01*
X122451036Y-126513834D01*
X122451035Y-126513833D01*
X122448184Y-126510268D01*
X122316402Y-126387164D01*
X122249972Y-126325108D01*
X122249969Y-126325106D01*
X122246636Y-126321992D01*
X122020021Y-126164784D01*
X121904173Y-126107150D01*
X121777173Y-126043968D01*
X121777170Y-126043967D01*
X121773086Y-126041935D01*
X121511002Y-125956020D01*
X121506510Y-125955240D01*
X121243043Y-125909494D01*
X121243035Y-125909493D01*
X121239262Y-125908838D01*
X121229029Y-125908329D01*
X121153695Y-125904578D01*
X121153687Y-125904578D01*
X121152124Y-125904500D01*
X120979930Y-125904500D01*
X120977662Y-125904665D01*
X120977650Y-125904665D01*
X120843397Y-125914406D01*
X120774917Y-125919375D01*
X120770462Y-125920359D01*
X120770459Y-125920359D01*
X120510053Y-125977852D01*
X120510050Y-125977853D01*
X120505597Y-125978836D01*
X120247681Y-126076551D01*
X120006572Y-126210475D01*
X119787322Y-126377802D01*
X119784129Y-126381068D01*
X119784127Y-126381070D01*
X119597717Y-126571758D01*
X119597713Y-126571763D01*
X119594523Y-126575026D01*
X119591836Y-126578718D01*
X119591834Y-126578720D01*
X119449036Y-126774904D01*
X119432213Y-126798016D01*
X119303794Y-127042101D01*
X119211955Y-127302168D01*
X119211075Y-127306634D01*
X119162516Y-127553003D01*
X119158620Y-127572768D01*
X119158393Y-127577322D01*
X119158393Y-127577324D01*
X119145164Y-127843053D01*
X119144906Y-127848233D01*
X70300000Y-127848233D01*
X70300000Y-124897172D01*
X102546609Y-124897172D01*
X102546696Y-124901174D01*
X102546696Y-124901181D01*
X102551096Y-125102828D01*
X102553429Y-125209745D01*
X102599911Y-125518918D01*
X102601007Y-125522778D01*
X102601008Y-125522783D01*
X102610973Y-125557880D01*
X102685301Y-125819678D01*
X102808215Y-126107150D01*
X102810245Y-126110603D01*
X102810249Y-126110611D01*
X102964627Y-126373215D01*
X102964631Y-126373221D01*
X102966661Y-126376674D01*
X103158069Y-126623881D01*
X103185952Y-126651715D01*
X103332508Y-126798016D01*
X103379336Y-126844763D01*
X103382517Y-126847217D01*
X103382518Y-126847218D01*
X103506709Y-126943030D01*
X103626877Y-127035739D01*
X103630336Y-127037765D01*
X103630340Y-127037767D01*
X103801320Y-127137880D01*
X103896677Y-127193714D01*
X103900362Y-127195282D01*
X103900370Y-127195286D01*
X104091490Y-127276608D01*
X104184363Y-127316126D01*
X104292200Y-127346539D01*
X104481405Y-127399901D01*
X104481414Y-127399903D01*
X104485272Y-127400991D01*
X104489245Y-127401581D01*
X104489244Y-127401581D01*
X104791226Y-127446443D01*
X104791228Y-127446443D01*
X104794525Y-127446933D01*
X104797856Y-127447073D01*
X104797860Y-127447073D01*
X104835186Y-127448637D01*
X104879631Y-127450500D01*
X105079085Y-127450500D01*
X105218566Y-127441602D01*
X105308004Y-127435897D01*
X105308008Y-127435896D01*
X105312013Y-127435641D01*
X105315947Y-127434880D01*
X105315954Y-127434879D01*
X105470710Y-127404937D01*
X105618968Y-127376253D01*
X105622783Y-127374995D01*
X105622787Y-127374994D01*
X105912065Y-127279605D01*
X105912070Y-127279603D01*
X105915888Y-127278344D01*
X106197961Y-127143499D01*
X106293597Y-127081748D01*
X106457242Y-126976085D01*
X106457250Y-126976079D01*
X106460614Y-126973907D01*
X106477411Y-126959738D01*
X106696520Y-126774904D01*
X106696521Y-126774903D01*
X106699589Y-126772315D01*
X106810292Y-126651715D01*
X106908296Y-126544950D01*
X106908298Y-126544948D01*
X106911011Y-126541992D01*
X107091454Y-126286671D01*
X107237992Y-126010492D01*
X107247135Y-125986233D01*
X107272331Y-125919375D01*
X107348249Y-125717932D01*
X107386231Y-125557880D01*
X107419510Y-125417649D01*
X107419511Y-125417644D01*
X107420439Y-125413733D01*
X107453391Y-125102828D01*
X107448992Y-124901181D01*
X107446659Y-124794272D01*
X107446659Y-124794266D01*
X107446571Y-124790255D01*
X107400089Y-124481082D01*
X107370316Y-124376214D01*
X107315798Y-124184194D01*
X107314699Y-124180322D01*
X107191785Y-123892850D01*
X107189755Y-123889397D01*
X107189751Y-123889389D01*
X107035373Y-123626785D01*
X107035369Y-123626779D01*
X107033339Y-123623326D01*
X106841931Y-123376119D01*
X106620664Y-123155237D01*
X106450446Y-123023915D01*
X106376304Y-122966715D01*
X106376303Y-122966714D01*
X106373123Y-122964261D01*
X106369664Y-122962235D01*
X106369660Y-122962233D01*
X106106788Y-122808315D01*
X106103323Y-122806286D01*
X106099638Y-122804718D01*
X106099630Y-122804714D01*
X105819331Y-122685446D01*
X105815637Y-122683874D01*
X105686532Y-122647463D01*
X105518595Y-122600099D01*
X105518586Y-122600097D01*
X105514728Y-122599009D01*
X105281486Y-122564359D01*
X105208774Y-122553557D01*
X105208772Y-122553557D01*
X105205475Y-122553067D01*
X105202144Y-122552927D01*
X105202140Y-122552927D01*
X105164814Y-122551363D01*
X105120369Y-122549500D01*
X104920915Y-122549500D01*
X104781434Y-122558398D01*
X104691996Y-122564103D01*
X104691992Y-122564104D01*
X104687987Y-122564359D01*
X104684053Y-122565120D01*
X104684046Y-122565121D01*
X104529290Y-122595063D01*
X104381032Y-122623747D01*
X104377217Y-122625005D01*
X104377213Y-122625006D01*
X104087935Y-122720395D01*
X104087930Y-122720397D01*
X104084112Y-122721656D01*
X103802039Y-122856501D01*
X103798669Y-122858677D01*
X103542758Y-123023915D01*
X103542750Y-123023921D01*
X103539386Y-123026093D01*
X103300411Y-123227685D01*
X103088989Y-123458008D01*
X102908546Y-123713329D01*
X102762008Y-123989508D01*
X102651751Y-124282068D01*
X102650822Y-124285983D01*
X102604523Y-124481082D01*
X102579561Y-124586267D01*
X102546609Y-124897172D01*
X70300000Y-124897172D01*
X70300000Y-94992611D01*
X109294394Y-94992611D01*
X109312999Y-95161135D01*
X109371266Y-95320356D01*
X109465830Y-95461083D01*
X109471442Y-95466190D01*
X109471445Y-95466193D01*
X109585612Y-95570077D01*
X109585616Y-95570080D01*
X109591233Y-95575191D01*
X109597906Y-95578814D01*
X109597910Y-95578817D01*
X109733558Y-95652467D01*
X109733560Y-95652468D01*
X109740235Y-95656092D01*
X109747584Y-95658020D01*
X109896883Y-95697188D01*
X109896885Y-95697188D01*
X109904233Y-95699116D01*
X109990609Y-95700473D01*
X110066161Y-95701660D01*
X110066164Y-95701660D01*
X110073760Y-95701779D01*
X110081165Y-95700083D01*
X110081166Y-95700083D01*
X110141586Y-95686245D01*
X110239029Y-95663928D01*
X110390498Y-95587747D01*
X110396270Y-95582818D01*
X110396272Y-95582816D01*
X110457304Y-95530689D01*
X110522094Y-95501658D01*
X110539135Y-95500500D01*
X114740496Y-95500500D01*
X114808617Y-95520502D01*
X114829591Y-95537405D01*
X120508966Y-101216780D01*
X120516432Y-101226124D01*
X120516822Y-101225792D01*
X120522640Y-101232628D01*
X120527430Y-101240220D01*
X120534158Y-101246162D01*
X120534159Y-101246163D01*
X120567100Y-101275255D01*
X120572788Y-101280602D01*
X120584007Y-101291821D01*
X120587595Y-101294510D01*
X120587596Y-101294511D01*
X120592184Y-101297950D01*
X120600023Y-101304332D01*
X120603664Y-101307547D01*
X120634888Y-101335123D01*
X120643006Y-101338934D01*
X120646159Y-101341006D01*
X120659180Y-101348829D01*
X120662489Y-101350641D01*
X120669676Y-101356027D01*
X120678081Y-101359178D01*
X120678083Y-101359179D01*
X120713237Y-101372357D01*
X120722557Y-101376284D01*
X120764663Y-101396053D01*
X120773535Y-101397434D01*
X120777158Y-101398542D01*
X120791817Y-101402388D01*
X120795514Y-101403201D01*
X120803920Y-101406352D01*
X120850343Y-101409802D01*
X120860356Y-101410952D01*
X120873509Y-101413000D01*
X120888704Y-101413000D01*
X120898042Y-101413346D01*
X120946892Y-101416976D01*
X120955668Y-101415103D01*
X120964625Y-101414492D01*
X120964625Y-101414498D01*
X120978818Y-101413000D01*
X125976938Y-101413000D01*
X126045059Y-101433002D01*
X126077300Y-101462819D01*
X126157078Y-101567922D01*
X126277217Y-101659113D01*
X126340832Y-101684300D01*
X126409923Y-101711655D01*
X126409925Y-101711656D01*
X126417453Y-101714636D01*
X126507228Y-101725500D01*
X127492772Y-101725500D01*
X127582547Y-101714636D01*
X127590075Y-101711656D01*
X127590077Y-101711655D01*
X127659168Y-101684300D01*
X127722783Y-101659113D01*
X127842922Y-101567922D01*
X127934113Y-101447783D01*
X127970442Y-101356027D01*
X127986655Y-101315077D01*
X127986656Y-101315075D01*
X127989636Y-101307547D01*
X128000500Y-101217772D01*
X128000500Y-100607228D01*
X127989636Y-100517453D01*
X127934113Y-100377217D01*
X127842922Y-100257078D01*
X127801259Y-100225454D01*
X127759092Y-100168336D01*
X127754500Y-100097488D01*
X127788939Y-100035404D01*
X127811136Y-100017947D01*
X127917807Y-99951937D01*
X127929208Y-99942901D01*
X128043739Y-99828171D01*
X128052751Y-99816760D01*
X128137816Y-99678757D01*
X128143963Y-99665576D01*
X128195138Y-99511290D01*
X128198005Y-99497914D01*
X128207672Y-99403562D01*
X128208000Y-99397146D01*
X128208000Y-99359615D01*
X128203525Y-99344376D01*
X128202135Y-99343171D01*
X128194452Y-99341500D01*
X125810116Y-99341500D01*
X125794877Y-99345975D01*
X125793672Y-99347365D01*
X125792001Y-99355048D01*
X125792001Y-99397095D01*
X125792338Y-99403614D01*
X125802257Y-99499206D01*
X125805149Y-99512600D01*
X125856588Y-99666784D01*
X125862761Y-99679962D01*
X125948063Y-99817807D01*
X125957099Y-99829208D01*
X126071829Y-99943739D01*
X126083240Y-99952751D01*
X126188741Y-100017782D01*
X126236234Y-100070554D01*
X126247658Y-100140625D01*
X126219384Y-100205749D01*
X126198805Y-100225404D01*
X126163918Y-100251885D01*
X126163913Y-100251890D01*
X126157078Y-100257078D01*
X126151890Y-100263913D01*
X126077301Y-100362180D01*
X126020183Y-100404347D01*
X125976938Y-100412000D01*
X121172004Y-100412000D01*
X121103883Y-100391998D01*
X121082909Y-100375095D01*
X119523199Y-98815385D01*
X125792000Y-98815385D01*
X125796475Y-98830624D01*
X125797865Y-98831829D01*
X125805548Y-98833500D01*
X126727885Y-98833500D01*
X126743124Y-98829025D01*
X126744329Y-98827635D01*
X126746000Y-98819952D01*
X126746000Y-98815385D01*
X127254000Y-98815385D01*
X127258475Y-98830624D01*
X127259865Y-98831829D01*
X127267548Y-98833500D01*
X128189884Y-98833500D01*
X128205123Y-98829025D01*
X128206328Y-98827635D01*
X128207999Y-98819952D01*
X128207999Y-98777905D01*
X128207662Y-98771386D01*
X128197743Y-98675794D01*
X128194851Y-98662400D01*
X128143412Y-98508216D01*
X128137239Y-98495038D01*
X128051937Y-98357193D01*
X128042901Y-98345792D01*
X127928171Y-98231261D01*
X127916760Y-98222249D01*
X127778757Y-98137184D01*
X127765576Y-98131037D01*
X127611290Y-98079862D01*
X127597914Y-98076995D01*
X127503562Y-98067328D01*
X127497145Y-98067000D01*
X127272115Y-98067000D01*
X127256876Y-98071475D01*
X127255671Y-98072865D01*
X127254000Y-98080548D01*
X127254000Y-98815385D01*
X126746000Y-98815385D01*
X126746000Y-98085116D01*
X126741525Y-98069877D01*
X126740135Y-98068672D01*
X126732452Y-98067001D01*
X126502905Y-98067001D01*
X126496386Y-98067338D01*
X126400794Y-98077257D01*
X126387400Y-98080149D01*
X126233216Y-98131588D01*
X126220038Y-98137761D01*
X126082193Y-98223063D01*
X126070792Y-98232099D01*
X125956261Y-98346829D01*
X125947249Y-98358240D01*
X125862184Y-98496243D01*
X125856037Y-98509424D01*
X125804862Y-98663710D01*
X125801995Y-98677086D01*
X125792328Y-98771438D01*
X125792000Y-98777855D01*
X125792000Y-98815385D01*
X119523199Y-98815385D01*
X115403534Y-94695720D01*
X115396068Y-94686376D01*
X115395678Y-94686708D01*
X115389860Y-94679872D01*
X115385070Y-94672280D01*
X115345399Y-94637244D01*
X115339712Y-94631898D01*
X115328494Y-94620680D01*
X115324905Y-94617990D01*
X115320316Y-94614550D01*
X115312477Y-94608168D01*
X115284339Y-94583318D01*
X115277612Y-94577377D01*
X115269489Y-94573563D01*
X115266336Y-94571492D01*
X115253324Y-94563673D01*
X115250005Y-94561856D01*
X115242824Y-94556474D01*
X115199261Y-94540143D01*
X115189947Y-94536217D01*
X115155966Y-94520263D01*
X115155963Y-94520262D01*
X115147837Y-94516447D01*
X115138963Y-94515065D01*
X115135350Y-94513961D01*
X115120693Y-94510115D01*
X115116990Y-94509301D01*
X115108580Y-94506148D01*
X115062157Y-94502698D01*
X115052144Y-94501548D01*
X115038991Y-94499500D01*
X115023796Y-94499500D01*
X115014459Y-94499154D01*
X114999036Y-94498008D01*
X114965608Y-94495524D01*
X114956832Y-94497397D01*
X114947875Y-94498008D01*
X114947875Y-94498002D01*
X114933682Y-94499500D01*
X110539309Y-94499500D01*
X110471188Y-94479498D01*
X110455499Y-94467583D01*
X110402721Y-94420560D01*
X110252881Y-94341224D01*
X110088441Y-94299919D01*
X110080843Y-94299879D01*
X110080841Y-94299879D01*
X110003668Y-94299475D01*
X109918895Y-94299031D01*
X109911508Y-94300805D01*
X109911504Y-94300805D01*
X109768162Y-94335220D01*
X109754032Y-94338612D01*
X109747288Y-94342093D01*
X109747285Y-94342094D01*
X109742089Y-94344776D01*
X109603369Y-94416375D01*
X109597647Y-94421367D01*
X109597645Y-94421368D01*
X109544676Y-94467576D01*
X109475604Y-94527831D01*
X109450414Y-94563673D01*
X109398707Y-94637245D01*
X109378113Y-94666547D01*
X109316524Y-94824513D01*
X109294394Y-94992611D01*
X70300000Y-94992611D01*
X70300000Y-69081407D01*
X71198559Y-69081407D01*
X71236511Y-69256942D01*
X71239489Y-69263328D01*
X71289444Y-69370457D01*
X71312409Y-69419707D01*
X71316726Y-69425273D01*
X71316727Y-69425274D01*
X71352280Y-69471108D01*
X71398099Y-69530177D01*
X72162595Y-70294673D01*
X72196621Y-70356985D01*
X72199500Y-70383768D01*
X72199500Y-89545155D01*
X72214454Y-89678472D01*
X72273515Y-89848073D01*
X72368684Y-90000375D01*
X72382287Y-90014073D01*
X72490267Y-90122810D01*
X72490271Y-90122813D01*
X72495230Y-90127807D01*
X72501176Y-90131581D01*
X72501178Y-90131582D01*
X72553140Y-90164558D01*
X72646864Y-90224037D01*
X72666890Y-90231168D01*
X72809414Y-90281919D01*
X72809419Y-90281920D01*
X72816049Y-90284281D01*
X72823035Y-90285114D01*
X72823039Y-90285115D01*
X72950823Y-90300352D01*
X72994376Y-90305545D01*
X73001379Y-90304809D01*
X73001380Y-90304809D01*
X73165975Y-90287510D01*
X73165979Y-90287509D01*
X73172983Y-90286773D01*
X73187242Y-90281919D01*
X73336323Y-90231168D01*
X73336326Y-90231167D01*
X73342993Y-90228897D01*
X73357036Y-90220258D01*
X73489955Y-90138485D01*
X73495955Y-90134794D01*
X73500986Y-90129868D01*
X73500989Y-90129865D01*
X73563117Y-90069024D01*
X73624268Y-90009141D01*
X73629918Y-90000375D01*
X73717735Y-89864109D01*
X73721554Y-89858183D01*
X73782978Y-89689422D01*
X73800500Y-89550717D01*
X73800500Y-86994376D01*
X79694455Y-86994376D01*
X79713227Y-87172983D01*
X79771103Y-87342993D01*
X79865206Y-87495955D01*
X79870132Y-87500986D01*
X79870135Y-87500989D01*
X79873838Y-87504770D01*
X79990859Y-87624268D01*
X79996784Y-87628087D01*
X79996786Y-87628088D01*
X80135891Y-87717735D01*
X80141817Y-87721554D01*
X80148437Y-87723963D01*
X80148440Y-87723965D01*
X80303961Y-87780570D01*
X80303964Y-87780571D01*
X80310578Y-87782978D01*
X80337121Y-87786331D01*
X80445355Y-87800004D01*
X80445358Y-87800004D01*
X80449283Y-87800500D01*
X106045155Y-87800500D01*
X106178472Y-87785546D01*
X106185847Y-87782978D01*
X106253451Y-87759436D01*
X106348073Y-87726485D01*
X106355965Y-87721554D01*
X106494401Y-87635049D01*
X106500375Y-87631316D01*
X106564365Y-87567771D01*
X106622810Y-87509733D01*
X106622813Y-87509729D01*
X106627807Y-87504770D01*
X106724037Y-87353136D01*
X106734643Y-87323352D01*
X106781919Y-87190586D01*
X106781920Y-87190581D01*
X106784281Y-87183951D01*
X106785114Y-87176965D01*
X106785115Y-87176961D01*
X106804711Y-87012617D01*
X106805545Y-87005624D01*
X106786773Y-86827017D01*
X106728897Y-86657007D01*
X106634794Y-86504045D01*
X106629868Y-86499014D01*
X106629865Y-86499011D01*
X106569024Y-86436883D01*
X106509141Y-86375732D01*
X106492413Y-86364951D01*
X106364109Y-86282265D01*
X106358183Y-86278446D01*
X106351563Y-86276037D01*
X106351560Y-86276035D01*
X106196039Y-86219430D01*
X106196036Y-86219429D01*
X106189422Y-86217022D01*
X106132692Y-86209856D01*
X106054645Y-86199996D01*
X106054642Y-86199996D01*
X106050717Y-86199500D01*
X80454845Y-86199500D01*
X80321528Y-86214454D01*
X80314875Y-86216771D01*
X80314874Y-86216771D01*
X80246549Y-86240564D01*
X80151927Y-86273515D01*
X80145953Y-86277248D01*
X80145951Y-86277249D01*
X80137924Y-86282265D01*
X79999625Y-86368684D01*
X79935635Y-86432229D01*
X79877190Y-86490267D01*
X79877187Y-86490271D01*
X79872193Y-86495230D01*
X79775963Y-86646864D01*
X79773598Y-86653506D01*
X79718081Y-86809414D01*
X79718080Y-86809419D01*
X79715719Y-86816049D01*
X79714886Y-86823035D01*
X79714885Y-86823039D01*
X79699648Y-86950823D01*
X79694455Y-86994376D01*
X73800500Y-86994376D01*
X73800500Y-84494376D01*
X79694455Y-84494376D01*
X79713227Y-84672983D01*
X79771103Y-84842993D01*
X79865206Y-84995955D01*
X79870132Y-85000986D01*
X79870135Y-85000989D01*
X79873838Y-85004770D01*
X79990859Y-85124268D01*
X79996784Y-85128087D01*
X79996786Y-85128088D01*
X80135891Y-85217735D01*
X80141817Y-85221554D01*
X80148437Y-85223963D01*
X80148440Y-85223965D01*
X80303961Y-85280570D01*
X80303964Y-85280571D01*
X80310578Y-85282978D01*
X80337121Y-85286331D01*
X80445355Y-85300004D01*
X80445358Y-85300004D01*
X80449283Y-85300500D01*
X109545155Y-85300500D01*
X109678472Y-85285546D01*
X109685847Y-85282978D01*
X109753451Y-85259436D01*
X109848073Y-85226485D01*
X109855965Y-85221554D01*
X109994401Y-85135049D01*
X110000375Y-85131316D01*
X110064365Y-85067771D01*
X110122810Y-85009733D01*
X110122813Y-85009729D01*
X110127807Y-85004770D01*
X110224037Y-84853136D01*
X110234643Y-84823352D01*
X110281919Y-84690586D01*
X110281920Y-84690581D01*
X110284281Y-84683951D01*
X110285114Y-84676965D01*
X110285115Y-84676961D01*
X110304711Y-84512617D01*
X110305545Y-84505624D01*
X110286773Y-84327017D01*
X110228897Y-84157007D01*
X110134794Y-84004045D01*
X110129868Y-83999014D01*
X110129865Y-83999011D01*
X110069024Y-83936883D01*
X110009141Y-83875732D01*
X109992413Y-83864951D01*
X109864109Y-83782265D01*
X109858183Y-83778446D01*
X109851563Y-83776037D01*
X109851560Y-83776035D01*
X109696039Y-83719430D01*
X109696036Y-83719429D01*
X109689422Y-83717022D01*
X109632692Y-83709856D01*
X109554645Y-83699996D01*
X109554642Y-83699996D01*
X109550717Y-83699500D01*
X80454845Y-83699500D01*
X80321528Y-83714454D01*
X80314875Y-83716771D01*
X80314874Y-83716771D01*
X80246549Y-83740564D01*
X80151927Y-83773515D01*
X80145953Y-83777248D01*
X80145951Y-83777249D01*
X80137924Y-83782265D01*
X79999625Y-83868684D01*
X79935635Y-83932229D01*
X79877190Y-83990267D01*
X79877187Y-83990271D01*
X79872193Y-83995230D01*
X79775963Y-84146864D01*
X79773598Y-84153506D01*
X79718081Y-84309414D01*
X79718080Y-84309419D01*
X79715719Y-84316049D01*
X79714886Y-84323035D01*
X79714885Y-84323039D01*
X79699648Y-84450823D01*
X79694455Y-84494376D01*
X73800500Y-84494376D01*
X73800500Y-74897172D01*
X102546609Y-74897172D01*
X102546696Y-74901174D01*
X102546696Y-74901181D01*
X102551096Y-75102828D01*
X102553429Y-75209745D01*
X102599911Y-75518918D01*
X102685301Y-75819678D01*
X102808215Y-76107150D01*
X102810245Y-76110603D01*
X102810249Y-76110611D01*
X102964627Y-76373215D01*
X102964631Y-76373221D01*
X102966661Y-76376674D01*
X103158069Y-76623881D01*
X103379336Y-76844763D01*
X103626877Y-77035739D01*
X103630336Y-77037765D01*
X103630340Y-77037767D01*
X103807200Y-77141323D01*
X103896677Y-77193714D01*
X103900362Y-77195282D01*
X103900370Y-77195286D01*
X104091490Y-77276608D01*
X104184363Y-77316126D01*
X104313468Y-77352537D01*
X104481405Y-77399901D01*
X104481414Y-77399903D01*
X104485272Y-77400991D01*
X104489245Y-77401581D01*
X104489244Y-77401581D01*
X104791226Y-77446443D01*
X104791228Y-77446443D01*
X104794525Y-77446933D01*
X104797856Y-77447073D01*
X104797860Y-77447073D01*
X104835186Y-77448637D01*
X104879631Y-77450500D01*
X105079085Y-77450500D01*
X105218566Y-77441602D01*
X105308004Y-77435897D01*
X105308008Y-77435896D01*
X105312013Y-77435641D01*
X105315947Y-77434880D01*
X105315954Y-77434879D01*
X105470710Y-77404937D01*
X105618968Y-77376253D01*
X105622783Y-77374995D01*
X105622787Y-77374994D01*
X105912065Y-77279605D01*
X105912070Y-77279603D01*
X105915888Y-77278344D01*
X106197961Y-77143499D01*
X106211329Y-77134867D01*
X106457242Y-76976085D01*
X106457250Y-76976079D01*
X106460614Y-76973907D01*
X106699589Y-76772315D01*
X106911011Y-76541992D01*
X107091454Y-76286671D01*
X107237992Y-76010492D01*
X107348249Y-75717932D01*
X107394560Y-75522783D01*
X107419510Y-75417649D01*
X107419511Y-75417644D01*
X107420439Y-75413733D01*
X107453391Y-75102828D01*
X107448992Y-74901181D01*
X107446659Y-74794272D01*
X107446659Y-74794266D01*
X107446571Y-74790255D01*
X107400089Y-74481082D01*
X107314699Y-74180322D01*
X107191785Y-73892850D01*
X107189755Y-73889397D01*
X107189751Y-73889389D01*
X107035373Y-73626785D01*
X107035369Y-73626779D01*
X107033339Y-73623326D01*
X106841931Y-73376119D01*
X106671191Y-73205676D01*
X106623505Y-73158073D01*
X106620664Y-73155237D01*
X106566867Y-73113733D01*
X106376304Y-72966715D01*
X106376303Y-72966714D01*
X106373123Y-72964261D01*
X106369664Y-72962235D01*
X106369660Y-72962233D01*
X106106788Y-72808315D01*
X106103323Y-72806286D01*
X106099638Y-72804718D01*
X106099630Y-72804714D01*
X105871284Y-72707552D01*
X105815637Y-72683874D01*
X105672538Y-72643516D01*
X105518595Y-72600099D01*
X105518586Y-72600097D01*
X105514728Y-72599009D01*
X105281486Y-72564359D01*
X105208774Y-72553557D01*
X105208772Y-72553557D01*
X105205475Y-72553067D01*
X105202144Y-72552927D01*
X105202140Y-72552927D01*
X105164814Y-72551363D01*
X105120369Y-72549500D01*
X104920915Y-72549500D01*
X104781434Y-72558398D01*
X104691996Y-72564103D01*
X104691992Y-72564104D01*
X104687987Y-72564359D01*
X104684053Y-72565120D01*
X104684046Y-72565121D01*
X104535161Y-72593927D01*
X104381032Y-72623747D01*
X104377217Y-72625005D01*
X104377213Y-72625006D01*
X104087935Y-72720395D01*
X104087930Y-72720397D01*
X104084112Y-72721656D01*
X103802039Y-72856501D01*
X103798669Y-72858677D01*
X103542758Y-73023915D01*
X103542750Y-73023921D01*
X103539386Y-73026093D01*
X103536321Y-73028678D01*
X103536319Y-73028680D01*
X103311593Y-73218252D01*
X103300411Y-73227685D01*
X103221393Y-73313767D01*
X103149833Y-73391725D01*
X103088989Y-73458008D01*
X102908546Y-73713329D01*
X102762008Y-73989508D01*
X102651751Y-74282068D01*
X102650822Y-74285983D01*
X102604523Y-74481082D01*
X102579561Y-74586267D01*
X102546609Y-74897172D01*
X73800500Y-74897172D01*
X73800500Y-72238233D01*
X119144906Y-72238233D01*
X119171102Y-72512792D01*
X119172187Y-72517226D01*
X119172188Y-72517232D01*
X119222635Y-72723392D01*
X119236657Y-72780694D01*
X119340199Y-73036326D01*
X119342500Y-73040256D01*
X119342503Y-73040262D01*
X119477255Y-73270403D01*
X119477260Y-73270410D01*
X119479558Y-73274335D01*
X119482405Y-73277895D01*
X119626446Y-73458008D01*
X119651816Y-73489732D01*
X119655157Y-73492853D01*
X119791431Y-73620153D01*
X119853364Y-73678008D01*
X120079979Y-73835216D01*
X120084055Y-73837244D01*
X120084057Y-73837245D01*
X120322827Y-73956032D01*
X120322830Y-73956033D01*
X120326914Y-73958065D01*
X120588998Y-74043980D01*
X120593489Y-74044760D01*
X120593490Y-74044760D01*
X120856957Y-74090506D01*
X120856965Y-74090507D01*
X120860738Y-74091162D01*
X120864575Y-74091353D01*
X120946305Y-74095422D01*
X120946313Y-74095422D01*
X120947876Y-74095500D01*
X121120070Y-74095500D01*
X121122338Y-74095335D01*
X121122350Y-74095335D01*
X121256603Y-74085594D01*
X121325083Y-74080625D01*
X121329538Y-74079641D01*
X121329541Y-74079641D01*
X121589947Y-74022148D01*
X121589950Y-74022147D01*
X121594403Y-74021164D01*
X121852319Y-73923449D01*
X122093428Y-73789525D01*
X122312678Y-73622198D01*
X122315873Y-73618930D01*
X122502283Y-73428242D01*
X122502287Y-73428237D01*
X122505477Y-73424974D01*
X122508166Y-73421280D01*
X122665100Y-73205676D01*
X122665102Y-73205673D01*
X122667787Y-73201984D01*
X122796206Y-72957899D01*
X122888045Y-72697832D01*
X122914403Y-72564103D01*
X122940499Y-72431704D01*
X122940500Y-72431698D01*
X122941380Y-72427232D01*
X122944460Y-72365364D01*
X122954867Y-72156336D01*
X122954867Y-72156330D01*
X122955094Y-72151767D01*
X122928898Y-71877208D01*
X122922792Y-71852252D01*
X122864429Y-71613744D01*
X122863343Y-71609306D01*
X122759801Y-71353674D01*
X122757500Y-71349744D01*
X122757497Y-71349738D01*
X122622745Y-71119597D01*
X122622740Y-71119590D01*
X122620442Y-71115665D01*
X122502927Y-70968720D01*
X122451036Y-70903834D01*
X122451035Y-70903833D01*
X122448184Y-70900268D01*
X122246636Y-70711992D01*
X122020021Y-70554784D01*
X121842667Y-70466551D01*
X121777173Y-70433968D01*
X121777170Y-70433967D01*
X121773086Y-70431935D01*
X121511002Y-70346020D01*
X121506510Y-70345240D01*
X121243043Y-70299494D01*
X121243035Y-70299493D01*
X121239262Y-70298838D01*
X121229029Y-70298329D01*
X121153695Y-70294578D01*
X121153687Y-70294578D01*
X121152124Y-70294500D01*
X120979930Y-70294500D01*
X120977662Y-70294665D01*
X120977650Y-70294665D01*
X120843397Y-70304406D01*
X120774917Y-70309375D01*
X120770462Y-70310359D01*
X120770459Y-70310359D01*
X120510053Y-70367852D01*
X120510050Y-70367853D01*
X120505597Y-70368836D01*
X120247681Y-70466551D01*
X120006572Y-70600475D01*
X119787322Y-70767802D01*
X119784129Y-70771068D01*
X119784127Y-70771070D01*
X119597717Y-70961758D01*
X119597713Y-70961763D01*
X119594523Y-70965026D01*
X119432213Y-71188016D01*
X119303794Y-71432101D01*
X119211955Y-71692168D01*
X119200317Y-71751214D01*
X119161475Y-71948285D01*
X119158620Y-71962768D01*
X119158393Y-71967322D01*
X119158393Y-71967324D01*
X119145901Y-72218252D01*
X119144906Y-72238233D01*
X73800500Y-72238233D01*
X73800500Y-70009129D01*
X73800507Y-70007810D01*
X73801367Y-69925635D01*
X73801441Y-69918593D01*
X73799953Y-69911709D01*
X73792384Y-69876698D01*
X73790324Y-69864120D01*
X73786331Y-69828522D01*
X73786330Y-69828518D01*
X73785546Y-69821528D01*
X73783230Y-69814876D01*
X73774654Y-69790247D01*
X73770492Y-69775442D01*
X73764978Y-69749940D01*
X73763490Y-69743058D01*
X73745373Y-69704206D01*
X73740579Y-69692401D01*
X73728801Y-69658578D01*
X73726485Y-69651927D01*
X73708933Y-69623838D01*
X73701592Y-69610318D01*
X73690566Y-69586673D01*
X73687591Y-69580293D01*
X73661319Y-69546424D01*
X73654031Y-69535977D01*
X73650407Y-69530177D01*
X73631316Y-69499625D01*
X73602998Y-69471108D01*
X73602416Y-69470486D01*
X73601902Y-69469824D01*
X73576041Y-69443963D01*
X73504770Y-69372193D01*
X73503743Y-69371541D01*
X73502535Y-69370457D01*
X72534110Y-68402032D01*
X72531367Y-68399843D01*
X72531360Y-68399836D01*
X72434770Y-68322730D01*
X72429266Y-68318336D01*
X72416853Y-68312335D01*
X72273920Y-68243239D01*
X72273921Y-68243239D01*
X72267578Y-68240173D01*
X72092589Y-68199774D01*
X72085551Y-68199749D01*
X72085547Y-68199749D01*
X72000651Y-68199453D01*
X71913000Y-68199147D01*
X71903109Y-68201358D01*
X71744613Y-68236786D01*
X71744612Y-68236786D01*
X71737733Y-68238324D01*
X71575503Y-68315357D01*
X71569967Y-68319713D01*
X71569966Y-68319714D01*
X71439910Y-68422057D01*
X71439908Y-68422059D01*
X71434370Y-68426417D01*
X71321350Y-68565985D01*
X71242059Y-68727125D01*
X71200440Y-68901826D01*
X71198559Y-69081407D01*
X70300000Y-69081407D01*
X70300000Y-63550000D01*
X118744564Y-63550000D01*
X118764287Y-63850920D01*
X118823120Y-64146691D01*
X118920055Y-64432252D01*
X119053434Y-64702718D01*
X119220975Y-64953461D01*
X119223689Y-64956555D01*
X119223693Y-64956561D01*
X119417102Y-65177100D01*
X119419811Y-65180189D01*
X119422900Y-65182898D01*
X119643439Y-65376307D01*
X119643445Y-65376311D01*
X119646539Y-65379025D01*
X119649965Y-65381314D01*
X119649970Y-65381318D01*
X119837533Y-65506643D01*
X119897282Y-65546566D01*
X119900981Y-65548390D01*
X119900986Y-65548393D01*
X120039834Y-65616865D01*
X120167748Y-65679945D01*
X120171653Y-65681271D01*
X120171654Y-65681271D01*
X120449396Y-65775552D01*
X120449400Y-65775553D01*
X120453309Y-65776880D01*
X120457353Y-65777684D01*
X120457359Y-65777686D01*
X120745041Y-65834910D01*
X120745047Y-65834911D01*
X120749080Y-65835713D01*
X120753185Y-65835982D01*
X120753192Y-65835983D01*
X121045881Y-65855166D01*
X121050000Y-65855436D01*
X121054119Y-65855166D01*
X121346805Y-65835983D01*
X121346809Y-65835982D01*
X121350920Y-65835713D01*
X121354960Y-65834909D01*
X121354963Y-65834909D01*
X121406317Y-65824694D01*
X121477031Y-65831022D01*
X121519993Y-65859178D01*
X128662595Y-73001779D01*
X128696621Y-73064091D01*
X128699500Y-73090874D01*
X128699500Y-125986215D01*
X128699499Y-125986221D01*
X128699499Y-126213779D01*
X128700455Y-126219200D01*
X128708442Y-126264499D01*
X128709876Y-126275396D01*
X128713884Y-126321202D01*
X128713885Y-126321210D01*
X128714365Y-126326692D01*
X128715789Y-126332005D01*
X128727693Y-126376433D01*
X128730072Y-126387164D01*
X128739015Y-126437880D01*
X128740895Y-126443045D01*
X128740897Y-126443053D01*
X128756626Y-126486267D01*
X128759932Y-126496752D01*
X128771836Y-126541180D01*
X128771838Y-126541186D01*
X128773261Y-126546496D01*
X128795026Y-126593171D01*
X128799232Y-126603327D01*
X128816844Y-126651715D01*
X128819596Y-126656481D01*
X128819597Y-126656484D01*
X128842598Y-126696323D01*
X128847664Y-126706054D01*
X128869432Y-126752734D01*
X128898973Y-126794924D01*
X128904864Y-126804170D01*
X128930623Y-126848786D01*
X128934162Y-126853003D01*
X128963721Y-126888230D01*
X128970411Y-126896947D01*
X128999953Y-126939139D01*
X129160861Y-127100047D01*
X129160863Y-127100048D01*
X129160867Y-127100052D01*
X138040822Y-135980006D01*
X138074848Y-136042318D01*
X138075306Y-136093682D01*
X138064287Y-136149080D01*
X138044564Y-136450000D01*
X138064287Y-136750920D01*
X138123120Y-137046691D01*
X138220055Y-137332252D01*
X138353434Y-137602718D01*
X138355728Y-137606151D01*
X138515336Y-137845021D01*
X138520975Y-137853461D01*
X138523689Y-137856555D01*
X138523693Y-137856561D01*
X138594797Y-137937639D01*
X138719811Y-138080189D01*
X138722900Y-138082898D01*
X138943439Y-138276307D01*
X138943445Y-138276311D01*
X138946539Y-138279025D01*
X138949965Y-138281314D01*
X138949970Y-138281318D01*
X139137533Y-138406643D01*
X139197282Y-138446566D01*
X139200981Y-138448390D01*
X139200986Y-138448393D01*
X139339834Y-138516865D01*
X139467748Y-138579945D01*
X139471653Y-138581271D01*
X139471654Y-138581271D01*
X139749396Y-138675552D01*
X139749400Y-138675553D01*
X139753309Y-138676880D01*
X139757353Y-138677684D01*
X139757359Y-138677686D01*
X140045041Y-138734910D01*
X140045047Y-138734911D01*
X140049080Y-138735713D01*
X140053185Y-138735982D01*
X140053192Y-138735983D01*
X140345881Y-138755166D01*
X140350000Y-138755436D01*
X140354119Y-138755166D01*
X140646808Y-138735983D01*
X140646815Y-138735982D01*
X140650920Y-138735713D01*
X140654953Y-138734911D01*
X140654959Y-138734910D01*
X140942641Y-138677686D01*
X140942647Y-138677684D01*
X140946691Y-138676880D01*
X140950600Y-138675553D01*
X140950604Y-138675552D01*
X141228346Y-138581271D01*
X141228347Y-138581271D01*
X141232252Y-138579945D01*
X141360166Y-138516865D01*
X141499014Y-138448393D01*
X141499019Y-138448390D01*
X141502718Y-138446566D01*
X141562467Y-138406643D01*
X141750030Y-138281318D01*
X141750035Y-138281314D01*
X141753461Y-138279025D01*
X141756555Y-138276311D01*
X141756561Y-138276307D01*
X141977100Y-138082898D01*
X141980189Y-138080189D01*
X142105203Y-137937639D01*
X142176307Y-137856561D01*
X142176311Y-137856555D01*
X142179025Y-137853461D01*
X142184665Y-137845021D01*
X142344272Y-137606151D01*
X142346566Y-137602718D01*
X142479945Y-137332252D01*
X142576880Y-137046691D01*
X142635713Y-136750920D01*
X142655436Y-136450000D01*
X142635713Y-136149080D01*
X142585263Y-135895449D01*
X142577686Y-135857359D01*
X142577684Y-135857353D01*
X142576880Y-135853309D01*
X142487104Y-135588836D01*
X142481271Y-135571654D01*
X142481271Y-135571653D01*
X142479945Y-135567748D01*
X142346566Y-135297282D01*
X142179025Y-135046539D01*
X142176311Y-135043445D01*
X142176307Y-135043439D01*
X141982898Y-134822900D01*
X141980189Y-134819811D01*
X141936275Y-134781299D01*
X141756561Y-134623693D01*
X141756555Y-134623689D01*
X141753461Y-134620975D01*
X141750035Y-134618686D01*
X141750030Y-134618682D01*
X141506151Y-134455728D01*
X141502718Y-134453434D01*
X141499019Y-134451610D01*
X141499014Y-134451607D01*
X141360166Y-134383135D01*
X141232252Y-134320055D01*
X141228346Y-134318729D01*
X140950604Y-134224448D01*
X140950600Y-134224447D01*
X140946691Y-134223120D01*
X140942647Y-134222316D01*
X140942641Y-134222314D01*
X140654959Y-134165090D01*
X140654953Y-134165089D01*
X140650920Y-134164287D01*
X140646815Y-134164018D01*
X140646808Y-134164017D01*
X140354119Y-134144834D01*
X140350000Y-134144564D01*
X140345881Y-134144834D01*
X140053195Y-134164017D01*
X140053191Y-134164018D01*
X140049080Y-134164287D01*
X140045040Y-134165091D01*
X140045037Y-134165091D01*
X139993682Y-134175306D01*
X139922968Y-134168978D01*
X139880006Y-134140822D01*
X133587418Y-127848233D01*
X138444906Y-127848233D01*
X138471102Y-128122792D01*
X138472187Y-128127226D01*
X138472188Y-128127232D01*
X138515288Y-128303366D01*
X138536657Y-128390694D01*
X138640199Y-128646326D01*
X138642500Y-128650256D01*
X138642503Y-128650262D01*
X138777255Y-128880403D01*
X138777260Y-128880410D01*
X138779558Y-128884335D01*
X138782405Y-128887895D01*
X138900028Y-129034974D01*
X138951816Y-129099732D01*
X138955157Y-129102853D01*
X139075135Y-129214930D01*
X139153364Y-129288008D01*
X139379979Y-129445216D01*
X139384055Y-129447244D01*
X139384057Y-129447245D01*
X139622827Y-129566032D01*
X139622830Y-129566033D01*
X139626914Y-129568065D01*
X139888998Y-129653980D01*
X139893489Y-129654760D01*
X139893490Y-129654760D01*
X140156957Y-129700506D01*
X140156965Y-129700507D01*
X140160738Y-129701162D01*
X140164575Y-129701353D01*
X140246305Y-129705422D01*
X140246313Y-129705422D01*
X140247876Y-129705500D01*
X140420070Y-129705500D01*
X140422338Y-129705335D01*
X140422350Y-129705335D01*
X140556603Y-129695594D01*
X140625083Y-129690625D01*
X140629538Y-129689641D01*
X140629541Y-129689641D01*
X140889947Y-129632148D01*
X140889950Y-129632147D01*
X140894403Y-129631164D01*
X141152319Y-129533449D01*
X141273821Y-129465961D01*
X141389435Y-129401743D01*
X141389436Y-129401742D01*
X141393428Y-129399525D01*
X141612678Y-129232198D01*
X141634378Y-129210000D01*
X141802283Y-129038242D01*
X141802287Y-129038237D01*
X141805477Y-129034974D01*
X141808166Y-129031280D01*
X141965100Y-128815676D01*
X141965102Y-128815673D01*
X141967787Y-128811984D01*
X142096206Y-128567899D01*
X142188045Y-128307832D01*
X142224516Y-128122792D01*
X142240499Y-128041704D01*
X142240500Y-128041698D01*
X142241380Y-128037232D01*
X142245649Y-127951481D01*
X142254867Y-127766336D01*
X142254867Y-127766330D01*
X142255094Y-127761767D01*
X142228898Y-127487208D01*
X142221565Y-127457238D01*
X142164429Y-127223744D01*
X142163343Y-127219306D01*
X142059801Y-126963674D01*
X142057500Y-126959744D01*
X142057497Y-126959738D01*
X141922745Y-126729597D01*
X141922740Y-126729590D01*
X141920442Y-126725665D01*
X141865116Y-126656484D01*
X141751036Y-126513834D01*
X141751035Y-126513833D01*
X141748184Y-126510268D01*
X141616402Y-126387164D01*
X141549972Y-126325108D01*
X141549969Y-126325106D01*
X141546636Y-126321992D01*
X141320021Y-126164784D01*
X141204173Y-126107150D01*
X141077173Y-126043968D01*
X141077170Y-126043967D01*
X141073086Y-126041935D01*
X140811002Y-125956020D01*
X140806510Y-125955240D01*
X140543043Y-125909494D01*
X140543035Y-125909493D01*
X140539262Y-125908838D01*
X140529029Y-125908329D01*
X140453695Y-125904578D01*
X140453687Y-125904578D01*
X140452124Y-125904500D01*
X140279930Y-125904500D01*
X140277662Y-125904665D01*
X140277650Y-125904665D01*
X140143397Y-125914406D01*
X140074917Y-125919375D01*
X140070462Y-125920359D01*
X140070459Y-125920359D01*
X139810053Y-125977852D01*
X139810050Y-125977853D01*
X139805597Y-125978836D01*
X139547681Y-126076551D01*
X139306572Y-126210475D01*
X139087322Y-126377802D01*
X139084129Y-126381068D01*
X139084127Y-126381070D01*
X138897717Y-126571758D01*
X138897713Y-126571763D01*
X138894523Y-126575026D01*
X138891836Y-126578718D01*
X138891834Y-126578720D01*
X138749036Y-126774904D01*
X138732213Y-126798016D01*
X138603794Y-127042101D01*
X138511955Y-127302168D01*
X138511075Y-127306634D01*
X138462516Y-127553003D01*
X138458620Y-127572768D01*
X138458393Y-127577322D01*
X138458393Y-127577324D01*
X138445164Y-127843053D01*
X138444906Y-127848233D01*
X133587418Y-127848233D01*
X131337405Y-125598220D01*
X131303379Y-125535908D01*
X131300500Y-125509125D01*
X131300500Y-72613791D01*
X131300501Y-72613767D01*
X131300501Y-72386221D01*
X131295343Y-72356970D01*
X131291558Y-72335501D01*
X131290124Y-72324604D01*
X131286116Y-72278798D01*
X131286115Y-72278790D01*
X131285635Y-72273308D01*
X131276237Y-72238233D01*
X138444906Y-72238233D01*
X138471102Y-72512792D01*
X138472187Y-72517226D01*
X138472188Y-72517232D01*
X138522635Y-72723392D01*
X138536657Y-72780694D01*
X138640199Y-73036326D01*
X138642500Y-73040256D01*
X138642503Y-73040262D01*
X138777255Y-73270403D01*
X138777260Y-73270410D01*
X138779558Y-73274335D01*
X138782405Y-73277895D01*
X138926446Y-73458008D01*
X138951816Y-73489732D01*
X138955157Y-73492853D01*
X139091431Y-73620153D01*
X139153364Y-73678008D01*
X139379979Y-73835216D01*
X139384055Y-73837244D01*
X139384057Y-73837245D01*
X139622827Y-73956032D01*
X139622830Y-73956033D01*
X139626914Y-73958065D01*
X139888998Y-74043980D01*
X139893489Y-74044760D01*
X139893490Y-74044760D01*
X140156957Y-74090506D01*
X140156965Y-74090507D01*
X140160738Y-74091162D01*
X140164575Y-74091353D01*
X140246305Y-74095422D01*
X140246313Y-74095422D01*
X140247876Y-74095500D01*
X140420070Y-74095500D01*
X140422338Y-74095335D01*
X140422350Y-74095335D01*
X140556603Y-74085594D01*
X140625083Y-74080625D01*
X140629538Y-74079641D01*
X140629541Y-74079641D01*
X140889947Y-74022148D01*
X140889950Y-74022147D01*
X140894403Y-74021164D01*
X141152319Y-73923449D01*
X141393428Y-73789525D01*
X141612678Y-73622198D01*
X141615873Y-73618930D01*
X141802283Y-73428242D01*
X141802287Y-73428237D01*
X141805477Y-73424974D01*
X141808166Y-73421280D01*
X141965100Y-73205676D01*
X141965102Y-73205673D01*
X141967787Y-73201984D01*
X142096206Y-72957899D01*
X142188045Y-72697832D01*
X142214403Y-72564103D01*
X142240499Y-72431704D01*
X142240500Y-72431698D01*
X142241380Y-72427232D01*
X142244460Y-72365364D01*
X142254867Y-72156336D01*
X142254867Y-72156330D01*
X142255094Y-72151767D01*
X142228898Y-71877208D01*
X142222792Y-71852252D01*
X142164429Y-71613744D01*
X142163343Y-71609306D01*
X142059801Y-71353674D01*
X142057500Y-71349744D01*
X142057497Y-71349738D01*
X141922745Y-71119597D01*
X141922740Y-71119590D01*
X141920442Y-71115665D01*
X141802927Y-70968720D01*
X141751036Y-70903834D01*
X141751035Y-70903833D01*
X141748184Y-70900268D01*
X141546636Y-70711992D01*
X141320021Y-70554784D01*
X141142667Y-70466551D01*
X141077173Y-70433968D01*
X141077170Y-70433967D01*
X141073086Y-70431935D01*
X140811002Y-70346020D01*
X140806510Y-70345240D01*
X140543043Y-70299494D01*
X140543035Y-70299493D01*
X140539262Y-70298838D01*
X140529029Y-70298329D01*
X140453695Y-70294578D01*
X140453687Y-70294578D01*
X140452124Y-70294500D01*
X140279930Y-70294500D01*
X140277662Y-70294665D01*
X140277650Y-70294665D01*
X140143397Y-70304406D01*
X140074917Y-70309375D01*
X140070462Y-70310359D01*
X140070459Y-70310359D01*
X139810053Y-70367852D01*
X139810050Y-70367853D01*
X139805597Y-70368836D01*
X139547681Y-70466551D01*
X139306572Y-70600475D01*
X139087322Y-70767802D01*
X139084129Y-70771068D01*
X139084127Y-70771070D01*
X138897717Y-70961758D01*
X138897713Y-70961763D01*
X138894523Y-70965026D01*
X138732213Y-71188016D01*
X138603794Y-71432101D01*
X138511955Y-71692168D01*
X138500317Y-71751214D01*
X138461475Y-71948285D01*
X138458620Y-71962768D01*
X138458393Y-71967322D01*
X138458393Y-71967324D01*
X138445901Y-72218252D01*
X138444906Y-72238233D01*
X131276237Y-72238233D01*
X131272306Y-72223564D01*
X131269928Y-72212836D01*
X131261940Y-72167537D01*
X131260985Y-72162120D01*
X131259105Y-72156955D01*
X131259103Y-72156947D01*
X131243374Y-72113733D01*
X131240068Y-72103248D01*
X131228164Y-72058820D01*
X131228162Y-72058814D01*
X131226739Y-72053504D01*
X131204973Y-72006826D01*
X131200768Y-71996673D01*
X131185039Y-71953456D01*
X131185035Y-71953447D01*
X131183156Y-71948285D01*
X131157405Y-71903683D01*
X131152330Y-71893934D01*
X131132893Y-71852252D01*
X131130568Y-71847266D01*
X131101023Y-71805069D01*
X131095127Y-71795814D01*
X131072129Y-71755981D01*
X131072125Y-71755976D01*
X131069376Y-71751214D01*
X131036266Y-71711755D01*
X131029599Y-71703066D01*
X131000047Y-71660861D01*
X130839139Y-71499953D01*
X130839134Y-71499950D01*
X130839126Y-71499942D01*
X123359178Y-64019993D01*
X123325152Y-63957681D01*
X123324694Y-63906317D01*
X123334909Y-63854963D01*
X123334910Y-63854959D01*
X123335713Y-63850920D01*
X123355436Y-63550000D01*
X138044564Y-63550000D01*
X138064287Y-63850920D01*
X138123120Y-64146691D01*
X138220055Y-64432252D01*
X138353434Y-64702718D01*
X138520975Y-64953461D01*
X138523689Y-64956555D01*
X138523693Y-64956561D01*
X138717102Y-65177100D01*
X138719811Y-65180189D01*
X138722900Y-65182898D01*
X138943439Y-65376307D01*
X138943445Y-65376311D01*
X138946539Y-65379025D01*
X138949965Y-65381314D01*
X138949970Y-65381318D01*
X139137533Y-65506643D01*
X139197282Y-65546566D01*
X139200981Y-65548390D01*
X139200986Y-65548393D01*
X139339834Y-65616865D01*
X139467748Y-65679945D01*
X139471653Y-65681271D01*
X139471654Y-65681271D01*
X139749396Y-65775552D01*
X139749400Y-65775553D01*
X139753309Y-65776880D01*
X139757353Y-65777684D01*
X139757359Y-65777686D01*
X140045041Y-65834910D01*
X140045047Y-65834911D01*
X140049080Y-65835713D01*
X140053185Y-65835982D01*
X140053192Y-65835983D01*
X140345881Y-65855166D01*
X140350000Y-65855436D01*
X140354119Y-65855166D01*
X140646805Y-65835983D01*
X140646809Y-65835982D01*
X140650920Y-65835713D01*
X140654960Y-65834909D01*
X140654963Y-65834909D01*
X140706317Y-65824694D01*
X140777031Y-65831022D01*
X140819993Y-65859178D01*
X148662595Y-73701780D01*
X148696621Y-73764092D01*
X148699500Y-73790875D01*
X148699500Y-126686215D01*
X148699499Y-126686221D01*
X148699499Y-126913779D01*
X148700455Y-126919200D01*
X148708442Y-126964499D01*
X148709876Y-126975396D01*
X148713884Y-127021202D01*
X148713885Y-127021210D01*
X148714365Y-127026692D01*
X148718494Y-127042101D01*
X148727693Y-127076433D01*
X148730072Y-127087164D01*
X148739015Y-127137880D01*
X148740895Y-127143045D01*
X148740897Y-127143053D01*
X148756626Y-127186267D01*
X148759932Y-127196752D01*
X148771836Y-127241180D01*
X148771838Y-127241186D01*
X148773261Y-127246496D01*
X148788112Y-127278344D01*
X148795026Y-127293171D01*
X148799232Y-127303327D01*
X148804288Y-127317217D01*
X148816844Y-127351715D01*
X148819596Y-127356481D01*
X148819597Y-127356484D01*
X148842598Y-127396323D01*
X148847664Y-127406054D01*
X148869432Y-127452734D01*
X148898973Y-127494924D01*
X148904864Y-127504170D01*
X148930623Y-127548786D01*
X148963721Y-127588230D01*
X148970411Y-127596947D01*
X148999953Y-127639139D01*
X149160861Y-127800047D01*
X149160863Y-127800048D01*
X157340822Y-135980007D01*
X157374848Y-136042319D01*
X157375306Y-136093682D01*
X157364287Y-136149080D01*
X157344564Y-136450000D01*
X157364287Y-136750920D01*
X157423120Y-137046691D01*
X157520055Y-137332252D01*
X157653434Y-137602718D01*
X157655728Y-137606151D01*
X157815336Y-137845021D01*
X157820975Y-137853461D01*
X157823689Y-137856555D01*
X157823693Y-137856561D01*
X157894797Y-137937639D01*
X158019811Y-138080189D01*
X158022900Y-138082898D01*
X158243439Y-138276307D01*
X158243445Y-138276311D01*
X158246539Y-138279025D01*
X158249965Y-138281314D01*
X158249970Y-138281318D01*
X158437533Y-138406643D01*
X158497282Y-138446566D01*
X158500981Y-138448390D01*
X158500986Y-138448393D01*
X158639834Y-138516865D01*
X158767748Y-138579945D01*
X158771653Y-138581271D01*
X158771654Y-138581271D01*
X159049396Y-138675552D01*
X159049400Y-138675553D01*
X159053309Y-138676880D01*
X159057353Y-138677684D01*
X159057359Y-138677686D01*
X159345041Y-138734910D01*
X159345047Y-138734911D01*
X159349080Y-138735713D01*
X159353185Y-138735982D01*
X159353192Y-138735983D01*
X159645881Y-138755166D01*
X159650000Y-138755436D01*
X159654119Y-138755166D01*
X159946808Y-138735983D01*
X159946815Y-138735982D01*
X159950920Y-138735713D01*
X159954953Y-138734911D01*
X159954959Y-138734910D01*
X160242641Y-138677686D01*
X160242647Y-138677684D01*
X160246691Y-138676880D01*
X160250600Y-138675553D01*
X160250604Y-138675552D01*
X160528346Y-138581271D01*
X160528347Y-138581271D01*
X160532252Y-138579945D01*
X160660166Y-138516865D01*
X160799014Y-138448393D01*
X160799019Y-138448390D01*
X160802718Y-138446566D01*
X160862467Y-138406643D01*
X161050030Y-138281318D01*
X161050035Y-138281314D01*
X161053461Y-138279025D01*
X161056555Y-138276311D01*
X161056561Y-138276307D01*
X161277100Y-138082898D01*
X161280189Y-138080189D01*
X161405203Y-137937639D01*
X161476307Y-137856561D01*
X161476311Y-137856555D01*
X161479025Y-137853461D01*
X161484665Y-137845021D01*
X161644272Y-137606151D01*
X161646566Y-137602718D01*
X161779945Y-137332252D01*
X161876880Y-137046691D01*
X161935713Y-136750920D01*
X161955436Y-136450000D01*
X161935713Y-136149080D01*
X161885263Y-135895449D01*
X161877686Y-135857359D01*
X161877684Y-135857353D01*
X161876880Y-135853309D01*
X161787104Y-135588836D01*
X161781271Y-135571654D01*
X161781271Y-135571653D01*
X161779945Y-135567748D01*
X161646566Y-135297282D01*
X161479025Y-135046539D01*
X161476311Y-135043445D01*
X161476307Y-135043439D01*
X161282898Y-134822900D01*
X161280189Y-134819811D01*
X161236275Y-134781299D01*
X161056561Y-134623693D01*
X161056555Y-134623689D01*
X161053461Y-134620975D01*
X161050035Y-134618686D01*
X161050030Y-134618682D01*
X160806151Y-134455728D01*
X160802718Y-134453434D01*
X160799019Y-134451610D01*
X160799014Y-134451607D01*
X160660166Y-134383135D01*
X160532252Y-134320055D01*
X160528346Y-134318729D01*
X160250604Y-134224448D01*
X160250600Y-134224447D01*
X160246691Y-134223120D01*
X160242647Y-134222316D01*
X160242641Y-134222314D01*
X159954959Y-134165090D01*
X159954953Y-134165089D01*
X159950920Y-134164287D01*
X159946815Y-134164018D01*
X159946808Y-134164017D01*
X159654119Y-134144834D01*
X159650000Y-134144564D01*
X159645881Y-134144834D01*
X159353195Y-134164017D01*
X159353191Y-134164018D01*
X159349080Y-134164287D01*
X159345040Y-134165091D01*
X159345037Y-134165091D01*
X159293683Y-134175306D01*
X159222969Y-134168978D01*
X159180007Y-134140822D01*
X152887418Y-127848233D01*
X157744906Y-127848233D01*
X157771102Y-128122792D01*
X157772187Y-128127226D01*
X157772188Y-128127232D01*
X157815288Y-128303366D01*
X157836657Y-128390694D01*
X157940199Y-128646326D01*
X157942500Y-128650256D01*
X157942503Y-128650262D01*
X158077255Y-128880403D01*
X158077260Y-128880410D01*
X158079558Y-128884335D01*
X158082405Y-128887895D01*
X158200028Y-129034974D01*
X158251816Y-129099732D01*
X158255157Y-129102853D01*
X158375135Y-129214930D01*
X158453364Y-129288008D01*
X158679979Y-129445216D01*
X158684055Y-129447244D01*
X158684057Y-129447245D01*
X158922827Y-129566032D01*
X158922830Y-129566033D01*
X158926914Y-129568065D01*
X159188998Y-129653980D01*
X159193489Y-129654760D01*
X159193490Y-129654760D01*
X159456957Y-129700506D01*
X159456965Y-129700507D01*
X159460738Y-129701162D01*
X159464575Y-129701353D01*
X159546305Y-129705422D01*
X159546313Y-129705422D01*
X159547876Y-129705500D01*
X159720070Y-129705500D01*
X159722338Y-129705335D01*
X159722350Y-129705335D01*
X159856603Y-129695594D01*
X159925083Y-129690625D01*
X159929538Y-129689641D01*
X159929541Y-129689641D01*
X160189947Y-129632148D01*
X160189950Y-129632147D01*
X160194403Y-129631164D01*
X160452319Y-129533449D01*
X160573821Y-129465961D01*
X160689435Y-129401743D01*
X160689436Y-129401742D01*
X160693428Y-129399525D01*
X160912678Y-129232198D01*
X160934378Y-129210000D01*
X161102283Y-129038242D01*
X161102287Y-129038237D01*
X161105477Y-129034974D01*
X161108166Y-129031280D01*
X161265100Y-128815676D01*
X161265102Y-128815673D01*
X161267787Y-128811984D01*
X161396206Y-128567899D01*
X161488045Y-128307832D01*
X161524516Y-128122792D01*
X161540499Y-128041704D01*
X161540500Y-128041698D01*
X161541380Y-128037232D01*
X161545649Y-127951481D01*
X161554867Y-127766336D01*
X161554867Y-127766330D01*
X161555094Y-127761767D01*
X161528898Y-127487208D01*
X161521565Y-127457238D01*
X161464429Y-127223744D01*
X161463343Y-127219306D01*
X161359801Y-126963674D01*
X161357500Y-126959744D01*
X161357497Y-126959738D01*
X161222745Y-126729597D01*
X161222740Y-126729590D01*
X161220442Y-126725665D01*
X161165116Y-126656484D01*
X161051036Y-126513834D01*
X161051035Y-126513833D01*
X161048184Y-126510268D01*
X160916402Y-126387164D01*
X160849972Y-126325108D01*
X160849969Y-126325106D01*
X160846636Y-126321992D01*
X160620021Y-126164784D01*
X160504173Y-126107150D01*
X160377173Y-126043968D01*
X160377170Y-126043967D01*
X160373086Y-126041935D01*
X160111002Y-125956020D01*
X160106510Y-125955240D01*
X159843043Y-125909494D01*
X159843035Y-125909493D01*
X159839262Y-125908838D01*
X159829029Y-125908329D01*
X159753695Y-125904578D01*
X159753687Y-125904578D01*
X159752124Y-125904500D01*
X159579930Y-125904500D01*
X159577662Y-125904665D01*
X159577650Y-125904665D01*
X159443397Y-125914406D01*
X159374917Y-125919375D01*
X159370462Y-125920359D01*
X159370459Y-125920359D01*
X159110053Y-125977852D01*
X159110050Y-125977853D01*
X159105597Y-125978836D01*
X158847681Y-126076551D01*
X158606572Y-126210475D01*
X158387322Y-126377802D01*
X158384129Y-126381068D01*
X158384127Y-126381070D01*
X158197717Y-126571758D01*
X158197713Y-126571763D01*
X158194523Y-126575026D01*
X158191836Y-126578718D01*
X158191834Y-126578720D01*
X158049036Y-126774904D01*
X158032213Y-126798016D01*
X157903794Y-127042101D01*
X157811955Y-127302168D01*
X157811075Y-127306634D01*
X157762516Y-127553003D01*
X157758620Y-127572768D01*
X157758393Y-127577322D01*
X157758393Y-127577324D01*
X157745164Y-127843053D01*
X157744906Y-127848233D01*
X152887418Y-127848233D01*
X151337405Y-126298220D01*
X151303379Y-126235908D01*
X151300500Y-126209125D01*
X151300500Y-73313791D01*
X151300501Y-73313767D01*
X151300501Y-73086221D01*
X151296599Y-73064091D01*
X151291558Y-73035501D01*
X151290124Y-73024604D01*
X151286116Y-72978798D01*
X151286115Y-72978790D01*
X151285635Y-72973308D01*
X151272306Y-72923564D01*
X151269928Y-72912836D01*
X151261940Y-72867537D01*
X151260985Y-72862120D01*
X151259105Y-72856955D01*
X151259103Y-72856947D01*
X151243374Y-72813733D01*
X151240068Y-72803248D01*
X151228164Y-72758820D01*
X151228162Y-72758814D01*
X151226739Y-72753504D01*
X151204973Y-72706826D01*
X151200768Y-72696673D01*
X151185040Y-72653461D01*
X151185040Y-72653460D01*
X151183156Y-72648285D01*
X151157401Y-72603675D01*
X151152336Y-72593946D01*
X151130568Y-72547266D01*
X151101027Y-72505076D01*
X151095136Y-72495830D01*
X151069377Y-72451214D01*
X151036275Y-72411765D01*
X151029586Y-72403048D01*
X151003200Y-72365364D01*
X151000047Y-72360861D01*
X150877419Y-72238233D01*
X157744906Y-72238233D01*
X157771102Y-72512792D01*
X157772187Y-72517226D01*
X157772188Y-72517232D01*
X157822635Y-72723392D01*
X157836657Y-72780694D01*
X157940199Y-73036326D01*
X157942500Y-73040256D01*
X157942503Y-73040262D01*
X158077255Y-73270403D01*
X158077260Y-73270410D01*
X158079558Y-73274335D01*
X158082405Y-73277895D01*
X158226446Y-73458008D01*
X158251816Y-73489732D01*
X158255157Y-73492853D01*
X158391431Y-73620153D01*
X158453364Y-73678008D01*
X158679979Y-73835216D01*
X158684055Y-73837244D01*
X158684057Y-73837245D01*
X158922827Y-73956032D01*
X158922830Y-73956033D01*
X158926914Y-73958065D01*
X159188998Y-74043980D01*
X159193489Y-74044760D01*
X159193490Y-74044760D01*
X159456957Y-74090506D01*
X159456965Y-74090507D01*
X159460738Y-74091162D01*
X159464575Y-74091353D01*
X159546305Y-74095422D01*
X159546313Y-74095422D01*
X159547876Y-74095500D01*
X159720070Y-74095500D01*
X159722338Y-74095335D01*
X159722350Y-74095335D01*
X159856603Y-74085594D01*
X159925083Y-74080625D01*
X159929538Y-74079641D01*
X159929541Y-74079641D01*
X160189947Y-74022148D01*
X160189950Y-74022147D01*
X160194403Y-74021164D01*
X160452319Y-73923449D01*
X160693428Y-73789525D01*
X160912678Y-73622198D01*
X160915873Y-73618930D01*
X161102283Y-73428242D01*
X161102287Y-73428237D01*
X161105477Y-73424974D01*
X161108166Y-73421280D01*
X161265100Y-73205676D01*
X161265102Y-73205673D01*
X161267787Y-73201984D01*
X161396206Y-72957899D01*
X161488045Y-72697832D01*
X161514403Y-72564103D01*
X161540499Y-72431704D01*
X161540500Y-72431698D01*
X161541380Y-72427232D01*
X161544460Y-72365364D01*
X161554867Y-72156336D01*
X161554867Y-72156330D01*
X161555094Y-72151767D01*
X161528898Y-71877208D01*
X161522792Y-71852252D01*
X161464429Y-71613744D01*
X161463343Y-71609306D01*
X161359801Y-71353674D01*
X161357500Y-71349744D01*
X161357497Y-71349738D01*
X161222745Y-71119597D01*
X161222740Y-71119590D01*
X161220442Y-71115665D01*
X161102927Y-70968720D01*
X161051036Y-70903834D01*
X161051035Y-70903833D01*
X161048184Y-70900268D01*
X160846636Y-70711992D01*
X160620021Y-70554784D01*
X160442667Y-70466551D01*
X160377173Y-70433968D01*
X160377170Y-70433967D01*
X160373086Y-70431935D01*
X160111002Y-70346020D01*
X160106510Y-70345240D01*
X159843043Y-70299494D01*
X159843035Y-70299493D01*
X159839262Y-70298838D01*
X159829029Y-70298329D01*
X159753695Y-70294578D01*
X159753687Y-70294578D01*
X159752124Y-70294500D01*
X159579930Y-70294500D01*
X159577662Y-70294665D01*
X159577650Y-70294665D01*
X159443397Y-70304406D01*
X159374917Y-70309375D01*
X159370462Y-70310359D01*
X159370459Y-70310359D01*
X159110053Y-70367852D01*
X159110050Y-70367853D01*
X159105597Y-70368836D01*
X158847681Y-70466551D01*
X158606572Y-70600475D01*
X158387322Y-70767802D01*
X158384129Y-70771068D01*
X158384127Y-70771070D01*
X158197717Y-70961758D01*
X158197713Y-70961763D01*
X158194523Y-70965026D01*
X158032213Y-71188016D01*
X157903794Y-71432101D01*
X157811955Y-71692168D01*
X157800317Y-71751214D01*
X157761475Y-71948285D01*
X157758620Y-71962768D01*
X157758393Y-71967322D01*
X157758393Y-71967324D01*
X157745901Y-72218252D01*
X157744906Y-72238233D01*
X150877419Y-72238233D01*
X150839139Y-72199953D01*
X150839136Y-72199951D01*
X142659178Y-64019993D01*
X142625152Y-63957681D01*
X142624694Y-63906317D01*
X142634909Y-63854963D01*
X142634910Y-63854959D01*
X142635713Y-63850920D01*
X142655436Y-63550000D01*
X157344564Y-63550000D01*
X157364287Y-63850920D01*
X157423120Y-64146691D01*
X157520055Y-64432252D01*
X157653434Y-64702718D01*
X157820975Y-64953461D01*
X157823689Y-64956555D01*
X157823693Y-64956561D01*
X158017102Y-65177100D01*
X158019811Y-65180189D01*
X158022900Y-65182898D01*
X158243439Y-65376307D01*
X158243445Y-65376311D01*
X158246539Y-65379025D01*
X158249965Y-65381314D01*
X158249970Y-65381318D01*
X158437533Y-65506643D01*
X158497282Y-65546566D01*
X158500981Y-65548390D01*
X158500986Y-65548393D01*
X158639834Y-65616865D01*
X158767748Y-65679945D01*
X158771653Y-65681271D01*
X158771654Y-65681271D01*
X159049396Y-65775552D01*
X159049400Y-65775553D01*
X159053309Y-65776880D01*
X159057353Y-65777684D01*
X159057359Y-65777686D01*
X159345041Y-65834910D01*
X159345047Y-65834911D01*
X159349080Y-65835713D01*
X159353185Y-65835982D01*
X159353192Y-65835983D01*
X159645881Y-65855166D01*
X159650000Y-65855436D01*
X159654119Y-65855166D01*
X159946808Y-65835983D01*
X159946815Y-65835982D01*
X159950920Y-65835713D01*
X159954953Y-65834911D01*
X159954959Y-65834910D01*
X160242650Y-65777684D01*
X160242653Y-65777683D01*
X160246691Y-65776880D01*
X160250591Y-65775556D01*
X160250599Y-65775554D01*
X160315097Y-65753660D01*
X160386032Y-65750704D01*
X160444693Y-65783878D01*
X168662595Y-74001780D01*
X168696621Y-74064092D01*
X168699500Y-74090875D01*
X168699500Y-127386215D01*
X168699499Y-127386221D01*
X168699499Y-127613779D01*
X168700455Y-127619200D01*
X168708442Y-127664499D01*
X168709876Y-127675396D01*
X168713884Y-127721202D01*
X168713885Y-127721210D01*
X168714365Y-127726692D01*
X168727693Y-127776433D01*
X168730072Y-127787164D01*
X168739015Y-127837880D01*
X168740895Y-127843045D01*
X168740897Y-127843053D01*
X168756626Y-127886267D01*
X168759932Y-127896752D01*
X168771836Y-127941180D01*
X168771838Y-127941186D01*
X168773261Y-127946496D01*
X168775586Y-127951481D01*
X168795026Y-127993171D01*
X168799232Y-128003327D01*
X168816844Y-128051715D01*
X168819596Y-128056481D01*
X168819597Y-128056484D01*
X168842598Y-128096323D01*
X168847664Y-128106054D01*
X168869432Y-128152734D01*
X168898973Y-128194924D01*
X168904864Y-128204170D01*
X168930623Y-128248786D01*
X168948892Y-128270558D01*
X168963721Y-128288230D01*
X168970411Y-128296947D01*
X168999953Y-128339139D01*
X169160861Y-128500047D01*
X169160863Y-128500048D01*
X169160867Y-128500052D01*
X176640822Y-135980006D01*
X176674848Y-136042318D01*
X176675306Y-136093682D01*
X176664287Y-136149080D01*
X176644564Y-136450000D01*
X176664287Y-136750920D01*
X176723120Y-137046691D01*
X176820055Y-137332252D01*
X176953434Y-137602718D01*
X176955728Y-137606151D01*
X177115336Y-137845021D01*
X177120975Y-137853461D01*
X177123689Y-137856555D01*
X177123693Y-137856561D01*
X177194797Y-137937639D01*
X177319811Y-138080189D01*
X177322900Y-138082898D01*
X177543439Y-138276307D01*
X177543445Y-138276311D01*
X177546539Y-138279025D01*
X177549965Y-138281314D01*
X177549970Y-138281318D01*
X177737533Y-138406643D01*
X177797282Y-138446566D01*
X177800981Y-138448390D01*
X177800986Y-138448393D01*
X177939834Y-138516865D01*
X178067748Y-138579945D01*
X178071653Y-138581271D01*
X178071654Y-138581271D01*
X178349396Y-138675552D01*
X178349400Y-138675553D01*
X178353309Y-138676880D01*
X178357353Y-138677684D01*
X178357359Y-138677686D01*
X178645041Y-138734910D01*
X178645047Y-138734911D01*
X178649080Y-138735713D01*
X178653185Y-138735982D01*
X178653192Y-138735983D01*
X178945881Y-138755166D01*
X178950000Y-138755436D01*
X178954119Y-138755166D01*
X179246808Y-138735983D01*
X179246815Y-138735982D01*
X179250920Y-138735713D01*
X179254953Y-138734911D01*
X179254959Y-138734910D01*
X179542641Y-138677686D01*
X179542647Y-138677684D01*
X179546691Y-138676880D01*
X179550600Y-138675553D01*
X179550604Y-138675552D01*
X179828346Y-138581271D01*
X179828347Y-138581271D01*
X179832252Y-138579945D01*
X179960166Y-138516865D01*
X180099014Y-138448393D01*
X180099019Y-138448390D01*
X180102718Y-138446566D01*
X180162467Y-138406643D01*
X180350030Y-138281318D01*
X180350035Y-138281314D01*
X180353461Y-138279025D01*
X180356555Y-138276311D01*
X180356561Y-138276307D01*
X180577100Y-138082898D01*
X180580189Y-138080189D01*
X180705203Y-137937639D01*
X180776307Y-137856561D01*
X180776311Y-137856555D01*
X180779025Y-137853461D01*
X180784665Y-137845021D01*
X180944272Y-137606151D01*
X180946566Y-137602718D01*
X181079945Y-137332252D01*
X181176880Y-137046691D01*
X181235713Y-136750920D01*
X181255436Y-136450000D01*
X181235713Y-136149080D01*
X181185263Y-135895449D01*
X181177686Y-135857359D01*
X181177684Y-135857353D01*
X181176880Y-135853309D01*
X181087104Y-135588836D01*
X181081271Y-135571654D01*
X181081271Y-135571653D01*
X181079945Y-135567748D01*
X180946566Y-135297282D01*
X180779025Y-135046539D01*
X180776311Y-135043445D01*
X180776307Y-135043439D01*
X180582898Y-134822900D01*
X180580189Y-134819811D01*
X180536275Y-134781299D01*
X180356561Y-134623693D01*
X180356555Y-134623689D01*
X180353461Y-134620975D01*
X180350035Y-134618686D01*
X180350030Y-134618682D01*
X180106151Y-134455728D01*
X180102718Y-134453434D01*
X180099019Y-134451610D01*
X180099014Y-134451607D01*
X179960166Y-134383135D01*
X179832252Y-134320055D01*
X179828346Y-134318729D01*
X179550604Y-134224448D01*
X179550600Y-134224447D01*
X179546691Y-134223120D01*
X179542647Y-134222316D01*
X179542641Y-134222314D01*
X179254959Y-134165090D01*
X179254953Y-134165089D01*
X179250920Y-134164287D01*
X179246815Y-134164018D01*
X179246808Y-134164017D01*
X178954119Y-134144834D01*
X178950000Y-134144564D01*
X178945881Y-134144834D01*
X178653195Y-134164017D01*
X178653191Y-134164018D01*
X178649080Y-134164287D01*
X178645040Y-134165091D01*
X178645037Y-134165091D01*
X178593682Y-134175306D01*
X178522968Y-134168978D01*
X178480006Y-134140822D01*
X172187418Y-127848233D01*
X177044906Y-127848233D01*
X177071102Y-128122792D01*
X177072187Y-128127226D01*
X177072188Y-128127232D01*
X177115288Y-128303366D01*
X177136657Y-128390694D01*
X177240199Y-128646326D01*
X177242500Y-128650256D01*
X177242503Y-128650262D01*
X177377255Y-128880403D01*
X177377260Y-128880410D01*
X177379558Y-128884335D01*
X177382405Y-128887895D01*
X177500028Y-129034974D01*
X177551816Y-129099732D01*
X177555157Y-129102853D01*
X177675135Y-129214930D01*
X177753364Y-129288008D01*
X177979979Y-129445216D01*
X177984055Y-129447244D01*
X177984057Y-129447245D01*
X178222827Y-129566032D01*
X178222830Y-129566033D01*
X178226914Y-129568065D01*
X178488998Y-129653980D01*
X178493489Y-129654760D01*
X178493490Y-129654760D01*
X178756957Y-129700506D01*
X178756965Y-129700507D01*
X178760738Y-129701162D01*
X178764575Y-129701353D01*
X178846305Y-129705422D01*
X178846313Y-129705422D01*
X178847876Y-129705500D01*
X179020070Y-129705500D01*
X179022338Y-129705335D01*
X179022350Y-129705335D01*
X179156603Y-129695594D01*
X179225083Y-129690625D01*
X179229538Y-129689641D01*
X179229541Y-129689641D01*
X179489947Y-129632148D01*
X179489950Y-129632147D01*
X179494403Y-129631164D01*
X179752319Y-129533449D01*
X179873821Y-129465961D01*
X179989435Y-129401743D01*
X179989436Y-129401742D01*
X179993428Y-129399525D01*
X180212678Y-129232198D01*
X180234378Y-129210000D01*
X180402283Y-129038242D01*
X180402287Y-129038237D01*
X180405477Y-129034974D01*
X180408166Y-129031280D01*
X180565100Y-128815676D01*
X180565102Y-128815673D01*
X180567787Y-128811984D01*
X180696206Y-128567899D01*
X180788045Y-128307832D01*
X180824516Y-128122792D01*
X180840499Y-128041704D01*
X180840500Y-128041698D01*
X180841380Y-128037232D01*
X180845649Y-127951481D01*
X180854867Y-127766336D01*
X180854867Y-127766330D01*
X180855094Y-127761767D01*
X180828898Y-127487208D01*
X180821565Y-127457238D01*
X180764429Y-127223744D01*
X180763343Y-127219306D01*
X180659801Y-126963674D01*
X180657500Y-126959744D01*
X180657497Y-126959738D01*
X180522745Y-126729597D01*
X180522740Y-126729590D01*
X180520442Y-126725665D01*
X180465116Y-126656484D01*
X180351036Y-126513834D01*
X180351035Y-126513833D01*
X180348184Y-126510268D01*
X180216402Y-126387164D01*
X180149972Y-126325108D01*
X180149969Y-126325106D01*
X180146636Y-126321992D01*
X179920021Y-126164784D01*
X179804173Y-126107150D01*
X179677173Y-126043968D01*
X179677170Y-126043967D01*
X179673086Y-126041935D01*
X179411002Y-125956020D01*
X179406510Y-125955240D01*
X179143043Y-125909494D01*
X179143035Y-125909493D01*
X179139262Y-125908838D01*
X179129029Y-125908329D01*
X179053695Y-125904578D01*
X179053687Y-125904578D01*
X179052124Y-125904500D01*
X178879930Y-125904500D01*
X178877662Y-125904665D01*
X178877650Y-125904665D01*
X178743397Y-125914406D01*
X178674917Y-125919375D01*
X178670462Y-125920359D01*
X178670459Y-125920359D01*
X178410053Y-125977852D01*
X178410050Y-125977853D01*
X178405597Y-125978836D01*
X178147681Y-126076551D01*
X177906572Y-126210475D01*
X177687322Y-126377802D01*
X177684129Y-126381068D01*
X177684127Y-126381070D01*
X177497717Y-126571758D01*
X177497713Y-126571763D01*
X177494523Y-126575026D01*
X177491836Y-126578718D01*
X177491834Y-126578720D01*
X177349036Y-126774904D01*
X177332213Y-126798016D01*
X177203794Y-127042101D01*
X177111955Y-127302168D01*
X177111075Y-127306634D01*
X177062516Y-127553003D01*
X177058620Y-127572768D01*
X177058393Y-127577322D01*
X177058393Y-127577324D01*
X177045164Y-127843053D01*
X177044906Y-127848233D01*
X172187418Y-127848233D01*
X171337405Y-126998220D01*
X171303379Y-126935908D01*
X171300500Y-126909125D01*
X171300500Y-73613791D01*
X171300501Y-73613767D01*
X171300501Y-73386221D01*
X171298218Y-73373276D01*
X171291558Y-73335501D01*
X171290124Y-73324604D01*
X171286116Y-73278798D01*
X171286115Y-73278790D01*
X171285635Y-73273308D01*
X171272306Y-73223564D01*
X171269928Y-73212836D01*
X171261940Y-73167537D01*
X171260985Y-73162120D01*
X171259105Y-73156955D01*
X171259103Y-73156947D01*
X171243374Y-73113733D01*
X171240068Y-73103248D01*
X171228164Y-73058820D01*
X171228162Y-73058814D01*
X171226739Y-73053504D01*
X171204973Y-73006826D01*
X171200768Y-72996673D01*
X171185040Y-72953461D01*
X171185040Y-72953460D01*
X171183156Y-72948285D01*
X171157401Y-72903675D01*
X171152336Y-72893946D01*
X171130568Y-72847266D01*
X171101027Y-72805076D01*
X171095136Y-72795830D01*
X171069377Y-72751214D01*
X171036275Y-72711765D01*
X171029586Y-72703048D01*
X171025123Y-72696673D01*
X171000047Y-72660861D01*
X170839139Y-72499953D01*
X170839136Y-72499951D01*
X170577418Y-72238233D01*
X177044906Y-72238233D01*
X177071102Y-72512792D01*
X177072187Y-72517226D01*
X177072188Y-72517232D01*
X177122635Y-72723392D01*
X177136657Y-72780694D01*
X177240199Y-73036326D01*
X177242500Y-73040256D01*
X177242503Y-73040262D01*
X177377255Y-73270403D01*
X177377260Y-73270410D01*
X177379558Y-73274335D01*
X177382405Y-73277895D01*
X177526446Y-73458008D01*
X177551816Y-73489732D01*
X177555157Y-73492853D01*
X177691431Y-73620153D01*
X177753364Y-73678008D01*
X177979979Y-73835216D01*
X177984055Y-73837244D01*
X177984057Y-73837245D01*
X178222827Y-73956032D01*
X178222830Y-73956033D01*
X178226914Y-73958065D01*
X178488998Y-74043980D01*
X178493489Y-74044760D01*
X178493490Y-74044760D01*
X178756957Y-74090506D01*
X178756965Y-74090507D01*
X178760738Y-74091162D01*
X178764575Y-74091353D01*
X178846305Y-74095422D01*
X178846313Y-74095422D01*
X178847876Y-74095500D01*
X179020070Y-74095500D01*
X179022338Y-74095335D01*
X179022350Y-74095335D01*
X179156603Y-74085594D01*
X179225083Y-74080625D01*
X179229538Y-74079641D01*
X179229541Y-74079641D01*
X179489947Y-74022148D01*
X179489950Y-74022147D01*
X179494403Y-74021164D01*
X179752319Y-73923449D01*
X179993428Y-73789525D01*
X180212678Y-73622198D01*
X180215873Y-73618930D01*
X180402283Y-73428242D01*
X180402287Y-73428237D01*
X180405477Y-73424974D01*
X180408166Y-73421280D01*
X180565100Y-73205676D01*
X180565102Y-73205673D01*
X180567787Y-73201984D01*
X180696206Y-72957899D01*
X180788045Y-72697832D01*
X180814403Y-72564103D01*
X180840499Y-72431704D01*
X180840500Y-72431698D01*
X180841380Y-72427232D01*
X180844460Y-72365364D01*
X180854867Y-72156336D01*
X180854867Y-72156330D01*
X180855094Y-72151767D01*
X180828898Y-71877208D01*
X180822792Y-71852252D01*
X180764429Y-71613744D01*
X180763343Y-71609306D01*
X180659801Y-71353674D01*
X180657500Y-71349744D01*
X180657497Y-71349738D01*
X180522745Y-71119597D01*
X180522740Y-71119590D01*
X180520442Y-71115665D01*
X180402927Y-70968720D01*
X180351036Y-70903834D01*
X180351035Y-70903833D01*
X180348184Y-70900268D01*
X180146636Y-70711992D01*
X179920021Y-70554784D01*
X179742667Y-70466551D01*
X179677173Y-70433968D01*
X179677170Y-70433967D01*
X179673086Y-70431935D01*
X179411002Y-70346020D01*
X179406510Y-70345240D01*
X179143043Y-70299494D01*
X179143035Y-70299493D01*
X179139262Y-70298838D01*
X179129029Y-70298329D01*
X179053695Y-70294578D01*
X179053687Y-70294578D01*
X179052124Y-70294500D01*
X178879930Y-70294500D01*
X178877662Y-70294665D01*
X178877650Y-70294665D01*
X178743397Y-70304406D01*
X178674917Y-70309375D01*
X178670462Y-70310359D01*
X178670459Y-70310359D01*
X178410053Y-70367852D01*
X178410050Y-70367853D01*
X178405597Y-70368836D01*
X178147681Y-70466551D01*
X177906572Y-70600475D01*
X177687322Y-70767802D01*
X177684129Y-70771068D01*
X177684127Y-70771070D01*
X177497717Y-70961758D01*
X177497713Y-70961763D01*
X177494523Y-70965026D01*
X177332213Y-71188016D01*
X177203794Y-71432101D01*
X177111955Y-71692168D01*
X177100317Y-71751214D01*
X177061475Y-71948285D01*
X177058620Y-71962768D01*
X177058393Y-71967322D01*
X177058393Y-71967324D01*
X177045901Y-72218252D01*
X177044906Y-72238233D01*
X170577418Y-72238233D01*
X161991730Y-63652545D01*
X161957704Y-63590233D01*
X161955319Y-63558240D01*
X161955166Y-63558240D01*
X161955166Y-63556187D01*
X161955094Y-63555221D01*
X161955166Y-63554121D01*
X161955166Y-63554119D01*
X161955436Y-63550000D01*
X161943238Y-63363885D01*
X161935983Y-63253192D01*
X161935982Y-63253185D01*
X161935713Y-63249080D01*
X161933009Y-63235483D01*
X161877686Y-62957359D01*
X161877684Y-62957353D01*
X161876880Y-62953309D01*
X161779945Y-62667748D01*
X161646566Y-62397282D01*
X161479025Y-62146539D01*
X161476311Y-62143445D01*
X161476307Y-62143439D01*
X161282898Y-61922900D01*
X161280189Y-61919811D01*
X161197412Y-61847217D01*
X161056561Y-61723693D01*
X161056555Y-61723689D01*
X161053461Y-61720975D01*
X161050035Y-61718686D01*
X161050030Y-61718682D01*
X160806151Y-61555728D01*
X160802718Y-61553434D01*
X160799019Y-61551610D01*
X160799014Y-61551607D01*
X160660166Y-61483135D01*
X160532252Y-61420055D01*
X160522416Y-61416716D01*
X160250604Y-61324448D01*
X160250600Y-61324447D01*
X160246691Y-61323120D01*
X160242647Y-61322316D01*
X160242641Y-61322314D01*
X159954959Y-61265090D01*
X159954953Y-61265089D01*
X159950920Y-61264287D01*
X159946815Y-61264018D01*
X159946808Y-61264017D01*
X159671598Y-61245980D01*
X159650000Y-61244564D01*
X159628402Y-61245980D01*
X159353192Y-61264017D01*
X159353185Y-61264018D01*
X159349080Y-61264287D01*
X159345047Y-61265089D01*
X159345041Y-61265090D01*
X159057359Y-61322314D01*
X159057353Y-61322316D01*
X159053309Y-61323120D01*
X159049400Y-61324447D01*
X159049396Y-61324448D01*
X158777584Y-61416716D01*
X158767748Y-61420055D01*
X158639834Y-61483135D01*
X158500986Y-61551607D01*
X158500981Y-61551610D01*
X158497282Y-61553434D01*
X158493849Y-61555728D01*
X158249970Y-61718682D01*
X158249965Y-61718686D01*
X158246539Y-61720975D01*
X158243445Y-61723689D01*
X158243439Y-61723693D01*
X158102588Y-61847217D01*
X158019811Y-61919811D01*
X158017102Y-61922900D01*
X157823693Y-62143439D01*
X157823689Y-62143445D01*
X157820975Y-62146539D01*
X157653434Y-62397282D01*
X157520055Y-62667748D01*
X157423120Y-62953309D01*
X157422316Y-62957353D01*
X157422314Y-62957359D01*
X157366992Y-63235483D01*
X157364287Y-63249080D01*
X157364018Y-63253185D01*
X157364017Y-63253192D01*
X157356762Y-63363885D01*
X157344564Y-63550000D01*
X142655436Y-63550000D01*
X142643238Y-63363885D01*
X142635983Y-63253192D01*
X142635982Y-63253185D01*
X142635713Y-63249080D01*
X142633009Y-63235483D01*
X142577686Y-62957359D01*
X142577684Y-62957353D01*
X142576880Y-62953309D01*
X142479945Y-62667748D01*
X142346566Y-62397282D01*
X142179025Y-62146539D01*
X142176311Y-62143445D01*
X142176307Y-62143439D01*
X141982898Y-61922900D01*
X141980189Y-61919811D01*
X141897412Y-61847217D01*
X141756561Y-61723693D01*
X141756555Y-61723689D01*
X141753461Y-61720975D01*
X141750035Y-61718686D01*
X141750030Y-61718682D01*
X141506151Y-61555728D01*
X141502718Y-61553434D01*
X141499019Y-61551610D01*
X141499014Y-61551607D01*
X141360166Y-61483135D01*
X141232252Y-61420055D01*
X141222416Y-61416716D01*
X140950604Y-61324448D01*
X140950600Y-61324447D01*
X140946691Y-61323120D01*
X140942647Y-61322316D01*
X140942641Y-61322314D01*
X140654959Y-61265090D01*
X140654953Y-61265089D01*
X140650920Y-61264287D01*
X140646815Y-61264018D01*
X140646808Y-61264017D01*
X140371598Y-61245980D01*
X140350000Y-61244564D01*
X140328402Y-61245980D01*
X140053192Y-61264017D01*
X140053185Y-61264018D01*
X140049080Y-61264287D01*
X140045047Y-61265089D01*
X140045041Y-61265090D01*
X139757359Y-61322314D01*
X139757353Y-61322316D01*
X139753309Y-61323120D01*
X139749400Y-61324447D01*
X139749396Y-61324448D01*
X139477584Y-61416716D01*
X139467748Y-61420055D01*
X139339834Y-61483135D01*
X139200986Y-61551607D01*
X139200981Y-61551610D01*
X139197282Y-61553434D01*
X139193849Y-61555728D01*
X138949970Y-61718682D01*
X138949965Y-61718686D01*
X138946539Y-61720975D01*
X138943445Y-61723689D01*
X138943439Y-61723693D01*
X138802588Y-61847217D01*
X138719811Y-61919811D01*
X138717102Y-61922900D01*
X138523693Y-62143439D01*
X138523689Y-62143445D01*
X138520975Y-62146539D01*
X138353434Y-62397282D01*
X138220055Y-62667748D01*
X138123120Y-62953309D01*
X138122316Y-62957353D01*
X138122314Y-62957359D01*
X138066992Y-63235483D01*
X138064287Y-63249080D01*
X138064018Y-63253185D01*
X138064017Y-63253192D01*
X138056762Y-63363885D01*
X138044564Y-63550000D01*
X123355436Y-63550000D01*
X123343238Y-63363885D01*
X123335983Y-63253192D01*
X123335982Y-63253185D01*
X123335713Y-63249080D01*
X123333009Y-63235483D01*
X123277686Y-62957359D01*
X123277684Y-62957353D01*
X123276880Y-62953309D01*
X123179945Y-62667748D01*
X123046566Y-62397282D01*
X122879025Y-62146539D01*
X122876311Y-62143445D01*
X122876307Y-62143439D01*
X122682898Y-61922900D01*
X122680189Y-61919811D01*
X122597412Y-61847217D01*
X122456561Y-61723693D01*
X122456555Y-61723689D01*
X122453461Y-61720975D01*
X122450035Y-61718686D01*
X122450030Y-61718682D01*
X122206151Y-61555728D01*
X122202718Y-61553434D01*
X122199019Y-61551610D01*
X122199014Y-61551607D01*
X122060166Y-61483135D01*
X121932252Y-61420055D01*
X121922416Y-61416716D01*
X121650604Y-61324448D01*
X121650600Y-61324447D01*
X121646691Y-61323120D01*
X121642647Y-61322316D01*
X121642641Y-61322314D01*
X121354959Y-61265090D01*
X121354953Y-61265089D01*
X121350920Y-61264287D01*
X121346815Y-61264018D01*
X121346808Y-61264017D01*
X121071598Y-61245980D01*
X121050000Y-61244564D01*
X121028402Y-61245980D01*
X120753192Y-61264017D01*
X120753185Y-61264018D01*
X120749080Y-61264287D01*
X120745047Y-61265089D01*
X120745041Y-61265090D01*
X120457359Y-61322314D01*
X120457353Y-61322316D01*
X120453309Y-61323120D01*
X120449400Y-61324447D01*
X120449396Y-61324448D01*
X120177584Y-61416716D01*
X120167748Y-61420055D01*
X120039834Y-61483135D01*
X119900986Y-61551607D01*
X119900981Y-61551610D01*
X119897282Y-61553434D01*
X119893849Y-61555728D01*
X119649970Y-61718682D01*
X119649965Y-61718686D01*
X119646539Y-61720975D01*
X119643445Y-61723689D01*
X119643439Y-61723693D01*
X119502588Y-61847217D01*
X119419811Y-61919811D01*
X119417102Y-61922900D01*
X119223693Y-62143439D01*
X119223689Y-62143445D01*
X119220975Y-62146539D01*
X119053434Y-62397282D01*
X118920055Y-62667748D01*
X118823120Y-62953309D01*
X118822316Y-62957353D01*
X118822314Y-62957359D01*
X118766992Y-63235483D01*
X118764287Y-63249080D01*
X118764018Y-63253185D01*
X118764017Y-63253192D01*
X118756762Y-63363885D01*
X118744564Y-63550000D01*
X70300000Y-63550000D01*
X70300000Y-50426000D01*
X70320002Y-50357879D01*
X70373658Y-50311386D01*
X70426000Y-50300000D01*
X229574000Y-50300000D01*
X229642121Y-50320002D01*
G37*
G04 #@! TD.AperFunction*
G04 #@! TD*
G04 #@! TA.AperFunction,Conductor*
G04 #@! TO.N,Net-(R121-Pad1)*
G36*
X205434121Y-67528002D02*
G01*
X205480614Y-67581658D01*
X205492000Y-67634000D01*
X205492000Y-108874000D01*
X205492360Y-108877348D01*
X205492360Y-108877349D01*
X205494088Y-108893422D01*
X205503609Y-108981980D01*
X205514995Y-109034322D01*
X205549293Y-109137372D01*
X205627465Y-109259010D01*
X205673958Y-109312666D01*
X205783234Y-109407355D01*
X205914760Y-109467421D01*
X205938514Y-109474396D01*
X205978558Y-109486154D01*
X205978562Y-109486155D01*
X205982881Y-109487423D01*
X205987329Y-109488063D01*
X205987336Y-109488064D01*
X206121552Y-109507361D01*
X206121559Y-109507362D01*
X206126000Y-109508000D01*
X216874000Y-109508000D01*
X216942121Y-109528002D01*
X216988614Y-109581658D01*
X217000000Y-109634000D01*
X217000000Y-145874000D01*
X216979998Y-145942121D01*
X216926342Y-145988614D01*
X216874000Y-146000000D01*
X191126000Y-146000000D01*
X191057879Y-145979998D01*
X191011386Y-145926342D01*
X191000000Y-145874000D01*
X191000000Y-125046485D01*
X192336854Y-125046485D01*
X192337156Y-125050320D01*
X192355108Y-125278417D01*
X192362370Y-125370695D01*
X192427206Y-125689378D01*
X192530398Y-125997784D01*
X192670405Y-126291316D01*
X192845141Y-126565597D01*
X192847584Y-126568560D01*
X192847585Y-126568562D01*
X192997308Y-126750190D01*
X193052001Y-126816538D01*
X193287902Y-127040399D01*
X193549326Y-127233843D01*
X193690851Y-127313914D01*
X193829019Y-127392086D01*
X193829023Y-127392088D01*
X193832376Y-127393985D01*
X194132832Y-127518438D01*
X194236288Y-127547129D01*
X194442500Y-127604317D01*
X194442508Y-127604319D01*
X194446216Y-127605347D01*
X194767856Y-127653416D01*
X194771154Y-127653560D01*
X194882918Y-127658440D01*
X194882922Y-127658440D01*
X194884294Y-127658500D01*
X195082598Y-127658500D01*
X195324605Y-127643698D01*
X195328388Y-127642997D01*
X195328395Y-127642996D01*
X195528459Y-127605916D01*
X195644372Y-127584433D01*
X195853682Y-127518438D01*
X195950860Y-127487798D01*
X195950863Y-127487797D01*
X195954532Y-127486640D01*
X195958029Y-127485046D01*
X195958035Y-127485044D01*
X196246954Y-127353376D01*
X196246958Y-127353374D01*
X196250462Y-127351777D01*
X196527751Y-127181854D01*
X196530755Y-127179464D01*
X196530760Y-127179461D01*
X196655007Y-127080630D01*
X196782264Y-126979405D01*
X196784958Y-126976664D01*
X196784962Y-126976660D01*
X197007513Y-126750190D01*
X197007517Y-126750185D01*
X197010208Y-126747447D01*
X197208185Y-126489439D01*
X197373242Y-126209227D01*
X197502920Y-125910988D01*
X197595285Y-125599169D01*
X197648961Y-125278417D01*
X197663146Y-124953515D01*
X197650388Y-124791410D01*
X197637932Y-124633140D01*
X197637932Y-124633137D01*
X197637630Y-124629305D01*
X197572794Y-124310622D01*
X197469602Y-124002216D01*
X197329595Y-123708684D01*
X197154859Y-123434403D01*
X197007470Y-123255606D01*
X196950442Y-123186425D01*
X196950438Y-123186420D01*
X196947999Y-123183462D01*
X196712098Y-122959601D01*
X196450674Y-122766157D01*
X196245781Y-122650234D01*
X196170981Y-122607914D01*
X196170977Y-122607912D01*
X196167624Y-122606015D01*
X195867168Y-122481562D01*
X195763712Y-122452871D01*
X195557500Y-122395683D01*
X195557492Y-122395681D01*
X195553784Y-122394653D01*
X195232144Y-122346584D01*
X195228846Y-122346440D01*
X195117082Y-122341560D01*
X195117078Y-122341560D01*
X195115706Y-122341500D01*
X194917402Y-122341500D01*
X194675395Y-122356302D01*
X194671612Y-122357003D01*
X194671605Y-122357004D01*
X194515511Y-122385935D01*
X194355628Y-122415567D01*
X194171058Y-122473762D01*
X194049140Y-122512202D01*
X194049137Y-122512203D01*
X194045468Y-122513360D01*
X194041971Y-122514954D01*
X194041965Y-122514956D01*
X193753046Y-122646624D01*
X193753042Y-122646626D01*
X193749538Y-122648223D01*
X193472249Y-122818146D01*
X193469245Y-122820536D01*
X193469240Y-122820539D01*
X193344992Y-122919371D01*
X193217736Y-123020595D01*
X193215042Y-123023336D01*
X193215038Y-123023340D01*
X192992487Y-123249810D01*
X192992483Y-123249815D01*
X192989792Y-123252553D01*
X192791815Y-123510561D01*
X192626758Y-123790773D01*
X192497080Y-124089012D01*
X192404715Y-124400831D01*
X192351039Y-124721583D01*
X192336854Y-125046485D01*
X191000000Y-125046485D01*
X191000000Y-75046485D01*
X192336854Y-75046485D01*
X192337156Y-75050320D01*
X192355108Y-75278417D01*
X192362370Y-75370695D01*
X192427206Y-75689378D01*
X192530398Y-75997784D01*
X192670405Y-76291316D01*
X192845141Y-76565597D01*
X192847584Y-76568560D01*
X192847585Y-76568562D01*
X192997308Y-76750190D01*
X193052001Y-76816538D01*
X193287902Y-77040399D01*
X193549326Y-77233843D01*
X193612083Y-77269349D01*
X193829019Y-77392086D01*
X193829023Y-77392088D01*
X193832376Y-77393985D01*
X194132832Y-77518438D01*
X194236288Y-77547129D01*
X194442500Y-77604317D01*
X194442508Y-77604319D01*
X194446216Y-77605347D01*
X194767856Y-77653416D01*
X194771154Y-77653560D01*
X194882918Y-77658440D01*
X194882922Y-77658440D01*
X194884294Y-77658500D01*
X195082598Y-77658500D01*
X195324605Y-77643698D01*
X195328388Y-77642997D01*
X195328395Y-77642996D01*
X195528459Y-77605916D01*
X195644372Y-77584433D01*
X195853682Y-77518438D01*
X195950860Y-77487798D01*
X195950863Y-77487797D01*
X195954532Y-77486640D01*
X195958029Y-77485046D01*
X195958035Y-77485044D01*
X196246954Y-77353376D01*
X196246958Y-77353374D01*
X196250462Y-77351777D01*
X196357334Y-77286286D01*
X196524473Y-77183863D01*
X196524476Y-77183861D01*
X196527751Y-77181854D01*
X196530755Y-77179464D01*
X196530760Y-77179461D01*
X196655007Y-77080630D01*
X196782264Y-76979405D01*
X196784958Y-76976664D01*
X196784962Y-76976660D01*
X197007513Y-76750190D01*
X197007517Y-76750185D01*
X197010208Y-76747447D01*
X197208185Y-76489439D01*
X197373242Y-76209227D01*
X197502920Y-75910988D01*
X197595285Y-75599169D01*
X197648961Y-75278417D01*
X197663146Y-74953515D01*
X197650388Y-74791410D01*
X197637932Y-74633140D01*
X197637932Y-74633137D01*
X197637630Y-74629305D01*
X197572794Y-74310622D01*
X197469602Y-74002216D01*
X197329595Y-73708684D01*
X197154859Y-73434403D01*
X197115055Y-73386117D01*
X196950442Y-73186425D01*
X196950438Y-73186420D01*
X196947999Y-73183462D01*
X196712098Y-72959601D01*
X196450674Y-72766157D01*
X196245781Y-72650234D01*
X196170981Y-72607914D01*
X196170977Y-72607912D01*
X196167624Y-72606015D01*
X195867168Y-72481562D01*
X195749436Y-72448912D01*
X195557500Y-72395683D01*
X195557492Y-72395681D01*
X195553784Y-72394653D01*
X195232144Y-72346584D01*
X195228846Y-72346440D01*
X195117082Y-72341560D01*
X195117078Y-72341560D01*
X195115706Y-72341500D01*
X194917402Y-72341500D01*
X194675395Y-72356302D01*
X194671612Y-72357003D01*
X194671605Y-72357004D01*
X194515512Y-72385934D01*
X194355628Y-72415567D01*
X194171058Y-72473762D01*
X194049140Y-72512202D01*
X194049137Y-72512203D01*
X194045468Y-72513360D01*
X194041971Y-72514954D01*
X194041965Y-72514956D01*
X193753046Y-72646624D01*
X193753042Y-72646626D01*
X193749538Y-72648223D01*
X193746259Y-72650233D01*
X193746256Y-72650234D01*
X193486879Y-72809181D01*
X193472249Y-72818146D01*
X193469245Y-72820536D01*
X193469240Y-72820539D01*
X193349006Y-72916178D01*
X193217736Y-73020595D01*
X193215042Y-73023336D01*
X193215038Y-73023340D01*
X192992487Y-73249810D01*
X192992483Y-73249815D01*
X192989792Y-73252553D01*
X192858709Y-73423383D01*
X192808408Y-73488937D01*
X192791815Y-73510561D01*
X192626758Y-73790773D01*
X192497080Y-74089012D01*
X192495986Y-74092706D01*
X192495984Y-74092711D01*
X192468465Y-74185615D01*
X192404715Y-74400831D01*
X192351039Y-74721583D01*
X192336854Y-75046485D01*
X191000000Y-75046485D01*
X191000000Y-67634000D01*
X191020002Y-67565879D01*
X191073658Y-67519386D01*
X191126000Y-67508000D01*
X205366000Y-67508000D01*
X205434121Y-67528002D01*
G37*
G04 #@! TD.AperFunction*
G04 #@! TD*
M02*
