M48
; DRILL file {KiCad (6.0.5)} date Mon Jul 11 09:40:17 2022
; FORMAT={-:-/ absolute / inch / decimal}
; #@! TF.CreationDate,2022-07-11T09:40:17+02:00
; #@! TF.GenerationSoftware,Kicad,Pcbnew,(6.0.5)
; #@! TF.FileFunction,Plated,1,2,PTH
FMAT,2
INCH
; #@! TA.AperFunction,Plated,PTH,ViaDrill
T1C0.0157
; #@! TA.AperFunction,Plated,PTH,ViaDrill
T2C0.0197
; #@! TA.AperFunction,Plated,PTH,ComponentDrill
T3C0.0276
; #@! TA.AperFunction,Plated,PTH,ComponentDrill
T4C0.0394
; #@! TA.AperFunction,Plated,PTH,ComponentDrill
T5C0.0630
%
G90
G05
T1
X2.8346Y-2.4803
X2.87Y-3.23
X2.875Y-3.525
X2.9Y-4.775
X2.9Y-5.175
X2.9Y-5.55
X2.9882Y-5.3071
X3.1693Y-3.4252
X3.2Y-5.575
X3.2Y-5.625
X3.2244Y-5.0787
X3.2788Y-5.2538
X3.2975Y-5.325
X3.3071Y-3.622
X3.35Y-5.375
X3.3504Y-5.2283
X3.425Y-5.15
X3.475Y-5.325
X3.525Y-5.25
X3.525Y-5.575
X3.7395Y-3.4746
X3.7495Y-3.8946
X3.75Y-5.6
X3.9095Y-3.8146
X3.95Y-5.65
X4.0195Y-3.6346
X4.025Y-5.575
X4.1732Y-3.4252
X4.3307Y-3.7402
X4.3307Y-3.7992
X7.5Y-3.5
X7.5Y-3.6
X7.5Y-3.8
X7.5Y-3.9
X7.5Y-4.0
X7.5Y-4.1
X7.5Y-4.2
X7.5Y-4.4
X7.5Y-4.5
X7.5Y-4.6
X7.6Y-3.6
X7.6Y-3.9
X7.6Y-4.0
X7.6Y-4.1
X7.6Y-4.2
X7.6Y-4.4
X7.6Y-4.5
X7.6Y-4.6
X7.7Y-3.9
X7.7Y-4.0
X7.7Y-4.1
X7.7Y-4.2
X7.7Y-4.5
X7.7Y-4.6
X7.8Y-3.5
X7.8Y-3.8
X7.8Y-3.9
X7.8Y-4.0
X7.8Y-4.1
X7.8Y-4.2
X7.8Y-4.3
X7.8Y-4.5
X7.8Y-4.6
X7.9Y-3.5
X7.9Y-3.9
X7.9Y-4.0
X7.9Y-4.1
X7.9Y-4.2
X7.9Y-4.3
X7.9Y-4.5
X7.9Y-4.6
X7.9563Y-3.6798
X8.0Y-3.5
X8.0Y-3.6
X8.0Y-3.9
X8.0Y-4.0
X8.0Y-4.1
X8.0Y-4.2
X8.0Y-4.3
X8.0Y-4.4
X8.0Y-4.5
X8.0Y-4.6
X8.1Y-3.5
X8.1Y-3.6
X8.1Y-3.9
X8.1Y-4.0
X8.1Y-4.1
X8.1Y-4.2
X8.1Y-4.3
X8.1Y-4.4
X8.1Y-4.5
X8.1Y-4.6
X8.2Y-3.7
X8.2Y-3.8
X8.2Y-3.9
X8.2Y-4.0
X8.2Y-4.1
X8.2Y-4.2
X8.2Y-4.5
X8.2Y-4.6
X8.3Y-3.5
X8.3Y-3.6
X8.3Y-3.9
X8.3Y-4.0
X8.3Y-4.1
X8.3Y-4.5
X8.3Y-4.6
X8.4Y-3.5
X8.4Y-3.6
X8.4Y-3.9
X8.4Y-4.0
X8.4Y-4.1
X8.4Y-4.6
X8.5Y-3.5
X8.5Y-3.6
X8.5Y-3.7
X8.5Y-3.8
X8.5Y-3.9
X8.5Y-4.0
X8.5Y-4.1
X8.5Y-4.5
X8.5Y-4.6
T2
X2.815Y-2.0374
X2.815Y-3.275
X2.815Y-5.8465
X3.2382Y-2.0374
X3.2382Y-2.4606
X3.2382Y-5.8465
X3.6614Y-2.0374
X3.6614Y-2.4606
X3.6614Y-2.8839
X3.6614Y-5.0
X3.6614Y-5.8465
X4.0846Y-2.0374
X4.0846Y-2.4606
X4.0846Y-5.4232
X4.0846Y-5.8465
X4.5079Y-2.0374
X4.5079Y-2.4606
X4.5079Y-2.8839
X4.5079Y-3.3071
X4.5079Y-4.1535
X4.5079Y-4.5768
X4.5079Y-5.0
X4.5079Y-5.4232
X4.5079Y-5.8465
X4.9311Y-2.0374
X4.9311Y-2.4606
X4.9311Y-2.8839
X4.9311Y-3.3071
X4.9311Y-3.7303
X4.9311Y-4.1535
X4.9311Y-4.5768
X4.9311Y-5.0
X4.9311Y-5.4232
X4.9311Y-5.8465
X5.3543Y-2.0374
X5.3543Y-2.4606
X5.3543Y-2.8839
X5.3543Y-3.3071
X5.3543Y-3.7303
X5.3543Y-4.1535
X5.3543Y-4.5768
X5.3543Y-5.0
X5.3543Y-5.4232
X5.3543Y-5.8465
X5.7776Y-2.0374
X5.7776Y-2.4606
X5.7776Y-2.8839
X5.7776Y-3.3071
X5.7776Y-3.7303
X5.7776Y-4.1535
X5.7776Y-4.5768
X5.7776Y-5.0
X5.7776Y-5.4232
X5.7776Y-5.8465
X6.2008Y-2.0374
X6.2008Y-2.8839
X6.2008Y-3.3071
X6.2008Y-3.7303
X6.2008Y-4.1535
X6.2008Y-4.5768
X6.2008Y-5.8465
X6.624Y-2.0374
X6.624Y-2.4606
X6.624Y-3.3071
X6.624Y-3.7303
X6.624Y-4.1535
X6.624Y-4.5768
X6.624Y-5.0
X6.624Y-5.4232
X6.624Y-5.8465
X7.0472Y-2.0374
X7.0472Y-3.3071
X7.0472Y-3.7303
X7.0472Y-4.1535
X7.0472Y-4.5768
X7.0472Y-5.8465
X7.4705Y-2.0374
X7.4705Y-5.8465
X7.8937Y-2.0374
X7.8937Y-3.3071
X7.8937Y-5.8465
X8.3169Y-2.0374
X8.3169Y-2.8839
X8.3169Y-3.3071
X8.3169Y-5.8465
X8.7402Y-2.0374
X8.7402Y-2.8839
X8.7402Y-3.3071
X8.7402Y-3.7303
X8.7402Y-4.1535
X8.7402Y-5.4232
X8.7402Y-5.8465
T3
X4.2677Y-3.9677
X4.2677Y-4.0677
T4
X8.3465Y-2.2192
X8.3465Y-2.4161
T5
X4.7657Y-2.502
X4.7657Y-5.372
X5.5256Y-2.502
X5.5256Y-5.372
X6.2854Y-2.502
X6.2854Y-5.372
X7.0453Y-2.502
X7.0453Y-5.372
X8.6465Y-2.487
X8.6465Y-2.687
X8.6465Y-2.887
X8.6465Y-3.087
X8.6465Y-3.287
X8.6465Y-3.487
X8.6465Y-3.687
X8.6465Y-3.887
X8.6465Y-4.087
X8.6465Y-4.287
X8.6465Y-4.487
X8.6465Y-4.687
X8.6465Y-4.887
X8.6465Y-5.087
X8.6465Y-5.287
X8.6465Y-5.487
X8.8465Y-2.487
X8.8465Y-2.687
X8.8465Y-2.887
X8.8465Y-3.087
X8.8465Y-3.287
X8.8465Y-3.487
X8.8465Y-3.687
X8.8465Y-3.887
X8.8465Y-4.087
X8.8465Y-4.287
X8.8465Y-4.487
X8.8465Y-4.687
X8.8465Y-4.887
X8.8465Y-5.087
X8.8465Y-5.287
X8.8465Y-5.487
T0
M30
