G04 #@! TF.GenerationSoftware,KiCad,Pcbnew,(6.0.5)*
G04 #@! TF.CreationDate,2022-07-11T09:40:14+02:00*
G04 #@! TF.ProjectId,ADRmu_battery,4144526d-755f-4626-9174-746572792e6b,0.6*
G04 #@! TF.SameCoordinates,Original*
G04 #@! TF.FileFunction,Legend,Bot*
G04 #@! TF.FilePolarity,Positive*
%FSLAX46Y46*%
G04 Gerber Fmt 4.6, Leading zero omitted, Abs format (unit mm)*
G04 Created by KiCad (PCBNEW (6.0.5)) date 2022-07-11 09:40:14*
%MOMM*%
%LPD*%
G01*
G04 APERTURE LIST*
%ADD10C,0.150000*%
%ADD11C,0.300000*%
%ADD12C,0.120000*%
G04 APERTURE END LIST*
D10*
X165885000Y-125100000D02*
X155885000Y-125100000D01*
X155885000Y-125100000D02*
X155885000Y-75100000D01*
X155885000Y-75100000D02*
X165885000Y-75100000D01*
X165885000Y-75100000D02*
X165885000Y-125100000D01*
G36*
X165885000Y-125100000D02*
G01*
X155885000Y-125100000D01*
X155885000Y-75100000D01*
X165885000Y-75100000D01*
X165885000Y-125100000D01*
G37*
D11*
X154318333Y-76123809D02*
X154318333Y-77076190D01*
X154889761Y-75933333D02*
X152889761Y-76600000D01*
X154889761Y-77266666D01*
X154889761Y-77933333D02*
X152889761Y-77933333D01*
X152889761Y-78409523D01*
X152985000Y-78695238D01*
X153175476Y-78885714D01*
X153365952Y-78980952D01*
X153746904Y-79076190D01*
X154032619Y-79076190D01*
X154413571Y-78980952D01*
X154604047Y-78885714D01*
X154794523Y-78695238D01*
X154889761Y-78409523D01*
X154889761Y-77933333D01*
X154889761Y-81076190D02*
X153937380Y-80409523D01*
X154889761Y-79933333D02*
X152889761Y-79933333D01*
X152889761Y-80695238D01*
X152985000Y-80885714D01*
X153080238Y-80980952D01*
X153270714Y-81076190D01*
X153556428Y-81076190D01*
X153746904Y-80980952D01*
X153842142Y-80885714D01*
X153937380Y-80695238D01*
X153937380Y-79933333D01*
X154889761Y-81933333D02*
X153556428Y-81933333D01*
X153746904Y-81933333D02*
X153651666Y-82028571D01*
X153556428Y-82219047D01*
X153556428Y-82504761D01*
X153651666Y-82695238D01*
X153842142Y-82790476D01*
X154889761Y-82790476D01*
X153842142Y-82790476D02*
X153651666Y-82885714D01*
X153556428Y-83076190D01*
X153556428Y-83361904D01*
X153651666Y-83552380D01*
X153842142Y-83647619D01*
X154889761Y-83647619D01*
X153556428Y-85457142D02*
X154889761Y-85457142D01*
X153556428Y-84600000D02*
X154604047Y-84600000D01*
X154794523Y-84695238D01*
X154889761Y-84885714D01*
X154889761Y-85171428D01*
X154794523Y-85361904D01*
X154699285Y-85457142D01*
X153842142Y-88600000D02*
X153937380Y-88885714D01*
X154032619Y-88980952D01*
X154223095Y-89076190D01*
X154508809Y-89076190D01*
X154699285Y-88980952D01*
X154794523Y-88885714D01*
X154889761Y-88695238D01*
X154889761Y-87933333D01*
X152889761Y-87933333D01*
X152889761Y-88600000D01*
X152985000Y-88790476D01*
X153080238Y-88885714D01*
X153270714Y-88980952D01*
X153461190Y-88980952D01*
X153651666Y-88885714D01*
X153746904Y-88790476D01*
X153842142Y-88600000D01*
X153842142Y-87933333D01*
X154889761Y-90790476D02*
X153842142Y-90790476D01*
X153651666Y-90695238D01*
X153556428Y-90504761D01*
X153556428Y-90123809D01*
X153651666Y-89933333D01*
X154794523Y-90790476D02*
X154889761Y-90600000D01*
X154889761Y-90123809D01*
X154794523Y-89933333D01*
X154604047Y-89838095D01*
X154413571Y-89838095D01*
X154223095Y-89933333D01*
X154127857Y-90123809D01*
X154127857Y-90600000D01*
X154032619Y-90790476D01*
X153556428Y-91457142D02*
X153556428Y-92219047D01*
X152889761Y-91742857D02*
X154604047Y-91742857D01*
X154794523Y-91838095D01*
X154889761Y-92028571D01*
X154889761Y-92219047D01*
X153556428Y-92600000D02*
X153556428Y-93361904D01*
X152889761Y-92885714D02*
X154604047Y-92885714D01*
X154794523Y-92980952D01*
X154889761Y-93171428D01*
X154889761Y-93361904D01*
X154794523Y-94790476D02*
X154889761Y-94600000D01*
X154889761Y-94219047D01*
X154794523Y-94028571D01*
X154604047Y-93933333D01*
X153842142Y-93933333D01*
X153651666Y-94028571D01*
X153556428Y-94219047D01*
X153556428Y-94600000D01*
X153651666Y-94790476D01*
X153842142Y-94885714D01*
X154032619Y-94885714D01*
X154223095Y-93933333D01*
X154889761Y-95742857D02*
X153556428Y-95742857D01*
X153937380Y-95742857D02*
X153746904Y-95838095D01*
X153651666Y-95933333D01*
X153556428Y-96123809D01*
X153556428Y-96314285D01*
X153556428Y-96790476D02*
X154889761Y-97266666D01*
X153556428Y-97742857D02*
X154889761Y-97266666D01*
X155365952Y-97076190D01*
X155461190Y-96980952D01*
X155556428Y-96790476D01*
X154889761Y-100028571D02*
X153556428Y-100028571D01*
X153746904Y-100028571D02*
X153651666Y-100123809D01*
X153556428Y-100314285D01*
X153556428Y-100600000D01*
X153651666Y-100790476D01*
X153842142Y-100885714D01*
X154889761Y-100885714D01*
X153842142Y-100885714D02*
X153651666Y-100980952D01*
X153556428Y-101171428D01*
X153556428Y-101457142D01*
X153651666Y-101647619D01*
X153842142Y-101742857D01*
X154889761Y-101742857D01*
X154889761Y-102980952D02*
X154794523Y-102790476D01*
X154699285Y-102695238D01*
X154508809Y-102600000D01*
X153937380Y-102600000D01*
X153746904Y-102695238D01*
X153651666Y-102790476D01*
X153556428Y-102980952D01*
X153556428Y-103266666D01*
X153651666Y-103457142D01*
X153746904Y-103552380D01*
X153937380Y-103647619D01*
X154508809Y-103647619D01*
X154699285Y-103552380D01*
X154794523Y-103457142D01*
X154889761Y-103266666D01*
X154889761Y-102980952D01*
X154889761Y-105361904D02*
X152889761Y-105361904D01*
X154794523Y-105361904D02*
X154889761Y-105171428D01*
X154889761Y-104790476D01*
X154794523Y-104600000D01*
X154699285Y-104504761D01*
X154508809Y-104409523D01*
X153937380Y-104409523D01*
X153746904Y-104504761D01*
X153651666Y-104600000D01*
X153556428Y-104790476D01*
X153556428Y-105171428D01*
X153651666Y-105361904D01*
X153556428Y-107171428D02*
X154889761Y-107171428D01*
X153556428Y-106314285D02*
X154604047Y-106314285D01*
X154794523Y-106409523D01*
X154889761Y-106600000D01*
X154889761Y-106885714D01*
X154794523Y-107076190D01*
X154699285Y-107171428D01*
X154889761Y-108409523D02*
X154794523Y-108219047D01*
X154604047Y-108123809D01*
X152889761Y-108123809D01*
X154794523Y-109933333D02*
X154889761Y-109742857D01*
X154889761Y-109361904D01*
X154794523Y-109171428D01*
X154604047Y-109076190D01*
X153842142Y-109076190D01*
X153651666Y-109171428D01*
X153556428Y-109361904D01*
X153556428Y-109742857D01*
X153651666Y-109933333D01*
X153842142Y-110028571D01*
X154032619Y-110028571D01*
X154223095Y-109076190D01*
X154889761Y-113552380D02*
X153937380Y-112885714D01*
X154889761Y-112409523D02*
X152889761Y-112409523D01*
X152889761Y-113171428D01*
X152985000Y-113361904D01*
X153080238Y-113457142D01*
X153270714Y-113552380D01*
X153556428Y-113552380D01*
X153746904Y-113457142D01*
X153842142Y-113361904D01*
X153937380Y-113171428D01*
X153937380Y-112409523D01*
X154794523Y-115171428D02*
X154889761Y-114980952D01*
X154889761Y-114600000D01*
X154794523Y-114409523D01*
X154604047Y-114314285D01*
X153842142Y-114314285D01*
X153651666Y-114409523D01*
X153556428Y-114600000D01*
X153556428Y-114980952D01*
X153651666Y-115171428D01*
X153842142Y-115266666D01*
X154032619Y-115266666D01*
X154223095Y-114314285D01*
X153556428Y-115933333D02*
X154889761Y-116409523D01*
X153556428Y-116885714D01*
X152889761Y-119552380D02*
X152889761Y-119742857D01*
X152985000Y-119933333D01*
X153080238Y-120028571D01*
X153270714Y-120123809D01*
X153651666Y-120219047D01*
X154127857Y-120219047D01*
X154508809Y-120123809D01*
X154699285Y-120028571D01*
X154794523Y-119933333D01*
X154889761Y-119742857D01*
X154889761Y-119552380D01*
X154794523Y-119361904D01*
X154699285Y-119266666D01*
X154508809Y-119171428D01*
X154127857Y-119076190D01*
X153651666Y-119076190D01*
X153270714Y-119171428D01*
X153080238Y-119266666D01*
X152985000Y-119361904D01*
X152889761Y-119552380D01*
X154699285Y-121076190D02*
X154794523Y-121171428D01*
X154889761Y-121076190D01*
X154794523Y-120980952D01*
X154699285Y-121076190D01*
X154889761Y-121076190D01*
X152889761Y-122885714D02*
X152889761Y-122504761D01*
X152985000Y-122314285D01*
X153080238Y-122219047D01*
X153365952Y-122028571D01*
X153746904Y-121933333D01*
X154508809Y-121933333D01*
X154699285Y-122028571D01*
X154794523Y-122123809D01*
X154889761Y-122314285D01*
X154889761Y-122695238D01*
X154794523Y-122885714D01*
X154699285Y-122980952D01*
X154508809Y-123076190D01*
X154032619Y-123076190D01*
X153842142Y-122980952D01*
X153746904Y-122885714D01*
X153651666Y-122695238D01*
X153651666Y-122314285D01*
X153746904Y-122123809D01*
X153842142Y-122028571D01*
X154032619Y-121933333D01*
D10*
G04 #@! TO.C,TH101*
X124802380Y-97761904D02*
X124802380Y-98333333D01*
X125802380Y-98047619D02*
X124802380Y-98047619D01*
X125802380Y-98666666D02*
X124802380Y-98666666D01*
X125278571Y-98666666D02*
X125278571Y-99238095D01*
X125802380Y-99238095D02*
X124802380Y-99238095D01*
X125802380Y-100238095D02*
X125802380Y-99666666D01*
X125802380Y-99952380D02*
X124802380Y-99952380D01*
X124945238Y-99857142D01*
X125040476Y-99761904D01*
X125088095Y-99666666D01*
X124802380Y-100857142D02*
X124802380Y-100952380D01*
X124850000Y-101047619D01*
X124897619Y-101095238D01*
X124992857Y-101142857D01*
X125183333Y-101190476D01*
X125421428Y-101190476D01*
X125611904Y-101142857D01*
X125707142Y-101095238D01*
X125754761Y-101047619D01*
X125802380Y-100952380D01*
X125802380Y-100857142D01*
X125754761Y-100761904D01*
X125707142Y-100714285D01*
X125611904Y-100666666D01*
X125421428Y-100619047D01*
X125183333Y-100619047D01*
X124992857Y-100666666D01*
X124897619Y-100714285D01*
X124850000Y-100761904D01*
X124802380Y-100857142D01*
X125802380Y-102142857D02*
X125802380Y-101571428D01*
X125802380Y-101857142D02*
X124802380Y-101857142D01*
X124945238Y-101761904D01*
X125040476Y-101666666D01*
X125088095Y-101571428D01*
D12*
X127735000Y-99772936D02*
X127735000Y-100227064D01*
X126265000Y-99772936D02*
X126265000Y-100227064D01*
G04 #@! TD*
M02*
