G04 #@! TF.GenerationSoftware,KiCad,Pcbnew,(6.0.0)*
G04 #@! TF.CreationDate,2022-04-07T21:27:10+02:00*
G04 #@! TF.ProjectId,ADRmu_battery,4144526d-755f-4626-9174-746572792e6b,0.2*
G04 #@! TF.SameCoordinates,Original*
G04 #@! TF.FileFunction,Legend,Top*
G04 #@! TF.FilePolarity,Positive*
%FSLAX46Y46*%
G04 Gerber Fmt 4.6, Leading zero omitted, Abs format (unit mm)*
G04 Created by KiCad (PCBNEW (6.0.0)) date 2022-04-07 21:27:10*
%MOMM*%
%LPD*%
G01*
G04 APERTURE LIST*
%ADD10C,0.150000*%
%ADD11C,0.300000*%
%ADD12C,0.120000*%
G04 APERTURE END LIST*
D10*
X200000000Y-103000000D02*
X210000000Y-103000000D01*
X210000000Y-103000000D02*
X210000000Y-53000000D01*
X210000000Y-53000000D02*
X200000000Y-53000000D01*
X200000000Y-53000000D02*
X200000000Y-103000000D01*
G36*
X200000000Y-103000000D02*
G01*
X210000000Y-103000000D01*
X210000000Y-53000000D01*
X200000000Y-53000000D01*
X200000000Y-103000000D01*
G37*
X93000000Y-114500000D02*
X97000000Y-115450000D01*
X92000000Y-96000000D02*
X93200000Y-94800000D01*
D11*
X198433333Y-101976190D02*
X198433333Y-101023809D01*
X199004761Y-102166666D02*
X197004761Y-101500000D01*
X199004761Y-100833333D01*
X199004761Y-100166666D02*
X197004761Y-100166666D01*
X197004761Y-99690476D01*
X197100000Y-99404761D01*
X197290476Y-99214285D01*
X197480952Y-99119047D01*
X197861904Y-99023809D01*
X198147619Y-99023809D01*
X198528571Y-99119047D01*
X198719047Y-99214285D01*
X198909523Y-99404761D01*
X199004761Y-99690476D01*
X199004761Y-100166666D01*
X199004761Y-97023809D02*
X198052380Y-97690476D01*
X199004761Y-98166666D02*
X197004761Y-98166666D01*
X197004761Y-97404761D01*
X197100000Y-97214285D01*
X197195238Y-97119047D01*
X197385714Y-97023809D01*
X197671428Y-97023809D01*
X197861904Y-97119047D01*
X197957142Y-97214285D01*
X198052380Y-97404761D01*
X198052380Y-98166666D01*
X199004761Y-96166666D02*
X197671428Y-96166666D01*
X197861904Y-96166666D02*
X197766666Y-96071428D01*
X197671428Y-95880952D01*
X197671428Y-95595238D01*
X197766666Y-95404761D01*
X197957142Y-95309523D01*
X199004761Y-95309523D01*
X197957142Y-95309523D02*
X197766666Y-95214285D01*
X197671428Y-95023809D01*
X197671428Y-94738095D01*
X197766666Y-94547619D01*
X197957142Y-94452380D01*
X199004761Y-94452380D01*
X197671428Y-92642857D02*
X199004761Y-92642857D01*
X197671428Y-93500000D02*
X198719047Y-93500000D01*
X198909523Y-93404761D01*
X199004761Y-93214285D01*
X199004761Y-92928571D01*
X198909523Y-92738095D01*
X198814285Y-92642857D01*
X197957142Y-89500000D02*
X198052380Y-89214285D01*
X198147619Y-89119047D01*
X198338095Y-89023809D01*
X198623809Y-89023809D01*
X198814285Y-89119047D01*
X198909523Y-89214285D01*
X199004761Y-89404761D01*
X199004761Y-90166666D01*
X197004761Y-90166666D01*
X197004761Y-89500000D01*
X197100000Y-89309523D01*
X197195238Y-89214285D01*
X197385714Y-89119047D01*
X197576190Y-89119047D01*
X197766666Y-89214285D01*
X197861904Y-89309523D01*
X197957142Y-89500000D01*
X197957142Y-90166666D01*
X199004761Y-87309523D02*
X197957142Y-87309523D01*
X197766666Y-87404761D01*
X197671428Y-87595238D01*
X197671428Y-87976190D01*
X197766666Y-88166666D01*
X198909523Y-87309523D02*
X199004761Y-87500000D01*
X199004761Y-87976190D01*
X198909523Y-88166666D01*
X198719047Y-88261904D01*
X198528571Y-88261904D01*
X198338095Y-88166666D01*
X198242857Y-87976190D01*
X198242857Y-87500000D01*
X198147619Y-87309523D01*
X197671428Y-86642857D02*
X197671428Y-85880952D01*
X197004761Y-86357142D02*
X198719047Y-86357142D01*
X198909523Y-86261904D01*
X199004761Y-86071428D01*
X199004761Y-85880952D01*
X197671428Y-85500000D02*
X197671428Y-84738095D01*
X197004761Y-85214285D02*
X198719047Y-85214285D01*
X198909523Y-85119047D01*
X199004761Y-84928571D01*
X199004761Y-84738095D01*
X198909523Y-83309523D02*
X199004761Y-83500000D01*
X199004761Y-83880952D01*
X198909523Y-84071428D01*
X198719047Y-84166666D01*
X197957142Y-84166666D01*
X197766666Y-84071428D01*
X197671428Y-83880952D01*
X197671428Y-83500000D01*
X197766666Y-83309523D01*
X197957142Y-83214285D01*
X198147619Y-83214285D01*
X198338095Y-84166666D01*
X199004761Y-82357142D02*
X197671428Y-82357142D01*
X198052380Y-82357142D02*
X197861904Y-82261904D01*
X197766666Y-82166666D01*
X197671428Y-81976190D01*
X197671428Y-81785714D01*
X197671428Y-81309523D02*
X199004761Y-80833333D01*
X197671428Y-80357142D02*
X199004761Y-80833333D01*
X199480952Y-81023809D01*
X199576190Y-81119047D01*
X199671428Y-81309523D01*
X199004761Y-78071428D02*
X197671428Y-78071428D01*
X197861904Y-78071428D02*
X197766666Y-77976190D01*
X197671428Y-77785714D01*
X197671428Y-77500000D01*
X197766666Y-77309523D01*
X197957142Y-77214285D01*
X199004761Y-77214285D01*
X197957142Y-77214285D02*
X197766666Y-77119047D01*
X197671428Y-76928571D01*
X197671428Y-76642857D01*
X197766666Y-76452380D01*
X197957142Y-76357142D01*
X199004761Y-76357142D01*
X199004761Y-75119047D02*
X198909523Y-75309523D01*
X198814285Y-75404761D01*
X198623809Y-75500000D01*
X198052380Y-75500000D01*
X197861904Y-75404761D01*
X197766666Y-75309523D01*
X197671428Y-75119047D01*
X197671428Y-74833333D01*
X197766666Y-74642857D01*
X197861904Y-74547619D01*
X198052380Y-74452380D01*
X198623809Y-74452380D01*
X198814285Y-74547619D01*
X198909523Y-74642857D01*
X199004761Y-74833333D01*
X199004761Y-75119047D01*
X199004761Y-72738095D02*
X197004761Y-72738095D01*
X198909523Y-72738095D02*
X199004761Y-72928571D01*
X199004761Y-73309523D01*
X198909523Y-73500000D01*
X198814285Y-73595238D01*
X198623809Y-73690476D01*
X198052380Y-73690476D01*
X197861904Y-73595238D01*
X197766666Y-73500000D01*
X197671428Y-73309523D01*
X197671428Y-72928571D01*
X197766666Y-72738095D01*
X197671428Y-70928571D02*
X199004761Y-70928571D01*
X197671428Y-71785714D02*
X198719047Y-71785714D01*
X198909523Y-71690476D01*
X199004761Y-71500000D01*
X199004761Y-71214285D01*
X198909523Y-71023809D01*
X198814285Y-70928571D01*
X199004761Y-69690476D02*
X198909523Y-69880952D01*
X198719047Y-69976190D01*
X197004761Y-69976190D01*
X198909523Y-68166666D02*
X199004761Y-68357142D01*
X199004761Y-68738095D01*
X198909523Y-68928571D01*
X198719047Y-69023809D01*
X197957142Y-69023809D01*
X197766666Y-68928571D01*
X197671428Y-68738095D01*
X197671428Y-68357142D01*
X197766666Y-68166666D01*
X197957142Y-68071428D01*
X198147619Y-68071428D01*
X198338095Y-69023809D01*
X199004761Y-64547619D02*
X198052380Y-65214285D01*
X199004761Y-65690476D02*
X197004761Y-65690476D01*
X197004761Y-64928571D01*
X197100000Y-64738095D01*
X197195238Y-64642857D01*
X197385714Y-64547619D01*
X197671428Y-64547619D01*
X197861904Y-64642857D01*
X197957142Y-64738095D01*
X198052380Y-64928571D01*
X198052380Y-65690476D01*
X198909523Y-62928571D02*
X199004761Y-63119047D01*
X199004761Y-63500000D01*
X198909523Y-63690476D01*
X198719047Y-63785714D01*
X197957142Y-63785714D01*
X197766666Y-63690476D01*
X197671428Y-63500000D01*
X197671428Y-63119047D01*
X197766666Y-62928571D01*
X197957142Y-62833333D01*
X198147619Y-62833333D01*
X198338095Y-63785714D01*
X197671428Y-62166666D02*
X199004761Y-61690476D01*
X197671428Y-61214285D01*
X197004761Y-58547619D02*
X197004761Y-58357142D01*
X197100000Y-58166666D01*
X197195238Y-58071428D01*
X197385714Y-57976190D01*
X197766666Y-57880952D01*
X198242857Y-57880952D01*
X198623809Y-57976190D01*
X198814285Y-58071428D01*
X198909523Y-58166666D01*
X199004761Y-58357142D01*
X199004761Y-58547619D01*
X198909523Y-58738095D01*
X198814285Y-58833333D01*
X198623809Y-58928571D01*
X198242857Y-59023809D01*
X197766666Y-59023809D01*
X197385714Y-58928571D01*
X197195238Y-58833333D01*
X197100000Y-58738095D01*
X197004761Y-58547619D01*
X198814285Y-57023809D02*
X198909523Y-56928571D01*
X199004761Y-57023809D01*
X198909523Y-57119047D01*
X198814285Y-57023809D01*
X199004761Y-57023809D01*
X197195238Y-56166666D02*
X197100000Y-56071428D01*
X197004761Y-55880952D01*
X197004761Y-55404761D01*
X197100000Y-55214285D01*
X197195238Y-55119047D01*
X197385714Y-55023809D01*
X197576190Y-55023809D01*
X197861904Y-55119047D01*
X199004761Y-56261904D01*
X199004761Y-55023809D01*
D10*
G04 #@! TO.C,C110*
X93515817Y-101977142D02*
X93468198Y-102024761D01*
X93325341Y-102072380D01*
X93230103Y-102072380D01*
X93087245Y-102024761D01*
X92992007Y-101929523D01*
X92944388Y-101834285D01*
X92896769Y-101643809D01*
X92896769Y-101500952D01*
X92944388Y-101310476D01*
X92992007Y-101215238D01*
X93087245Y-101120000D01*
X93230103Y-101072380D01*
X93325341Y-101072380D01*
X93468198Y-101120000D01*
X93515817Y-101167619D01*
X94468198Y-102072380D02*
X93896769Y-102072380D01*
X94182484Y-102072380D02*
X94182484Y-101072380D01*
X94087245Y-101215238D01*
X93992007Y-101310476D01*
X93896769Y-101358095D01*
X95420579Y-102072380D02*
X94849150Y-102072380D01*
X95134865Y-102072380D02*
X95134865Y-101072380D01*
X95039626Y-101215238D01*
X94944388Y-101310476D01*
X94849150Y-101358095D01*
X96039626Y-101072380D02*
X96134865Y-101072380D01*
X96230103Y-101120000D01*
X96277722Y-101167619D01*
X96325341Y-101262857D01*
X96372960Y-101453333D01*
X96372960Y-101691428D01*
X96325341Y-101881904D01*
X96277722Y-101977142D01*
X96230103Y-102024761D01*
X96134865Y-102072380D01*
X96039626Y-102072380D01*
X95944388Y-102024761D01*
X95896769Y-101977142D01*
X95849150Y-101881904D01*
X95801531Y-101691428D01*
X95801531Y-101453333D01*
X95849150Y-101262857D01*
X95896769Y-101167619D01*
X95944388Y-101120000D01*
X96039626Y-101072380D01*
G04 #@! TO.C,C108*
X94357142Y-86119047D02*
X94404761Y-86166666D01*
X94452380Y-86309523D01*
X94452380Y-86404761D01*
X94404761Y-86547619D01*
X94309523Y-86642857D01*
X94214285Y-86690476D01*
X94023809Y-86738095D01*
X93880952Y-86738095D01*
X93690476Y-86690476D01*
X93595238Y-86642857D01*
X93500000Y-86547619D01*
X93452380Y-86404761D01*
X93452380Y-86309523D01*
X93500000Y-86166666D01*
X93547619Y-86119047D01*
X94452380Y-85166666D02*
X94452380Y-85738095D01*
X94452380Y-85452380D02*
X93452380Y-85452380D01*
X93595238Y-85547619D01*
X93690476Y-85642857D01*
X93738095Y-85738095D01*
X93452380Y-84547619D02*
X93452380Y-84452380D01*
X93500000Y-84357142D01*
X93547619Y-84309523D01*
X93642857Y-84261904D01*
X93833333Y-84214285D01*
X94071428Y-84214285D01*
X94261904Y-84261904D01*
X94357142Y-84309523D01*
X94404761Y-84357142D01*
X94452380Y-84452380D01*
X94452380Y-84547619D01*
X94404761Y-84642857D01*
X94357142Y-84690476D01*
X94261904Y-84738095D01*
X94071428Y-84785714D01*
X93833333Y-84785714D01*
X93642857Y-84738095D01*
X93547619Y-84690476D01*
X93500000Y-84642857D01*
X93452380Y-84547619D01*
X93880952Y-83642857D02*
X93833333Y-83738095D01*
X93785714Y-83785714D01*
X93690476Y-83833333D01*
X93642857Y-83833333D01*
X93547619Y-83785714D01*
X93500000Y-83738095D01*
X93452380Y-83642857D01*
X93452380Y-83452380D01*
X93500000Y-83357142D01*
X93547619Y-83309523D01*
X93642857Y-83261904D01*
X93690476Y-83261904D01*
X93785714Y-83309523D01*
X93833333Y-83357142D01*
X93880952Y-83452380D01*
X93880952Y-83642857D01*
X93928571Y-83738095D01*
X93976190Y-83785714D01*
X94071428Y-83833333D01*
X94261904Y-83833333D01*
X94357142Y-83785714D01*
X94404761Y-83738095D01*
X94452380Y-83642857D01*
X94452380Y-83452380D01*
X94404761Y-83357142D01*
X94357142Y-83309523D01*
X94261904Y-83261904D01*
X94071428Y-83261904D01*
X93976190Y-83309523D01*
X93928571Y-83357142D01*
X93880952Y-83452380D01*
G04 #@! TO.C,Q102*
X79547619Y-114547619D02*
X79500000Y-114642857D01*
X79404761Y-114738095D01*
X79261904Y-114880952D01*
X79214285Y-114976190D01*
X79214285Y-115071428D01*
X79452380Y-115023809D02*
X79404761Y-115119047D01*
X79309523Y-115214285D01*
X79119047Y-115261904D01*
X78785714Y-115261904D01*
X78595238Y-115214285D01*
X78500000Y-115119047D01*
X78452380Y-115023809D01*
X78452380Y-114833333D01*
X78500000Y-114738095D01*
X78595238Y-114642857D01*
X78785714Y-114595238D01*
X79119047Y-114595238D01*
X79309523Y-114642857D01*
X79404761Y-114738095D01*
X79452380Y-114833333D01*
X79452380Y-115023809D01*
X79452380Y-113642857D02*
X79452380Y-114214285D01*
X79452380Y-113928571D02*
X78452380Y-113928571D01*
X78595238Y-114023809D01*
X78690476Y-114119047D01*
X78738095Y-114214285D01*
X78452380Y-113023809D02*
X78452380Y-112928571D01*
X78500000Y-112833333D01*
X78547619Y-112785714D01*
X78642857Y-112738095D01*
X78833333Y-112690476D01*
X79071428Y-112690476D01*
X79261904Y-112738095D01*
X79357142Y-112785714D01*
X79404761Y-112833333D01*
X79452380Y-112928571D01*
X79452380Y-113023809D01*
X79404761Y-113119047D01*
X79357142Y-113166666D01*
X79261904Y-113214285D01*
X79071428Y-113261904D01*
X78833333Y-113261904D01*
X78642857Y-113214285D01*
X78547619Y-113166666D01*
X78500000Y-113119047D01*
X78452380Y-113023809D01*
X78547619Y-112309523D02*
X78500000Y-112261904D01*
X78452380Y-112166666D01*
X78452380Y-111928571D01*
X78500000Y-111833333D01*
X78547619Y-111785714D01*
X78642857Y-111738095D01*
X78738095Y-111738095D01*
X78880952Y-111785714D01*
X79452380Y-112357142D01*
X79452380Y-111738095D01*
G04 #@! TO.C,R107*
X89637452Y-93567380D02*
X89304119Y-93091190D01*
X89066023Y-93567380D02*
X89066023Y-92567380D01*
X89446976Y-92567380D01*
X89542214Y-92615000D01*
X89589833Y-92662619D01*
X89637452Y-92757857D01*
X89637452Y-92900714D01*
X89589833Y-92995952D01*
X89542214Y-93043571D01*
X89446976Y-93091190D01*
X89066023Y-93091190D01*
X90589833Y-93567380D02*
X90018404Y-93567380D01*
X90304119Y-93567380D02*
X90304119Y-92567380D01*
X90208880Y-92710238D01*
X90113642Y-92805476D01*
X90018404Y-92853095D01*
X91208880Y-92567380D02*
X91304119Y-92567380D01*
X91399357Y-92615000D01*
X91446976Y-92662619D01*
X91494595Y-92757857D01*
X91542214Y-92948333D01*
X91542214Y-93186428D01*
X91494595Y-93376904D01*
X91446976Y-93472142D01*
X91399357Y-93519761D01*
X91304119Y-93567380D01*
X91208880Y-93567380D01*
X91113642Y-93519761D01*
X91066023Y-93472142D01*
X91018404Y-93376904D01*
X90970785Y-93186428D01*
X90970785Y-92948333D01*
X91018404Y-92757857D01*
X91066023Y-92662619D01*
X91113642Y-92615000D01*
X91208880Y-92567380D01*
X91875547Y-92567380D02*
X92542214Y-92567380D01*
X92113642Y-93567380D01*
G04 #@! TO.C,B101*
X183642857Y-59428571D02*
X183785714Y-59476190D01*
X183833333Y-59523809D01*
X183880952Y-59619047D01*
X183880952Y-59761904D01*
X183833333Y-59857142D01*
X183785714Y-59904761D01*
X183690476Y-59952380D01*
X183309523Y-59952380D01*
X183309523Y-58952380D01*
X183642857Y-58952380D01*
X183738095Y-59000000D01*
X183785714Y-59047619D01*
X183833333Y-59142857D01*
X183833333Y-59238095D01*
X183785714Y-59333333D01*
X183738095Y-59380952D01*
X183642857Y-59428571D01*
X183309523Y-59428571D01*
X184833333Y-59952380D02*
X184261904Y-59952380D01*
X184547619Y-59952380D02*
X184547619Y-58952380D01*
X184452380Y-59095238D01*
X184357142Y-59190476D01*
X184261904Y-59238095D01*
X185452380Y-58952380D02*
X185547619Y-58952380D01*
X185642857Y-59000000D01*
X185690476Y-59047619D01*
X185738095Y-59142857D01*
X185785714Y-59333333D01*
X185785714Y-59571428D01*
X185738095Y-59761904D01*
X185690476Y-59857142D01*
X185642857Y-59904761D01*
X185547619Y-59952380D01*
X185452380Y-59952380D01*
X185357142Y-59904761D01*
X185309523Y-59857142D01*
X185261904Y-59761904D01*
X185214285Y-59571428D01*
X185214285Y-59333333D01*
X185261904Y-59142857D01*
X185309523Y-59047619D01*
X185357142Y-59000000D01*
X185452380Y-58952380D01*
X186738095Y-59952380D02*
X186166666Y-59952380D01*
X186452380Y-59952380D02*
X186452380Y-58952380D01*
X186357142Y-59095238D01*
X186261904Y-59190476D01*
X186166666Y-59238095D01*
X179164285Y-60192857D02*
X179164285Y-57907142D01*
X180307142Y-59050000D02*
X178021428Y-59050000D01*
X140564285Y-60192857D02*
X140564285Y-57907142D01*
X141707142Y-59050000D02*
X139421428Y-59050000D01*
X121264285Y-60192857D02*
X121264285Y-57907142D01*
X122407142Y-59050000D02*
X120121428Y-59050000D01*
X159864285Y-60192857D02*
X159864285Y-57907142D01*
X161007142Y-59050000D02*
X158721428Y-59050000D01*
G04 #@! TO.C,R122*
X101880952Y-87952380D02*
X101547619Y-87476190D01*
X101309523Y-87952380D02*
X101309523Y-86952380D01*
X101690476Y-86952380D01*
X101785714Y-87000000D01*
X101833333Y-87047619D01*
X101880952Y-87142857D01*
X101880952Y-87285714D01*
X101833333Y-87380952D01*
X101785714Y-87428571D01*
X101690476Y-87476190D01*
X101309523Y-87476190D01*
X102833333Y-87952380D02*
X102261904Y-87952380D01*
X102547619Y-87952380D02*
X102547619Y-86952380D01*
X102452380Y-87095238D01*
X102357142Y-87190476D01*
X102261904Y-87238095D01*
X103214285Y-87047619D02*
X103261904Y-87000000D01*
X103357142Y-86952380D01*
X103595238Y-86952380D01*
X103690476Y-87000000D01*
X103738095Y-87047619D01*
X103785714Y-87142857D01*
X103785714Y-87238095D01*
X103738095Y-87380952D01*
X103166666Y-87952380D01*
X103785714Y-87952380D01*
X104166666Y-87047619D02*
X104214285Y-87000000D01*
X104309523Y-86952380D01*
X104547619Y-86952380D01*
X104642857Y-87000000D01*
X104690476Y-87047619D01*
X104738095Y-87142857D01*
X104738095Y-87238095D01*
X104690476Y-87380952D01*
X104119047Y-87952380D01*
X104738095Y-87952380D01*
G04 #@! TO.C,R108*
X88452380Y-99119047D02*
X87976190Y-99452380D01*
X88452380Y-99690476D02*
X87452380Y-99690476D01*
X87452380Y-99309523D01*
X87500000Y-99214285D01*
X87547619Y-99166666D01*
X87642857Y-99119047D01*
X87785714Y-99119047D01*
X87880952Y-99166666D01*
X87928571Y-99214285D01*
X87976190Y-99309523D01*
X87976190Y-99690476D01*
X88452380Y-98166666D02*
X88452380Y-98738095D01*
X88452380Y-98452380D02*
X87452380Y-98452380D01*
X87595238Y-98547619D01*
X87690476Y-98642857D01*
X87738095Y-98738095D01*
X87452380Y-97547619D02*
X87452380Y-97452380D01*
X87500000Y-97357142D01*
X87547619Y-97309523D01*
X87642857Y-97261904D01*
X87833333Y-97214285D01*
X88071428Y-97214285D01*
X88261904Y-97261904D01*
X88357142Y-97309523D01*
X88404761Y-97357142D01*
X88452380Y-97452380D01*
X88452380Y-97547619D01*
X88404761Y-97642857D01*
X88357142Y-97690476D01*
X88261904Y-97738095D01*
X88071428Y-97785714D01*
X87833333Y-97785714D01*
X87642857Y-97738095D01*
X87547619Y-97690476D01*
X87500000Y-97642857D01*
X87452380Y-97547619D01*
X87880952Y-96642857D02*
X87833333Y-96738095D01*
X87785714Y-96785714D01*
X87690476Y-96833333D01*
X87642857Y-96833333D01*
X87547619Y-96785714D01*
X87500000Y-96738095D01*
X87452380Y-96642857D01*
X87452380Y-96452380D01*
X87500000Y-96357142D01*
X87547619Y-96309523D01*
X87642857Y-96261904D01*
X87690476Y-96261904D01*
X87785714Y-96309523D01*
X87833333Y-96357142D01*
X87880952Y-96452380D01*
X87880952Y-96642857D01*
X87928571Y-96738095D01*
X87976190Y-96785714D01*
X88071428Y-96833333D01*
X88261904Y-96833333D01*
X88357142Y-96785714D01*
X88404761Y-96738095D01*
X88452380Y-96642857D01*
X88452380Y-96452380D01*
X88404761Y-96357142D01*
X88357142Y-96309523D01*
X88261904Y-96261904D01*
X88071428Y-96261904D01*
X87976190Y-96309523D01*
X87928571Y-96357142D01*
X87880952Y-96452380D01*
G04 #@! TO.C,C112*
X211880952Y-112757142D02*
X211833333Y-112804761D01*
X211690476Y-112852380D01*
X211595238Y-112852380D01*
X211452380Y-112804761D01*
X211357142Y-112709523D01*
X211309523Y-112614285D01*
X211261904Y-112423809D01*
X211261904Y-112280952D01*
X211309523Y-112090476D01*
X211357142Y-111995238D01*
X211452380Y-111900000D01*
X211595238Y-111852380D01*
X211690476Y-111852380D01*
X211833333Y-111900000D01*
X211880952Y-111947619D01*
X212833333Y-112852380D02*
X212261904Y-112852380D01*
X212547619Y-112852380D02*
X212547619Y-111852380D01*
X212452380Y-111995238D01*
X212357142Y-112090476D01*
X212261904Y-112138095D01*
X213785714Y-112852380D02*
X213214285Y-112852380D01*
X213500000Y-112852380D02*
X213500000Y-111852380D01*
X213404761Y-111995238D01*
X213309523Y-112090476D01*
X213214285Y-112138095D01*
X214166666Y-111947619D02*
X214214285Y-111900000D01*
X214309523Y-111852380D01*
X214547619Y-111852380D01*
X214642857Y-111900000D01*
X214690476Y-111947619D01*
X214738095Y-112042857D01*
X214738095Y-112138095D01*
X214690476Y-112280952D01*
X214119047Y-112852380D01*
X214738095Y-112852380D01*
G04 #@! TO.C,R105*
X80880952Y-89452380D02*
X80547619Y-88976190D01*
X80309523Y-89452380D02*
X80309523Y-88452380D01*
X80690476Y-88452380D01*
X80785714Y-88500000D01*
X80833333Y-88547619D01*
X80880952Y-88642857D01*
X80880952Y-88785714D01*
X80833333Y-88880952D01*
X80785714Y-88928571D01*
X80690476Y-88976190D01*
X80309523Y-88976190D01*
X81833333Y-89452380D02*
X81261904Y-89452380D01*
X81547619Y-89452380D02*
X81547619Y-88452380D01*
X81452380Y-88595238D01*
X81357142Y-88690476D01*
X81261904Y-88738095D01*
X82452380Y-88452380D02*
X82547619Y-88452380D01*
X82642857Y-88500000D01*
X82690476Y-88547619D01*
X82738095Y-88642857D01*
X82785714Y-88833333D01*
X82785714Y-89071428D01*
X82738095Y-89261904D01*
X82690476Y-89357142D01*
X82642857Y-89404761D01*
X82547619Y-89452380D01*
X82452380Y-89452380D01*
X82357142Y-89404761D01*
X82309523Y-89357142D01*
X82261904Y-89261904D01*
X82214285Y-89071428D01*
X82214285Y-88833333D01*
X82261904Y-88642857D01*
X82309523Y-88547619D01*
X82357142Y-88500000D01*
X82452380Y-88452380D01*
X83690476Y-88452380D02*
X83214285Y-88452380D01*
X83166666Y-88928571D01*
X83214285Y-88880952D01*
X83309523Y-88833333D01*
X83547619Y-88833333D01*
X83642857Y-88880952D01*
X83690476Y-88928571D01*
X83738095Y-89023809D01*
X83738095Y-89261904D01*
X83690476Y-89357142D01*
X83642857Y-89404761D01*
X83547619Y-89452380D01*
X83309523Y-89452380D01*
X83214285Y-89404761D01*
X83166666Y-89357142D01*
G04 #@! TO.C,Q101*
X79547619Y-106547619D02*
X79500000Y-106642857D01*
X79404761Y-106738095D01*
X79261904Y-106880952D01*
X79214285Y-106976190D01*
X79214285Y-107071428D01*
X79452380Y-107023809D02*
X79404761Y-107119047D01*
X79309523Y-107214285D01*
X79119047Y-107261904D01*
X78785714Y-107261904D01*
X78595238Y-107214285D01*
X78500000Y-107119047D01*
X78452380Y-107023809D01*
X78452380Y-106833333D01*
X78500000Y-106738095D01*
X78595238Y-106642857D01*
X78785714Y-106595238D01*
X79119047Y-106595238D01*
X79309523Y-106642857D01*
X79404761Y-106738095D01*
X79452380Y-106833333D01*
X79452380Y-107023809D01*
X79452380Y-105642857D02*
X79452380Y-106214285D01*
X79452380Y-105928571D02*
X78452380Y-105928571D01*
X78595238Y-106023809D01*
X78690476Y-106119047D01*
X78738095Y-106214285D01*
X78452380Y-105023809D02*
X78452380Y-104928571D01*
X78500000Y-104833333D01*
X78547619Y-104785714D01*
X78642857Y-104738095D01*
X78833333Y-104690476D01*
X79071428Y-104690476D01*
X79261904Y-104738095D01*
X79357142Y-104785714D01*
X79404761Y-104833333D01*
X79452380Y-104928571D01*
X79452380Y-105023809D01*
X79404761Y-105119047D01*
X79357142Y-105166666D01*
X79261904Y-105214285D01*
X79071428Y-105261904D01*
X78833333Y-105261904D01*
X78642857Y-105214285D01*
X78547619Y-105166666D01*
X78500000Y-105119047D01*
X78452380Y-105023809D01*
X79452380Y-103738095D02*
X79452380Y-104309523D01*
X79452380Y-104023809D02*
X78452380Y-104023809D01*
X78595238Y-104119047D01*
X78690476Y-104214285D01*
X78738095Y-104309523D01*
G04 #@! TO.C,D103*
X73647380Y-87690476D02*
X72647380Y-87690476D01*
X72647380Y-87452380D01*
X72695000Y-87309523D01*
X72790238Y-87214285D01*
X72885476Y-87166666D01*
X73075952Y-87119047D01*
X73218809Y-87119047D01*
X73409285Y-87166666D01*
X73504523Y-87214285D01*
X73599761Y-87309523D01*
X73647380Y-87452380D01*
X73647380Y-87690476D01*
X73647380Y-86166666D02*
X73647380Y-86738095D01*
X73647380Y-86452380D02*
X72647380Y-86452380D01*
X72790238Y-86547619D01*
X72885476Y-86642857D01*
X72933095Y-86738095D01*
X72647380Y-85547619D02*
X72647380Y-85452380D01*
X72695000Y-85357142D01*
X72742619Y-85309523D01*
X72837857Y-85261904D01*
X73028333Y-85214285D01*
X73266428Y-85214285D01*
X73456904Y-85261904D01*
X73552142Y-85309523D01*
X73599761Y-85357142D01*
X73647380Y-85452380D01*
X73647380Y-85547619D01*
X73599761Y-85642857D01*
X73552142Y-85690476D01*
X73456904Y-85738095D01*
X73266428Y-85785714D01*
X73028333Y-85785714D01*
X72837857Y-85738095D01*
X72742619Y-85690476D01*
X72695000Y-85642857D01*
X72647380Y-85547619D01*
X72647380Y-84880952D02*
X72647380Y-84261904D01*
X73028333Y-84595238D01*
X73028333Y-84452380D01*
X73075952Y-84357142D01*
X73123571Y-84309523D01*
X73218809Y-84261904D01*
X73456904Y-84261904D01*
X73552142Y-84309523D01*
X73599761Y-84357142D01*
X73647380Y-84452380D01*
X73647380Y-84738095D01*
X73599761Y-84833333D01*
X73552142Y-84880952D01*
G04 #@! TO.C,R120*
X100302380Y-102619047D02*
X99826190Y-102952380D01*
X100302380Y-103190476D02*
X99302380Y-103190476D01*
X99302380Y-102809523D01*
X99350000Y-102714285D01*
X99397619Y-102666666D01*
X99492857Y-102619047D01*
X99635714Y-102619047D01*
X99730952Y-102666666D01*
X99778571Y-102714285D01*
X99826190Y-102809523D01*
X99826190Y-103190476D01*
X100302380Y-101666666D02*
X100302380Y-102238095D01*
X100302380Y-101952380D02*
X99302380Y-101952380D01*
X99445238Y-102047619D01*
X99540476Y-102142857D01*
X99588095Y-102238095D01*
X99397619Y-101285714D02*
X99350000Y-101238095D01*
X99302380Y-101142857D01*
X99302380Y-100904761D01*
X99350000Y-100809523D01*
X99397619Y-100761904D01*
X99492857Y-100714285D01*
X99588095Y-100714285D01*
X99730952Y-100761904D01*
X100302380Y-101333333D01*
X100302380Y-100714285D01*
X99302380Y-100095238D02*
X99302380Y-100000000D01*
X99350000Y-99904761D01*
X99397619Y-99857142D01*
X99492857Y-99809523D01*
X99683333Y-99761904D01*
X99921428Y-99761904D01*
X100111904Y-99809523D01*
X100207142Y-99857142D01*
X100254761Y-99904761D01*
X100302380Y-100000000D01*
X100302380Y-100095238D01*
X100254761Y-100190476D01*
X100207142Y-100238095D01*
X100111904Y-100285714D01*
X99921428Y-100333333D01*
X99683333Y-100333333D01*
X99492857Y-100285714D01*
X99397619Y-100238095D01*
X99350000Y-100190476D01*
X99302380Y-100095238D01*
G04 #@! TO.C,R121*
X106310952Y-105452380D02*
X105977619Y-104976190D01*
X105739523Y-105452380D02*
X105739523Y-104452380D01*
X106120476Y-104452380D01*
X106215714Y-104500000D01*
X106263333Y-104547619D01*
X106310952Y-104642857D01*
X106310952Y-104785714D01*
X106263333Y-104880952D01*
X106215714Y-104928571D01*
X106120476Y-104976190D01*
X105739523Y-104976190D01*
X107263333Y-105452380D02*
X106691904Y-105452380D01*
X106977619Y-105452380D02*
X106977619Y-104452380D01*
X106882380Y-104595238D01*
X106787142Y-104690476D01*
X106691904Y-104738095D01*
X107644285Y-104547619D02*
X107691904Y-104500000D01*
X107787142Y-104452380D01*
X108025238Y-104452380D01*
X108120476Y-104500000D01*
X108168095Y-104547619D01*
X108215714Y-104642857D01*
X108215714Y-104738095D01*
X108168095Y-104880952D01*
X107596666Y-105452380D01*
X108215714Y-105452380D01*
X109168095Y-105452380D02*
X108596666Y-105452380D01*
X108882380Y-105452380D02*
X108882380Y-104452380D01*
X108787142Y-104595238D01*
X108691904Y-104690476D01*
X108596666Y-104738095D01*
G04 #@! TO.C,C106*
X96357142Y-86119047D02*
X96404761Y-86166666D01*
X96452380Y-86309523D01*
X96452380Y-86404761D01*
X96404761Y-86547619D01*
X96309523Y-86642857D01*
X96214285Y-86690476D01*
X96023809Y-86738095D01*
X95880952Y-86738095D01*
X95690476Y-86690476D01*
X95595238Y-86642857D01*
X95500000Y-86547619D01*
X95452380Y-86404761D01*
X95452380Y-86309523D01*
X95500000Y-86166666D01*
X95547619Y-86119047D01*
X96452380Y-85166666D02*
X96452380Y-85738095D01*
X96452380Y-85452380D02*
X95452380Y-85452380D01*
X95595238Y-85547619D01*
X95690476Y-85642857D01*
X95738095Y-85738095D01*
X95452380Y-84547619D02*
X95452380Y-84452380D01*
X95500000Y-84357142D01*
X95547619Y-84309523D01*
X95642857Y-84261904D01*
X95833333Y-84214285D01*
X96071428Y-84214285D01*
X96261904Y-84261904D01*
X96357142Y-84309523D01*
X96404761Y-84357142D01*
X96452380Y-84452380D01*
X96452380Y-84547619D01*
X96404761Y-84642857D01*
X96357142Y-84690476D01*
X96261904Y-84738095D01*
X96071428Y-84785714D01*
X95833333Y-84785714D01*
X95642857Y-84738095D01*
X95547619Y-84690476D01*
X95500000Y-84642857D01*
X95452380Y-84547619D01*
X95452380Y-83357142D02*
X95452380Y-83547619D01*
X95500000Y-83642857D01*
X95547619Y-83690476D01*
X95690476Y-83785714D01*
X95880952Y-83833333D01*
X96261904Y-83833333D01*
X96357142Y-83785714D01*
X96404761Y-83738095D01*
X96452380Y-83642857D01*
X96452380Y-83452380D01*
X96404761Y-83357142D01*
X96357142Y-83309523D01*
X96261904Y-83261904D01*
X96023809Y-83261904D01*
X95928571Y-83309523D01*
X95880952Y-83357142D01*
X95833333Y-83452380D01*
X95833333Y-83642857D01*
X95880952Y-83738095D01*
X95928571Y-83785714D01*
X96023809Y-83833333D01*
G04 #@! TO.C,R123*
X211880952Y-105452380D02*
X211547619Y-104976190D01*
X211309523Y-105452380D02*
X211309523Y-104452380D01*
X211690476Y-104452380D01*
X211785714Y-104500000D01*
X211833333Y-104547619D01*
X211880952Y-104642857D01*
X211880952Y-104785714D01*
X211833333Y-104880952D01*
X211785714Y-104928571D01*
X211690476Y-104976190D01*
X211309523Y-104976190D01*
X212833333Y-105452380D02*
X212261904Y-105452380D01*
X212547619Y-105452380D02*
X212547619Y-104452380D01*
X212452380Y-104595238D01*
X212357142Y-104690476D01*
X212261904Y-104738095D01*
X213214285Y-104547619D02*
X213261904Y-104500000D01*
X213357142Y-104452380D01*
X213595238Y-104452380D01*
X213690476Y-104500000D01*
X213738095Y-104547619D01*
X213785714Y-104642857D01*
X213785714Y-104738095D01*
X213738095Y-104880952D01*
X213166666Y-105452380D01*
X213785714Y-105452380D01*
X214119047Y-104452380D02*
X214738095Y-104452380D01*
X214404761Y-104833333D01*
X214547619Y-104833333D01*
X214642857Y-104880952D01*
X214690476Y-104928571D01*
X214738095Y-105023809D01*
X214738095Y-105261904D01*
X214690476Y-105357142D01*
X214642857Y-105404761D01*
X214547619Y-105452380D01*
X214261904Y-105452380D01*
X214166666Y-105404761D01*
X214119047Y-105357142D01*
G04 #@! TO.C,D101*
X92635023Y-118952380D02*
X92635023Y-117952380D01*
X92873119Y-117952380D01*
X93015976Y-118000000D01*
X93111214Y-118095238D01*
X93158833Y-118190476D01*
X93206452Y-118380952D01*
X93206452Y-118523809D01*
X93158833Y-118714285D01*
X93111214Y-118809523D01*
X93015976Y-118904761D01*
X92873119Y-118952380D01*
X92635023Y-118952380D01*
X94158833Y-118952380D02*
X93587404Y-118952380D01*
X93873119Y-118952380D02*
X93873119Y-117952380D01*
X93777880Y-118095238D01*
X93682642Y-118190476D01*
X93587404Y-118238095D01*
X94777880Y-117952380D02*
X94873119Y-117952380D01*
X94968357Y-118000000D01*
X95015976Y-118047619D01*
X95063595Y-118142857D01*
X95111214Y-118333333D01*
X95111214Y-118571428D01*
X95063595Y-118761904D01*
X95015976Y-118857142D01*
X94968357Y-118904761D01*
X94873119Y-118952380D01*
X94777880Y-118952380D01*
X94682642Y-118904761D01*
X94635023Y-118857142D01*
X94587404Y-118761904D01*
X94539785Y-118571428D01*
X94539785Y-118333333D01*
X94587404Y-118142857D01*
X94635023Y-118047619D01*
X94682642Y-118000000D01*
X94777880Y-117952380D01*
X96063595Y-118952380D02*
X95492166Y-118952380D01*
X95777880Y-118952380D02*
X95777880Y-117952380D01*
X95682642Y-118095238D01*
X95587404Y-118190476D01*
X95492166Y-118238095D01*
G04 #@! TO.C,R124*
X211880952Y-109039880D02*
X211547619Y-108563690D01*
X211309523Y-109039880D02*
X211309523Y-108039880D01*
X211690476Y-108039880D01*
X211785714Y-108087500D01*
X211833333Y-108135119D01*
X211880952Y-108230357D01*
X211880952Y-108373214D01*
X211833333Y-108468452D01*
X211785714Y-108516071D01*
X211690476Y-108563690D01*
X211309523Y-108563690D01*
X212833333Y-109039880D02*
X212261904Y-109039880D01*
X212547619Y-109039880D02*
X212547619Y-108039880D01*
X212452380Y-108182738D01*
X212357142Y-108277976D01*
X212261904Y-108325595D01*
X213214285Y-108135119D02*
X213261904Y-108087500D01*
X213357142Y-108039880D01*
X213595238Y-108039880D01*
X213690476Y-108087500D01*
X213738095Y-108135119D01*
X213785714Y-108230357D01*
X213785714Y-108325595D01*
X213738095Y-108468452D01*
X213166666Y-109039880D01*
X213785714Y-109039880D01*
X214642857Y-108373214D02*
X214642857Y-109039880D01*
X214404761Y-107992261D02*
X214166666Y-108706547D01*
X214785714Y-108706547D01*
G04 #@! TO.C,R104*
X81380952Y-85452380D02*
X81047619Y-84976190D01*
X80809523Y-85452380D02*
X80809523Y-84452380D01*
X81190476Y-84452380D01*
X81285714Y-84500000D01*
X81333333Y-84547619D01*
X81380952Y-84642857D01*
X81380952Y-84785714D01*
X81333333Y-84880952D01*
X81285714Y-84928571D01*
X81190476Y-84976190D01*
X80809523Y-84976190D01*
X82333333Y-85452380D02*
X81761904Y-85452380D01*
X82047619Y-85452380D02*
X82047619Y-84452380D01*
X81952380Y-84595238D01*
X81857142Y-84690476D01*
X81761904Y-84738095D01*
X82952380Y-84452380D02*
X83047619Y-84452380D01*
X83142857Y-84500000D01*
X83190476Y-84547619D01*
X83238095Y-84642857D01*
X83285714Y-84833333D01*
X83285714Y-85071428D01*
X83238095Y-85261904D01*
X83190476Y-85357142D01*
X83142857Y-85404761D01*
X83047619Y-85452380D01*
X82952380Y-85452380D01*
X82857142Y-85404761D01*
X82809523Y-85357142D01*
X82761904Y-85261904D01*
X82714285Y-85071428D01*
X82714285Y-84833333D01*
X82761904Y-84642857D01*
X82809523Y-84547619D01*
X82857142Y-84500000D01*
X82952380Y-84452380D01*
X84142857Y-84785714D02*
X84142857Y-85452380D01*
X83904761Y-84404761D02*
X83666666Y-85119047D01*
X84285714Y-85119047D01*
G04 #@! TO.C,R118*
X106414452Y-102452380D02*
X106081119Y-101976190D01*
X105843023Y-102452380D02*
X105843023Y-101452380D01*
X106223976Y-101452380D01*
X106319214Y-101500000D01*
X106366833Y-101547619D01*
X106414452Y-101642857D01*
X106414452Y-101785714D01*
X106366833Y-101880952D01*
X106319214Y-101928571D01*
X106223976Y-101976190D01*
X105843023Y-101976190D01*
X107366833Y-102452380D02*
X106795404Y-102452380D01*
X107081119Y-102452380D02*
X107081119Y-101452380D01*
X106985880Y-101595238D01*
X106890642Y-101690476D01*
X106795404Y-101738095D01*
X108319214Y-102452380D02*
X107747785Y-102452380D01*
X108033500Y-102452380D02*
X108033500Y-101452380D01*
X107938261Y-101595238D01*
X107843023Y-101690476D01*
X107747785Y-101738095D01*
X108890642Y-101880952D02*
X108795404Y-101833333D01*
X108747785Y-101785714D01*
X108700166Y-101690476D01*
X108700166Y-101642857D01*
X108747785Y-101547619D01*
X108795404Y-101500000D01*
X108890642Y-101452380D01*
X109081119Y-101452380D01*
X109176357Y-101500000D01*
X109223976Y-101547619D01*
X109271595Y-101642857D01*
X109271595Y-101690476D01*
X109223976Y-101785714D01*
X109176357Y-101833333D01*
X109081119Y-101880952D01*
X108890642Y-101880952D01*
X108795404Y-101928571D01*
X108747785Y-101976190D01*
X108700166Y-102071428D01*
X108700166Y-102261904D01*
X108747785Y-102357142D01*
X108795404Y-102404761D01*
X108890642Y-102452380D01*
X109081119Y-102452380D01*
X109176357Y-102404761D01*
X109223976Y-102357142D01*
X109271595Y-102261904D01*
X109271595Y-102071428D01*
X109223976Y-101976190D01*
X109176357Y-101928571D01*
X109081119Y-101880952D01*
G04 #@! TO.C,R117*
X197880952Y-108952380D02*
X197547619Y-108476190D01*
X197309523Y-108952380D02*
X197309523Y-107952380D01*
X197690476Y-107952380D01*
X197785714Y-108000000D01*
X197833333Y-108047619D01*
X197880952Y-108142857D01*
X197880952Y-108285714D01*
X197833333Y-108380952D01*
X197785714Y-108428571D01*
X197690476Y-108476190D01*
X197309523Y-108476190D01*
X198833333Y-108952380D02*
X198261904Y-108952380D01*
X198547619Y-108952380D02*
X198547619Y-107952380D01*
X198452380Y-108095238D01*
X198357142Y-108190476D01*
X198261904Y-108238095D01*
X199785714Y-108952380D02*
X199214285Y-108952380D01*
X199500000Y-108952380D02*
X199500000Y-107952380D01*
X199404761Y-108095238D01*
X199309523Y-108190476D01*
X199214285Y-108238095D01*
X200119047Y-107952380D02*
X200785714Y-107952380D01*
X200357142Y-108952380D01*
G04 #@! TO.C,R115*
X106380952Y-100952380D02*
X106047619Y-100476190D01*
X105809523Y-100952380D02*
X105809523Y-99952380D01*
X106190476Y-99952380D01*
X106285714Y-100000000D01*
X106333333Y-100047619D01*
X106380952Y-100142857D01*
X106380952Y-100285714D01*
X106333333Y-100380952D01*
X106285714Y-100428571D01*
X106190476Y-100476190D01*
X105809523Y-100476190D01*
X107333333Y-100952380D02*
X106761904Y-100952380D01*
X107047619Y-100952380D02*
X107047619Y-99952380D01*
X106952380Y-100095238D01*
X106857142Y-100190476D01*
X106761904Y-100238095D01*
X108285714Y-100952380D02*
X107714285Y-100952380D01*
X108000000Y-100952380D02*
X108000000Y-99952380D01*
X107904761Y-100095238D01*
X107809523Y-100190476D01*
X107714285Y-100238095D01*
X109190476Y-99952380D02*
X108714285Y-99952380D01*
X108666666Y-100428571D01*
X108714285Y-100380952D01*
X108809523Y-100333333D01*
X109047619Y-100333333D01*
X109142857Y-100380952D01*
X109190476Y-100428571D01*
X109238095Y-100523809D01*
X109238095Y-100761904D01*
X109190476Y-100857142D01*
X109142857Y-100904761D01*
X109047619Y-100952380D01*
X108809523Y-100952380D01*
X108714285Y-100904761D01*
X108666666Y-100857142D01*
G04 #@! TO.C,R102*
X90452380Y-89119047D02*
X89976190Y-89452380D01*
X90452380Y-89690476D02*
X89452380Y-89690476D01*
X89452380Y-89309523D01*
X89500000Y-89214285D01*
X89547619Y-89166666D01*
X89642857Y-89119047D01*
X89785714Y-89119047D01*
X89880952Y-89166666D01*
X89928571Y-89214285D01*
X89976190Y-89309523D01*
X89976190Y-89690476D01*
X90452380Y-88166666D02*
X90452380Y-88738095D01*
X90452380Y-88452380D02*
X89452380Y-88452380D01*
X89595238Y-88547619D01*
X89690476Y-88642857D01*
X89738095Y-88738095D01*
X89452380Y-87547619D02*
X89452380Y-87452380D01*
X89500000Y-87357142D01*
X89547619Y-87309523D01*
X89642857Y-87261904D01*
X89833333Y-87214285D01*
X90071428Y-87214285D01*
X90261904Y-87261904D01*
X90357142Y-87309523D01*
X90404761Y-87357142D01*
X90452380Y-87452380D01*
X90452380Y-87547619D01*
X90404761Y-87642857D01*
X90357142Y-87690476D01*
X90261904Y-87738095D01*
X90071428Y-87785714D01*
X89833333Y-87785714D01*
X89642857Y-87738095D01*
X89547619Y-87690476D01*
X89500000Y-87642857D01*
X89452380Y-87547619D01*
X89547619Y-86833333D02*
X89500000Y-86785714D01*
X89452380Y-86690476D01*
X89452380Y-86452380D01*
X89500000Y-86357142D01*
X89547619Y-86309523D01*
X89642857Y-86261904D01*
X89738095Y-86261904D01*
X89880952Y-86309523D01*
X90452380Y-86880952D01*
X90452380Y-86261904D01*
G04 #@! TO.C,C107*
X93465817Y-96357142D02*
X93418198Y-96404761D01*
X93275341Y-96452380D01*
X93180103Y-96452380D01*
X93037245Y-96404761D01*
X92942007Y-96309523D01*
X92894388Y-96214285D01*
X92846769Y-96023809D01*
X92846769Y-95880952D01*
X92894388Y-95690476D01*
X92942007Y-95595238D01*
X93037245Y-95500000D01*
X93180103Y-95452380D01*
X93275341Y-95452380D01*
X93418198Y-95500000D01*
X93465817Y-95547619D01*
X94418198Y-96452380D02*
X93846769Y-96452380D01*
X94132484Y-96452380D02*
X94132484Y-95452380D01*
X94037245Y-95595238D01*
X93942007Y-95690476D01*
X93846769Y-95738095D01*
X95037245Y-95452380D02*
X95132484Y-95452380D01*
X95227722Y-95500000D01*
X95275341Y-95547619D01*
X95322960Y-95642857D01*
X95370579Y-95833333D01*
X95370579Y-96071428D01*
X95322960Y-96261904D01*
X95275341Y-96357142D01*
X95227722Y-96404761D01*
X95132484Y-96452380D01*
X95037245Y-96452380D01*
X94942007Y-96404761D01*
X94894388Y-96357142D01*
X94846769Y-96261904D01*
X94799150Y-96071428D01*
X94799150Y-95833333D01*
X94846769Y-95642857D01*
X94894388Y-95547619D01*
X94942007Y-95500000D01*
X95037245Y-95452380D01*
X95703912Y-95452380D02*
X96370579Y-95452380D01*
X95942007Y-96452380D01*
G04 #@! TO.C,R110*
X97880952Y-106952380D02*
X97547619Y-106476190D01*
X97309523Y-106952380D02*
X97309523Y-105952380D01*
X97690476Y-105952380D01*
X97785714Y-106000000D01*
X97833333Y-106047619D01*
X97880952Y-106142857D01*
X97880952Y-106285714D01*
X97833333Y-106380952D01*
X97785714Y-106428571D01*
X97690476Y-106476190D01*
X97309523Y-106476190D01*
X98833333Y-106952380D02*
X98261904Y-106952380D01*
X98547619Y-106952380D02*
X98547619Y-105952380D01*
X98452380Y-106095238D01*
X98357142Y-106190476D01*
X98261904Y-106238095D01*
X99785714Y-106952380D02*
X99214285Y-106952380D01*
X99500000Y-106952380D02*
X99500000Y-105952380D01*
X99404761Y-106095238D01*
X99309523Y-106190476D01*
X99214285Y-106238095D01*
X100404761Y-105952380D02*
X100500000Y-105952380D01*
X100595238Y-106000000D01*
X100642857Y-106047619D01*
X100690476Y-106142857D01*
X100738095Y-106333333D01*
X100738095Y-106571428D01*
X100690476Y-106761904D01*
X100642857Y-106857142D01*
X100595238Y-106904761D01*
X100500000Y-106952380D01*
X100404761Y-106952380D01*
X100309523Y-106904761D01*
X100261904Y-106857142D01*
X100214285Y-106761904D01*
X100166666Y-106571428D01*
X100166666Y-106333333D01*
X100214285Y-106142857D01*
X100261904Y-106047619D01*
X100309523Y-106000000D01*
X100404761Y-105952380D01*
G04 #@! TO.C,R109*
X85880952Y-101452380D02*
X85547619Y-100976190D01*
X85309523Y-101452380D02*
X85309523Y-100452380D01*
X85690476Y-100452380D01*
X85785714Y-100500000D01*
X85833333Y-100547619D01*
X85880952Y-100642857D01*
X85880952Y-100785714D01*
X85833333Y-100880952D01*
X85785714Y-100928571D01*
X85690476Y-100976190D01*
X85309523Y-100976190D01*
X86833333Y-101452380D02*
X86261904Y-101452380D01*
X86547619Y-101452380D02*
X86547619Y-100452380D01*
X86452380Y-100595238D01*
X86357142Y-100690476D01*
X86261904Y-100738095D01*
X87452380Y-100452380D02*
X87547619Y-100452380D01*
X87642857Y-100500000D01*
X87690476Y-100547619D01*
X87738095Y-100642857D01*
X87785714Y-100833333D01*
X87785714Y-101071428D01*
X87738095Y-101261904D01*
X87690476Y-101357142D01*
X87642857Y-101404761D01*
X87547619Y-101452380D01*
X87452380Y-101452380D01*
X87357142Y-101404761D01*
X87309523Y-101357142D01*
X87261904Y-101261904D01*
X87214285Y-101071428D01*
X87214285Y-100833333D01*
X87261904Y-100642857D01*
X87309523Y-100547619D01*
X87357142Y-100500000D01*
X87452380Y-100452380D01*
X88261904Y-101452380D02*
X88452380Y-101452380D01*
X88547619Y-101404761D01*
X88595238Y-101357142D01*
X88690476Y-101214285D01*
X88738095Y-101023809D01*
X88738095Y-100642857D01*
X88690476Y-100547619D01*
X88642857Y-100500000D01*
X88547619Y-100452380D01*
X88357142Y-100452380D01*
X88261904Y-100500000D01*
X88214285Y-100547619D01*
X88166666Y-100642857D01*
X88166666Y-100880952D01*
X88214285Y-100976190D01*
X88261904Y-101023809D01*
X88357142Y-101071428D01*
X88547619Y-101071428D01*
X88642857Y-101023809D01*
X88690476Y-100976190D01*
X88738095Y-100880952D01*
G04 #@! TO.C,C111*
X94380952Y-109357142D02*
X94333333Y-109404761D01*
X94190476Y-109452380D01*
X94095238Y-109452380D01*
X93952380Y-109404761D01*
X93857142Y-109309523D01*
X93809523Y-109214285D01*
X93761904Y-109023809D01*
X93761904Y-108880952D01*
X93809523Y-108690476D01*
X93857142Y-108595238D01*
X93952380Y-108500000D01*
X94095238Y-108452380D01*
X94190476Y-108452380D01*
X94333333Y-108500000D01*
X94380952Y-108547619D01*
X95333333Y-109452380D02*
X94761904Y-109452380D01*
X95047619Y-109452380D02*
X95047619Y-108452380D01*
X94952380Y-108595238D01*
X94857142Y-108690476D01*
X94761904Y-108738095D01*
X96285714Y-109452380D02*
X95714285Y-109452380D01*
X96000000Y-109452380D02*
X96000000Y-108452380D01*
X95904761Y-108595238D01*
X95809523Y-108690476D01*
X95714285Y-108738095D01*
X97238095Y-109452380D02*
X96666666Y-109452380D01*
X96952380Y-109452380D02*
X96952380Y-108452380D01*
X96857142Y-108595238D01*
X96761904Y-108690476D01*
X96666666Y-108738095D01*
G04 #@! TO.C,D102*
X87452380Y-121190476D02*
X86452380Y-121190476D01*
X86452380Y-120952380D01*
X86500000Y-120809523D01*
X86595238Y-120714285D01*
X86690476Y-120666666D01*
X86880952Y-120619047D01*
X87023809Y-120619047D01*
X87214285Y-120666666D01*
X87309523Y-120714285D01*
X87404761Y-120809523D01*
X87452380Y-120952380D01*
X87452380Y-121190476D01*
X87452380Y-119666666D02*
X87452380Y-120238095D01*
X87452380Y-119952380D02*
X86452380Y-119952380D01*
X86595238Y-120047619D01*
X86690476Y-120142857D01*
X86738095Y-120238095D01*
X86452380Y-119047619D02*
X86452380Y-118952380D01*
X86500000Y-118857142D01*
X86547619Y-118809523D01*
X86642857Y-118761904D01*
X86833333Y-118714285D01*
X87071428Y-118714285D01*
X87261904Y-118761904D01*
X87357142Y-118809523D01*
X87404761Y-118857142D01*
X87452380Y-118952380D01*
X87452380Y-119047619D01*
X87404761Y-119142857D01*
X87357142Y-119190476D01*
X87261904Y-119238095D01*
X87071428Y-119285714D01*
X86833333Y-119285714D01*
X86642857Y-119238095D01*
X86547619Y-119190476D01*
X86500000Y-119142857D01*
X86452380Y-119047619D01*
X86547619Y-118333333D02*
X86500000Y-118285714D01*
X86452380Y-118190476D01*
X86452380Y-117952380D01*
X86500000Y-117857142D01*
X86547619Y-117809523D01*
X86642857Y-117761904D01*
X86738095Y-117761904D01*
X86880952Y-117809523D01*
X87452380Y-118380952D01*
X87452380Y-117761904D01*
G04 #@! TO.C,R101*
X97627952Y-87952380D02*
X97294619Y-87476190D01*
X97056523Y-87952380D02*
X97056523Y-86952380D01*
X97437476Y-86952380D01*
X97532714Y-87000000D01*
X97580333Y-87047619D01*
X97627952Y-87142857D01*
X97627952Y-87285714D01*
X97580333Y-87380952D01*
X97532714Y-87428571D01*
X97437476Y-87476190D01*
X97056523Y-87476190D01*
X98580333Y-87952380D02*
X98008904Y-87952380D01*
X98294619Y-87952380D02*
X98294619Y-86952380D01*
X98199380Y-87095238D01*
X98104142Y-87190476D01*
X98008904Y-87238095D01*
X99199380Y-86952380D02*
X99294619Y-86952380D01*
X99389857Y-87000000D01*
X99437476Y-87047619D01*
X99485095Y-87142857D01*
X99532714Y-87333333D01*
X99532714Y-87571428D01*
X99485095Y-87761904D01*
X99437476Y-87857142D01*
X99389857Y-87904761D01*
X99294619Y-87952380D01*
X99199380Y-87952380D01*
X99104142Y-87904761D01*
X99056523Y-87857142D01*
X99008904Y-87761904D01*
X98961285Y-87571428D01*
X98961285Y-87333333D01*
X99008904Y-87142857D01*
X99056523Y-87047619D01*
X99104142Y-87000000D01*
X99199380Y-86952380D01*
X100485095Y-87952380D02*
X99913666Y-87952380D01*
X100199380Y-87952380D02*
X100199380Y-86952380D01*
X100104142Y-87095238D01*
X100008904Y-87190476D01*
X99913666Y-87238095D01*
G04 #@! TO.C,R119*
X106380952Y-103952380D02*
X106047619Y-103476190D01*
X105809523Y-103952380D02*
X105809523Y-102952380D01*
X106190476Y-102952380D01*
X106285714Y-103000000D01*
X106333333Y-103047619D01*
X106380952Y-103142857D01*
X106380952Y-103285714D01*
X106333333Y-103380952D01*
X106285714Y-103428571D01*
X106190476Y-103476190D01*
X105809523Y-103476190D01*
X107333333Y-103952380D02*
X106761904Y-103952380D01*
X107047619Y-103952380D02*
X107047619Y-102952380D01*
X106952380Y-103095238D01*
X106857142Y-103190476D01*
X106761904Y-103238095D01*
X108285714Y-103952380D02*
X107714285Y-103952380D01*
X108000000Y-103952380D02*
X108000000Y-102952380D01*
X107904761Y-103095238D01*
X107809523Y-103190476D01*
X107714285Y-103238095D01*
X108761904Y-103952380D02*
X108952380Y-103952380D01*
X109047619Y-103904761D01*
X109095238Y-103857142D01*
X109190476Y-103714285D01*
X109238095Y-103523809D01*
X109238095Y-103142857D01*
X109190476Y-103047619D01*
X109142857Y-103000000D01*
X109047619Y-102952380D01*
X108857142Y-102952380D01*
X108761904Y-103000000D01*
X108714285Y-103047619D01*
X108666666Y-103142857D01*
X108666666Y-103380952D01*
X108714285Y-103476190D01*
X108761904Y-103523809D01*
X108857142Y-103571428D01*
X109047619Y-103571428D01*
X109142857Y-103523809D01*
X109190476Y-103476190D01*
X109238095Y-103380952D01*
G04 #@! TO.C,J101*
X223152380Y-56835714D02*
X223866666Y-56835714D01*
X224009523Y-56883333D01*
X224104761Y-56978571D01*
X224152380Y-57121428D01*
X224152380Y-57216666D01*
X224152380Y-55835714D02*
X224152380Y-56407142D01*
X224152380Y-56121428D02*
X223152380Y-56121428D01*
X223295238Y-56216666D01*
X223390476Y-56311904D01*
X223438095Y-56407142D01*
X223152380Y-55216666D02*
X223152380Y-55121428D01*
X223200000Y-55026190D01*
X223247619Y-54978571D01*
X223342857Y-54930952D01*
X223533333Y-54883333D01*
X223771428Y-54883333D01*
X223961904Y-54930952D01*
X224057142Y-54978571D01*
X224104761Y-55026190D01*
X224152380Y-55121428D01*
X224152380Y-55216666D01*
X224104761Y-55311904D01*
X224057142Y-55359523D01*
X223961904Y-55407142D01*
X223771428Y-55454761D01*
X223533333Y-55454761D01*
X223342857Y-55407142D01*
X223247619Y-55359523D01*
X223200000Y-55311904D01*
X223152380Y-55216666D01*
X224152380Y-53930952D02*
X224152380Y-54502380D01*
X224152380Y-54216666D02*
X223152380Y-54216666D01*
X223295238Y-54311904D01*
X223390476Y-54407142D01*
X223438095Y-54502380D01*
G04 #@! TO.C,R116*
X190880952Y-69452380D02*
X190547619Y-68976190D01*
X190309523Y-69452380D02*
X190309523Y-68452380D01*
X190690476Y-68452380D01*
X190785714Y-68500000D01*
X190833333Y-68547619D01*
X190880952Y-68642857D01*
X190880952Y-68785714D01*
X190833333Y-68880952D01*
X190785714Y-68928571D01*
X190690476Y-68976190D01*
X190309523Y-68976190D01*
X191833333Y-69452380D02*
X191261904Y-69452380D01*
X191547619Y-69452380D02*
X191547619Y-68452380D01*
X191452380Y-68595238D01*
X191357142Y-68690476D01*
X191261904Y-68738095D01*
X192785714Y-69452380D02*
X192214285Y-69452380D01*
X192500000Y-69452380D02*
X192500000Y-68452380D01*
X192404761Y-68595238D01*
X192309523Y-68690476D01*
X192214285Y-68738095D01*
X193642857Y-68452380D02*
X193452380Y-68452380D01*
X193357142Y-68500000D01*
X193309523Y-68547619D01*
X193214285Y-68690476D01*
X193166666Y-68880952D01*
X193166666Y-69261904D01*
X193214285Y-69357142D01*
X193261904Y-69404761D01*
X193357142Y-69452380D01*
X193547619Y-69452380D01*
X193642857Y-69404761D01*
X193690476Y-69357142D01*
X193738095Y-69261904D01*
X193738095Y-69023809D01*
X193690476Y-68928571D01*
X193642857Y-68880952D01*
X193547619Y-68833333D01*
X193357142Y-68833333D01*
X193261904Y-68880952D01*
X193214285Y-68928571D01*
X193166666Y-69023809D01*
G04 #@! TO.C,R112*
X98380952Y-113952380D02*
X98047619Y-113476190D01*
X97809523Y-113952380D02*
X97809523Y-112952380D01*
X98190476Y-112952380D01*
X98285714Y-113000000D01*
X98333333Y-113047619D01*
X98380952Y-113142857D01*
X98380952Y-113285714D01*
X98333333Y-113380952D01*
X98285714Y-113428571D01*
X98190476Y-113476190D01*
X97809523Y-113476190D01*
X99333333Y-113952380D02*
X98761904Y-113952380D01*
X99047619Y-113952380D02*
X99047619Y-112952380D01*
X98952380Y-113095238D01*
X98857142Y-113190476D01*
X98761904Y-113238095D01*
X100285714Y-113952380D02*
X99714285Y-113952380D01*
X100000000Y-113952380D02*
X100000000Y-112952380D01*
X99904761Y-113095238D01*
X99809523Y-113190476D01*
X99714285Y-113238095D01*
X100666666Y-113047619D02*
X100714285Y-113000000D01*
X100809523Y-112952380D01*
X101047619Y-112952380D01*
X101142857Y-113000000D01*
X101190476Y-113047619D01*
X101238095Y-113142857D01*
X101238095Y-113238095D01*
X101190476Y-113380952D01*
X100619047Y-113952380D01*
X101238095Y-113952380D01*
G04 #@! TO.C,C102*
X80880952Y-83357142D02*
X80833333Y-83404761D01*
X80690476Y-83452380D01*
X80595238Y-83452380D01*
X80452380Y-83404761D01*
X80357142Y-83309523D01*
X80309523Y-83214285D01*
X80261904Y-83023809D01*
X80261904Y-82880952D01*
X80309523Y-82690476D01*
X80357142Y-82595238D01*
X80452380Y-82500000D01*
X80595238Y-82452380D01*
X80690476Y-82452380D01*
X80833333Y-82500000D01*
X80880952Y-82547619D01*
X81833333Y-83452380D02*
X81261904Y-83452380D01*
X81547619Y-83452380D02*
X81547619Y-82452380D01*
X81452380Y-82595238D01*
X81357142Y-82690476D01*
X81261904Y-82738095D01*
X82452380Y-82452380D02*
X82547619Y-82452380D01*
X82642857Y-82500000D01*
X82690476Y-82547619D01*
X82738095Y-82642857D01*
X82785714Y-82833333D01*
X82785714Y-83071428D01*
X82738095Y-83261904D01*
X82690476Y-83357142D01*
X82642857Y-83404761D01*
X82547619Y-83452380D01*
X82452380Y-83452380D01*
X82357142Y-83404761D01*
X82309523Y-83357142D01*
X82261904Y-83261904D01*
X82214285Y-83071428D01*
X82214285Y-82833333D01*
X82261904Y-82642857D01*
X82309523Y-82547619D01*
X82357142Y-82500000D01*
X82452380Y-82452380D01*
X83166666Y-82547619D02*
X83214285Y-82500000D01*
X83309523Y-82452380D01*
X83547619Y-82452380D01*
X83642857Y-82500000D01*
X83690476Y-82547619D01*
X83738095Y-82642857D01*
X83738095Y-82738095D01*
X83690476Y-82880952D01*
X83119047Y-83452380D01*
X83738095Y-83452380D01*
G04 #@! TO.C,R114*
X97880952Y-111952380D02*
X97547619Y-111476190D01*
X97309523Y-111952380D02*
X97309523Y-110952380D01*
X97690476Y-110952380D01*
X97785714Y-111000000D01*
X97833333Y-111047619D01*
X97880952Y-111142857D01*
X97880952Y-111285714D01*
X97833333Y-111380952D01*
X97785714Y-111428571D01*
X97690476Y-111476190D01*
X97309523Y-111476190D01*
X98833333Y-111952380D02*
X98261904Y-111952380D01*
X98547619Y-111952380D02*
X98547619Y-110952380D01*
X98452380Y-111095238D01*
X98357142Y-111190476D01*
X98261904Y-111238095D01*
X99785714Y-111952380D02*
X99214285Y-111952380D01*
X99500000Y-111952380D02*
X99500000Y-110952380D01*
X99404761Y-111095238D01*
X99309523Y-111190476D01*
X99214285Y-111238095D01*
X100642857Y-111285714D02*
X100642857Y-111952380D01*
X100404761Y-110904761D02*
X100166666Y-111619047D01*
X100785714Y-111619047D01*
G04 #@! TO.C,C103*
X81380952Y-87357142D02*
X81333333Y-87404761D01*
X81190476Y-87452380D01*
X81095238Y-87452380D01*
X80952380Y-87404761D01*
X80857142Y-87309523D01*
X80809523Y-87214285D01*
X80761904Y-87023809D01*
X80761904Y-86880952D01*
X80809523Y-86690476D01*
X80857142Y-86595238D01*
X80952380Y-86500000D01*
X81095238Y-86452380D01*
X81190476Y-86452380D01*
X81333333Y-86500000D01*
X81380952Y-86547619D01*
X82333333Y-87452380D02*
X81761904Y-87452380D01*
X82047619Y-87452380D02*
X82047619Y-86452380D01*
X81952380Y-86595238D01*
X81857142Y-86690476D01*
X81761904Y-86738095D01*
X82952380Y-86452380D02*
X83047619Y-86452380D01*
X83142857Y-86500000D01*
X83190476Y-86547619D01*
X83238095Y-86642857D01*
X83285714Y-86833333D01*
X83285714Y-87071428D01*
X83238095Y-87261904D01*
X83190476Y-87357142D01*
X83142857Y-87404761D01*
X83047619Y-87452380D01*
X82952380Y-87452380D01*
X82857142Y-87404761D01*
X82809523Y-87357142D01*
X82761904Y-87261904D01*
X82714285Y-87071428D01*
X82714285Y-86833333D01*
X82761904Y-86642857D01*
X82809523Y-86547619D01*
X82857142Y-86500000D01*
X82952380Y-86452380D01*
X83619047Y-86452380D02*
X84238095Y-86452380D01*
X83904761Y-86833333D01*
X84047619Y-86833333D01*
X84142857Y-86880952D01*
X84190476Y-86928571D01*
X84238095Y-87023809D01*
X84238095Y-87261904D01*
X84190476Y-87357142D01*
X84142857Y-87404761D01*
X84047619Y-87452380D01*
X83761904Y-87452380D01*
X83666666Y-87404761D01*
X83619047Y-87357142D01*
G04 #@! TO.C,C109*
X94357142Y-94119047D02*
X94404761Y-94166666D01*
X94452380Y-94309523D01*
X94452380Y-94404761D01*
X94404761Y-94547619D01*
X94309523Y-94642857D01*
X94214285Y-94690476D01*
X94023809Y-94738095D01*
X93880952Y-94738095D01*
X93690476Y-94690476D01*
X93595238Y-94642857D01*
X93500000Y-94547619D01*
X93452380Y-94404761D01*
X93452380Y-94309523D01*
X93500000Y-94166666D01*
X93547619Y-94119047D01*
X94452380Y-93166666D02*
X94452380Y-93738095D01*
X94452380Y-93452380D02*
X93452380Y-93452380D01*
X93595238Y-93547619D01*
X93690476Y-93642857D01*
X93738095Y-93738095D01*
X93452380Y-92547619D02*
X93452380Y-92452380D01*
X93500000Y-92357142D01*
X93547619Y-92309523D01*
X93642857Y-92261904D01*
X93833333Y-92214285D01*
X94071428Y-92214285D01*
X94261904Y-92261904D01*
X94357142Y-92309523D01*
X94404761Y-92357142D01*
X94452380Y-92452380D01*
X94452380Y-92547619D01*
X94404761Y-92642857D01*
X94357142Y-92690476D01*
X94261904Y-92738095D01*
X94071428Y-92785714D01*
X93833333Y-92785714D01*
X93642857Y-92738095D01*
X93547619Y-92690476D01*
X93500000Y-92642857D01*
X93452380Y-92547619D01*
X94452380Y-91738095D02*
X94452380Y-91547619D01*
X94404761Y-91452380D01*
X94357142Y-91404761D01*
X94214285Y-91309523D01*
X94023809Y-91261904D01*
X93642857Y-91261904D01*
X93547619Y-91309523D01*
X93500000Y-91357142D01*
X93452380Y-91452380D01*
X93452380Y-91642857D01*
X93500000Y-91738095D01*
X93547619Y-91785714D01*
X93642857Y-91833333D01*
X93880952Y-91833333D01*
X93976190Y-91785714D01*
X94023809Y-91738095D01*
X94071428Y-91642857D01*
X94071428Y-91452380D01*
X94023809Y-91357142D01*
X93976190Y-91309523D01*
X93880952Y-91261904D01*
G04 #@! TO.C,R106*
X80880952Y-95452380D02*
X80547619Y-94976190D01*
X80309523Y-95452380D02*
X80309523Y-94452380D01*
X80690476Y-94452380D01*
X80785714Y-94500000D01*
X80833333Y-94547619D01*
X80880952Y-94642857D01*
X80880952Y-94785714D01*
X80833333Y-94880952D01*
X80785714Y-94928571D01*
X80690476Y-94976190D01*
X80309523Y-94976190D01*
X81833333Y-95452380D02*
X81261904Y-95452380D01*
X81547619Y-95452380D02*
X81547619Y-94452380D01*
X81452380Y-94595238D01*
X81357142Y-94690476D01*
X81261904Y-94738095D01*
X82452380Y-94452380D02*
X82547619Y-94452380D01*
X82642857Y-94500000D01*
X82690476Y-94547619D01*
X82738095Y-94642857D01*
X82785714Y-94833333D01*
X82785714Y-95071428D01*
X82738095Y-95261904D01*
X82690476Y-95357142D01*
X82642857Y-95404761D01*
X82547619Y-95452380D01*
X82452380Y-95452380D01*
X82357142Y-95404761D01*
X82309523Y-95357142D01*
X82261904Y-95261904D01*
X82214285Y-95071428D01*
X82214285Y-94833333D01*
X82261904Y-94642857D01*
X82309523Y-94547619D01*
X82357142Y-94500000D01*
X82452380Y-94452380D01*
X83642857Y-94452380D02*
X83452380Y-94452380D01*
X83357142Y-94500000D01*
X83309523Y-94547619D01*
X83214285Y-94690476D01*
X83166666Y-94880952D01*
X83166666Y-95261904D01*
X83214285Y-95357142D01*
X83261904Y-95404761D01*
X83357142Y-95452380D01*
X83547619Y-95452380D01*
X83642857Y-95404761D01*
X83690476Y-95357142D01*
X83738095Y-95261904D01*
X83738095Y-95023809D01*
X83690476Y-94928571D01*
X83642857Y-94880952D01*
X83547619Y-94833333D01*
X83357142Y-94833333D01*
X83261904Y-94880952D01*
X83214285Y-94928571D01*
X83166666Y-95023809D01*
G04 #@! TO.C,R111*
X93880952Y-103952380D02*
X93547619Y-103476190D01*
X93309523Y-103952380D02*
X93309523Y-102952380D01*
X93690476Y-102952380D01*
X93785714Y-103000000D01*
X93833333Y-103047619D01*
X93880952Y-103142857D01*
X93880952Y-103285714D01*
X93833333Y-103380952D01*
X93785714Y-103428571D01*
X93690476Y-103476190D01*
X93309523Y-103476190D01*
X94833333Y-103952380D02*
X94261904Y-103952380D01*
X94547619Y-103952380D02*
X94547619Y-102952380D01*
X94452380Y-103095238D01*
X94357142Y-103190476D01*
X94261904Y-103238095D01*
X95785714Y-103952380D02*
X95214285Y-103952380D01*
X95500000Y-103952380D02*
X95500000Y-102952380D01*
X95404761Y-103095238D01*
X95309523Y-103190476D01*
X95214285Y-103238095D01*
X96738095Y-103952380D02*
X96166666Y-103952380D01*
X96452380Y-103952380D02*
X96452380Y-102952380D01*
X96357142Y-103095238D01*
X96261904Y-103190476D01*
X96166666Y-103238095D01*
G04 #@! TO.C,U101*
X95452380Y-94714285D02*
X96261904Y-94714285D01*
X96357142Y-94666666D01*
X96404761Y-94619047D01*
X96452380Y-94523809D01*
X96452380Y-94333333D01*
X96404761Y-94238095D01*
X96357142Y-94190476D01*
X96261904Y-94142857D01*
X95452380Y-94142857D01*
X96452380Y-93142857D02*
X96452380Y-93714285D01*
X96452380Y-93428571D02*
X95452380Y-93428571D01*
X95595238Y-93523809D01*
X95690476Y-93619047D01*
X95738095Y-93714285D01*
X95452380Y-92523809D02*
X95452380Y-92428571D01*
X95500000Y-92333333D01*
X95547619Y-92285714D01*
X95642857Y-92238095D01*
X95833333Y-92190476D01*
X96071428Y-92190476D01*
X96261904Y-92238095D01*
X96357142Y-92285714D01*
X96404761Y-92333333D01*
X96452380Y-92428571D01*
X96452380Y-92523809D01*
X96404761Y-92619047D01*
X96357142Y-92666666D01*
X96261904Y-92714285D01*
X96071428Y-92761904D01*
X95833333Y-92761904D01*
X95642857Y-92714285D01*
X95547619Y-92666666D01*
X95500000Y-92619047D01*
X95452380Y-92523809D01*
X96452380Y-91238095D02*
X96452380Y-91809523D01*
X96452380Y-91523809D02*
X95452380Y-91523809D01*
X95595238Y-91619047D01*
X95690476Y-91714285D01*
X95738095Y-91809523D01*
G04 #@! TO.C,D104*
X73852380Y-67690476D02*
X72852380Y-67690476D01*
X72852380Y-67452380D01*
X72900000Y-67309523D01*
X72995238Y-67214285D01*
X73090476Y-67166666D01*
X73280952Y-67119047D01*
X73423809Y-67119047D01*
X73614285Y-67166666D01*
X73709523Y-67214285D01*
X73804761Y-67309523D01*
X73852380Y-67452380D01*
X73852380Y-67690476D01*
X73852380Y-66166666D02*
X73852380Y-66738095D01*
X73852380Y-66452380D02*
X72852380Y-66452380D01*
X72995238Y-66547619D01*
X73090476Y-66642857D01*
X73138095Y-66738095D01*
X72852380Y-65547619D02*
X72852380Y-65452380D01*
X72900000Y-65357142D01*
X72947619Y-65309523D01*
X73042857Y-65261904D01*
X73233333Y-65214285D01*
X73471428Y-65214285D01*
X73661904Y-65261904D01*
X73757142Y-65309523D01*
X73804761Y-65357142D01*
X73852380Y-65452380D01*
X73852380Y-65547619D01*
X73804761Y-65642857D01*
X73757142Y-65690476D01*
X73661904Y-65738095D01*
X73471428Y-65785714D01*
X73233333Y-65785714D01*
X73042857Y-65738095D01*
X72947619Y-65690476D01*
X72900000Y-65642857D01*
X72852380Y-65547619D01*
X73185714Y-64357142D02*
X73852380Y-64357142D01*
X72804761Y-64595238D02*
X73519047Y-64833333D01*
X73519047Y-64214285D01*
G04 #@! TO.C,R103*
X80880952Y-81452380D02*
X80547619Y-80976190D01*
X80309523Y-81452380D02*
X80309523Y-80452380D01*
X80690476Y-80452380D01*
X80785714Y-80500000D01*
X80833333Y-80547619D01*
X80880952Y-80642857D01*
X80880952Y-80785714D01*
X80833333Y-80880952D01*
X80785714Y-80928571D01*
X80690476Y-80976190D01*
X80309523Y-80976190D01*
X81833333Y-81452380D02*
X81261904Y-81452380D01*
X81547619Y-81452380D02*
X81547619Y-80452380D01*
X81452380Y-80595238D01*
X81357142Y-80690476D01*
X81261904Y-80738095D01*
X82452380Y-80452380D02*
X82547619Y-80452380D01*
X82642857Y-80500000D01*
X82690476Y-80547619D01*
X82738095Y-80642857D01*
X82785714Y-80833333D01*
X82785714Y-81071428D01*
X82738095Y-81261904D01*
X82690476Y-81357142D01*
X82642857Y-81404761D01*
X82547619Y-81452380D01*
X82452380Y-81452380D01*
X82357142Y-81404761D01*
X82309523Y-81357142D01*
X82261904Y-81261904D01*
X82214285Y-81071428D01*
X82214285Y-80833333D01*
X82261904Y-80642857D01*
X82309523Y-80547619D01*
X82357142Y-80500000D01*
X82452380Y-80452380D01*
X83119047Y-80452380D02*
X83738095Y-80452380D01*
X83404761Y-80833333D01*
X83547619Y-80833333D01*
X83642857Y-80880952D01*
X83690476Y-80928571D01*
X83738095Y-81023809D01*
X83738095Y-81261904D01*
X83690476Y-81357142D01*
X83642857Y-81404761D01*
X83547619Y-81452380D01*
X83261904Y-81452380D01*
X83166666Y-81404761D01*
X83119047Y-81357142D01*
G04 #@! TO.C,C105*
X80880952Y-93357142D02*
X80833333Y-93404761D01*
X80690476Y-93452380D01*
X80595238Y-93452380D01*
X80452380Y-93404761D01*
X80357142Y-93309523D01*
X80309523Y-93214285D01*
X80261904Y-93023809D01*
X80261904Y-92880952D01*
X80309523Y-92690476D01*
X80357142Y-92595238D01*
X80452380Y-92500000D01*
X80595238Y-92452380D01*
X80690476Y-92452380D01*
X80833333Y-92500000D01*
X80880952Y-92547619D01*
X81833333Y-93452380D02*
X81261904Y-93452380D01*
X81547619Y-93452380D02*
X81547619Y-92452380D01*
X81452380Y-92595238D01*
X81357142Y-92690476D01*
X81261904Y-92738095D01*
X82452380Y-92452380D02*
X82547619Y-92452380D01*
X82642857Y-92500000D01*
X82690476Y-92547619D01*
X82738095Y-92642857D01*
X82785714Y-92833333D01*
X82785714Y-93071428D01*
X82738095Y-93261904D01*
X82690476Y-93357142D01*
X82642857Y-93404761D01*
X82547619Y-93452380D01*
X82452380Y-93452380D01*
X82357142Y-93404761D01*
X82309523Y-93357142D01*
X82261904Y-93261904D01*
X82214285Y-93071428D01*
X82214285Y-92833333D01*
X82261904Y-92642857D01*
X82309523Y-92547619D01*
X82357142Y-92500000D01*
X82452380Y-92452380D01*
X83690476Y-92452380D02*
X83214285Y-92452380D01*
X83166666Y-92928571D01*
X83214285Y-92880952D01*
X83309523Y-92833333D01*
X83547619Y-92833333D01*
X83642857Y-92880952D01*
X83690476Y-92928571D01*
X83738095Y-93023809D01*
X83738095Y-93261904D01*
X83690476Y-93357142D01*
X83642857Y-93404761D01*
X83547619Y-93452380D01*
X83309523Y-93452380D01*
X83214285Y-93404761D01*
X83166666Y-93357142D01*
G04 #@! TO.C,R125*
X214380952Y-117952380D02*
X214047619Y-117476190D01*
X213809523Y-117952380D02*
X213809523Y-116952380D01*
X214190476Y-116952380D01*
X214285714Y-117000000D01*
X214333333Y-117047619D01*
X214380952Y-117142857D01*
X214380952Y-117285714D01*
X214333333Y-117380952D01*
X214285714Y-117428571D01*
X214190476Y-117476190D01*
X213809523Y-117476190D01*
X215333333Y-117952380D02*
X214761904Y-117952380D01*
X215047619Y-117952380D02*
X215047619Y-116952380D01*
X214952380Y-117095238D01*
X214857142Y-117190476D01*
X214761904Y-117238095D01*
X215714285Y-117047619D02*
X215761904Y-117000000D01*
X215857142Y-116952380D01*
X216095238Y-116952380D01*
X216190476Y-117000000D01*
X216238095Y-117047619D01*
X216285714Y-117142857D01*
X216285714Y-117238095D01*
X216238095Y-117380952D01*
X215666666Y-117952380D01*
X216285714Y-117952380D01*
X217190476Y-116952380D02*
X216714285Y-116952380D01*
X216666666Y-117428571D01*
X216714285Y-117380952D01*
X216809523Y-117333333D01*
X217047619Y-117333333D01*
X217142857Y-117380952D01*
X217190476Y-117428571D01*
X217238095Y-117523809D01*
X217238095Y-117761904D01*
X217190476Y-117857142D01*
X217142857Y-117904761D01*
X217047619Y-117952380D01*
X216809523Y-117952380D01*
X216714285Y-117904761D01*
X216666666Y-117857142D01*
G04 #@! TO.C,C101*
X89380952Y-81357142D02*
X89333333Y-81404761D01*
X89190476Y-81452380D01*
X89095238Y-81452380D01*
X88952380Y-81404761D01*
X88857142Y-81309523D01*
X88809523Y-81214285D01*
X88761904Y-81023809D01*
X88761904Y-80880952D01*
X88809523Y-80690476D01*
X88857142Y-80595238D01*
X88952380Y-80500000D01*
X89095238Y-80452380D01*
X89190476Y-80452380D01*
X89333333Y-80500000D01*
X89380952Y-80547619D01*
X90333333Y-81452380D02*
X89761904Y-81452380D01*
X90047619Y-81452380D02*
X90047619Y-80452380D01*
X89952380Y-80595238D01*
X89857142Y-80690476D01*
X89761904Y-80738095D01*
X90952380Y-80452380D02*
X91047619Y-80452380D01*
X91142857Y-80500000D01*
X91190476Y-80547619D01*
X91238095Y-80642857D01*
X91285714Y-80833333D01*
X91285714Y-81071428D01*
X91238095Y-81261904D01*
X91190476Y-81357142D01*
X91142857Y-81404761D01*
X91047619Y-81452380D01*
X90952380Y-81452380D01*
X90857142Y-81404761D01*
X90809523Y-81357142D01*
X90761904Y-81261904D01*
X90714285Y-81071428D01*
X90714285Y-80833333D01*
X90761904Y-80642857D01*
X90809523Y-80547619D01*
X90857142Y-80500000D01*
X90952380Y-80452380D01*
X92238095Y-81452380D02*
X91666666Y-81452380D01*
X91952380Y-81452380D02*
X91952380Y-80452380D01*
X91857142Y-80595238D01*
X91761904Y-80690476D01*
X91666666Y-80738095D01*
G04 #@! TO.C,U102*
X204285714Y-113952380D02*
X204285714Y-114761904D01*
X204333333Y-114857142D01*
X204380952Y-114904761D01*
X204476190Y-114952380D01*
X204666666Y-114952380D01*
X204761904Y-114904761D01*
X204809523Y-114857142D01*
X204857142Y-114761904D01*
X204857142Y-113952380D01*
X205857142Y-114952380D02*
X205285714Y-114952380D01*
X205571428Y-114952380D02*
X205571428Y-113952380D01*
X205476190Y-114095238D01*
X205380952Y-114190476D01*
X205285714Y-114238095D01*
X206476190Y-113952380D02*
X206571428Y-113952380D01*
X206666666Y-114000000D01*
X206714285Y-114047619D01*
X206761904Y-114142857D01*
X206809523Y-114333333D01*
X206809523Y-114571428D01*
X206761904Y-114761904D01*
X206714285Y-114857142D01*
X206666666Y-114904761D01*
X206571428Y-114952380D01*
X206476190Y-114952380D01*
X206380952Y-114904761D01*
X206333333Y-114857142D01*
X206285714Y-114761904D01*
X206238095Y-114571428D01*
X206238095Y-114333333D01*
X206285714Y-114142857D01*
X206333333Y-114047619D01*
X206380952Y-114000000D01*
X206476190Y-113952380D01*
X207190476Y-114047619D02*
X207238095Y-114000000D01*
X207333333Y-113952380D01*
X207571428Y-113952380D01*
X207666666Y-114000000D01*
X207714285Y-114047619D01*
X207761904Y-114142857D01*
X207761904Y-114238095D01*
X207714285Y-114380952D01*
X207142857Y-114952380D01*
X207761904Y-114952380D01*
G04 #@! TO.C,C104*
X80880952Y-91357142D02*
X80833333Y-91404761D01*
X80690476Y-91452380D01*
X80595238Y-91452380D01*
X80452380Y-91404761D01*
X80357142Y-91309523D01*
X80309523Y-91214285D01*
X80261904Y-91023809D01*
X80261904Y-90880952D01*
X80309523Y-90690476D01*
X80357142Y-90595238D01*
X80452380Y-90500000D01*
X80595238Y-90452380D01*
X80690476Y-90452380D01*
X80833333Y-90500000D01*
X80880952Y-90547619D01*
X81833333Y-91452380D02*
X81261904Y-91452380D01*
X81547619Y-91452380D02*
X81547619Y-90452380D01*
X81452380Y-90595238D01*
X81357142Y-90690476D01*
X81261904Y-90738095D01*
X82452380Y-90452380D02*
X82547619Y-90452380D01*
X82642857Y-90500000D01*
X82690476Y-90547619D01*
X82738095Y-90642857D01*
X82785714Y-90833333D01*
X82785714Y-91071428D01*
X82738095Y-91261904D01*
X82690476Y-91357142D01*
X82642857Y-91404761D01*
X82547619Y-91452380D01*
X82452380Y-91452380D01*
X82357142Y-91404761D01*
X82309523Y-91357142D01*
X82261904Y-91261904D01*
X82214285Y-91071428D01*
X82214285Y-90833333D01*
X82261904Y-90642857D01*
X82309523Y-90547619D01*
X82357142Y-90500000D01*
X82452380Y-90452380D01*
X83642857Y-90785714D02*
X83642857Y-91452380D01*
X83404761Y-90404761D02*
X83166666Y-91119047D01*
X83785714Y-91119047D01*
G04 #@! TO.C,R113*
X97880952Y-115952380D02*
X97547619Y-115476190D01*
X97309523Y-115952380D02*
X97309523Y-114952380D01*
X97690476Y-114952380D01*
X97785714Y-115000000D01*
X97833333Y-115047619D01*
X97880952Y-115142857D01*
X97880952Y-115285714D01*
X97833333Y-115380952D01*
X97785714Y-115428571D01*
X97690476Y-115476190D01*
X97309523Y-115476190D01*
X98833333Y-115952380D02*
X98261904Y-115952380D01*
X98547619Y-115952380D02*
X98547619Y-114952380D01*
X98452380Y-115095238D01*
X98357142Y-115190476D01*
X98261904Y-115238095D01*
X99785714Y-115952380D02*
X99214285Y-115952380D01*
X99500000Y-115952380D02*
X99500000Y-114952380D01*
X99404761Y-115095238D01*
X99309523Y-115190476D01*
X99214285Y-115238095D01*
X100119047Y-114952380D02*
X100738095Y-114952380D01*
X100404761Y-115333333D01*
X100547619Y-115333333D01*
X100642857Y-115380952D01*
X100690476Y-115428571D01*
X100738095Y-115523809D01*
X100738095Y-115761904D01*
X100690476Y-115857142D01*
X100642857Y-115904761D01*
X100547619Y-115952380D01*
X100261904Y-115952380D01*
X100166666Y-115904761D01*
X100119047Y-115857142D01*
D12*
G04 #@! TO.C,C110*
X94896117Y-99205000D02*
X94373613Y-99205000D01*
X94896117Y-100675000D02*
X94373613Y-100675000D01*
G04 #@! TO.C,C108*
X94703000Y-88756748D02*
X94703000Y-89279252D01*
X93233000Y-88756748D02*
X93233000Y-89279252D01*
G04 #@! TO.C,Q102*
X88076500Y-109951000D02*
X88076500Y-110221000D01*
X88076500Y-116851000D02*
X88076500Y-116581000D01*
X86576500Y-109951000D02*
X88076500Y-109951000D01*
X88076500Y-116581000D02*
X90906500Y-116581000D01*
X86576500Y-116851000D02*
X88076500Y-116851000D01*
X88076500Y-110221000D02*
X89176500Y-110221000D01*
G04 #@! TO.C,R107*
X90529436Y-94030000D02*
X90983564Y-94030000D01*
X90529436Y-95500000D02*
X90983564Y-95500000D01*
G04 #@! TO.C,B101*
X189550000Y-61150000D02*
X110450000Y-61130000D01*
X110450000Y-61130000D02*
X110450000Y-139350000D01*
X189550000Y-139350000D02*
X110450000Y-139350000D01*
X189550000Y-61150000D02*
X189550000Y-139350000D01*
G04 #@! TO.C,R122*
X102122936Y-88537000D02*
X102577064Y-88537000D01*
X102122936Y-90007000D02*
X102577064Y-90007000D01*
G04 #@! TO.C,R108*
X89021500Y-97537936D02*
X89021500Y-97992064D01*
X90491500Y-97537936D02*
X90491500Y-97992064D01*
G04 #@! TO.C,C112*
X209265000Y-112138748D02*
X209265000Y-112661252D01*
X210735000Y-112138748D02*
X210735000Y-112661252D01*
G04 #@! TO.C,R105*
X85819936Y-88316000D02*
X86274064Y-88316000D01*
X85819936Y-89786000D02*
X86274064Y-89786000D01*
G04 #@! TO.C,Q101*
X88076500Y-101901000D02*
X88076500Y-102171000D01*
X86576500Y-108801000D02*
X88076500Y-108801000D01*
X88076500Y-108801000D02*
X88076500Y-108531000D01*
X88076500Y-108531000D02*
X90906500Y-108531000D01*
X86576500Y-101901000D02*
X88076500Y-101901000D01*
X88076500Y-102171000D02*
X89176500Y-102171000D01*
G04 #@! TO.C,D103*
X72510000Y-87600000D02*
X72510000Y-83715000D01*
X70240000Y-83715000D02*
X70240000Y-87600000D01*
X72510000Y-83715000D02*
X70240000Y-83715000D01*
G04 #@! TO.C,R120*
X102235000Y-101727064D02*
X102235000Y-101272936D01*
X100765000Y-101727064D02*
X100765000Y-101272936D01*
G04 #@! TO.C,R121*
X107657064Y-97681000D02*
X107202936Y-97681000D01*
X107657064Y-99151000D02*
X107202936Y-99151000D01*
G04 #@! TO.C,C106*
X95265000Y-89311252D02*
X95265000Y-88788748D01*
X96735000Y-89311252D02*
X96735000Y-88788748D01*
G04 #@! TO.C,R123*
X209265000Y-104772936D02*
X209265000Y-105227064D01*
X210735000Y-104772936D02*
X210735000Y-105227064D01*
G04 #@! TO.C,D101*
X92075500Y-115450000D02*
X92075500Y-117450000D01*
X92075500Y-115450000D02*
X95975500Y-115450000D01*
X92075500Y-117450000D02*
X95975500Y-117450000D01*
G04 #@! TO.C,R124*
X210735000Y-108360436D02*
X210735000Y-108814564D01*
X209265000Y-108360436D02*
X209265000Y-108814564D01*
G04 #@! TO.C,R104*
X85923436Y-85722000D02*
X86377564Y-85722000D01*
X85923436Y-84252000D02*
X86377564Y-84252000D01*
G04 #@! TO.C,R118*
X107306436Y-94579000D02*
X107760564Y-94579000D01*
X107306436Y-93109000D02*
X107760564Y-93109000D01*
G04 #@! TO.C,R117*
X201265000Y-108272936D02*
X201265000Y-108727064D01*
X202735000Y-108272936D02*
X202735000Y-108727064D01*
G04 #@! TO.C,R115*
X107306436Y-90823000D02*
X107760564Y-90823000D01*
X107306436Y-92293000D02*
X107760564Y-92293000D01*
G04 #@! TO.C,R102*
X91201000Y-88028936D02*
X91201000Y-88483064D01*
X92671000Y-88028936D02*
X92671000Y-88483064D01*
G04 #@! TO.C,C107*
X94846117Y-97205000D02*
X94323613Y-97205000D01*
X94846117Y-98675000D02*
X94323613Y-98675000D01*
G04 #@! TO.C,R110*
X95114436Y-105555000D02*
X95568564Y-105555000D01*
X95114436Y-107025000D02*
X95568564Y-107025000D01*
G04 #@! TO.C,R109*
X90529436Y-100030000D02*
X90983564Y-100030000D01*
X90529436Y-101500000D02*
X90983564Y-101500000D01*
G04 #@! TO.C,C111*
X93028500Y-108822748D02*
X93028500Y-109345252D01*
X91558500Y-108822748D02*
X91558500Y-109345252D01*
G04 #@! TO.C,D102*
X90513500Y-120570000D02*
X90513500Y-119640000D01*
X90513500Y-117410000D02*
X88353500Y-117410000D01*
X90513500Y-117410000D02*
X90513500Y-118340000D01*
X90513500Y-120570000D02*
X89053500Y-120570000D01*
G04 #@! TO.C,R101*
X98974064Y-88537000D02*
X98519936Y-88537000D01*
X98974064Y-90007000D02*
X98519936Y-90007000D01*
G04 #@! TO.C,R119*
X107760564Y-97119000D02*
X107306436Y-97119000D01*
X107760564Y-95649000D02*
X107306436Y-95649000D01*
G04 #@! TO.C,J101*
X225440000Y-95122000D02*
X225440000Y-97259000D01*
X225440000Y-125602000D02*
X225440000Y-127739000D01*
X225440000Y-105282000D02*
X225440000Y-107419000D01*
X225440000Y-140842000D02*
X225440000Y-141740000D01*
X224440000Y-147260000D02*
X224440000Y-141740000D01*
X230000000Y-147260000D02*
X224440000Y-147260000D01*
X225440000Y-120522000D02*
X225440000Y-122659000D01*
X225440000Y-74802000D02*
X225440000Y-76939000D01*
X224400000Y-60950000D02*
X224700000Y-61550000D01*
X224440000Y-58260000D02*
X225440000Y-58260000D01*
X225440000Y-79882000D02*
X225440000Y-82019000D01*
X225440000Y-84962000D02*
X225440000Y-87099000D01*
X225000000Y-60950000D02*
X224400000Y-60950000D01*
X224440000Y-52740000D02*
X224440000Y-58260000D01*
X224700000Y-61550000D02*
X225000000Y-60950000D01*
X230000000Y-52740000D02*
X224440000Y-52740000D01*
X225440000Y-110362000D02*
X225440000Y-112499000D01*
X225440000Y-58259000D02*
X225440000Y-61550000D01*
X225440000Y-130682000D02*
X225440000Y-132819000D01*
X224440000Y-141740000D02*
X225440000Y-141740000D01*
X225440000Y-69722000D02*
X225440000Y-71859000D01*
X225440000Y-90042000D02*
X225440000Y-92179000D01*
X225440000Y-100202000D02*
X225440000Y-102339000D01*
X225440000Y-135762000D02*
X225440000Y-137899000D01*
X225440000Y-64790000D02*
X225440000Y-66779000D01*
X225440000Y-115442000D02*
X225440000Y-117579000D01*
G04 #@! TO.C,R116*
X191265000Y-66227064D02*
X191265000Y-65772936D01*
X192735000Y-66227064D02*
X192735000Y-65772936D01*
G04 #@! TO.C,R112*
X95568564Y-114645000D02*
X95114436Y-114645000D01*
X95568564Y-113175000D02*
X95114436Y-113175000D01*
G04 #@! TO.C,C102*
X86308252Y-83690000D02*
X85785748Y-83690000D01*
X86308252Y-82220000D02*
X85785748Y-82220000D01*
G04 #@! TO.C,R114*
X95568564Y-110635000D02*
X95114436Y-110635000D01*
X95568564Y-112105000D02*
X95114436Y-112105000D01*
G04 #@! TO.C,C103*
X86308252Y-87754000D02*
X85785748Y-87754000D01*
X86308252Y-86284000D02*
X85785748Y-86284000D01*
G04 #@! TO.C,C109*
X91021500Y-97503748D02*
X91021500Y-98026252D01*
X92491500Y-97503748D02*
X92491500Y-98026252D01*
G04 #@! TO.C,R106*
X86170564Y-95849000D02*
X85716436Y-95849000D01*
X86170564Y-94379000D02*
X85716436Y-94379000D01*
G04 #@! TO.C,R111*
X91558500Y-105046936D02*
X91558500Y-105501064D01*
X93028500Y-105046936D02*
X93028500Y-105501064D01*
G04 #@! TO.C,U101*
X100869500Y-99389000D02*
X98669500Y-99389000D01*
X100869500Y-99389000D02*
X103069500Y-99389000D01*
X100869500Y-91319000D02*
X97269500Y-91319000D01*
X100869500Y-91319000D02*
X103069500Y-91319000D01*
G04 #@! TO.C,D104*
X70240000Y-63715000D02*
X70240000Y-67600000D01*
X72510000Y-63715000D02*
X70240000Y-63715000D01*
X72510000Y-67600000D02*
X72510000Y-63715000D01*
G04 #@! TO.C,R103*
X85923436Y-81658000D02*
X86377564Y-81658000D01*
X85923436Y-80188000D02*
X86377564Y-80188000D01*
G04 #@! TO.C,C105*
X86204752Y-92347000D02*
X85682248Y-92347000D01*
X86204752Y-93817000D02*
X85682248Y-93817000D01*
G04 #@! TO.C,R125*
X214765000Y-114772936D02*
X214765000Y-115227064D01*
X216235000Y-114772936D02*
X216235000Y-115227064D01*
G04 #@! TO.C,C101*
X89864252Y-82220000D02*
X89341748Y-82220000D01*
X89864252Y-83690000D02*
X89341748Y-83690000D01*
G04 #@! TO.C,U102*
X206000000Y-113610000D02*
X204500000Y-113610000D01*
X207500000Y-110390000D02*
X204500000Y-110390000D01*
G04 #@! TO.C,C104*
X86204752Y-91818000D02*
X85682248Y-91818000D01*
X86204752Y-90348000D02*
X85682248Y-90348000D01*
G04 #@! TO.C,R113*
X93028500Y-112666936D02*
X93028500Y-113121064D01*
X91558500Y-112666936D02*
X91558500Y-113121064D01*
G04 #@! TD*
M02*
