M48
; DRILL file {KiCad (6.0.0)} date Fri Jan 14 12:57:56 2022
; FORMAT={-:-/ absolute / inch / decimal}
; #@! TF.CreationDate,2022-01-14T12:57:56+01:00
; #@! TF.GenerationSoftware,Kicad,Pcbnew,(6.0.0)
; #@! TF.FileFunction,Plated,1,4,PTH
FMAT,2
INCH
; #@! TA.AperFunction,Plated,PTH,ViaDrill
T1C0.0118
; #@! TA.AperFunction,Plated,PTH,ViaDrill
T2C0.0157
; #@! TA.AperFunction,Plated,PTH,ComponentDrill
T3C0.0276
; #@! TA.AperFunction,Plated,PTH,ViaDrill
T4C0.0315
; #@! TA.AperFunction,Plated,PTH,ComponentDrill
T5C0.0315
; #@! TA.AperFunction,Plated,PTH,ComponentDrill
T6C0.0472
; #@! TA.AperFunction,Plated,PTH,ComponentDrill
T7C0.0630
; #@! TA.AperFunction,Plated,PTH,ComponentDrill
T8C0.0689
%
G90
G05
T1
X3.0124Y-3.8677
X3.0124Y-4.1677
X3.1124Y-2.2677
X3.1124Y-2.4677
X3.2124Y-2.3677
X3.3124Y-2.2677
X3.3124Y-2.4677
X3.4124Y-2.3677
X3.5124Y-2.2677
X3.5124Y-2.4677
X3.6124Y-2.3677
X3.7124Y-2.2677
X3.7124Y-2.4677
X3.8124Y-2.3677
X3.9124Y-2.2677
X3.9124Y-2.4677
X3.9292Y-5.0464
X4.0124Y-2.3677
X4.1124Y-2.2677
X4.1124Y-2.4677
X4.3124Y-2.2677
X4.5124Y-2.2677
X4.6124Y-2.3677
X4.7124Y-2.2677
X4.8124Y-2.3677
X4.9124Y-2.2677
X5.0124Y-2.3677
X5.0974Y-5.3976
X5.1124Y-2.2677
X5.2124Y-2.3677
X5.3124Y-2.2677
X5.4124Y-2.3677
X5.5124Y-2.2677
X5.5724Y-4.8677
X5.6124Y-2.3677
X5.7124Y-2.2677
X5.7524Y-4.8677
X5.8124Y-2.3677
T2
X2.8Y-3.4
X2.9Y-2.7
X2.9124Y-5.6927
X2.9374Y-2.4927
X2.95Y-5.375
X2.9874Y-2.5177
X3.0Y-5.6233
X3.0463Y-5.4252
X3.08Y-5.7
X3.325Y-5.5
X3.4Y-3.4
X3.46Y-5.5039
X3.55Y-5.525
X3.66Y-5.44
X3.6624Y-5.6177
X3.7124Y-5.5677
X4.8679Y-3.4
X5.0148Y-5.4646
X5.1124Y-5.6677
X5.1722Y-5.622
X5.2087Y-5.6614
X5.25Y-5.425
X5.3Y-3.75
X5.3256Y-5.7409
X5.425Y-5.15
X5.4474Y-5.2888
X5.4872Y-5.0
X5.5575Y-3.88
X5.5581Y-5.2717
X5.5659Y-4.9533
X5.575Y-5.05
X5.6175Y-3.88
X5.6375Y-4.0
X5.7Y-2.45
X5.7Y-4.8346
X5.7Y-5.43
X5.725Y-5.225
X5.725Y-5.275
X5.775Y-5.425
X5.7959Y-5.7402
X5.96Y-2.27
X6.035Y-2.465
X6.05Y-5.425
X6.1171Y-2.26
X6.12Y-2.43
X6.167Y-2.3621
X6.1959Y-5.7402
X6.1985Y-2.4
X6.2241Y-2.2659
X6.271Y-2.431
X6.43Y-2.225
X6.46Y-2.4
X6.5459Y-5.7402
X6.575Y-2.225
X6.68Y-2.46
X6.77Y-2.59
X6.77Y-2.63
X6.77Y-2.67
X6.81Y-5.49
X6.83Y-2.5
X6.84Y-2.3
X6.89Y-2.5
X6.8959Y-5.7402
X6.9Y-2.3
X6.9439Y-2.2756
X6.95Y-2.5
X7.01Y-2.59
X7.01Y-2.63
X7.01Y-2.67
X7.1Y-5.55
X7.1801Y-2.5118
X7.2959Y-5.7402
X7.45Y-5.55
X7.6459Y-5.7402
X7.8Y-5.55
X8.0Y-5.7402
X8.1Y-5.5
X8.25Y-5.3
X8.2959Y-5.7402
X8.3Y-5.55
X8.4006Y-2.1575
X8.45Y-5.1
X8.5Y-5.35
X8.5Y-5.55
X8.5581Y-4.6378
X8.5959Y-5.7402
X8.75Y-4.95
X8.75Y-5.2
X8.75Y-5.4
T3
X4.2157Y-3.9372
X4.2494Y-3.8559
X4.2494Y-4.0185
X4.3307Y-3.8222
X4.3307Y-4.0522
X4.412Y-3.8559
X4.412Y-4.0185
X4.4457Y-3.9372
T4
X3.0124Y-2.8677
X3.0124Y-2.9677
X3.0124Y-3.0677
X3.0124Y-3.1677
X3.0124Y-3.2677
X3.0124Y-3.4677
X3.0124Y-3.5677
X3.0124Y-3.6677
X3.0124Y-3.7677
X3.0124Y-4.3677
X3.0124Y-4.4677
X3.0124Y-4.5677
X3.0124Y-4.6677
X3.0124Y-4.7677
X3.0124Y-4.8677
X3.0124Y-4.9677
X3.0124Y-5.0677
X3.0124Y-5.1677
X3.0124Y-5.2677
X3.1124Y-2.7677
X3.1124Y-2.8677
X3.1124Y-2.9677
X3.1124Y-3.0677
X3.1124Y-3.1677
X3.1124Y-3.2677
X3.1124Y-3.4677
X3.1124Y-3.5677
X3.1124Y-3.6677
X3.1124Y-3.7677
X3.1124Y-4.1677
X3.1124Y-4.2677
X3.1124Y-4.3677
X3.1124Y-4.4677
X3.1124Y-4.5677
X3.1124Y-4.6677
X3.1124Y-4.7677
X3.1124Y-4.8677
X3.1124Y-4.9677
X3.1124Y-5.0677
X3.1124Y-5.1677
X3.1124Y-5.2677
X3.2124Y-2.6677
X3.2124Y-2.7677
X3.2124Y-2.8677
X3.2124Y-2.9677
X3.2124Y-3.0677
X3.2124Y-3.1677
X3.2124Y-3.2677
X3.2124Y-3.4677
X3.2124Y-3.5677
X3.2124Y-3.6677
X3.2124Y-3.7677
X3.2124Y-5.1677
X3.2124Y-5.2677
X3.3124Y-2.6677
X3.3124Y-2.7677
X3.3124Y-2.8677
X3.3124Y-2.9677
X3.3124Y-3.0677
X3.3124Y-3.1677
X3.3124Y-3.2677
X3.3124Y-3.4677
X3.3124Y-3.5677
X3.3124Y-3.6677
X3.3124Y-3.7677
X3.3124Y-4.8677
X3.3124Y-4.9677
X3.3124Y-5.2677
X3.4124Y-2.6677
X3.4124Y-2.7677
X3.4124Y-2.8677
X3.4124Y-2.9677
X3.4124Y-3.0677
X3.4124Y-3.1677
X3.4124Y-3.2677
X3.4124Y-3.4677
X3.4124Y-3.5677
X3.4124Y-3.6677
X3.4124Y-3.7677
X3.4124Y-4.0677
X3.4124Y-4.1677
X3.4124Y-4.2677
X3.4124Y-4.3677
X3.4124Y-4.4677
X3.4124Y-4.5677
X3.4124Y-4.6677
X3.4124Y-4.9677
X3.4124Y-5.0677
X3.5124Y-2.6677
X3.5124Y-2.7677
X3.5124Y-2.8677
X3.5124Y-2.9677
X3.5124Y-3.0677
X3.5124Y-3.1677
X3.5124Y-3.4677
X3.5124Y-3.5677
X3.5124Y-3.6677
X3.5124Y-3.7677
X3.5124Y-4.0677
X3.5124Y-4.1677
X3.5124Y-4.2677
X3.5124Y-4.3677
X3.5124Y-4.4677
X3.5124Y-4.5677
X3.5124Y-4.6677
X3.5124Y-4.7677
X3.5124Y-5.0677
X3.6124Y-2.6677
X3.6124Y-2.7677
X3.6124Y-2.8677
X3.6124Y-2.9677
X3.6124Y-3.0677
X3.6124Y-3.2677
X3.6124Y-3.4677
X3.6124Y-3.5677
X3.6124Y-3.6677
X3.6124Y-4.1677
X3.6124Y-4.2677
X3.6124Y-4.3677
X3.6124Y-4.4677
X3.6124Y-4.5677
X3.6124Y-4.6677
X3.6124Y-4.7677
X3.6124Y-4.8677
X3.6124Y-5.0677
X3.6124Y-5.2677
X3.7124Y-2.6677
X3.7124Y-2.7677
X3.7124Y-2.8677
X3.7124Y-2.9677
X3.7124Y-3.1677
X3.7124Y-3.2677
X3.7124Y-3.4677
X3.7124Y-4.3677
X3.7124Y-4.4677
X3.7124Y-4.5677
X3.7124Y-4.6677
X3.7124Y-4.7677
X3.7124Y-4.8677
X3.7124Y-5.0677
X3.7124Y-5.2677
X3.8124Y-2.6677
X3.8124Y-2.7677
X3.8124Y-2.8677
X3.8124Y-2.9677
X3.8124Y-3.1677
X3.8124Y-3.2677
X3.8124Y-4.5677
X3.8124Y-4.6677
X3.8124Y-4.7677
X3.8124Y-4.8677
X3.8124Y-4.9677
X3.8124Y-5.0677
X3.8124Y-5.1677
X3.8124Y-5.2677
X3.8124Y-5.3677
X3.8124Y-5.4677
X3.9124Y-2.6677
X3.9124Y-2.7677
X3.9124Y-2.8677
X3.9124Y-2.9677
X3.9124Y-3.1677
X3.9124Y-3.2677
X3.9124Y-4.5677
X3.9124Y-4.8677
X3.9124Y-5.3677
X3.9124Y-5.4677
X3.9124Y-5.5677
X4.0124Y-2.6677
X4.0124Y-2.7677
X4.0124Y-2.8677
X4.0124Y-2.9677
X4.0124Y-3.1677
X4.0124Y-4.6677
X4.0124Y-4.7677
X4.0124Y-5.3677
X4.0124Y-5.4677
X4.0124Y-5.5677
X4.1124Y-2.6677
X4.1124Y-2.7677
X4.1124Y-2.8677
X4.1124Y-2.9677
X4.1124Y-3.1677
X4.1124Y-4.6677
X4.1124Y-4.7677
X4.1124Y-4.8677
X4.1124Y-5.3677
X4.2124Y-2.6677
X4.2124Y-2.7677
X4.2124Y-2.8677
X4.2124Y-2.9677
X4.2124Y-3.1677
X4.2124Y-4.7677
X4.2124Y-5.3677
X4.3124Y-2.6677
X4.3124Y-2.7677
X4.3124Y-2.8677
X4.3124Y-2.9677
X4.3124Y-4.7677
X4.3124Y-5.3677
X4.4124Y-4.7677
X4.4124Y-5.3677
X4.5124Y-2.4677
X4.5124Y-2.5677
X4.5124Y-2.6677
X4.5124Y-2.7677
X4.5124Y-2.8677
X4.5124Y-2.9677
X4.5124Y-3.1677
X4.5124Y-4.6677
X4.5124Y-4.7677
X4.5124Y-5.3677
X4.6124Y-2.4677
X4.6124Y-2.5677
X4.6124Y-2.6677
X4.6124Y-2.7677
X4.6124Y-2.8677
X4.6124Y-2.9677
X4.6124Y-3.1677
X4.6124Y-4.6677
X4.6124Y-4.9677
X4.6124Y-5.0677
X4.6124Y-5.1677
X4.6124Y-5.2677
X4.6124Y-5.3677
X4.6124Y-5.4677
X4.6124Y-5.5677
X4.7124Y-2.4677
X4.7124Y-2.5677
X4.7124Y-2.6677
X4.7124Y-2.7677
X4.7124Y-2.8677
X4.7124Y-2.9677
X4.7124Y-3.1677
X4.7124Y-3.2677
X4.7124Y-4.7677
X4.7124Y-5.0677
X4.7124Y-5.2677
X4.7124Y-5.3677
X4.7124Y-5.4677
X4.7124Y-5.5677
X4.8124Y-2.4677
X4.8124Y-2.5677
X4.8124Y-2.6677
X4.8124Y-2.7677
X4.8124Y-2.8677
X4.8124Y-2.9677
X4.8124Y-3.0677
X4.8124Y-3.2677
X4.8124Y-4.5677
X4.8124Y-4.6677
X4.8124Y-4.7677
X4.8124Y-5.0677
X4.8124Y-5.2677
X4.8124Y-5.3677
X4.8124Y-5.4677
X4.8124Y-5.5677
X4.9124Y-2.4677
X4.9124Y-2.5677
X4.9124Y-2.6677
X4.9124Y-2.7677
X4.9124Y-2.8677
X4.9124Y-2.9677
X4.9124Y-3.0677
X4.9124Y-3.1677
X4.9124Y-3.4677
X4.9124Y-4.4677
X4.9124Y-4.5677
X4.9124Y-4.6677
X4.9124Y-4.7677
X4.9124Y-5.0677
X4.9124Y-5.2677
X4.9124Y-5.3677
X5.0124Y-2.4677
X5.0124Y-2.5677
X5.0124Y-2.6677
X5.0124Y-2.7677
X5.0124Y-2.8677
X5.0124Y-2.9677
X5.0124Y-3.0677
X5.0124Y-3.1677
X5.0124Y-3.2677
X5.0124Y-3.5677
X5.0124Y-4.3677
X5.0124Y-4.4677
X5.0124Y-4.5677
X5.0124Y-4.6677
X5.0124Y-4.7677
X5.0124Y-4.8677
X5.0124Y-4.9677
X5.0124Y-5.0677
X5.0124Y-5.1677
X5.0124Y-5.2677
X5.1124Y-2.4677
X5.1124Y-2.5677
X5.1124Y-2.6677
X5.1124Y-2.7677
X5.1124Y-2.8677
X5.1124Y-2.9677
X5.1124Y-3.0677
X5.1124Y-3.1677
X5.1124Y-3.2677
X5.1124Y-3.3677
X5.2124Y-2.4677
X5.2124Y-2.5677
X5.2124Y-2.6677
X5.2124Y-2.7677
X5.2124Y-2.8677
X5.2124Y-2.9677
X5.2124Y-3.0677
X5.2124Y-3.1677
X5.2124Y-3.2677
X5.2124Y-3.3677
X5.2124Y-3.4677
X5.2124Y-3.5677
X5.2124Y-3.6677
X5.225Y-3.937
X5.3124Y-2.4677
X5.3124Y-2.5677
X5.3124Y-2.6677
X5.3124Y-2.7677
X5.3124Y-2.8677
X5.3124Y-2.9677
X5.3124Y-3.0677
X5.3124Y-3.1677
X5.3124Y-3.2677
X5.3124Y-3.3677
X5.3124Y-3.4677
X5.3124Y-3.5677
X5.3124Y-3.6677
X5.3124Y-4.1677
X5.3124Y-4.2677
X5.3124Y-4.7677
X5.3124Y-4.8677
X5.3124Y-4.9677
X5.3124Y-5.0677
X5.4124Y-2.4677
X5.4124Y-2.5677
X5.4124Y-2.6677
X5.4124Y-2.7677
X5.4124Y-2.8677
X5.4124Y-2.9677
X5.4124Y-3.0677
X5.4124Y-3.1677
X5.4124Y-3.2677
X5.4124Y-3.3677
X5.4124Y-3.4677
X5.4124Y-3.5677
X5.4124Y-3.6677
X5.4124Y-4.2677
X5.4124Y-4.7677
X5.4124Y-4.8677
X5.5124Y-2.4677
X5.5124Y-2.5677
X5.5124Y-2.6677
X5.5124Y-2.7677
X5.5124Y-2.8677
X5.5124Y-2.9677
X5.5124Y-3.0677
X5.5124Y-3.1677
X5.5124Y-3.2677
X5.5124Y-3.3677
X5.5124Y-3.4677
X5.5124Y-3.5677
X5.5124Y-3.6677
X5.6124Y-2.4677
X5.6124Y-2.5677
X5.6124Y-2.6677
X5.6124Y-2.7677
X5.6124Y-2.8677
X5.6124Y-2.9677
X5.6124Y-3.0677
X5.6124Y-3.1677
X5.6124Y-3.2677
X5.6124Y-3.3677
X5.6124Y-3.4677
X5.6124Y-3.5677
X5.6124Y-3.6677
T5
X3.3612Y-3.937
X3.5108Y-3.937
X3.5628Y-4.9677
X3.5628Y-5.1677
X3.7124Y-4.9677
X3.7124Y-5.1677
X3.9124Y-4.9677
X3.9124Y-5.2677
X4.0124Y-4.9677
X4.0124Y-5.2677
X4.1124Y-4.9677
X4.1124Y-5.2677
X4.1124Y-5.4677
X4.1124Y-5.6173
X4.2124Y-4.9677
X4.2124Y-5.2677
X4.3124Y-4.9677
X4.3124Y-5.2677
X4.3124Y-5.4677
X4.3124Y-5.6173
X4.4124Y-4.9677
X4.4124Y-5.2677
X4.5124Y-4.9677
X4.5124Y-5.2677
X4.5124Y-5.4677
X4.5124Y-5.6173
X4.7124Y-4.9677
X4.7124Y-5.1677
X4.862Y-4.9677
X4.862Y-5.1677
T6
X8.2283Y-2.4409
X8.2283Y-2.7362
T7
X8.6465Y-2.487
X8.6465Y-2.687
X8.6465Y-2.887
X8.6465Y-3.087
X8.6465Y-3.287
X8.6465Y-3.487
X8.6465Y-3.687
X8.6465Y-3.887
X8.6465Y-4.087
X8.6465Y-4.287
X8.6465Y-4.487
X8.6465Y-4.687
X8.6465Y-4.887
X8.6465Y-5.087
X8.6465Y-5.287
X8.6465Y-5.487
X8.8465Y-2.487
X8.8465Y-2.687
X8.8465Y-2.887
X8.8465Y-3.087
X8.8465Y-3.287
X8.8465Y-3.487
X8.8465Y-3.687
X8.8465Y-3.887
X8.8465Y-4.087
X8.8465Y-4.287
X8.8465Y-4.487
X8.8465Y-4.687
X8.8465Y-4.887
X8.8465Y-5.087
X8.8465Y-5.287
X8.8465Y-5.487
T8
X3.1644Y-3.937
X5.3Y-4.4
X5.3Y-4.6
X5.525Y-4.4
X5.525Y-4.6
X6.4961Y-2.7559
X6.4961Y-5.1181
X6.8898Y-2.7953
X7.2835Y-2.7559
X7.2835Y-5.1181
T0
M30
