M48
; DRILL file {KiCad (6.0.0)} date Fri Feb 11 15:50:42 2022
; FORMAT={-:-/ absolute / inch / decimal}
; #@! TF.CreationDate,2022-02-11T15:50:42+01:00
; #@! TF.GenerationSoftware,Kicad,Pcbnew,(6.0.0)
; #@! TF.FileFunction,Plated,1,4,PTH
FMAT,2
INCH
; #@! TA.AperFunction,Plated,PTH,ViaDrill
T1C0.0118
; #@! TA.AperFunction,Plated,PTH,ViaDrill
T2C0.0157
; #@! TA.AperFunction,Plated,PTH,ViaDrill
T3C0.0236
; #@! TA.AperFunction,Plated,PTH,ComponentDrill
T4C0.0276
; #@! TA.AperFunction,Plated,PTH,ViaDrill
T5C0.0315
; #@! TA.AperFunction,Plated,PTH,ComponentDrill
T6C0.0315
; #@! TA.AperFunction,Plated,PTH,ComponentDrill
T7C0.0472
; #@! TA.AperFunction,Plated,PTH,ComponentDrill
T8C0.0630
; #@! TA.AperFunction,Plated,PTH,ComponentDrill
T9C0.0689
%
G90
G05
T1
X2.8474Y-3.4927
X2.9574Y-2.5527
X3.1124Y-2.2677
X3.1124Y-2.4677
X3.2124Y-2.3677
X3.3124Y-2.2677
X3.3124Y-2.4677
X3.4124Y-2.3677
X3.5124Y-2.2677
X3.5124Y-2.4677
X3.6124Y-2.3677
X3.7124Y-2.2677
X3.8124Y-2.3677
X3.9124Y-2.2677
X3.9124Y-2.4677
X3.9174Y-5.0677
X4.0124Y-2.3677
X4.1124Y-2.2677
X4.1124Y-2.4677
X4.3124Y-2.2677
X4.5124Y-2.2677
X4.6124Y-2.3677
X4.7124Y-2.2677
X4.8124Y-2.3677
X4.9124Y-2.2677
X5.0124Y-2.3677
X5.1124Y-2.2677
X5.2124Y-2.3677
X5.3124Y-2.2677
X5.4124Y-2.3677
X5.5124Y-2.2677
X5.6124Y-2.3677
X6.2674Y-5.3577
X6.2674Y-5.4527
X6.2674Y-5.6021
X6.4274Y-5.4477
X6.4924Y-5.5777
X6.5774Y-5.4477
X6.6274Y-5.5077
X6.6924Y-5.5577
X6.8674Y-5.4977
T2
X2.8258Y-2.4677
X2.8724Y-2.4877
X3.1074Y-5.7177
X3.8574Y-5.5127
X5.3061Y-4.1102
X5.3532Y-4.0627
X5.5575Y-3.88
X5.6175Y-3.88
X5.6375Y-4.0
X5.7Y-2.45
X5.96Y-2.27
X6.035Y-2.465
X6.1171Y-2.26
X6.12Y-2.43
X6.125Y-5.5512
X6.167Y-2.3621
X6.1985Y-2.4
X6.2241Y-2.2659
X6.271Y-2.431
X6.43Y-2.225
X6.46Y-2.4
X6.575Y-2.225
X6.68Y-2.46
X6.6974Y-5.3127
X6.77Y-2.59
X6.77Y-2.63
X6.77Y-2.67
X6.83Y-2.5
X6.8374Y-5.3477
X6.84Y-2.3
X6.89Y-2.5
X6.9Y-2.3
X6.9439Y-2.2756
X6.95Y-2.5
X7.01Y-2.59
X7.01Y-2.63
X7.01Y-2.67
X7.1801Y-2.5118
X7.2124Y-5.3442
X8.4006Y-2.1575
X8.4674Y-4.9877
T3
X5.0924Y-5.4927
T4
X4.2157Y-3.9372
X4.2494Y-3.8559
X4.2494Y-4.0185
X4.3307Y-3.8222
X4.3307Y-4.0522
X4.412Y-3.8559
X4.412Y-4.0185
X4.4457Y-3.9372
X5.3374Y-5.6277
X5.3374Y-5.7261
T5
X2.8773Y-3.2794
X3.2424Y-5.3277
X3.3374Y-5.3977
X3.3716Y-5.4994
X3.7924Y-2.5777
X3.7943Y-4.6063
X4.4174Y-2.6527
X4.7324Y-5.5777
X4.8602Y-3.4077
X5.0174Y-5.5777
X5.5574Y-5.5527
T6
X2.9274Y-5.1693
X2.9274Y-5.3661
X2.9274Y-5.4893
X2.9274Y-5.6861
X2.9871Y-4.6525
X2.9871Y-4.8021
X3.0724Y-3.0182
X3.0724Y-3.1182
X3.0724Y-3.2182
X3.0724Y-3.3182
X3.0724Y-3.4182
X3.0724Y-3.5182
X3.0724Y-3.6182
X3.0724Y-3.7182
X3.1171Y-4.1071
X3.1171Y-4.2071
X3.1171Y-4.3071
X3.1171Y-4.4071
X3.1171Y-4.5071
X3.1171Y-4.6071
X3.1171Y-4.7071
X3.1171Y-4.8071
X3.3612Y-3.937
X3.3724Y-3.0182
X3.3724Y-3.1182
X3.3724Y-3.2182
X3.3724Y-3.3182
X3.3724Y-3.4182
X3.3724Y-3.5182
X3.3724Y-3.6182
X3.3724Y-3.7182
X3.4171Y-4.1071
X3.4171Y-4.2071
X3.4171Y-4.3071
X3.4171Y-4.4071
X3.4171Y-4.5071
X3.4171Y-4.6071
X3.4171Y-4.7071
X3.4171Y-4.8071
X3.5108Y-3.937
X3.5471Y-4.4325
X3.5471Y-4.5821
X3.5928Y-5.0377
X3.5928Y-5.2527
X3.7424Y-5.0377
X3.7424Y-5.2527
X3.9124Y-4.9677
X3.9124Y-5.2677
X3.9524Y-5.4277
X3.9524Y-5.5773
X4.0124Y-4.9677
X4.0124Y-5.2677
X4.1124Y-4.9677
X4.1124Y-5.2677
X4.1324Y-5.4177
X4.1324Y-5.5673
X4.2124Y-4.9677
X4.2124Y-5.2677
X4.3124Y-4.9677
X4.3124Y-5.2677
X4.3224Y-5.4177
X4.3224Y-5.5673
X4.4124Y-4.9677
X4.4124Y-5.2677
X4.5124Y-4.9677
X4.5124Y-5.2677
X4.5124Y-5.4327
X4.5124Y-5.5823
X4.654Y-5.5477
X4.7124Y-4.9677
X4.7124Y-5.1677
X4.8508Y-5.5477
X4.862Y-4.9677
X4.862Y-5.1677
X4.964Y-5.6727
X5.1608Y-5.6727
X5.3374Y-4.2327
X5.3374Y-4.3327
X5.3374Y-4.4327
X5.3374Y-4.5327
X5.3374Y-4.6327
X5.3374Y-4.7327
X5.3374Y-4.8327
X5.3374Y-4.9327
X5.4146Y-5.0824
X5.5642Y-5.0824
X5.6374Y-4.2327
X5.6374Y-4.3327
X5.6374Y-4.4327
X5.6374Y-4.5327
X5.6374Y-4.6327
X5.6374Y-4.7327
X5.6374Y-4.8327
X5.6374Y-4.9327
T7
X8.2283Y-2.4409
X8.2283Y-2.7362
T8
X8.6465Y-2.487
X8.6465Y-2.687
X8.6465Y-2.887
X8.6465Y-3.087
X8.6465Y-3.287
X8.6465Y-3.487
X8.6465Y-3.687
X8.6465Y-3.887
X8.6465Y-4.087
X8.6465Y-4.287
X8.6465Y-4.487
X8.6465Y-4.687
X8.6465Y-4.887
X8.6465Y-5.087
X8.6465Y-5.287
X8.6465Y-5.487
X8.8465Y-2.487
X8.8465Y-2.687
X8.8465Y-2.887
X8.8465Y-3.087
X8.8465Y-3.287
X8.8465Y-3.487
X8.8465Y-3.687
X8.8465Y-3.887
X8.8465Y-4.087
X8.8465Y-4.287
X8.8465Y-4.487
X8.8465Y-4.687
X8.8465Y-4.887
X8.8465Y-5.087
X8.8465Y-5.287
X8.8465Y-5.487
T9
X3.1644Y-3.937
X5.2756Y-3.937
X5.4624Y-5.3937
X5.6998Y-5.3937
X6.4961Y-2.7559
X6.4961Y-5.1181
X6.8898Y-2.7953
X7.2835Y-2.7559
X7.2835Y-5.1181
T0
M30
