%TF.GenerationSoftware,KiCad,Pcbnew,(6.0.0)*%
%TF.CreationDate,2022-01-14T14:41:52+01:00*%
%TF.ProjectId,ADRmu,4144526d-752e-46b6-9963-61645f706362,rev?*%
%TF.SameCoordinates,Original*%
%TF.FileFunction,Copper,L4,Bot*%
%TF.FilePolarity,Positive*%
%FSLAX46Y46*%
G04 Gerber Fmt 4.6, Leading zero omitted, Abs format (unit mm)*
G04 Created by KiCad (PCBNEW (6.0.0)) date 2022-01-14 14:41:52*
%MOMM*%
%LPD*%
G01*
G04 APERTURE LIST*
G04 Aperture macros list*
%AMRoundRect*
0 Rectangle with rounded corners*
0 $1 Rounding radius*
0 $2 $3 $4 $5 $6 $7 $8 $9 X,Y pos of 4 corners*
0 Add a 4 corners polygon primitive as box body*
4,1,4,$2,$3,$4,$5,$6,$7,$8,$9,$2,$3,0*
0 Add four circle primitives for the rounded corners*
1,1,$1+$1,$2,$3*
1,1,$1+$1,$4,$5*
1,1,$1+$1,$6,$7*
1,1,$1+$1,$8,$9*
0 Add four rect primitives between the rounded corners*
20,1,$1+$1,$2,$3,$4,$5,0*
20,1,$1+$1,$4,$5,$6,$7,0*
20,1,$1+$1,$6,$7,$8,$9,0*
20,1,$1+$1,$8,$9,$2,$3,0*%
%AMFreePoly0*
4,1,22,0.500000,-0.750000,0.000000,-0.750000,0.000000,-0.745033,-0.079941,-0.743568,-0.215256,-0.701293,-0.333266,-0.622738,-0.424486,-0.514219,-0.481581,-0.384460,-0.499164,-0.250000,-0.500000,-0.250000,-0.500000,0.250000,-0.499164,0.250000,-0.499963,0.256109,-0.478152,0.396186,-0.417904,0.524511,-0.324060,0.630769,-0.204165,0.706417,-0.067858,0.745374,0.000000,0.744959,0.000000,0.750000,
0.500000,0.750000,0.500000,-0.750000,0.500000,-0.750000,$1*%
%AMFreePoly1*
4,1,20,0.000000,0.744959,0.073905,0.744508,0.209726,0.703889,0.328688,0.626782,0.421226,0.519385,0.479903,0.390333,0.500000,0.250000,0.500000,-0.250000,0.499851,-0.262216,0.476331,-0.402017,0.414519,-0.529596,0.319384,-0.634700,0.198574,-0.708877,0.061801,-0.746166,0.000000,-0.745033,0.000000,-0.750000,-0.500000,-0.750000,-0.500000,0.750000,0.000000,0.750000,0.000000,0.744959,
0.000000,0.744959,$1*%
G04 Aperture macros list end*
%TA.AperFunction,NonConductor*%
%ADD10C,3.000000*%
%TD*%
%TA.AperFunction,ComponentPad*%
%ADD11RoundRect,0.250002X1.699998X1.699998X-1.699998X1.699998X-1.699998X-1.699998X1.699998X-1.699998X0*%
%TD*%
%TA.AperFunction,ComponentPad*%
%ADD12RoundRect,0.250002X-1.699998X-1.699998X1.699998X-1.699998X1.699998X1.699998X-1.699998X1.699998X0*%
%TD*%
%TA.AperFunction,ComponentPad*%
%ADD13RoundRect,0.250000X-1.050000X1.050000X-1.050000X-1.050000X1.050000X-1.050000X1.050000X1.050000X0*%
%TD*%
%TA.AperFunction,ComponentPad*%
%ADD14C,2.600000*%
%TD*%
%TA.AperFunction,ComponentPad*%
%ADD15C,1.500000*%
%TD*%
%TA.AperFunction,ComponentPad*%
%ADD16R,2.400000X2.400000*%
%TD*%
%TA.AperFunction,ComponentPad*%
%ADD17C,2.400000*%
%TD*%
%TA.AperFunction,ComponentPad*%
%ADD18O,1.200000X1.600000*%
%TD*%
%TA.AperFunction,ComponentPad*%
%ADD19O,1.200000X1.200000*%
%TD*%
%TA.AperFunction,ComponentPad*%
%ADD20R,1.600000X1.600000*%
%TD*%
%TA.AperFunction,ComponentPad*%
%ADD21O,1.600000X1.600000*%
%TD*%
%TA.AperFunction,SMDPad,CuDef*%
%ADD22FreePoly0,180.000000*%
%TD*%
%TA.AperFunction,SMDPad,CuDef*%
%ADD23FreePoly1,180.000000*%
%TD*%
%TA.AperFunction,SMDPad,CuDef*%
%ADD24FreePoly0,270.000000*%
%TD*%
%TA.AperFunction,SMDPad,CuDef*%
%ADD25FreePoly1,270.000000*%
%TD*%
%TA.AperFunction,SMDPad,CuDef*%
%ADD26FreePoly0,0.000000*%
%TD*%
%TA.AperFunction,SMDPad,CuDef*%
%ADD27FreePoly1,0.000000*%
%TD*%
%TA.AperFunction,ViaPad*%
%ADD28C,1.500000*%
%TD*%
%TA.AperFunction,ViaPad*%
%ADD29C,0.800000*%
%TD*%
%TA.AperFunction,ViaPad*%
%ADD30C,0.600000*%
%TD*%
%TA.AperFunction,Conductor*%
%ADD31C,1.000000*%
%TD*%
%TA.AperFunction,Conductor*%
%ADD32C,0.400000*%
%TD*%
%TA.AperFunction,Conductor*%
%ADD33C,0.500000*%
%TD*%
G04 APERTURE END LIST*
D10*
X119000000Y-100000000D02*
G75*
G03*
X119000000Y-100000000I-9000000J0D01*
G01*
%TO.C,JP212*%
G36*
X92707500Y-131560000D02*
G01*
X92207500Y-131560000D01*
X92207500Y-130960000D01*
X92707500Y-130960000D01*
X92707500Y-131560000D01*
G37*
%TO.C,JP215*%
G36*
X87525000Y-100300000D02*
G01*
X87025000Y-100300000D01*
X87025000Y-99700000D01*
X87525000Y-99700000D01*
X87525000Y-100300000D01*
G37*
%TO.C,JP216*%
G36*
X114915000Y-140967500D02*
G01*
X114315000Y-140967500D01*
X114315000Y-140467500D01*
X114915000Y-140467500D01*
X114915000Y-140967500D01*
G37*
%TO.C,JP209*%
G36*
X92645000Y-126480000D02*
G01*
X92145000Y-126480000D01*
X92145000Y-125880000D01*
X92645000Y-125880000D01*
X92645000Y-126480000D01*
G37*
%TO.C,JP219*%
G36*
X109835000Y-141030000D02*
G01*
X109235000Y-141030000D01*
X109235000Y-140530000D01*
X109835000Y-140530000D01*
X109835000Y-141030000D01*
G37*
%TO.C,JP205*%
G36*
X121829500Y-131560000D02*
G01*
X121329500Y-131560000D01*
X121329500Y-130960000D01*
X121829500Y-130960000D01*
X121829500Y-131560000D01*
G37*
%TO.C,JP206*%
G36*
X104755000Y-140967500D02*
G01*
X104155000Y-140967500D01*
X104155000Y-140467500D01*
X104755000Y-140467500D01*
X104755000Y-140967500D01*
G37*
%TO.C,JP211*%
G36*
X121845000Y-126480000D02*
G01*
X121345000Y-126480000D01*
X121345000Y-125880000D01*
X121845000Y-125880000D01*
X121845000Y-126480000D01*
G37*
%TD*%
D11*
%TO.P,J305,1,Pin_1*%
%TO.N,/DC-DC/xformer_B*%
X185000000Y-130000000D03*
%TD*%
D12*
%TO.P,J301,1,Pin_1*%
%TO.N,/DC-DC/U3_Pin3*%
X185000000Y-70000000D03*
%TD*%
D13*
%TO.P,J1,a2,Pin_a2*%
%TO.N,+12V*%
X224700000Y-63170000D03*
D14*
%TO.P,J1,a4,Pin_a4*%
%TO.N,GND*%
X224700000Y-68250000D03*
%TO.P,J1,a6,Pin_a6*%
%TO.N,unconnected-(J1-Pada6)*%
X224700000Y-73330000D03*
%TO.P,J1,a8,Pin_a8*%
%TO.N,/fault*%
X224700000Y-78410000D03*
%TO.P,J1,a10,Pin_a10*%
%TO.N,/DC-DC/sync*%
X224700000Y-83490000D03*
%TO.P,J1,a12,Pin_a12*%
%TO.N,GND*%
X224700000Y-88570000D03*
%TO.P,J1,a14,Pin_a14*%
%TO.N,/DC-DC/status*%
X224700000Y-93650000D03*
%TO.P,J1,a16,Pin_a16*%
%TO.N,GND*%
X224700000Y-98730000D03*
%TO.P,J1,a18,Pin_a18*%
%TO.N,/DC-DC/SCL*%
X224700000Y-103810000D03*
%TO.P,J1,a20,Pin_a20*%
%TO.N,/DC-DC/SDA*%
X224700000Y-108890000D03*
%TO.P,J1,a22,Pin_a22*%
%TO.N,GND*%
X224700000Y-113970000D03*
%TO.P,J1,a24,Pin_a24*%
%TO.N,unconnected-(J1-Pada24)*%
X224700000Y-119050000D03*
%TO.P,J1,a26,Pin_a26*%
%TO.N,/DC-DC/GNDf*%
X224700000Y-124130000D03*
%TO.P,J1,a28,Pin_a28*%
%TO.N,/ref/ADR_Pin7*%
X224700000Y-129210000D03*
%TO.P,J1,a30,Pin_a30*%
%TO.N,/ref/10Vsense*%
X224700000Y-134290000D03*
%TO.P,J1,a32,Pin_a32*%
%TO.N,/ref/10Vforce*%
X224700000Y-139370000D03*
%TO.P,J1,c2,Pin_c2*%
%TO.N,+12V*%
X219620000Y-63170000D03*
%TO.P,J1,c4,Pin_c4*%
%TO.N,GND*%
X219620000Y-68250000D03*
%TO.P,J1,c6,Pin_c6*%
%TO.N,unconnected-(J1-Padc6)*%
X219620000Y-73330000D03*
%TO.P,J1,c8,Pin_c8*%
%TO.N,/fault*%
X219620000Y-78410000D03*
%TO.P,J1,c10,Pin_c10*%
%TO.N,/DC-DC/sync*%
X219620000Y-83490000D03*
%TO.P,J1,c12,Pin_c12*%
%TO.N,GND*%
X219620000Y-88570000D03*
%TO.P,J1,c14,Pin_c14*%
%TO.N,/DC-DC/status*%
X219620000Y-93650000D03*
%TO.P,J1,c16,Pin_c16*%
%TO.N,GND*%
X219620000Y-98730000D03*
%TO.P,J1,c18,Pin_c18*%
%TO.N,/DC-DC/SCL*%
X219620000Y-103810000D03*
%TO.P,J1,c20,Pin_c20*%
%TO.N,/DC-DC/SDA*%
X219620000Y-108890000D03*
%TO.P,J1,c22,Pin_c22*%
%TO.N,GND*%
X219620000Y-113970000D03*
%TO.P,J1,c24,Pin_c24*%
%TO.N,unconnected-(J1-Padc24)*%
X219620000Y-119050000D03*
%TO.P,J1,c26,Pin_c26*%
%TO.N,/DC-DC/GNDf*%
X219620000Y-124130000D03*
%TO.P,J1,c28,Pin_c28*%
%TO.N,/ref/ADR_Pin7*%
X219620000Y-129210000D03*
%TO.P,J1,c30,Pin_c30*%
%TO.N,/ref/10Vsense*%
X219620000Y-134290000D03*
%TO.P,J1,c32,Pin_c32*%
%TO.N,/ref/10Vforce*%
X219620000Y-139370000D03*
%TD*%
D15*
%TO.P,R211,1*%
%TO.N,/ref/RN1_Pin12*%
X119695000Y-126180000D03*
%TO.P,R211,2*%
%TO.N,/ref/ADR_Pin7*%
X123495000Y-126180000D03*
%TD*%
%TO.P,R216,1*%
%TO.N,/ref/RN1_Pin7*%
X114615000Y-138880000D03*
%TO.P,R216,2*%
%TO.N,/ref/ADR_Pin7*%
X114615000Y-142680000D03*
%TD*%
D12*
%TO.P,J6,1,Pin_1*%
%TO.N,/ref/ADR_Pin7*%
X140335000Y-111760000D03*
%TD*%
D15*
%TO.P,R206,1*%
%TO.N,/ref/RN1_Pin5*%
X104455000Y-138880000D03*
%TO.P,R206,2*%
%TO.N,/ref/ADR*%
X104455000Y-142680000D03*
%TD*%
%TO.P,R212,1*%
%TO.N,/ref/RN1_Pin1*%
X94295000Y-131260000D03*
%TO.P,R212,2*%
%TO.N,/ref/ADR*%
X90495000Y-131260000D03*
%TD*%
D16*
%TO.P,C302,1*%
%TO.N,+12V*%
X209000000Y-62000000D03*
D17*
%TO.P,C302,2*%
%TO.N,GND*%
X209000000Y-69500000D03*
%TD*%
D15*
%TO.P,R219,1*%
%TO.N,/ref/RN1_Pin6*%
X109535000Y-138880000D03*
%TO.P,R219,2*%
%TO.N,/ref/10Vsense*%
X109535000Y-142680000D03*
%TD*%
D12*
%TO.P,J4,1,Pin_1*%
%TO.N,/ref/ADR*%
X80375000Y-100000000D03*
%TD*%
%TO.P,J2,1,Pin_1*%
%TO.N,/ref/10Vforce*%
X134620000Y-111760000D03*
%TD*%
%TO.P,J3,1,Pin_1*%
%TO.N,/ref/10Vsense*%
X134620000Y-116840000D03*
%TD*%
D18*
%TO.P,U202,1,HTR+*%
%TO.N,/ref/ADR_Pin1*%
X110000000Y-97085000D03*
D19*
%TO.P,U202,2,HTR-*%
%TO.N,/ref/ADR_Pin2*%
X107935248Y-97940248D03*
%TO.P,U202,3,VREF*%
%TO.N,/ref/ADR_Pin3*%
X107080000Y-100005000D03*
%TO.P,U202,4,IZSET*%
%TO.N,/ref/ADR_Pin4*%
X107935248Y-102069752D03*
%TO.P,U202,5,CQ1*%
%TO.N,/ref/ADR_Pin5*%
X110000000Y-102925000D03*
%TO.P,U202,6,BQ2*%
%TO.N,/ref/ADR_Pin6*%
X112064752Y-102069752D03*
%TO.P,U202,7,GND*%
%TO.N,/ref/ADR_Pin7*%
X112920000Y-100005000D03*
%TO.P,U202,8,CQ2*%
%TO.N,/ref/ADR_Pin8*%
X112064752Y-97940248D03*
%TD*%
D12*
%TO.P,J302,1,Pin_1*%
%TO.N,+12V*%
X175000000Y-71000000D03*
%TD*%
D15*
%TO.P,R215,1*%
%TO.N,/ref/ADR_Pin3*%
X89175000Y-100000000D03*
%TO.P,R215,2*%
%TO.N,/ref/ADR*%
X85375000Y-100000000D03*
%TD*%
D20*
%TO.P,RN201,1,R2.1*%
%TO.N,/ref/RN1_Pin1*%
X99375000Y-133800000D03*
D21*
%TO.P,RN201,2,R2.1*%
%TO.N,/ref/RN1_Pin2*%
X101915000Y-133800000D03*
%TO.P,RN201,3,R3.1*%
%TO.N,/ref/RN1_Pin12*%
X104455000Y-133800000D03*
%TO.P,RN201,4,R4.1*%
%TO.N,/ref/RN1_Pin4*%
X106995000Y-133800000D03*
%TO.P,RN201,5,R5.1*%
%TO.N,/ref/RN1_Pin5*%
X109535000Y-133800000D03*
%TO.P,RN201,6,R6.1*%
%TO.N,/ref/RN1_Pin6*%
X112075000Y-133800000D03*
%TO.P,RN201,7,R7.1*%
%TO.N,/ref/RN1_Pin7*%
X114615000Y-133800000D03*
%TO.P,RN201,8*%
%TO.N,N/C*%
X114615000Y-126180000D03*
%TO.P,RN201,9,R7.2*%
%TO.N,/ref/U8_Pin2*%
X112075000Y-126180000D03*
%TO.P,RN201,10*%
%TO.N,N/C*%
X109535000Y-126180000D03*
%TO.P,RN201,11,R5.2*%
%TO.N,/ref/ADR_Pin6*%
X106995000Y-126180000D03*
%TO.P,RN201,12,R3.2*%
%TO.N,/ref/ADR_Pin4*%
X104455000Y-126180000D03*
%TO.P,RN201,13,R2.2*%
%TO.N,/ref/ADR_Pin8*%
X101915000Y-126180000D03*
%TO.P,RN201,14,R1.2*%
%TO.N,/ref/ADR_Pin5*%
X99375000Y-126180000D03*
%TD*%
D11*
%TO.P,J304,1,Pin_1*%
%TO.N,/DC-DC/xformer_A*%
X165000000Y-130000000D03*
%TD*%
D15*
%TO.P,R209,1*%
%TO.N,/ref/RN1_Pin2*%
X94295000Y-126180000D03*
%TO.P,R209,2*%
%TO.N,/ref/ADR*%
X90495000Y-126180000D03*
%TD*%
D12*
%TO.P,J7,1,Pin_1*%
%TO.N,/DC-DC/GNDf*%
X140335000Y-116840000D03*
%TD*%
D15*
%TO.P,R205,1*%
%TO.N,/ref/RN1_Pin4*%
X119695000Y-131260000D03*
%TO.P,R205,2*%
%TO.N,/ref/ADR_Pin7*%
X123495000Y-131260000D03*
%TD*%
D12*
%TO.P,J303,1,Pin_1*%
%TO.N,/DC-DC/U3_Pin14*%
X165000000Y-70000000D03*
%TD*%
D22*
%TO.P,JP212,1,A*%
%TO.N,/ref/RN1_Pin1*%
X93107500Y-131260000D03*
D23*
%TO.P,JP212,2,B*%
%TO.N,/ref/ADR*%
X91807500Y-131260000D03*
%TD*%
D22*
%TO.P,JP215,1,A*%
%TO.N,/ref/ADR_Pin3*%
X87925000Y-100000000D03*
D23*
%TO.P,JP215,2,B*%
%TO.N,/ref/ADR*%
X86625000Y-100000000D03*
%TD*%
D24*
%TO.P,JP216,1,A*%
%TO.N,/ref/RN1_Pin7*%
X114615000Y-140067500D03*
D25*
%TO.P,JP216,2,B*%
%TO.N,/ref/ADR_Pin7*%
X114615000Y-141367500D03*
%TD*%
D22*
%TO.P,JP209,1,A*%
%TO.N,/ref/RN1_Pin2*%
X93045000Y-126180000D03*
D23*
%TO.P,JP209,2,B*%
%TO.N,/ref/ADR*%
X91745000Y-126180000D03*
%TD*%
D24*
%TO.P,JP219,1,A*%
%TO.N,/ref/RN1_Pin6*%
X109535000Y-140130000D03*
D25*
%TO.P,JP219,2,B*%
%TO.N,/ref/10Vsense*%
X109535000Y-141430000D03*
%TD*%
D26*
%TO.P,JP205,1,A*%
%TO.N,/ref/RN1_Pin4*%
X120929500Y-131260000D03*
D27*
%TO.P,JP205,2,B*%
%TO.N,/ref/ADR_Pin7*%
X122229500Y-131260000D03*
%TD*%
D24*
%TO.P,JP206,1,A*%
%TO.N,/ref/RN1_Pin5*%
X104455000Y-140067500D03*
D25*
%TO.P,JP206,2,B*%
%TO.N,/ref/ADR*%
X104455000Y-141367500D03*
%TD*%
D26*
%TO.P,JP211,1,A*%
%TO.N,/ref/RN1_Pin12*%
X120945000Y-126180000D03*
D27*
%TO.P,JP211,2,B*%
%TO.N,/ref/ADR_Pin7*%
X122245000Y-126180000D03*
%TD*%
D28*
%TO.N,/ref/ADR_Pin2*%
X96835000Y-85540000D03*
%TO.N,/ref/ADR_Pin8*%
X124775000Y-85540000D03*
%TO.N,*%
X122235000Y-85540000D03*
%TO.N,/ref/ADR_Pin1*%
X112075000Y-80460000D03*
%TO.N,*%
X109535000Y-80460000D03*
X109535000Y-72840000D03*
X94295000Y-83000000D03*
X84135000Y-67760000D03*
X134935000Y-83000000D03*
X114615000Y-67760000D03*
X132395000Y-72840000D03*
X81595000Y-83000000D03*
X134935000Y-72840000D03*
X81595000Y-133800000D03*
X101915000Y-121100000D03*
X81595000Y-67760000D03*
X119695000Y-133800000D03*
X106995000Y-136340000D03*
X76515000Y-123640000D03*
X137475000Y-83000000D03*
X96835000Y-131260000D03*
X122235000Y-138880000D03*
X84135000Y-90620000D03*
X99375000Y-83000000D03*
X134935000Y-80460000D03*
X140015000Y-90620000D03*
X96835000Y-75380000D03*
X122235000Y-141420000D03*
X106995000Y-70300000D03*
X81595000Y-77920000D03*
X89215000Y-80460000D03*
X96835000Y-138880000D03*
X86675000Y-126180000D03*
X99375000Y-136340000D03*
X91755000Y-77920000D03*
X91755000Y-70300000D03*
X137475000Y-93160000D03*
X101915000Y-136340000D03*
X76515000Y-72840000D03*
X86675000Y-105860000D03*
X122235000Y-67760000D03*
X94295000Y-67760000D03*
X124775000Y-128720000D03*
X124775000Y-116020000D03*
X122235000Y-133800000D03*
X94295000Y-72840000D03*
X76515000Y-128720000D03*
X96835000Y-83000000D03*
X84135000Y-126180000D03*
X89215000Y-121100000D03*
X127315000Y-75380000D03*
X81595000Y-93160000D03*
X140015000Y-88080000D03*
X81595000Y-75380000D03*
X124775000Y-67760000D03*
X104455000Y-75380000D03*
X106995000Y-72840000D03*
X114615000Y-72840000D03*
X119695000Y-70300000D03*
X140015000Y-85540000D03*
X117155000Y-128720000D03*
X89215000Y-75380000D03*
X134935000Y-126180000D03*
X89215000Y-105860000D03*
X76515000Y-131260000D03*
X91755000Y-123640000D03*
X127315000Y-133800000D03*
X119695000Y-75380000D03*
X79055000Y-110940000D03*
X101915000Y-80460000D03*
X127315000Y-90620000D03*
X134935000Y-88080000D03*
X81595000Y-131260000D03*
X89215000Y-110940000D03*
X124775000Y-80460000D03*
X81595000Y-88080000D03*
X76515000Y-80460000D03*
X86675000Y-75380000D03*
X89215000Y-95700000D03*
X91755000Y-133800000D03*
X114615000Y-70300000D03*
X129855000Y-80460000D03*
X94295000Y-121100000D03*
X124775000Y-136340000D03*
X94295000Y-75380000D03*
X109535000Y-70300000D03*
X79055000Y-131260000D03*
X91755000Y-83000000D03*
X89215000Y-67760000D03*
X91755000Y-128720000D03*
X99375000Y-116020000D03*
X89215000Y-90620000D03*
X96835000Y-72840000D03*
X86675000Y-110940000D03*
X76515000Y-116020000D03*
X137475000Y-67760000D03*
X79055000Y-126180000D03*
X101915000Y-70300000D03*
X117155000Y-133800000D03*
X79055000Y-133800000D03*
X79055000Y-123640000D03*
X79055000Y-70300000D03*
X96835000Y-136340000D03*
X86675000Y-93160000D03*
X84135000Y-95700000D03*
X84135000Y-133800000D03*
X129855000Y-75380000D03*
X79055000Y-72840000D03*
X106995000Y-121100000D03*
X86675000Y-72840000D03*
X101915000Y-141420000D03*
X104455000Y-70300000D03*
X106995000Y-67760000D03*
X124775000Y-113480000D03*
X134935000Y-123640000D03*
X81595000Y-90620000D03*
X140015000Y-65220000D03*
X140015000Y-67760000D03*
X86675000Y-116020000D03*
X119695000Y-65220000D03*
X91755000Y-93160000D03*
X79055000Y-90620000D03*
X132395000Y-80460000D03*
X119695000Y-83000000D03*
X137475000Y-70300000D03*
X81595000Y-95700000D03*
X94295000Y-118560000D03*
X96835000Y-121100000D03*
X86675000Y-113480000D03*
X137475000Y-123640000D03*
X79055000Y-113480000D03*
X127315000Y-118560000D03*
X127315000Y-67760000D03*
X132395000Y-88080000D03*
X127315000Y-126180000D03*
X137475000Y-75380000D03*
X91755000Y-75380000D03*
X137475000Y-80460000D03*
X129855000Y-85540000D03*
X79055000Y-105860000D03*
X124775000Y-133800000D03*
X134935000Y-105860000D03*
X137475000Y-121100000D03*
X127315000Y-116020000D03*
X124775000Y-72840000D03*
X96835000Y-118560000D03*
X79055000Y-95700000D03*
X99375000Y-141420000D03*
X132395000Y-67760000D03*
X91755000Y-72840000D03*
X84135000Y-72840000D03*
X89215000Y-70300000D03*
X76515000Y-83000000D03*
X117155000Y-67760000D03*
X124775000Y-70300000D03*
X140015000Y-72840000D03*
X76515000Y-93160000D03*
X94295000Y-70300000D03*
X101915000Y-138880000D03*
X79055000Y-75380000D03*
X86675000Y-77920000D03*
X106995000Y-80460000D03*
X122235000Y-72840000D03*
X134935000Y-75380000D03*
X89215000Y-116020000D03*
X101915000Y-75380000D03*
X79055000Y-88080000D03*
X119695000Y-136340000D03*
X96835000Y-123640000D03*
X122235000Y-118560000D03*
X89215000Y-118560000D03*
X124775000Y-65220000D03*
X127315000Y-110940000D03*
X84135000Y-77920000D03*
X79055000Y-83000000D03*
X124775000Y-75380000D03*
X79055000Y-118560000D03*
X124775000Y-88080000D03*
X114615000Y-118560000D03*
X86675000Y-67760000D03*
X129855000Y-72840000D03*
X122235000Y-121100000D03*
X89215000Y-77920000D03*
X132395000Y-93160000D03*
X94295000Y-88080000D03*
X124775000Y-121100000D03*
X86675000Y-118560000D03*
X127315000Y-131260000D03*
X89215000Y-108400000D03*
X129855000Y-65220000D03*
X86675000Y-83000000D03*
X101915000Y-118560000D03*
X137475000Y-88080000D03*
X134935000Y-93160000D03*
X86675000Y-80460000D03*
X127315000Y-70300000D03*
X140015000Y-80460000D03*
X114615000Y-121100000D03*
X99375000Y-138880000D03*
X99375000Y-72840000D03*
X76515000Y-126180000D03*
X134935000Y-90620000D03*
X132395000Y-65220000D03*
X76515000Y-133800000D03*
X91755000Y-113480000D03*
X81595000Y-80460000D03*
X76515000Y-110940000D03*
X79055000Y-128720000D03*
X132395000Y-85540000D03*
X79055000Y-93160000D03*
X117155000Y-70300000D03*
X96835000Y-67760000D03*
X94295000Y-80460000D03*
X122235000Y-136340000D03*
X86675000Y-128720000D03*
X101915000Y-67760000D03*
X84135000Y-70300000D03*
X104455000Y-80460000D03*
X99375000Y-80460000D03*
X81595000Y-72840000D03*
X119695000Y-121100000D03*
X91755000Y-121100000D03*
X79055000Y-116020000D03*
X84135000Y-88080000D03*
X122235000Y-128720000D03*
X89215000Y-72840000D03*
X91755000Y-108400000D03*
X79055000Y-77920000D03*
X132395000Y-77920000D03*
X117155000Y-65220000D03*
X117155000Y-75380000D03*
X104455000Y-121100000D03*
X91755000Y-88080000D03*
X124775000Y-77920000D03*
X104455000Y-67760000D03*
X117155000Y-141420000D03*
X79055000Y-80460000D03*
X134935000Y-77920000D03*
X137475000Y-72840000D03*
X94295000Y-133800000D03*
X119695000Y-67760000D03*
X91755000Y-67760000D03*
X132395000Y-90620000D03*
X134935000Y-85540000D03*
X86675000Y-88080000D03*
X89215000Y-88080000D03*
X76515000Y-88080000D03*
X137475000Y-77920000D03*
X129855000Y-83000000D03*
X117155000Y-136340000D03*
X86675000Y-95700000D03*
X84135000Y-83000000D03*
X140015000Y-75380000D03*
X109535000Y-75380000D03*
X137475000Y-85540000D03*
X140015000Y-93160000D03*
X99375000Y-75380000D03*
X99375000Y-67760000D03*
X127315000Y-83000000D03*
X91755000Y-116020000D03*
X76515000Y-118560000D03*
X86675000Y-108400000D03*
X119695000Y-128720000D03*
X76515000Y-75380000D03*
X127315000Y-72840000D03*
X99375000Y-70300000D03*
X132395000Y-70300000D03*
X137475000Y-108400000D03*
X134935000Y-128720000D03*
X91755000Y-90620000D03*
X94295000Y-113480000D03*
X96835000Y-126180000D03*
X104455000Y-72840000D03*
X124775000Y-118560000D03*
X134935000Y-67760000D03*
X84135000Y-75380000D03*
X132395000Y-75380000D03*
X134935000Y-121100000D03*
X114615000Y-80460000D03*
X96835000Y-70300000D03*
X76515000Y-90620000D03*
X117155000Y-138880000D03*
X114615000Y-75380000D03*
X81595000Y-70300000D03*
X134935000Y-70300000D03*
X91755000Y-118560000D03*
X109535000Y-67760000D03*
X89215000Y-93160000D03*
X89215000Y-113480000D03*
X122235000Y-65220000D03*
X127315000Y-113480000D03*
X117155000Y-118560000D03*
X94295000Y-123640000D03*
X106995000Y-75380000D03*
X84135000Y-93160000D03*
X86675000Y-70300000D03*
X101915000Y-72840000D03*
X127315000Y-80460000D03*
X76515000Y-77920000D03*
X76515000Y-121100000D03*
X122235000Y-75380000D03*
X127315000Y-77920000D03*
X104455000Y-136340000D03*
X91755000Y-105860000D03*
X112075000Y-121100000D03*
X140015000Y-77920000D03*
X122235000Y-70300000D03*
X117155000Y-72840000D03*
X119695000Y-138880000D03*
X104455000Y-118560000D03*
X122235000Y-83000000D03*
X140015000Y-83000000D03*
X129855000Y-70300000D03*
X129855000Y-67760000D03*
X86675000Y-103320000D03*
X119695000Y-80460000D03*
X96835000Y-80460000D03*
X134935000Y-108400000D03*
X129855000Y-77920000D03*
X86675000Y-90620000D03*
X119695000Y-72840000D03*
X122235000Y-77920000D03*
X137475000Y-65220000D03*
X84135000Y-80460000D03*
X94295000Y-116020000D03*
X117155000Y-80460000D03*
X137475000Y-90620000D03*
X94295000Y-110940000D03*
X119695000Y-141420000D03*
X140015000Y-70300000D03*
X114615000Y-65220000D03*
X91755000Y-110940000D03*
X79055000Y-121100000D03*
X89215000Y-103320000D03*
X132395000Y-83000000D03*
X76515000Y-113480000D03*
X76515000Y-95700000D03*
X134935000Y-65220000D03*
X127315000Y-65220000D03*
X79055000Y-108400000D03*
D29*
%TO.N,+12V*%
X178054000Y-66802000D03*
X169672000Y-62484000D03*
X178054000Y-65786000D03*
X178054000Y-67818000D03*
%TO.N,GND*%
X155448000Y-61722000D03*
X175260000Y-58420000D03*
X167005000Y-56515000D03*
X164084000Y-60960000D03*
X173736000Y-58420000D03*
X155375000Y-57404000D03*
X176375000Y-57800000D03*
X175006000Y-63500000D03*
X75880000Y-63950000D03*
X182375000Y-63800000D03*
X171958000Y-66802000D03*
X163322000Y-56515000D03*
X171958000Y-65786000D03*
X173482000Y-63500000D03*
X176530000Y-63500000D03*
X171958000Y-67818000D03*
%TO.N,+3V3*%
X159282500Y-61746500D03*
X156642500Y-59998500D03*
%TO.N,/DC-DC/SCL*%
X153289000Y-62611000D03*
X151384000Y-57658000D03*
X141160000Y-98552000D03*
%TO.N,/DC-DC/SDA*%
X142684000Y-98552000D03*
X158091500Y-57554500D03*
D28*
%TO.N,/ref/ADR_Pin8*%
X127315000Y-121100000D03*
%TO.N,/ref/ADR_Pin6*%
X122235000Y-116020000D03*
%TO.N,/ref/ADR_Pin7*%
X132715000Y-100000000D03*
X127315000Y-123640000D03*
X127315000Y-128720000D03*
%TO.N,/ref/ADR_Pin5*%
X94295000Y-128720000D03*
D30*
X99802454Y-128179011D03*
D28*
X99375000Y-123640000D03*
X109535000Y-121100000D03*
X104455000Y-123640000D03*
%TO.N,/ref/ADR_Pin4*%
X84135000Y-123640000D03*
X96835000Y-116020000D03*
D29*
%TO.N,/DC-DC/PG*%
X144780000Y-137922000D03*
X172974000Y-139446000D03*
%TO.N,/DC-DC/GNDf*%
X127375000Y-138800000D03*
X78232000Y-144780000D03*
D28*
X142555000Y-65220000D03*
X142555000Y-88080000D03*
D29*
X203200000Y-145800000D03*
X141605000Y-128270000D03*
X77375000Y-137800000D03*
X175155000Y-145800000D03*
X129855000Y-143960000D03*
X205740000Y-139700000D03*
X157375000Y-145800000D03*
X93025000Y-142690000D03*
X209550000Y-134620000D03*
X76200000Y-142832520D03*
X194205000Y-145800000D03*
X198120000Y-140970000D03*
X132301500Y-143800000D03*
X180340000Y-140970000D03*
X145415000Y-133985000D03*
X222250000Y-132080000D03*
X87884000Y-139800000D03*
D30*
X141539000Y-123640000D03*
D28*
X142555000Y-67760000D03*
X142555000Y-70300000D03*
D29*
X185315000Y-145800000D03*
D28*
X142555000Y-80460000D03*
D29*
X139375000Y-127000000D03*
X131375000Y-142800000D03*
X135270000Y-145820000D03*
X210715000Y-145800000D03*
X141375000Y-125813500D03*
X215900000Y-140970000D03*
X189230000Y-140970000D03*
X71120000Y-86360000D03*
D28*
X142555000Y-93160000D03*
D29*
X146685000Y-137795000D03*
D30*
X129475000Y-137100000D03*
D29*
X222250000Y-125730000D03*
X147215000Y-145800000D03*
X214630000Y-129540000D03*
D30*
X146111000Y-123640000D03*
D29*
X141175000Y-133900000D03*
D28*
X142555000Y-75380000D03*
D29*
X222250000Y-137160000D03*
D28*
X142555000Y-90620000D03*
X142555000Y-85540000D03*
D29*
X144780000Y-122800000D03*
X138364090Y-134335838D03*
X92964000Y-138176000D03*
X210820000Y-140970000D03*
X86360000Y-86360000D03*
X73975000Y-144595000D03*
D28*
X142555000Y-72840000D03*
D29*
X153670000Y-137795000D03*
X215900000Y-135890000D03*
X145415000Y-132715000D03*
X166265000Y-145800000D03*
D28*
X142555000Y-83000000D03*
D29*
X218335000Y-145800000D03*
D28*
X142555000Y-77920000D03*
%TO.N,/DC-DC/12Vf*%
X140015000Y-62680000D03*
D30*
X137475000Y-60140000D03*
X140015000Y-57600000D03*
X94295000Y-57600000D03*
D29*
X137795000Y-130810000D03*
D30*
X81595000Y-60140000D03*
D28*
X132395000Y-62680000D03*
D30*
X91755000Y-60140000D03*
D29*
X144780000Y-62230000D03*
D28*
X114615000Y-62680000D03*
D30*
X122235000Y-60140000D03*
X99375000Y-62680000D03*
D29*
X84455000Y-139700000D03*
D30*
X119695000Y-57600000D03*
X109535000Y-57600000D03*
X94295000Y-62680000D03*
X84135000Y-57600000D03*
X145095000Y-57600000D03*
D28*
X134935000Y-62680000D03*
X127315000Y-62680000D03*
D30*
X99375000Y-57600000D03*
X127315000Y-60140000D03*
D28*
X142555000Y-62680000D03*
X117155000Y-62680000D03*
D30*
X89215000Y-57600000D03*
X79055000Y-62680000D03*
D29*
X133350000Y-137795000D03*
D30*
X147635000Y-60140000D03*
D28*
X129855000Y-62680000D03*
X122235000Y-62680000D03*
D30*
X86675000Y-60140000D03*
X101915000Y-60140000D03*
X114615000Y-57600000D03*
X117155000Y-60140000D03*
X134935000Y-57600000D03*
X142555000Y-60140000D03*
X89215000Y-62680000D03*
X84135000Y-62680000D03*
X104455000Y-57600000D03*
D28*
X137475000Y-62680000D03*
D30*
X79055000Y-57600000D03*
D28*
X124775000Y-62680000D03*
D30*
X132395000Y-60140000D03*
X129855000Y-57600000D03*
D28*
X119695000Y-62680000D03*
D30*
X96835000Y-60140000D03*
X104455000Y-62680000D03*
X124775000Y-57600000D03*
D28*
%TO.N,/ref/ADR*%
X89215000Y-128720000D03*
D29*
X94295000Y-141420000D03*
%TO.N,/ref/ADR_Pin1*%
X90170000Y-140335000D03*
X74930000Y-136525000D03*
%TO.N,/DC-DC/pwr_LED*%
X74610000Y-63315000D03*
X213375000Y-54800000D03*
%TO.N,/DC-DC/status_LED*%
X217375000Y-117800000D03*
X73660000Y-68580000D03*
%TO.N,/DC-DC/U2_Pin4*%
X143192000Y-101600000D03*
X157442000Y-60960000D03*
D28*
%TO.N,/ref/RN1_Pin12*%
X117155000Y-126180000D03*
%TO.N,/ref/RN1_Pin4*%
X117155000Y-131260000D03*
%TO.N,/ref/RN1_Pin7*%
X114615000Y-136340000D03*
%TO.N,/ref/RN1_Pin6*%
X112075000Y-136340000D03*
%TO.N,/ref/RN1_Pin2*%
X96835000Y-128720000D03*
%TO.N,/ref/RN1_Pin5*%
X109535000Y-136340000D03*
%TO.N,/ref/RN1_Pin1*%
X96835000Y-133800000D03*
D30*
%TO.N,/ref/shield_maybe*%
X76515000Y-105860000D03*
D29*
X134620000Y-95250000D03*
D30*
X76515000Y-98240000D03*
%TD*%
D31*
%TO.N,/ref/ADR_Pin8*%
X128839000Y-89604000D02*
X124775000Y-85540000D01*
X128839000Y-119576000D02*
X128839000Y-89604000D01*
X127315000Y-121100000D02*
X128839000Y-119576000D01*
%TO.N,GND*%
X218144602Y-61170489D02*
X220448226Y-61170489D01*
X75880000Y-63950000D02*
X75880000Y-56330000D01*
X75880000Y-56330000D02*
X77410000Y-54800000D01*
X220448226Y-61170489D02*
X221619511Y-62341774D01*
X211774113Y-54800000D02*
X218144602Y-61170489D01*
X221619511Y-62341774D02*
X221619511Y-66250489D01*
X221619511Y-66250489D02*
X219620000Y-68250000D01*
X77410000Y-54800000D02*
X211774113Y-54800000D01*
%TO.N,+3V3*%
X156780511Y-59860489D02*
X157897433Y-59860489D01*
X156642500Y-59998500D02*
X156780511Y-59860489D01*
X157897433Y-59860489D02*
X158541511Y-60504567D01*
X158541511Y-60504567D02*
X158541511Y-61005511D01*
X158541511Y-61005511D02*
X159282500Y-61746500D01*
D32*
%TO.N,/DC-DC/SCL*%
X141959511Y-97752489D02*
X145946088Y-97752489D01*
X153326511Y-55715489D02*
X151384000Y-57658000D01*
X217920489Y-99433962D02*
X217920489Y-62218489D01*
X211417489Y-55715489D02*
X153326511Y-55715489D01*
X145946088Y-97752489D02*
X146875266Y-96823311D01*
X146875266Y-69024734D02*
X153289000Y-62611000D01*
X217920489Y-62218489D02*
X211417489Y-55715489D01*
X217970489Y-102160489D02*
X217970489Y-99483962D01*
X141160000Y-98552000D02*
X141959511Y-97752489D01*
X217970489Y-99483962D02*
X217920489Y-99433962D01*
X219620000Y-103810000D02*
X217970489Y-102160489D01*
X146875266Y-96823311D02*
X146875266Y-69024734D01*
%TO.N,/DC-DC/SDA*%
X217320969Y-102358819D02*
X217320969Y-62466819D01*
X154648489Y-60707762D02*
X157801751Y-57554500D01*
X219620000Y-108890000D02*
X217470969Y-106740969D01*
X211654150Y-56800000D02*
X167850680Y-56800000D01*
X167850680Y-56800000D02*
X167096180Y-57554500D01*
X167096180Y-57554500D02*
X158091500Y-57554500D01*
X154648489Y-62581475D02*
X154648489Y-60707762D01*
X217470969Y-106740969D02*
X217470969Y-102508819D01*
X147474786Y-69755178D02*
X154648489Y-62581475D01*
X142684000Y-98552000D02*
X145994427Y-98552000D01*
X217470969Y-102508819D02*
X217320969Y-102358819D01*
X157801751Y-57554500D02*
X158091500Y-57554500D01*
X217320969Y-62466819D02*
X211654150Y-56800000D01*
X145994427Y-98552000D02*
X147474786Y-97071641D01*
X147474786Y-97071641D02*
X147474786Y-69755178D01*
%TO.N,/ref/10Vsense*%
X130339511Y-138761169D02*
X130339511Y-138690459D01*
X125069970Y-143960000D02*
X129800459Y-139229511D01*
X129871169Y-139229511D02*
X130339511Y-138761169D01*
X109535000Y-142680000D02*
X109535000Y-141430000D01*
X110815000Y-143960000D02*
X125069970Y-143960000D01*
X129800459Y-139229511D02*
X129871169Y-139229511D01*
X132729520Y-118730480D02*
X134620000Y-116840000D01*
X132729520Y-136300450D02*
X132729520Y-118730480D01*
X109535000Y-142680000D02*
X110815000Y-143960000D01*
X130339511Y-138690459D02*
X132729520Y-136300450D01*
D31*
%TO.N,/ref/ADR_Pin8*%
X107630000Y-123640000D02*
X106810000Y-124460000D01*
D33*
X105704511Y-126697565D02*
X104952076Y-127450000D01*
X104952076Y-127450000D02*
X103185000Y-127450000D01*
X105704511Y-125565489D02*
X105704511Y-126697565D01*
D31*
X124775000Y-123640000D02*
X107630000Y-123640000D01*
X127315000Y-121100000D02*
X124775000Y-123640000D01*
D33*
X103185000Y-127450000D02*
X101915000Y-126180000D01*
X106810000Y-124460000D02*
X105704511Y-125565489D01*
%TO.N,/ref/ADR_Pin7*%
X132080000Y-131575000D02*
X132080000Y-102458750D01*
X131125000Y-124910000D02*
X131125000Y-101590000D01*
D31*
X130109000Y-120846000D02*
X127315000Y-123640000D01*
X130824000Y-100000000D02*
X130109000Y-100715000D01*
D33*
X123434511Y-141916855D02*
X123434511Y-140220489D01*
X114615000Y-142680000D02*
X122671366Y-142680000D01*
X114615000Y-142680000D02*
X114615000Y-141367500D01*
X123495000Y-126180000D02*
X122245000Y-126180000D01*
X132080000Y-102458750D02*
X132715000Y-101823750D01*
X123495000Y-131260000D02*
X124775000Y-131260000D01*
X122671366Y-142680000D02*
X123434511Y-141916855D01*
X131125000Y-101590000D02*
X132715000Y-100000000D01*
D31*
X124775000Y-126180000D02*
X123495000Y-126180000D01*
D33*
X123495000Y-131260000D02*
X122229500Y-131260000D01*
X123434511Y-140220489D02*
X132080000Y-131575000D01*
X127315000Y-128720000D02*
X131125000Y-124910000D01*
X124775000Y-131260000D02*
X127315000Y-128720000D01*
D31*
X130109000Y-100715000D02*
X130109000Y-120846000D01*
D33*
X132715000Y-101823750D02*
X132715000Y-100000000D01*
D31*
X132715000Y-100000000D02*
X130824000Y-100000000D01*
X127315000Y-123640000D02*
X124775000Y-126180000D01*
%TO.N,/ref/ADR_Pin5*%
X99802454Y-126607454D02*
X99375000Y-126180000D01*
X99802454Y-128179011D02*
X99802454Y-126607454D01*
%TO.N,/ref/ADR_Pin4*%
X99375000Y-121100000D02*
X99375000Y-118560000D01*
X99375000Y-118560000D02*
X96835000Y-116020000D01*
X104455000Y-126180000D02*
X99375000Y-121100000D01*
D33*
%TO.N,/ref/ADR_Pin3*%
X89175000Y-100000000D02*
X87925000Y-100000000D01*
D32*
%TO.N,/DC-DC/PG*%
X146304000Y-139446000D02*
X172974000Y-139446000D01*
X144780000Y-137922000D02*
X146304000Y-139446000D01*
D31*
%TO.N,/DC-DC/GNDf*%
X144375000Y-108800000D02*
X134375000Y-98800000D01*
X142555000Y-83000000D02*
X142555000Y-80460000D01*
X130490000Y-94915000D02*
X130490000Y-89196311D01*
X142555000Y-72840000D02*
X142555000Y-70300000D01*
X86360000Y-85855000D02*
X86360000Y-86360000D01*
X142555000Y-77920000D02*
X142555000Y-75380000D01*
X141375000Y-125813500D02*
X140335000Y-124773500D01*
X142555000Y-80460000D02*
X142555000Y-77920000D01*
X136915000Y-98800000D02*
X142555000Y-93160000D01*
X144375000Y-121800000D02*
X144375000Y-108800000D01*
X94295000Y-77920000D02*
X86360000Y-85855000D01*
X86360000Y-86360000D02*
X71120000Y-86360000D01*
X142555000Y-67760000D02*
X142555000Y-65220000D01*
X134375000Y-98800000D02*
X136915000Y-98800000D01*
X143375000Y-123813500D02*
X143375000Y-122800000D01*
X142555000Y-90620000D02*
X142555000Y-88080000D01*
X142555000Y-85540000D02*
X142555000Y-83000000D01*
X143375000Y-122800000D02*
X144375000Y-121800000D01*
X142555000Y-75380000D02*
X142555000Y-72840000D01*
X142555000Y-88080000D02*
X142555000Y-85540000D01*
X141375000Y-125813500D02*
X143375000Y-123813500D01*
X130490000Y-89196311D02*
X119213689Y-77920000D01*
X134375000Y-98800000D02*
X130490000Y-94915000D01*
X140335000Y-124773500D02*
X140335000Y-116840000D01*
X119213689Y-77920000D02*
X94295000Y-77920000D01*
X142555000Y-93160000D02*
X142555000Y-90620000D01*
X142555000Y-70300000D02*
X142555000Y-67760000D01*
%TO.N,/DC-DC/12Vf*%
X89555000Y-144800000D02*
X84455000Y-139700000D01*
X110382887Y-144800000D02*
X89555000Y-144800000D01*
X110442407Y-144859520D02*
X110382887Y-144800000D01*
X133350000Y-137795000D02*
X137795000Y-133350000D01*
X126300480Y-144859520D02*
X110442407Y-144859520D01*
X133350000Y-137810000D02*
X126300480Y-144859520D01*
X133350000Y-137795000D02*
X133350000Y-137810000D01*
X137795000Y-133350000D02*
X137795000Y-130810000D01*
%TO.N,/ref/ADR*%
X90495000Y-131260000D02*
X91807500Y-131260000D01*
X89215000Y-128720000D02*
X88124511Y-127629511D01*
X78928000Y-101447000D02*
X80375000Y-100000000D01*
X94054972Y-138639972D02*
X94063511Y-138631433D01*
X85225489Y-102177000D02*
X83048489Y-100000000D01*
X82484000Y-127069000D02*
X82484000Y-104463000D01*
X103534520Y-143600480D02*
X99015480Y-143600480D01*
X81087000Y-128212000D02*
X81087000Y-104971000D01*
X90495000Y-130000000D02*
X89215000Y-128720000D01*
X88124511Y-127629511D02*
X88124511Y-124708511D01*
X82484000Y-104463000D02*
X80375000Y-102354000D01*
X83881000Y-120465000D02*
X83881000Y-103506000D01*
X90495000Y-126180000D02*
X90495000Y-124793000D01*
X93419433Y-137076489D02*
X92508567Y-137076489D01*
X80375000Y-102354000D02*
X80375000Y-100000000D01*
X90495000Y-124793000D02*
X85225489Y-119523489D01*
X83881000Y-103506000D02*
X80375000Y-100000000D01*
X85225489Y-119523489D02*
X85225489Y-102177000D01*
X92500028Y-137085028D02*
X82484000Y-127069000D01*
X104455000Y-142680000D02*
X104455000Y-141367500D01*
X92508567Y-137076489D02*
X92500028Y-137085028D01*
X81087000Y-104971000D02*
X78928000Y-102812000D01*
X104455000Y-142680000D02*
X103534520Y-143600480D01*
X83048489Y-100000000D02*
X80375000Y-100000000D01*
X94295000Y-141420000D02*
X81087000Y-128212000D01*
X88124511Y-124708511D02*
X83881000Y-120465000D01*
X90495000Y-126180000D02*
X91745000Y-126180000D01*
X90495000Y-131260000D02*
X90495000Y-130000000D01*
X78928000Y-102812000D02*
X78928000Y-101447000D01*
X94063511Y-138631433D02*
X94063511Y-137720567D01*
X94063511Y-137720567D02*
X93419433Y-137076489D01*
X99015480Y-143600480D02*
X94054972Y-138639972D01*
X85375000Y-100000000D02*
X86625000Y-100000000D01*
%TO.N,/ref/ADR_Pin1*%
X86360000Y-136525000D02*
X90170000Y-140335000D01*
X74930000Y-136525000D02*
X86360000Y-136525000D01*
D33*
%TO.N,/DC-DC/pwr_LED*%
X76454520Y-53850480D02*
X212425480Y-53850480D01*
X212425480Y-53850480D02*
X213375000Y-54800000D01*
X74610000Y-55695000D02*
X76454520Y-53850480D01*
X74610000Y-63315000D02*
X74610000Y-55695000D01*
%TO.N,/DC-DC/status_LED*%
X220044183Y-116020000D02*
X226375000Y-116020000D01*
X73660000Y-55375000D02*
X73660000Y-68580000D01*
X217375000Y-117800000D02*
X218264183Y-117800000D01*
X217770230Y-53150960D02*
X75884040Y-53150960D01*
X218264183Y-117800000D02*
X220044183Y-116020000D01*
X75884040Y-53150960D02*
X73660000Y-55375000D01*
X226449511Y-61830241D02*
X217770230Y-53150960D01*
X226449511Y-115945489D02*
X226449511Y-61830241D01*
X226375000Y-116020000D02*
X226449511Y-115945489D01*
D32*
%TO.N,/DC-DC/U2_Pin4*%
X143794276Y-101600000D02*
X148375000Y-97019276D01*
X157442000Y-61733000D02*
X157442000Y-60960000D01*
X148375000Y-97019276D02*
X148375000Y-69800000D01*
X143192000Y-101600000D02*
X143794276Y-101600000D01*
X152375000Y-65800000D02*
X153375000Y-65800000D01*
X148375000Y-69800000D02*
X152375000Y-65800000D01*
X153375000Y-65800000D02*
X157442000Y-61733000D01*
D31*
%TO.N,/ref/RN1_Pin12*%
X104455000Y-131895000D02*
X107630000Y-128720000D01*
X114615000Y-128720000D02*
X117155000Y-126180000D01*
X107630000Y-128720000D02*
X114615000Y-128720000D01*
X104455000Y-133800000D02*
X104455000Y-131895000D01*
X117155000Y-126180000D02*
X119695000Y-126180000D01*
D33*
X119695000Y-126180000D02*
X120945000Y-126180000D01*
D31*
%TO.N,/ref/RN1_Pin4*%
X119695000Y-131260000D02*
X117155000Y-131260000D01*
X117155000Y-131260000D02*
X109535000Y-131260000D01*
X109535000Y-131260000D02*
X106995000Y-133800000D01*
D33*
X119695000Y-131260000D02*
X120929500Y-131260000D01*
%TO.N,/ref/RN1_Pin7*%
X114615000Y-138880000D02*
X114615000Y-140067500D01*
D32*
%TO.N,/ref/RN1_Pin6*%
X109535000Y-138880000D02*
X109535000Y-140130000D01*
D31*
%TO.N,/ref/RN1_Pin2*%
X97966370Y-128720000D02*
X101915000Y-132668630D01*
D33*
X94295000Y-126180000D02*
X93045000Y-126180000D01*
D31*
X101915000Y-132668630D02*
X101915000Y-133800000D01*
X96835000Y-128720000D02*
X97966370Y-128720000D01*
X94295000Y-126180000D02*
X96835000Y-128720000D01*
D33*
%TO.N,/ref/RN1_Pin5*%
X104455000Y-138880000D02*
X104455000Y-140067500D01*
%TO.N,/ref/RN1_Pin1*%
X94295000Y-131260000D02*
X93107500Y-131260000D01*
D31*
X94295000Y-131260000D02*
X96835000Y-133800000D01*
X96835000Y-133800000D02*
X99375000Y-133800000D01*
%TD*%
%TA.AperFunction,Conductor*%
%TO.N,GND*%
G36*
X216925391Y-53929462D02*
G01*
X216946365Y-53946365D01*
X224146405Y-61146405D01*
X224180431Y-61208717D01*
X224175366Y-61279532D01*
X224132819Y-61336368D01*
X224066299Y-61361179D01*
X224057310Y-61361500D01*
X223599600Y-61361500D01*
X223596354Y-61361837D01*
X223596350Y-61361837D01*
X223500692Y-61371762D01*
X223500688Y-61371763D01*
X223493834Y-61372474D01*
X223487298Y-61374655D01*
X223487296Y-61374655D01*
X223393983Y-61405787D01*
X223326054Y-61428450D01*
X223175652Y-61521522D01*
X223050695Y-61646697D01*
X223046855Y-61652927D01*
X223046854Y-61652928D01*
X222966859Y-61782704D01*
X222957885Y-61797262D01*
X222955581Y-61804209D01*
X222905987Y-61953732D01*
X222902203Y-61965139D01*
X222891500Y-62069600D01*
X222891500Y-64270400D01*
X222902474Y-64376166D01*
X222904655Y-64382702D01*
X222904655Y-64382704D01*
X222936511Y-64478186D01*
X222958450Y-64543946D01*
X223051522Y-64694348D01*
X223176697Y-64819305D01*
X223182927Y-64823145D01*
X223182928Y-64823146D01*
X223279898Y-64882919D01*
X223327262Y-64912115D01*
X223407005Y-64938564D01*
X223488611Y-64965632D01*
X223488613Y-64965632D01*
X223495139Y-64967797D01*
X223501975Y-64968497D01*
X223501978Y-64968498D01*
X223537097Y-64972096D01*
X223599600Y-64978500D01*
X225565011Y-64978500D01*
X225633132Y-64998502D01*
X225679625Y-65052158D01*
X225691011Y-65104500D01*
X225691011Y-66520101D01*
X225671009Y-66588222D01*
X225617353Y-66634715D01*
X225547079Y-66644819D01*
X225509282Y-66633107D01*
X225383370Y-66571014D01*
X225374743Y-66567528D01*
X225127703Y-66488450D01*
X225118643Y-66486274D01*
X224862630Y-66444580D01*
X224853343Y-66443768D01*
X224593992Y-66440373D01*
X224584681Y-66440943D01*
X224327682Y-66475919D01*
X224318546Y-66477860D01*
X224069543Y-66550439D01*
X224060800Y-66553707D01*
X223825252Y-66662296D01*
X223817097Y-66666816D01*
X223626240Y-66791947D01*
X223617102Y-66802689D01*
X223621675Y-66812465D01*
X224970115Y-68160905D01*
X225004141Y-68223217D01*
X224999076Y-68294032D01*
X224970115Y-68339095D01*
X223626497Y-69682713D01*
X223619839Y-69694906D01*
X223628553Y-69706427D01*
X223735452Y-69784809D01*
X223743351Y-69789745D01*
X223972905Y-69910519D01*
X223981454Y-69914236D01*
X224226327Y-69999749D01*
X224235336Y-70002163D01*
X224490166Y-70050544D01*
X224499423Y-70051598D01*
X224758607Y-70061783D01*
X224767921Y-70061457D01*
X225025753Y-70033220D01*
X225034930Y-70031519D01*
X225285758Y-69965481D01*
X225294574Y-69962445D01*
X225515274Y-69867626D01*
X225585758Y-69859114D01*
X225649656Y-69890060D01*
X225686679Y-69950638D01*
X225691011Y-69983394D01*
X225691011Y-71599543D01*
X225671009Y-71667664D01*
X225617353Y-71714157D01*
X225547079Y-71724261D01*
X225509283Y-71712549D01*
X225383564Y-71650551D01*
X225383561Y-71650550D01*
X225379376Y-71648486D01*
X225335503Y-71634442D01*
X225223257Y-71598512D01*
X225123370Y-71566538D01*
X225118763Y-71565788D01*
X225118760Y-71565787D01*
X224862674Y-71524081D01*
X224862675Y-71524081D01*
X224858063Y-71523330D01*
X224727719Y-71521624D01*
X224593961Y-71519873D01*
X224593958Y-71519873D01*
X224589284Y-71519812D01*
X224322937Y-71556060D01*
X224064874Y-71631278D01*
X223820763Y-71743815D01*
X223816854Y-71746378D01*
X223599881Y-71888631D01*
X223599876Y-71888635D01*
X223595968Y-71891197D01*
X223395426Y-72070188D01*
X223223544Y-72276854D01*
X223221121Y-72280847D01*
X223113319Y-72458499D01*
X223084096Y-72506656D01*
X222980148Y-72754545D01*
X222913981Y-73015077D01*
X222887050Y-73282526D01*
X222899947Y-73551019D01*
X222952388Y-73814656D01*
X223043220Y-74067646D01*
X223170450Y-74304431D01*
X223173241Y-74308168D01*
X223173245Y-74308175D01*
X223254887Y-74417506D01*
X223331281Y-74519810D01*
X223334590Y-74523090D01*
X223334595Y-74523096D01*
X223518863Y-74705762D01*
X223522180Y-74709050D01*
X223525942Y-74711808D01*
X223525945Y-74711811D01*
X223638299Y-74794192D01*
X223738954Y-74867995D01*
X223743089Y-74870171D01*
X223743093Y-74870173D01*
X223891340Y-74948170D01*
X223976840Y-74993154D01*
X224230613Y-75081775D01*
X224235206Y-75082647D01*
X224490109Y-75131042D01*
X224490112Y-75131042D01*
X224494698Y-75131913D01*
X224622370Y-75136929D01*
X224758625Y-75142283D01*
X224758630Y-75142283D01*
X224763293Y-75142466D01*
X224867607Y-75131042D01*
X225025844Y-75113713D01*
X225025850Y-75113712D01*
X225030497Y-75113203D01*
X225035021Y-75112012D01*
X225285918Y-75045956D01*
X225285920Y-75045955D01*
X225290441Y-75044765D01*
X225294738Y-75042919D01*
X225515273Y-74948170D01*
X225585758Y-74939658D01*
X225649655Y-74970603D01*
X225686679Y-75031182D01*
X225691011Y-75063938D01*
X225691011Y-76679543D01*
X225671009Y-76747664D01*
X225617353Y-76794157D01*
X225547079Y-76804261D01*
X225509283Y-76792549D01*
X225383564Y-76730551D01*
X225383561Y-76730550D01*
X225379376Y-76728486D01*
X225335503Y-76714442D01*
X225223257Y-76678512D01*
X225123370Y-76646538D01*
X225118763Y-76645788D01*
X225118760Y-76645787D01*
X224862674Y-76604081D01*
X224862675Y-76604081D01*
X224858063Y-76603330D01*
X224727719Y-76601624D01*
X224593961Y-76599873D01*
X224593958Y-76599873D01*
X224589284Y-76599812D01*
X224322937Y-76636060D01*
X224064874Y-76711278D01*
X223820763Y-76823815D01*
X223816854Y-76826378D01*
X223599881Y-76968631D01*
X223599876Y-76968635D01*
X223595968Y-76971197D01*
X223395426Y-77150188D01*
X223223544Y-77356854D01*
X223084096Y-77586656D01*
X222980148Y-77834545D01*
X222913981Y-78095077D01*
X222887050Y-78362526D01*
X222899947Y-78631019D01*
X222952388Y-78894656D01*
X223043220Y-79147646D01*
X223170450Y-79384431D01*
X223173241Y-79388168D01*
X223173245Y-79388175D01*
X223193700Y-79415567D01*
X223331281Y-79599810D01*
X223334590Y-79603090D01*
X223334595Y-79603096D01*
X223499086Y-79766157D01*
X223522180Y-79789050D01*
X223525942Y-79791808D01*
X223525945Y-79791811D01*
X223561862Y-79818146D01*
X223738954Y-79947995D01*
X223743089Y-79950171D01*
X223743093Y-79950173D01*
X223891340Y-80028170D01*
X223976840Y-80073154D01*
X224230613Y-80161775D01*
X224235206Y-80162647D01*
X224490109Y-80211042D01*
X224490112Y-80211042D01*
X224494698Y-80211913D01*
X224622370Y-80216929D01*
X224758625Y-80222283D01*
X224758630Y-80222283D01*
X224763293Y-80222466D01*
X224867607Y-80211042D01*
X225025844Y-80193713D01*
X225025850Y-80193712D01*
X225030497Y-80193203D01*
X225067496Y-80183462D01*
X225285918Y-80125956D01*
X225285920Y-80125955D01*
X225290441Y-80124765D01*
X225294738Y-80122919D01*
X225515273Y-80028170D01*
X225585758Y-80019658D01*
X225649655Y-80050603D01*
X225686679Y-80111182D01*
X225691011Y-80143938D01*
X225691011Y-81759543D01*
X225671009Y-81827664D01*
X225617353Y-81874157D01*
X225547079Y-81884261D01*
X225509283Y-81872549D01*
X225383564Y-81810551D01*
X225383561Y-81810550D01*
X225379376Y-81808486D01*
X225335503Y-81794442D01*
X225223257Y-81758512D01*
X225123370Y-81726538D01*
X225118763Y-81725788D01*
X225118760Y-81725787D01*
X224862674Y-81684081D01*
X224862675Y-81684081D01*
X224858063Y-81683330D01*
X224727719Y-81681624D01*
X224593961Y-81679873D01*
X224593958Y-81679873D01*
X224589284Y-81679812D01*
X224322937Y-81716060D01*
X224064874Y-81791278D01*
X223820763Y-81903815D01*
X223816854Y-81906378D01*
X223599881Y-82048631D01*
X223599876Y-82048635D01*
X223595968Y-82051197D01*
X223395426Y-82230188D01*
X223223544Y-82436854D01*
X223084096Y-82666656D01*
X222980148Y-82914545D01*
X222913981Y-83175077D01*
X222887050Y-83442526D01*
X222899947Y-83711019D01*
X222952388Y-83974656D01*
X223043220Y-84227646D01*
X223170450Y-84464431D01*
X223173241Y-84468168D01*
X223173245Y-84468175D01*
X223260443Y-84584947D01*
X223331281Y-84679810D01*
X223334590Y-84683090D01*
X223334595Y-84683096D01*
X223518863Y-84865762D01*
X223522180Y-84869050D01*
X223525942Y-84871808D01*
X223525945Y-84871811D01*
X223638299Y-84954192D01*
X223738954Y-85027995D01*
X223743089Y-85030171D01*
X223743093Y-85030173D01*
X223891340Y-85108170D01*
X223976840Y-85153154D01*
X224230613Y-85241775D01*
X224235206Y-85242647D01*
X224490109Y-85291042D01*
X224490112Y-85291042D01*
X224494698Y-85291913D01*
X224622370Y-85296929D01*
X224758625Y-85302283D01*
X224758630Y-85302283D01*
X224763293Y-85302466D01*
X224867607Y-85291042D01*
X225025844Y-85273713D01*
X225025850Y-85273712D01*
X225030497Y-85273203D01*
X225035021Y-85272012D01*
X225285918Y-85205956D01*
X225285920Y-85205955D01*
X225290441Y-85204765D01*
X225294738Y-85202919D01*
X225515273Y-85108170D01*
X225585758Y-85099658D01*
X225649655Y-85130603D01*
X225686679Y-85191182D01*
X225691011Y-85223938D01*
X225691011Y-86840101D01*
X225671009Y-86908222D01*
X225617353Y-86954715D01*
X225547079Y-86964819D01*
X225509282Y-86953107D01*
X225383370Y-86891014D01*
X225374743Y-86887528D01*
X225127703Y-86808450D01*
X225118643Y-86806274D01*
X224862630Y-86764580D01*
X224853343Y-86763768D01*
X224593992Y-86760373D01*
X224584681Y-86760943D01*
X224327682Y-86795919D01*
X224318546Y-86797860D01*
X224069543Y-86870439D01*
X224060800Y-86873707D01*
X223825252Y-86982296D01*
X223817097Y-86986816D01*
X223626240Y-87111947D01*
X223617102Y-87122689D01*
X223621675Y-87132465D01*
X224970115Y-88480905D01*
X225004141Y-88543217D01*
X224999076Y-88614032D01*
X224970115Y-88659095D01*
X223626497Y-90002713D01*
X223619839Y-90014906D01*
X223628553Y-90026427D01*
X223735452Y-90104809D01*
X223743351Y-90109745D01*
X223972905Y-90230519D01*
X223981454Y-90234236D01*
X224226327Y-90319749D01*
X224235336Y-90322163D01*
X224490166Y-90370544D01*
X224499423Y-90371598D01*
X224758607Y-90381783D01*
X224767921Y-90381457D01*
X225025753Y-90353220D01*
X225034930Y-90351519D01*
X225285758Y-90285481D01*
X225294574Y-90282445D01*
X225515274Y-90187626D01*
X225585758Y-90179114D01*
X225649656Y-90210060D01*
X225686679Y-90270638D01*
X225691011Y-90303394D01*
X225691011Y-91919543D01*
X225671009Y-91987664D01*
X225617353Y-92034157D01*
X225547079Y-92044261D01*
X225509283Y-92032549D01*
X225383564Y-91970551D01*
X225383561Y-91970550D01*
X225379376Y-91968486D01*
X225335503Y-91954442D01*
X225223257Y-91918512D01*
X225123370Y-91886538D01*
X225118763Y-91885788D01*
X225118760Y-91885787D01*
X224862674Y-91844081D01*
X224862675Y-91844081D01*
X224858063Y-91843330D01*
X224727719Y-91841624D01*
X224593961Y-91839873D01*
X224593958Y-91839873D01*
X224589284Y-91839812D01*
X224322937Y-91876060D01*
X224064874Y-91951278D01*
X223820763Y-92063815D01*
X223816854Y-92066378D01*
X223599881Y-92208631D01*
X223599876Y-92208635D01*
X223595968Y-92211197D01*
X223395426Y-92390188D01*
X223223544Y-92596854D01*
X223084096Y-92826656D01*
X222980148Y-93074545D01*
X222913981Y-93335077D01*
X222887050Y-93602526D01*
X222899947Y-93871019D01*
X222952388Y-94134656D01*
X223043220Y-94387646D01*
X223045432Y-94391762D01*
X223045433Y-94391765D01*
X223109555Y-94511100D01*
X223170450Y-94624431D01*
X223173241Y-94628168D01*
X223173245Y-94628175D01*
X223254887Y-94737506D01*
X223331281Y-94839810D01*
X223334590Y-94843090D01*
X223334595Y-94843096D01*
X223518863Y-95025762D01*
X223522180Y-95029050D01*
X223525942Y-95031808D01*
X223525945Y-95031811D01*
X223545958Y-95046485D01*
X223738954Y-95187995D01*
X223743089Y-95190171D01*
X223743093Y-95190173D01*
X223891340Y-95268170D01*
X223976840Y-95313154D01*
X224230613Y-95401775D01*
X224235206Y-95402647D01*
X224490109Y-95451042D01*
X224490112Y-95451042D01*
X224494698Y-95451913D01*
X224622370Y-95456929D01*
X224758625Y-95462283D01*
X224758630Y-95462283D01*
X224763293Y-95462466D01*
X224867607Y-95451042D01*
X225025844Y-95433713D01*
X225025850Y-95433712D01*
X225030497Y-95433203D01*
X225035021Y-95432012D01*
X225285918Y-95365956D01*
X225285920Y-95365955D01*
X225290441Y-95364765D01*
X225294738Y-95362919D01*
X225515273Y-95268170D01*
X225585758Y-95259658D01*
X225649655Y-95290603D01*
X225686679Y-95351182D01*
X225691011Y-95383938D01*
X225691011Y-97000101D01*
X225671009Y-97068222D01*
X225617353Y-97114715D01*
X225547079Y-97124819D01*
X225509282Y-97113107D01*
X225383370Y-97051014D01*
X225374743Y-97047528D01*
X225127703Y-96968450D01*
X225118643Y-96966274D01*
X224862630Y-96924580D01*
X224853343Y-96923768D01*
X224593992Y-96920373D01*
X224584681Y-96920943D01*
X224327682Y-96955919D01*
X224318546Y-96957860D01*
X224069543Y-97030439D01*
X224060800Y-97033707D01*
X223825252Y-97142296D01*
X223817097Y-97146816D01*
X223626240Y-97271947D01*
X223617102Y-97282689D01*
X223621675Y-97292465D01*
X224970115Y-98640905D01*
X225004141Y-98703217D01*
X224999076Y-98774032D01*
X224970115Y-98819095D01*
X223626497Y-100162713D01*
X223619839Y-100174906D01*
X223628553Y-100186427D01*
X223735452Y-100264809D01*
X223743351Y-100269745D01*
X223972905Y-100390519D01*
X223981454Y-100394236D01*
X224226327Y-100479749D01*
X224235336Y-100482163D01*
X224490166Y-100530544D01*
X224499423Y-100531598D01*
X224758607Y-100541783D01*
X224767921Y-100541457D01*
X225025753Y-100513220D01*
X225034930Y-100511519D01*
X225285758Y-100445481D01*
X225294574Y-100442445D01*
X225515274Y-100347626D01*
X225585758Y-100339114D01*
X225649656Y-100370060D01*
X225686679Y-100430638D01*
X225691011Y-100463394D01*
X225691011Y-102079543D01*
X225671009Y-102147664D01*
X225617353Y-102194157D01*
X225547079Y-102204261D01*
X225509283Y-102192549D01*
X225383564Y-102130551D01*
X225383561Y-102130550D01*
X225379376Y-102128486D01*
X225331745Y-102113239D01*
X225204297Y-102072443D01*
X225123370Y-102046538D01*
X225118763Y-102045788D01*
X225118760Y-102045787D01*
X224862674Y-102004081D01*
X224862675Y-102004081D01*
X224858063Y-102003330D01*
X224727719Y-102001624D01*
X224593961Y-101999873D01*
X224593958Y-101999873D01*
X224589284Y-101999812D01*
X224322937Y-102036060D01*
X224064874Y-102111278D01*
X223820763Y-102223815D01*
X223816854Y-102226378D01*
X223599881Y-102368631D01*
X223599876Y-102368635D01*
X223595968Y-102371197D01*
X223592476Y-102374314D01*
X223399433Y-102546612D01*
X223395426Y-102550188D01*
X223223544Y-102756854D01*
X223084096Y-102986656D01*
X222980148Y-103234545D01*
X222913981Y-103495077D01*
X222887050Y-103762526D01*
X222899947Y-104031019D01*
X222952388Y-104294656D01*
X223043220Y-104547646D01*
X223170450Y-104784431D01*
X223173241Y-104788168D01*
X223173245Y-104788175D01*
X223254887Y-104897506D01*
X223331281Y-104999810D01*
X223334590Y-105003090D01*
X223334595Y-105003096D01*
X223495724Y-105162824D01*
X223522180Y-105189050D01*
X223525942Y-105191808D01*
X223525945Y-105191811D01*
X223638299Y-105274192D01*
X223738954Y-105347995D01*
X223743089Y-105350171D01*
X223743093Y-105350173D01*
X223891340Y-105428170D01*
X223976840Y-105473154D01*
X224230613Y-105561775D01*
X224235206Y-105562647D01*
X224490109Y-105611042D01*
X224490112Y-105611042D01*
X224494698Y-105611913D01*
X224622370Y-105616929D01*
X224758625Y-105622283D01*
X224758630Y-105622283D01*
X224763293Y-105622466D01*
X224867607Y-105611042D01*
X225025844Y-105593713D01*
X225025850Y-105593712D01*
X225030497Y-105593203D01*
X225035021Y-105592012D01*
X225285918Y-105525956D01*
X225285920Y-105525955D01*
X225290441Y-105524765D01*
X225294738Y-105522919D01*
X225515273Y-105428170D01*
X225585758Y-105419658D01*
X225649655Y-105450603D01*
X225686679Y-105511182D01*
X225691011Y-105543938D01*
X225691011Y-107159543D01*
X225671009Y-107227664D01*
X225617353Y-107274157D01*
X225547079Y-107284261D01*
X225509283Y-107272549D01*
X225383564Y-107210551D01*
X225383561Y-107210550D01*
X225379376Y-107208486D01*
X225373763Y-107206689D01*
X225204297Y-107152443D01*
X225123370Y-107126538D01*
X225118763Y-107125788D01*
X225118760Y-107125787D01*
X224862674Y-107084081D01*
X224862675Y-107084081D01*
X224858063Y-107083330D01*
X224727719Y-107081624D01*
X224593961Y-107079873D01*
X224593958Y-107079873D01*
X224589284Y-107079812D01*
X224322937Y-107116060D01*
X224064874Y-107191278D01*
X223820763Y-107303815D01*
X223816854Y-107306378D01*
X223599881Y-107448631D01*
X223599876Y-107448635D01*
X223595968Y-107451197D01*
X223395426Y-107630188D01*
X223223544Y-107836854D01*
X223084096Y-108066656D01*
X222980148Y-108314545D01*
X222913981Y-108575077D01*
X222887050Y-108842526D01*
X222899947Y-109111019D01*
X222952388Y-109374656D01*
X223043220Y-109627646D01*
X223170450Y-109864431D01*
X223173241Y-109868168D01*
X223173245Y-109868175D01*
X223254887Y-109977506D01*
X223331281Y-110079810D01*
X223334590Y-110083090D01*
X223334595Y-110083096D01*
X223518863Y-110265762D01*
X223522180Y-110269050D01*
X223525942Y-110271808D01*
X223525945Y-110271811D01*
X223638299Y-110354192D01*
X223738954Y-110427995D01*
X223743089Y-110430171D01*
X223743093Y-110430173D01*
X223891340Y-110508170D01*
X223976840Y-110553154D01*
X224230613Y-110641775D01*
X224235206Y-110642647D01*
X224490109Y-110691042D01*
X224490112Y-110691042D01*
X224494698Y-110691913D01*
X224622370Y-110696929D01*
X224758625Y-110702283D01*
X224758630Y-110702283D01*
X224763293Y-110702466D01*
X224867607Y-110691042D01*
X225025844Y-110673713D01*
X225025850Y-110673712D01*
X225030497Y-110673203D01*
X225035021Y-110672012D01*
X225285918Y-110605956D01*
X225285920Y-110605955D01*
X225290441Y-110604765D01*
X225294738Y-110602919D01*
X225515273Y-110508170D01*
X225585758Y-110499658D01*
X225649655Y-110530603D01*
X225686679Y-110591182D01*
X225691011Y-110623938D01*
X225691011Y-112240101D01*
X225671009Y-112308222D01*
X225617353Y-112354715D01*
X225547079Y-112364819D01*
X225509282Y-112353107D01*
X225383370Y-112291014D01*
X225374743Y-112287528D01*
X225127703Y-112208450D01*
X225118643Y-112206274D01*
X224862630Y-112164580D01*
X224853343Y-112163768D01*
X224593992Y-112160373D01*
X224584681Y-112160943D01*
X224327682Y-112195919D01*
X224318546Y-112197860D01*
X224069543Y-112270439D01*
X224060800Y-112273707D01*
X223825252Y-112382296D01*
X223817097Y-112386816D01*
X223626240Y-112511947D01*
X223617102Y-112522689D01*
X223621675Y-112532465D01*
X224970115Y-113880905D01*
X225004141Y-113943217D01*
X224999076Y-114014032D01*
X224970115Y-114059095D01*
X224789095Y-114240115D01*
X224726783Y-114274141D01*
X224655968Y-114269076D01*
X224610905Y-114240115D01*
X223265816Y-112895026D01*
X223252507Y-112887758D01*
X223242472Y-112894878D01*
X223226937Y-112913556D01*
X223221531Y-112921135D01*
X223086965Y-113142891D01*
X223082736Y-113151192D01*
X222982432Y-113390389D01*
X222979471Y-113399239D01*
X222915628Y-113650625D01*
X222914006Y-113659822D01*
X222888020Y-113917885D01*
X222887775Y-113927211D01*
X222900220Y-114186288D01*
X222901356Y-114195543D01*
X222951961Y-114449945D01*
X222954449Y-114458917D01*
X223042095Y-114703033D01*
X223045895Y-114711568D01*
X223168658Y-114940042D01*
X223173669Y-114947908D01*
X223257456Y-115060111D01*
X223282188Y-115126660D01*
X223267014Y-115196016D01*
X223216752Y-115246159D01*
X223156498Y-115261500D01*
X221169278Y-115261500D01*
X221101157Y-115241498D01*
X221054664Y-115187842D01*
X221044560Y-115117568D01*
X221068029Y-115061163D01*
X221067982Y-115061133D01*
X221068152Y-115060868D01*
X221068650Y-115059672D01*
X221070506Y-115057209D01*
X221210832Y-114839048D01*
X221215275Y-114830864D01*
X221321807Y-114594370D01*
X221324997Y-114585605D01*
X221395402Y-114335972D01*
X221397262Y-114326830D01*
X221430187Y-114068019D01*
X221430668Y-114061733D01*
X221432987Y-113973160D01*
X221432836Y-113966851D01*
X221413501Y-113706663D01*
X221412125Y-113697457D01*
X221354878Y-113444467D01*
X221352154Y-113435556D01*
X221258143Y-113193806D01*
X221254132Y-113185397D01*
X221125422Y-112960202D01*
X221120211Y-112952476D01*
X221076996Y-112897658D01*
X221065071Y-112889187D01*
X221053537Y-112895673D01*
X219709095Y-114240115D01*
X219646783Y-114274141D01*
X219575968Y-114269076D01*
X219530905Y-114240115D01*
X218185816Y-112895026D01*
X218172507Y-112887758D01*
X218162472Y-112894878D01*
X218146937Y-112913556D01*
X218141531Y-112921135D01*
X218006965Y-113142891D01*
X218002736Y-113151192D01*
X217902432Y-113390389D01*
X217899471Y-113399239D01*
X217835628Y-113650625D01*
X217834006Y-113659822D01*
X217808020Y-113917885D01*
X217807775Y-113927211D01*
X217820220Y-114186288D01*
X217821356Y-114195543D01*
X217867243Y-114426228D01*
X217860915Y-114496942D01*
X217817361Y-114553010D01*
X217750409Y-114576629D01*
X217681315Y-114560302D01*
X217659725Y-114544779D01*
X215396002Y-112522689D01*
X218537102Y-112522689D01*
X218541675Y-112532465D01*
X219607188Y-113597978D01*
X219621132Y-113605592D01*
X219622965Y-113605461D01*
X219629580Y-113601210D01*
X220694349Y-112536441D01*
X220700733Y-112524751D01*
X220691321Y-112512641D01*
X220544045Y-112410471D01*
X220536010Y-112405738D01*
X220303376Y-112291016D01*
X220294743Y-112287528D01*
X220047703Y-112208450D01*
X220038643Y-112206274D01*
X219782630Y-112164580D01*
X219773343Y-112163768D01*
X219513992Y-112160373D01*
X219504681Y-112160943D01*
X219247682Y-112195919D01*
X219238546Y-112197860D01*
X218989543Y-112270439D01*
X218980800Y-112273707D01*
X218745252Y-112382296D01*
X218737097Y-112386816D01*
X218546240Y-112511947D01*
X218537102Y-112522689D01*
X215396002Y-112522689D01*
X211581782Y-109115604D01*
X205135886Y-103357751D01*
X205098407Y-103297453D01*
X205093826Y-103263333D01*
X205095344Y-102837634D01*
X205209333Y-70873359D01*
X207991386Y-70873359D01*
X208000099Y-70884879D01*
X208088586Y-70949760D01*
X208096505Y-70954708D01*
X208312877Y-71068547D01*
X208321451Y-71072275D01*
X208552282Y-71152885D01*
X208561291Y-71155299D01*
X208801518Y-71200908D01*
X208810775Y-71201962D01*
X209055107Y-71211563D01*
X209064420Y-71211237D01*
X209307478Y-71184618D01*
X209316655Y-71182917D01*
X209553107Y-71120665D01*
X209561926Y-71117628D01*
X209786584Y-71021107D01*
X209794856Y-71016800D01*
X210002777Y-70888135D01*
X210004620Y-70886796D01*
X210012038Y-70875541D01*
X210005974Y-70865184D01*
X209012812Y-69872022D01*
X208998868Y-69864408D01*
X208997035Y-69864539D01*
X208990420Y-69868790D01*
X207998044Y-70861166D01*
X207991386Y-70873359D01*
X205209333Y-70873359D01*
X205214374Y-69459835D01*
X207288022Y-69459835D01*
X207299754Y-69704064D01*
X207300891Y-69713324D01*
X207348593Y-69953143D01*
X207351082Y-69962118D01*
X207433708Y-70192250D01*
X207437505Y-70200778D01*
X207553234Y-70416160D01*
X207558245Y-70424027D01*
X207615173Y-70500263D01*
X207626431Y-70508712D01*
X207638850Y-70501940D01*
X208627978Y-69512812D01*
X208634356Y-69501132D01*
X209364408Y-69501132D01*
X209364539Y-69502965D01*
X209368790Y-69509580D01*
X210363732Y-70504522D01*
X210376112Y-70511282D01*
X210384453Y-70505038D01*
X210502700Y-70321202D01*
X210507147Y-70313011D01*
X210607572Y-70090076D01*
X210610767Y-70081298D01*
X210677135Y-69845973D01*
X210678993Y-69836844D01*
X210710044Y-69592770D01*
X210710525Y-69586483D01*
X210712706Y-69503160D01*
X210712555Y-69496851D01*
X210694321Y-69251486D01*
X210692944Y-69242280D01*
X210638979Y-69003786D01*
X210636255Y-68994875D01*
X210547633Y-68766983D01*
X210543619Y-68758567D01*
X210422284Y-68546276D01*
X210417074Y-68538553D01*
X210385787Y-68498865D01*
X210373863Y-68490395D01*
X210362328Y-68496882D01*
X209372022Y-69487188D01*
X209364408Y-69501132D01*
X208634356Y-69501132D01*
X208635592Y-69498868D01*
X208635461Y-69497035D01*
X208631210Y-69490420D01*
X207636828Y-68496038D01*
X207623520Y-68488771D01*
X207613481Y-68495893D01*
X207608581Y-68501784D01*
X207603168Y-68509373D01*
X207476322Y-68718409D01*
X207472084Y-68726726D01*
X207377529Y-68952214D01*
X207374572Y-68961052D01*
X207314384Y-69198042D01*
X207312763Y-69207232D01*
X207288267Y-69450510D01*
X207288022Y-69459835D01*
X205214374Y-69459835D01*
X205219135Y-68124917D01*
X207989330Y-68124917D01*
X207993903Y-68134693D01*
X208987188Y-69127978D01*
X209001132Y-69135592D01*
X209002965Y-69135461D01*
X209009580Y-69131210D01*
X210002488Y-68138302D01*
X210008872Y-68126612D01*
X209999460Y-68114502D01*
X209873144Y-68026873D01*
X209865116Y-68022145D01*
X209645810Y-67913995D01*
X209637177Y-67910507D01*
X209404288Y-67835958D01*
X209395238Y-67833785D01*
X209153891Y-67794480D01*
X209144602Y-67793668D01*
X208900114Y-67790467D01*
X208890803Y-67791037D01*
X208648522Y-67824010D01*
X208639403Y-67825948D01*
X208404668Y-67894367D01*
X208395915Y-67897639D01*
X208173869Y-68000004D01*
X208165714Y-68004524D01*
X207998468Y-68114175D01*
X207989330Y-68124917D01*
X205219135Y-68124917D01*
X205231954Y-64530143D01*
X205218303Y-64530139D01*
X205218302Y-64530139D01*
X175085099Y-64521812D01*
X175066983Y-64521807D01*
X175066926Y-67177658D01*
X175066900Y-68415503D01*
X175046896Y-68483623D01*
X174993240Y-68530115D01*
X174940900Y-68541500D01*
X173255911Y-68541501D01*
X173249602Y-68541501D01*
X173143835Y-68552474D01*
X173137302Y-68554654D01*
X173137300Y-68554654D01*
X173005261Y-68598706D01*
X172976055Y-68608450D01*
X172825653Y-68701522D01*
X172820480Y-68706704D01*
X172725087Y-68802263D01*
X172662804Y-68836342D01*
X172635889Y-68839245D01*
X171382869Y-68838992D01*
X171314752Y-68818976D01*
X171268270Y-68765311D01*
X171256894Y-68712989D01*
X171256895Y-68697668D01*
X171256933Y-67167758D01*
X171257000Y-64538943D01*
X171257000Y-64520828D01*
X171243463Y-64520824D01*
X171243462Y-64520824D01*
X155964490Y-64516635D01*
X155896375Y-64496614D01*
X155849897Y-64442946D01*
X155839812Y-64372669D01*
X155869323Y-64308096D01*
X155875430Y-64301540D01*
X157922520Y-62254450D01*
X157928785Y-62248596D01*
X157966660Y-62215555D01*
X157972385Y-62210561D01*
X158009114Y-62158300D01*
X158013045Y-62153006D01*
X158017076Y-62147865D01*
X158035077Y-62124908D01*
X158092850Y-62083645D01*
X158163761Y-62080166D01*
X158223325Y-62113560D01*
X158420465Y-62310699D01*
X158604575Y-62494809D01*
X158718761Y-62588603D01*
X158893063Y-62682063D01*
X159001719Y-62715283D01*
X159076300Y-62738085D01*
X159076302Y-62738085D01*
X159082198Y-62739888D01*
X159101426Y-62741841D01*
X159272835Y-62759252D01*
X159272839Y-62759252D01*
X159278963Y-62759874D01*
X159475862Y-62741262D01*
X159481757Y-62739505D01*
X159481760Y-62739504D01*
X159659492Y-62686519D01*
X159659491Y-62686519D01*
X159665396Y-62684759D01*
X159840347Y-62592518D01*
X159900640Y-62543694D01*
X159974355Y-62484000D01*
X168758496Y-62484000D01*
X168759632Y-62494809D01*
X168774364Y-62634971D01*
X168778458Y-62673928D01*
X168837473Y-62855556D01*
X168840776Y-62861278D01*
X168840777Y-62861279D01*
X168864251Y-62901937D01*
X168932960Y-63020944D01*
X169060747Y-63162866D01*
X169159843Y-63234864D01*
X169196860Y-63261758D01*
X169215248Y-63275118D01*
X169221276Y-63277802D01*
X169221278Y-63277803D01*
X169383681Y-63350109D01*
X169389712Y-63352794D01*
X169483112Y-63372647D01*
X169570056Y-63391128D01*
X169570061Y-63391128D01*
X169576513Y-63392500D01*
X169767487Y-63392500D01*
X169773939Y-63391128D01*
X169773944Y-63391128D01*
X169860888Y-63372647D01*
X169954288Y-63352794D01*
X169960319Y-63350109D01*
X170122722Y-63277803D01*
X170122724Y-63277802D01*
X170128752Y-63275118D01*
X170147141Y-63261758D01*
X170165893Y-63248134D01*
X207291500Y-63248134D01*
X207298255Y-63310316D01*
X207349385Y-63446705D01*
X207436739Y-63563261D01*
X207553295Y-63650615D01*
X207689684Y-63701745D01*
X207751866Y-63708500D01*
X210248134Y-63708500D01*
X210310316Y-63701745D01*
X210446705Y-63650615D01*
X210563261Y-63563261D01*
X210650615Y-63446705D01*
X210701745Y-63310316D01*
X210708500Y-63248134D01*
X210708500Y-60751866D01*
X210701745Y-60689684D01*
X210650615Y-60553295D01*
X210563261Y-60436739D01*
X210446705Y-60349385D01*
X210310316Y-60298255D01*
X210248134Y-60291500D01*
X207751866Y-60291500D01*
X207689684Y-60298255D01*
X207553295Y-60349385D01*
X207436739Y-60436739D01*
X207349385Y-60553295D01*
X207298255Y-60689684D01*
X207291500Y-60751866D01*
X207291500Y-63248134D01*
X170165893Y-63248134D01*
X170184157Y-63234864D01*
X170283253Y-63162866D01*
X170411040Y-63020944D01*
X170479749Y-62901937D01*
X170503223Y-62861279D01*
X170503224Y-62861278D01*
X170506527Y-62855556D01*
X170565542Y-62673928D01*
X170569637Y-62634971D01*
X170584368Y-62494809D01*
X170585504Y-62484000D01*
X170565542Y-62294072D01*
X170506527Y-62112444D01*
X170411040Y-61947056D01*
X170406100Y-61941569D01*
X170287675Y-61810045D01*
X170287674Y-61810044D01*
X170283253Y-61805134D01*
X170148185Y-61707001D01*
X170134094Y-61696763D01*
X170134093Y-61696762D01*
X170128752Y-61692882D01*
X170122724Y-61690198D01*
X170122722Y-61690197D01*
X169960319Y-61617891D01*
X169960318Y-61617891D01*
X169954288Y-61615206D01*
X169860887Y-61595353D01*
X169773944Y-61576872D01*
X169773939Y-61576872D01*
X169767487Y-61575500D01*
X169576513Y-61575500D01*
X169570061Y-61576872D01*
X169570056Y-61576872D01*
X169483113Y-61595353D01*
X169389712Y-61615206D01*
X169383682Y-61617891D01*
X169383681Y-61617891D01*
X169221278Y-61690197D01*
X169221276Y-61690198D01*
X169215248Y-61692882D01*
X169209907Y-61696762D01*
X169209906Y-61696763D01*
X169195815Y-61707001D01*
X169060747Y-61805134D01*
X169056326Y-61810044D01*
X169056325Y-61810045D01*
X168937901Y-61941569D01*
X168932960Y-61947056D01*
X168837473Y-62112444D01*
X168778458Y-62294072D01*
X168758496Y-62484000D01*
X159974355Y-62484000D01*
X159989258Y-62471932D01*
X159989259Y-62471931D01*
X159994048Y-62468053D01*
X160063096Y-62385179D01*
X160116706Y-62320835D01*
X160116709Y-62320830D01*
X160120647Y-62316104D01*
X160155923Y-62251405D01*
X160212375Y-62147865D01*
X160215322Y-62142460D01*
X160274465Y-61953732D01*
X160275131Y-61947605D01*
X160295160Y-61763237D01*
X160295160Y-61763233D01*
X160295825Y-61757112D01*
X160278587Y-61560087D01*
X160223409Y-61370164D01*
X160132392Y-61194574D01*
X160101763Y-61156206D01*
X160037960Y-61076281D01*
X160037957Y-61076278D01*
X160035762Y-61073528D01*
X159589936Y-60627702D01*
X159555910Y-60565390D01*
X159553768Y-60524999D01*
X159554835Y-60515179D01*
X159550461Y-60465179D01*
X159550132Y-60460353D01*
X159550011Y-60457881D01*
X159550011Y-60454798D01*
X159547583Y-60430037D01*
X159545821Y-60412061D01*
X159545699Y-60410748D01*
X159538134Y-60324285D01*
X159537598Y-60318154D01*
X159536111Y-60313035D01*
X159535591Y-60307734D01*
X159508720Y-60218733D01*
X159508385Y-60217600D01*
X159484141Y-60134153D01*
X159484139Y-60134149D01*
X159482420Y-60128231D01*
X159479967Y-60123499D01*
X159478427Y-60118398D01*
X159434780Y-60036307D01*
X159434168Y-60035141D01*
X159394240Y-59958114D01*
X159391403Y-59952641D01*
X159388080Y-59948478D01*
X159385577Y-59943771D01*
X159326756Y-59871649D01*
X159326065Y-59870793D01*
X159294773Y-59831594D01*
X159292269Y-59829090D01*
X159291627Y-59828372D01*
X159287926Y-59824039D01*
X159260576Y-59790505D01*
X159225247Y-59761279D01*
X159216466Y-59753288D01*
X158654288Y-59191110D01*
X158645186Y-59180967D01*
X158625330Y-59156271D01*
X158621465Y-59151464D01*
X158583011Y-59119197D01*
X158579364Y-59116017D01*
X158577552Y-59114374D01*
X158575358Y-59112180D01*
X158542084Y-59084847D01*
X158541286Y-59084185D01*
X158469959Y-59024335D01*
X158465289Y-59021767D01*
X158461172Y-59018386D01*
X158379347Y-58974512D01*
X158378188Y-58973883D01*
X158302052Y-58932027D01*
X158302044Y-58932024D01*
X158296646Y-58929056D01*
X158291564Y-58927444D01*
X158286870Y-58924927D01*
X158197902Y-58897727D01*
X158196874Y-58897407D01*
X158108127Y-58869254D01*
X158102831Y-58868660D01*
X158097735Y-58867102D01*
X158005176Y-58857699D01*
X158004040Y-58857578D01*
X157970425Y-58853808D01*
X157957703Y-58852381D01*
X157957699Y-58852381D01*
X157954206Y-58851989D01*
X157950679Y-58851989D01*
X157949694Y-58851934D01*
X157944014Y-58851487D01*
X157914608Y-58848500D01*
X157907096Y-58847737D01*
X157907094Y-58847737D01*
X157900971Y-58847115D01*
X157858692Y-58851112D01*
X157855324Y-58851430D01*
X157843466Y-58851989D01*
X157810422Y-58851989D01*
X157742301Y-58831987D01*
X157695808Y-58778331D01*
X157685704Y-58708057D01*
X157715198Y-58643477D01*
X157721327Y-58636894D01*
X157864515Y-58493706D01*
X157926827Y-58459680D01*
X157979806Y-58459555D01*
X157996013Y-58463000D01*
X158186987Y-58463000D01*
X158193439Y-58461628D01*
X158193444Y-58461628D01*
X158280387Y-58443147D01*
X158373788Y-58423294D01*
X158379819Y-58420609D01*
X158542222Y-58348303D01*
X158542224Y-58348302D01*
X158548252Y-58345618D01*
X158567058Y-58331955D01*
X158628844Y-58287064D01*
X158695711Y-58263206D01*
X158702905Y-58263000D01*
X167067268Y-58263000D01*
X167075838Y-58263292D01*
X167125956Y-58266709D01*
X167125960Y-58266709D01*
X167133532Y-58267225D01*
X167141009Y-58265920D01*
X167141010Y-58265920D01*
X167167488Y-58261299D01*
X167196483Y-58256238D01*
X167203001Y-58255277D01*
X167266422Y-58247602D01*
X167273523Y-58244919D01*
X167276132Y-58244278D01*
X167292442Y-58239815D01*
X167294978Y-58239050D01*
X167302464Y-58237743D01*
X167360980Y-58212056D01*
X167367084Y-58209565D01*
X167419728Y-58189673D01*
X167419729Y-58189672D01*
X167426836Y-58186987D01*
X167433099Y-58182683D01*
X167435465Y-58181446D01*
X167450277Y-58173201D01*
X167452531Y-58171868D01*
X167459485Y-58168815D01*
X167510182Y-58129913D01*
X167515512Y-58126041D01*
X167561900Y-58094161D01*
X167561905Y-58094156D01*
X167568161Y-58089857D01*
X167609607Y-58043339D01*
X167614588Y-58038062D01*
X168107247Y-57545404D01*
X168169559Y-57511379D01*
X168196342Y-57508500D01*
X211308490Y-57508500D01*
X211376611Y-57528502D01*
X211397585Y-57545405D01*
X216575564Y-62723385D01*
X216609590Y-62785697D01*
X216612469Y-62812480D01*
X216612469Y-102329907D01*
X216612177Y-102338477D01*
X216608244Y-102396171D01*
X216609549Y-102403648D01*
X216609549Y-102403649D01*
X216619230Y-102459118D01*
X216620192Y-102465640D01*
X216627867Y-102529061D01*
X216630550Y-102536162D01*
X216631191Y-102538771D01*
X216635654Y-102555081D01*
X216636419Y-102557617D01*
X216637726Y-102565103D01*
X216640780Y-102572060D01*
X216663411Y-102623614D01*
X216665902Y-102629718D01*
X216688482Y-102689475D01*
X216692786Y-102695738D01*
X216694023Y-102698104D01*
X216702268Y-102712916D01*
X216703602Y-102715171D01*
X216706654Y-102722124D01*
X216711273Y-102728143D01*
X216711278Y-102728152D01*
X216736430Y-102760929D01*
X216762032Y-102827149D01*
X216762469Y-102837634D01*
X216762469Y-106712057D01*
X216762177Y-106720627D01*
X216760349Y-106747447D01*
X216758244Y-106778321D01*
X216759549Y-106785798D01*
X216759549Y-106785799D01*
X216769230Y-106841268D01*
X216770192Y-106847790D01*
X216777867Y-106911211D01*
X216780550Y-106918312D01*
X216781191Y-106920921D01*
X216785654Y-106937231D01*
X216786419Y-106939767D01*
X216787726Y-106947253D01*
X216790780Y-106954210D01*
X216813411Y-107005764D01*
X216815902Y-107011868D01*
X216838482Y-107071625D01*
X216842786Y-107077888D01*
X216844023Y-107080254D01*
X216852268Y-107095066D01*
X216853601Y-107097320D01*
X216856654Y-107104274D01*
X216893617Y-107152443D01*
X216895548Y-107154960D01*
X216899428Y-107160301D01*
X216931308Y-107206689D01*
X216931313Y-107206694D01*
X216935612Y-107212950D01*
X216941282Y-107218001D01*
X216941283Y-107218003D01*
X216982139Y-107254404D01*
X216987415Y-107259385D01*
X217882414Y-108154384D01*
X217916440Y-108216696D01*
X217909517Y-108292202D01*
X217900148Y-108314545D01*
X217833981Y-108575077D01*
X217807050Y-108842526D01*
X217819947Y-109111019D01*
X217872388Y-109374656D01*
X217963220Y-109627646D01*
X218090450Y-109864431D01*
X218093241Y-109868168D01*
X218093245Y-109868175D01*
X218174887Y-109977506D01*
X218251281Y-110079810D01*
X218254590Y-110083090D01*
X218254595Y-110083096D01*
X218438863Y-110265762D01*
X218442180Y-110269050D01*
X218445942Y-110271808D01*
X218445945Y-110271811D01*
X218558299Y-110354192D01*
X218658954Y-110427995D01*
X218663089Y-110430171D01*
X218663093Y-110430173D01*
X218811340Y-110508170D01*
X218896840Y-110553154D01*
X219150613Y-110641775D01*
X219155206Y-110642647D01*
X219410109Y-110691042D01*
X219410112Y-110691042D01*
X219414698Y-110691913D01*
X219542370Y-110696929D01*
X219678625Y-110702283D01*
X219678630Y-110702283D01*
X219683293Y-110702466D01*
X219787607Y-110691042D01*
X219945844Y-110673713D01*
X219945850Y-110673712D01*
X219950497Y-110673203D01*
X219955021Y-110672012D01*
X220205918Y-110605956D01*
X220205920Y-110605955D01*
X220210441Y-110604765D01*
X220214738Y-110602919D01*
X220453120Y-110500502D01*
X220453122Y-110500501D01*
X220457414Y-110498657D01*
X220611012Y-110403608D01*
X220682017Y-110359669D01*
X220682021Y-110359666D01*
X220685990Y-110357210D01*
X220891149Y-110183530D01*
X221068382Y-109981434D01*
X221213797Y-109755361D01*
X221324199Y-109510278D01*
X221361209Y-109379051D01*
X221395893Y-109256072D01*
X221395894Y-109256069D01*
X221397163Y-109251568D01*
X221415043Y-109111019D01*
X221430688Y-108988045D01*
X221430688Y-108988041D01*
X221431086Y-108984915D01*
X221433571Y-108890000D01*
X221413650Y-108621937D01*
X221354327Y-108359763D01*
X221256902Y-108109238D01*
X221123518Y-107875864D01*
X220957105Y-107664769D01*
X220761317Y-107480591D01*
X220540457Y-107327374D01*
X220536264Y-107325306D01*
X220303564Y-107210551D01*
X220303561Y-107210550D01*
X220299376Y-107208486D01*
X220293763Y-107206689D01*
X220124297Y-107152443D01*
X220043370Y-107126538D01*
X220038763Y-107125788D01*
X220038760Y-107125787D01*
X219782674Y-107084081D01*
X219782675Y-107084081D01*
X219778063Y-107083330D01*
X219647719Y-107081624D01*
X219513961Y-107079873D01*
X219513958Y-107079873D01*
X219509284Y-107079812D01*
X219242937Y-107116060D01*
X219238451Y-107117368D01*
X219238449Y-107117368D01*
X219008766Y-107184314D01*
X218937770Y-107184173D01*
X218884413Y-107152443D01*
X218216374Y-106484404D01*
X218182348Y-106422092D01*
X218179469Y-106395309D01*
X218179469Y-105230945D01*
X218199471Y-105162824D01*
X218253127Y-105116331D01*
X218323401Y-105106227D01*
X218387981Y-105135721D01*
X218394172Y-105141459D01*
X218442180Y-105189050D01*
X218445942Y-105191808D01*
X218445945Y-105191811D01*
X218558299Y-105274192D01*
X218658954Y-105347995D01*
X218663089Y-105350171D01*
X218663093Y-105350173D01*
X218811340Y-105428170D01*
X218896840Y-105473154D01*
X219150613Y-105561775D01*
X219155206Y-105562647D01*
X219410109Y-105611042D01*
X219410112Y-105611042D01*
X219414698Y-105611913D01*
X219542370Y-105616929D01*
X219678625Y-105622283D01*
X219678630Y-105622283D01*
X219683293Y-105622466D01*
X219787607Y-105611042D01*
X219945844Y-105593713D01*
X219945850Y-105593712D01*
X219950497Y-105593203D01*
X219955021Y-105592012D01*
X220205918Y-105525956D01*
X220205920Y-105525955D01*
X220210441Y-105524765D01*
X220214738Y-105522919D01*
X220453120Y-105420502D01*
X220453122Y-105420501D01*
X220457414Y-105418657D01*
X220611012Y-105323608D01*
X220682017Y-105279669D01*
X220682021Y-105279666D01*
X220685990Y-105277210D01*
X220891149Y-105103530D01*
X221068382Y-104901434D01*
X221213797Y-104675361D01*
X221324199Y-104430278D01*
X221361209Y-104299051D01*
X221395893Y-104176072D01*
X221395894Y-104176069D01*
X221397163Y-104171568D01*
X221415043Y-104031019D01*
X221430688Y-103908045D01*
X221430688Y-103908041D01*
X221431086Y-103904915D01*
X221433571Y-103810000D01*
X221413650Y-103541937D01*
X221412619Y-103537379D01*
X221355361Y-103284331D01*
X221355360Y-103284326D01*
X221354327Y-103279763D01*
X221256902Y-103029238D01*
X221123518Y-102795864D01*
X221107410Y-102775430D01*
X221007128Y-102648223D01*
X220957105Y-102584769D01*
X220761317Y-102400591D01*
X220540457Y-102247374D01*
X220536264Y-102245306D01*
X220303564Y-102130551D01*
X220303561Y-102130550D01*
X220299376Y-102128486D01*
X220251745Y-102113239D01*
X220124297Y-102072443D01*
X220043370Y-102046538D01*
X220038763Y-102045788D01*
X220038760Y-102045787D01*
X219782674Y-102004081D01*
X219782675Y-102004081D01*
X219778063Y-102003330D01*
X219647719Y-102001624D01*
X219513961Y-101999873D01*
X219513958Y-101999873D01*
X219509284Y-101999812D01*
X219242937Y-102036060D01*
X219238451Y-102037368D01*
X219238449Y-102037368D01*
X219008766Y-102104314D01*
X218937770Y-102104173D01*
X218884413Y-102072443D01*
X218715894Y-101903924D01*
X218681868Y-101841612D01*
X218678989Y-101814829D01*
X218678989Y-100486638D01*
X218698991Y-100418517D01*
X218752647Y-100372024D01*
X218822921Y-100361920D01*
X218863656Y-100375129D01*
X218892901Y-100390515D01*
X218901464Y-100394239D01*
X219146327Y-100479749D01*
X219155336Y-100482163D01*
X219410166Y-100530544D01*
X219419423Y-100531598D01*
X219678607Y-100541783D01*
X219687921Y-100541457D01*
X219945753Y-100513220D01*
X219954930Y-100511519D01*
X220205758Y-100445481D01*
X220214574Y-100442445D01*
X220452880Y-100340062D01*
X220461167Y-100335748D01*
X220681718Y-100199266D01*
X220689268Y-100193780D01*
X220694559Y-100189301D01*
X220702997Y-100176497D01*
X220696935Y-100166145D01*
X219349885Y-98819095D01*
X219315859Y-98756783D01*
X219317694Y-98731132D01*
X219984408Y-98731132D01*
X219984539Y-98732965D01*
X219988790Y-98739580D01*
X221056094Y-99806884D01*
X221068474Y-99813644D01*
X221076815Y-99807400D01*
X221210832Y-99599048D01*
X221215275Y-99590864D01*
X221321807Y-99354370D01*
X221324997Y-99345605D01*
X221395402Y-99095972D01*
X221397262Y-99086830D01*
X221430187Y-98828019D01*
X221430668Y-98821733D01*
X221432987Y-98733160D01*
X221432836Y-98726851D01*
X221429890Y-98687211D01*
X222887775Y-98687211D01*
X222900220Y-98946288D01*
X222901356Y-98955543D01*
X222951961Y-99209945D01*
X222954449Y-99218917D01*
X223042095Y-99463033D01*
X223045895Y-99471568D01*
X223168658Y-99700042D01*
X223173666Y-99707904D01*
X223243720Y-99801716D01*
X223254979Y-99810165D01*
X223267397Y-99803393D01*
X224327978Y-98742812D01*
X224335592Y-98728868D01*
X224335461Y-98727035D01*
X224331210Y-98720420D01*
X223265816Y-97655026D01*
X223252507Y-97647758D01*
X223242472Y-97654878D01*
X223226937Y-97673556D01*
X223221531Y-97681135D01*
X223086965Y-97902891D01*
X223082736Y-97911192D01*
X222982432Y-98150389D01*
X222979471Y-98159239D01*
X222915628Y-98410625D01*
X222914006Y-98419822D01*
X222888020Y-98677885D01*
X222887775Y-98687211D01*
X221429890Y-98687211D01*
X221413501Y-98466663D01*
X221412125Y-98457457D01*
X221354878Y-98204467D01*
X221352154Y-98195556D01*
X221258143Y-97953806D01*
X221254132Y-97945397D01*
X221125422Y-97720202D01*
X221120211Y-97712476D01*
X221076996Y-97657658D01*
X221065071Y-97649187D01*
X221053537Y-97655673D01*
X219992022Y-98717188D01*
X219984408Y-98731132D01*
X219317694Y-98731132D01*
X219320924Y-98685968D01*
X219349885Y-98640905D01*
X220694349Y-97296441D01*
X220700733Y-97284751D01*
X220691321Y-97272641D01*
X220544045Y-97170471D01*
X220536010Y-97165738D01*
X220303376Y-97051016D01*
X220294743Y-97047528D01*
X220047703Y-96968450D01*
X220038643Y-96966274D01*
X219782630Y-96924580D01*
X219773343Y-96923768D01*
X219513992Y-96920373D01*
X219504681Y-96920943D01*
X219247682Y-96955919D01*
X219238546Y-96957860D01*
X218989543Y-97030439D01*
X218980800Y-97033707D01*
X218807740Y-97113488D01*
X218737502Y-97123843D01*
X218672817Y-97094580D01*
X218634220Y-97034991D01*
X218628989Y-96999062D01*
X218628989Y-95380897D01*
X218648991Y-95312776D01*
X218702647Y-95266283D01*
X218772921Y-95256179D01*
X218813657Y-95269389D01*
X218896840Y-95313154D01*
X219150613Y-95401775D01*
X219155206Y-95402647D01*
X219410109Y-95451042D01*
X219410112Y-95451042D01*
X219414698Y-95451913D01*
X219542370Y-95456929D01*
X219678625Y-95462283D01*
X219678630Y-95462283D01*
X219683293Y-95462466D01*
X219787607Y-95451042D01*
X219945844Y-95433713D01*
X219945850Y-95433712D01*
X219950497Y-95433203D01*
X219955021Y-95432012D01*
X220205918Y-95365956D01*
X220205920Y-95365955D01*
X220210441Y-95364765D01*
X220214738Y-95362919D01*
X220453120Y-95260502D01*
X220453122Y-95260501D01*
X220457414Y-95258657D01*
X220576071Y-95185230D01*
X220682017Y-95119669D01*
X220682021Y-95119666D01*
X220685990Y-95117210D01*
X220891149Y-94943530D01*
X221068382Y-94741434D01*
X221213797Y-94515361D01*
X221324199Y-94270278D01*
X221361209Y-94139051D01*
X221395893Y-94016072D01*
X221395894Y-94016069D01*
X221397163Y-94011568D01*
X221415043Y-93871019D01*
X221430688Y-93748045D01*
X221430688Y-93748041D01*
X221431086Y-93744915D01*
X221433571Y-93650000D01*
X221413650Y-93381937D01*
X221384374Y-93252553D01*
X221355361Y-93124331D01*
X221355360Y-93124326D01*
X221354327Y-93119763D01*
X221256902Y-92869238D01*
X221123518Y-92635864D01*
X220957105Y-92424769D01*
X220761317Y-92240591D01*
X220540457Y-92087374D01*
X220536264Y-92085306D01*
X220303564Y-91970551D01*
X220303561Y-91970550D01*
X220299376Y-91968486D01*
X220255503Y-91954442D01*
X220143257Y-91918512D01*
X220043370Y-91886538D01*
X220038763Y-91885788D01*
X220038760Y-91885787D01*
X219782674Y-91844081D01*
X219782675Y-91844081D01*
X219778063Y-91843330D01*
X219647719Y-91841624D01*
X219513961Y-91839873D01*
X219513958Y-91839873D01*
X219509284Y-91839812D01*
X219242937Y-91876060D01*
X218984874Y-91951278D01*
X218980621Y-91953238D01*
X218980620Y-91953239D01*
X218807740Y-92032938D01*
X218737503Y-92043293D01*
X218672817Y-92014030D01*
X218634220Y-91954442D01*
X218628989Y-91918512D01*
X218628989Y-90300333D01*
X218648991Y-90232212D01*
X218702647Y-90185719D01*
X218772921Y-90175615D01*
X218813656Y-90188824D01*
X218892905Y-90230519D01*
X218901454Y-90234236D01*
X219146327Y-90319749D01*
X219155336Y-90322163D01*
X219410166Y-90370544D01*
X219419423Y-90371598D01*
X219678607Y-90381783D01*
X219687921Y-90381457D01*
X219945753Y-90353220D01*
X219954930Y-90351519D01*
X220205758Y-90285481D01*
X220214574Y-90282445D01*
X220452880Y-90180062D01*
X220461167Y-90175748D01*
X220681718Y-90039266D01*
X220689268Y-90033780D01*
X220694559Y-90029301D01*
X220702997Y-90016497D01*
X220696935Y-90006145D01*
X219349885Y-88659095D01*
X219315859Y-88596783D01*
X219317694Y-88571132D01*
X219984408Y-88571132D01*
X219984539Y-88572965D01*
X219988790Y-88579580D01*
X221056094Y-89646884D01*
X221068474Y-89653644D01*
X221076815Y-89647400D01*
X221210832Y-89439048D01*
X221215275Y-89430864D01*
X221321807Y-89194370D01*
X221324997Y-89185605D01*
X221395402Y-88935972D01*
X221397262Y-88926830D01*
X221430187Y-88668019D01*
X221430668Y-88661733D01*
X221432987Y-88573160D01*
X221432836Y-88566851D01*
X221429890Y-88527211D01*
X222887775Y-88527211D01*
X222900220Y-88786288D01*
X222901356Y-88795543D01*
X222951961Y-89049945D01*
X222954449Y-89058917D01*
X223042095Y-89303033D01*
X223045895Y-89311568D01*
X223168658Y-89540042D01*
X223173666Y-89547904D01*
X223243720Y-89641716D01*
X223254979Y-89650165D01*
X223267397Y-89643393D01*
X224327978Y-88582812D01*
X224335592Y-88568868D01*
X224335461Y-88567035D01*
X224331210Y-88560420D01*
X223265816Y-87495026D01*
X223252507Y-87487758D01*
X223242472Y-87494878D01*
X223226937Y-87513556D01*
X223221531Y-87521135D01*
X223086965Y-87742891D01*
X223082736Y-87751192D01*
X222982432Y-87990389D01*
X222979471Y-87999239D01*
X222915628Y-88250625D01*
X222914006Y-88259822D01*
X222888020Y-88517885D01*
X222887775Y-88527211D01*
X221429890Y-88527211D01*
X221413501Y-88306663D01*
X221412125Y-88297457D01*
X221354878Y-88044467D01*
X221352154Y-88035556D01*
X221258143Y-87793806D01*
X221254132Y-87785397D01*
X221125422Y-87560202D01*
X221120211Y-87552476D01*
X221076996Y-87497658D01*
X221065071Y-87489187D01*
X221053537Y-87495673D01*
X219992022Y-88557188D01*
X219984408Y-88571132D01*
X219317694Y-88571132D01*
X219320924Y-88525968D01*
X219349885Y-88480905D01*
X220694349Y-87136441D01*
X220700733Y-87124751D01*
X220691321Y-87112641D01*
X220544045Y-87010471D01*
X220536010Y-87005738D01*
X220303376Y-86891016D01*
X220294743Y-86887528D01*
X220047703Y-86808450D01*
X220038643Y-86806274D01*
X219782630Y-86764580D01*
X219773343Y-86763768D01*
X219513992Y-86760373D01*
X219504681Y-86760943D01*
X219247682Y-86795919D01*
X219238546Y-86797860D01*
X218989543Y-86870439D01*
X218980800Y-86873707D01*
X218807740Y-86953488D01*
X218737502Y-86963843D01*
X218672817Y-86934580D01*
X218634220Y-86874991D01*
X218628989Y-86839062D01*
X218628989Y-85220897D01*
X218648991Y-85152776D01*
X218702647Y-85106283D01*
X218772921Y-85096179D01*
X218813657Y-85109389D01*
X218896840Y-85153154D01*
X219150613Y-85241775D01*
X219155206Y-85242647D01*
X219410109Y-85291042D01*
X219410112Y-85291042D01*
X219414698Y-85291913D01*
X219542370Y-85296929D01*
X219678625Y-85302283D01*
X219678630Y-85302283D01*
X219683293Y-85302466D01*
X219787607Y-85291042D01*
X219945844Y-85273713D01*
X219945850Y-85273712D01*
X219950497Y-85273203D01*
X219955021Y-85272012D01*
X220205918Y-85205956D01*
X220205920Y-85205955D01*
X220210441Y-85204765D01*
X220214738Y-85202919D01*
X220453120Y-85100502D01*
X220453122Y-85100501D01*
X220457414Y-85098657D01*
X220576071Y-85025230D01*
X220682017Y-84959669D01*
X220682021Y-84959666D01*
X220685990Y-84957210D01*
X220891149Y-84783530D01*
X221068382Y-84581434D01*
X221108903Y-84518438D01*
X221211269Y-84359291D01*
X221213797Y-84355361D01*
X221324199Y-84110278D01*
X221361209Y-83979051D01*
X221395893Y-83856072D01*
X221395894Y-83856069D01*
X221397163Y-83851568D01*
X221415043Y-83711019D01*
X221430688Y-83588045D01*
X221430688Y-83588041D01*
X221431086Y-83584915D01*
X221433571Y-83490000D01*
X221413650Y-83221937D01*
X221402020Y-83170538D01*
X221355361Y-82964331D01*
X221355360Y-82964326D01*
X221354327Y-82959763D01*
X221256902Y-82709238D01*
X221123518Y-82475864D01*
X220957105Y-82264769D01*
X220761317Y-82080591D01*
X220540457Y-81927374D01*
X220536264Y-81925306D01*
X220303564Y-81810551D01*
X220303561Y-81810550D01*
X220299376Y-81808486D01*
X220255503Y-81794442D01*
X220143257Y-81758512D01*
X220043370Y-81726538D01*
X220038763Y-81725788D01*
X220038760Y-81725787D01*
X219782674Y-81684081D01*
X219782675Y-81684081D01*
X219778063Y-81683330D01*
X219647719Y-81681624D01*
X219513961Y-81679873D01*
X219513958Y-81679873D01*
X219509284Y-81679812D01*
X219242937Y-81716060D01*
X218984874Y-81791278D01*
X218980621Y-81793238D01*
X218980620Y-81793239D01*
X218807740Y-81872938D01*
X218737503Y-81883293D01*
X218672817Y-81854030D01*
X218634220Y-81794442D01*
X218628989Y-81758512D01*
X218628989Y-80140897D01*
X218648991Y-80072776D01*
X218702647Y-80026283D01*
X218772921Y-80016179D01*
X218813657Y-80029389D01*
X218896840Y-80073154D01*
X219150613Y-80161775D01*
X219155206Y-80162647D01*
X219410109Y-80211042D01*
X219410112Y-80211042D01*
X219414698Y-80211913D01*
X219542370Y-80216929D01*
X219678625Y-80222283D01*
X219678630Y-80222283D01*
X219683293Y-80222466D01*
X219787607Y-80211042D01*
X219945844Y-80193713D01*
X219945850Y-80193712D01*
X219950497Y-80193203D01*
X219987496Y-80183462D01*
X220205918Y-80125956D01*
X220205920Y-80125955D01*
X220210441Y-80124765D01*
X220214738Y-80122919D01*
X220453120Y-80020502D01*
X220453122Y-80020501D01*
X220457414Y-80018657D01*
X220576071Y-79945230D01*
X220682017Y-79879669D01*
X220682021Y-79879666D01*
X220685990Y-79877210D01*
X220891149Y-79703530D01*
X221068382Y-79501434D01*
X221123614Y-79415567D01*
X221211269Y-79279291D01*
X221213797Y-79275361D01*
X221324199Y-79030278D01*
X221361209Y-78899051D01*
X221395893Y-78776072D01*
X221395894Y-78776069D01*
X221397163Y-78771568D01*
X221415043Y-78631019D01*
X221430688Y-78508045D01*
X221430688Y-78508041D01*
X221431086Y-78504915D01*
X221433571Y-78410000D01*
X221413650Y-78141937D01*
X221354327Y-77879763D01*
X221256902Y-77629238D01*
X221123518Y-77395864D01*
X220957105Y-77184769D01*
X220761317Y-77000591D01*
X220540457Y-76847374D01*
X220536264Y-76845306D01*
X220303564Y-76730551D01*
X220303561Y-76730550D01*
X220299376Y-76728486D01*
X220255503Y-76714442D01*
X220143257Y-76678512D01*
X220043370Y-76646538D01*
X220038763Y-76645788D01*
X220038760Y-76645787D01*
X219782674Y-76604081D01*
X219782675Y-76604081D01*
X219778063Y-76603330D01*
X219647719Y-76601624D01*
X219513961Y-76599873D01*
X219513958Y-76599873D01*
X219509284Y-76599812D01*
X219242937Y-76636060D01*
X218984874Y-76711278D01*
X218980621Y-76713238D01*
X218980620Y-76713239D01*
X218807740Y-76792938D01*
X218737503Y-76803293D01*
X218672817Y-76774030D01*
X218634220Y-76714442D01*
X218628989Y-76678512D01*
X218628989Y-75060897D01*
X218648991Y-74992776D01*
X218702647Y-74946283D01*
X218772921Y-74936179D01*
X218813657Y-74949389D01*
X218896840Y-74993154D01*
X219150613Y-75081775D01*
X219155206Y-75082647D01*
X219410109Y-75131042D01*
X219410112Y-75131042D01*
X219414698Y-75131913D01*
X219542370Y-75136929D01*
X219678625Y-75142283D01*
X219678630Y-75142283D01*
X219683293Y-75142466D01*
X219787607Y-75131042D01*
X219945844Y-75113713D01*
X219945850Y-75113712D01*
X219950497Y-75113203D01*
X219955021Y-75112012D01*
X220205918Y-75045956D01*
X220205920Y-75045955D01*
X220210441Y-75044765D01*
X220214738Y-75042919D01*
X220453120Y-74940502D01*
X220453122Y-74940501D01*
X220457414Y-74938657D01*
X220576071Y-74865230D01*
X220682017Y-74799669D01*
X220682021Y-74799666D01*
X220685990Y-74797210D01*
X220891149Y-74623530D01*
X221068382Y-74421434D01*
X221213797Y-74195361D01*
X221324199Y-73950278D01*
X221361209Y-73819051D01*
X221395893Y-73696072D01*
X221395894Y-73696069D01*
X221397163Y-73691568D01*
X221415043Y-73551019D01*
X221430688Y-73428045D01*
X221430688Y-73428041D01*
X221431086Y-73424915D01*
X221433571Y-73330000D01*
X221413650Y-73061937D01*
X221412619Y-73057379D01*
X221355361Y-72804331D01*
X221355360Y-72804326D01*
X221354327Y-72799763D01*
X221256902Y-72549238D01*
X221123518Y-72315864D01*
X220957105Y-72104769D01*
X220761317Y-71920591D01*
X220540457Y-71767374D01*
X220536264Y-71765306D01*
X220303564Y-71650551D01*
X220303561Y-71650550D01*
X220299376Y-71648486D01*
X220255503Y-71634442D01*
X220143257Y-71598512D01*
X220043370Y-71566538D01*
X220038763Y-71565788D01*
X220038760Y-71565787D01*
X219782674Y-71524081D01*
X219782675Y-71524081D01*
X219778063Y-71523330D01*
X219647719Y-71521624D01*
X219513961Y-71519873D01*
X219513958Y-71519873D01*
X219509284Y-71519812D01*
X219242937Y-71556060D01*
X218984874Y-71631278D01*
X218980621Y-71633238D01*
X218980620Y-71633239D01*
X218807740Y-71712938D01*
X218737503Y-71723293D01*
X218672817Y-71694030D01*
X218634220Y-71634442D01*
X218628989Y-71598512D01*
X218628989Y-69980333D01*
X218648991Y-69912212D01*
X218702647Y-69865719D01*
X218772921Y-69855615D01*
X218813656Y-69868824D01*
X218892905Y-69910519D01*
X218901454Y-69914236D01*
X219146327Y-69999749D01*
X219155336Y-70002163D01*
X219410166Y-70050544D01*
X219419423Y-70051598D01*
X219678607Y-70061783D01*
X219687921Y-70061457D01*
X219945753Y-70033220D01*
X219954930Y-70031519D01*
X220205758Y-69965481D01*
X220214574Y-69962445D01*
X220452880Y-69860062D01*
X220461167Y-69855748D01*
X220681718Y-69719266D01*
X220689268Y-69713780D01*
X220694559Y-69709301D01*
X220702997Y-69696497D01*
X220696935Y-69686145D01*
X219349885Y-68339095D01*
X219315859Y-68276783D01*
X219317694Y-68251132D01*
X219984408Y-68251132D01*
X219984539Y-68252965D01*
X219988790Y-68259580D01*
X221056094Y-69326884D01*
X221068474Y-69333644D01*
X221076815Y-69327400D01*
X221210832Y-69119048D01*
X221215275Y-69110864D01*
X221321807Y-68874370D01*
X221324997Y-68865605D01*
X221395402Y-68615972D01*
X221397262Y-68606830D01*
X221430187Y-68348019D01*
X221430668Y-68341733D01*
X221432987Y-68253160D01*
X221432836Y-68246851D01*
X221429890Y-68207211D01*
X222887775Y-68207211D01*
X222900220Y-68466288D01*
X222901356Y-68475543D01*
X222951961Y-68729945D01*
X222954449Y-68738917D01*
X223042095Y-68983033D01*
X223045895Y-68991568D01*
X223168658Y-69220042D01*
X223173666Y-69227904D01*
X223243720Y-69321716D01*
X223254979Y-69330165D01*
X223267397Y-69323393D01*
X224327978Y-68262812D01*
X224335592Y-68248868D01*
X224335461Y-68247035D01*
X224331210Y-68240420D01*
X223265816Y-67175026D01*
X223252507Y-67167758D01*
X223242472Y-67174878D01*
X223226937Y-67193556D01*
X223221531Y-67201135D01*
X223086965Y-67422891D01*
X223082736Y-67431192D01*
X222982432Y-67670389D01*
X222979471Y-67679239D01*
X222915628Y-67930625D01*
X222914006Y-67939822D01*
X222888020Y-68197885D01*
X222887775Y-68207211D01*
X221429890Y-68207211D01*
X221413501Y-67986663D01*
X221412125Y-67977457D01*
X221354878Y-67724467D01*
X221352154Y-67715556D01*
X221258143Y-67473806D01*
X221254132Y-67465397D01*
X221125422Y-67240202D01*
X221120211Y-67232476D01*
X221076996Y-67177658D01*
X221065071Y-67169187D01*
X221053537Y-67175673D01*
X219992022Y-68237188D01*
X219984408Y-68251132D01*
X219317694Y-68251132D01*
X219320924Y-68205968D01*
X219349885Y-68160905D01*
X220694349Y-66816441D01*
X220700733Y-66804751D01*
X220691321Y-66792641D01*
X220544045Y-66690471D01*
X220536010Y-66685738D01*
X220303376Y-66571016D01*
X220294743Y-66567528D01*
X220047703Y-66488450D01*
X220038643Y-66486274D01*
X219782630Y-66444580D01*
X219773343Y-66443768D01*
X219513992Y-66440373D01*
X219504681Y-66440943D01*
X219247682Y-66475919D01*
X219238546Y-66477860D01*
X218989543Y-66550439D01*
X218980800Y-66553707D01*
X218807740Y-66633488D01*
X218737502Y-66643843D01*
X218672817Y-66614580D01*
X218634220Y-66554991D01*
X218628989Y-66519062D01*
X218628989Y-64900897D01*
X218648991Y-64832776D01*
X218702647Y-64786283D01*
X218772921Y-64776179D01*
X218813657Y-64789389D01*
X218870518Y-64819305D01*
X218896840Y-64833154D01*
X219023828Y-64877500D01*
X219129549Y-64914419D01*
X219150613Y-64921775D01*
X219155206Y-64922647D01*
X219410109Y-64971042D01*
X219410112Y-64971042D01*
X219414698Y-64971913D01*
X219542370Y-64976929D01*
X219678625Y-64982283D01*
X219678630Y-64982283D01*
X219683293Y-64982466D01*
X219810837Y-64968498D01*
X219945844Y-64953713D01*
X219945850Y-64953712D01*
X219950497Y-64953203D01*
X219955021Y-64952012D01*
X220205918Y-64885956D01*
X220205920Y-64885955D01*
X220210441Y-64884765D01*
X220227351Y-64877500D01*
X220453120Y-64780502D01*
X220453122Y-64780501D01*
X220457414Y-64778657D01*
X220571603Y-64707995D01*
X220682017Y-64639669D01*
X220682021Y-64639666D01*
X220685990Y-64637210D01*
X220891149Y-64463530D01*
X221068382Y-64261434D01*
X221213797Y-64035361D01*
X221324199Y-63790278D01*
X221397163Y-63531568D01*
X221414855Y-63392500D01*
X221430688Y-63268045D01*
X221430688Y-63268041D01*
X221431086Y-63264915D01*
X221431437Y-63251531D01*
X221433488Y-63173160D01*
X221433571Y-63170000D01*
X221413650Y-62901937D01*
X221412619Y-62897379D01*
X221355361Y-62644331D01*
X221355360Y-62644326D01*
X221354327Y-62639763D01*
X221256902Y-62389238D01*
X221123518Y-62155864D01*
X221117213Y-62147865D01*
X220981934Y-61976265D01*
X220957105Y-61944769D01*
X220761317Y-61760591D01*
X220540457Y-61607374D01*
X220536264Y-61605306D01*
X220303564Y-61490551D01*
X220303561Y-61490550D01*
X220299376Y-61488486D01*
X220251745Y-61473239D01*
X220111823Y-61428450D01*
X220043370Y-61406538D01*
X220038763Y-61405788D01*
X220038760Y-61405787D01*
X219820025Y-61370164D01*
X219778063Y-61363330D01*
X219647719Y-61361624D01*
X219513961Y-61359873D01*
X219513958Y-61359873D01*
X219509284Y-61359812D01*
X219242937Y-61396060D01*
X218984874Y-61471278D01*
X218740763Y-61583815D01*
X218552872Y-61707002D01*
X218484939Y-61727624D01*
X218416638Y-61708244D01*
X218394694Y-61690724D01*
X211938939Y-55234969D01*
X211933085Y-55228704D01*
X211931301Y-55226659D01*
X211895050Y-55185104D01*
X211842769Y-55148360D01*
X211837475Y-55144428D01*
X211793182Y-55109698D01*
X211787207Y-55105013D01*
X211780291Y-55101890D01*
X211778005Y-55100506D01*
X211763324Y-55092132D01*
X211760964Y-55090867D01*
X211754750Y-55086499D01*
X211747671Y-55083739D01*
X211747669Y-55083738D01*
X211695214Y-55063287D01*
X211689145Y-55060736D01*
X211630916Y-55034444D01*
X211623449Y-55033060D01*
X211620894Y-55032259D01*
X211604641Y-55027630D01*
X211602061Y-55026967D01*
X211594980Y-55024207D01*
X211587449Y-55023216D01*
X211587447Y-55023215D01*
X211557828Y-55019316D01*
X211531628Y-55015867D01*
X211525130Y-55014837D01*
X211462303Y-55003193D01*
X211454723Y-55003630D01*
X211454722Y-55003630D01*
X211400097Y-55006780D01*
X211392843Y-55006989D01*
X153355423Y-55006989D01*
X153346853Y-55006697D01*
X153296735Y-55003280D01*
X153296731Y-55003280D01*
X153289159Y-55002764D01*
X153281682Y-55004069D01*
X153281681Y-55004069D01*
X153264951Y-55006989D01*
X153226214Y-55013750D01*
X153219697Y-55014711D01*
X153156269Y-55022387D01*
X153149161Y-55025073D01*
X153146567Y-55025710D01*
X153130261Y-55030171D01*
X153127710Y-55030941D01*
X153120227Y-55032247D01*
X153113275Y-55035299D01*
X153113274Y-55035299D01*
X153061723Y-55057928D01*
X153055616Y-55060420D01*
X153048029Y-55063287D01*
X152995855Y-55083002D01*
X152989594Y-55087305D01*
X152987228Y-55088542D01*
X152972448Y-55096769D01*
X152970163Y-55098120D01*
X152963206Y-55101174D01*
X152957186Y-55105794D01*
X152957180Y-55105797D01*
X152926053Y-55129683D01*
X152912509Y-55140076D01*
X152907179Y-55143948D01*
X152860791Y-55175828D01*
X152860786Y-55175833D01*
X152854530Y-55180132D01*
X152849479Y-55185802D01*
X152849477Y-55185803D01*
X152813076Y-55226659D01*
X152808095Y-55231935D01*
X151317467Y-56722563D01*
X151254569Y-56756715D01*
X151101712Y-56789206D01*
X151095682Y-56791891D01*
X151095681Y-56791891D01*
X150933278Y-56864197D01*
X150933276Y-56864198D01*
X150927248Y-56866882D01*
X150921907Y-56870762D01*
X150921906Y-56870763D01*
X150871843Y-56907136D01*
X150772747Y-56979134D01*
X150768326Y-56984044D01*
X150768325Y-56984045D01*
X150731617Y-57024814D01*
X150644960Y-57121056D01*
X150549473Y-57286444D01*
X150490458Y-57468072D01*
X150489768Y-57474633D01*
X150489768Y-57474635D01*
X150482330Y-57545404D01*
X150470496Y-57658000D01*
X150490458Y-57847928D01*
X150549473Y-58029556D01*
X150552776Y-58035278D01*
X150552777Y-58035279D01*
X150581014Y-58084186D01*
X150644960Y-58194944D01*
X150649378Y-58199851D01*
X150649379Y-58199852D01*
X150699283Y-58255276D01*
X150772747Y-58336866D01*
X150927248Y-58449118D01*
X150933276Y-58451802D01*
X150933278Y-58451803D01*
X151095681Y-58524109D01*
X151101712Y-58526794D01*
X151195112Y-58546647D01*
X151282056Y-58565128D01*
X151282061Y-58565128D01*
X151288513Y-58566500D01*
X151479487Y-58566500D01*
X151485939Y-58565128D01*
X151485944Y-58565128D01*
X151572888Y-58546647D01*
X151666288Y-58526794D01*
X151672319Y-58524109D01*
X151834722Y-58451803D01*
X151834724Y-58451802D01*
X151840752Y-58449118D01*
X151995253Y-58336866D01*
X152068717Y-58255276D01*
X152118621Y-58199852D01*
X152118622Y-58199851D01*
X152123040Y-58194944D01*
X152186986Y-58084186D01*
X152215223Y-58035279D01*
X152215224Y-58035278D01*
X152218527Y-58029556D01*
X152277542Y-57847928D01*
X152282450Y-57801230D01*
X152309463Y-57735573D01*
X152318665Y-57725305D01*
X153583077Y-56460894D01*
X153645389Y-56426868D01*
X153672172Y-56423989D01*
X157841681Y-56423989D01*
X157909802Y-56443991D01*
X157956295Y-56497647D01*
X157966399Y-56567921D01*
X157936905Y-56632501D01*
X157877179Y-56670885D01*
X157867878Y-56673236D01*
X157809212Y-56685706D01*
X157803182Y-56688391D01*
X157803181Y-56688391D01*
X157640778Y-56760697D01*
X157640776Y-56760698D01*
X157634748Y-56763382D01*
X157629407Y-56767262D01*
X157629406Y-56767263D01*
X157495989Y-56864197D01*
X157480247Y-56875634D01*
X157475828Y-56880542D01*
X157395528Y-56969725D01*
X157373258Y-56989255D01*
X157329770Y-57019143D01*
X157324719Y-57024813D01*
X157324717Y-57024814D01*
X157288316Y-57065670D01*
X157283335Y-57070946D01*
X154167969Y-60186312D01*
X154161704Y-60192166D01*
X154118104Y-60230201D01*
X154113737Y-60236415D01*
X154081361Y-60282481D01*
X154077428Y-60287776D01*
X154038013Y-60338044D01*
X154034890Y-60344960D01*
X154033506Y-60347246D01*
X154025132Y-60361927D01*
X154023867Y-60364287D01*
X154019499Y-60370501D01*
X154016739Y-60377580D01*
X154016738Y-60377582D01*
X153996287Y-60430037D01*
X153993736Y-60436106D01*
X153967444Y-60494335D01*
X153966060Y-60501802D01*
X153965259Y-60504357D01*
X153960630Y-60520610D01*
X153959967Y-60523190D01*
X153957207Y-60530271D01*
X153956216Y-60537802D01*
X153956215Y-60537804D01*
X153948868Y-60593614D01*
X153947837Y-60600121D01*
X153936193Y-60662948D01*
X153936630Y-60670528D01*
X153936630Y-60670529D01*
X153939780Y-60725154D01*
X153939989Y-60732408D01*
X153939989Y-61714583D01*
X153919987Y-61782704D01*
X153866331Y-61829197D01*
X153796057Y-61839301D01*
X153751029Y-61823716D01*
X153745752Y-61819882D01*
X153739722Y-61817197D01*
X153577319Y-61744891D01*
X153577318Y-61744891D01*
X153571288Y-61742206D01*
X153477887Y-61722353D01*
X153390944Y-61703872D01*
X153390939Y-61703872D01*
X153384487Y-61702500D01*
X153193513Y-61702500D01*
X153187061Y-61703872D01*
X153187056Y-61703872D01*
X153100113Y-61722353D01*
X153006712Y-61742206D01*
X153000682Y-61744891D01*
X153000681Y-61744891D01*
X152838278Y-61817197D01*
X152838276Y-61817198D01*
X152832248Y-61819882D01*
X152677747Y-61932134D01*
X152549960Y-62074056D01*
X152454473Y-62239444D01*
X152452431Y-62245729D01*
X152405802Y-62389238D01*
X152395458Y-62421072D01*
X152394768Y-62427637D01*
X152390550Y-62467769D01*
X152363537Y-62533426D01*
X152354335Y-62543694D01*
X150419843Y-64478186D01*
X150357531Y-64512212D01*
X150330717Y-64515091D01*
X150125964Y-64515035D01*
X150057850Y-64495014D01*
X150011372Y-64441346D01*
X150000000Y-64389035D01*
X150000000Y-54734980D01*
X150020002Y-54666859D01*
X150073658Y-54620366D01*
X150126000Y-54608980D01*
X212059109Y-54608980D01*
X212127230Y-54628982D01*
X212148204Y-54645885D01*
X212454875Y-54952556D01*
X212485613Y-55002714D01*
X212540473Y-55171556D01*
X212543776Y-55177278D01*
X212543777Y-55177279D01*
X212551599Y-55190827D01*
X212635960Y-55336944D01*
X212763747Y-55478866D01*
X212918248Y-55591118D01*
X212924276Y-55593802D01*
X212924278Y-55593803D01*
X213086681Y-55666109D01*
X213092712Y-55668794D01*
X213186113Y-55688647D01*
X213273056Y-55707128D01*
X213273061Y-55707128D01*
X213279513Y-55708500D01*
X213470487Y-55708500D01*
X213476939Y-55707128D01*
X213476944Y-55707128D01*
X213563888Y-55688647D01*
X213657288Y-55668794D01*
X213663319Y-55666109D01*
X213825722Y-55593803D01*
X213825724Y-55593802D01*
X213831752Y-55591118D01*
X213986253Y-55478866D01*
X214114040Y-55336944D01*
X214198401Y-55190827D01*
X214206223Y-55177279D01*
X214206224Y-55177278D01*
X214209527Y-55171556D01*
X214268542Y-54989928D01*
X214288504Y-54800000D01*
X214280585Y-54724653D01*
X214269232Y-54616635D01*
X214269232Y-54616633D01*
X214268542Y-54610072D01*
X214209527Y-54428444D01*
X214114040Y-54263056D01*
X214083236Y-54228844D01*
X213986253Y-54121134D01*
X213988122Y-54119451D01*
X213956825Y-54068655D01*
X213958174Y-53997671D01*
X213997686Y-53938685D01*
X214062815Y-53910424D01*
X214078374Y-53909460D01*
X216857270Y-53909460D01*
X216925391Y-53929462D01*
G37*
%TD.AperFunction*%
%TA.AperFunction,Conductor*%
G36*
X155833072Y-60629315D02*
G01*
X155886959Y-60668076D01*
X155920947Y-60710047D01*
X156072896Y-60836646D01*
X156246541Y-60931322D01*
X156435268Y-60990465D01*
X156441394Y-60991131D01*
X156443857Y-60991645D01*
X156506448Y-61025154D01*
X156540986Y-61087183D01*
X156543401Y-61101812D01*
X156548458Y-61149928D01*
X156607473Y-61331556D01*
X156644783Y-61396178D01*
X156661520Y-61465170D01*
X156638300Y-61532262D01*
X156624758Y-61548271D01*
X155572084Y-62600945D01*
X155509772Y-62634971D01*
X155438957Y-62629906D01*
X155382121Y-62587359D01*
X155357310Y-62520839D01*
X155356989Y-62511850D01*
X155356989Y-61053422D01*
X155376991Y-60985301D01*
X155393894Y-60964327D01*
X155699945Y-60658276D01*
X155762257Y-60624250D01*
X155833072Y-60629315D01*
G37*
%TD.AperFunction*%
%TA.AperFunction,Conductor*%
G36*
X166988652Y-56443991D02*
G01*
X167035145Y-56497647D01*
X167045249Y-56567921D01*
X167015755Y-56632501D01*
X167009626Y-56639084D01*
X166839615Y-56809095D01*
X166777303Y-56843121D01*
X166750520Y-56846000D01*
X158702905Y-56846000D01*
X158634784Y-56825998D01*
X158628844Y-56821936D01*
X158553594Y-56767263D01*
X158553593Y-56767262D01*
X158548252Y-56763382D01*
X158542224Y-56760698D01*
X158542222Y-56760697D01*
X158379819Y-56688391D01*
X158379818Y-56688391D01*
X158373788Y-56685706D01*
X158315122Y-56673236D01*
X158252648Y-56639507D01*
X158218327Y-56577358D01*
X158223055Y-56506519D01*
X158265331Y-56449481D01*
X158331732Y-56424354D01*
X158341319Y-56423989D01*
X166920531Y-56423989D01*
X166988652Y-56443991D01*
G37*
%TD.AperFunction*%
%TD*%
%TA.AperFunction,Conductor*%
%TO.N,/DC-DC/GNDf*%
G36*
X228119648Y-122569352D02*
G01*
X228134000Y-122604000D01*
X228134000Y-136779306D01*
X228119167Y-136814429D01*
X226136175Y-138743417D01*
X226101332Y-138757289D01*
X226066885Y-138742461D01*
X226057072Y-138727833D01*
X226027730Y-138660352D01*
X226026928Y-138658507D01*
X226006092Y-138626300D01*
X225893997Y-138453026D01*
X225893993Y-138453021D01*
X225892905Y-138451339D01*
X225868142Y-138424124D01*
X225740739Y-138284110D01*
X225726846Y-138268842D01*
X225725273Y-138267600D01*
X225725269Y-138267596D01*
X225534789Y-138117165D01*
X225533210Y-138115918D01*
X225460138Y-138075580D01*
X225318958Y-137997644D01*
X225318952Y-137997642D01*
X225317198Y-137996673D01*
X225084610Y-137914309D01*
X225082637Y-137913958D01*
X225082635Y-137913957D01*
X224843672Y-137871391D01*
X224843668Y-137871391D01*
X224841694Y-137871039D01*
X224839686Y-137871014D01*
X224839681Y-137871014D01*
X224708539Y-137869412D01*
X224594972Y-137868025D01*
X224592979Y-137868330D01*
X224592978Y-137868330D01*
X224353063Y-137905042D01*
X224351070Y-137905347D01*
X224116540Y-137982003D01*
X223897679Y-138095935D01*
X223700364Y-138244083D01*
X223698977Y-138245535D01*
X223698973Y-138245538D01*
X223531284Y-138421015D01*
X223531281Y-138421019D01*
X223529896Y-138422468D01*
X223528768Y-138424121D01*
X223528766Y-138424124D01*
X223412507Y-138594554D01*
X223390851Y-138626300D01*
X223390006Y-138628121D01*
X223390004Y-138628124D01*
X223287813Y-138848276D01*
X223287811Y-138848281D01*
X223286965Y-138850104D01*
X223286427Y-138852044D01*
X223232777Y-139045500D01*
X223221026Y-139087871D01*
X223194806Y-139333214D01*
X223194921Y-139335210D01*
X223194921Y-139335213D01*
X223207585Y-139554832D01*
X223209010Y-139579545D01*
X223209453Y-139581509D01*
X223209453Y-139581512D01*
X223217440Y-139616953D01*
X223263255Y-139820249D01*
X223264013Y-139822116D01*
X223264014Y-139822119D01*
X223314402Y-139946210D01*
X223356084Y-140048861D01*
X223485006Y-140259241D01*
X223558600Y-140344200D01*
X223645245Y-140444227D01*
X223645249Y-140444230D01*
X223646557Y-140445741D01*
X223836399Y-140603351D01*
X223838129Y-140604362D01*
X223838132Y-140604364D01*
X224023022Y-140712405D01*
X224045696Y-140742277D01*
X224040606Y-140779433D01*
X224032467Y-140789834D01*
X218454265Y-146216123D01*
X218420098Y-146230000D01*
X125424000Y-146230000D01*
X125389352Y-146215648D01*
X125375000Y-146181000D01*
X125375000Y-145609020D01*
X125389352Y-145574372D01*
X125424000Y-145560020D01*
X126274451Y-145560020D01*
X126277783Y-145560133D01*
X126337410Y-145564198D01*
X126401579Y-145552998D01*
X126404115Y-145552623D01*
X126468800Y-145544796D01*
X126473564Y-145542996D01*
X126481827Y-145539874D01*
X126490720Y-145537441D01*
X126501525Y-145535555D01*
X126501527Y-145535554D01*
X126504434Y-145535047D01*
X126564087Y-145508862D01*
X126566461Y-145507893D01*
X126627403Y-145484865D01*
X126629833Y-145483195D01*
X126629835Y-145483194D01*
X126638878Y-145476979D01*
X126646932Y-145472496D01*
X126659682Y-145466899D01*
X126711361Y-145427244D01*
X126713436Y-145425736D01*
X126764694Y-145390507D01*
X126767131Y-145388832D01*
X126769096Y-145386627D01*
X126769099Y-145386624D01*
X126809559Y-145341212D01*
X126811496Y-145339160D01*
X133826929Y-138323728D01*
X133829366Y-138321451D01*
X133872171Y-138284110D01*
X133874396Y-138282169D01*
X133911866Y-138228855D01*
X133913371Y-138226828D01*
X133928052Y-138208105D01*
X133931964Y-138203692D01*
X134213656Y-137922000D01*
X144174318Y-137922000D01*
X144174737Y-137925181D01*
X144174737Y-137925183D01*
X144182218Y-137982003D01*
X144194956Y-138078762D01*
X144196183Y-138081724D01*
X144196184Y-138081728D01*
X144254235Y-138221875D01*
X144255464Y-138224841D01*
X144351718Y-138350282D01*
X144477159Y-138446536D01*
X144480122Y-138447763D01*
X144480125Y-138447765D01*
X144620272Y-138505816D01*
X144620276Y-138505817D01*
X144623238Y-138507044D01*
X144626419Y-138507463D01*
X144626420Y-138507463D01*
X144776817Y-138527263D01*
X144780000Y-138527682D01*
X144790761Y-138526265D01*
X144826985Y-138535971D01*
X144831805Y-138540198D01*
X145975950Y-139684342D01*
X146065658Y-139774050D01*
X146069093Y-139775800D01*
X146090653Y-139786786D01*
X146097208Y-139790803D01*
X146116788Y-139805029D01*
X146116794Y-139805032D01*
X146119910Y-139807296D01*
X146146595Y-139815966D01*
X146153694Y-139818907D01*
X146178696Y-139831646D01*
X146182501Y-139832249D01*
X146182502Y-139832249D01*
X146206413Y-139836036D01*
X146213885Y-139837830D01*
X146240567Y-139846499D01*
X146272477Y-139846499D01*
X146272481Y-139846500D01*
X172500237Y-139846500D01*
X172534885Y-139860852D01*
X172539106Y-139865665D01*
X172545718Y-139874282D01*
X172671159Y-139970536D01*
X172674122Y-139971763D01*
X172674125Y-139971765D01*
X172814272Y-140029816D01*
X172814276Y-140029817D01*
X172817238Y-140031044D01*
X172820419Y-140031463D01*
X172820420Y-140031463D01*
X172970817Y-140051263D01*
X172974000Y-140051682D01*
X172977183Y-140051263D01*
X173127580Y-140031463D01*
X173127581Y-140031463D01*
X173130762Y-140031044D01*
X173133724Y-140029817D01*
X173133728Y-140029816D01*
X173273875Y-139971765D01*
X173273878Y-139971763D01*
X173276841Y-139970536D01*
X173402282Y-139874282D01*
X173436341Y-139829896D01*
X173455422Y-139805029D01*
X173498536Y-139748841D01*
X173524487Y-139686190D01*
X173557816Y-139605728D01*
X173557817Y-139605724D01*
X173559044Y-139602762D01*
X173579682Y-139446000D01*
X173579263Y-139442817D01*
X173564834Y-139333214D01*
X218114806Y-139333214D01*
X218114921Y-139335210D01*
X218114921Y-139335213D01*
X218127585Y-139554832D01*
X218129010Y-139579545D01*
X218129453Y-139581509D01*
X218129453Y-139581512D01*
X218137440Y-139616953D01*
X218183255Y-139820249D01*
X218184013Y-139822116D01*
X218184014Y-139822119D01*
X218234402Y-139946210D01*
X218276084Y-140048861D01*
X218405006Y-140259241D01*
X218478600Y-140344200D01*
X218565245Y-140444227D01*
X218565249Y-140444230D01*
X218566557Y-140445741D01*
X218756399Y-140603351D01*
X218758129Y-140604362D01*
X218758132Y-140604364D01*
X218838820Y-140651514D01*
X218969433Y-140727838D01*
X219199939Y-140815859D01*
X219201912Y-140816260D01*
X219201914Y-140816261D01*
X219439754Y-140864651D01*
X219439757Y-140864651D01*
X219441726Y-140865052D01*
X219443732Y-140865126D01*
X219443736Y-140865126D01*
X219604181Y-140871009D01*
X219688300Y-140874093D01*
X219743462Y-140867027D01*
X219931044Y-140842997D01*
X219931046Y-140842997D01*
X219933041Y-140842741D01*
X219934968Y-140842163D01*
X219934972Y-140842162D01*
X220025040Y-140815140D01*
X220169374Y-140771838D01*
X220365304Y-140675853D01*
X220389148Y-140664172D01*
X220389150Y-140664171D01*
X220390954Y-140663287D01*
X220591829Y-140520004D01*
X220766605Y-140345837D01*
X220767778Y-140344205D01*
X220767782Y-140344200D01*
X220909416Y-140147094D01*
X220910588Y-140145463D01*
X221019911Y-139924264D01*
X221091639Y-139688180D01*
X221123845Y-139443550D01*
X221125643Y-139370000D01*
X221105425Y-139124089D01*
X221045316Y-138884783D01*
X220946928Y-138658507D01*
X220926092Y-138626300D01*
X220813997Y-138453026D01*
X220813993Y-138453021D01*
X220812905Y-138451339D01*
X220788142Y-138424124D01*
X220660739Y-138284110D01*
X220646846Y-138268842D01*
X220645273Y-138267600D01*
X220645269Y-138267596D01*
X220454789Y-138117165D01*
X220453210Y-138115918D01*
X220380138Y-138075580D01*
X220238958Y-137997644D01*
X220238952Y-137997642D01*
X220237198Y-137996673D01*
X220004610Y-137914309D01*
X220002637Y-137913958D01*
X220002635Y-137913957D01*
X219763672Y-137871391D01*
X219763668Y-137871391D01*
X219761694Y-137871039D01*
X219759686Y-137871014D01*
X219759681Y-137871014D01*
X219628539Y-137869412D01*
X219514972Y-137868025D01*
X219512979Y-137868330D01*
X219512978Y-137868330D01*
X219273063Y-137905042D01*
X219271070Y-137905347D01*
X219036540Y-137982003D01*
X218817679Y-138095935D01*
X218620364Y-138244083D01*
X218618977Y-138245535D01*
X218618973Y-138245538D01*
X218451284Y-138421015D01*
X218451281Y-138421019D01*
X218449896Y-138422468D01*
X218448768Y-138424121D01*
X218448766Y-138424124D01*
X218332507Y-138594554D01*
X218310851Y-138626300D01*
X218310006Y-138628121D01*
X218310004Y-138628124D01*
X218207813Y-138848276D01*
X218207811Y-138848281D01*
X218206965Y-138850104D01*
X218206427Y-138852044D01*
X218152777Y-139045500D01*
X218141026Y-139087871D01*
X218114806Y-139333214D01*
X173564834Y-139333214D01*
X173559463Y-139292420D01*
X173559463Y-139292419D01*
X173559044Y-139289238D01*
X173557817Y-139286276D01*
X173557816Y-139286272D01*
X173499765Y-139146125D01*
X173499763Y-139146122D01*
X173498536Y-139143159D01*
X173405628Y-139022078D01*
X173404238Y-139020267D01*
X173404236Y-139020265D01*
X173402282Y-139017718D01*
X173276841Y-138921464D01*
X173273878Y-138920237D01*
X173273875Y-138920235D01*
X173133728Y-138862184D01*
X173133724Y-138862183D01*
X173130762Y-138860956D01*
X173127581Y-138860537D01*
X173127580Y-138860537D01*
X172977183Y-138840737D01*
X172974000Y-138840318D01*
X172970817Y-138840737D01*
X172820420Y-138860537D01*
X172820419Y-138860537D01*
X172817238Y-138860956D01*
X172814276Y-138862183D01*
X172814272Y-138862184D01*
X172674125Y-138920235D01*
X172674122Y-138920237D01*
X172671159Y-138921464D01*
X172545718Y-139017718D01*
X172539111Y-139026329D01*
X172506634Y-139045081D01*
X172500237Y-139045500D01*
X146490188Y-139045500D01*
X146455540Y-139031148D01*
X145398198Y-137973805D01*
X145383846Y-137939157D01*
X145384265Y-137932760D01*
X145385263Y-137925181D01*
X145385682Y-137922000D01*
X145384758Y-137914980D01*
X145365463Y-137768420D01*
X145365463Y-137768419D01*
X145365044Y-137765238D01*
X145363817Y-137762276D01*
X145363816Y-137762272D01*
X145305765Y-137622125D01*
X145305763Y-137622122D01*
X145304536Y-137619159D01*
X145208282Y-137493718D01*
X145082841Y-137397464D01*
X145079878Y-137396237D01*
X145079875Y-137396235D01*
X144939728Y-137338184D01*
X144939724Y-137338183D01*
X144936762Y-137336956D01*
X144933581Y-137336537D01*
X144933580Y-137336537D01*
X144783183Y-137316737D01*
X144780000Y-137316318D01*
X144776817Y-137316737D01*
X144626420Y-137336537D01*
X144626419Y-137336537D01*
X144623238Y-137336956D01*
X144620276Y-137338183D01*
X144620272Y-137338184D01*
X144480125Y-137396235D01*
X144480122Y-137396237D01*
X144477159Y-137397464D01*
X144351718Y-137493718D01*
X144255464Y-137619159D01*
X144254237Y-137622122D01*
X144254235Y-137622125D01*
X144196184Y-137762272D01*
X144196183Y-137762276D01*
X144194956Y-137765238D01*
X144194537Y-137768419D01*
X144194537Y-137768420D01*
X144175242Y-137914980D01*
X144174318Y-137922000D01*
X134213656Y-137922000D01*
X138271921Y-133863735D01*
X138274358Y-133861458D01*
X138317171Y-133824110D01*
X138319396Y-133822169D01*
X138356857Y-133768868D01*
X138358380Y-133766816D01*
X138396762Y-133717865D01*
X138398583Y-133715543D01*
X138404312Y-133702856D01*
X138408879Y-133694849D01*
X138415187Y-133685873D01*
X138415189Y-133685869D01*
X138416887Y-133683453D01*
X138440552Y-133622756D01*
X138441546Y-133620391D01*
X138467141Y-133563705D01*
X138467141Y-133563704D01*
X138468355Y-133561016D01*
X138470892Y-133547329D01*
X138473417Y-133538464D01*
X138477402Y-133528242D01*
X138477402Y-133528241D01*
X138478476Y-133525487D01*
X138486981Y-133460882D01*
X138487383Y-133458347D01*
X138498713Y-133397214D01*
X138499252Y-133394308D01*
X138495581Y-133330636D01*
X138495500Y-133327816D01*
X138495500Y-130767484D01*
X138480276Y-130641680D01*
X138452644Y-130568554D01*
X138421390Y-130485842D01*
X138421389Y-130485841D01*
X138420345Y-130483077D01*
X138324312Y-130343349D01*
X138322107Y-130341384D01*
X138322104Y-130341381D01*
X138199930Y-130232528D01*
X138199929Y-130232527D01*
X138197721Y-130230560D01*
X138047881Y-130151224D01*
X138045023Y-130150506D01*
X138045020Y-130150505D01*
X137965133Y-130130439D01*
X137883441Y-130109919D01*
X137797311Y-130109468D01*
X137716848Y-130109046D01*
X137716844Y-130109046D01*
X137713895Y-130109031D01*
X137711026Y-130109720D01*
X137711024Y-130109720D01*
X137625441Y-130130267D01*
X137549032Y-130148612D01*
X137541298Y-130152604D01*
X137474163Y-130187255D01*
X137398369Y-130226375D01*
X137270604Y-130337831D01*
X137268906Y-130340246D01*
X137268905Y-130340248D01*
X137254200Y-130361171D01*
X137173113Y-130476547D01*
X137111524Y-130634513D01*
X137094500Y-130763826D01*
X137094500Y-133039547D01*
X137080148Y-133074195D01*
X132873071Y-137281272D01*
X132870634Y-137283549D01*
X132825604Y-137322831D01*
X132788134Y-137376145D01*
X132786635Y-137378164D01*
X132771948Y-137396895D01*
X132768036Y-137401308D01*
X126024675Y-144144668D01*
X125990027Y-144159020D01*
X125555639Y-144159020D01*
X125520991Y-144144668D01*
X125506639Y-144110020D01*
X125520991Y-144075372D01*
X129967074Y-139629289D01*
X129989320Y-139617952D01*
X129988995Y-139616953D01*
X129992667Y-139615760D01*
X129996473Y-139615157D01*
X129999909Y-139613406D01*
X129999910Y-139613406D01*
X130021470Y-139602421D01*
X130028573Y-139599478D01*
X130039244Y-139596011D01*
X130055259Y-139590807D01*
X130070760Y-139579545D01*
X130077958Y-139574315D01*
X130084515Y-139570298D01*
X130106070Y-139559315D01*
X130106074Y-139559312D01*
X130109511Y-139557561D01*
X130132074Y-139534998D01*
X130132078Y-139534995D01*
X130644995Y-139022078D01*
X130644998Y-139022074D01*
X130667561Y-138999511D01*
X130669312Y-138996074D01*
X130669315Y-138996070D01*
X130680299Y-138974513D01*
X130684316Y-138967957D01*
X130698542Y-138948377D01*
X130698545Y-138948372D01*
X130700807Y-138945258D01*
X130708538Y-138921464D01*
X130709477Y-138918575D01*
X130712420Y-138911472D01*
X130723406Y-138889910D01*
X130723406Y-138889909D01*
X130725157Y-138886473D01*
X130725760Y-138882667D01*
X130726953Y-138878995D01*
X130727952Y-138879320D01*
X130739289Y-138857074D01*
X133035003Y-136561359D01*
X133057570Y-136538792D01*
X133070306Y-136513797D01*
X133074323Y-136507242D01*
X133088551Y-136487659D01*
X133088554Y-136487654D01*
X133090816Y-136484540D01*
X133099487Y-136457854D01*
X133102430Y-136450751D01*
X133113415Y-136429191D01*
X133113415Y-136429190D01*
X133115166Y-136425754D01*
X133119555Y-136398043D01*
X133121350Y-136390567D01*
X133128829Y-136367550D01*
X133128829Y-136367547D01*
X133130020Y-136363883D01*
X133130020Y-131106431D01*
X133144285Y-131071869D01*
X134577457Y-129631531D01*
X134612070Y-129617093D01*
X134627334Y-129619491D01*
X134727625Y-129652078D01*
X134727629Y-129652079D01*
X134729907Y-129652819D01*
X134914998Y-129674890D01*
X135007924Y-129667740D01*
X135098466Y-129660773D01*
X135098471Y-129660772D01*
X135100851Y-129660589D01*
X135280387Y-129610462D01*
X135282516Y-129609387D01*
X135282520Y-129609385D01*
X135444628Y-129527498D01*
X135446768Y-129526417D01*
X135593655Y-129411656D01*
X135715454Y-129270550D01*
X135734295Y-129237385D01*
X135806341Y-129110560D01*
X135807526Y-129108474D01*
X135866364Y-128931601D01*
X135889727Y-128746668D01*
X135890099Y-128720000D01*
X135871909Y-128534487D01*
X135850821Y-128464640D01*
X135833136Y-128406063D01*
X135836861Y-128368746D01*
X135845310Y-128357339D01*
X141360634Y-122814438D01*
X141395369Y-122800000D01*
X148279000Y-122800000D01*
X148313648Y-122814352D01*
X148328000Y-122849000D01*
X148328000Y-136660000D01*
X203875000Y-136660000D01*
X203881895Y-136653081D01*
X203881896Y-136653081D01*
X206273596Y-134253214D01*
X218114806Y-134253214D01*
X218114921Y-134255210D01*
X218114921Y-134255213D01*
X218121092Y-134362236D01*
X218129010Y-134499545D01*
X218183255Y-134740249D01*
X218184013Y-134742116D01*
X218184014Y-134742119D01*
X218234402Y-134866210D01*
X218276084Y-134968861D01*
X218405006Y-135179241D01*
X218406324Y-135180762D01*
X218565245Y-135364227D01*
X218565249Y-135364230D01*
X218566557Y-135365741D01*
X218756399Y-135523351D01*
X218758129Y-135524362D01*
X218758132Y-135524364D01*
X218856972Y-135582121D01*
X218969433Y-135647838D01*
X219199939Y-135735859D01*
X219201912Y-135736260D01*
X219201914Y-135736261D01*
X219439754Y-135784651D01*
X219439757Y-135784651D01*
X219441726Y-135785052D01*
X219443732Y-135785126D01*
X219443736Y-135785126D01*
X219604181Y-135791009D01*
X219688300Y-135794093D01*
X219743462Y-135787027D01*
X219931044Y-135762997D01*
X219931046Y-135762997D01*
X219933041Y-135762741D01*
X219934968Y-135762163D01*
X219934972Y-135762162D01*
X220025040Y-135735140D01*
X220169374Y-135691838D01*
X220280164Y-135637563D01*
X220389148Y-135584172D01*
X220389150Y-135584171D01*
X220390954Y-135583287D01*
X220440163Y-135548187D01*
X220590193Y-135441171D01*
X220591829Y-135440004D01*
X220766605Y-135265837D01*
X220767778Y-135264205D01*
X220767782Y-135264200D01*
X220909416Y-135067094D01*
X220910588Y-135065463D01*
X221019911Y-134844264D01*
X221091639Y-134608180D01*
X221123845Y-134363550D01*
X221125643Y-134290000D01*
X221122619Y-134253214D01*
X223194806Y-134253214D01*
X223194921Y-134255210D01*
X223194921Y-134255213D01*
X223201092Y-134362236D01*
X223209010Y-134499545D01*
X223263255Y-134740249D01*
X223264013Y-134742116D01*
X223264014Y-134742119D01*
X223314402Y-134866210D01*
X223356084Y-134968861D01*
X223485006Y-135179241D01*
X223486324Y-135180762D01*
X223645245Y-135364227D01*
X223645249Y-135364230D01*
X223646557Y-135365741D01*
X223836399Y-135523351D01*
X223838129Y-135524362D01*
X223838132Y-135524364D01*
X223936972Y-135582121D01*
X224049433Y-135647838D01*
X224279939Y-135735859D01*
X224281912Y-135736260D01*
X224281914Y-135736261D01*
X224519754Y-135784651D01*
X224519757Y-135784651D01*
X224521726Y-135785052D01*
X224523732Y-135785126D01*
X224523736Y-135785126D01*
X224684181Y-135791009D01*
X224768300Y-135794093D01*
X224823462Y-135787027D01*
X225011044Y-135762997D01*
X225011046Y-135762997D01*
X225013041Y-135762741D01*
X225014968Y-135762163D01*
X225014972Y-135762162D01*
X225105040Y-135735140D01*
X225249374Y-135691838D01*
X225360164Y-135637563D01*
X225469148Y-135584172D01*
X225469150Y-135584171D01*
X225470954Y-135583287D01*
X225520163Y-135548187D01*
X225670193Y-135441171D01*
X225671829Y-135440004D01*
X225846605Y-135265837D01*
X225847778Y-135264205D01*
X225847782Y-135264200D01*
X225989416Y-135067094D01*
X225990588Y-135065463D01*
X226099911Y-134844264D01*
X226171639Y-134608180D01*
X226203845Y-134363550D01*
X226205643Y-134290000D01*
X226185425Y-134044089D01*
X226125316Y-133804783D01*
X226026928Y-133578507D01*
X226006092Y-133546300D01*
X225893997Y-133373026D01*
X225893993Y-133373021D01*
X225892905Y-133371339D01*
X225868142Y-133344124D01*
X225728197Y-133190327D01*
X225726846Y-133188842D01*
X225725273Y-133187600D01*
X225725269Y-133187596D01*
X225534789Y-133037165D01*
X225533210Y-133035918D01*
X225495330Y-133015007D01*
X225318958Y-132917644D01*
X225318952Y-132917642D01*
X225317198Y-132916673D01*
X225084610Y-132834309D01*
X225082637Y-132833958D01*
X225082635Y-132833957D01*
X224843672Y-132791391D01*
X224843668Y-132791391D01*
X224841694Y-132791039D01*
X224839686Y-132791014D01*
X224839681Y-132791014D01*
X224708539Y-132789412D01*
X224594972Y-132788025D01*
X224592979Y-132788330D01*
X224592978Y-132788330D01*
X224353063Y-132825042D01*
X224351070Y-132825347D01*
X224116540Y-132902003D01*
X223897679Y-133015935D01*
X223700364Y-133164083D01*
X223698977Y-133165535D01*
X223698973Y-133165538D01*
X223531284Y-133341015D01*
X223531281Y-133341019D01*
X223529896Y-133342468D01*
X223528768Y-133344121D01*
X223528766Y-133344124D01*
X223393256Y-133542775D01*
X223390851Y-133546300D01*
X223390006Y-133548121D01*
X223390004Y-133548124D01*
X223287813Y-133768276D01*
X223287811Y-133768281D01*
X223286965Y-133770104D01*
X223221026Y-134007871D01*
X223194806Y-134253214D01*
X221122619Y-134253214D01*
X221105425Y-134044089D01*
X221045316Y-133804783D01*
X220946928Y-133578507D01*
X220926092Y-133546300D01*
X220813997Y-133373026D01*
X220813993Y-133373021D01*
X220812905Y-133371339D01*
X220788142Y-133344124D01*
X220648197Y-133190327D01*
X220646846Y-133188842D01*
X220645273Y-133187600D01*
X220645269Y-133187596D01*
X220454789Y-133037165D01*
X220453210Y-133035918D01*
X220415330Y-133015007D01*
X220238958Y-132917644D01*
X220238952Y-132917642D01*
X220237198Y-132916673D01*
X220004610Y-132834309D01*
X220002637Y-132833958D01*
X220002635Y-132833957D01*
X219763672Y-132791391D01*
X219763668Y-132791391D01*
X219761694Y-132791039D01*
X219759686Y-132791014D01*
X219759681Y-132791014D01*
X219628539Y-132789412D01*
X219514972Y-132788025D01*
X219512979Y-132788330D01*
X219512978Y-132788330D01*
X219273063Y-132825042D01*
X219271070Y-132825347D01*
X219036540Y-132902003D01*
X218817679Y-133015935D01*
X218620364Y-133164083D01*
X218618977Y-133165535D01*
X218618973Y-133165538D01*
X218451284Y-133341015D01*
X218451281Y-133341019D01*
X218449896Y-133342468D01*
X218448768Y-133344121D01*
X218448766Y-133344124D01*
X218313256Y-133542775D01*
X218310851Y-133546300D01*
X218310006Y-133548121D01*
X218310004Y-133548124D01*
X218207813Y-133768276D01*
X218207811Y-133768281D01*
X218206965Y-133770104D01*
X218141026Y-134007871D01*
X218114806Y-134253214D01*
X206273596Y-134253214D01*
X211336308Y-129173214D01*
X218114806Y-129173214D01*
X218114921Y-129175210D01*
X218114921Y-129175213D01*
X218120523Y-129272360D01*
X218129010Y-129419545D01*
X218183255Y-129660249D01*
X218184013Y-129662116D01*
X218184014Y-129662119D01*
X218234402Y-129786210D01*
X218276084Y-129888861D01*
X218405006Y-130099241D01*
X218478600Y-130184200D01*
X218565245Y-130284227D01*
X218565249Y-130284230D01*
X218566557Y-130285741D01*
X218756399Y-130443351D01*
X218758129Y-130444362D01*
X218758132Y-130444364D01*
X218856972Y-130502121D01*
X218969433Y-130567838D01*
X219199939Y-130655859D01*
X219201912Y-130656260D01*
X219201914Y-130656261D01*
X219439754Y-130704651D01*
X219439757Y-130704651D01*
X219441726Y-130705052D01*
X219443732Y-130705126D01*
X219443736Y-130705126D01*
X219604181Y-130711009D01*
X219688300Y-130714093D01*
X219743462Y-130707027D01*
X219931044Y-130682997D01*
X219931046Y-130682997D01*
X219933041Y-130682741D01*
X219934968Y-130682163D01*
X219934972Y-130682162D01*
X220060125Y-130644614D01*
X220169374Y-130611838D01*
X220280164Y-130557563D01*
X220389148Y-130504172D01*
X220389150Y-130504171D01*
X220390954Y-130503287D01*
X220419288Y-130483077D01*
X220590193Y-130361171D01*
X220591829Y-130360004D01*
X220766605Y-130185837D01*
X220767778Y-130184205D01*
X220767782Y-130184200D01*
X220909416Y-129987094D01*
X220910588Y-129985463D01*
X221019911Y-129764264D01*
X221091639Y-129528180D01*
X221123845Y-129283550D01*
X221125643Y-129210000D01*
X221122619Y-129173214D01*
X223194806Y-129173214D01*
X223194921Y-129175210D01*
X223194921Y-129175213D01*
X223200523Y-129272360D01*
X223209010Y-129419545D01*
X223263255Y-129660249D01*
X223264013Y-129662116D01*
X223264014Y-129662119D01*
X223314402Y-129786210D01*
X223356084Y-129888861D01*
X223485006Y-130099241D01*
X223558600Y-130184200D01*
X223645245Y-130284227D01*
X223645249Y-130284230D01*
X223646557Y-130285741D01*
X223836399Y-130443351D01*
X223838129Y-130444362D01*
X223838132Y-130444364D01*
X223936972Y-130502121D01*
X224049433Y-130567838D01*
X224279939Y-130655859D01*
X224281912Y-130656260D01*
X224281914Y-130656261D01*
X224519754Y-130704651D01*
X224519757Y-130704651D01*
X224521726Y-130705052D01*
X224523732Y-130705126D01*
X224523736Y-130705126D01*
X224684181Y-130711009D01*
X224768300Y-130714093D01*
X224823462Y-130707027D01*
X225011044Y-130682997D01*
X225011046Y-130682997D01*
X225013041Y-130682741D01*
X225014968Y-130682163D01*
X225014972Y-130682162D01*
X225140125Y-130644614D01*
X225249374Y-130611838D01*
X225360164Y-130557563D01*
X225469148Y-130504172D01*
X225469150Y-130504171D01*
X225470954Y-130503287D01*
X225499288Y-130483077D01*
X225670193Y-130361171D01*
X225671829Y-130360004D01*
X225846605Y-130185837D01*
X225847778Y-130184205D01*
X225847782Y-130184200D01*
X225989416Y-129987094D01*
X225990588Y-129985463D01*
X226099911Y-129764264D01*
X226171639Y-129528180D01*
X226203845Y-129283550D01*
X226205643Y-129210000D01*
X226185425Y-128964089D01*
X226125316Y-128724783D01*
X226026928Y-128498507D01*
X226006092Y-128466300D01*
X225893997Y-128293026D01*
X225893993Y-128293021D01*
X225892905Y-128291339D01*
X225868142Y-128264124D01*
X225728197Y-128110327D01*
X225726846Y-128108842D01*
X225725273Y-128107600D01*
X225725269Y-128107596D01*
X225534789Y-127957165D01*
X225533210Y-127955918D01*
X225495330Y-127935007D01*
X225318958Y-127837644D01*
X225318952Y-127837642D01*
X225317198Y-127836673D01*
X225084610Y-127754309D01*
X225082637Y-127753958D01*
X225082635Y-127753957D01*
X224843672Y-127711391D01*
X224843668Y-127711391D01*
X224841694Y-127711039D01*
X224839686Y-127711014D01*
X224839681Y-127711014D01*
X224708539Y-127709412D01*
X224594972Y-127708025D01*
X224592979Y-127708330D01*
X224592978Y-127708330D01*
X224353063Y-127745042D01*
X224351070Y-127745347D01*
X224116540Y-127822003D01*
X223897679Y-127935935D01*
X223700364Y-128084083D01*
X223698977Y-128085535D01*
X223698973Y-128085538D01*
X223531284Y-128261015D01*
X223531281Y-128261019D01*
X223529896Y-128262468D01*
X223528768Y-128264121D01*
X223528766Y-128264124D01*
X223474452Y-128343746D01*
X223390851Y-128466300D01*
X223390006Y-128468121D01*
X223390004Y-128468124D01*
X223287813Y-128688276D01*
X223287811Y-128688281D01*
X223286965Y-128690104D01*
X223221026Y-128927871D01*
X223194806Y-129173214D01*
X221122619Y-129173214D01*
X221105425Y-128964089D01*
X221045316Y-128724783D01*
X220946928Y-128498507D01*
X220926092Y-128466300D01*
X220813997Y-128293026D01*
X220813993Y-128293021D01*
X220812905Y-128291339D01*
X220788142Y-128264124D01*
X220648197Y-128110327D01*
X220646846Y-128108842D01*
X220645273Y-128107600D01*
X220645269Y-128107596D01*
X220454789Y-127957165D01*
X220453210Y-127955918D01*
X220415330Y-127935007D01*
X220238958Y-127837644D01*
X220238952Y-127837642D01*
X220237198Y-127836673D01*
X220004610Y-127754309D01*
X220002637Y-127753958D01*
X220002635Y-127753957D01*
X219763672Y-127711391D01*
X219763668Y-127711391D01*
X219761694Y-127711039D01*
X219759686Y-127711014D01*
X219759681Y-127711014D01*
X219628539Y-127709412D01*
X219514972Y-127708025D01*
X219512979Y-127708330D01*
X219512978Y-127708330D01*
X219273063Y-127745042D01*
X219271070Y-127745347D01*
X219036540Y-127822003D01*
X218817679Y-127935935D01*
X218620364Y-128084083D01*
X218618977Y-128085535D01*
X218618973Y-128085538D01*
X218451284Y-128261015D01*
X218451281Y-128261019D01*
X218449896Y-128262468D01*
X218448768Y-128264121D01*
X218448766Y-128264124D01*
X218394452Y-128343746D01*
X218310851Y-128466300D01*
X218310006Y-128468121D01*
X218310004Y-128468124D01*
X218207813Y-128688276D01*
X218207811Y-128688281D01*
X218206965Y-128690104D01*
X218141026Y-128927871D01*
X218114806Y-129173214D01*
X211336308Y-129173214D01*
X215212384Y-125283903D01*
X218823688Y-125283903D01*
X218824977Y-125287016D01*
X219011272Y-125395879D01*
X219014883Y-125397609D01*
X219226192Y-125478300D01*
X219230049Y-125479421D01*
X219451695Y-125524515D01*
X219455675Y-125524990D01*
X219681712Y-125533278D01*
X219685724Y-125533096D01*
X219910077Y-125504356D01*
X219914005Y-125503521D01*
X220130653Y-125438523D01*
X220134384Y-125437060D01*
X220337511Y-125337550D01*
X220340950Y-125335500D01*
X220409475Y-125286621D01*
X220411173Y-125283903D01*
X223903688Y-125283903D01*
X223904977Y-125287016D01*
X224091272Y-125395879D01*
X224094883Y-125397609D01*
X224306192Y-125478300D01*
X224310049Y-125479421D01*
X224531695Y-125524515D01*
X224535675Y-125524990D01*
X224761712Y-125533278D01*
X224765724Y-125533096D01*
X224990077Y-125504356D01*
X224994005Y-125503521D01*
X225210653Y-125438523D01*
X225214384Y-125437060D01*
X225417511Y-125337550D01*
X225420950Y-125335500D01*
X225489475Y-125286621D01*
X225493428Y-125280295D01*
X225492433Y-125275986D01*
X224706893Y-124490446D01*
X224700000Y-124487591D01*
X224693107Y-124490446D01*
X223906543Y-125277010D01*
X223903688Y-125283903D01*
X220411173Y-125283903D01*
X220413428Y-125280295D01*
X220412433Y-125275986D01*
X219626893Y-124490446D01*
X219620000Y-124487591D01*
X219613107Y-124490446D01*
X218826543Y-125277010D01*
X218823688Y-125283903D01*
X215212384Y-125283903D01*
X216394573Y-124097677D01*
X218215736Y-124097677D01*
X218228757Y-124323502D01*
X218229316Y-124327474D01*
X218279043Y-124548131D01*
X218280241Y-124551953D01*
X218365342Y-124761531D01*
X218367147Y-124765105D01*
X218462439Y-124920606D01*
X218468473Y-124924990D01*
X218472019Y-124924428D01*
X219259554Y-124136893D01*
X219262409Y-124130000D01*
X219977591Y-124130000D01*
X219980446Y-124136893D01*
X220764123Y-124920570D01*
X220771016Y-124923425D01*
X220775147Y-124921714D01*
X220822978Y-124855150D01*
X220825034Y-124851730D01*
X220925258Y-124648942D01*
X220926733Y-124645216D01*
X220992488Y-124428790D01*
X220993334Y-124424879D01*
X221022950Y-124199921D01*
X221023153Y-124197311D01*
X221024766Y-124131316D01*
X221024690Y-124128689D01*
X221022140Y-124097677D01*
X223295736Y-124097677D01*
X223308757Y-124323502D01*
X223309316Y-124327474D01*
X223359043Y-124548131D01*
X223360241Y-124551953D01*
X223445342Y-124761531D01*
X223447147Y-124765105D01*
X223542439Y-124920606D01*
X223548473Y-124924990D01*
X223552019Y-124924428D01*
X224339554Y-124136893D01*
X224342409Y-124130000D01*
X225057591Y-124130000D01*
X225060446Y-124136893D01*
X225844123Y-124920570D01*
X225851016Y-124923425D01*
X225855147Y-124921714D01*
X225902978Y-124855150D01*
X225905034Y-124851730D01*
X226005258Y-124648942D01*
X226006733Y-124645216D01*
X226072488Y-124428790D01*
X226073334Y-124424879D01*
X226102950Y-124199921D01*
X226103153Y-124197311D01*
X226104766Y-124131316D01*
X226104690Y-124128689D01*
X226086100Y-123902571D01*
X226085444Y-123898606D01*
X226030341Y-123679232D01*
X226029049Y-123675438D01*
X225938855Y-123468007D01*
X225936959Y-123464471D01*
X225856669Y-123340362D01*
X225850529Y-123336126D01*
X225846730Y-123336823D01*
X225060446Y-124123107D01*
X225057591Y-124130000D01*
X224342409Y-124130000D01*
X224339554Y-124123107D01*
X223555999Y-123339552D01*
X223549106Y-123336697D01*
X223545267Y-123338287D01*
X223479667Y-123434451D01*
X223477688Y-123437935D01*
X223382455Y-123643098D01*
X223381069Y-123646866D01*
X223320622Y-123864830D01*
X223319872Y-123868764D01*
X223295834Y-124093688D01*
X223295736Y-124097677D01*
X221022140Y-124097677D01*
X221006100Y-123902571D01*
X221005444Y-123898606D01*
X220950341Y-123679232D01*
X220949049Y-123675438D01*
X220858855Y-123468007D01*
X220856959Y-123464471D01*
X220776669Y-123340362D01*
X220770529Y-123336126D01*
X220766730Y-123336823D01*
X219980446Y-124123107D01*
X219977591Y-124130000D01*
X219262409Y-124130000D01*
X219259554Y-124123107D01*
X218475999Y-123339552D01*
X218469106Y-123336697D01*
X218465267Y-123338287D01*
X218399667Y-123434451D01*
X218397688Y-123437935D01*
X218302455Y-123643098D01*
X218301069Y-123646866D01*
X218240622Y-123864830D01*
X218239872Y-123868764D01*
X218215834Y-124093688D01*
X218215736Y-124097677D01*
X216394573Y-124097677D01*
X217509468Y-122978975D01*
X218825955Y-122978975D01*
X218827139Y-122983586D01*
X219613107Y-123769554D01*
X219620000Y-123772409D01*
X219626893Y-123769554D01*
X220412373Y-122984074D01*
X220414485Y-122978975D01*
X223905955Y-122978975D01*
X223907139Y-122983586D01*
X224693107Y-123769554D01*
X224700000Y-123772409D01*
X224706893Y-123769554D01*
X225492373Y-122984074D01*
X225495228Y-122977181D01*
X225493265Y-122972442D01*
X225478986Y-122961164D01*
X225475640Y-122958941D01*
X225277619Y-122849626D01*
X225273961Y-122847983D01*
X225060744Y-122772479D01*
X225056875Y-122771456D01*
X224834181Y-122731789D01*
X224830190Y-122731412D01*
X224604024Y-122728649D01*
X224600012Y-122728929D01*
X224376434Y-122763141D01*
X224372523Y-122764073D01*
X224157534Y-122834342D01*
X224153831Y-122835899D01*
X223953208Y-122940337D01*
X223949801Y-122942483D01*
X223909754Y-122972552D01*
X223905955Y-122978975D01*
X220414485Y-122978975D01*
X220415228Y-122977181D01*
X220413265Y-122972442D01*
X220398986Y-122961164D01*
X220395640Y-122958941D01*
X220197619Y-122849626D01*
X220193961Y-122847983D01*
X219980744Y-122772479D01*
X219976875Y-122771456D01*
X219754181Y-122731789D01*
X219750190Y-122731412D01*
X219524024Y-122728649D01*
X219520012Y-122728929D01*
X219296434Y-122763141D01*
X219292523Y-122764073D01*
X219077534Y-122834342D01*
X219073831Y-122835899D01*
X218873208Y-122940337D01*
X218869801Y-122942483D01*
X218829754Y-122972552D01*
X218825955Y-122978975D01*
X217509468Y-122978975D01*
X217917638Y-122569411D01*
X217952345Y-122555000D01*
X228085000Y-122555000D01*
X228119648Y-122569352D01*
G37*
%TD.AperFunction*%
%TA.AperFunction,Conductor*%
G36*
X132314668Y-132046731D02*
G01*
X132329020Y-132081379D01*
X132329020Y-136114262D01*
X132314668Y-136148910D01*
X130034027Y-138429550D01*
X130034024Y-138429554D01*
X130011461Y-138452117D01*
X130009710Y-138455554D01*
X130009707Y-138455558D01*
X129998724Y-138477113D01*
X129994707Y-138483670D01*
X129978215Y-138506369D01*
X129977025Y-138510032D01*
X129969544Y-138533055D01*
X129966601Y-138540158D01*
X129966581Y-138540198D01*
X129953865Y-138565155D01*
X129953262Y-138568961D01*
X129952069Y-138572633D01*
X129951070Y-138572308D01*
X129939733Y-138594554D01*
X129704554Y-138829733D01*
X129682308Y-138841070D01*
X129682633Y-138842069D01*
X129678961Y-138843262D01*
X129675155Y-138843865D01*
X129671719Y-138845616D01*
X129671718Y-138845616D01*
X129650156Y-138856602D01*
X129643053Y-138859545D01*
X129616370Y-138868215D01*
X129613256Y-138870477D01*
X129613251Y-138870480D01*
X129593671Y-138884706D01*
X129587115Y-138888723D01*
X129565558Y-138899707D01*
X129565554Y-138899710D01*
X129562117Y-138901461D01*
X129539554Y-138924024D01*
X129539550Y-138924027D01*
X125458648Y-143004929D01*
X125424000Y-143019281D01*
X125389352Y-143004929D01*
X125375000Y-142970281D01*
X125375000Y-138937399D01*
X125389352Y-138902751D01*
X132245372Y-132046731D01*
X132280020Y-132032379D01*
X132314668Y-132046731D01*
G37*
%TD.AperFunction*%
%TD*%
%TA.AperFunction,Conductor*%
%TO.N,/DC-DC/GNDf*%
G36*
X74163198Y-136358306D02*
G01*
X74181384Y-136406370D01*
X74178669Y-136450131D01*
X74171476Y-136566080D01*
X74201271Y-136739477D01*
X74270156Y-136901368D01*
X74374437Y-137043071D01*
X74508520Y-137156982D01*
X74665212Y-137236993D01*
X74836108Y-137278811D01*
X74843705Y-137279282D01*
X74846245Y-137279440D01*
X74846249Y-137279440D01*
X74847214Y-137279500D01*
X86021587Y-137279500D01*
X86065781Y-137297806D01*
X87872199Y-139104223D01*
X89667638Y-140899662D01*
X89669060Y-140900787D01*
X89767986Y-140979055D01*
X89767989Y-140979057D01*
X89770833Y-140981307D01*
X89930222Y-141055801D01*
X90102473Y-141091629D01*
X90106105Y-141091531D01*
X90106108Y-141091531D01*
X90233406Y-141088086D01*
X90278346Y-141086870D01*
X90448408Y-141041779D01*
X90603534Y-140958774D01*
X90735406Y-140842310D01*
X90836948Y-140698631D01*
X90902713Y-140535448D01*
X90929174Y-140361511D01*
X90914910Y-140186153D01*
X90913791Y-140182698D01*
X90913790Y-140182694D01*
X90861807Y-140022231D01*
X90860689Y-140018779D01*
X90857041Y-140012766D01*
X90770863Y-139870750D01*
X90769417Y-139868367D01*
X90762051Y-139860027D01*
X87348718Y-136446694D01*
X87330412Y-136402500D01*
X87348718Y-136358306D01*
X87392912Y-136340000D01*
X88122088Y-136340000D01*
X88166281Y-136358306D01*
X93792638Y-141984662D01*
X93794060Y-141985787D01*
X93892986Y-142064055D01*
X93892989Y-142064057D01*
X93895833Y-142066307D01*
X94055222Y-142140801D01*
X94058780Y-142141541D01*
X94223919Y-142175889D01*
X94223921Y-142175889D01*
X94227473Y-142176628D01*
X94231100Y-142176530D01*
X94234720Y-142176853D01*
X94234618Y-142177994D01*
X94275487Y-142193645D01*
X94295000Y-142239015D01*
X94295000Y-143983000D01*
X94276694Y-144027194D01*
X94232500Y-144045500D01*
X89893412Y-144045500D01*
X89849218Y-144027194D01*
X84957362Y-139135338D01*
X84930655Y-139114208D01*
X84857014Y-139055945D01*
X84857011Y-139055943D01*
X84854167Y-139053693D01*
X84694778Y-138979199D01*
X84665021Y-138973010D01*
X84526081Y-138944111D01*
X84526079Y-138944111D01*
X84522527Y-138943372D01*
X84518900Y-138943470D01*
X84518899Y-138943470D01*
X84418755Y-138946180D01*
X84346654Y-138948131D01*
X84343150Y-138949060D01*
X84180095Y-138992292D01*
X84180093Y-138992293D01*
X84176592Y-138993221D01*
X84021466Y-139076226D01*
X83889595Y-139192690D01*
X83788053Y-139336369D01*
X83722287Y-139499552D01*
X83695826Y-139673489D01*
X83710090Y-139848847D01*
X83711208Y-139852298D01*
X83711209Y-139852303D01*
X83763192Y-140012766D01*
X83764312Y-140016222D01*
X83855583Y-140166633D01*
X83857423Y-140168716D01*
X83857427Y-140168722D01*
X83862297Y-140174236D01*
X83862949Y-140174974D01*
X83863644Y-140175669D01*
X88811282Y-145123306D01*
X88829588Y-145167500D01*
X88811282Y-145211694D01*
X88767088Y-145230000D01*
X72402500Y-145230000D01*
X72358306Y-145211694D01*
X72340000Y-145167500D01*
X72340000Y-136402500D01*
X72358306Y-136358306D01*
X72402500Y-136340000D01*
X74119004Y-136340000D01*
X74163198Y-136358306D01*
G37*
%TD.AperFunction*%
%TA.AperFunction,Conductor*%
G36*
X90706282Y-136358306D02*
G01*
X91948324Y-137600348D01*
X91950976Y-137603169D01*
X91992718Y-137650433D01*
X91995681Y-137652527D01*
X92046496Y-137688439D01*
X92049204Y-137690465D01*
X92100861Y-137731335D01*
X92104148Y-137732871D01*
X92104154Y-137732875D01*
X92114500Y-137737710D01*
X92124109Y-137743291D01*
X92136397Y-137751975D01*
X92139764Y-137753332D01*
X92139766Y-137753333D01*
X92197476Y-137776591D01*
X92200549Y-137777926D01*
X92260250Y-137805829D01*
X92271961Y-137808265D01*
X92274985Y-137808894D01*
X92285619Y-137812115D01*
X92296204Y-137816381D01*
X92296209Y-137816382D01*
X92299580Y-137817741D01*
X92303170Y-137818287D01*
X92303173Y-137818288D01*
X92364705Y-137827649D01*
X92368031Y-137828248D01*
X92428947Y-137840918D01*
X92428949Y-137840918D01*
X92432501Y-137841657D01*
X92436127Y-137841559D01*
X92436129Y-137841559D01*
X92447544Y-137841250D01*
X92458633Y-137841938D01*
X92469924Y-137843656D01*
X92469929Y-137843656D01*
X92473517Y-137844202D01*
X92539172Y-137838861D01*
X92542525Y-137838680D01*
X92608374Y-137836898D01*
X92611883Y-137835968D01*
X92611887Y-137835967D01*
X92622784Y-137833077D01*
X92638803Y-137830989D01*
X93081020Y-137830989D01*
X93125214Y-137849295D01*
X93290705Y-138014785D01*
X93309011Y-138058979D01*
X93309011Y-138514731D01*
X93307701Y-138527458D01*
X93298344Y-138572445D01*
X93298442Y-138576070D01*
X93298442Y-138576072D01*
X93298751Y-138587481D01*
X93298063Y-138598572D01*
X93295798Y-138613461D01*
X93296093Y-138617082D01*
X93301139Y-138679121D01*
X93301321Y-138682485D01*
X93303103Y-138748318D01*
X93304034Y-138751829D01*
X93304034Y-138751830D01*
X93306960Y-138762870D01*
X93308841Y-138773815D01*
X93310062Y-138788819D01*
X93311180Y-138792269D01*
X93330354Y-138851458D01*
X93331308Y-138854696D01*
X93348193Y-138918380D01*
X93355299Y-138931659D01*
X93359645Y-138941874D01*
X93364284Y-138956194D01*
X93366165Y-138959294D01*
X93366166Y-138959296D01*
X93398449Y-139012497D01*
X93400124Y-139015433D01*
X93431198Y-139073506D01*
X93433603Y-139076229D01*
X93441158Y-139084783D01*
X93447745Y-139093734D01*
X93455555Y-139106605D01*
X93457395Y-139108688D01*
X93457399Y-139108694D01*
X93462269Y-139114208D01*
X93462921Y-139114946D01*
X93503276Y-139155301D01*
X93505927Y-139158121D01*
X93547662Y-139205377D01*
X93562713Y-139216014D01*
X93570835Y-139222860D01*
X94276694Y-139928719D01*
X94295000Y-139972913D01*
X94295000Y-140202088D01*
X94276694Y-140246282D01*
X94232500Y-140264588D01*
X94188306Y-140246282D01*
X90388718Y-136446694D01*
X90370412Y-136402500D01*
X90388718Y-136358306D01*
X90432912Y-136340000D01*
X90662088Y-136340000D01*
X90706282Y-136358306D01*
G37*
%TD.AperFunction*%
%TD*%
%TA.AperFunction,Conductor*%
%TO.N,/DC-DC/12Vf*%
G36*
X147981694Y-55572806D02*
G01*
X148000000Y-55617000D01*
X148000000Y-62937500D01*
X147981694Y-62981694D01*
X147937500Y-63000000D01*
X76697000Y-63000000D01*
X76652806Y-62981694D01*
X76634500Y-62937500D01*
X76634500Y-56668413D01*
X76652806Y-56624219D01*
X77704218Y-55572806D01*
X77748412Y-55554500D01*
X147937500Y-55554500D01*
X147981694Y-55572806D01*
G37*
%TD.AperFunction*%
%TD*%
M02*
