%TF.GenerationSoftware,KiCad,Pcbnew,(6.0.0)*%
%TF.CreationDate,2022-01-14T15:12:54+01:00*%
%TF.ProjectId,ADRmu,4144526d-752e-46b6-9963-61645f706362,rev?*%
%TF.SameCoordinates,Original*%
%TF.FileFunction,Soldermask,Bot*%
%TF.FilePolarity,Negative*%
%FSLAX46Y46*%
G04 Gerber Fmt 4.6, Leading zero omitted, Abs format (unit mm)*
G04 Created by KiCad (PCBNEW (6.0.0)) date 2022-01-14 15:12:54*
%MOMM*%
%LPD*%
G01*
G04 APERTURE LIST*
G04 Aperture macros list*
%AMRoundRect*
0 Rectangle with rounded corners*
0 $1 Rounding radius*
0 $2 $3 $4 $5 $6 $7 $8 $9 X,Y pos of 4 corners*
0 Add a 4 corners polygon primitive as box body*
4,1,4,$2,$3,$4,$5,$6,$7,$8,$9,$2,$3,0*
0 Add four circle primitives for the rounded corners*
1,1,$1+$1,$2,$3*
1,1,$1+$1,$4,$5*
1,1,$1+$1,$6,$7*
1,1,$1+$1,$8,$9*
0 Add four rect primitives between the rounded corners*
20,1,$1+$1,$2,$3,$4,$5,0*
20,1,$1+$1,$4,$5,$6,$7,0*
20,1,$1+$1,$6,$7,$8,$9,0*
20,1,$1+$1,$8,$9,$2,$3,0*%
%AMFreePoly0*
4,1,22,0.500000,-0.750000,0.000000,-0.750000,0.000000,-0.745033,-0.079941,-0.743568,-0.215256,-0.701293,-0.333266,-0.622738,-0.424486,-0.514219,-0.481581,-0.384460,-0.499164,-0.250000,-0.500000,-0.250000,-0.500000,0.250000,-0.499164,0.250000,-0.499963,0.256109,-0.478152,0.396186,-0.417904,0.524511,-0.324060,0.630769,-0.204165,0.706417,-0.067858,0.745374,0.000000,0.744959,0.000000,0.750000,
0.500000,0.750000,0.500000,-0.750000,0.500000,-0.750000,$1*%
%AMFreePoly1*
4,1,20,0.000000,0.744959,0.073905,0.744508,0.209726,0.703889,0.328688,0.626782,0.421226,0.519385,0.479903,0.390333,0.500000,0.250000,0.500000,-0.250000,0.499851,-0.262216,0.476331,-0.402017,0.414519,-0.529596,0.319384,-0.634700,0.198574,-0.708877,0.061801,-0.746166,0.000000,-0.745033,0.000000,-0.750000,-0.500000,-0.750000,-0.500000,0.750000,0.000000,0.750000,0.000000,0.744959,
0.000000,0.744959,$1*%
G04 Aperture macros list end*
%ADD10C,0.875000*%
%ADD11C,18.100000*%
%ADD12RoundRect,0.250002X1.699998X1.699998X-1.699998X1.699998X-1.699998X-1.699998X1.699998X-1.699998X0*%
%ADD13C,4.300000*%
%ADD14RoundRect,0.250002X-1.699998X-1.699998X1.699998X-1.699998X1.699998X1.699998X-1.699998X1.699998X0*%
%ADD15C,2.850000*%
%ADD16RoundRect,0.250000X-1.050000X1.050000X-1.050000X-1.050000X1.050000X-1.050000X1.050000X1.050000X0*%
%ADD17C,2.600000*%
%ADD18C,1.500000*%
%ADD19R,2.400000X2.400000*%
%ADD20C,2.400000*%
%ADD21O,1.200000X1.600000*%
%ADD22O,1.200000X1.200000*%
%ADD23R,1.600000X1.600000*%
%ADD24O,1.600000X1.600000*%
%ADD25FreePoly0,180.000000*%
%ADD26FreePoly1,180.000000*%
%ADD27FreePoly0,270.000000*%
%ADD28FreePoly1,270.000000*%
%ADD29FreePoly0,0.000000*%
%ADD30FreePoly1,0.000000*%
G04 APERTURE END LIST*
D10*
X84572500Y-72840000D02*
G75*
G03*
X84572500Y-72840000I-437500J0D01*
G01*
X135372500Y-121100000D02*
G75*
G03*
X135372500Y-121100000I-437500J0D01*
G01*
X79492500Y-95700000D02*
G75*
G03*
X79492500Y-95700000I-437500J0D01*
G01*
X89652500Y-77920000D02*
G75*
G03*
X89652500Y-77920000I-437500J0D01*
G01*
X109972500Y-80460000D02*
G75*
G03*
X109972500Y-80460000I-437500J0D01*
G01*
X107432500Y-67760000D02*
G75*
G03*
X107432500Y-67760000I-437500J0D01*
G01*
X89652500Y-118560000D02*
G75*
G03*
X89652500Y-118560000I-437500J0D01*
G01*
X115052500Y-118560000D02*
G75*
G03*
X115052500Y-118560000I-437500J0D01*
G01*
X142992500Y-75380000D02*
G75*
G03*
X142992500Y-75380000I-437500J0D01*
G01*
X140452500Y-67760000D02*
G75*
G03*
X140452500Y-67760000I-437500J0D01*
G01*
X132832500Y-75380000D02*
G75*
G03*
X132832500Y-75380000I-437500J0D01*
G01*
X127752500Y-128720000D02*
G75*
G03*
X127752500Y-128720000I-437500J0D01*
G01*
X122672500Y-116020000D02*
G75*
G03*
X122672500Y-116020000I-437500J0D01*
G01*
X140452500Y-90620000D02*
G75*
G03*
X140452500Y-90620000I-437500J0D01*
G01*
X94732500Y-118560000D02*
G75*
G03*
X94732500Y-118560000I-437500J0D01*
G01*
X117592500Y-133800000D02*
G75*
G03*
X117592500Y-133800000I-437500J0D01*
G01*
X122672500Y-141420000D02*
G75*
G03*
X122672500Y-141420000I-437500J0D01*
G01*
X117592500Y-72840000D02*
G75*
G03*
X117592500Y-72840000I-437500J0D01*
G01*
X140452500Y-62680000D02*
G75*
G03*
X140452500Y-62680000I-437500J0D01*
G01*
X127752500Y-75380000D02*
G75*
G03*
X127752500Y-75380000I-437500J0D01*
G01*
X140452500Y-70300000D02*
G75*
G03*
X140452500Y-70300000I-437500J0D01*
G01*
X102352500Y-138880000D02*
G75*
G03*
X102352500Y-138880000I-437500J0D01*
G01*
X127752500Y-113480000D02*
G75*
G03*
X127752500Y-113480000I-437500J0D01*
G01*
X132832500Y-93160000D02*
G75*
G03*
X132832500Y-93160000I-437500J0D01*
G01*
X122672500Y-62680000D02*
G75*
G03*
X122672500Y-62680000I-437500J0D01*
G01*
X87112500Y-126180000D02*
G75*
G03*
X87112500Y-126180000I-437500J0D01*
G01*
X79492500Y-123640000D02*
G75*
G03*
X79492500Y-123640000I-437500J0D01*
G01*
X120132500Y-72840000D02*
G75*
G03*
X120132500Y-72840000I-437500J0D01*
G01*
X76952500Y-75380000D02*
G75*
G03*
X76952500Y-75380000I-437500J0D01*
G01*
X120132500Y-136340000D02*
G75*
G03*
X120132500Y-136340000I-437500J0D01*
G01*
X109972500Y-136340000D02*
G75*
G03*
X109972500Y-136340000I-437500J0D01*
G01*
X99812500Y-141420000D02*
G75*
G03*
X99812500Y-141420000I-437500J0D01*
G01*
X84572500Y-93160000D02*
G75*
G03*
X84572500Y-93160000I-437500J0D01*
G01*
X87112500Y-116020000D02*
G75*
G03*
X87112500Y-116020000I-437500J0D01*
G01*
X117592500Y-131260000D02*
G75*
G03*
X117592500Y-131260000I-437500J0D01*
G01*
X127752500Y-72840000D02*
G75*
G03*
X127752500Y-72840000I-437500J0D01*
G01*
X122672500Y-75380000D02*
G75*
G03*
X122672500Y-75380000I-437500J0D01*
G01*
X127752500Y-126180000D02*
G75*
G03*
X127752500Y-126180000I-437500J0D01*
G01*
X140452500Y-88080000D02*
G75*
G03*
X140452500Y-88080000I-437500J0D01*
G01*
X140452500Y-72840000D02*
G75*
G03*
X140452500Y-72840000I-437500J0D01*
G01*
X79492500Y-80460000D02*
G75*
G03*
X79492500Y-80460000I-437500J0D01*
G01*
X84572500Y-80460000D02*
G75*
G03*
X84572500Y-80460000I-437500J0D01*
G01*
X104892500Y-75380000D02*
G75*
G03*
X104892500Y-75380000I-437500J0D01*
G01*
X97272500Y-121100000D02*
G75*
G03*
X97272500Y-121100000I-437500J0D01*
G01*
X137912500Y-108400000D02*
G75*
G03*
X137912500Y-108400000I-437500J0D01*
G01*
X137912500Y-80460000D02*
G75*
G03*
X137912500Y-80460000I-437500J0D01*
G01*
X99812500Y-67760000D02*
G75*
G03*
X99812500Y-67760000I-437500J0D01*
G01*
X97272500Y-70300000D02*
G75*
G03*
X97272500Y-70300000I-437500J0D01*
G01*
X135372500Y-90620000D02*
G75*
G03*
X135372500Y-90620000I-437500J0D01*
G01*
X142992500Y-88080000D02*
G75*
G03*
X142992500Y-88080000I-437500J0D01*
G01*
X109972500Y-121100000D02*
G75*
G03*
X109972500Y-121100000I-437500J0D01*
G01*
X135372500Y-85540000D02*
G75*
G03*
X135372500Y-85540000I-437500J0D01*
G01*
X135372500Y-108400000D02*
G75*
G03*
X135372500Y-108400000I-437500J0D01*
G01*
X89652500Y-72840000D02*
G75*
G03*
X89652500Y-72840000I-437500J0D01*
G01*
X135372500Y-93160000D02*
G75*
G03*
X135372500Y-93160000I-437500J0D01*
G01*
X97272500Y-126180000D02*
G75*
G03*
X97272500Y-126180000I-437500J0D01*
G01*
X102352500Y-118560000D02*
G75*
G03*
X102352500Y-118560000I-437500J0D01*
G01*
X137912500Y-62680000D02*
G75*
G03*
X137912500Y-62680000I-437500J0D01*
G01*
X132832500Y-90620000D02*
G75*
G03*
X132832500Y-90620000I-437500J0D01*
G01*
X142992500Y-62680000D02*
G75*
G03*
X142992500Y-62680000I-437500J0D01*
G01*
X127752500Y-133800000D02*
G75*
G03*
X127752500Y-133800000I-437500J0D01*
G01*
X89652500Y-88080000D02*
G75*
G03*
X89652500Y-88080000I-437500J0D01*
G01*
X142992500Y-77920000D02*
G75*
G03*
X142992500Y-77920000I-437500J0D01*
G01*
X89652500Y-103320000D02*
G75*
G03*
X89652500Y-103320000I-437500J0D01*
G01*
X79492500Y-118560000D02*
G75*
G03*
X79492500Y-118560000I-437500J0D01*
G01*
X142992500Y-70300000D02*
G75*
G03*
X142992500Y-70300000I-437500J0D01*
G01*
X94732500Y-75380000D02*
G75*
G03*
X94732500Y-75380000I-437500J0D01*
G01*
X94732500Y-88080000D02*
G75*
G03*
X94732500Y-88080000I-437500J0D01*
G01*
X102352500Y-141420000D02*
G75*
G03*
X102352500Y-141420000I-437500J0D01*
G01*
X87112500Y-90620000D02*
G75*
G03*
X87112500Y-90620000I-437500J0D01*
G01*
X76952500Y-90620000D02*
G75*
G03*
X76952500Y-90620000I-437500J0D01*
G01*
X127752500Y-110940000D02*
G75*
G03*
X127752500Y-110940000I-437500J0D01*
G01*
X89652500Y-93160000D02*
G75*
G03*
X89652500Y-93160000I-437500J0D01*
G01*
X79492500Y-131260000D02*
G75*
G03*
X79492500Y-131260000I-437500J0D01*
G01*
X87112500Y-93160000D02*
G75*
G03*
X87112500Y-93160000I-437500J0D01*
G01*
X82032500Y-67760000D02*
G75*
G03*
X82032500Y-67760000I-437500J0D01*
G01*
X82032500Y-80460000D02*
G75*
G03*
X82032500Y-80460000I-437500J0D01*
G01*
X125212500Y-128720000D02*
G75*
G03*
X125212500Y-128720000I-437500J0D01*
G01*
X125212500Y-80460000D02*
G75*
G03*
X125212500Y-80460000I-437500J0D01*
G01*
X94732500Y-72840000D02*
G75*
G03*
X94732500Y-72840000I-437500J0D01*
G01*
X140452500Y-85540000D02*
G75*
G03*
X140452500Y-85540000I-437500J0D01*
G01*
X117592500Y-70300000D02*
G75*
G03*
X117592500Y-70300000I-437500J0D01*
G01*
X130292500Y-70300000D02*
G75*
G03*
X130292500Y-70300000I-437500J0D01*
G01*
X135372500Y-67760000D02*
G75*
G03*
X135372500Y-67760000I-437500J0D01*
G01*
X102352500Y-80460000D02*
G75*
G03*
X102352500Y-80460000I-437500J0D01*
G01*
X127752500Y-80460000D02*
G75*
G03*
X127752500Y-80460000I-437500J0D01*
G01*
X89652500Y-113480000D02*
G75*
G03*
X89652500Y-113480000I-437500J0D01*
G01*
X97272500Y-75380000D02*
G75*
G03*
X97272500Y-75380000I-437500J0D01*
G01*
X132832500Y-67760000D02*
G75*
G03*
X132832500Y-67760000I-437500J0D01*
G01*
X84572500Y-70300000D02*
G75*
G03*
X84572500Y-70300000I-437500J0D01*
G01*
X127752500Y-67760000D02*
G75*
G03*
X127752500Y-67760000I-437500J0D01*
G01*
X135372500Y-128720000D02*
G75*
G03*
X135372500Y-128720000I-437500J0D01*
G01*
X92192500Y-90620000D02*
G75*
G03*
X92192500Y-90620000I-437500J0D01*
G01*
X125212500Y-75380000D02*
G75*
G03*
X125212500Y-75380000I-437500J0D01*
G01*
X99812500Y-75380000D02*
G75*
G03*
X99812500Y-75380000I-437500J0D01*
G01*
X120132500Y-80460000D02*
G75*
G03*
X120132500Y-80460000I-437500J0D01*
G01*
X107432500Y-75380000D02*
G75*
G03*
X107432500Y-75380000I-437500J0D01*
G01*
X87112500Y-75380000D02*
G75*
G03*
X87112500Y-75380000I-437500J0D01*
G01*
X135372500Y-105860000D02*
G75*
G03*
X135372500Y-105860000I-437500J0D01*
G01*
X94732500Y-67760000D02*
G75*
G03*
X94732500Y-67760000I-437500J0D01*
G01*
X89652500Y-80460000D02*
G75*
G03*
X89652500Y-80460000I-437500J0D01*
G01*
X115052500Y-75380000D02*
G75*
G03*
X115052500Y-75380000I-437500J0D01*
G01*
X89652500Y-116020000D02*
G75*
G03*
X89652500Y-116020000I-437500J0D01*
G01*
X94732500Y-133800000D02*
G75*
G03*
X94732500Y-133800000I-437500J0D01*
G01*
X127752500Y-121100000D02*
G75*
G03*
X127752500Y-121100000I-437500J0D01*
G01*
X94732500Y-103320000D02*
G75*
G03*
X94732500Y-103320000I-437500J0D01*
G01*
X135372500Y-65220000D02*
G75*
G03*
X135372500Y-65220000I-437500J0D01*
G01*
X97272500Y-128720000D02*
G75*
G03*
X97272500Y-128720000I-437500J0D01*
G01*
X137912500Y-88080000D02*
G75*
G03*
X137912500Y-88080000I-437500J0D01*
G01*
X127752500Y-83000000D02*
G75*
G03*
X127752500Y-83000000I-437500J0D01*
G01*
X87112500Y-103320000D02*
G75*
G03*
X87112500Y-103320000I-437500J0D01*
G01*
X112512500Y-80460000D02*
G75*
G03*
X112512500Y-80460000I-437500J0D01*
G01*
X94732500Y-110940000D02*
G75*
G03*
X94732500Y-110940000I-437500J0D01*
G01*
X84572500Y-67760000D02*
G75*
G03*
X84572500Y-67760000I-437500J0D01*
G01*
X127752500Y-131260000D02*
G75*
G03*
X127752500Y-131260000I-437500J0D01*
G01*
X125212500Y-116020000D02*
G75*
G03*
X125212500Y-116020000I-437500J0D01*
G01*
X125212500Y-88080000D02*
G75*
G03*
X125212500Y-88080000I-437500J0D01*
G01*
X135372500Y-75380000D02*
G75*
G03*
X135372500Y-75380000I-437500J0D01*
G01*
X130292500Y-85540000D02*
G75*
G03*
X130292500Y-85540000I-437500J0D01*
G01*
X82032500Y-70300000D02*
G75*
G03*
X82032500Y-70300000I-437500J0D01*
G01*
X92192500Y-93160000D02*
G75*
G03*
X92192500Y-93160000I-437500J0D01*
G01*
X120132500Y-138880000D02*
G75*
G03*
X120132500Y-138880000I-437500J0D01*
G01*
X109972500Y-72840000D02*
G75*
G03*
X109972500Y-72840000I-437500J0D01*
G01*
X79492500Y-105860000D02*
G75*
G03*
X79492500Y-105860000I-437500J0D01*
G01*
X102352500Y-121100000D02*
G75*
G03*
X102352500Y-121100000I-437500J0D01*
G01*
X130292500Y-77920000D02*
G75*
G03*
X130292500Y-77920000I-437500J0D01*
G01*
X115052500Y-70300000D02*
G75*
G03*
X115052500Y-70300000I-437500J0D01*
G01*
X125212500Y-65220000D02*
G75*
G03*
X125212500Y-65220000I-437500J0D01*
G01*
X142992500Y-93160000D02*
G75*
G03*
X142992500Y-93160000I-437500J0D01*
G01*
X87112500Y-72840000D02*
G75*
G03*
X87112500Y-72840000I-437500J0D01*
G01*
X122672500Y-72840000D02*
G75*
G03*
X122672500Y-72840000I-437500J0D01*
G01*
X120132500Y-121100000D02*
G75*
G03*
X120132500Y-121100000I-437500J0D01*
G01*
X99812500Y-116020000D02*
G75*
G03*
X99812500Y-116020000I-437500J0D01*
G01*
X99812500Y-136340000D02*
G75*
G03*
X99812500Y-136340000I-437500J0D01*
G01*
X120132500Y-62680000D02*
G75*
G03*
X120132500Y-62680000I-437500J0D01*
G01*
X127752500Y-123640000D02*
G75*
G03*
X127752500Y-123640000I-437500J0D01*
G01*
X135372500Y-77920000D02*
G75*
G03*
X135372500Y-77920000I-437500J0D01*
G01*
X87112500Y-95700000D02*
G75*
G03*
X87112500Y-95700000I-437500J0D01*
G01*
X120132500Y-75380000D02*
G75*
G03*
X120132500Y-75380000I-437500J0D01*
G01*
X132832500Y-72840000D02*
G75*
G03*
X132832500Y-72840000I-437500J0D01*
G01*
X104892500Y-136340000D02*
G75*
G03*
X104892500Y-136340000I-437500J0D01*
G01*
X130292500Y-80460000D02*
G75*
G03*
X130292500Y-80460000I-437500J0D01*
G01*
X127752500Y-62680000D02*
G75*
G03*
X127752500Y-62680000I-437500J0D01*
G01*
X109972500Y-70300000D02*
G75*
G03*
X109972500Y-70300000I-437500J0D01*
G01*
X120132500Y-141420000D02*
G75*
G03*
X120132500Y-141420000I-437500J0D01*
G01*
X99812500Y-72840000D02*
G75*
G03*
X99812500Y-72840000I-437500J0D01*
G01*
X132832500Y-88080000D02*
G75*
G03*
X132832500Y-88080000I-437500J0D01*
G01*
X79492500Y-108400000D02*
G75*
G03*
X79492500Y-108400000I-437500J0D01*
G01*
X117592500Y-80460000D02*
G75*
G03*
X117592500Y-80460000I-437500J0D01*
G01*
X107432500Y-136340000D02*
G75*
G03*
X107432500Y-136340000I-437500J0D01*
G01*
X122672500Y-70300000D02*
G75*
G03*
X122672500Y-70300000I-437500J0D01*
G01*
X97272500Y-85540000D02*
G75*
G03*
X97272500Y-85540000I-437500J0D01*
G01*
X107432500Y-80460000D02*
G75*
G03*
X107432500Y-80460000I-437500J0D01*
G01*
X122672500Y-65220000D02*
G75*
G03*
X122672500Y-65220000I-437500J0D01*
G01*
X82032500Y-95700000D02*
G75*
G03*
X82032500Y-95700000I-437500J0D01*
G01*
X122672500Y-67760000D02*
G75*
G03*
X122672500Y-67760000I-437500J0D01*
G01*
X115052500Y-62680000D02*
G75*
G03*
X115052500Y-62680000I-437500J0D01*
G01*
X132832500Y-65220000D02*
G75*
G03*
X132832500Y-65220000I-437500J0D01*
G01*
X132832500Y-80460000D02*
G75*
G03*
X132832500Y-80460000I-437500J0D01*
G01*
X87112500Y-105860000D02*
G75*
G03*
X87112500Y-105860000I-437500J0D01*
G01*
X89652500Y-95700000D02*
G75*
G03*
X89652500Y-95700000I-437500J0D01*
G01*
X107432500Y-121100000D02*
G75*
G03*
X107432500Y-121100000I-437500J0D01*
G01*
X115052500Y-65220000D02*
G75*
G03*
X115052500Y-65220000I-437500J0D01*
G01*
X92192500Y-116020000D02*
G75*
G03*
X92192500Y-116020000I-437500J0D01*
G01*
X125212500Y-133800000D02*
G75*
G03*
X125212500Y-133800000I-437500J0D01*
G01*
X92192500Y-121100000D02*
G75*
G03*
X92192500Y-121100000I-437500J0D01*
G01*
X84572500Y-123640000D02*
G75*
G03*
X84572500Y-123640000I-437500J0D01*
G01*
X135372500Y-88080000D02*
G75*
G03*
X135372500Y-88080000I-437500J0D01*
G01*
X137912500Y-83000000D02*
G75*
G03*
X137912500Y-83000000I-437500J0D01*
G01*
X82032500Y-75380000D02*
G75*
G03*
X82032500Y-75380000I-437500J0D01*
G01*
X92192500Y-133800000D02*
G75*
G03*
X92192500Y-133800000I-437500J0D01*
G01*
X76952500Y-126180000D02*
G75*
G03*
X76952500Y-126180000I-437500J0D01*
G01*
X117592500Y-67760000D02*
G75*
G03*
X117592500Y-67760000I-437500J0D01*
G01*
X140452500Y-77920000D02*
G75*
G03*
X140452500Y-77920000I-437500J0D01*
G01*
X122672500Y-133800000D02*
G75*
G03*
X122672500Y-133800000I-437500J0D01*
G01*
X132832500Y-85540000D02*
G75*
G03*
X132832500Y-85540000I-437500J0D01*
G01*
X142992500Y-85540000D02*
G75*
G03*
X142992500Y-85540000I-437500J0D01*
G01*
X142992500Y-80460000D02*
G75*
G03*
X142992500Y-80460000I-437500J0D01*
G01*
X127752500Y-70300000D02*
G75*
G03*
X127752500Y-70300000I-437500J0D01*
G01*
X140452500Y-83000000D02*
G75*
G03*
X140452500Y-83000000I-437500J0D01*
G01*
X125212500Y-85540000D02*
G75*
G03*
X125212500Y-85540000I-437500J0D01*
G01*
X132832500Y-83000000D02*
G75*
G03*
X132832500Y-83000000I-437500J0D01*
G01*
X92192500Y-108400000D02*
G75*
G03*
X92192500Y-108400000I-437500J0D01*
G01*
D11*
X119050000Y-100000000D02*
G75*
G03*
X119050000Y-100000000I-9050000J0D01*
G01*
D10*
X137912500Y-65220000D02*
G75*
G03*
X137912500Y-65220000I-437500J0D01*
G01*
X102352500Y-136340000D02*
G75*
G03*
X102352500Y-136340000I-437500J0D01*
G01*
X122672500Y-85540000D02*
G75*
G03*
X122672500Y-85540000I-437500J0D01*
G01*
X97272500Y-136340000D02*
G75*
G03*
X97272500Y-136340000I-437500J0D01*
G01*
X92192500Y-70300000D02*
G75*
G03*
X92192500Y-70300000I-437500J0D01*
G01*
X102352500Y-70300000D02*
G75*
G03*
X102352500Y-70300000I-437500J0D01*
G01*
X79492500Y-90620000D02*
G75*
G03*
X79492500Y-90620000I-437500J0D01*
G01*
X87112500Y-80460000D02*
G75*
G03*
X87112500Y-80460000I-437500J0D01*
G01*
X82032500Y-72840000D02*
G75*
G03*
X82032500Y-72840000I-437500J0D01*
G01*
X94732500Y-116020000D02*
G75*
G03*
X94732500Y-116020000I-437500J0D01*
G01*
X82032500Y-93160000D02*
G75*
G03*
X82032500Y-93160000I-437500J0D01*
G01*
X97272500Y-72840000D02*
G75*
G03*
X97272500Y-72840000I-437500J0D01*
G01*
X120132500Y-67760000D02*
G75*
G03*
X120132500Y-67760000I-437500J0D01*
G01*
X125212500Y-113480000D02*
G75*
G03*
X125212500Y-113480000I-437500J0D01*
G01*
X84572500Y-126180000D02*
G75*
G03*
X84572500Y-126180000I-437500J0D01*
G01*
X99812500Y-83000000D02*
G75*
G03*
X99812500Y-83000000I-437500J0D01*
G01*
X104892500Y-121100000D02*
G75*
G03*
X104892500Y-121100000I-437500J0D01*
G01*
X76952500Y-88080000D02*
G75*
G03*
X76952500Y-88080000I-437500J0D01*
G01*
X125212500Y-72840000D02*
G75*
G03*
X125212500Y-72840000I-437500J0D01*
G01*
X135372500Y-72840000D02*
G75*
G03*
X135372500Y-72840000I-437500J0D01*
G01*
X82032500Y-83000000D02*
G75*
G03*
X82032500Y-83000000I-437500J0D01*
G01*
X135372500Y-70300000D02*
G75*
G03*
X135372500Y-70300000I-437500J0D01*
G01*
X79492500Y-121100000D02*
G75*
G03*
X79492500Y-121100000I-437500J0D01*
G01*
X142992500Y-65220000D02*
G75*
G03*
X142992500Y-65220000I-437500J0D01*
G01*
X84572500Y-88080000D02*
G75*
G03*
X84572500Y-88080000I-437500J0D01*
G01*
X137912500Y-93160000D02*
G75*
G03*
X137912500Y-93160000I-437500J0D01*
G01*
X92192500Y-75380000D02*
G75*
G03*
X92192500Y-75380000I-437500J0D01*
G01*
X120132500Y-70300000D02*
G75*
G03*
X120132500Y-70300000I-437500J0D01*
G01*
X92192500Y-83000000D02*
G75*
G03*
X92192500Y-83000000I-437500J0D01*
G01*
X79492500Y-93160000D02*
G75*
G03*
X79492500Y-93160000I-437500J0D01*
G01*
X120132500Y-133800000D02*
G75*
G03*
X120132500Y-133800000I-437500J0D01*
G01*
X76952500Y-131260000D02*
G75*
G03*
X76952500Y-131260000I-437500J0D01*
G01*
X87112500Y-83000000D02*
G75*
G03*
X87112500Y-83000000I-437500J0D01*
G01*
X94732500Y-83000000D02*
G75*
G03*
X94732500Y-83000000I-437500J0D01*
G01*
X97272500Y-138880000D02*
G75*
G03*
X97272500Y-138880000I-437500J0D01*
G01*
X125212500Y-62680000D02*
G75*
G03*
X125212500Y-62680000I-437500J0D01*
G01*
X84572500Y-133800000D02*
G75*
G03*
X84572500Y-133800000I-437500J0D01*
G01*
X97272500Y-116020000D02*
G75*
G03*
X97272500Y-116020000I-437500J0D01*
G01*
X92192500Y-105860000D02*
G75*
G03*
X92192500Y-105860000I-437500J0D01*
G01*
X112512500Y-121100000D02*
G75*
G03*
X112512500Y-121100000I-437500J0D01*
G01*
X104892500Y-123640000D02*
G75*
G03*
X104892500Y-123640000I-437500J0D01*
G01*
X112512500Y-136340000D02*
G75*
G03*
X112512500Y-136340000I-437500J0D01*
G01*
X117592500Y-62680000D02*
G75*
G03*
X117592500Y-62680000I-437500J0D01*
G01*
X102352500Y-72840000D02*
G75*
G03*
X102352500Y-72840000I-437500J0D01*
G01*
X135372500Y-123640000D02*
G75*
G03*
X135372500Y-123640000I-437500J0D01*
G01*
X127752500Y-90620000D02*
G75*
G03*
X127752500Y-90620000I-437500J0D01*
G01*
X99812500Y-138880000D02*
G75*
G03*
X99812500Y-138880000I-437500J0D01*
G01*
X125212500Y-121100000D02*
G75*
G03*
X125212500Y-121100000I-437500J0D01*
G01*
X79492500Y-88080000D02*
G75*
G03*
X79492500Y-88080000I-437500J0D01*
G01*
X140452500Y-93160000D02*
G75*
G03*
X140452500Y-93160000I-437500J0D01*
G01*
X142992500Y-90620000D02*
G75*
G03*
X142992500Y-90620000I-437500J0D01*
G01*
X89652500Y-108400000D02*
G75*
G03*
X89652500Y-108400000I-437500J0D01*
G01*
X130292500Y-72840000D02*
G75*
G03*
X130292500Y-72840000I-437500J0D01*
G01*
X82032500Y-133800000D02*
G75*
G03*
X82032500Y-133800000I-437500J0D01*
G01*
X76952500Y-80460000D02*
G75*
G03*
X76952500Y-80460000I-437500J0D01*
G01*
X115052500Y-136340000D02*
G75*
G03*
X115052500Y-136340000I-437500J0D01*
G01*
X94732500Y-121100000D02*
G75*
G03*
X94732500Y-121100000I-437500J0D01*
G01*
X130292500Y-83000000D02*
G75*
G03*
X130292500Y-83000000I-437500J0D01*
G01*
X137912500Y-123640000D02*
G75*
G03*
X137912500Y-123640000I-437500J0D01*
G01*
X127752500Y-77920000D02*
G75*
G03*
X127752500Y-77920000I-437500J0D01*
G01*
X122672500Y-138880000D02*
G75*
G03*
X122672500Y-138880000I-437500J0D01*
G01*
X137912500Y-77920000D02*
G75*
G03*
X137912500Y-77920000I-437500J0D01*
G01*
X79492500Y-70300000D02*
G75*
G03*
X79492500Y-70300000I-437500J0D01*
G01*
X97272500Y-133800000D02*
G75*
G03*
X97272500Y-133800000I-437500J0D01*
G01*
X99812500Y-80460000D02*
G75*
G03*
X99812500Y-80460000I-437500J0D01*
G01*
X132832500Y-62680000D02*
G75*
G03*
X132832500Y-62680000I-437500J0D01*
G01*
X76952500Y-128720000D02*
G75*
G03*
X76952500Y-128720000I-437500J0D01*
G01*
X89652500Y-90620000D02*
G75*
G03*
X89652500Y-90620000I-437500J0D01*
G01*
X125212500Y-77920000D02*
G75*
G03*
X125212500Y-77920000I-437500J0D01*
G01*
X117592500Y-75380000D02*
G75*
G03*
X117592500Y-75380000I-437500J0D01*
G01*
X89652500Y-105860000D02*
G75*
G03*
X89652500Y-105860000I-437500J0D01*
G01*
X76952500Y-116020000D02*
G75*
G03*
X76952500Y-116020000I-437500J0D01*
G01*
X137912500Y-70300000D02*
G75*
G03*
X137912500Y-70300000I-437500J0D01*
G01*
X89652500Y-75380000D02*
G75*
G03*
X89652500Y-75380000I-437500J0D01*
G01*
X107432500Y-72840000D02*
G75*
G03*
X107432500Y-72840000I-437500J0D01*
G01*
X94732500Y-128720000D02*
G75*
G03*
X94732500Y-128720000I-437500J0D01*
G01*
X92192500Y-88080000D02*
G75*
G03*
X92192500Y-88080000I-437500J0D01*
G01*
X76952500Y-77920000D02*
G75*
G03*
X76952500Y-77920000I-437500J0D01*
G01*
X92192500Y-72840000D02*
G75*
G03*
X92192500Y-72840000I-437500J0D01*
G01*
X135372500Y-83000000D02*
G75*
G03*
X135372500Y-83000000I-437500J0D01*
G01*
X140452500Y-75380000D02*
G75*
G03*
X140452500Y-75380000I-437500J0D01*
G01*
X99812500Y-123640000D02*
G75*
G03*
X99812500Y-123640000I-437500J0D01*
G01*
X76952500Y-95700000D02*
G75*
G03*
X76952500Y-95700000I-437500J0D01*
G01*
X79492500Y-113480000D02*
G75*
G03*
X79492500Y-113480000I-437500J0D01*
G01*
X125212500Y-67760000D02*
G75*
G03*
X125212500Y-67760000I-437500J0D01*
G01*
X104892500Y-72840000D02*
G75*
G03*
X104892500Y-72840000I-437500J0D01*
G01*
X104892500Y-80460000D02*
G75*
G03*
X104892500Y-80460000I-437500J0D01*
G01*
X122672500Y-136340000D02*
G75*
G03*
X122672500Y-136340000I-437500J0D01*
G01*
X135372500Y-126180000D02*
G75*
G03*
X135372500Y-126180000I-437500J0D01*
G01*
X115052500Y-67760000D02*
G75*
G03*
X115052500Y-67760000I-437500J0D01*
G01*
X84572500Y-90620000D02*
G75*
G03*
X84572500Y-90620000I-437500J0D01*
G01*
X117592500Y-128720000D02*
G75*
G03*
X117592500Y-128720000I-437500J0D01*
G01*
X79492500Y-77920000D02*
G75*
G03*
X79492500Y-77920000I-437500J0D01*
G01*
X76952500Y-123640000D02*
G75*
G03*
X76952500Y-123640000I-437500J0D01*
G01*
X120132500Y-65220000D02*
G75*
G03*
X120132500Y-65220000I-437500J0D01*
G01*
X142992500Y-67760000D02*
G75*
G03*
X142992500Y-67760000I-437500J0D01*
G01*
X76952500Y-118560000D02*
G75*
G03*
X76952500Y-118560000I-437500J0D01*
G01*
X122672500Y-77920000D02*
G75*
G03*
X122672500Y-77920000I-437500J0D01*
G01*
X115052500Y-80460000D02*
G75*
G03*
X115052500Y-80460000I-437500J0D01*
G01*
X127752500Y-118560000D02*
G75*
G03*
X127752500Y-118560000I-437500J0D01*
G01*
X130292500Y-62680000D02*
G75*
G03*
X130292500Y-62680000I-437500J0D01*
G01*
X142992500Y-83000000D02*
G75*
G03*
X142992500Y-83000000I-437500J0D01*
G01*
X76952500Y-121100000D02*
G75*
G03*
X76952500Y-121100000I-437500J0D01*
G01*
X84572500Y-75380000D02*
G75*
G03*
X84572500Y-75380000I-437500J0D01*
G01*
X76952500Y-113480000D02*
G75*
G03*
X76952500Y-113480000I-437500J0D01*
G01*
X79492500Y-72840000D02*
G75*
G03*
X79492500Y-72840000I-437500J0D01*
G01*
X89652500Y-128720000D02*
G75*
G03*
X89652500Y-128720000I-437500J0D01*
G01*
X87112500Y-70300000D02*
G75*
G03*
X87112500Y-70300000I-437500J0D01*
G01*
X92192500Y-113480000D02*
G75*
G03*
X92192500Y-113480000I-437500J0D01*
G01*
X82032500Y-88080000D02*
G75*
G03*
X82032500Y-88080000I-437500J0D01*
G01*
X127752500Y-65220000D02*
G75*
G03*
X127752500Y-65220000I-437500J0D01*
G01*
X79492500Y-126180000D02*
G75*
G03*
X79492500Y-126180000I-437500J0D01*
G01*
X79492500Y-133800000D02*
G75*
G03*
X79492500Y-133800000I-437500J0D01*
G01*
X79492500Y-75380000D02*
G75*
G03*
X79492500Y-75380000I-437500J0D01*
G01*
X117592500Y-141420000D02*
G75*
G03*
X117592500Y-141420000I-437500J0D01*
G01*
X115052500Y-121100000D02*
G75*
G03*
X115052500Y-121100000I-437500J0D01*
G01*
X94732500Y-113480000D02*
G75*
G03*
X94732500Y-113480000I-437500J0D01*
G01*
X84572500Y-83000000D02*
G75*
G03*
X84572500Y-83000000I-437500J0D01*
G01*
X76952500Y-133800000D02*
G75*
G03*
X76952500Y-133800000I-437500J0D01*
G01*
X132832500Y-70300000D02*
G75*
G03*
X132832500Y-70300000I-437500J0D01*
G01*
X82032500Y-131260000D02*
G75*
G03*
X82032500Y-131260000I-437500J0D01*
G01*
X97272500Y-118560000D02*
G75*
G03*
X97272500Y-118560000I-437500J0D01*
G01*
X97272500Y-123640000D02*
G75*
G03*
X97272500Y-123640000I-437500J0D01*
G01*
X125212500Y-136340000D02*
G75*
G03*
X125212500Y-136340000I-437500J0D01*
G01*
X79492500Y-116020000D02*
G75*
G03*
X79492500Y-116020000I-437500J0D01*
G01*
X137912500Y-85540000D02*
G75*
G03*
X137912500Y-85540000I-437500J0D01*
G01*
X89652500Y-121100000D02*
G75*
G03*
X89652500Y-121100000I-437500J0D01*
G01*
X122672500Y-118560000D02*
G75*
G03*
X122672500Y-118560000I-437500J0D01*
G01*
X87112500Y-88080000D02*
G75*
G03*
X87112500Y-88080000I-437500J0D01*
G01*
X94732500Y-80460000D02*
G75*
G03*
X94732500Y-80460000I-437500J0D01*
G01*
X76952500Y-72840000D02*
G75*
G03*
X76952500Y-72840000I-437500J0D01*
G01*
X137912500Y-75380000D02*
G75*
G03*
X137912500Y-75380000I-437500J0D01*
G01*
X82032500Y-77920000D02*
G75*
G03*
X82032500Y-77920000I-437500J0D01*
G01*
X87112500Y-110940000D02*
G75*
G03*
X87112500Y-110940000I-437500J0D01*
G01*
X97272500Y-67760000D02*
G75*
G03*
X97272500Y-67760000I-437500J0D01*
G01*
X94732500Y-70300000D02*
G75*
G03*
X94732500Y-70300000I-437500J0D01*
G01*
X92192500Y-77920000D02*
G75*
G03*
X92192500Y-77920000I-437500J0D01*
G01*
X140452500Y-80460000D02*
G75*
G03*
X140452500Y-80460000I-437500J0D01*
G01*
X122672500Y-121100000D02*
G75*
G03*
X122672500Y-121100000I-437500J0D01*
G01*
X76952500Y-83000000D02*
G75*
G03*
X76952500Y-83000000I-437500J0D01*
G01*
X130292500Y-75380000D02*
G75*
G03*
X130292500Y-75380000I-437500J0D01*
G01*
X104892500Y-67760000D02*
G75*
G03*
X104892500Y-67760000I-437500J0D01*
G01*
X94732500Y-105860000D02*
G75*
G03*
X94732500Y-105860000I-437500J0D01*
G01*
X130292500Y-67760000D02*
G75*
G03*
X130292500Y-67760000I-437500J0D01*
G01*
X130292500Y-65220000D02*
G75*
G03*
X130292500Y-65220000I-437500J0D01*
G01*
X102352500Y-67760000D02*
G75*
G03*
X102352500Y-67760000I-437500J0D01*
G01*
X79492500Y-110940000D02*
G75*
G03*
X79492500Y-110940000I-437500J0D01*
G01*
X117592500Y-138880000D02*
G75*
G03*
X117592500Y-138880000I-437500J0D01*
G01*
X140452500Y-65220000D02*
G75*
G03*
X140452500Y-65220000I-437500J0D01*
G01*
X135372500Y-80460000D02*
G75*
G03*
X135372500Y-80460000I-437500J0D01*
G01*
X109972500Y-75380000D02*
G75*
G03*
X109972500Y-75380000I-437500J0D01*
G01*
X137912500Y-121100000D02*
G75*
G03*
X137912500Y-121100000I-437500J0D01*
G01*
X122672500Y-83000000D02*
G75*
G03*
X122672500Y-83000000I-437500J0D01*
G01*
X84572500Y-95700000D02*
G75*
G03*
X84572500Y-95700000I-437500J0D01*
G01*
X117592500Y-136340000D02*
G75*
G03*
X117592500Y-136340000I-437500J0D01*
G01*
X127752500Y-116020000D02*
G75*
G03*
X127752500Y-116020000I-437500J0D01*
G01*
X87112500Y-128720000D02*
G75*
G03*
X87112500Y-128720000I-437500J0D01*
G01*
X76952500Y-110940000D02*
G75*
G03*
X76952500Y-110940000I-437500J0D01*
G01*
X107432500Y-70300000D02*
G75*
G03*
X107432500Y-70300000I-437500J0D01*
G01*
X87112500Y-118560000D02*
G75*
G03*
X87112500Y-118560000I-437500J0D01*
G01*
X135372500Y-62680000D02*
G75*
G03*
X135372500Y-62680000I-437500J0D01*
G01*
X89652500Y-67760000D02*
G75*
G03*
X89652500Y-67760000I-437500J0D01*
G01*
X99812500Y-70300000D02*
G75*
G03*
X99812500Y-70300000I-437500J0D01*
G01*
X87112500Y-108400000D02*
G75*
G03*
X87112500Y-108400000I-437500J0D01*
G01*
X92192500Y-128720000D02*
G75*
G03*
X92192500Y-128720000I-437500J0D01*
G01*
X94732500Y-123640000D02*
G75*
G03*
X94732500Y-123640000I-437500J0D01*
G01*
X120132500Y-83000000D02*
G75*
G03*
X120132500Y-83000000I-437500J0D01*
G01*
X122672500Y-128720000D02*
G75*
G03*
X122672500Y-128720000I-437500J0D01*
G01*
X102352500Y-75380000D02*
G75*
G03*
X102352500Y-75380000I-437500J0D01*
G01*
X97272500Y-83000000D02*
G75*
G03*
X97272500Y-83000000I-437500J0D01*
G01*
X87112500Y-67760000D02*
G75*
G03*
X87112500Y-67760000I-437500J0D01*
G01*
X115052500Y-72840000D02*
G75*
G03*
X115052500Y-72840000I-437500J0D01*
G01*
X125212500Y-118560000D02*
G75*
G03*
X125212500Y-118560000I-437500J0D01*
G01*
X117592500Y-65220000D02*
G75*
G03*
X117592500Y-65220000I-437500J0D01*
G01*
X89652500Y-110940000D02*
G75*
G03*
X89652500Y-110940000I-437500J0D01*
G01*
X92192500Y-67760000D02*
G75*
G03*
X92192500Y-67760000I-437500J0D01*
G01*
X92192500Y-123640000D02*
G75*
G03*
X92192500Y-123640000I-437500J0D01*
G01*
X142992500Y-72840000D02*
G75*
G03*
X142992500Y-72840000I-437500J0D01*
G01*
X76952500Y-93160000D02*
G75*
G03*
X76952500Y-93160000I-437500J0D01*
G01*
X79492500Y-128720000D02*
G75*
G03*
X79492500Y-128720000I-437500J0D01*
G01*
X137912500Y-67760000D02*
G75*
G03*
X137912500Y-67760000I-437500J0D01*
G01*
X92192500Y-118560000D02*
G75*
G03*
X92192500Y-118560000I-437500J0D01*
G01*
X79492500Y-83000000D02*
G75*
G03*
X79492500Y-83000000I-437500J0D01*
G01*
X125212500Y-70300000D02*
G75*
G03*
X125212500Y-70300000I-437500J0D01*
G01*
X87112500Y-77920000D02*
G75*
G03*
X87112500Y-77920000I-437500J0D01*
G01*
X120132500Y-128720000D02*
G75*
G03*
X120132500Y-128720000I-437500J0D01*
G01*
X89652500Y-70300000D02*
G75*
G03*
X89652500Y-70300000I-437500J0D01*
G01*
X84572500Y-77920000D02*
G75*
G03*
X84572500Y-77920000I-437500J0D01*
G01*
X97272500Y-80460000D02*
G75*
G03*
X97272500Y-80460000I-437500J0D01*
G01*
X132832500Y-77920000D02*
G75*
G03*
X132832500Y-77920000I-437500J0D01*
G01*
X87112500Y-113480000D02*
G75*
G03*
X87112500Y-113480000I-437500J0D01*
G01*
X137912500Y-72840000D02*
G75*
G03*
X137912500Y-72840000I-437500J0D01*
G01*
X97272500Y-131260000D02*
G75*
G03*
X97272500Y-131260000I-437500J0D01*
G01*
X109972500Y-67760000D02*
G75*
G03*
X109972500Y-67760000I-437500J0D01*
G01*
X104892500Y-70300000D02*
G75*
G03*
X104892500Y-70300000I-437500J0D01*
G01*
X92192500Y-110940000D02*
G75*
G03*
X92192500Y-110940000I-437500J0D01*
G01*
X137912500Y-90620000D02*
G75*
G03*
X137912500Y-90620000I-437500J0D01*
G01*
X117592500Y-118560000D02*
G75*
G03*
X117592500Y-118560000I-437500J0D01*
G01*
X104892500Y-118560000D02*
G75*
G03*
X104892500Y-118560000I-437500J0D01*
G01*
X82032500Y-90620000D02*
G75*
G03*
X82032500Y-90620000I-437500J0D01*
G01*
D12*
%TO.C,J305*%
X185000000Y-130000000D03*
%TD*%
D13*
%TO.C,H303*%
X157000000Y-118000000D03*
%TD*%
D14*
%TO.C,J301*%
X185000000Y-70000000D03*
%TD*%
D13*
%TO.C,H306*%
X170000000Y-95000000D03*
%TD*%
D15*
%TO.C,J1*%
X227240000Y-144450000D03*
X227240000Y-55550000D03*
D16*
X224700000Y-63170000D03*
D17*
X224700000Y-68250000D03*
X224700000Y-73330000D03*
X224700000Y-78410000D03*
X224700000Y-83490000D03*
X224700000Y-88570000D03*
X224700000Y-93650000D03*
X224700000Y-98730000D03*
X224700000Y-103810000D03*
X224700000Y-108890000D03*
X224700000Y-113970000D03*
X224700000Y-119050000D03*
X224700000Y-124130000D03*
X224700000Y-129210000D03*
X224700000Y-134290000D03*
X224700000Y-139370000D03*
X219620000Y-63170000D03*
X219620000Y-68250000D03*
X219620000Y-73330000D03*
X219620000Y-78410000D03*
X219620000Y-83490000D03*
X219620000Y-88570000D03*
X219620000Y-93650000D03*
X219620000Y-98730000D03*
X219620000Y-103810000D03*
X219620000Y-108890000D03*
X219620000Y-113970000D03*
X219620000Y-119050000D03*
X219620000Y-124130000D03*
X219620000Y-129210000D03*
X219620000Y-134290000D03*
X219620000Y-139370000D03*
%TD*%
D18*
%TO.C,R211*%
X119695000Y-126180000D03*
X123495000Y-126180000D03*
%TD*%
%TO.C,R216*%
X114615000Y-138880000D03*
X114615000Y-142680000D03*
%TD*%
D13*
%TO.C,H304*%
X170000000Y-105000000D03*
%TD*%
D14*
%TO.C,J6*%
X140335000Y-111760000D03*
%TD*%
D18*
%TO.C,R206*%
X104455000Y-138880000D03*
X104455000Y-142680000D03*
%TD*%
%TO.C,R212*%
X94295000Y-131260000D03*
X90495000Y-131260000D03*
%TD*%
D13*
%TO.C,H302*%
X180000000Y-105000000D03*
%TD*%
D19*
%TO.C,C302*%
X209000000Y-62000000D03*
D20*
X209000000Y-69500000D03*
%TD*%
D18*
%TO.C,R219*%
X109535000Y-138880000D03*
X109535000Y-142680000D03*
%TD*%
D13*
%TO.C,H301*%
X193000000Y-118000000D03*
%TD*%
D14*
%TO.C,J4*%
X80375000Y-100000000D03*
%TD*%
%TO.C,J2*%
X134620000Y-111760000D03*
%TD*%
D13*
%TO.C,H308*%
X180000000Y-95000000D03*
%TD*%
D14*
%TO.C,J3*%
X134620000Y-116840000D03*
%TD*%
D21*
%TO.C,U202*%
X110000000Y-97085000D03*
D22*
X107935248Y-97940248D03*
X107080000Y-100005000D03*
X107935248Y-102069752D03*
X110000000Y-102925000D03*
X112064752Y-102069752D03*
X112920000Y-100005000D03*
X112064752Y-97940248D03*
%TD*%
D14*
%TO.C,J302*%
X175000000Y-71000000D03*
%TD*%
D18*
%TO.C,R215*%
X89175000Y-100000000D03*
X85375000Y-100000000D03*
%TD*%
D23*
%TO.C,RN201*%
X99375000Y-133800000D03*
D24*
X101915000Y-133800000D03*
X104455000Y-133800000D03*
X106995000Y-133800000D03*
X109535000Y-133800000D03*
X112075000Y-133800000D03*
X114615000Y-133800000D03*
X114615000Y-126180000D03*
X112075000Y-126180000D03*
X109535000Y-126180000D03*
X106995000Y-126180000D03*
X104455000Y-126180000D03*
X101915000Y-126180000D03*
X99375000Y-126180000D03*
%TD*%
D12*
%TO.C,J304*%
X165000000Y-130000000D03*
%TD*%
D18*
%TO.C,R209*%
X94295000Y-126180000D03*
X90495000Y-126180000D03*
%TD*%
D14*
%TO.C,J7*%
X140335000Y-116840000D03*
%TD*%
D18*
%TO.C,R205*%
X119695000Y-131260000D03*
X123495000Y-131260000D03*
%TD*%
D13*
%TO.C,H305*%
X157000000Y-82000000D03*
%TD*%
%TO.C,H307*%
X193000000Y-82000000D03*
%TD*%
D14*
%TO.C,J303*%
X165000000Y-70000000D03*
%TD*%
D25*
%TO.C,JP212*%
X93107500Y-131260000D03*
D26*
X91807500Y-131260000D03*
%TD*%
D25*
%TO.C,JP215*%
X87925000Y-100000000D03*
D26*
X86625000Y-100000000D03*
%TD*%
D27*
%TO.C,JP216*%
X114615000Y-140067500D03*
D28*
X114615000Y-141367500D03*
%TD*%
D25*
%TO.C,JP209*%
X93045000Y-126180000D03*
D26*
X91745000Y-126180000D03*
%TD*%
D27*
%TO.C,JP219*%
X109535000Y-140130000D03*
D28*
X109535000Y-141430000D03*
%TD*%
D29*
%TO.C,JP205*%
X120929500Y-131260000D03*
D30*
X122229500Y-131260000D03*
%TD*%
D27*
%TO.C,JP206*%
X104455000Y-140067500D03*
D28*
X104455000Y-141367500D03*
%TD*%
D29*
%TO.C,JP211*%
X120945000Y-126180000D03*
D30*
X122245000Y-126180000D03*
%TD*%
M02*
