%TF.GenerationSoftware,KiCad,Pcbnew,(6.0.0)*%
%TF.CreationDate,2022-01-14T15:12:54+01:00*%
%TF.ProjectId,ADRmu,4144526d-752e-46b6-9963-61645f706362,rev?*%
%TF.SameCoordinates,Original*%
%TF.FileFunction,Legend,Top*%
%TF.FilePolarity,Positive*%
%FSLAX46Y46*%
G04 Gerber Fmt 4.6, Leading zero omitted, Abs format (unit mm)*
G04 Created by KiCad (PCBNEW (6.0.0)) date 2022-01-14 15:12:54*
%MOMM*%
%LPD*%
G01*
G04 APERTURE LIST*
%ADD10C,0.150000*%
%ADD11C,0.300000*%
%ADD12C,0.125000*%
%ADD13C,0.120000*%
G04 APERTURE END LIST*
D10*
X171909830Y-109510565D02*
X165000000Y-130000000D01*
X177079117Y-109781476D02*
X177404155Y-122874004D01*
X172920883Y-109781476D02*
X167892609Y-121874300D01*
X122000000Y-100000000D02*
G75*
G03*
X122000000Y-100000000I-12000000J0D01*
G01*
X178583679Y-90664196D02*
X180564204Y-77683199D01*
X172580781Y-90297043D02*
X172197006Y-77171438D01*
X172920883Y-109781476D02*
X170218031Y-122497395D01*
X182107391Y-121874300D02*
X185000000Y-130000000D01*
X173954715Y-109945219D02*
X172595845Y-122874004D01*
X150000000Y-65000000D02*
X200000000Y-65000000D01*
X171909830Y-109510565D02*
X167892609Y-121874300D01*
X172580781Y-90297043D02*
X169435796Y-77683199D01*
X178090170Y-109510565D02*
X182107391Y-121874300D01*
X177079117Y-109781476D02*
X179781969Y-122497395D01*
X166757538Y-78527650D02*
X165000000Y-70000000D01*
X173781307Y-90074538D02*
X172197006Y-77171438D01*
X176218693Y-90074538D02*
X175000000Y-77000000D01*
X183242462Y-78527650D02*
X185000000Y-70000000D01*
X177419219Y-90297043D02*
X180564204Y-77683199D01*
X197000000Y-100000000D02*
G75*
G03*
X197000000Y-100000000I-22000000J0D01*
G01*
X178090170Y-109510565D02*
X179781969Y-122497395D01*
X176045285Y-109945219D02*
X175000000Y-123000000D01*
X171416321Y-90664196D02*
X166757538Y-78527650D01*
X155875000Y-54000000D02*
X155709252Y-57658000D01*
X178583679Y-90664196D02*
X183242462Y-78527650D01*
X200000000Y-135000000D02*
X150000000Y-135000000D01*
X171416321Y-90664196D02*
X169435796Y-77683199D01*
X177419219Y-90297043D02*
X177802994Y-77171438D01*
X175000000Y-110000000D02*
X175000000Y-123000000D01*
X173954715Y-109945219D02*
X170218031Y-122497395D01*
X175000000Y-110000000D02*
X172595845Y-122874004D01*
X150000000Y-135000000D02*
X150000000Y-65000000D01*
X200000000Y-65000000D02*
X200000000Y-135000000D01*
X175000000Y-77000000D02*
X175000000Y-71000000D01*
X176045285Y-109945219D02*
X177404155Y-122874004D01*
X173781307Y-90074538D02*
X175000000Y-77000000D01*
X186000000Y-100000000D02*
G75*
G03*
X186000000Y-100000000I-11000000J0D01*
G01*
X176218693Y-90074538D02*
X177802994Y-77171438D01*
D11*
X202749000Y-133170857D02*
X202749000Y-132456571D01*
X203177571Y-133313714D02*
X201677571Y-132813714D01*
X203177571Y-132313714D01*
X203177571Y-131813714D02*
X201677571Y-131813714D01*
X201677571Y-131456571D01*
X201749000Y-131242285D01*
X201891857Y-131099428D01*
X202034714Y-131028000D01*
X202320428Y-130956571D01*
X202534714Y-130956571D01*
X202820428Y-131028000D01*
X202963285Y-131099428D01*
X203106142Y-131242285D01*
X203177571Y-131456571D01*
X203177571Y-131813714D01*
X203177571Y-129456571D02*
X202463285Y-129956571D01*
X203177571Y-130313714D02*
X201677571Y-130313714D01*
X201677571Y-129742285D01*
X201749000Y-129599428D01*
X201820428Y-129528000D01*
X201963285Y-129456571D01*
X202177571Y-129456571D01*
X202320428Y-129528000D01*
X202391857Y-129599428D01*
X202463285Y-129742285D01*
X202463285Y-130313714D01*
X203177571Y-128813714D02*
X202177571Y-128813714D01*
X202320428Y-128813714D02*
X202249000Y-128742285D01*
X202177571Y-128599428D01*
X202177571Y-128385142D01*
X202249000Y-128242285D01*
X202391857Y-128170857D01*
X203177571Y-128170857D01*
X202391857Y-128170857D02*
X202249000Y-128099428D01*
X202177571Y-127956571D01*
X202177571Y-127742285D01*
X202249000Y-127599428D01*
X202391857Y-127528000D01*
X203177571Y-127528000D01*
X202177571Y-126170857D02*
X203177571Y-126170857D01*
X202177571Y-126813714D02*
X202963285Y-126813714D01*
X203106142Y-126742285D01*
X203177571Y-126599428D01*
X203177571Y-126385142D01*
X203106142Y-126242285D01*
X203034714Y-126170857D01*
X203177571Y-123528000D02*
X203177571Y-124385142D01*
X203177571Y-123956571D02*
X201677571Y-123956571D01*
X201891857Y-124099428D01*
X202034714Y-124242285D01*
X202106142Y-124385142D01*
X201677571Y-122599428D02*
X201677571Y-122456571D01*
X201749000Y-122313714D01*
X201820428Y-122242285D01*
X201963285Y-122170857D01*
X202249000Y-122099428D01*
X202606142Y-122099428D01*
X202891857Y-122170857D01*
X203034714Y-122242285D01*
X203106142Y-122313714D01*
X203177571Y-122456571D01*
X203177571Y-122599428D01*
X203106142Y-122742285D01*
X203034714Y-122813714D01*
X202891857Y-122885142D01*
X202606142Y-122956571D01*
X202249000Y-122956571D01*
X201963285Y-122885142D01*
X201820428Y-122813714D01*
X201749000Y-122742285D01*
X201677571Y-122599428D01*
X201677571Y-121670857D02*
X203177571Y-121170857D01*
X201677571Y-120670857D01*
X203106142Y-119099428D02*
X203177571Y-118885142D01*
X203177571Y-118528000D01*
X203106142Y-118385142D01*
X203034714Y-118313714D01*
X202891857Y-118242285D01*
X202749000Y-118242285D01*
X202606142Y-118313714D01*
X202534714Y-118385142D01*
X202463285Y-118528000D01*
X202391857Y-118813714D01*
X202320428Y-118956571D01*
X202249000Y-119028000D01*
X202106142Y-119099428D01*
X201963285Y-119099428D01*
X201820428Y-119028000D01*
X201749000Y-118956571D01*
X201677571Y-118813714D01*
X201677571Y-118456571D01*
X201749000Y-118242285D01*
X202177571Y-117813714D02*
X202177571Y-117242285D01*
X201677571Y-117599428D02*
X202963285Y-117599428D01*
X203106142Y-117528000D01*
X203177571Y-117385142D01*
X203177571Y-117242285D01*
X203177571Y-116099428D02*
X202391857Y-116099428D01*
X202249000Y-116170857D01*
X202177571Y-116313714D01*
X202177571Y-116599428D01*
X202249000Y-116742285D01*
X203106142Y-116099428D02*
X203177571Y-116242285D01*
X203177571Y-116599428D01*
X203106142Y-116742285D01*
X202963285Y-116813714D01*
X202820428Y-116813714D01*
X202677571Y-116742285D01*
X202606142Y-116599428D01*
X202606142Y-116242285D01*
X202534714Y-116099428D01*
X202177571Y-115385142D02*
X203177571Y-115385142D01*
X202320428Y-115385142D02*
X202249000Y-115313714D01*
X202177571Y-115170857D01*
X202177571Y-114956571D01*
X202249000Y-114813714D01*
X202391857Y-114742285D01*
X203177571Y-114742285D01*
X203177571Y-113385142D02*
X201677571Y-113385142D01*
X203106142Y-113385142D02*
X203177571Y-113528000D01*
X203177571Y-113813714D01*
X203106142Y-113956571D01*
X203034714Y-114028000D01*
X202891857Y-114099428D01*
X202463285Y-114099428D01*
X202320428Y-114028000D01*
X202249000Y-113956571D01*
X202177571Y-113813714D01*
X202177571Y-113528000D01*
X202249000Y-113385142D01*
X203177571Y-112028000D02*
X202391857Y-112028000D01*
X202249000Y-112099428D01*
X202177571Y-112242285D01*
X202177571Y-112528000D01*
X202249000Y-112670857D01*
X203106142Y-112028000D02*
X203177571Y-112170857D01*
X203177571Y-112528000D01*
X203106142Y-112670857D01*
X202963285Y-112742285D01*
X202820428Y-112742285D01*
X202677571Y-112670857D01*
X202606142Y-112528000D01*
X202606142Y-112170857D01*
X202534714Y-112028000D01*
X203177571Y-111313714D02*
X202177571Y-111313714D01*
X202463285Y-111313714D02*
X202320428Y-111242285D01*
X202249000Y-111170857D01*
X202177571Y-111028000D01*
X202177571Y-110885142D01*
X203177571Y-109742285D02*
X201677571Y-109742285D01*
X203106142Y-109742285D02*
X203177571Y-109885142D01*
X203177571Y-110170857D01*
X203106142Y-110313714D01*
X203034714Y-110385142D01*
X202891857Y-110456571D01*
X202463285Y-110456571D01*
X202320428Y-110385142D01*
X202249000Y-110313714D01*
X202177571Y-110170857D01*
X202177571Y-109885142D01*
X202249000Y-109742285D01*
X203177571Y-107028000D02*
X202463285Y-107528000D01*
X203177571Y-107885142D02*
X201677571Y-107885142D01*
X201677571Y-107313714D01*
X201749000Y-107170857D01*
X201820428Y-107099428D01*
X201963285Y-107028000D01*
X202177571Y-107028000D01*
X202320428Y-107099428D01*
X202391857Y-107170857D01*
X202463285Y-107313714D01*
X202463285Y-107885142D01*
X203106142Y-105813714D02*
X203177571Y-105956571D01*
X203177571Y-106242285D01*
X203106142Y-106385142D01*
X202963285Y-106456571D01*
X202391857Y-106456571D01*
X202249000Y-106385142D01*
X202177571Y-106242285D01*
X202177571Y-105956571D01*
X202249000Y-105813714D01*
X202391857Y-105742285D01*
X202534714Y-105742285D01*
X202677571Y-106456571D01*
X202177571Y-105242285D02*
X203177571Y-104885142D01*
X202177571Y-104528000D01*
X201677571Y-102528000D02*
X201677571Y-102385142D01*
X201749000Y-102242285D01*
X201820428Y-102170857D01*
X201963285Y-102099428D01*
X202249000Y-102028000D01*
X202606142Y-102028000D01*
X202891857Y-102099428D01*
X203034714Y-102170857D01*
X203106142Y-102242285D01*
X203177571Y-102385142D01*
X203177571Y-102528000D01*
X203106142Y-102670857D01*
X203034714Y-102742285D01*
X202891857Y-102813714D01*
X202606142Y-102885142D01*
X202249000Y-102885142D01*
X201963285Y-102813714D01*
X201820428Y-102742285D01*
X201749000Y-102670857D01*
X201677571Y-102528000D01*
X203034714Y-101385142D02*
X203106142Y-101313714D01*
X203177571Y-101385142D01*
X203106142Y-101456571D01*
X203034714Y-101385142D01*
X203177571Y-101385142D01*
X203177571Y-99885142D02*
X203177571Y-100742285D01*
X203177571Y-100313714D02*
X201677571Y-100313714D01*
X201891857Y-100456571D01*
X202034714Y-100599428D01*
X202106142Y-100742285D01*
D10*
%TO.C,R306*%
X147155952Y-59052380D02*
X146822619Y-58576190D01*
X146584523Y-59052380D02*
X146584523Y-58052380D01*
X146965476Y-58052380D01*
X147060714Y-58100000D01*
X147108333Y-58147619D01*
X147155952Y-58242857D01*
X147155952Y-58385714D01*
X147108333Y-58480952D01*
X147060714Y-58528571D01*
X146965476Y-58576190D01*
X146584523Y-58576190D01*
X147489285Y-58052380D02*
X148108333Y-58052380D01*
X147775000Y-58433333D01*
X147917857Y-58433333D01*
X148013095Y-58480952D01*
X148060714Y-58528571D01*
X148108333Y-58623809D01*
X148108333Y-58861904D01*
X148060714Y-58957142D01*
X148013095Y-59004761D01*
X147917857Y-59052380D01*
X147632142Y-59052380D01*
X147536904Y-59004761D01*
X147489285Y-58957142D01*
X148727380Y-58052380D02*
X148822619Y-58052380D01*
X148917857Y-58100000D01*
X148965476Y-58147619D01*
X149013095Y-58242857D01*
X149060714Y-58433333D01*
X149060714Y-58671428D01*
X149013095Y-58861904D01*
X148965476Y-58957142D01*
X148917857Y-59004761D01*
X148822619Y-59052380D01*
X148727380Y-59052380D01*
X148632142Y-59004761D01*
X148584523Y-58957142D01*
X148536904Y-58861904D01*
X148489285Y-58671428D01*
X148489285Y-58433333D01*
X148536904Y-58242857D01*
X148584523Y-58147619D01*
X148632142Y-58100000D01*
X148727380Y-58052380D01*
X149917857Y-58052380D02*
X149727380Y-58052380D01*
X149632142Y-58100000D01*
X149584523Y-58147619D01*
X149489285Y-58290476D01*
X149441666Y-58480952D01*
X149441666Y-58861904D01*
X149489285Y-58957142D01*
X149536904Y-59004761D01*
X149632142Y-59052380D01*
X149822619Y-59052380D01*
X149917857Y-59004761D01*
X149965476Y-58957142D01*
X150013095Y-58861904D01*
X150013095Y-58623809D01*
X149965476Y-58528571D01*
X149917857Y-58480952D01*
X149822619Y-58433333D01*
X149632142Y-58433333D01*
X149536904Y-58480952D01*
X149489285Y-58528571D01*
X149441666Y-58623809D01*
%TO.C,R302*%
X215288952Y-59126380D02*
X214955619Y-58650190D01*
X214717523Y-59126380D02*
X214717523Y-58126380D01*
X215098476Y-58126380D01*
X215193714Y-58174000D01*
X215241333Y-58221619D01*
X215288952Y-58316857D01*
X215288952Y-58459714D01*
X215241333Y-58554952D01*
X215193714Y-58602571D01*
X215098476Y-58650190D01*
X214717523Y-58650190D01*
X215622285Y-58126380D02*
X216241333Y-58126380D01*
X215908000Y-58507333D01*
X216050857Y-58507333D01*
X216146095Y-58554952D01*
X216193714Y-58602571D01*
X216241333Y-58697809D01*
X216241333Y-58935904D01*
X216193714Y-59031142D01*
X216146095Y-59078761D01*
X216050857Y-59126380D01*
X215765142Y-59126380D01*
X215669904Y-59078761D01*
X215622285Y-59031142D01*
X216860380Y-58126380D02*
X216955619Y-58126380D01*
X217050857Y-58174000D01*
X217098476Y-58221619D01*
X217146095Y-58316857D01*
X217193714Y-58507333D01*
X217193714Y-58745428D01*
X217146095Y-58935904D01*
X217098476Y-59031142D01*
X217050857Y-59078761D01*
X216955619Y-59126380D01*
X216860380Y-59126380D01*
X216765142Y-59078761D01*
X216717523Y-59031142D01*
X216669904Y-58935904D01*
X216622285Y-58745428D01*
X216622285Y-58507333D01*
X216669904Y-58316857D01*
X216717523Y-58221619D01*
X216765142Y-58174000D01*
X216860380Y-58126380D01*
X217574666Y-58221619D02*
X217622285Y-58174000D01*
X217717523Y-58126380D01*
X217955619Y-58126380D01*
X218050857Y-58174000D01*
X218098476Y-58221619D01*
X218146095Y-58316857D01*
X218146095Y-58412095D01*
X218098476Y-58554952D01*
X217527047Y-59126380D01*
X218146095Y-59126380D01*
%TO.C,R201*%
X103335952Y-66052380D02*
X103002619Y-65576190D01*
X102764523Y-66052380D02*
X102764523Y-65052380D01*
X103145476Y-65052380D01*
X103240714Y-65100000D01*
X103288333Y-65147619D01*
X103335952Y-65242857D01*
X103335952Y-65385714D01*
X103288333Y-65480952D01*
X103240714Y-65528571D01*
X103145476Y-65576190D01*
X102764523Y-65576190D01*
X103716904Y-65147619D02*
X103764523Y-65100000D01*
X103859761Y-65052380D01*
X104097857Y-65052380D01*
X104193095Y-65100000D01*
X104240714Y-65147619D01*
X104288333Y-65242857D01*
X104288333Y-65338095D01*
X104240714Y-65480952D01*
X103669285Y-66052380D01*
X104288333Y-66052380D01*
X104907380Y-65052380D02*
X105002619Y-65052380D01*
X105097857Y-65100000D01*
X105145476Y-65147619D01*
X105193095Y-65242857D01*
X105240714Y-65433333D01*
X105240714Y-65671428D01*
X105193095Y-65861904D01*
X105145476Y-65957142D01*
X105097857Y-66004761D01*
X105002619Y-66052380D01*
X104907380Y-66052380D01*
X104812142Y-66004761D01*
X104764523Y-65957142D01*
X104716904Y-65861904D01*
X104669285Y-65671428D01*
X104669285Y-65433333D01*
X104716904Y-65242857D01*
X104764523Y-65147619D01*
X104812142Y-65100000D01*
X104907380Y-65052380D01*
X106193095Y-66052380D02*
X105621666Y-66052380D01*
X105907380Y-66052380D02*
X105907380Y-65052380D01*
X105812142Y-65195238D01*
X105716904Y-65290476D01*
X105621666Y-65338095D01*
%TO.C,D306*%
X74620380Y-73290476D02*
X73620380Y-73290476D01*
X73620380Y-73052380D01*
X73668000Y-72909523D01*
X73763238Y-72814285D01*
X73858476Y-72766666D01*
X74048952Y-72719047D01*
X74191809Y-72719047D01*
X74382285Y-72766666D01*
X74477523Y-72814285D01*
X74572761Y-72909523D01*
X74620380Y-73052380D01*
X74620380Y-73290476D01*
X73620380Y-72385714D02*
X73620380Y-71766666D01*
X74001333Y-72100000D01*
X74001333Y-71957142D01*
X74048952Y-71861904D01*
X74096571Y-71814285D01*
X74191809Y-71766666D01*
X74429904Y-71766666D01*
X74525142Y-71814285D01*
X74572761Y-71861904D01*
X74620380Y-71957142D01*
X74620380Y-72242857D01*
X74572761Y-72338095D01*
X74525142Y-72385714D01*
X73620380Y-71147619D02*
X73620380Y-71052380D01*
X73668000Y-70957142D01*
X73715619Y-70909523D01*
X73810857Y-70861904D01*
X74001333Y-70814285D01*
X74239428Y-70814285D01*
X74429904Y-70861904D01*
X74525142Y-70909523D01*
X74572761Y-70957142D01*
X74620380Y-71052380D01*
X74620380Y-71147619D01*
X74572761Y-71242857D01*
X74525142Y-71290476D01*
X74429904Y-71338095D01*
X74239428Y-71385714D01*
X74001333Y-71385714D01*
X73810857Y-71338095D01*
X73715619Y-71290476D01*
X73668000Y-71242857D01*
X73620380Y-71147619D01*
X73620380Y-69957142D02*
X73620380Y-70147619D01*
X73668000Y-70242857D01*
X73715619Y-70290476D01*
X73858476Y-70385714D01*
X74048952Y-70433333D01*
X74429904Y-70433333D01*
X74525142Y-70385714D01*
X74572761Y-70338095D01*
X74620380Y-70242857D01*
X74620380Y-70052380D01*
X74572761Y-69957142D01*
X74525142Y-69909523D01*
X74429904Y-69861904D01*
X74191809Y-69861904D01*
X74096571Y-69909523D01*
X74048952Y-69957142D01*
X74001333Y-70052380D01*
X74001333Y-70242857D01*
X74048952Y-70338095D01*
X74096571Y-70385714D01*
X74191809Y-70433333D01*
%TO.C,R312*%
X148727380Y-128419047D02*
X148251190Y-128752380D01*
X148727380Y-128990476D02*
X147727380Y-128990476D01*
X147727380Y-128609523D01*
X147775000Y-128514285D01*
X147822619Y-128466666D01*
X147917857Y-128419047D01*
X148060714Y-128419047D01*
X148155952Y-128466666D01*
X148203571Y-128514285D01*
X148251190Y-128609523D01*
X148251190Y-128990476D01*
X147727380Y-128085714D02*
X147727380Y-127466666D01*
X148108333Y-127800000D01*
X148108333Y-127657142D01*
X148155952Y-127561904D01*
X148203571Y-127514285D01*
X148298809Y-127466666D01*
X148536904Y-127466666D01*
X148632142Y-127514285D01*
X148679761Y-127561904D01*
X148727380Y-127657142D01*
X148727380Y-127942857D01*
X148679761Y-128038095D01*
X148632142Y-128085714D01*
X148727380Y-126514285D02*
X148727380Y-127085714D01*
X148727380Y-126800000D02*
X147727380Y-126800000D01*
X147870238Y-126895238D01*
X147965476Y-126990476D01*
X148013095Y-127085714D01*
X147822619Y-126133333D02*
X147775000Y-126085714D01*
X147727380Y-125990476D01*
X147727380Y-125752380D01*
X147775000Y-125657142D01*
X147822619Y-125609523D01*
X147917857Y-125561904D01*
X148013095Y-125561904D01*
X148155952Y-125609523D01*
X148727380Y-126180952D01*
X148727380Y-125561904D01*
%TO.C,J305*%
X183714285Y-132602380D02*
X183714285Y-133316666D01*
X183666666Y-133459523D01*
X183571428Y-133554761D01*
X183428571Y-133602380D01*
X183333333Y-133602380D01*
X184095238Y-132602380D02*
X184714285Y-132602380D01*
X184380952Y-132983333D01*
X184523809Y-132983333D01*
X184619047Y-133030952D01*
X184666666Y-133078571D01*
X184714285Y-133173809D01*
X184714285Y-133411904D01*
X184666666Y-133507142D01*
X184619047Y-133554761D01*
X184523809Y-133602380D01*
X184238095Y-133602380D01*
X184142857Y-133554761D01*
X184095238Y-133507142D01*
X185333333Y-132602380D02*
X185428571Y-132602380D01*
X185523809Y-132650000D01*
X185571428Y-132697619D01*
X185619047Y-132792857D01*
X185666666Y-132983333D01*
X185666666Y-133221428D01*
X185619047Y-133411904D01*
X185571428Y-133507142D01*
X185523809Y-133554761D01*
X185428571Y-133602380D01*
X185333333Y-133602380D01*
X185238095Y-133554761D01*
X185190476Y-133507142D01*
X185142857Y-133411904D01*
X185095238Y-133221428D01*
X185095238Y-132983333D01*
X185142857Y-132792857D01*
X185190476Y-132697619D01*
X185238095Y-132650000D01*
X185333333Y-132602380D01*
X186571428Y-132602380D02*
X186095238Y-132602380D01*
X186047619Y-133078571D01*
X186095238Y-133030952D01*
X186190476Y-132983333D01*
X186428571Y-132983333D01*
X186523809Y-133030952D01*
X186571428Y-133078571D01*
X186619047Y-133173809D01*
X186619047Y-133411904D01*
X186571428Y-133507142D01*
X186523809Y-133554761D01*
X186428571Y-133602380D01*
X186190476Y-133602380D01*
X186095238Y-133554761D01*
X186047619Y-133507142D01*
%TO.C,JP201*%
X136104380Y-99575714D02*
X136818666Y-99575714D01*
X136961523Y-99623333D01*
X137056761Y-99718571D01*
X137104380Y-99861428D01*
X137104380Y-99956666D01*
X137104380Y-99099523D02*
X136104380Y-99099523D01*
X136104380Y-98718571D01*
X136152000Y-98623333D01*
X136199619Y-98575714D01*
X136294857Y-98528095D01*
X136437714Y-98528095D01*
X136532952Y-98575714D01*
X136580571Y-98623333D01*
X136628190Y-98718571D01*
X136628190Y-99099523D01*
X136199619Y-98147142D02*
X136152000Y-98099523D01*
X136104380Y-98004285D01*
X136104380Y-97766190D01*
X136152000Y-97670952D01*
X136199619Y-97623333D01*
X136294857Y-97575714D01*
X136390095Y-97575714D01*
X136532952Y-97623333D01*
X137104380Y-98194761D01*
X137104380Y-97575714D01*
X136104380Y-96956666D02*
X136104380Y-96861428D01*
X136152000Y-96766190D01*
X136199619Y-96718571D01*
X136294857Y-96670952D01*
X136485333Y-96623333D01*
X136723428Y-96623333D01*
X136913904Y-96670952D01*
X137009142Y-96718571D01*
X137056761Y-96766190D01*
X137104380Y-96861428D01*
X137104380Y-96956666D01*
X137056761Y-97051904D01*
X137009142Y-97099523D01*
X136913904Y-97147142D01*
X136723428Y-97194761D01*
X136485333Y-97194761D01*
X136294857Y-97147142D01*
X136199619Y-97099523D01*
X136152000Y-97051904D01*
X136104380Y-96956666D01*
X137104380Y-95670952D02*
X137104380Y-96242380D01*
X137104380Y-95956666D02*
X136104380Y-95956666D01*
X136247238Y-96051904D01*
X136342476Y-96147142D01*
X136390095Y-96242380D01*
%TO.C,J301*%
X183714285Y-66302380D02*
X183714285Y-67016666D01*
X183666666Y-67159523D01*
X183571428Y-67254761D01*
X183428571Y-67302380D01*
X183333333Y-67302380D01*
X184095238Y-66302380D02*
X184714285Y-66302380D01*
X184380952Y-66683333D01*
X184523809Y-66683333D01*
X184619047Y-66730952D01*
X184666666Y-66778571D01*
X184714285Y-66873809D01*
X184714285Y-67111904D01*
X184666666Y-67207142D01*
X184619047Y-67254761D01*
X184523809Y-67302380D01*
X184238095Y-67302380D01*
X184142857Y-67254761D01*
X184095238Y-67207142D01*
X185333333Y-66302380D02*
X185428571Y-66302380D01*
X185523809Y-66350000D01*
X185571428Y-66397619D01*
X185619047Y-66492857D01*
X185666666Y-66683333D01*
X185666666Y-66921428D01*
X185619047Y-67111904D01*
X185571428Y-67207142D01*
X185523809Y-67254761D01*
X185428571Y-67302380D01*
X185333333Y-67302380D01*
X185238095Y-67254761D01*
X185190476Y-67207142D01*
X185142857Y-67111904D01*
X185095238Y-66921428D01*
X185095238Y-66683333D01*
X185142857Y-66492857D01*
X185190476Y-66397619D01*
X185238095Y-66350000D01*
X185333333Y-66302380D01*
X186619047Y-67302380D02*
X186047619Y-67302380D01*
X186333333Y-67302380D02*
X186333333Y-66302380D01*
X186238095Y-66445238D01*
X186142857Y-66540476D01*
X186047619Y-66588095D01*
%TO.C,C204*%
X79398952Y-146915142D02*
X79351333Y-146962761D01*
X79208476Y-147010380D01*
X79113238Y-147010380D01*
X78970380Y-146962761D01*
X78875142Y-146867523D01*
X78827523Y-146772285D01*
X78779904Y-146581809D01*
X78779904Y-146438952D01*
X78827523Y-146248476D01*
X78875142Y-146153238D01*
X78970380Y-146058000D01*
X79113238Y-146010380D01*
X79208476Y-146010380D01*
X79351333Y-146058000D01*
X79398952Y-146105619D01*
X79779904Y-146105619D02*
X79827523Y-146058000D01*
X79922761Y-146010380D01*
X80160857Y-146010380D01*
X80256095Y-146058000D01*
X80303714Y-146105619D01*
X80351333Y-146200857D01*
X80351333Y-146296095D01*
X80303714Y-146438952D01*
X79732285Y-147010380D01*
X80351333Y-147010380D01*
X80970380Y-146010380D02*
X81065619Y-146010380D01*
X81160857Y-146058000D01*
X81208476Y-146105619D01*
X81256095Y-146200857D01*
X81303714Y-146391333D01*
X81303714Y-146629428D01*
X81256095Y-146819904D01*
X81208476Y-146915142D01*
X81160857Y-146962761D01*
X81065619Y-147010380D01*
X80970380Y-147010380D01*
X80875142Y-146962761D01*
X80827523Y-146915142D01*
X80779904Y-146819904D01*
X80732285Y-146629428D01*
X80732285Y-146391333D01*
X80779904Y-146200857D01*
X80827523Y-146105619D01*
X80875142Y-146058000D01*
X80970380Y-146010380D01*
X82160857Y-146343714D02*
X82160857Y-147010380D01*
X81922761Y-145962761D02*
X81684666Y-146677047D01*
X82303714Y-146677047D01*
%TO.C,R220*%
X136655952Y-145852380D02*
X136322619Y-145376190D01*
X136084523Y-145852380D02*
X136084523Y-144852380D01*
X136465476Y-144852380D01*
X136560714Y-144900000D01*
X136608333Y-144947619D01*
X136655952Y-145042857D01*
X136655952Y-145185714D01*
X136608333Y-145280952D01*
X136560714Y-145328571D01*
X136465476Y-145376190D01*
X136084523Y-145376190D01*
X137036904Y-144947619D02*
X137084523Y-144900000D01*
X137179761Y-144852380D01*
X137417857Y-144852380D01*
X137513095Y-144900000D01*
X137560714Y-144947619D01*
X137608333Y-145042857D01*
X137608333Y-145138095D01*
X137560714Y-145280952D01*
X136989285Y-145852380D01*
X137608333Y-145852380D01*
X137989285Y-144947619D02*
X138036904Y-144900000D01*
X138132142Y-144852380D01*
X138370238Y-144852380D01*
X138465476Y-144900000D01*
X138513095Y-144947619D01*
X138560714Y-145042857D01*
X138560714Y-145138095D01*
X138513095Y-145280952D01*
X137941666Y-145852380D01*
X138560714Y-145852380D01*
X139179761Y-144852380D02*
X139275000Y-144852380D01*
X139370238Y-144900000D01*
X139417857Y-144947619D01*
X139465476Y-145042857D01*
X139513095Y-145233333D01*
X139513095Y-145471428D01*
X139465476Y-145661904D01*
X139417857Y-145757142D01*
X139370238Y-145804761D01*
X139275000Y-145852380D01*
X139179761Y-145852380D01*
X139084523Y-145804761D01*
X139036904Y-145757142D01*
X138989285Y-145661904D01*
X138941666Y-145471428D01*
X138941666Y-145233333D01*
X138989285Y-145042857D01*
X139036904Y-144947619D01*
X139084523Y-144900000D01*
X139179761Y-144852380D01*
%TO.C,C307*%
X156732142Y-53219047D02*
X156779761Y-53266666D01*
X156827380Y-53409523D01*
X156827380Y-53504761D01*
X156779761Y-53647619D01*
X156684523Y-53742857D01*
X156589285Y-53790476D01*
X156398809Y-53838095D01*
X156255952Y-53838095D01*
X156065476Y-53790476D01*
X155970238Y-53742857D01*
X155875000Y-53647619D01*
X155827380Y-53504761D01*
X155827380Y-53409523D01*
X155875000Y-53266666D01*
X155922619Y-53219047D01*
X155827380Y-52885714D02*
X155827380Y-52266666D01*
X156208333Y-52600000D01*
X156208333Y-52457142D01*
X156255952Y-52361904D01*
X156303571Y-52314285D01*
X156398809Y-52266666D01*
X156636904Y-52266666D01*
X156732142Y-52314285D01*
X156779761Y-52361904D01*
X156827380Y-52457142D01*
X156827380Y-52742857D01*
X156779761Y-52838095D01*
X156732142Y-52885714D01*
X155827380Y-51647619D02*
X155827380Y-51552380D01*
X155875000Y-51457142D01*
X155922619Y-51409523D01*
X156017857Y-51361904D01*
X156208333Y-51314285D01*
X156446428Y-51314285D01*
X156636904Y-51361904D01*
X156732142Y-51409523D01*
X156779761Y-51457142D01*
X156827380Y-51552380D01*
X156827380Y-51647619D01*
X156779761Y-51742857D01*
X156732142Y-51790476D01*
X156636904Y-51838095D01*
X156446428Y-51885714D01*
X156208333Y-51885714D01*
X156017857Y-51838095D01*
X155922619Y-51790476D01*
X155875000Y-51742857D01*
X155827380Y-51647619D01*
X155827380Y-50980952D02*
X155827380Y-50314285D01*
X156827380Y-50742857D01*
%TO.C,D201*%
X90064523Y-84812380D02*
X90064523Y-83812380D01*
X90302619Y-83812380D01*
X90445476Y-83860000D01*
X90540714Y-83955238D01*
X90588333Y-84050476D01*
X90635952Y-84240952D01*
X90635952Y-84383809D01*
X90588333Y-84574285D01*
X90540714Y-84669523D01*
X90445476Y-84764761D01*
X90302619Y-84812380D01*
X90064523Y-84812380D01*
X91016904Y-83907619D02*
X91064523Y-83860000D01*
X91159761Y-83812380D01*
X91397857Y-83812380D01*
X91493095Y-83860000D01*
X91540714Y-83907619D01*
X91588333Y-84002857D01*
X91588333Y-84098095D01*
X91540714Y-84240952D01*
X90969285Y-84812380D01*
X91588333Y-84812380D01*
X92207380Y-83812380D02*
X92302619Y-83812380D01*
X92397857Y-83860000D01*
X92445476Y-83907619D01*
X92493095Y-84002857D01*
X92540714Y-84193333D01*
X92540714Y-84431428D01*
X92493095Y-84621904D01*
X92445476Y-84717142D01*
X92397857Y-84764761D01*
X92302619Y-84812380D01*
X92207380Y-84812380D01*
X92112142Y-84764761D01*
X92064523Y-84717142D01*
X92016904Y-84621904D01*
X91969285Y-84431428D01*
X91969285Y-84193333D01*
X92016904Y-84002857D01*
X92064523Y-83907619D01*
X92112142Y-83860000D01*
X92207380Y-83812380D01*
X93493095Y-84812380D02*
X92921666Y-84812380D01*
X93207380Y-84812380D02*
X93207380Y-83812380D01*
X93112142Y-83955238D01*
X93016904Y-84050476D01*
X92921666Y-84098095D01*
%TO.C,R305*%
X158827380Y-62419047D02*
X158351190Y-62752380D01*
X158827380Y-62990476D02*
X157827380Y-62990476D01*
X157827380Y-62609523D01*
X157875000Y-62514285D01*
X157922619Y-62466666D01*
X158017857Y-62419047D01*
X158160714Y-62419047D01*
X158255952Y-62466666D01*
X158303571Y-62514285D01*
X158351190Y-62609523D01*
X158351190Y-62990476D01*
X157827380Y-62085714D02*
X157827380Y-61466666D01*
X158208333Y-61800000D01*
X158208333Y-61657142D01*
X158255952Y-61561904D01*
X158303571Y-61514285D01*
X158398809Y-61466666D01*
X158636904Y-61466666D01*
X158732142Y-61514285D01*
X158779761Y-61561904D01*
X158827380Y-61657142D01*
X158827380Y-61942857D01*
X158779761Y-62038095D01*
X158732142Y-62085714D01*
X157827380Y-60847619D02*
X157827380Y-60752380D01*
X157875000Y-60657142D01*
X157922619Y-60609523D01*
X158017857Y-60561904D01*
X158208333Y-60514285D01*
X158446428Y-60514285D01*
X158636904Y-60561904D01*
X158732142Y-60609523D01*
X158779761Y-60657142D01*
X158827380Y-60752380D01*
X158827380Y-60847619D01*
X158779761Y-60942857D01*
X158732142Y-60990476D01*
X158636904Y-61038095D01*
X158446428Y-61085714D01*
X158208333Y-61085714D01*
X158017857Y-61038095D01*
X157922619Y-60990476D01*
X157875000Y-60942857D01*
X157827380Y-60847619D01*
X157827380Y-59609523D02*
X157827380Y-60085714D01*
X158303571Y-60133333D01*
X158255952Y-60085714D01*
X158208333Y-59990476D01*
X158208333Y-59752380D01*
X158255952Y-59657142D01*
X158303571Y-59609523D01*
X158398809Y-59561904D01*
X158636904Y-59561904D01*
X158732142Y-59609523D01*
X158779761Y-59657142D01*
X158827380Y-59752380D01*
X158827380Y-59990476D01*
X158779761Y-60085714D01*
X158732142Y-60133333D01*
D12*
%TO.C,JP224*%
X108581142Y-127742190D02*
X108581142Y-128099333D01*
X108557333Y-128170761D01*
X108509714Y-128218380D01*
X108438285Y-128242190D01*
X108390666Y-128242190D01*
X108819238Y-128242190D02*
X108819238Y-127742190D01*
X109009714Y-127742190D01*
X109057333Y-127766000D01*
X109081142Y-127789809D01*
X109104952Y-127837428D01*
X109104952Y-127908857D01*
X109081142Y-127956476D01*
X109057333Y-127980285D01*
X109009714Y-128004095D01*
X108819238Y-128004095D01*
X109295428Y-127789809D02*
X109319238Y-127766000D01*
X109366857Y-127742190D01*
X109485904Y-127742190D01*
X109533523Y-127766000D01*
X109557333Y-127789809D01*
X109581142Y-127837428D01*
X109581142Y-127885047D01*
X109557333Y-127956476D01*
X109271619Y-128242190D01*
X109581142Y-128242190D01*
X109771619Y-127789809D02*
X109795428Y-127766000D01*
X109843047Y-127742190D01*
X109962095Y-127742190D01*
X110009714Y-127766000D01*
X110033523Y-127789809D01*
X110057333Y-127837428D01*
X110057333Y-127885047D01*
X110033523Y-127956476D01*
X109747809Y-128242190D01*
X110057333Y-128242190D01*
X110485904Y-127908857D02*
X110485904Y-128242190D01*
X110366857Y-127718380D02*
X110247809Y-128075523D01*
X110557333Y-128075523D01*
D10*
%TO.C,J1*%
X223152380Y-55883333D02*
X223866666Y-55883333D01*
X224009523Y-55930952D01*
X224104761Y-56026190D01*
X224152380Y-56169047D01*
X224152380Y-56264285D01*
X224152380Y-54883333D02*
X224152380Y-55454761D01*
X224152380Y-55169047D02*
X223152380Y-55169047D01*
X223295238Y-55264285D01*
X223390476Y-55359523D01*
X223438095Y-55454761D01*
%TO.C,R211*%
X120475952Y-123782380D02*
X120142619Y-123306190D01*
X119904523Y-123782380D02*
X119904523Y-122782380D01*
X120285476Y-122782380D01*
X120380714Y-122830000D01*
X120428333Y-122877619D01*
X120475952Y-122972857D01*
X120475952Y-123115714D01*
X120428333Y-123210952D01*
X120380714Y-123258571D01*
X120285476Y-123306190D01*
X119904523Y-123306190D01*
X120856904Y-122877619D02*
X120904523Y-122830000D01*
X120999761Y-122782380D01*
X121237857Y-122782380D01*
X121333095Y-122830000D01*
X121380714Y-122877619D01*
X121428333Y-122972857D01*
X121428333Y-123068095D01*
X121380714Y-123210952D01*
X120809285Y-123782380D01*
X121428333Y-123782380D01*
X122380714Y-123782380D02*
X121809285Y-123782380D01*
X122095000Y-123782380D02*
X122095000Y-122782380D01*
X121999761Y-122925238D01*
X121904523Y-123020476D01*
X121809285Y-123068095D01*
X123333095Y-123782380D02*
X122761666Y-123782380D01*
X123047380Y-123782380D02*
X123047380Y-122782380D01*
X122952142Y-122925238D01*
X122856904Y-123020476D01*
X122761666Y-123068095D01*
%TO.C,R304*%
X182855952Y-62652380D02*
X182522619Y-62176190D01*
X182284523Y-62652380D02*
X182284523Y-61652380D01*
X182665476Y-61652380D01*
X182760714Y-61700000D01*
X182808333Y-61747619D01*
X182855952Y-61842857D01*
X182855952Y-61985714D01*
X182808333Y-62080952D01*
X182760714Y-62128571D01*
X182665476Y-62176190D01*
X182284523Y-62176190D01*
X183189285Y-61652380D02*
X183808333Y-61652380D01*
X183475000Y-62033333D01*
X183617857Y-62033333D01*
X183713095Y-62080952D01*
X183760714Y-62128571D01*
X183808333Y-62223809D01*
X183808333Y-62461904D01*
X183760714Y-62557142D01*
X183713095Y-62604761D01*
X183617857Y-62652380D01*
X183332142Y-62652380D01*
X183236904Y-62604761D01*
X183189285Y-62557142D01*
X184427380Y-61652380D02*
X184522619Y-61652380D01*
X184617857Y-61700000D01*
X184665476Y-61747619D01*
X184713095Y-61842857D01*
X184760714Y-62033333D01*
X184760714Y-62271428D01*
X184713095Y-62461904D01*
X184665476Y-62557142D01*
X184617857Y-62604761D01*
X184522619Y-62652380D01*
X184427380Y-62652380D01*
X184332142Y-62604761D01*
X184284523Y-62557142D01*
X184236904Y-62461904D01*
X184189285Y-62271428D01*
X184189285Y-62033333D01*
X184236904Y-61842857D01*
X184284523Y-61747619D01*
X184332142Y-61700000D01*
X184427380Y-61652380D01*
X185617857Y-61985714D02*
X185617857Y-62652380D01*
X185379761Y-61604761D02*
X185141666Y-62319047D01*
X185760714Y-62319047D01*
%TO.C,U203*%
X126452380Y-143700285D02*
X127261904Y-143700285D01*
X127357142Y-143652666D01*
X127404761Y-143605047D01*
X127452380Y-143509809D01*
X127452380Y-143319333D01*
X127404761Y-143224095D01*
X127357142Y-143176476D01*
X127261904Y-143128857D01*
X126452380Y-143128857D01*
X126547619Y-142700285D02*
X126500000Y-142652666D01*
X126452380Y-142557428D01*
X126452380Y-142319333D01*
X126500000Y-142224095D01*
X126547619Y-142176476D01*
X126642857Y-142128857D01*
X126738095Y-142128857D01*
X126880952Y-142176476D01*
X127452380Y-142747904D01*
X127452380Y-142128857D01*
X126452380Y-141509809D02*
X126452380Y-141414571D01*
X126500000Y-141319333D01*
X126547619Y-141271714D01*
X126642857Y-141224095D01*
X126833333Y-141176476D01*
X127071428Y-141176476D01*
X127261904Y-141224095D01*
X127357142Y-141271714D01*
X127404761Y-141319333D01*
X127452380Y-141414571D01*
X127452380Y-141509809D01*
X127404761Y-141605047D01*
X127357142Y-141652666D01*
X127261904Y-141700285D01*
X127071428Y-141747904D01*
X126833333Y-141747904D01*
X126642857Y-141700285D01*
X126547619Y-141652666D01*
X126500000Y-141605047D01*
X126452380Y-141509809D01*
X126452380Y-140843142D02*
X126452380Y-140224095D01*
X126833333Y-140557428D01*
X126833333Y-140414571D01*
X126880952Y-140319333D01*
X126928571Y-140271714D01*
X127023809Y-140224095D01*
X127261904Y-140224095D01*
X127357142Y-140271714D01*
X127404761Y-140319333D01*
X127452380Y-140414571D01*
X127452380Y-140700285D01*
X127404761Y-140795523D01*
X127357142Y-140843142D01*
%TO.C,U304*%
X140260714Y-96852380D02*
X140260714Y-97661904D01*
X140308333Y-97757142D01*
X140355952Y-97804761D01*
X140451190Y-97852380D01*
X140641666Y-97852380D01*
X140736904Y-97804761D01*
X140784523Y-97757142D01*
X140832142Y-97661904D01*
X140832142Y-96852380D01*
X141213095Y-96852380D02*
X141832142Y-96852380D01*
X141498809Y-97233333D01*
X141641666Y-97233333D01*
X141736904Y-97280952D01*
X141784523Y-97328571D01*
X141832142Y-97423809D01*
X141832142Y-97661904D01*
X141784523Y-97757142D01*
X141736904Y-97804761D01*
X141641666Y-97852380D01*
X141355952Y-97852380D01*
X141260714Y-97804761D01*
X141213095Y-97757142D01*
X142451190Y-96852380D02*
X142546428Y-96852380D01*
X142641666Y-96900000D01*
X142689285Y-96947619D01*
X142736904Y-97042857D01*
X142784523Y-97233333D01*
X142784523Y-97471428D01*
X142736904Y-97661904D01*
X142689285Y-97757142D01*
X142641666Y-97804761D01*
X142546428Y-97852380D01*
X142451190Y-97852380D01*
X142355952Y-97804761D01*
X142308333Y-97757142D01*
X142260714Y-97661904D01*
X142213095Y-97471428D01*
X142213095Y-97233333D01*
X142260714Y-97042857D01*
X142308333Y-96947619D01*
X142355952Y-96900000D01*
X142451190Y-96852380D01*
X143641666Y-97185714D02*
X143641666Y-97852380D01*
X143403571Y-96804761D02*
X143165476Y-97519047D01*
X143784523Y-97519047D01*
%TO.C,R216*%
X113434952Y-146502380D02*
X113101619Y-146026190D01*
X112863523Y-146502380D02*
X112863523Y-145502380D01*
X113244476Y-145502380D01*
X113339714Y-145550000D01*
X113387333Y-145597619D01*
X113434952Y-145692857D01*
X113434952Y-145835714D01*
X113387333Y-145930952D01*
X113339714Y-145978571D01*
X113244476Y-146026190D01*
X112863523Y-146026190D01*
X113815904Y-145597619D02*
X113863523Y-145550000D01*
X113958761Y-145502380D01*
X114196857Y-145502380D01*
X114292095Y-145550000D01*
X114339714Y-145597619D01*
X114387333Y-145692857D01*
X114387333Y-145788095D01*
X114339714Y-145930952D01*
X113768285Y-146502380D01*
X114387333Y-146502380D01*
X115339714Y-146502380D02*
X114768285Y-146502380D01*
X115054000Y-146502380D02*
X115054000Y-145502380D01*
X114958761Y-145645238D01*
X114863523Y-145740476D01*
X114768285Y-145788095D01*
X116196857Y-145502380D02*
X116006380Y-145502380D01*
X115911142Y-145550000D01*
X115863523Y-145597619D01*
X115768285Y-145740476D01*
X115720666Y-145930952D01*
X115720666Y-146311904D01*
X115768285Y-146407142D01*
X115815904Y-146454761D01*
X115911142Y-146502380D01*
X116101619Y-146502380D01*
X116196857Y-146454761D01*
X116244476Y-146407142D01*
X116292095Y-146311904D01*
X116292095Y-146073809D01*
X116244476Y-145978571D01*
X116196857Y-145930952D01*
X116101619Y-145883333D01*
X115911142Y-145883333D01*
X115815904Y-145930952D01*
X115768285Y-145978571D01*
X115720666Y-146073809D01*
%TO.C,JP302*%
X157427380Y-54185714D02*
X158141666Y-54185714D01*
X158284523Y-54233333D01*
X158379761Y-54328571D01*
X158427380Y-54471428D01*
X158427380Y-54566666D01*
X158427380Y-53709523D02*
X157427380Y-53709523D01*
X157427380Y-53328571D01*
X157475000Y-53233333D01*
X157522619Y-53185714D01*
X157617857Y-53138095D01*
X157760714Y-53138095D01*
X157855952Y-53185714D01*
X157903571Y-53233333D01*
X157951190Y-53328571D01*
X157951190Y-53709523D01*
X157427380Y-52804761D02*
X157427380Y-52185714D01*
X157808333Y-52519047D01*
X157808333Y-52376190D01*
X157855952Y-52280952D01*
X157903571Y-52233333D01*
X157998809Y-52185714D01*
X158236904Y-52185714D01*
X158332142Y-52233333D01*
X158379761Y-52280952D01*
X158427380Y-52376190D01*
X158427380Y-52661904D01*
X158379761Y-52757142D01*
X158332142Y-52804761D01*
X157427380Y-51566666D02*
X157427380Y-51471428D01*
X157475000Y-51376190D01*
X157522619Y-51328571D01*
X157617857Y-51280952D01*
X157808333Y-51233333D01*
X158046428Y-51233333D01*
X158236904Y-51280952D01*
X158332142Y-51328571D01*
X158379761Y-51376190D01*
X158427380Y-51471428D01*
X158427380Y-51566666D01*
X158379761Y-51661904D01*
X158332142Y-51709523D01*
X158236904Y-51757142D01*
X158046428Y-51804761D01*
X157808333Y-51804761D01*
X157617857Y-51757142D01*
X157522619Y-51709523D01*
X157475000Y-51661904D01*
X157427380Y-51566666D01*
X157522619Y-50852380D02*
X157475000Y-50804761D01*
X157427380Y-50709523D01*
X157427380Y-50471428D01*
X157475000Y-50376190D01*
X157522619Y-50328571D01*
X157617857Y-50280952D01*
X157713095Y-50280952D01*
X157855952Y-50328571D01*
X158427380Y-50900000D01*
X158427380Y-50280952D01*
%TO.C,R301*%
X184627380Y-55319047D02*
X184151190Y-55652380D01*
X184627380Y-55890476D02*
X183627380Y-55890476D01*
X183627380Y-55509523D01*
X183675000Y-55414285D01*
X183722619Y-55366666D01*
X183817857Y-55319047D01*
X183960714Y-55319047D01*
X184055952Y-55366666D01*
X184103571Y-55414285D01*
X184151190Y-55509523D01*
X184151190Y-55890476D01*
X183627380Y-54985714D02*
X183627380Y-54366666D01*
X184008333Y-54700000D01*
X184008333Y-54557142D01*
X184055952Y-54461904D01*
X184103571Y-54414285D01*
X184198809Y-54366666D01*
X184436904Y-54366666D01*
X184532142Y-54414285D01*
X184579761Y-54461904D01*
X184627380Y-54557142D01*
X184627380Y-54842857D01*
X184579761Y-54938095D01*
X184532142Y-54985714D01*
X183627380Y-53747619D02*
X183627380Y-53652380D01*
X183675000Y-53557142D01*
X183722619Y-53509523D01*
X183817857Y-53461904D01*
X184008333Y-53414285D01*
X184246428Y-53414285D01*
X184436904Y-53461904D01*
X184532142Y-53509523D01*
X184579761Y-53557142D01*
X184627380Y-53652380D01*
X184627380Y-53747619D01*
X184579761Y-53842857D01*
X184532142Y-53890476D01*
X184436904Y-53938095D01*
X184246428Y-53985714D01*
X184008333Y-53985714D01*
X183817857Y-53938095D01*
X183722619Y-53890476D01*
X183675000Y-53842857D01*
X183627380Y-53747619D01*
X184627380Y-52461904D02*
X184627380Y-53033333D01*
X184627380Y-52747619D02*
X183627380Y-52747619D01*
X183770238Y-52842857D01*
X183865476Y-52938095D01*
X183913095Y-53033333D01*
%TO.C,C305*%
X160455952Y-63057142D02*
X160408333Y-63104761D01*
X160265476Y-63152380D01*
X160170238Y-63152380D01*
X160027380Y-63104761D01*
X159932142Y-63009523D01*
X159884523Y-62914285D01*
X159836904Y-62723809D01*
X159836904Y-62580952D01*
X159884523Y-62390476D01*
X159932142Y-62295238D01*
X160027380Y-62200000D01*
X160170238Y-62152380D01*
X160265476Y-62152380D01*
X160408333Y-62200000D01*
X160455952Y-62247619D01*
X160789285Y-62152380D02*
X161408333Y-62152380D01*
X161075000Y-62533333D01*
X161217857Y-62533333D01*
X161313095Y-62580952D01*
X161360714Y-62628571D01*
X161408333Y-62723809D01*
X161408333Y-62961904D01*
X161360714Y-63057142D01*
X161313095Y-63104761D01*
X161217857Y-63152380D01*
X160932142Y-63152380D01*
X160836904Y-63104761D01*
X160789285Y-63057142D01*
X162027380Y-62152380D02*
X162122619Y-62152380D01*
X162217857Y-62200000D01*
X162265476Y-62247619D01*
X162313095Y-62342857D01*
X162360714Y-62533333D01*
X162360714Y-62771428D01*
X162313095Y-62961904D01*
X162265476Y-63057142D01*
X162217857Y-63104761D01*
X162122619Y-63152380D01*
X162027380Y-63152380D01*
X161932142Y-63104761D01*
X161884523Y-63057142D01*
X161836904Y-62961904D01*
X161789285Y-62771428D01*
X161789285Y-62533333D01*
X161836904Y-62342857D01*
X161884523Y-62247619D01*
X161932142Y-62200000D01*
X162027380Y-62152380D01*
X163265476Y-62152380D02*
X162789285Y-62152380D01*
X162741666Y-62628571D01*
X162789285Y-62580952D01*
X162884523Y-62533333D01*
X163122619Y-62533333D01*
X163217857Y-62580952D01*
X163265476Y-62628571D01*
X163313095Y-62723809D01*
X163313095Y-62961904D01*
X163265476Y-63057142D01*
X163217857Y-63104761D01*
X163122619Y-63152380D01*
X162884523Y-63152380D01*
X162789285Y-63104761D01*
X162741666Y-63057142D01*
%TO.C,C312*%
X137832142Y-129419047D02*
X137879761Y-129466666D01*
X137927380Y-129609523D01*
X137927380Y-129704761D01*
X137879761Y-129847619D01*
X137784523Y-129942857D01*
X137689285Y-129990476D01*
X137498809Y-130038095D01*
X137355952Y-130038095D01*
X137165476Y-129990476D01*
X137070238Y-129942857D01*
X136975000Y-129847619D01*
X136927380Y-129704761D01*
X136927380Y-129609523D01*
X136975000Y-129466666D01*
X137022619Y-129419047D01*
X136927380Y-129085714D02*
X136927380Y-128466666D01*
X137308333Y-128800000D01*
X137308333Y-128657142D01*
X137355952Y-128561904D01*
X137403571Y-128514285D01*
X137498809Y-128466666D01*
X137736904Y-128466666D01*
X137832142Y-128514285D01*
X137879761Y-128561904D01*
X137927380Y-128657142D01*
X137927380Y-128942857D01*
X137879761Y-129038095D01*
X137832142Y-129085714D01*
X137927380Y-127514285D02*
X137927380Y-128085714D01*
X137927380Y-127800000D02*
X136927380Y-127800000D01*
X137070238Y-127895238D01*
X137165476Y-127990476D01*
X137213095Y-128085714D01*
X137022619Y-127133333D02*
X136975000Y-127085714D01*
X136927380Y-126990476D01*
X136927380Y-126752380D01*
X136975000Y-126657142D01*
X137022619Y-126609523D01*
X137117857Y-126561904D01*
X137213095Y-126561904D01*
X137355952Y-126609523D01*
X137927380Y-127180952D01*
X137927380Y-126561904D01*
%TO.C,J6*%
X140001666Y-108062380D02*
X140001666Y-108776666D01*
X139954047Y-108919523D01*
X139858809Y-109014761D01*
X139715952Y-109062380D01*
X139620714Y-109062380D01*
X140906428Y-108062380D02*
X140715952Y-108062380D01*
X140620714Y-108110000D01*
X140573095Y-108157619D01*
X140477857Y-108300476D01*
X140430238Y-108490952D01*
X140430238Y-108871904D01*
X140477857Y-108967142D01*
X140525476Y-109014761D01*
X140620714Y-109062380D01*
X140811190Y-109062380D01*
X140906428Y-109014761D01*
X140954047Y-108967142D01*
X141001666Y-108871904D01*
X141001666Y-108633809D01*
X140954047Y-108538571D01*
X140906428Y-108490952D01*
X140811190Y-108443333D01*
X140620714Y-108443333D01*
X140525476Y-108490952D01*
X140477857Y-108538571D01*
X140430238Y-108633809D01*
%TO.C,U301*%
X163385714Y-53046380D02*
X163385714Y-53855904D01*
X163433333Y-53951142D01*
X163480952Y-53998761D01*
X163576190Y-54046380D01*
X163766666Y-54046380D01*
X163861904Y-53998761D01*
X163909523Y-53951142D01*
X163957142Y-53855904D01*
X163957142Y-53046380D01*
X164338095Y-53046380D02*
X164957142Y-53046380D01*
X164623809Y-53427333D01*
X164766666Y-53427333D01*
X164861904Y-53474952D01*
X164909523Y-53522571D01*
X164957142Y-53617809D01*
X164957142Y-53855904D01*
X164909523Y-53951142D01*
X164861904Y-53998761D01*
X164766666Y-54046380D01*
X164480952Y-54046380D01*
X164385714Y-53998761D01*
X164338095Y-53951142D01*
X165576190Y-53046380D02*
X165671428Y-53046380D01*
X165766666Y-53094000D01*
X165814285Y-53141619D01*
X165861904Y-53236857D01*
X165909523Y-53427333D01*
X165909523Y-53665428D01*
X165861904Y-53855904D01*
X165814285Y-53951142D01*
X165766666Y-53998761D01*
X165671428Y-54046380D01*
X165576190Y-54046380D01*
X165480952Y-53998761D01*
X165433333Y-53951142D01*
X165385714Y-53855904D01*
X165338095Y-53665428D01*
X165338095Y-53427333D01*
X165385714Y-53236857D01*
X165433333Y-53141619D01*
X165480952Y-53094000D01*
X165576190Y-53046380D01*
X166861904Y-54046380D02*
X166290476Y-54046380D01*
X166576190Y-54046380D02*
X166576190Y-53046380D01*
X166480952Y-53189238D01*
X166385714Y-53284476D01*
X166290476Y-53332095D01*
%TO.C,U305*%
X137260714Y-132352380D02*
X137260714Y-133161904D01*
X137308333Y-133257142D01*
X137355952Y-133304761D01*
X137451190Y-133352380D01*
X137641666Y-133352380D01*
X137736904Y-133304761D01*
X137784523Y-133257142D01*
X137832142Y-133161904D01*
X137832142Y-132352380D01*
X138213095Y-132352380D02*
X138832142Y-132352380D01*
X138498809Y-132733333D01*
X138641666Y-132733333D01*
X138736904Y-132780952D01*
X138784523Y-132828571D01*
X138832142Y-132923809D01*
X138832142Y-133161904D01*
X138784523Y-133257142D01*
X138736904Y-133304761D01*
X138641666Y-133352380D01*
X138355952Y-133352380D01*
X138260714Y-133304761D01*
X138213095Y-133257142D01*
X139451190Y-132352380D02*
X139546428Y-132352380D01*
X139641666Y-132400000D01*
X139689285Y-132447619D01*
X139736904Y-132542857D01*
X139784523Y-132733333D01*
X139784523Y-132971428D01*
X139736904Y-133161904D01*
X139689285Y-133257142D01*
X139641666Y-133304761D01*
X139546428Y-133352380D01*
X139451190Y-133352380D01*
X139355952Y-133304761D01*
X139308333Y-133257142D01*
X139260714Y-133161904D01*
X139213095Y-132971428D01*
X139213095Y-132733333D01*
X139260714Y-132542857D01*
X139308333Y-132447619D01*
X139355952Y-132400000D01*
X139451190Y-132352380D01*
X140689285Y-132352380D02*
X140213095Y-132352380D01*
X140165476Y-132828571D01*
X140213095Y-132780952D01*
X140308333Y-132733333D01*
X140546428Y-132733333D01*
X140641666Y-132780952D01*
X140689285Y-132828571D01*
X140736904Y-132923809D01*
X140736904Y-133161904D01*
X140689285Y-133257142D01*
X140641666Y-133304761D01*
X140546428Y-133352380D01*
X140308333Y-133352380D01*
X140213095Y-133304761D01*
X140165476Y-133257142D01*
%TO.C,C206*%
X73509142Y-141835047D02*
X73556761Y-141882666D01*
X73604380Y-142025523D01*
X73604380Y-142120761D01*
X73556761Y-142263619D01*
X73461523Y-142358857D01*
X73366285Y-142406476D01*
X73175809Y-142454095D01*
X73032952Y-142454095D01*
X72842476Y-142406476D01*
X72747238Y-142358857D01*
X72652000Y-142263619D01*
X72604380Y-142120761D01*
X72604380Y-142025523D01*
X72652000Y-141882666D01*
X72699619Y-141835047D01*
X72699619Y-141454095D02*
X72652000Y-141406476D01*
X72604380Y-141311238D01*
X72604380Y-141073142D01*
X72652000Y-140977904D01*
X72699619Y-140930285D01*
X72794857Y-140882666D01*
X72890095Y-140882666D01*
X73032952Y-140930285D01*
X73604380Y-141501714D01*
X73604380Y-140882666D01*
X72604380Y-140263619D02*
X72604380Y-140168380D01*
X72652000Y-140073142D01*
X72699619Y-140025523D01*
X72794857Y-139977904D01*
X72985333Y-139930285D01*
X73223428Y-139930285D01*
X73413904Y-139977904D01*
X73509142Y-140025523D01*
X73556761Y-140073142D01*
X73604380Y-140168380D01*
X73604380Y-140263619D01*
X73556761Y-140358857D01*
X73509142Y-140406476D01*
X73413904Y-140454095D01*
X73223428Y-140501714D01*
X72985333Y-140501714D01*
X72794857Y-140454095D01*
X72699619Y-140406476D01*
X72652000Y-140358857D01*
X72604380Y-140263619D01*
X72604380Y-139073142D02*
X72604380Y-139263619D01*
X72652000Y-139358857D01*
X72699619Y-139406476D01*
X72842476Y-139501714D01*
X73032952Y-139549333D01*
X73413904Y-139549333D01*
X73509142Y-139501714D01*
X73556761Y-139454095D01*
X73604380Y-139358857D01*
X73604380Y-139168380D01*
X73556761Y-139073142D01*
X73509142Y-139025523D01*
X73413904Y-138977904D01*
X73175809Y-138977904D01*
X73080571Y-139025523D01*
X73032952Y-139073142D01*
X72985333Y-139168380D01*
X72985333Y-139358857D01*
X73032952Y-139454095D01*
X73080571Y-139501714D01*
X73175809Y-139549333D01*
%TO.C,R206*%
X103274952Y-146502380D02*
X102941619Y-146026190D01*
X102703523Y-146502380D02*
X102703523Y-145502380D01*
X103084476Y-145502380D01*
X103179714Y-145550000D01*
X103227333Y-145597619D01*
X103274952Y-145692857D01*
X103274952Y-145835714D01*
X103227333Y-145930952D01*
X103179714Y-145978571D01*
X103084476Y-146026190D01*
X102703523Y-146026190D01*
X103655904Y-145597619D02*
X103703523Y-145550000D01*
X103798761Y-145502380D01*
X104036857Y-145502380D01*
X104132095Y-145550000D01*
X104179714Y-145597619D01*
X104227333Y-145692857D01*
X104227333Y-145788095D01*
X104179714Y-145930952D01*
X103608285Y-146502380D01*
X104227333Y-146502380D01*
X104846380Y-145502380D02*
X104941619Y-145502380D01*
X105036857Y-145550000D01*
X105084476Y-145597619D01*
X105132095Y-145692857D01*
X105179714Y-145883333D01*
X105179714Y-146121428D01*
X105132095Y-146311904D01*
X105084476Y-146407142D01*
X105036857Y-146454761D01*
X104941619Y-146502380D01*
X104846380Y-146502380D01*
X104751142Y-146454761D01*
X104703523Y-146407142D01*
X104655904Y-146311904D01*
X104608285Y-146121428D01*
X104608285Y-145883333D01*
X104655904Y-145692857D01*
X104703523Y-145597619D01*
X104751142Y-145550000D01*
X104846380Y-145502380D01*
X106036857Y-145502380D02*
X105846380Y-145502380D01*
X105751142Y-145550000D01*
X105703523Y-145597619D01*
X105608285Y-145740476D01*
X105560666Y-145930952D01*
X105560666Y-146311904D01*
X105608285Y-146407142D01*
X105655904Y-146454761D01*
X105751142Y-146502380D01*
X105941619Y-146502380D01*
X106036857Y-146454761D01*
X106084476Y-146407142D01*
X106132095Y-146311904D01*
X106132095Y-146073809D01*
X106084476Y-145978571D01*
X106036857Y-145930952D01*
X105941619Y-145883333D01*
X105751142Y-145883333D01*
X105655904Y-145930952D01*
X105608285Y-145978571D01*
X105560666Y-146073809D01*
%TO.C,R212*%
X87155952Y-134452380D02*
X86822619Y-133976190D01*
X86584523Y-134452380D02*
X86584523Y-133452380D01*
X86965476Y-133452380D01*
X87060714Y-133500000D01*
X87108333Y-133547619D01*
X87155952Y-133642857D01*
X87155952Y-133785714D01*
X87108333Y-133880952D01*
X87060714Y-133928571D01*
X86965476Y-133976190D01*
X86584523Y-133976190D01*
X87536904Y-133547619D02*
X87584523Y-133500000D01*
X87679761Y-133452380D01*
X87917857Y-133452380D01*
X88013095Y-133500000D01*
X88060714Y-133547619D01*
X88108333Y-133642857D01*
X88108333Y-133738095D01*
X88060714Y-133880952D01*
X87489285Y-134452380D01*
X88108333Y-134452380D01*
X89060714Y-134452380D02*
X88489285Y-134452380D01*
X88775000Y-134452380D02*
X88775000Y-133452380D01*
X88679761Y-133595238D01*
X88584523Y-133690476D01*
X88489285Y-133738095D01*
X89441666Y-133547619D02*
X89489285Y-133500000D01*
X89584523Y-133452380D01*
X89822619Y-133452380D01*
X89917857Y-133500000D01*
X89965476Y-133547619D01*
X90013095Y-133642857D01*
X90013095Y-133738095D01*
X89965476Y-133880952D01*
X89394047Y-134452380D01*
X90013095Y-134452380D01*
%TO.C,C308*%
X144155952Y-102957142D02*
X144108333Y-103004761D01*
X143965476Y-103052380D01*
X143870238Y-103052380D01*
X143727380Y-103004761D01*
X143632142Y-102909523D01*
X143584523Y-102814285D01*
X143536904Y-102623809D01*
X143536904Y-102480952D01*
X143584523Y-102290476D01*
X143632142Y-102195238D01*
X143727380Y-102100000D01*
X143870238Y-102052380D01*
X143965476Y-102052380D01*
X144108333Y-102100000D01*
X144155952Y-102147619D01*
X144489285Y-102052380D02*
X145108333Y-102052380D01*
X144775000Y-102433333D01*
X144917857Y-102433333D01*
X145013095Y-102480952D01*
X145060714Y-102528571D01*
X145108333Y-102623809D01*
X145108333Y-102861904D01*
X145060714Y-102957142D01*
X145013095Y-103004761D01*
X144917857Y-103052380D01*
X144632142Y-103052380D01*
X144536904Y-103004761D01*
X144489285Y-102957142D01*
X145727380Y-102052380D02*
X145822619Y-102052380D01*
X145917857Y-102100000D01*
X145965476Y-102147619D01*
X146013095Y-102242857D01*
X146060714Y-102433333D01*
X146060714Y-102671428D01*
X146013095Y-102861904D01*
X145965476Y-102957142D01*
X145917857Y-103004761D01*
X145822619Y-103052380D01*
X145727380Y-103052380D01*
X145632142Y-103004761D01*
X145584523Y-102957142D01*
X145536904Y-102861904D01*
X145489285Y-102671428D01*
X145489285Y-102433333D01*
X145536904Y-102242857D01*
X145584523Y-102147619D01*
X145632142Y-102100000D01*
X145727380Y-102052380D01*
X146632142Y-102480952D02*
X146536904Y-102433333D01*
X146489285Y-102385714D01*
X146441666Y-102290476D01*
X146441666Y-102242857D01*
X146489285Y-102147619D01*
X146536904Y-102100000D01*
X146632142Y-102052380D01*
X146822619Y-102052380D01*
X146917857Y-102100000D01*
X146965476Y-102147619D01*
X147013095Y-102242857D01*
X147013095Y-102290476D01*
X146965476Y-102385714D01*
X146917857Y-102433333D01*
X146822619Y-102480952D01*
X146632142Y-102480952D01*
X146536904Y-102528571D01*
X146489285Y-102576190D01*
X146441666Y-102671428D01*
X146441666Y-102861904D01*
X146489285Y-102957142D01*
X146536904Y-103004761D01*
X146632142Y-103052380D01*
X146822619Y-103052380D01*
X146917857Y-103004761D01*
X146965476Y-102957142D01*
X147013095Y-102861904D01*
X147013095Y-102671428D01*
X146965476Y-102576190D01*
X146917857Y-102528571D01*
X146822619Y-102480952D01*
D12*
%TO.C,JP221*%
X100961142Y-127742190D02*
X100961142Y-128099333D01*
X100937333Y-128170761D01*
X100889714Y-128218380D01*
X100818285Y-128242190D01*
X100770666Y-128242190D01*
X101199238Y-128242190D02*
X101199238Y-127742190D01*
X101389714Y-127742190D01*
X101437333Y-127766000D01*
X101461142Y-127789809D01*
X101484952Y-127837428D01*
X101484952Y-127908857D01*
X101461142Y-127956476D01*
X101437333Y-127980285D01*
X101389714Y-128004095D01*
X101199238Y-128004095D01*
X101675428Y-127789809D02*
X101699238Y-127766000D01*
X101746857Y-127742190D01*
X101865904Y-127742190D01*
X101913523Y-127766000D01*
X101937333Y-127789809D01*
X101961142Y-127837428D01*
X101961142Y-127885047D01*
X101937333Y-127956476D01*
X101651619Y-128242190D01*
X101961142Y-128242190D01*
X102151619Y-127789809D02*
X102175428Y-127766000D01*
X102223047Y-127742190D01*
X102342095Y-127742190D01*
X102389714Y-127766000D01*
X102413523Y-127789809D01*
X102437333Y-127837428D01*
X102437333Y-127885047D01*
X102413523Y-127956476D01*
X102127809Y-128242190D01*
X102437333Y-128242190D01*
X102913523Y-128242190D02*
X102627809Y-128242190D01*
X102770666Y-128242190D02*
X102770666Y-127742190D01*
X102723047Y-127813619D01*
X102675428Y-127861238D01*
X102627809Y-127885047D01*
D10*
%TO.C,JP306*%
X157589285Y-133752380D02*
X157589285Y-134466666D01*
X157541666Y-134609523D01*
X157446428Y-134704761D01*
X157303571Y-134752380D01*
X157208333Y-134752380D01*
X158065476Y-134752380D02*
X158065476Y-133752380D01*
X158446428Y-133752380D01*
X158541666Y-133800000D01*
X158589285Y-133847619D01*
X158636904Y-133942857D01*
X158636904Y-134085714D01*
X158589285Y-134180952D01*
X158541666Y-134228571D01*
X158446428Y-134276190D01*
X158065476Y-134276190D01*
X158970238Y-133752380D02*
X159589285Y-133752380D01*
X159255952Y-134133333D01*
X159398809Y-134133333D01*
X159494047Y-134180952D01*
X159541666Y-134228571D01*
X159589285Y-134323809D01*
X159589285Y-134561904D01*
X159541666Y-134657142D01*
X159494047Y-134704761D01*
X159398809Y-134752380D01*
X159113095Y-134752380D01*
X159017857Y-134704761D01*
X158970238Y-134657142D01*
X160208333Y-133752380D02*
X160303571Y-133752380D01*
X160398809Y-133800000D01*
X160446428Y-133847619D01*
X160494047Y-133942857D01*
X160541666Y-134133333D01*
X160541666Y-134371428D01*
X160494047Y-134561904D01*
X160446428Y-134657142D01*
X160398809Y-134704761D01*
X160303571Y-134752380D01*
X160208333Y-134752380D01*
X160113095Y-134704761D01*
X160065476Y-134657142D01*
X160017857Y-134561904D01*
X159970238Y-134371428D01*
X159970238Y-134133333D01*
X160017857Y-133942857D01*
X160065476Y-133847619D01*
X160113095Y-133800000D01*
X160208333Y-133752380D01*
X161398809Y-133752380D02*
X161208333Y-133752380D01*
X161113095Y-133800000D01*
X161065476Y-133847619D01*
X160970238Y-133990476D01*
X160922619Y-134180952D01*
X160922619Y-134561904D01*
X160970238Y-134657142D01*
X161017857Y-134704761D01*
X161113095Y-134752380D01*
X161303571Y-134752380D01*
X161398809Y-134704761D01*
X161446428Y-134657142D01*
X161494047Y-134561904D01*
X161494047Y-134323809D01*
X161446428Y-134228571D01*
X161398809Y-134180952D01*
X161303571Y-134133333D01*
X161113095Y-134133333D01*
X161017857Y-134180952D01*
X160970238Y-134228571D01*
X160922619Y-134323809D01*
%TO.C,C303*%
X164880952Y-63053142D02*
X164833333Y-63100761D01*
X164690476Y-63148380D01*
X164595238Y-63148380D01*
X164452380Y-63100761D01*
X164357142Y-63005523D01*
X164309523Y-62910285D01*
X164261904Y-62719809D01*
X164261904Y-62576952D01*
X164309523Y-62386476D01*
X164357142Y-62291238D01*
X164452380Y-62196000D01*
X164595238Y-62148380D01*
X164690476Y-62148380D01*
X164833333Y-62196000D01*
X164880952Y-62243619D01*
X165214285Y-62148380D02*
X165833333Y-62148380D01*
X165500000Y-62529333D01*
X165642857Y-62529333D01*
X165738095Y-62576952D01*
X165785714Y-62624571D01*
X165833333Y-62719809D01*
X165833333Y-62957904D01*
X165785714Y-63053142D01*
X165738095Y-63100761D01*
X165642857Y-63148380D01*
X165357142Y-63148380D01*
X165261904Y-63100761D01*
X165214285Y-63053142D01*
X166452380Y-62148380D02*
X166547619Y-62148380D01*
X166642857Y-62196000D01*
X166690476Y-62243619D01*
X166738095Y-62338857D01*
X166785714Y-62529333D01*
X166785714Y-62767428D01*
X166738095Y-62957904D01*
X166690476Y-63053142D01*
X166642857Y-63100761D01*
X166547619Y-63148380D01*
X166452380Y-63148380D01*
X166357142Y-63100761D01*
X166309523Y-63053142D01*
X166261904Y-62957904D01*
X166214285Y-62767428D01*
X166214285Y-62529333D01*
X166261904Y-62338857D01*
X166309523Y-62243619D01*
X166357142Y-62196000D01*
X166452380Y-62148380D01*
X167119047Y-62148380D02*
X167738095Y-62148380D01*
X167404761Y-62529333D01*
X167547619Y-62529333D01*
X167642857Y-62576952D01*
X167690476Y-62624571D01*
X167738095Y-62719809D01*
X167738095Y-62957904D01*
X167690476Y-63053142D01*
X167642857Y-63100761D01*
X167547619Y-63148380D01*
X167261904Y-63148380D01*
X167166666Y-63100761D01*
X167119047Y-63053142D01*
%TO.C,U201*%
X78200714Y-136979880D02*
X78200714Y-137789404D01*
X78248333Y-137884642D01*
X78295952Y-137932261D01*
X78391190Y-137979880D01*
X78581666Y-137979880D01*
X78676904Y-137932261D01*
X78724523Y-137884642D01*
X78772142Y-137789404D01*
X78772142Y-136979880D01*
X79200714Y-137075119D02*
X79248333Y-137027500D01*
X79343571Y-136979880D01*
X79581666Y-136979880D01*
X79676904Y-137027500D01*
X79724523Y-137075119D01*
X79772142Y-137170357D01*
X79772142Y-137265595D01*
X79724523Y-137408452D01*
X79153095Y-137979880D01*
X79772142Y-137979880D01*
X80391190Y-136979880D02*
X80486428Y-136979880D01*
X80581666Y-137027500D01*
X80629285Y-137075119D01*
X80676904Y-137170357D01*
X80724523Y-137360833D01*
X80724523Y-137598928D01*
X80676904Y-137789404D01*
X80629285Y-137884642D01*
X80581666Y-137932261D01*
X80486428Y-137979880D01*
X80391190Y-137979880D01*
X80295952Y-137932261D01*
X80248333Y-137884642D01*
X80200714Y-137789404D01*
X80153095Y-137598928D01*
X80153095Y-137360833D01*
X80200714Y-137170357D01*
X80248333Y-137075119D01*
X80295952Y-137027500D01*
X80391190Y-136979880D01*
X81676904Y-137979880D02*
X81105476Y-137979880D01*
X81391190Y-137979880D02*
X81391190Y-136979880D01*
X81295952Y-137122738D01*
X81200714Y-137217976D01*
X81105476Y-137265595D01*
%TO.C,R310*%
X148827380Y-137019047D02*
X148351190Y-137352380D01*
X148827380Y-137590476D02*
X147827380Y-137590476D01*
X147827380Y-137209523D01*
X147875000Y-137114285D01*
X147922619Y-137066666D01*
X148017857Y-137019047D01*
X148160714Y-137019047D01*
X148255952Y-137066666D01*
X148303571Y-137114285D01*
X148351190Y-137209523D01*
X148351190Y-137590476D01*
X147827380Y-136685714D02*
X147827380Y-136066666D01*
X148208333Y-136400000D01*
X148208333Y-136257142D01*
X148255952Y-136161904D01*
X148303571Y-136114285D01*
X148398809Y-136066666D01*
X148636904Y-136066666D01*
X148732142Y-136114285D01*
X148779761Y-136161904D01*
X148827380Y-136257142D01*
X148827380Y-136542857D01*
X148779761Y-136638095D01*
X148732142Y-136685714D01*
X148827380Y-135114285D02*
X148827380Y-135685714D01*
X148827380Y-135400000D02*
X147827380Y-135400000D01*
X147970238Y-135495238D01*
X148065476Y-135590476D01*
X148113095Y-135685714D01*
X147827380Y-134495238D02*
X147827380Y-134400000D01*
X147875000Y-134304761D01*
X147922619Y-134257142D01*
X148017857Y-134209523D01*
X148208333Y-134161904D01*
X148446428Y-134161904D01*
X148636904Y-134209523D01*
X148732142Y-134257142D01*
X148779761Y-134304761D01*
X148827380Y-134400000D01*
X148827380Y-134495238D01*
X148779761Y-134590476D01*
X148732142Y-134638095D01*
X148636904Y-134685714D01*
X148446428Y-134733333D01*
X148208333Y-134733333D01*
X148017857Y-134685714D01*
X147922619Y-134638095D01*
X147875000Y-134590476D01*
X147827380Y-134495238D01*
%TO.C,JP305*%
X160589285Y-142252380D02*
X160589285Y-142966666D01*
X160541666Y-143109523D01*
X160446428Y-143204761D01*
X160303571Y-143252380D01*
X160208333Y-143252380D01*
X161065476Y-143252380D02*
X161065476Y-142252380D01*
X161446428Y-142252380D01*
X161541666Y-142300000D01*
X161589285Y-142347619D01*
X161636904Y-142442857D01*
X161636904Y-142585714D01*
X161589285Y-142680952D01*
X161541666Y-142728571D01*
X161446428Y-142776190D01*
X161065476Y-142776190D01*
X161970238Y-142252380D02*
X162589285Y-142252380D01*
X162255952Y-142633333D01*
X162398809Y-142633333D01*
X162494047Y-142680952D01*
X162541666Y-142728571D01*
X162589285Y-142823809D01*
X162589285Y-143061904D01*
X162541666Y-143157142D01*
X162494047Y-143204761D01*
X162398809Y-143252380D01*
X162113095Y-143252380D01*
X162017857Y-143204761D01*
X161970238Y-143157142D01*
X163208333Y-142252380D02*
X163303571Y-142252380D01*
X163398809Y-142300000D01*
X163446428Y-142347619D01*
X163494047Y-142442857D01*
X163541666Y-142633333D01*
X163541666Y-142871428D01*
X163494047Y-143061904D01*
X163446428Y-143157142D01*
X163398809Y-143204761D01*
X163303571Y-143252380D01*
X163208333Y-143252380D01*
X163113095Y-143204761D01*
X163065476Y-143157142D01*
X163017857Y-143061904D01*
X162970238Y-142871428D01*
X162970238Y-142633333D01*
X163017857Y-142442857D01*
X163065476Y-142347619D01*
X163113095Y-142300000D01*
X163208333Y-142252380D01*
X164446428Y-142252380D02*
X163970238Y-142252380D01*
X163922619Y-142728571D01*
X163970238Y-142680952D01*
X164065476Y-142633333D01*
X164303571Y-142633333D01*
X164398809Y-142680952D01*
X164446428Y-142728571D01*
X164494047Y-142823809D01*
X164494047Y-143061904D01*
X164446428Y-143157142D01*
X164398809Y-143204761D01*
X164303571Y-143252380D01*
X164065476Y-143252380D01*
X163970238Y-143204761D01*
X163922619Y-143157142D01*
%TO.C,JP301*%
X151427380Y-54185714D02*
X152141666Y-54185714D01*
X152284523Y-54233333D01*
X152379761Y-54328571D01*
X152427380Y-54471428D01*
X152427380Y-54566666D01*
X152427380Y-53709523D02*
X151427380Y-53709523D01*
X151427380Y-53328571D01*
X151475000Y-53233333D01*
X151522619Y-53185714D01*
X151617857Y-53138095D01*
X151760714Y-53138095D01*
X151855952Y-53185714D01*
X151903571Y-53233333D01*
X151951190Y-53328571D01*
X151951190Y-53709523D01*
X151427380Y-52804761D02*
X151427380Y-52185714D01*
X151808333Y-52519047D01*
X151808333Y-52376190D01*
X151855952Y-52280952D01*
X151903571Y-52233333D01*
X151998809Y-52185714D01*
X152236904Y-52185714D01*
X152332142Y-52233333D01*
X152379761Y-52280952D01*
X152427380Y-52376190D01*
X152427380Y-52661904D01*
X152379761Y-52757142D01*
X152332142Y-52804761D01*
X151427380Y-51566666D02*
X151427380Y-51471428D01*
X151475000Y-51376190D01*
X151522619Y-51328571D01*
X151617857Y-51280952D01*
X151808333Y-51233333D01*
X152046428Y-51233333D01*
X152236904Y-51280952D01*
X152332142Y-51328571D01*
X152379761Y-51376190D01*
X152427380Y-51471428D01*
X152427380Y-51566666D01*
X152379761Y-51661904D01*
X152332142Y-51709523D01*
X152236904Y-51757142D01*
X152046428Y-51804761D01*
X151808333Y-51804761D01*
X151617857Y-51757142D01*
X151522619Y-51709523D01*
X151475000Y-51661904D01*
X151427380Y-51566666D01*
X152427380Y-50280952D02*
X152427380Y-50852380D01*
X152427380Y-50566666D02*
X151427380Y-50566666D01*
X151570238Y-50661904D01*
X151665476Y-50757142D01*
X151713095Y-50852380D01*
%TO.C,C302*%
X218607142Y-66869047D02*
X218654761Y-66916666D01*
X218702380Y-67059523D01*
X218702380Y-67154761D01*
X218654761Y-67297619D01*
X218559523Y-67392857D01*
X218464285Y-67440476D01*
X218273809Y-67488095D01*
X218130952Y-67488095D01*
X217940476Y-67440476D01*
X217845238Y-67392857D01*
X217750000Y-67297619D01*
X217702380Y-67154761D01*
X217702380Y-67059523D01*
X217750000Y-66916666D01*
X217797619Y-66869047D01*
X217702380Y-66535714D02*
X217702380Y-65916666D01*
X218083333Y-66250000D01*
X218083333Y-66107142D01*
X218130952Y-66011904D01*
X218178571Y-65964285D01*
X218273809Y-65916666D01*
X218511904Y-65916666D01*
X218607142Y-65964285D01*
X218654761Y-66011904D01*
X218702380Y-66107142D01*
X218702380Y-66392857D01*
X218654761Y-66488095D01*
X218607142Y-66535714D01*
X217702380Y-65297619D02*
X217702380Y-65202380D01*
X217750000Y-65107142D01*
X217797619Y-65059523D01*
X217892857Y-65011904D01*
X218083333Y-64964285D01*
X218321428Y-64964285D01*
X218511904Y-65011904D01*
X218607142Y-65059523D01*
X218654761Y-65107142D01*
X218702380Y-65202380D01*
X218702380Y-65297619D01*
X218654761Y-65392857D01*
X218607142Y-65440476D01*
X218511904Y-65488095D01*
X218321428Y-65535714D01*
X218083333Y-65535714D01*
X217892857Y-65488095D01*
X217797619Y-65440476D01*
X217750000Y-65392857D01*
X217702380Y-65297619D01*
X217797619Y-64583333D02*
X217750000Y-64535714D01*
X217702380Y-64440476D01*
X217702380Y-64202380D01*
X217750000Y-64107142D01*
X217797619Y-64059523D01*
X217892857Y-64011904D01*
X217988095Y-64011904D01*
X218130952Y-64059523D01*
X218702380Y-64630952D01*
X218702380Y-64011904D01*
%TO.C,D202*%
X77951380Y-107490476D02*
X76951380Y-107490476D01*
X76951380Y-107252380D01*
X76999000Y-107109523D01*
X77094238Y-107014285D01*
X77189476Y-106966666D01*
X77379952Y-106919047D01*
X77522809Y-106919047D01*
X77713285Y-106966666D01*
X77808523Y-107014285D01*
X77903761Y-107109523D01*
X77951380Y-107252380D01*
X77951380Y-107490476D01*
X77046619Y-106538095D02*
X76999000Y-106490476D01*
X76951380Y-106395238D01*
X76951380Y-106157142D01*
X76999000Y-106061904D01*
X77046619Y-106014285D01*
X77141857Y-105966666D01*
X77237095Y-105966666D01*
X77379952Y-106014285D01*
X77951380Y-106585714D01*
X77951380Y-105966666D01*
X76951380Y-105347619D02*
X76951380Y-105252380D01*
X76999000Y-105157142D01*
X77046619Y-105109523D01*
X77141857Y-105061904D01*
X77332333Y-105014285D01*
X77570428Y-105014285D01*
X77760904Y-105061904D01*
X77856142Y-105109523D01*
X77903761Y-105157142D01*
X77951380Y-105252380D01*
X77951380Y-105347619D01*
X77903761Y-105442857D01*
X77856142Y-105490476D01*
X77760904Y-105538095D01*
X77570428Y-105585714D01*
X77332333Y-105585714D01*
X77141857Y-105538095D01*
X77046619Y-105490476D01*
X76999000Y-105442857D01*
X76951380Y-105347619D01*
X77046619Y-104633333D02*
X76999000Y-104585714D01*
X76951380Y-104490476D01*
X76951380Y-104252380D01*
X76999000Y-104157142D01*
X77046619Y-104109523D01*
X77141857Y-104061904D01*
X77237095Y-104061904D01*
X77379952Y-104109523D01*
X77951380Y-104680952D01*
X77951380Y-104061904D01*
%TO.C,R203*%
X85627380Y-147019047D02*
X85151190Y-147352380D01*
X85627380Y-147590476D02*
X84627380Y-147590476D01*
X84627380Y-147209523D01*
X84675000Y-147114285D01*
X84722619Y-147066666D01*
X84817857Y-147019047D01*
X84960714Y-147019047D01*
X85055952Y-147066666D01*
X85103571Y-147114285D01*
X85151190Y-147209523D01*
X85151190Y-147590476D01*
X84722619Y-146638095D02*
X84675000Y-146590476D01*
X84627380Y-146495238D01*
X84627380Y-146257142D01*
X84675000Y-146161904D01*
X84722619Y-146114285D01*
X84817857Y-146066666D01*
X84913095Y-146066666D01*
X85055952Y-146114285D01*
X85627380Y-146685714D01*
X85627380Y-146066666D01*
X84627380Y-145447619D02*
X84627380Y-145352380D01*
X84675000Y-145257142D01*
X84722619Y-145209523D01*
X84817857Y-145161904D01*
X85008333Y-145114285D01*
X85246428Y-145114285D01*
X85436904Y-145161904D01*
X85532142Y-145209523D01*
X85579761Y-145257142D01*
X85627380Y-145352380D01*
X85627380Y-145447619D01*
X85579761Y-145542857D01*
X85532142Y-145590476D01*
X85436904Y-145638095D01*
X85246428Y-145685714D01*
X85008333Y-145685714D01*
X84817857Y-145638095D01*
X84722619Y-145590476D01*
X84675000Y-145542857D01*
X84627380Y-145447619D01*
X84627380Y-144780952D02*
X84627380Y-144161904D01*
X85008333Y-144495238D01*
X85008333Y-144352380D01*
X85055952Y-144257142D01*
X85103571Y-144209523D01*
X85198809Y-144161904D01*
X85436904Y-144161904D01*
X85532142Y-144209523D01*
X85579761Y-144257142D01*
X85627380Y-144352380D01*
X85627380Y-144638095D01*
X85579761Y-144733333D01*
X85532142Y-144780952D01*
%TO.C,R219*%
X108354952Y-146502380D02*
X108021619Y-146026190D01*
X107783523Y-146502380D02*
X107783523Y-145502380D01*
X108164476Y-145502380D01*
X108259714Y-145550000D01*
X108307333Y-145597619D01*
X108354952Y-145692857D01*
X108354952Y-145835714D01*
X108307333Y-145930952D01*
X108259714Y-145978571D01*
X108164476Y-146026190D01*
X107783523Y-146026190D01*
X108735904Y-145597619D02*
X108783523Y-145550000D01*
X108878761Y-145502380D01*
X109116857Y-145502380D01*
X109212095Y-145550000D01*
X109259714Y-145597619D01*
X109307333Y-145692857D01*
X109307333Y-145788095D01*
X109259714Y-145930952D01*
X108688285Y-146502380D01*
X109307333Y-146502380D01*
X110259714Y-146502380D02*
X109688285Y-146502380D01*
X109974000Y-146502380D02*
X109974000Y-145502380D01*
X109878761Y-145645238D01*
X109783523Y-145740476D01*
X109688285Y-145788095D01*
X110735904Y-146502380D02*
X110926380Y-146502380D01*
X111021619Y-146454761D01*
X111069238Y-146407142D01*
X111164476Y-146264285D01*
X111212095Y-146073809D01*
X111212095Y-145692857D01*
X111164476Y-145597619D01*
X111116857Y-145550000D01*
X111021619Y-145502380D01*
X110831142Y-145502380D01*
X110735904Y-145550000D01*
X110688285Y-145597619D01*
X110640666Y-145692857D01*
X110640666Y-145930952D01*
X110688285Y-146026190D01*
X110735904Y-146073809D01*
X110831142Y-146121428D01*
X111021619Y-146121428D01*
X111116857Y-146073809D01*
X111164476Y-146026190D01*
X111212095Y-145930952D01*
D12*
%TO.C,JP222*%
X103501142Y-127742190D02*
X103501142Y-128099333D01*
X103477333Y-128170761D01*
X103429714Y-128218380D01*
X103358285Y-128242190D01*
X103310666Y-128242190D01*
X103739238Y-128242190D02*
X103739238Y-127742190D01*
X103929714Y-127742190D01*
X103977333Y-127766000D01*
X104001142Y-127789809D01*
X104024952Y-127837428D01*
X104024952Y-127908857D01*
X104001142Y-127956476D01*
X103977333Y-127980285D01*
X103929714Y-128004095D01*
X103739238Y-128004095D01*
X104215428Y-127789809D02*
X104239238Y-127766000D01*
X104286857Y-127742190D01*
X104405904Y-127742190D01*
X104453523Y-127766000D01*
X104477333Y-127789809D01*
X104501142Y-127837428D01*
X104501142Y-127885047D01*
X104477333Y-127956476D01*
X104191619Y-128242190D01*
X104501142Y-128242190D01*
X104691619Y-127789809D02*
X104715428Y-127766000D01*
X104763047Y-127742190D01*
X104882095Y-127742190D01*
X104929714Y-127766000D01*
X104953523Y-127789809D01*
X104977333Y-127837428D01*
X104977333Y-127885047D01*
X104953523Y-127956476D01*
X104667809Y-128242190D01*
X104977333Y-128242190D01*
X105167809Y-127789809D02*
X105191619Y-127766000D01*
X105239238Y-127742190D01*
X105358285Y-127742190D01*
X105405904Y-127766000D01*
X105429714Y-127789809D01*
X105453523Y-127837428D01*
X105453523Y-127885047D01*
X105429714Y-127956476D01*
X105144000Y-128242190D01*
X105453523Y-128242190D01*
D10*
%TO.C,J4*%
X80041666Y-96302380D02*
X80041666Y-97016666D01*
X79994047Y-97159523D01*
X79898809Y-97254761D01*
X79755952Y-97302380D01*
X79660714Y-97302380D01*
X80946428Y-96635714D02*
X80946428Y-97302380D01*
X80708333Y-96254761D02*
X80470238Y-96969047D01*
X81089285Y-96969047D01*
D12*
%TO.C,JP226*%
X113661142Y-127742190D02*
X113661142Y-128099333D01*
X113637333Y-128170761D01*
X113589714Y-128218380D01*
X113518285Y-128242190D01*
X113470666Y-128242190D01*
X113899238Y-128242190D02*
X113899238Y-127742190D01*
X114089714Y-127742190D01*
X114137333Y-127766000D01*
X114161142Y-127789809D01*
X114184952Y-127837428D01*
X114184952Y-127908857D01*
X114161142Y-127956476D01*
X114137333Y-127980285D01*
X114089714Y-128004095D01*
X113899238Y-128004095D01*
X114375428Y-127789809D02*
X114399238Y-127766000D01*
X114446857Y-127742190D01*
X114565904Y-127742190D01*
X114613523Y-127766000D01*
X114637333Y-127789809D01*
X114661142Y-127837428D01*
X114661142Y-127885047D01*
X114637333Y-127956476D01*
X114351619Y-128242190D01*
X114661142Y-128242190D01*
X114851619Y-127789809D02*
X114875428Y-127766000D01*
X114923047Y-127742190D01*
X115042095Y-127742190D01*
X115089714Y-127766000D01*
X115113523Y-127789809D01*
X115137333Y-127837428D01*
X115137333Y-127885047D01*
X115113523Y-127956476D01*
X114827809Y-128242190D01*
X115137333Y-128242190D01*
X115565904Y-127742190D02*
X115470666Y-127742190D01*
X115423047Y-127766000D01*
X115399238Y-127789809D01*
X115351619Y-127861238D01*
X115327809Y-127956476D01*
X115327809Y-128146952D01*
X115351619Y-128194571D01*
X115375428Y-128218380D01*
X115423047Y-128242190D01*
X115518285Y-128242190D01*
X115565904Y-128218380D01*
X115589714Y-128194571D01*
X115613523Y-128146952D01*
X115613523Y-128027904D01*
X115589714Y-127980285D01*
X115565904Y-127956476D01*
X115518285Y-127932666D01*
X115423047Y-127932666D01*
X115375428Y-127956476D01*
X115351619Y-127980285D01*
X115327809Y-128027904D01*
D10*
%TO.C,U303*%
X157360714Y-63552380D02*
X157360714Y-64361904D01*
X157408333Y-64457142D01*
X157455952Y-64504761D01*
X157551190Y-64552380D01*
X157741666Y-64552380D01*
X157836904Y-64504761D01*
X157884523Y-64457142D01*
X157932142Y-64361904D01*
X157932142Y-63552380D01*
X158313095Y-63552380D02*
X158932142Y-63552380D01*
X158598809Y-63933333D01*
X158741666Y-63933333D01*
X158836904Y-63980952D01*
X158884523Y-64028571D01*
X158932142Y-64123809D01*
X158932142Y-64361904D01*
X158884523Y-64457142D01*
X158836904Y-64504761D01*
X158741666Y-64552380D01*
X158455952Y-64552380D01*
X158360714Y-64504761D01*
X158313095Y-64457142D01*
X159551190Y-63552380D02*
X159646428Y-63552380D01*
X159741666Y-63600000D01*
X159789285Y-63647619D01*
X159836904Y-63742857D01*
X159884523Y-63933333D01*
X159884523Y-64171428D01*
X159836904Y-64361904D01*
X159789285Y-64457142D01*
X159741666Y-64504761D01*
X159646428Y-64552380D01*
X159551190Y-64552380D01*
X159455952Y-64504761D01*
X159408333Y-64457142D01*
X159360714Y-64361904D01*
X159313095Y-64171428D01*
X159313095Y-63933333D01*
X159360714Y-63742857D01*
X159408333Y-63647619D01*
X159455952Y-63600000D01*
X159551190Y-63552380D01*
X160217857Y-63552380D02*
X160836904Y-63552380D01*
X160503571Y-63933333D01*
X160646428Y-63933333D01*
X160741666Y-63980952D01*
X160789285Y-64028571D01*
X160836904Y-64123809D01*
X160836904Y-64361904D01*
X160789285Y-64457142D01*
X160741666Y-64504761D01*
X160646428Y-64552380D01*
X160360714Y-64552380D01*
X160265476Y-64504761D01*
X160217857Y-64457142D01*
%TO.C,J2*%
X132508666Y-107910380D02*
X132508666Y-108624666D01*
X132461047Y-108767523D01*
X132365809Y-108862761D01*
X132222952Y-108910380D01*
X132127714Y-108910380D01*
X132937238Y-108005619D02*
X132984857Y-107958000D01*
X133080095Y-107910380D01*
X133318190Y-107910380D01*
X133413428Y-107958000D01*
X133461047Y-108005619D01*
X133508666Y-108100857D01*
X133508666Y-108196095D01*
X133461047Y-108338952D01*
X132889619Y-108910380D01*
X133508666Y-108910380D01*
%TO.C,D302*%
X171184523Y-126452380D02*
X171184523Y-125452380D01*
X171422619Y-125452380D01*
X171565476Y-125500000D01*
X171660714Y-125595238D01*
X171708333Y-125690476D01*
X171755952Y-125880952D01*
X171755952Y-126023809D01*
X171708333Y-126214285D01*
X171660714Y-126309523D01*
X171565476Y-126404761D01*
X171422619Y-126452380D01*
X171184523Y-126452380D01*
X172089285Y-125452380D02*
X172708333Y-125452380D01*
X172375000Y-125833333D01*
X172517857Y-125833333D01*
X172613095Y-125880952D01*
X172660714Y-125928571D01*
X172708333Y-126023809D01*
X172708333Y-126261904D01*
X172660714Y-126357142D01*
X172613095Y-126404761D01*
X172517857Y-126452380D01*
X172232142Y-126452380D01*
X172136904Y-126404761D01*
X172089285Y-126357142D01*
X173327380Y-125452380D02*
X173422619Y-125452380D01*
X173517857Y-125500000D01*
X173565476Y-125547619D01*
X173613095Y-125642857D01*
X173660714Y-125833333D01*
X173660714Y-126071428D01*
X173613095Y-126261904D01*
X173565476Y-126357142D01*
X173517857Y-126404761D01*
X173422619Y-126452380D01*
X173327380Y-126452380D01*
X173232142Y-126404761D01*
X173184523Y-126357142D01*
X173136904Y-126261904D01*
X173089285Y-126071428D01*
X173089285Y-125833333D01*
X173136904Y-125642857D01*
X173184523Y-125547619D01*
X173232142Y-125500000D01*
X173327380Y-125452380D01*
X174041666Y-125547619D02*
X174089285Y-125500000D01*
X174184523Y-125452380D01*
X174422619Y-125452380D01*
X174517857Y-125500000D01*
X174565476Y-125547619D01*
X174613095Y-125642857D01*
X174613095Y-125738095D01*
X174565476Y-125880952D01*
X173994047Y-126452380D01*
X174613095Y-126452380D01*
%TO.C,C311*%
X142541452Y-130405142D02*
X142493833Y-130452761D01*
X142350976Y-130500380D01*
X142255738Y-130500380D01*
X142112880Y-130452761D01*
X142017642Y-130357523D01*
X141970023Y-130262285D01*
X141922404Y-130071809D01*
X141922404Y-129928952D01*
X141970023Y-129738476D01*
X142017642Y-129643238D01*
X142112880Y-129548000D01*
X142255738Y-129500380D01*
X142350976Y-129500380D01*
X142493833Y-129548000D01*
X142541452Y-129595619D01*
X142874785Y-129500380D02*
X143493833Y-129500380D01*
X143160500Y-129881333D01*
X143303357Y-129881333D01*
X143398595Y-129928952D01*
X143446214Y-129976571D01*
X143493833Y-130071809D01*
X143493833Y-130309904D01*
X143446214Y-130405142D01*
X143398595Y-130452761D01*
X143303357Y-130500380D01*
X143017642Y-130500380D01*
X142922404Y-130452761D01*
X142874785Y-130405142D01*
X144446214Y-130500380D02*
X143874785Y-130500380D01*
X144160500Y-130500380D02*
X144160500Y-129500380D01*
X144065261Y-129643238D01*
X143970023Y-129738476D01*
X143874785Y-129786095D01*
X145398595Y-130500380D02*
X144827166Y-130500380D01*
X145112880Y-130500380D02*
X145112880Y-129500380D01*
X145017642Y-129643238D01*
X144922404Y-129738476D01*
X144827166Y-129786095D01*
%TO.C,C310*%
X137555952Y-137957142D02*
X137508333Y-138004761D01*
X137365476Y-138052380D01*
X137270238Y-138052380D01*
X137127380Y-138004761D01*
X137032142Y-137909523D01*
X136984523Y-137814285D01*
X136936904Y-137623809D01*
X136936904Y-137480952D01*
X136984523Y-137290476D01*
X137032142Y-137195238D01*
X137127380Y-137100000D01*
X137270238Y-137052380D01*
X137365476Y-137052380D01*
X137508333Y-137100000D01*
X137555952Y-137147619D01*
X137889285Y-137052380D02*
X138508333Y-137052380D01*
X138175000Y-137433333D01*
X138317857Y-137433333D01*
X138413095Y-137480952D01*
X138460714Y-137528571D01*
X138508333Y-137623809D01*
X138508333Y-137861904D01*
X138460714Y-137957142D01*
X138413095Y-138004761D01*
X138317857Y-138052380D01*
X138032142Y-138052380D01*
X137936904Y-138004761D01*
X137889285Y-137957142D01*
X139460714Y-138052380D02*
X138889285Y-138052380D01*
X139175000Y-138052380D02*
X139175000Y-137052380D01*
X139079761Y-137195238D01*
X138984523Y-137290476D01*
X138889285Y-137338095D01*
X140079761Y-137052380D02*
X140175000Y-137052380D01*
X140270238Y-137100000D01*
X140317857Y-137147619D01*
X140365476Y-137242857D01*
X140413095Y-137433333D01*
X140413095Y-137671428D01*
X140365476Y-137861904D01*
X140317857Y-137957142D01*
X140270238Y-138004761D01*
X140175000Y-138052380D01*
X140079761Y-138052380D01*
X139984523Y-138004761D01*
X139936904Y-137957142D01*
X139889285Y-137861904D01*
X139841666Y-137671428D01*
X139841666Y-137433333D01*
X139889285Y-137242857D01*
X139936904Y-137147619D01*
X139984523Y-137100000D01*
X140079761Y-137052380D01*
%TO.C,R311*%
X142541452Y-124912380D02*
X142208119Y-124436190D01*
X141970023Y-124912380D02*
X141970023Y-123912380D01*
X142350976Y-123912380D01*
X142446214Y-123960000D01*
X142493833Y-124007619D01*
X142541452Y-124102857D01*
X142541452Y-124245714D01*
X142493833Y-124340952D01*
X142446214Y-124388571D01*
X142350976Y-124436190D01*
X141970023Y-124436190D01*
X142874785Y-123912380D02*
X143493833Y-123912380D01*
X143160500Y-124293333D01*
X143303357Y-124293333D01*
X143398595Y-124340952D01*
X143446214Y-124388571D01*
X143493833Y-124483809D01*
X143493833Y-124721904D01*
X143446214Y-124817142D01*
X143398595Y-124864761D01*
X143303357Y-124912380D01*
X143017642Y-124912380D01*
X142922404Y-124864761D01*
X142874785Y-124817142D01*
X144446214Y-124912380D02*
X143874785Y-124912380D01*
X144160500Y-124912380D02*
X144160500Y-123912380D01*
X144065261Y-124055238D01*
X143970023Y-124150476D01*
X143874785Y-124198095D01*
X145398595Y-124912380D02*
X144827166Y-124912380D01*
X145112880Y-124912380D02*
X145112880Y-123912380D01*
X145017642Y-124055238D01*
X144922404Y-124150476D01*
X144827166Y-124198095D01*
%TO.C,R307*%
X150312380Y-62919047D02*
X149836190Y-63252380D01*
X150312380Y-63490476D02*
X149312380Y-63490476D01*
X149312380Y-63109523D01*
X149360000Y-63014285D01*
X149407619Y-62966666D01*
X149502857Y-62919047D01*
X149645714Y-62919047D01*
X149740952Y-62966666D01*
X149788571Y-63014285D01*
X149836190Y-63109523D01*
X149836190Y-63490476D01*
X149312380Y-62585714D02*
X149312380Y-61966666D01*
X149693333Y-62300000D01*
X149693333Y-62157142D01*
X149740952Y-62061904D01*
X149788571Y-62014285D01*
X149883809Y-61966666D01*
X150121904Y-61966666D01*
X150217142Y-62014285D01*
X150264761Y-62061904D01*
X150312380Y-62157142D01*
X150312380Y-62442857D01*
X150264761Y-62538095D01*
X150217142Y-62585714D01*
X149312380Y-61347619D02*
X149312380Y-61252380D01*
X149360000Y-61157142D01*
X149407619Y-61109523D01*
X149502857Y-61061904D01*
X149693333Y-61014285D01*
X149931428Y-61014285D01*
X150121904Y-61061904D01*
X150217142Y-61109523D01*
X150264761Y-61157142D01*
X150312380Y-61252380D01*
X150312380Y-61347619D01*
X150264761Y-61442857D01*
X150217142Y-61490476D01*
X150121904Y-61538095D01*
X149931428Y-61585714D01*
X149693333Y-61585714D01*
X149502857Y-61538095D01*
X149407619Y-61490476D01*
X149360000Y-61442857D01*
X149312380Y-61347619D01*
X149312380Y-60680952D02*
X149312380Y-60014285D01*
X150312380Y-60442857D01*
%TO.C,R309*%
X141628952Y-139958380D02*
X141295619Y-139482190D01*
X141057523Y-139958380D02*
X141057523Y-138958380D01*
X141438476Y-138958380D01*
X141533714Y-139006000D01*
X141581333Y-139053619D01*
X141628952Y-139148857D01*
X141628952Y-139291714D01*
X141581333Y-139386952D01*
X141533714Y-139434571D01*
X141438476Y-139482190D01*
X141057523Y-139482190D01*
X141962285Y-138958380D02*
X142581333Y-138958380D01*
X142248000Y-139339333D01*
X142390857Y-139339333D01*
X142486095Y-139386952D01*
X142533714Y-139434571D01*
X142581333Y-139529809D01*
X142581333Y-139767904D01*
X142533714Y-139863142D01*
X142486095Y-139910761D01*
X142390857Y-139958380D01*
X142105142Y-139958380D01*
X142009904Y-139910761D01*
X141962285Y-139863142D01*
X143200380Y-138958380D02*
X143295619Y-138958380D01*
X143390857Y-139006000D01*
X143438476Y-139053619D01*
X143486095Y-139148857D01*
X143533714Y-139339333D01*
X143533714Y-139577428D01*
X143486095Y-139767904D01*
X143438476Y-139863142D01*
X143390857Y-139910761D01*
X143295619Y-139958380D01*
X143200380Y-139958380D01*
X143105142Y-139910761D01*
X143057523Y-139863142D01*
X143009904Y-139767904D01*
X142962285Y-139577428D01*
X142962285Y-139339333D01*
X143009904Y-139148857D01*
X143057523Y-139053619D01*
X143105142Y-139006000D01*
X143200380Y-138958380D01*
X144009904Y-139958380D02*
X144200380Y-139958380D01*
X144295619Y-139910761D01*
X144343238Y-139863142D01*
X144438476Y-139720285D01*
X144486095Y-139529809D01*
X144486095Y-139148857D01*
X144438476Y-139053619D01*
X144390857Y-139006000D01*
X144295619Y-138958380D01*
X144105142Y-138958380D01*
X144009904Y-139006000D01*
X143962285Y-139053619D01*
X143914666Y-139148857D01*
X143914666Y-139386952D01*
X143962285Y-139482190D01*
X144009904Y-139529809D01*
X144105142Y-139577428D01*
X144295619Y-139577428D01*
X144390857Y-139529809D01*
X144438476Y-139482190D01*
X144486095Y-139386952D01*
%TO.C,JP303*%
X160427380Y-54185714D02*
X161141666Y-54185714D01*
X161284523Y-54233333D01*
X161379761Y-54328571D01*
X161427380Y-54471428D01*
X161427380Y-54566666D01*
X161427380Y-53709523D02*
X160427380Y-53709523D01*
X160427380Y-53328571D01*
X160475000Y-53233333D01*
X160522619Y-53185714D01*
X160617857Y-53138095D01*
X160760714Y-53138095D01*
X160855952Y-53185714D01*
X160903571Y-53233333D01*
X160951190Y-53328571D01*
X160951190Y-53709523D01*
X160427380Y-52804761D02*
X160427380Y-52185714D01*
X160808333Y-52519047D01*
X160808333Y-52376190D01*
X160855952Y-52280952D01*
X160903571Y-52233333D01*
X160998809Y-52185714D01*
X161236904Y-52185714D01*
X161332142Y-52233333D01*
X161379761Y-52280952D01*
X161427380Y-52376190D01*
X161427380Y-52661904D01*
X161379761Y-52757142D01*
X161332142Y-52804761D01*
X160427380Y-51566666D02*
X160427380Y-51471428D01*
X160475000Y-51376190D01*
X160522619Y-51328571D01*
X160617857Y-51280952D01*
X160808333Y-51233333D01*
X161046428Y-51233333D01*
X161236904Y-51280952D01*
X161332142Y-51328571D01*
X161379761Y-51376190D01*
X161427380Y-51471428D01*
X161427380Y-51566666D01*
X161379761Y-51661904D01*
X161332142Y-51709523D01*
X161236904Y-51757142D01*
X161046428Y-51804761D01*
X160808333Y-51804761D01*
X160617857Y-51757142D01*
X160522619Y-51709523D01*
X160475000Y-51661904D01*
X160427380Y-51566666D01*
X160427380Y-50900000D02*
X160427380Y-50280952D01*
X160808333Y-50614285D01*
X160808333Y-50471428D01*
X160855952Y-50376190D01*
X160903571Y-50328571D01*
X160998809Y-50280952D01*
X161236904Y-50280952D01*
X161332142Y-50328571D01*
X161379761Y-50376190D01*
X161427380Y-50471428D01*
X161427380Y-50757142D01*
X161379761Y-50852380D01*
X161332142Y-50900000D01*
%TO.C,U302*%
X172260714Y-56752380D02*
X172260714Y-57561904D01*
X172308333Y-57657142D01*
X172355952Y-57704761D01*
X172451190Y-57752380D01*
X172641666Y-57752380D01*
X172736904Y-57704761D01*
X172784523Y-57657142D01*
X172832142Y-57561904D01*
X172832142Y-56752380D01*
X173213095Y-56752380D02*
X173832142Y-56752380D01*
X173498809Y-57133333D01*
X173641666Y-57133333D01*
X173736904Y-57180952D01*
X173784523Y-57228571D01*
X173832142Y-57323809D01*
X173832142Y-57561904D01*
X173784523Y-57657142D01*
X173736904Y-57704761D01*
X173641666Y-57752380D01*
X173355952Y-57752380D01*
X173260714Y-57704761D01*
X173213095Y-57657142D01*
X174451190Y-56752380D02*
X174546428Y-56752380D01*
X174641666Y-56800000D01*
X174689285Y-56847619D01*
X174736904Y-56942857D01*
X174784523Y-57133333D01*
X174784523Y-57371428D01*
X174736904Y-57561904D01*
X174689285Y-57657142D01*
X174641666Y-57704761D01*
X174546428Y-57752380D01*
X174451190Y-57752380D01*
X174355952Y-57704761D01*
X174308333Y-57657142D01*
X174260714Y-57561904D01*
X174213095Y-57371428D01*
X174213095Y-57133333D01*
X174260714Y-56942857D01*
X174308333Y-56847619D01*
X174355952Y-56800000D01*
X174451190Y-56752380D01*
X175165476Y-56847619D02*
X175213095Y-56800000D01*
X175308333Y-56752380D01*
X175546428Y-56752380D01*
X175641666Y-56800000D01*
X175689285Y-56847619D01*
X175736904Y-56942857D01*
X175736904Y-57038095D01*
X175689285Y-57180952D01*
X175117857Y-57752380D01*
X175736904Y-57752380D01*
%TO.C,C207*%
X136455952Y-140257142D02*
X136408333Y-140304761D01*
X136265476Y-140352380D01*
X136170238Y-140352380D01*
X136027380Y-140304761D01*
X135932142Y-140209523D01*
X135884523Y-140114285D01*
X135836904Y-139923809D01*
X135836904Y-139780952D01*
X135884523Y-139590476D01*
X135932142Y-139495238D01*
X136027380Y-139400000D01*
X136170238Y-139352380D01*
X136265476Y-139352380D01*
X136408333Y-139400000D01*
X136455952Y-139447619D01*
X136836904Y-139447619D02*
X136884523Y-139400000D01*
X136979761Y-139352380D01*
X137217857Y-139352380D01*
X137313095Y-139400000D01*
X137360714Y-139447619D01*
X137408333Y-139542857D01*
X137408333Y-139638095D01*
X137360714Y-139780952D01*
X136789285Y-140352380D01*
X137408333Y-140352380D01*
X138027380Y-139352380D02*
X138122619Y-139352380D01*
X138217857Y-139400000D01*
X138265476Y-139447619D01*
X138313095Y-139542857D01*
X138360714Y-139733333D01*
X138360714Y-139971428D01*
X138313095Y-140161904D01*
X138265476Y-140257142D01*
X138217857Y-140304761D01*
X138122619Y-140352380D01*
X138027380Y-140352380D01*
X137932142Y-140304761D01*
X137884523Y-140257142D01*
X137836904Y-140161904D01*
X137789285Y-139971428D01*
X137789285Y-139733333D01*
X137836904Y-139542857D01*
X137884523Y-139447619D01*
X137932142Y-139400000D01*
X138027380Y-139352380D01*
X138694047Y-139352380D02*
X139360714Y-139352380D01*
X138932142Y-140352380D01*
%TO.C,R202*%
X88227380Y-147019047D02*
X87751190Y-147352380D01*
X88227380Y-147590476D02*
X87227380Y-147590476D01*
X87227380Y-147209523D01*
X87275000Y-147114285D01*
X87322619Y-147066666D01*
X87417857Y-147019047D01*
X87560714Y-147019047D01*
X87655952Y-147066666D01*
X87703571Y-147114285D01*
X87751190Y-147209523D01*
X87751190Y-147590476D01*
X87322619Y-146638095D02*
X87275000Y-146590476D01*
X87227380Y-146495238D01*
X87227380Y-146257142D01*
X87275000Y-146161904D01*
X87322619Y-146114285D01*
X87417857Y-146066666D01*
X87513095Y-146066666D01*
X87655952Y-146114285D01*
X88227380Y-146685714D01*
X88227380Y-146066666D01*
X87227380Y-145447619D02*
X87227380Y-145352380D01*
X87275000Y-145257142D01*
X87322619Y-145209523D01*
X87417857Y-145161904D01*
X87608333Y-145114285D01*
X87846428Y-145114285D01*
X88036904Y-145161904D01*
X88132142Y-145209523D01*
X88179761Y-145257142D01*
X88227380Y-145352380D01*
X88227380Y-145447619D01*
X88179761Y-145542857D01*
X88132142Y-145590476D01*
X88036904Y-145638095D01*
X87846428Y-145685714D01*
X87608333Y-145685714D01*
X87417857Y-145638095D01*
X87322619Y-145590476D01*
X87275000Y-145542857D01*
X87227380Y-145447619D01*
X87322619Y-144733333D02*
X87275000Y-144685714D01*
X87227380Y-144590476D01*
X87227380Y-144352380D01*
X87275000Y-144257142D01*
X87322619Y-144209523D01*
X87417857Y-144161904D01*
X87513095Y-144161904D01*
X87655952Y-144209523D01*
X88227380Y-144780952D01*
X88227380Y-144161904D01*
%TO.C,J3*%
X132061666Y-119340380D02*
X132061666Y-120054666D01*
X132014047Y-120197523D01*
X131918809Y-120292761D01*
X131775952Y-120340380D01*
X131680714Y-120340380D01*
X132442619Y-119340380D02*
X133061666Y-119340380D01*
X132728333Y-119721333D01*
X132871190Y-119721333D01*
X132966428Y-119768952D01*
X133014047Y-119816571D01*
X133061666Y-119911809D01*
X133061666Y-120149904D01*
X133014047Y-120245142D01*
X132966428Y-120292761D01*
X132871190Y-120340380D01*
X132585476Y-120340380D01*
X132490238Y-120292761D01*
X132442619Y-120245142D01*
%TO.C,Q301*%
X178122619Y-139347619D02*
X178075000Y-139442857D01*
X177979761Y-139538095D01*
X177836904Y-139680952D01*
X177789285Y-139776190D01*
X177789285Y-139871428D01*
X178027380Y-139823809D02*
X177979761Y-139919047D01*
X177884523Y-140014285D01*
X177694047Y-140061904D01*
X177360714Y-140061904D01*
X177170238Y-140014285D01*
X177075000Y-139919047D01*
X177027380Y-139823809D01*
X177027380Y-139633333D01*
X177075000Y-139538095D01*
X177170238Y-139442857D01*
X177360714Y-139395238D01*
X177694047Y-139395238D01*
X177884523Y-139442857D01*
X177979761Y-139538095D01*
X178027380Y-139633333D01*
X178027380Y-139823809D01*
X177027380Y-139061904D02*
X177027380Y-138442857D01*
X177408333Y-138776190D01*
X177408333Y-138633333D01*
X177455952Y-138538095D01*
X177503571Y-138490476D01*
X177598809Y-138442857D01*
X177836904Y-138442857D01*
X177932142Y-138490476D01*
X177979761Y-138538095D01*
X178027380Y-138633333D01*
X178027380Y-138919047D01*
X177979761Y-139014285D01*
X177932142Y-139061904D01*
X177027380Y-137823809D02*
X177027380Y-137728571D01*
X177075000Y-137633333D01*
X177122619Y-137585714D01*
X177217857Y-137538095D01*
X177408333Y-137490476D01*
X177646428Y-137490476D01*
X177836904Y-137538095D01*
X177932142Y-137585714D01*
X177979761Y-137633333D01*
X178027380Y-137728571D01*
X178027380Y-137823809D01*
X177979761Y-137919047D01*
X177932142Y-137966666D01*
X177836904Y-138014285D01*
X177646428Y-138061904D01*
X177408333Y-138061904D01*
X177217857Y-138014285D01*
X177122619Y-137966666D01*
X177075000Y-137919047D01*
X177027380Y-137823809D01*
X178027380Y-136538095D02*
X178027380Y-137109523D01*
X178027380Y-136823809D02*
X177027380Y-136823809D01*
X177170238Y-136919047D01*
X177265476Y-137014285D01*
X177313095Y-137109523D01*
%TO.C,R308*%
X216159380Y-118155047D02*
X215683190Y-118488380D01*
X216159380Y-118726476D02*
X215159380Y-118726476D01*
X215159380Y-118345523D01*
X215207000Y-118250285D01*
X215254619Y-118202666D01*
X215349857Y-118155047D01*
X215492714Y-118155047D01*
X215587952Y-118202666D01*
X215635571Y-118250285D01*
X215683190Y-118345523D01*
X215683190Y-118726476D01*
X215159380Y-117821714D02*
X215159380Y-117202666D01*
X215540333Y-117536000D01*
X215540333Y-117393142D01*
X215587952Y-117297904D01*
X215635571Y-117250285D01*
X215730809Y-117202666D01*
X215968904Y-117202666D01*
X216064142Y-117250285D01*
X216111761Y-117297904D01*
X216159380Y-117393142D01*
X216159380Y-117678857D01*
X216111761Y-117774095D01*
X216064142Y-117821714D01*
X215159380Y-116583619D02*
X215159380Y-116488380D01*
X215207000Y-116393142D01*
X215254619Y-116345523D01*
X215349857Y-116297904D01*
X215540333Y-116250285D01*
X215778428Y-116250285D01*
X215968904Y-116297904D01*
X216064142Y-116345523D01*
X216111761Y-116393142D01*
X216159380Y-116488380D01*
X216159380Y-116583619D01*
X216111761Y-116678857D01*
X216064142Y-116726476D01*
X215968904Y-116774095D01*
X215778428Y-116821714D01*
X215540333Y-116821714D01*
X215349857Y-116774095D01*
X215254619Y-116726476D01*
X215207000Y-116678857D01*
X215159380Y-116583619D01*
X215587952Y-115678857D02*
X215540333Y-115774095D01*
X215492714Y-115821714D01*
X215397476Y-115869333D01*
X215349857Y-115869333D01*
X215254619Y-115821714D01*
X215207000Y-115774095D01*
X215159380Y-115678857D01*
X215159380Y-115488380D01*
X215207000Y-115393142D01*
X215254619Y-115345523D01*
X215349857Y-115297904D01*
X215397476Y-115297904D01*
X215492714Y-115345523D01*
X215540333Y-115393142D01*
X215587952Y-115488380D01*
X215587952Y-115678857D01*
X215635571Y-115774095D01*
X215683190Y-115821714D01*
X215778428Y-115869333D01*
X215968904Y-115869333D01*
X216064142Y-115821714D01*
X216111761Y-115774095D01*
X216159380Y-115678857D01*
X216159380Y-115488380D01*
X216111761Y-115393142D01*
X216064142Y-115345523D01*
X215968904Y-115297904D01*
X215778428Y-115297904D01*
X215683190Y-115345523D01*
X215635571Y-115393142D01*
X215587952Y-115488380D01*
%TO.C,U202*%
X115272380Y-99954285D02*
X116081904Y-99954285D01*
X116177142Y-99906666D01*
X116224761Y-99859047D01*
X116272380Y-99763809D01*
X116272380Y-99573333D01*
X116224761Y-99478095D01*
X116177142Y-99430476D01*
X116081904Y-99382857D01*
X115272380Y-99382857D01*
X115367619Y-98954285D02*
X115320000Y-98906666D01*
X115272380Y-98811428D01*
X115272380Y-98573333D01*
X115320000Y-98478095D01*
X115367619Y-98430476D01*
X115462857Y-98382857D01*
X115558095Y-98382857D01*
X115700952Y-98430476D01*
X116272380Y-99001904D01*
X116272380Y-98382857D01*
X115272380Y-97763809D02*
X115272380Y-97668571D01*
X115320000Y-97573333D01*
X115367619Y-97525714D01*
X115462857Y-97478095D01*
X115653333Y-97430476D01*
X115891428Y-97430476D01*
X116081904Y-97478095D01*
X116177142Y-97525714D01*
X116224761Y-97573333D01*
X116272380Y-97668571D01*
X116272380Y-97763809D01*
X116224761Y-97859047D01*
X116177142Y-97906666D01*
X116081904Y-97954285D01*
X115891428Y-98001904D01*
X115653333Y-98001904D01*
X115462857Y-97954285D01*
X115367619Y-97906666D01*
X115320000Y-97859047D01*
X115272380Y-97763809D01*
X115367619Y-97049523D02*
X115320000Y-97001904D01*
X115272380Y-96906666D01*
X115272380Y-96668571D01*
X115320000Y-96573333D01*
X115367619Y-96525714D01*
X115462857Y-96478095D01*
X115558095Y-96478095D01*
X115700952Y-96525714D01*
X116272380Y-97097142D01*
X116272380Y-96478095D01*
%TO.C,J302*%
X170418285Y-70572380D02*
X170418285Y-71286666D01*
X170370666Y-71429523D01*
X170275428Y-71524761D01*
X170132571Y-71572380D01*
X170037333Y-71572380D01*
X170799238Y-70572380D02*
X171418285Y-70572380D01*
X171084952Y-70953333D01*
X171227809Y-70953333D01*
X171323047Y-71000952D01*
X171370666Y-71048571D01*
X171418285Y-71143809D01*
X171418285Y-71381904D01*
X171370666Y-71477142D01*
X171323047Y-71524761D01*
X171227809Y-71572380D01*
X170942095Y-71572380D01*
X170846857Y-71524761D01*
X170799238Y-71477142D01*
X172037333Y-70572380D02*
X172132571Y-70572380D01*
X172227809Y-70620000D01*
X172275428Y-70667619D01*
X172323047Y-70762857D01*
X172370666Y-70953333D01*
X172370666Y-71191428D01*
X172323047Y-71381904D01*
X172275428Y-71477142D01*
X172227809Y-71524761D01*
X172132571Y-71572380D01*
X172037333Y-71572380D01*
X171942095Y-71524761D01*
X171894476Y-71477142D01*
X171846857Y-71381904D01*
X171799238Y-71191428D01*
X171799238Y-70953333D01*
X171846857Y-70762857D01*
X171894476Y-70667619D01*
X171942095Y-70620000D01*
X172037333Y-70572380D01*
X172751619Y-70667619D02*
X172799238Y-70620000D01*
X172894476Y-70572380D01*
X173132571Y-70572380D01*
X173227809Y-70620000D01*
X173275428Y-70667619D01*
X173323047Y-70762857D01*
X173323047Y-70858095D01*
X173275428Y-71000952D01*
X172704000Y-71572380D01*
X173323047Y-71572380D01*
%TO.C,C203*%
X130655952Y-136757142D02*
X130608333Y-136804761D01*
X130465476Y-136852380D01*
X130370238Y-136852380D01*
X130227380Y-136804761D01*
X130132142Y-136709523D01*
X130084523Y-136614285D01*
X130036904Y-136423809D01*
X130036904Y-136280952D01*
X130084523Y-136090476D01*
X130132142Y-135995238D01*
X130227380Y-135900000D01*
X130370238Y-135852380D01*
X130465476Y-135852380D01*
X130608333Y-135900000D01*
X130655952Y-135947619D01*
X131036904Y-135947619D02*
X131084523Y-135900000D01*
X131179761Y-135852380D01*
X131417857Y-135852380D01*
X131513095Y-135900000D01*
X131560714Y-135947619D01*
X131608333Y-136042857D01*
X131608333Y-136138095D01*
X131560714Y-136280952D01*
X130989285Y-136852380D01*
X131608333Y-136852380D01*
X132227380Y-135852380D02*
X132322619Y-135852380D01*
X132417857Y-135900000D01*
X132465476Y-135947619D01*
X132513095Y-136042857D01*
X132560714Y-136233333D01*
X132560714Y-136471428D01*
X132513095Y-136661904D01*
X132465476Y-136757142D01*
X132417857Y-136804761D01*
X132322619Y-136852380D01*
X132227380Y-136852380D01*
X132132142Y-136804761D01*
X132084523Y-136757142D01*
X132036904Y-136661904D01*
X131989285Y-136471428D01*
X131989285Y-136233333D01*
X132036904Y-136042857D01*
X132084523Y-135947619D01*
X132132142Y-135900000D01*
X132227380Y-135852380D01*
X132894047Y-135852380D02*
X133513095Y-135852380D01*
X133179761Y-136233333D01*
X133322619Y-136233333D01*
X133417857Y-136280952D01*
X133465476Y-136328571D01*
X133513095Y-136423809D01*
X133513095Y-136661904D01*
X133465476Y-136757142D01*
X133417857Y-136804761D01*
X133322619Y-136852380D01*
X133036904Y-136852380D01*
X132941666Y-136804761D01*
X132894047Y-136757142D01*
%TO.C,FL301*%
X153184523Y-141728571D02*
X152851190Y-141728571D01*
X152851190Y-142252380D02*
X152851190Y-141252380D01*
X153327380Y-141252380D01*
X154184523Y-142252380D02*
X153708333Y-142252380D01*
X153708333Y-141252380D01*
X154422619Y-141252380D02*
X155041666Y-141252380D01*
X154708333Y-141633333D01*
X154851190Y-141633333D01*
X154946428Y-141680952D01*
X154994047Y-141728571D01*
X155041666Y-141823809D01*
X155041666Y-142061904D01*
X154994047Y-142157142D01*
X154946428Y-142204761D01*
X154851190Y-142252380D01*
X154565476Y-142252380D01*
X154470238Y-142204761D01*
X154422619Y-142157142D01*
X155660714Y-141252380D02*
X155755952Y-141252380D01*
X155851190Y-141300000D01*
X155898809Y-141347619D01*
X155946428Y-141442857D01*
X155994047Y-141633333D01*
X155994047Y-141871428D01*
X155946428Y-142061904D01*
X155898809Y-142157142D01*
X155851190Y-142204761D01*
X155755952Y-142252380D01*
X155660714Y-142252380D01*
X155565476Y-142204761D01*
X155517857Y-142157142D01*
X155470238Y-142061904D01*
X155422619Y-141871428D01*
X155422619Y-141633333D01*
X155470238Y-141442857D01*
X155517857Y-141347619D01*
X155565476Y-141300000D01*
X155660714Y-141252380D01*
X156946428Y-142252380D02*
X156375000Y-142252380D01*
X156660714Y-142252380D02*
X156660714Y-141252380D01*
X156565476Y-141395238D01*
X156470238Y-141490476D01*
X156375000Y-141538095D01*
%TO.C,D301*%
X74366380Y-67690476D02*
X73366380Y-67690476D01*
X73366380Y-67452380D01*
X73414000Y-67309523D01*
X73509238Y-67214285D01*
X73604476Y-67166666D01*
X73794952Y-67119047D01*
X73937809Y-67119047D01*
X74128285Y-67166666D01*
X74223523Y-67214285D01*
X74318761Y-67309523D01*
X74366380Y-67452380D01*
X74366380Y-67690476D01*
X73366380Y-66785714D02*
X73366380Y-66166666D01*
X73747333Y-66500000D01*
X73747333Y-66357142D01*
X73794952Y-66261904D01*
X73842571Y-66214285D01*
X73937809Y-66166666D01*
X74175904Y-66166666D01*
X74271142Y-66214285D01*
X74318761Y-66261904D01*
X74366380Y-66357142D01*
X74366380Y-66642857D01*
X74318761Y-66738095D01*
X74271142Y-66785714D01*
X73366380Y-65547619D02*
X73366380Y-65452380D01*
X73414000Y-65357142D01*
X73461619Y-65309523D01*
X73556857Y-65261904D01*
X73747333Y-65214285D01*
X73985428Y-65214285D01*
X74175904Y-65261904D01*
X74271142Y-65309523D01*
X74318761Y-65357142D01*
X74366380Y-65452380D01*
X74366380Y-65547619D01*
X74318761Y-65642857D01*
X74271142Y-65690476D01*
X74175904Y-65738095D01*
X73985428Y-65785714D01*
X73747333Y-65785714D01*
X73556857Y-65738095D01*
X73461619Y-65690476D01*
X73414000Y-65642857D01*
X73366380Y-65547619D01*
X74366380Y-64261904D02*
X74366380Y-64833333D01*
X74366380Y-64547619D02*
X73366380Y-64547619D01*
X73509238Y-64642857D01*
X73604476Y-64738095D01*
X73652095Y-64833333D01*
%TO.C,R215*%
X89255952Y-97734380D02*
X88922619Y-97258190D01*
X88684523Y-97734380D02*
X88684523Y-96734380D01*
X89065476Y-96734380D01*
X89160714Y-96782000D01*
X89208333Y-96829619D01*
X89255952Y-96924857D01*
X89255952Y-97067714D01*
X89208333Y-97162952D01*
X89160714Y-97210571D01*
X89065476Y-97258190D01*
X88684523Y-97258190D01*
X89636904Y-96829619D02*
X89684523Y-96782000D01*
X89779761Y-96734380D01*
X90017857Y-96734380D01*
X90113095Y-96782000D01*
X90160714Y-96829619D01*
X90208333Y-96924857D01*
X90208333Y-97020095D01*
X90160714Y-97162952D01*
X89589285Y-97734380D01*
X90208333Y-97734380D01*
X91160714Y-97734380D02*
X90589285Y-97734380D01*
X90875000Y-97734380D02*
X90875000Y-96734380D01*
X90779761Y-96877238D01*
X90684523Y-96972476D01*
X90589285Y-97020095D01*
X92065476Y-96734380D02*
X91589285Y-96734380D01*
X91541666Y-97210571D01*
X91589285Y-97162952D01*
X91684523Y-97115333D01*
X91922619Y-97115333D01*
X92017857Y-97162952D01*
X92065476Y-97210571D01*
X92113095Y-97305809D01*
X92113095Y-97543904D01*
X92065476Y-97639142D01*
X92017857Y-97686761D01*
X91922619Y-97734380D01*
X91684523Y-97734380D01*
X91589285Y-97686761D01*
X91541666Y-97639142D01*
D12*
%TO.C,JP220*%
X98421142Y-127742190D02*
X98421142Y-128099333D01*
X98397333Y-128170761D01*
X98349714Y-128218380D01*
X98278285Y-128242190D01*
X98230666Y-128242190D01*
X98659238Y-128242190D02*
X98659238Y-127742190D01*
X98849714Y-127742190D01*
X98897333Y-127766000D01*
X98921142Y-127789809D01*
X98944952Y-127837428D01*
X98944952Y-127908857D01*
X98921142Y-127956476D01*
X98897333Y-127980285D01*
X98849714Y-128004095D01*
X98659238Y-128004095D01*
X99135428Y-127789809D02*
X99159238Y-127766000D01*
X99206857Y-127742190D01*
X99325904Y-127742190D01*
X99373523Y-127766000D01*
X99397333Y-127789809D01*
X99421142Y-127837428D01*
X99421142Y-127885047D01*
X99397333Y-127956476D01*
X99111619Y-128242190D01*
X99421142Y-128242190D01*
X99611619Y-127789809D02*
X99635428Y-127766000D01*
X99683047Y-127742190D01*
X99802095Y-127742190D01*
X99849714Y-127766000D01*
X99873523Y-127789809D01*
X99897333Y-127837428D01*
X99897333Y-127885047D01*
X99873523Y-127956476D01*
X99587809Y-128242190D01*
X99897333Y-128242190D01*
X100206857Y-127742190D02*
X100254476Y-127742190D01*
X100302095Y-127766000D01*
X100325904Y-127789809D01*
X100349714Y-127837428D01*
X100373523Y-127932666D01*
X100373523Y-128051714D01*
X100349714Y-128146952D01*
X100325904Y-128194571D01*
X100302095Y-128218380D01*
X100254476Y-128242190D01*
X100206857Y-128242190D01*
X100159238Y-128218380D01*
X100135428Y-128194571D01*
X100111619Y-128146952D01*
X100087809Y-128051714D01*
X100087809Y-127932666D01*
X100111619Y-127837428D01*
X100135428Y-127789809D01*
X100159238Y-127766000D01*
X100206857Y-127742190D01*
D10*
%TO.C,RN201*%
X106632142Y-124752380D02*
X106298809Y-124276190D01*
X106060714Y-124752380D02*
X106060714Y-123752380D01*
X106441666Y-123752380D01*
X106536904Y-123800000D01*
X106584523Y-123847619D01*
X106632142Y-123942857D01*
X106632142Y-124085714D01*
X106584523Y-124180952D01*
X106536904Y-124228571D01*
X106441666Y-124276190D01*
X106060714Y-124276190D01*
X107060714Y-124752380D02*
X107060714Y-123752380D01*
X107632142Y-124752380D01*
X107632142Y-123752380D01*
X108060714Y-123847619D02*
X108108333Y-123800000D01*
X108203571Y-123752380D01*
X108441666Y-123752380D01*
X108536904Y-123800000D01*
X108584523Y-123847619D01*
X108632142Y-123942857D01*
X108632142Y-124038095D01*
X108584523Y-124180952D01*
X108013095Y-124752380D01*
X108632142Y-124752380D01*
X109251190Y-123752380D02*
X109346428Y-123752380D01*
X109441666Y-123800000D01*
X109489285Y-123847619D01*
X109536904Y-123942857D01*
X109584523Y-124133333D01*
X109584523Y-124371428D01*
X109536904Y-124561904D01*
X109489285Y-124657142D01*
X109441666Y-124704761D01*
X109346428Y-124752380D01*
X109251190Y-124752380D01*
X109155952Y-124704761D01*
X109108333Y-124657142D01*
X109060714Y-124561904D01*
X109013095Y-124371428D01*
X109013095Y-124133333D01*
X109060714Y-123942857D01*
X109108333Y-123847619D01*
X109155952Y-123800000D01*
X109251190Y-123752380D01*
X110536904Y-124752380D02*
X109965476Y-124752380D01*
X110251190Y-124752380D02*
X110251190Y-123752380D01*
X110155952Y-123895238D01*
X110060714Y-123990476D01*
X109965476Y-124038095D01*
%TO.C,D305*%
X179584523Y-126352380D02*
X179584523Y-125352380D01*
X179822619Y-125352380D01*
X179965476Y-125400000D01*
X180060714Y-125495238D01*
X180108333Y-125590476D01*
X180155952Y-125780952D01*
X180155952Y-125923809D01*
X180108333Y-126114285D01*
X180060714Y-126209523D01*
X179965476Y-126304761D01*
X179822619Y-126352380D01*
X179584523Y-126352380D01*
X180489285Y-125352380D02*
X181108333Y-125352380D01*
X180775000Y-125733333D01*
X180917857Y-125733333D01*
X181013095Y-125780952D01*
X181060714Y-125828571D01*
X181108333Y-125923809D01*
X181108333Y-126161904D01*
X181060714Y-126257142D01*
X181013095Y-126304761D01*
X180917857Y-126352380D01*
X180632142Y-126352380D01*
X180536904Y-126304761D01*
X180489285Y-126257142D01*
X181727380Y-125352380D02*
X181822619Y-125352380D01*
X181917857Y-125400000D01*
X181965476Y-125447619D01*
X182013095Y-125542857D01*
X182060714Y-125733333D01*
X182060714Y-125971428D01*
X182013095Y-126161904D01*
X181965476Y-126257142D01*
X181917857Y-126304761D01*
X181822619Y-126352380D01*
X181727380Y-126352380D01*
X181632142Y-126304761D01*
X181584523Y-126257142D01*
X181536904Y-126161904D01*
X181489285Y-125971428D01*
X181489285Y-125733333D01*
X181536904Y-125542857D01*
X181584523Y-125447619D01*
X181632142Y-125400000D01*
X181727380Y-125352380D01*
X182965476Y-125352380D02*
X182489285Y-125352380D01*
X182441666Y-125828571D01*
X182489285Y-125780952D01*
X182584523Y-125733333D01*
X182822619Y-125733333D01*
X182917857Y-125780952D01*
X182965476Y-125828571D01*
X183013095Y-125923809D01*
X183013095Y-126161904D01*
X182965476Y-126257142D01*
X182917857Y-126304761D01*
X182822619Y-126352380D01*
X182584523Y-126352380D01*
X182489285Y-126304761D01*
X182441666Y-126257142D01*
%TO.C,J304*%
X163714285Y-132602380D02*
X163714285Y-133316666D01*
X163666666Y-133459523D01*
X163571428Y-133554761D01*
X163428571Y-133602380D01*
X163333333Y-133602380D01*
X164095238Y-132602380D02*
X164714285Y-132602380D01*
X164380952Y-132983333D01*
X164523809Y-132983333D01*
X164619047Y-133030952D01*
X164666666Y-133078571D01*
X164714285Y-133173809D01*
X164714285Y-133411904D01*
X164666666Y-133507142D01*
X164619047Y-133554761D01*
X164523809Y-133602380D01*
X164238095Y-133602380D01*
X164142857Y-133554761D01*
X164095238Y-133507142D01*
X165333333Y-132602380D02*
X165428571Y-132602380D01*
X165523809Y-132650000D01*
X165571428Y-132697619D01*
X165619047Y-132792857D01*
X165666666Y-132983333D01*
X165666666Y-133221428D01*
X165619047Y-133411904D01*
X165571428Y-133507142D01*
X165523809Y-133554761D01*
X165428571Y-133602380D01*
X165333333Y-133602380D01*
X165238095Y-133554761D01*
X165190476Y-133507142D01*
X165142857Y-133411904D01*
X165095238Y-133221428D01*
X165095238Y-132983333D01*
X165142857Y-132792857D01*
X165190476Y-132697619D01*
X165238095Y-132650000D01*
X165333333Y-132602380D01*
X166523809Y-132935714D02*
X166523809Y-133602380D01*
X166285714Y-132554761D02*
X166047619Y-133269047D01*
X166666666Y-133269047D01*
%TO.C,R209*%
X87855952Y-124052380D02*
X87522619Y-123576190D01*
X87284523Y-124052380D02*
X87284523Y-123052380D01*
X87665476Y-123052380D01*
X87760714Y-123100000D01*
X87808333Y-123147619D01*
X87855952Y-123242857D01*
X87855952Y-123385714D01*
X87808333Y-123480952D01*
X87760714Y-123528571D01*
X87665476Y-123576190D01*
X87284523Y-123576190D01*
X88236904Y-123147619D02*
X88284523Y-123100000D01*
X88379761Y-123052380D01*
X88617857Y-123052380D01*
X88713095Y-123100000D01*
X88760714Y-123147619D01*
X88808333Y-123242857D01*
X88808333Y-123338095D01*
X88760714Y-123480952D01*
X88189285Y-124052380D01*
X88808333Y-124052380D01*
X89427380Y-123052380D02*
X89522619Y-123052380D01*
X89617857Y-123100000D01*
X89665476Y-123147619D01*
X89713095Y-123242857D01*
X89760714Y-123433333D01*
X89760714Y-123671428D01*
X89713095Y-123861904D01*
X89665476Y-123957142D01*
X89617857Y-124004761D01*
X89522619Y-124052380D01*
X89427380Y-124052380D01*
X89332142Y-124004761D01*
X89284523Y-123957142D01*
X89236904Y-123861904D01*
X89189285Y-123671428D01*
X89189285Y-123433333D01*
X89236904Y-123242857D01*
X89284523Y-123147619D01*
X89332142Y-123100000D01*
X89427380Y-123052380D01*
X90236904Y-124052380D02*
X90427380Y-124052380D01*
X90522619Y-124004761D01*
X90570238Y-123957142D01*
X90665476Y-123814285D01*
X90713095Y-123623809D01*
X90713095Y-123242857D01*
X90665476Y-123147619D01*
X90617857Y-123100000D01*
X90522619Y-123052380D01*
X90332142Y-123052380D01*
X90236904Y-123100000D01*
X90189285Y-123147619D01*
X90141666Y-123242857D01*
X90141666Y-123480952D01*
X90189285Y-123576190D01*
X90236904Y-123623809D01*
X90332142Y-123671428D01*
X90522619Y-123671428D01*
X90617857Y-123623809D01*
X90665476Y-123576190D01*
X90713095Y-123480952D01*
%TO.C,C306*%
X179055952Y-66757142D02*
X179008333Y-66804761D01*
X178865476Y-66852380D01*
X178770238Y-66852380D01*
X178627380Y-66804761D01*
X178532142Y-66709523D01*
X178484523Y-66614285D01*
X178436904Y-66423809D01*
X178436904Y-66280952D01*
X178484523Y-66090476D01*
X178532142Y-65995238D01*
X178627380Y-65900000D01*
X178770238Y-65852380D01*
X178865476Y-65852380D01*
X179008333Y-65900000D01*
X179055952Y-65947619D01*
X179389285Y-65852380D02*
X180008333Y-65852380D01*
X179675000Y-66233333D01*
X179817857Y-66233333D01*
X179913095Y-66280952D01*
X179960714Y-66328571D01*
X180008333Y-66423809D01*
X180008333Y-66661904D01*
X179960714Y-66757142D01*
X179913095Y-66804761D01*
X179817857Y-66852380D01*
X179532142Y-66852380D01*
X179436904Y-66804761D01*
X179389285Y-66757142D01*
X180627380Y-65852380D02*
X180722619Y-65852380D01*
X180817857Y-65900000D01*
X180865476Y-65947619D01*
X180913095Y-66042857D01*
X180960714Y-66233333D01*
X180960714Y-66471428D01*
X180913095Y-66661904D01*
X180865476Y-66757142D01*
X180817857Y-66804761D01*
X180722619Y-66852380D01*
X180627380Y-66852380D01*
X180532142Y-66804761D01*
X180484523Y-66757142D01*
X180436904Y-66661904D01*
X180389285Y-66471428D01*
X180389285Y-66233333D01*
X180436904Y-66042857D01*
X180484523Y-65947619D01*
X180532142Y-65900000D01*
X180627380Y-65852380D01*
X181817857Y-65852380D02*
X181627380Y-65852380D01*
X181532142Y-65900000D01*
X181484523Y-65947619D01*
X181389285Y-66090476D01*
X181341666Y-66280952D01*
X181341666Y-66661904D01*
X181389285Y-66757142D01*
X181436904Y-66804761D01*
X181532142Y-66852380D01*
X181722619Y-66852380D01*
X181817857Y-66804761D01*
X181865476Y-66757142D01*
X181913095Y-66661904D01*
X181913095Y-66423809D01*
X181865476Y-66328571D01*
X181817857Y-66280952D01*
X181722619Y-66233333D01*
X181532142Y-66233333D01*
X181436904Y-66280952D01*
X181389285Y-66328571D01*
X181341666Y-66423809D01*
%TO.C,J7*%
X140001666Y-119340380D02*
X140001666Y-120054666D01*
X139954047Y-120197523D01*
X139858809Y-120292761D01*
X139715952Y-120340380D01*
X139620714Y-120340380D01*
X140382619Y-119340380D02*
X141049285Y-119340380D01*
X140620714Y-120340380D01*
%TO.C,C201*%
X84478952Y-137771142D02*
X84431333Y-137818761D01*
X84288476Y-137866380D01*
X84193238Y-137866380D01*
X84050380Y-137818761D01*
X83955142Y-137723523D01*
X83907523Y-137628285D01*
X83859904Y-137437809D01*
X83859904Y-137294952D01*
X83907523Y-137104476D01*
X83955142Y-137009238D01*
X84050380Y-136914000D01*
X84193238Y-136866380D01*
X84288476Y-136866380D01*
X84431333Y-136914000D01*
X84478952Y-136961619D01*
X84859904Y-136961619D02*
X84907523Y-136914000D01*
X85002761Y-136866380D01*
X85240857Y-136866380D01*
X85336095Y-136914000D01*
X85383714Y-136961619D01*
X85431333Y-137056857D01*
X85431333Y-137152095D01*
X85383714Y-137294952D01*
X84812285Y-137866380D01*
X85431333Y-137866380D01*
X86050380Y-136866380D02*
X86145619Y-136866380D01*
X86240857Y-136914000D01*
X86288476Y-136961619D01*
X86336095Y-137056857D01*
X86383714Y-137247333D01*
X86383714Y-137485428D01*
X86336095Y-137675904D01*
X86288476Y-137771142D01*
X86240857Y-137818761D01*
X86145619Y-137866380D01*
X86050380Y-137866380D01*
X85955142Y-137818761D01*
X85907523Y-137771142D01*
X85859904Y-137675904D01*
X85812285Y-137485428D01*
X85812285Y-137247333D01*
X85859904Y-137056857D01*
X85907523Y-136961619D01*
X85955142Y-136914000D01*
X86050380Y-136866380D01*
X87336095Y-137866380D02*
X86764666Y-137866380D01*
X87050380Y-137866380D02*
X87050380Y-136866380D01*
X86955142Y-137009238D01*
X86859904Y-137104476D01*
X86764666Y-137152095D01*
%TO.C,R205*%
X128755952Y-131712380D02*
X128422619Y-131236190D01*
X128184523Y-131712380D02*
X128184523Y-130712380D01*
X128565476Y-130712380D01*
X128660714Y-130760000D01*
X128708333Y-130807619D01*
X128755952Y-130902857D01*
X128755952Y-131045714D01*
X128708333Y-131140952D01*
X128660714Y-131188571D01*
X128565476Y-131236190D01*
X128184523Y-131236190D01*
X129136904Y-130807619D02*
X129184523Y-130760000D01*
X129279761Y-130712380D01*
X129517857Y-130712380D01*
X129613095Y-130760000D01*
X129660714Y-130807619D01*
X129708333Y-130902857D01*
X129708333Y-130998095D01*
X129660714Y-131140952D01*
X129089285Y-131712380D01*
X129708333Y-131712380D01*
X130327380Y-130712380D02*
X130422619Y-130712380D01*
X130517857Y-130760000D01*
X130565476Y-130807619D01*
X130613095Y-130902857D01*
X130660714Y-131093333D01*
X130660714Y-131331428D01*
X130613095Y-131521904D01*
X130565476Y-131617142D01*
X130517857Y-131664761D01*
X130422619Y-131712380D01*
X130327380Y-131712380D01*
X130232142Y-131664761D01*
X130184523Y-131617142D01*
X130136904Y-131521904D01*
X130089285Y-131331428D01*
X130089285Y-131093333D01*
X130136904Y-130902857D01*
X130184523Y-130807619D01*
X130232142Y-130760000D01*
X130327380Y-130712380D01*
X131565476Y-130712380D02*
X131089285Y-130712380D01*
X131041666Y-131188571D01*
X131089285Y-131140952D01*
X131184523Y-131093333D01*
X131422619Y-131093333D01*
X131517857Y-131140952D01*
X131565476Y-131188571D01*
X131613095Y-131283809D01*
X131613095Y-131521904D01*
X131565476Y-131617142D01*
X131517857Y-131664761D01*
X131422619Y-131712380D01*
X131184523Y-131712380D01*
X131089285Y-131664761D01*
X131041666Y-131617142D01*
%TO.C,JP304*%
X154427380Y-54285714D02*
X155141666Y-54285714D01*
X155284523Y-54333333D01*
X155379761Y-54428571D01*
X155427380Y-54571428D01*
X155427380Y-54666666D01*
X155427380Y-53809523D02*
X154427380Y-53809523D01*
X154427380Y-53428571D01*
X154475000Y-53333333D01*
X154522619Y-53285714D01*
X154617857Y-53238095D01*
X154760714Y-53238095D01*
X154855952Y-53285714D01*
X154903571Y-53333333D01*
X154951190Y-53428571D01*
X154951190Y-53809523D01*
X154427380Y-52904761D02*
X154427380Y-52285714D01*
X154808333Y-52619047D01*
X154808333Y-52476190D01*
X154855952Y-52380952D01*
X154903571Y-52333333D01*
X154998809Y-52285714D01*
X155236904Y-52285714D01*
X155332142Y-52333333D01*
X155379761Y-52380952D01*
X155427380Y-52476190D01*
X155427380Y-52761904D01*
X155379761Y-52857142D01*
X155332142Y-52904761D01*
X154427380Y-51666666D02*
X154427380Y-51571428D01*
X154475000Y-51476190D01*
X154522619Y-51428571D01*
X154617857Y-51380952D01*
X154808333Y-51333333D01*
X155046428Y-51333333D01*
X155236904Y-51380952D01*
X155332142Y-51428571D01*
X155379761Y-51476190D01*
X155427380Y-51571428D01*
X155427380Y-51666666D01*
X155379761Y-51761904D01*
X155332142Y-51809523D01*
X155236904Y-51857142D01*
X155046428Y-51904761D01*
X154808333Y-51904761D01*
X154617857Y-51857142D01*
X154522619Y-51809523D01*
X154475000Y-51761904D01*
X154427380Y-51666666D01*
X154760714Y-50476190D02*
X155427380Y-50476190D01*
X154379761Y-50714285D02*
X155094047Y-50952380D01*
X155094047Y-50333333D01*
%TO.C,C301*%
X168677142Y-61063047D02*
X168724761Y-61110666D01*
X168772380Y-61253523D01*
X168772380Y-61348761D01*
X168724761Y-61491619D01*
X168629523Y-61586857D01*
X168534285Y-61634476D01*
X168343809Y-61682095D01*
X168200952Y-61682095D01*
X168010476Y-61634476D01*
X167915238Y-61586857D01*
X167820000Y-61491619D01*
X167772380Y-61348761D01*
X167772380Y-61253523D01*
X167820000Y-61110666D01*
X167867619Y-61063047D01*
X167772380Y-60729714D02*
X167772380Y-60110666D01*
X168153333Y-60444000D01*
X168153333Y-60301142D01*
X168200952Y-60205904D01*
X168248571Y-60158285D01*
X168343809Y-60110666D01*
X168581904Y-60110666D01*
X168677142Y-60158285D01*
X168724761Y-60205904D01*
X168772380Y-60301142D01*
X168772380Y-60586857D01*
X168724761Y-60682095D01*
X168677142Y-60729714D01*
X167772380Y-59491619D02*
X167772380Y-59396380D01*
X167820000Y-59301142D01*
X167867619Y-59253523D01*
X167962857Y-59205904D01*
X168153333Y-59158285D01*
X168391428Y-59158285D01*
X168581904Y-59205904D01*
X168677142Y-59253523D01*
X168724761Y-59301142D01*
X168772380Y-59396380D01*
X168772380Y-59491619D01*
X168724761Y-59586857D01*
X168677142Y-59634476D01*
X168581904Y-59682095D01*
X168391428Y-59729714D01*
X168153333Y-59729714D01*
X167962857Y-59682095D01*
X167867619Y-59634476D01*
X167820000Y-59586857D01*
X167772380Y-59491619D01*
X168772380Y-58205904D02*
X168772380Y-58777333D01*
X168772380Y-58491619D02*
X167772380Y-58491619D01*
X167915238Y-58586857D01*
X168010476Y-58682095D01*
X168058095Y-58777333D01*
%TO.C,D304*%
X175384523Y-126552380D02*
X175384523Y-125552380D01*
X175622619Y-125552380D01*
X175765476Y-125600000D01*
X175860714Y-125695238D01*
X175908333Y-125790476D01*
X175955952Y-125980952D01*
X175955952Y-126123809D01*
X175908333Y-126314285D01*
X175860714Y-126409523D01*
X175765476Y-126504761D01*
X175622619Y-126552380D01*
X175384523Y-126552380D01*
X176289285Y-125552380D02*
X176908333Y-125552380D01*
X176575000Y-125933333D01*
X176717857Y-125933333D01*
X176813095Y-125980952D01*
X176860714Y-126028571D01*
X176908333Y-126123809D01*
X176908333Y-126361904D01*
X176860714Y-126457142D01*
X176813095Y-126504761D01*
X176717857Y-126552380D01*
X176432142Y-126552380D01*
X176336904Y-126504761D01*
X176289285Y-126457142D01*
X177527380Y-125552380D02*
X177622619Y-125552380D01*
X177717857Y-125600000D01*
X177765476Y-125647619D01*
X177813095Y-125742857D01*
X177860714Y-125933333D01*
X177860714Y-126171428D01*
X177813095Y-126361904D01*
X177765476Y-126457142D01*
X177717857Y-126504761D01*
X177622619Y-126552380D01*
X177527380Y-126552380D01*
X177432142Y-126504761D01*
X177384523Y-126457142D01*
X177336904Y-126361904D01*
X177289285Y-126171428D01*
X177289285Y-125933333D01*
X177336904Y-125742857D01*
X177384523Y-125647619D01*
X177432142Y-125600000D01*
X177527380Y-125552380D01*
X178717857Y-125885714D02*
X178717857Y-126552380D01*
X178479761Y-125504761D02*
X178241666Y-126219047D01*
X178860714Y-126219047D01*
%TO.C,R303*%
X180127380Y-55319047D02*
X179651190Y-55652380D01*
X180127380Y-55890476D02*
X179127380Y-55890476D01*
X179127380Y-55509523D01*
X179175000Y-55414285D01*
X179222619Y-55366666D01*
X179317857Y-55319047D01*
X179460714Y-55319047D01*
X179555952Y-55366666D01*
X179603571Y-55414285D01*
X179651190Y-55509523D01*
X179651190Y-55890476D01*
X179127380Y-54985714D02*
X179127380Y-54366666D01*
X179508333Y-54700000D01*
X179508333Y-54557142D01*
X179555952Y-54461904D01*
X179603571Y-54414285D01*
X179698809Y-54366666D01*
X179936904Y-54366666D01*
X180032142Y-54414285D01*
X180079761Y-54461904D01*
X180127380Y-54557142D01*
X180127380Y-54842857D01*
X180079761Y-54938095D01*
X180032142Y-54985714D01*
X179127380Y-53747619D02*
X179127380Y-53652380D01*
X179175000Y-53557142D01*
X179222619Y-53509523D01*
X179317857Y-53461904D01*
X179508333Y-53414285D01*
X179746428Y-53414285D01*
X179936904Y-53461904D01*
X180032142Y-53509523D01*
X180079761Y-53557142D01*
X180127380Y-53652380D01*
X180127380Y-53747619D01*
X180079761Y-53842857D01*
X180032142Y-53890476D01*
X179936904Y-53938095D01*
X179746428Y-53985714D01*
X179508333Y-53985714D01*
X179317857Y-53938095D01*
X179222619Y-53890476D01*
X179175000Y-53842857D01*
X179127380Y-53747619D01*
X179127380Y-53080952D02*
X179127380Y-52461904D01*
X179508333Y-52795238D01*
X179508333Y-52652380D01*
X179555952Y-52557142D01*
X179603571Y-52509523D01*
X179698809Y-52461904D01*
X179936904Y-52461904D01*
X180032142Y-52509523D01*
X180079761Y-52557142D01*
X180127380Y-52652380D01*
X180127380Y-52938095D01*
X180079761Y-53033333D01*
X180032142Y-53080952D01*
%TO.C,C202*%
X90632142Y-147119047D02*
X90679761Y-147166666D01*
X90727380Y-147309523D01*
X90727380Y-147404761D01*
X90679761Y-147547619D01*
X90584523Y-147642857D01*
X90489285Y-147690476D01*
X90298809Y-147738095D01*
X90155952Y-147738095D01*
X89965476Y-147690476D01*
X89870238Y-147642857D01*
X89775000Y-147547619D01*
X89727380Y-147404761D01*
X89727380Y-147309523D01*
X89775000Y-147166666D01*
X89822619Y-147119047D01*
X89822619Y-146738095D02*
X89775000Y-146690476D01*
X89727380Y-146595238D01*
X89727380Y-146357142D01*
X89775000Y-146261904D01*
X89822619Y-146214285D01*
X89917857Y-146166666D01*
X90013095Y-146166666D01*
X90155952Y-146214285D01*
X90727380Y-146785714D01*
X90727380Y-146166666D01*
X89727380Y-145547619D02*
X89727380Y-145452380D01*
X89775000Y-145357142D01*
X89822619Y-145309523D01*
X89917857Y-145261904D01*
X90108333Y-145214285D01*
X90346428Y-145214285D01*
X90536904Y-145261904D01*
X90632142Y-145309523D01*
X90679761Y-145357142D01*
X90727380Y-145452380D01*
X90727380Y-145547619D01*
X90679761Y-145642857D01*
X90632142Y-145690476D01*
X90536904Y-145738095D01*
X90346428Y-145785714D01*
X90108333Y-145785714D01*
X89917857Y-145738095D01*
X89822619Y-145690476D01*
X89775000Y-145642857D01*
X89727380Y-145547619D01*
X89822619Y-144833333D02*
X89775000Y-144785714D01*
X89727380Y-144690476D01*
X89727380Y-144452380D01*
X89775000Y-144357142D01*
X89822619Y-144309523D01*
X89917857Y-144261904D01*
X90013095Y-144261904D01*
X90155952Y-144309523D01*
X90727380Y-144880952D01*
X90727380Y-144261904D01*
%TO.C,C304*%
X182332142Y-55219047D02*
X182379761Y-55266666D01*
X182427380Y-55409523D01*
X182427380Y-55504761D01*
X182379761Y-55647619D01*
X182284523Y-55742857D01*
X182189285Y-55790476D01*
X181998809Y-55838095D01*
X181855952Y-55838095D01*
X181665476Y-55790476D01*
X181570238Y-55742857D01*
X181475000Y-55647619D01*
X181427380Y-55504761D01*
X181427380Y-55409523D01*
X181475000Y-55266666D01*
X181522619Y-55219047D01*
X181427380Y-54885714D02*
X181427380Y-54266666D01*
X181808333Y-54600000D01*
X181808333Y-54457142D01*
X181855952Y-54361904D01*
X181903571Y-54314285D01*
X181998809Y-54266666D01*
X182236904Y-54266666D01*
X182332142Y-54314285D01*
X182379761Y-54361904D01*
X182427380Y-54457142D01*
X182427380Y-54742857D01*
X182379761Y-54838095D01*
X182332142Y-54885714D01*
X181427380Y-53647619D02*
X181427380Y-53552380D01*
X181475000Y-53457142D01*
X181522619Y-53409523D01*
X181617857Y-53361904D01*
X181808333Y-53314285D01*
X182046428Y-53314285D01*
X182236904Y-53361904D01*
X182332142Y-53409523D01*
X182379761Y-53457142D01*
X182427380Y-53552380D01*
X182427380Y-53647619D01*
X182379761Y-53742857D01*
X182332142Y-53790476D01*
X182236904Y-53838095D01*
X182046428Y-53885714D01*
X181808333Y-53885714D01*
X181617857Y-53838095D01*
X181522619Y-53790476D01*
X181475000Y-53742857D01*
X181427380Y-53647619D01*
X181760714Y-52457142D02*
X182427380Y-52457142D01*
X181379761Y-52695238D02*
X182094047Y-52933333D01*
X182094047Y-52314285D01*
%TO.C,C205*%
X89812952Y-136957142D02*
X89765333Y-137004761D01*
X89622476Y-137052380D01*
X89527238Y-137052380D01*
X89384380Y-137004761D01*
X89289142Y-136909523D01*
X89241523Y-136814285D01*
X89193904Y-136623809D01*
X89193904Y-136480952D01*
X89241523Y-136290476D01*
X89289142Y-136195238D01*
X89384380Y-136100000D01*
X89527238Y-136052380D01*
X89622476Y-136052380D01*
X89765333Y-136100000D01*
X89812952Y-136147619D01*
X90193904Y-136147619D02*
X90241523Y-136100000D01*
X90336761Y-136052380D01*
X90574857Y-136052380D01*
X90670095Y-136100000D01*
X90717714Y-136147619D01*
X90765333Y-136242857D01*
X90765333Y-136338095D01*
X90717714Y-136480952D01*
X90146285Y-137052380D01*
X90765333Y-137052380D01*
X91384380Y-136052380D02*
X91479619Y-136052380D01*
X91574857Y-136100000D01*
X91622476Y-136147619D01*
X91670095Y-136242857D01*
X91717714Y-136433333D01*
X91717714Y-136671428D01*
X91670095Y-136861904D01*
X91622476Y-136957142D01*
X91574857Y-137004761D01*
X91479619Y-137052380D01*
X91384380Y-137052380D01*
X91289142Y-137004761D01*
X91241523Y-136957142D01*
X91193904Y-136861904D01*
X91146285Y-136671428D01*
X91146285Y-136433333D01*
X91193904Y-136242857D01*
X91241523Y-136147619D01*
X91289142Y-136100000D01*
X91384380Y-136052380D01*
X92622476Y-136052380D02*
X92146285Y-136052380D01*
X92098666Y-136528571D01*
X92146285Y-136480952D01*
X92241523Y-136433333D01*
X92479619Y-136433333D01*
X92574857Y-136480952D01*
X92622476Y-136528571D01*
X92670095Y-136623809D01*
X92670095Y-136861904D01*
X92622476Y-136957142D01*
X92574857Y-137004761D01*
X92479619Y-137052380D01*
X92241523Y-137052380D01*
X92146285Y-137004761D01*
X92098666Y-136957142D01*
%TO.C,D303*%
X166984523Y-126452380D02*
X166984523Y-125452380D01*
X167222619Y-125452380D01*
X167365476Y-125500000D01*
X167460714Y-125595238D01*
X167508333Y-125690476D01*
X167555952Y-125880952D01*
X167555952Y-126023809D01*
X167508333Y-126214285D01*
X167460714Y-126309523D01*
X167365476Y-126404761D01*
X167222619Y-126452380D01*
X166984523Y-126452380D01*
X167889285Y-125452380D02*
X168508333Y-125452380D01*
X168175000Y-125833333D01*
X168317857Y-125833333D01*
X168413095Y-125880952D01*
X168460714Y-125928571D01*
X168508333Y-126023809D01*
X168508333Y-126261904D01*
X168460714Y-126357142D01*
X168413095Y-126404761D01*
X168317857Y-126452380D01*
X168032142Y-126452380D01*
X167936904Y-126404761D01*
X167889285Y-126357142D01*
X169127380Y-125452380D02*
X169222619Y-125452380D01*
X169317857Y-125500000D01*
X169365476Y-125547619D01*
X169413095Y-125642857D01*
X169460714Y-125833333D01*
X169460714Y-126071428D01*
X169413095Y-126261904D01*
X169365476Y-126357142D01*
X169317857Y-126404761D01*
X169222619Y-126452380D01*
X169127380Y-126452380D01*
X169032142Y-126404761D01*
X168984523Y-126357142D01*
X168936904Y-126261904D01*
X168889285Y-126071428D01*
X168889285Y-125833333D01*
X168936904Y-125642857D01*
X168984523Y-125547619D01*
X169032142Y-125500000D01*
X169127380Y-125452380D01*
X169794047Y-125452380D02*
X170413095Y-125452380D01*
X170079761Y-125833333D01*
X170222619Y-125833333D01*
X170317857Y-125880952D01*
X170365476Y-125928571D01*
X170413095Y-126023809D01*
X170413095Y-126261904D01*
X170365476Y-126357142D01*
X170317857Y-126404761D01*
X170222619Y-126452380D01*
X169936904Y-126452380D01*
X169841666Y-126404761D01*
X169794047Y-126357142D01*
D12*
%TO.C,JP225*%
X111121142Y-127742190D02*
X111121142Y-128099333D01*
X111097333Y-128170761D01*
X111049714Y-128218380D01*
X110978285Y-128242190D01*
X110930666Y-128242190D01*
X111359238Y-128242190D02*
X111359238Y-127742190D01*
X111549714Y-127742190D01*
X111597333Y-127766000D01*
X111621142Y-127789809D01*
X111644952Y-127837428D01*
X111644952Y-127908857D01*
X111621142Y-127956476D01*
X111597333Y-127980285D01*
X111549714Y-128004095D01*
X111359238Y-128004095D01*
X111835428Y-127789809D02*
X111859238Y-127766000D01*
X111906857Y-127742190D01*
X112025904Y-127742190D01*
X112073523Y-127766000D01*
X112097333Y-127789809D01*
X112121142Y-127837428D01*
X112121142Y-127885047D01*
X112097333Y-127956476D01*
X111811619Y-128242190D01*
X112121142Y-128242190D01*
X112311619Y-127789809D02*
X112335428Y-127766000D01*
X112383047Y-127742190D01*
X112502095Y-127742190D01*
X112549714Y-127766000D01*
X112573523Y-127789809D01*
X112597333Y-127837428D01*
X112597333Y-127885047D01*
X112573523Y-127956476D01*
X112287809Y-128242190D01*
X112597333Y-128242190D01*
X113049714Y-127742190D02*
X112811619Y-127742190D01*
X112787809Y-127980285D01*
X112811619Y-127956476D01*
X112859238Y-127932666D01*
X112978285Y-127932666D01*
X113025904Y-127956476D01*
X113049714Y-127980285D01*
X113073523Y-128027904D01*
X113073523Y-128146952D01*
X113049714Y-128194571D01*
X113025904Y-128218380D01*
X112978285Y-128242190D01*
X112859238Y-128242190D01*
X112811619Y-128218380D01*
X112787809Y-128194571D01*
D10*
%TO.C,Q201*%
X106047619Y-59467619D02*
X106000000Y-59562857D01*
X105904761Y-59658095D01*
X105761904Y-59800952D01*
X105714285Y-59896190D01*
X105714285Y-59991428D01*
X105952380Y-59943809D02*
X105904761Y-60039047D01*
X105809523Y-60134285D01*
X105619047Y-60181904D01*
X105285714Y-60181904D01*
X105095238Y-60134285D01*
X105000000Y-60039047D01*
X104952380Y-59943809D01*
X104952380Y-59753333D01*
X105000000Y-59658095D01*
X105095238Y-59562857D01*
X105285714Y-59515238D01*
X105619047Y-59515238D01*
X105809523Y-59562857D01*
X105904761Y-59658095D01*
X105952380Y-59753333D01*
X105952380Y-59943809D01*
X105047619Y-59134285D02*
X105000000Y-59086666D01*
X104952380Y-58991428D01*
X104952380Y-58753333D01*
X105000000Y-58658095D01*
X105047619Y-58610476D01*
X105142857Y-58562857D01*
X105238095Y-58562857D01*
X105380952Y-58610476D01*
X105952380Y-59181904D01*
X105952380Y-58562857D01*
X104952380Y-57943809D02*
X104952380Y-57848571D01*
X105000000Y-57753333D01*
X105047619Y-57705714D01*
X105142857Y-57658095D01*
X105333333Y-57610476D01*
X105571428Y-57610476D01*
X105761904Y-57658095D01*
X105857142Y-57705714D01*
X105904761Y-57753333D01*
X105952380Y-57848571D01*
X105952380Y-57943809D01*
X105904761Y-58039047D01*
X105857142Y-58086666D01*
X105761904Y-58134285D01*
X105571428Y-58181904D01*
X105333333Y-58181904D01*
X105142857Y-58134285D01*
X105047619Y-58086666D01*
X105000000Y-58039047D01*
X104952380Y-57943809D01*
X105952380Y-56658095D02*
X105952380Y-57229523D01*
X105952380Y-56943809D02*
X104952380Y-56943809D01*
X105095238Y-57039047D01*
X105190476Y-57134285D01*
X105238095Y-57229523D01*
%TO.C,R313*%
X148660380Y-132879047D02*
X148184190Y-133212380D01*
X148660380Y-133450476D02*
X147660380Y-133450476D01*
X147660380Y-133069523D01*
X147708000Y-132974285D01*
X147755619Y-132926666D01*
X147850857Y-132879047D01*
X147993714Y-132879047D01*
X148088952Y-132926666D01*
X148136571Y-132974285D01*
X148184190Y-133069523D01*
X148184190Y-133450476D01*
X147660380Y-132545714D02*
X147660380Y-131926666D01*
X148041333Y-132260000D01*
X148041333Y-132117142D01*
X148088952Y-132021904D01*
X148136571Y-131974285D01*
X148231809Y-131926666D01*
X148469904Y-131926666D01*
X148565142Y-131974285D01*
X148612761Y-132021904D01*
X148660380Y-132117142D01*
X148660380Y-132402857D01*
X148612761Y-132498095D01*
X148565142Y-132545714D01*
X148660380Y-130974285D02*
X148660380Y-131545714D01*
X148660380Y-131260000D02*
X147660380Y-131260000D01*
X147803238Y-131355238D01*
X147898476Y-131450476D01*
X147946095Y-131545714D01*
X147660380Y-130640952D02*
X147660380Y-130021904D01*
X148041333Y-130355238D01*
X148041333Y-130212380D01*
X148088952Y-130117142D01*
X148136571Y-130069523D01*
X148231809Y-130021904D01*
X148469904Y-130021904D01*
X148565142Y-130069523D01*
X148612761Y-130117142D01*
X148660380Y-130212380D01*
X148660380Y-130498095D01*
X148612761Y-130593333D01*
X148565142Y-130640952D01*
%TO.C,C309*%
X174155952Y-134457142D02*
X174108333Y-134504761D01*
X173965476Y-134552380D01*
X173870238Y-134552380D01*
X173727380Y-134504761D01*
X173632142Y-134409523D01*
X173584523Y-134314285D01*
X173536904Y-134123809D01*
X173536904Y-133980952D01*
X173584523Y-133790476D01*
X173632142Y-133695238D01*
X173727380Y-133600000D01*
X173870238Y-133552380D01*
X173965476Y-133552380D01*
X174108333Y-133600000D01*
X174155952Y-133647619D01*
X174489285Y-133552380D02*
X175108333Y-133552380D01*
X174775000Y-133933333D01*
X174917857Y-133933333D01*
X175013095Y-133980952D01*
X175060714Y-134028571D01*
X175108333Y-134123809D01*
X175108333Y-134361904D01*
X175060714Y-134457142D01*
X175013095Y-134504761D01*
X174917857Y-134552380D01*
X174632142Y-134552380D01*
X174536904Y-134504761D01*
X174489285Y-134457142D01*
X175727380Y-133552380D02*
X175822619Y-133552380D01*
X175917857Y-133600000D01*
X175965476Y-133647619D01*
X176013095Y-133742857D01*
X176060714Y-133933333D01*
X176060714Y-134171428D01*
X176013095Y-134361904D01*
X175965476Y-134457142D01*
X175917857Y-134504761D01*
X175822619Y-134552380D01*
X175727380Y-134552380D01*
X175632142Y-134504761D01*
X175584523Y-134457142D01*
X175536904Y-134361904D01*
X175489285Y-134171428D01*
X175489285Y-133933333D01*
X175536904Y-133742857D01*
X175584523Y-133647619D01*
X175632142Y-133600000D01*
X175727380Y-133552380D01*
X176536904Y-134552380D02*
X176727380Y-134552380D01*
X176822619Y-134504761D01*
X176870238Y-134457142D01*
X176965476Y-134314285D01*
X177013095Y-134123809D01*
X177013095Y-133742857D01*
X176965476Y-133647619D01*
X176917857Y-133600000D01*
X176822619Y-133552380D01*
X176632142Y-133552380D01*
X176536904Y-133600000D01*
X176489285Y-133647619D01*
X176441666Y-133742857D01*
X176441666Y-133980952D01*
X176489285Y-134076190D01*
X176536904Y-134123809D01*
X176632142Y-134171428D01*
X176822619Y-134171428D01*
X176917857Y-134123809D01*
X176965476Y-134076190D01*
X177013095Y-133980952D01*
%TO.C,J303*%
X163714285Y-66302380D02*
X163714285Y-67016666D01*
X163666666Y-67159523D01*
X163571428Y-67254761D01*
X163428571Y-67302380D01*
X163333333Y-67302380D01*
X164095238Y-66302380D02*
X164714285Y-66302380D01*
X164380952Y-66683333D01*
X164523809Y-66683333D01*
X164619047Y-66730952D01*
X164666666Y-66778571D01*
X164714285Y-66873809D01*
X164714285Y-67111904D01*
X164666666Y-67207142D01*
X164619047Y-67254761D01*
X164523809Y-67302380D01*
X164238095Y-67302380D01*
X164142857Y-67254761D01*
X164095238Y-67207142D01*
X165333333Y-66302380D02*
X165428571Y-66302380D01*
X165523809Y-66350000D01*
X165571428Y-66397619D01*
X165619047Y-66492857D01*
X165666666Y-66683333D01*
X165666666Y-66921428D01*
X165619047Y-67111904D01*
X165571428Y-67207142D01*
X165523809Y-67254761D01*
X165428571Y-67302380D01*
X165333333Y-67302380D01*
X165238095Y-67254761D01*
X165190476Y-67207142D01*
X165142857Y-67111904D01*
X165095238Y-66921428D01*
X165095238Y-66683333D01*
X165142857Y-66492857D01*
X165190476Y-66397619D01*
X165238095Y-66350000D01*
X165333333Y-66302380D01*
X166000000Y-66302380D02*
X166619047Y-66302380D01*
X166285714Y-66683333D01*
X166428571Y-66683333D01*
X166523809Y-66730952D01*
X166571428Y-66778571D01*
X166619047Y-66873809D01*
X166619047Y-67111904D01*
X166571428Y-67207142D01*
X166523809Y-67254761D01*
X166428571Y-67302380D01*
X166142857Y-67302380D01*
X166047619Y-67254761D01*
X166000000Y-67207142D01*
D12*
%TO.C,JP223*%
X106107142Y-127742190D02*
X106107142Y-128099333D01*
X106083333Y-128170761D01*
X106035714Y-128218380D01*
X105964285Y-128242190D01*
X105916666Y-128242190D01*
X106345238Y-128242190D02*
X106345238Y-127742190D01*
X106535714Y-127742190D01*
X106583333Y-127766000D01*
X106607142Y-127789809D01*
X106630952Y-127837428D01*
X106630952Y-127908857D01*
X106607142Y-127956476D01*
X106583333Y-127980285D01*
X106535714Y-128004095D01*
X106345238Y-128004095D01*
X106821428Y-127789809D02*
X106845238Y-127766000D01*
X106892857Y-127742190D01*
X107011904Y-127742190D01*
X107059523Y-127766000D01*
X107083333Y-127789809D01*
X107107142Y-127837428D01*
X107107142Y-127885047D01*
X107083333Y-127956476D01*
X106797619Y-128242190D01*
X107107142Y-128242190D01*
X107297619Y-127789809D02*
X107321428Y-127766000D01*
X107369047Y-127742190D01*
X107488095Y-127742190D01*
X107535714Y-127766000D01*
X107559523Y-127789809D01*
X107583333Y-127837428D01*
X107583333Y-127885047D01*
X107559523Y-127956476D01*
X107273809Y-128242190D01*
X107583333Y-128242190D01*
X107750000Y-127742190D02*
X108059523Y-127742190D01*
X107892857Y-127932666D01*
X107964285Y-127932666D01*
X108011904Y-127956476D01*
X108035714Y-127980285D01*
X108059523Y-128027904D01*
X108059523Y-128146952D01*
X108035714Y-128194571D01*
X108011904Y-128218380D01*
X107964285Y-128242190D01*
X107821428Y-128242190D01*
X107773809Y-128218380D01*
X107750000Y-128194571D01*
D13*
%TO.C,R306*%
X152119064Y-59409000D02*
X151664936Y-59409000D01*
X152119064Y-57939000D02*
X151664936Y-57939000D01*
%TO.C,R302*%
X215286835Y-56814282D02*
X214965718Y-56493165D01*
X216326282Y-55774835D02*
X216005165Y-55453718D01*
%TO.C,R201*%
X104682064Y-64685000D02*
X104227936Y-64685000D01*
X104682064Y-63215000D02*
X104227936Y-63215000D01*
%TO.C,D306*%
X73135000Y-73885000D02*
X73135000Y-70000000D01*
X70865000Y-70000000D02*
X70865000Y-73885000D01*
X70865000Y-73885000D02*
X73135000Y-73885000D01*
%TO.C,R312*%
X145823000Y-128042936D02*
X145823000Y-128497064D01*
X147293000Y-128042936D02*
X147293000Y-128497064D01*
%TO.C,JP201*%
X135620000Y-97090000D02*
X135620000Y-98490000D01*
X134320000Y-96390000D02*
X134920000Y-96390000D01*
X134920000Y-99190000D02*
X134320000Y-99190000D01*
X133620000Y-98490000D02*
X133620000Y-97090000D01*
X134920000Y-99190000D02*
G75*
G03*
X135620000Y-98490000I1J699999D01*
G01*
X133620000Y-98490000D02*
G75*
G03*
X134320000Y-99190000I699999J-1D01*
G01*
X135620000Y-97090000D02*
G75*
G03*
X134920000Y-96390000I-699999J1D01*
G01*
X134320000Y-96390000D02*
G75*
G03*
X133620000Y-97090000I-1J-699999D01*
G01*
%TO.C,C204*%
X80576748Y-144045000D02*
X81099252Y-144045000D01*
X80576748Y-145515000D02*
X81099252Y-145515000D01*
%TO.C,R213*%
X121367936Y-125445000D02*
X121822064Y-125445000D01*
X121367936Y-126915000D02*
X121822064Y-126915000D01*
%TO.C,R220*%
X137181436Y-143131000D02*
X137635564Y-143131000D01*
X137181436Y-144601000D02*
X137635564Y-144601000D01*
%TO.C,C307*%
X155186748Y-59409000D02*
X155709252Y-59409000D01*
X155186748Y-57939000D02*
X155709252Y-57939000D01*
%TO.C,D201*%
X89505000Y-85360000D02*
X93405000Y-85360000D01*
X89505000Y-87360000D02*
X93405000Y-87360000D01*
X89505000Y-85360000D02*
X89505000Y-87360000D01*
%TO.C,R305*%
X159485064Y-57939000D02*
X159030936Y-57939000D01*
X159485064Y-59409000D02*
X159030936Y-59409000D01*
%TO.C,JP224*%
X109235000Y-128600000D02*
X109835000Y-128600000D01*
X110535000Y-129300000D02*
X110535000Y-130700000D01*
X108535000Y-130700000D02*
X108535000Y-129300000D01*
X109835000Y-131400000D02*
X109235000Y-131400000D01*
X109835000Y-131400000D02*
G75*
G03*
X110535000Y-130700000I1J699999D01*
G01*
X110535000Y-129300000D02*
G75*
G03*
X109835000Y-128600000I-699999J1D01*
G01*
X109235000Y-128600000D02*
G75*
G03*
X108535000Y-129300000I-1J-699999D01*
G01*
X108535000Y-130700000D02*
G75*
G03*
X109235000Y-131400000I699999J-1D01*
G01*
%TO.C,J1*%
X225440000Y-74802000D02*
X225440000Y-76939000D01*
X224700000Y-61550000D02*
X225000000Y-60950000D01*
X224440000Y-141740000D02*
X225440000Y-141740000D01*
X225440000Y-140842000D02*
X225440000Y-141740000D01*
X225440000Y-115442000D02*
X225440000Y-117579000D01*
X230000000Y-147260000D02*
X224440000Y-147260000D01*
X224440000Y-58260000D02*
X225440000Y-58260000D01*
X225440000Y-125602000D02*
X225440000Y-127739000D01*
X225440000Y-69722000D02*
X225440000Y-71859000D01*
X224440000Y-147260000D02*
X224440000Y-141740000D01*
X225440000Y-90042000D02*
X225440000Y-92179000D01*
X224440000Y-52740000D02*
X224440000Y-58260000D01*
X225440000Y-120522000D02*
X225440000Y-122659000D01*
X225000000Y-60950000D02*
X224400000Y-60950000D01*
X225440000Y-79882000D02*
X225440000Y-82019000D01*
X225440000Y-130682000D02*
X225440000Y-132819000D01*
X225440000Y-84962000D02*
X225440000Y-87099000D01*
X224400000Y-60950000D02*
X224700000Y-61550000D01*
X225440000Y-105282000D02*
X225440000Y-107419000D01*
X225440000Y-58259000D02*
X225440000Y-61550000D01*
X225440000Y-95122000D02*
X225440000Y-97259000D01*
X225440000Y-64790000D02*
X225440000Y-66779000D01*
X230000000Y-52740000D02*
X224440000Y-52740000D01*
X225440000Y-110362000D02*
X225440000Y-112499000D01*
X225440000Y-100202000D02*
X225440000Y-102339000D01*
X225440000Y-135762000D02*
X225440000Y-137899000D01*
%TO.C,R211*%
X119245000Y-128030000D02*
X123945000Y-128030000D01*
X119245000Y-124330000D02*
X123945000Y-124330000D01*
X123945000Y-128030000D02*
G75*
G03*
X123945000Y-124330000I0J1850000D01*
G01*
X119245000Y-124330000D02*
G75*
G03*
X119245000Y-128030000I0J-1850000D01*
G01*
%TO.C,R304*%
X180113000Y-62572936D02*
X180113000Y-63027064D01*
X181583000Y-62572936D02*
X181583000Y-63027064D01*
%TO.C,U203*%
X131401000Y-144521000D02*
X133351000Y-144521000D01*
X131401000Y-144521000D02*
X129451000Y-144521000D01*
X131401000Y-139401000D02*
X127951000Y-139401000D01*
X131401000Y-139401000D02*
X133351000Y-139401000D01*
%TO.C,U304*%
X142000000Y-98890000D02*
X143000000Y-98890000D01*
X141000000Y-101110000D02*
X143000000Y-101110000D01*
%TO.C,R216*%
X116465000Y-138430000D02*
X116465000Y-143130000D01*
X112765000Y-138430000D02*
X112765000Y-143130000D01*
X116465000Y-138430000D02*
G75*
G03*
X112765000Y-138430000I-1850000J0D01*
G01*
X112765000Y-143130000D02*
G75*
G03*
X116465000Y-143130000I1850000J0D01*
G01*
%TO.C,JP302*%
X157180000Y-54480000D02*
X157780000Y-54480000D01*
X157780000Y-57280000D02*
X157180000Y-57280000D01*
X158480000Y-55180000D02*
X158480000Y-56580000D01*
X156480000Y-56580000D02*
X156480000Y-55180000D01*
X156480000Y-56580000D02*
G75*
G03*
X157180000Y-57280000I699999J-1D01*
G01*
X157180000Y-54480000D02*
G75*
G03*
X156480000Y-55180000I-1J-699999D01*
G01*
X158480000Y-55180000D02*
G75*
G03*
X157780000Y-54480000I-699999J1D01*
G01*
X157780000Y-57280000D02*
G75*
G03*
X158480000Y-56580000I1J699999D01*
G01*
%TO.C,R217*%
X113880000Y-140490436D02*
X113880000Y-140944564D01*
X115350000Y-140490436D02*
X115350000Y-140944564D01*
%TO.C,R301*%
X183161000Y-58139064D02*
X183161000Y-57684936D01*
X184631000Y-58139064D02*
X184631000Y-57684936D01*
%TO.C,R210*%
X92684564Y-131995000D02*
X92230436Y-131995000D01*
X92684564Y-130525000D02*
X92230436Y-130525000D01*
%TO.C,C305*%
X160832748Y-60050000D02*
X162255252Y-60050000D01*
X160832748Y-61870000D02*
X162255252Y-61870000D01*
%TO.C,R218*%
X110270000Y-140552936D02*
X110270000Y-141007064D01*
X108800000Y-140552936D02*
X108800000Y-141007064D01*
%TO.C,C312*%
X140356000Y-130693252D02*
X140356000Y-129270748D01*
X138536000Y-130693252D02*
X138536000Y-129270748D01*
%TO.C,U301*%
X162740000Y-55236000D02*
X164050000Y-55236000D01*
X162740000Y-57956000D02*
X162740000Y-55236000D01*
X162740000Y-57956000D02*
X162970000Y-57956000D01*
X167460000Y-57956000D02*
X167230000Y-57956000D01*
X162970000Y-59096000D02*
X162970000Y-57956000D01*
X167460000Y-55236000D02*
X167460000Y-57956000D01*
X166150000Y-55236000D02*
X167460000Y-55236000D01*
%TO.C,U305*%
X145213000Y-133538000D02*
X145213000Y-135038000D01*
X145213000Y-133538000D02*
X145213000Y-132038000D01*
X140993000Y-133538000D02*
X140993000Y-136413000D01*
X140993000Y-133538000D02*
X140993000Y-132038000D01*
%TO.C,C206*%
X75665000Y-140666248D02*
X75665000Y-141188752D01*
X74195000Y-140666248D02*
X74195000Y-141188752D01*
%TO.C,R206*%
X106305000Y-138430000D02*
X106305000Y-143130000D01*
X102605000Y-138430000D02*
X102605000Y-143130000D01*
X102605000Y-143130000D02*
G75*
G03*
X106305000Y-143130000I1850000J0D01*
G01*
X106305000Y-138430000D02*
G75*
G03*
X102605000Y-138430000I-1850000J0D01*
G01*
%TO.C,R212*%
X94745000Y-129410000D02*
X90045000Y-129410000D01*
X94745000Y-133110000D02*
X90045000Y-133110000D01*
X94745000Y-133110000D02*
G75*
G03*
X94745000Y-129410000I0J1850000D01*
G01*
X90045000Y-129410000D02*
G75*
G03*
X90045000Y-133110000I0J-1850000D01*
G01*
%TO.C,R207*%
X121352436Y-130525000D02*
X121806564Y-130525000D01*
X121352436Y-131995000D02*
X121806564Y-131995000D01*
%TO.C,C308*%
X143981000Y-100337252D02*
X143981000Y-99814748D01*
X145451000Y-100337252D02*
X145451000Y-99814748D01*
%TO.C,JP221*%
X102215000Y-131400000D02*
X101615000Y-131400000D01*
X100915000Y-130700000D02*
X100915000Y-129300000D01*
X102915000Y-129300000D02*
X102915000Y-130700000D01*
X101615000Y-128600000D02*
X102215000Y-128600000D01*
X100915000Y-130700000D02*
G75*
G03*
X101615000Y-131400000I699999J-1D01*
G01*
X101615000Y-128600000D02*
G75*
G03*
X100915000Y-129300000I-1J-699999D01*
G01*
X102215000Y-131400000D02*
G75*
G03*
X102915000Y-130700000I1J699999D01*
G01*
X102915000Y-129300000D02*
G75*
G03*
X102215000Y-128600000I-699999J1D01*
G01*
%TO.C,JP306*%
X161675000Y-135800000D02*
X163075000Y-135800000D01*
X163775000Y-136500000D02*
X163775000Y-137100000D01*
X160975000Y-137100000D02*
X160975000Y-136500000D01*
X163075000Y-137800000D02*
X161675000Y-137800000D01*
X161675000Y-135800000D02*
G75*
G03*
X160975000Y-136500000I-1J-699999D01*
G01*
X160975000Y-137100000D02*
G75*
G03*
X161675000Y-137800000I699999J-1D01*
G01*
X163075000Y-137800000D02*
G75*
G03*
X163775000Y-137100000I1J699999D01*
G01*
X163775000Y-136500000D02*
G75*
G03*
X163075000Y-135800000I-699999J1D01*
G01*
%TO.C,C303*%
X166261252Y-61751000D02*
X165738748Y-61751000D01*
X166261252Y-60281000D02*
X165738748Y-60281000D01*
%TO.C,U201*%
X79915000Y-143487500D02*
X81865000Y-143487500D01*
X79915000Y-138367500D02*
X76465000Y-138367500D01*
X79915000Y-143487500D02*
X77965000Y-143487500D01*
X79915000Y-138367500D02*
X81865000Y-138367500D01*
%TO.C,R310*%
X147293000Y-135543064D02*
X147293000Y-135088936D01*
X145823000Y-135543064D02*
X145823000Y-135088936D01*
%TO.C,JP305*%
X161675000Y-139800000D02*
X163075000Y-139800000D01*
X163075000Y-141800000D02*
X161675000Y-141800000D01*
X163775000Y-140500000D02*
X163775000Y-141100000D01*
X160975000Y-141100000D02*
X160975000Y-140500000D01*
X163075000Y-141800000D02*
G75*
G03*
X163775000Y-141100000I1J699999D01*
G01*
X163775000Y-140500000D02*
G75*
G03*
X163075000Y-139800000I-699999J1D01*
G01*
X160975000Y-141100000D02*
G75*
G03*
X161675000Y-141800000I699999J-1D01*
G01*
X161675000Y-139800000D02*
G75*
G03*
X160975000Y-140500000I-1J-699999D01*
G01*
%TO.C,JP301*%
X151084000Y-54480000D02*
X151684000Y-54480000D01*
X152384000Y-55180000D02*
X152384000Y-56580000D01*
X150384000Y-56580000D02*
X150384000Y-55180000D01*
X151684000Y-57280000D02*
X151084000Y-57280000D01*
X151684000Y-57280000D02*
G75*
G03*
X152384000Y-56580000I1J699999D01*
G01*
X151084000Y-54480000D02*
G75*
G03*
X150384000Y-55180000I-1J-699999D01*
G01*
X150384000Y-56580000D02*
G75*
G03*
X151084000Y-57280000I699999J-1D01*
G01*
X152384000Y-55180000D02*
G75*
G03*
X151684000Y-54480000I-699999J1D01*
G01*
%TO.C,C302*%
X216625000Y-68431000D02*
X210440000Y-68431000D01*
X207560000Y-70711000D02*
X202610000Y-70711000D01*
X215197000Y-70951000D02*
X202803000Y-70951000D01*
X211711000Y-73391000D02*
X206289000Y-73391000D01*
X214840000Y-71351000D02*
X203160000Y-71351000D01*
X207560000Y-70471000D02*
X202432000Y-70471000D01*
X216869000Y-67591000D02*
X201131000Y-67591000D01*
X216522000Y-68711000D02*
X210440000Y-68711000D01*
X215811000Y-70111000D02*
X210440000Y-70111000D01*
X214802000Y-71391000D02*
X203198000Y-71391000D01*
X215886000Y-69991000D02*
X210440000Y-69991000D01*
X217055000Y-66390000D02*
X200945000Y-66390000D01*
X217049000Y-66471000D02*
X200951000Y-66471000D01*
X216072000Y-69671000D02*
X210440000Y-69671000D01*
X216371000Y-69071000D02*
X210440000Y-69071000D01*
X215958000Y-69871000D02*
X210440000Y-69871000D01*
X207560000Y-70631000D02*
X202550000Y-70631000D01*
X217003000Y-66871000D02*
X200997000Y-66871000D01*
X212557000Y-73031000D02*
X205443000Y-73031000D01*
X212213000Y-73191000D02*
X205787000Y-73191000D01*
X207560000Y-68551000D02*
X201418000Y-68551000D01*
X216878000Y-67551000D02*
X201122000Y-67551000D01*
X216913000Y-67391000D02*
X201087000Y-67391000D01*
X207560000Y-69791000D02*
X201996000Y-69791000D01*
X216115000Y-69591000D02*
X210440000Y-69591000D01*
X212637000Y-72991000D02*
X205363000Y-72991000D01*
X216027000Y-69751000D02*
X210440000Y-69751000D01*
X217069000Y-66190000D02*
X200931000Y-66190000D01*
X213906000Y-72191000D02*
X204094000Y-72191000D01*
X216219000Y-69391000D02*
X210440000Y-69391000D01*
X212475000Y-73071000D02*
X205525000Y-73071000D01*
X207560000Y-69191000D02*
X201684000Y-69191000D01*
X207560000Y-70511000D02*
X202461000Y-70511000D01*
X214297000Y-71871000D02*
X203703000Y-71871000D01*
X210351000Y-73751000D02*
X207649000Y-73751000D01*
X216474000Y-68831000D02*
X210440000Y-68831000D01*
X216653000Y-68351000D02*
X210440000Y-68351000D01*
X217014000Y-66791000D02*
X200986000Y-66791000D01*
X215025000Y-71151000D02*
X202975000Y-71151000D01*
X214518000Y-71671000D02*
X203482000Y-71671000D01*
X207560000Y-69711000D02*
X201951000Y-69711000D01*
X207560000Y-68951000D02*
X201577000Y-68951000D01*
X215706000Y-70271000D02*
X210440000Y-70271000D01*
X215733000Y-70231000D02*
X210440000Y-70231000D01*
X207560000Y-68751000D02*
X201494000Y-68751000D01*
X207560000Y-70431000D02*
X202404000Y-70431000D01*
X216921000Y-67351000D02*
X201079000Y-67351000D01*
X212120000Y-73231000D02*
X205880000Y-73231000D01*
X207560000Y-69351000D02*
X201761000Y-69351000D01*
X216944000Y-67231000D02*
X201056000Y-67231000D01*
X207560000Y-70911000D02*
X202770000Y-70911000D01*
X207560000Y-69671000D02*
X201928000Y-69671000D01*
X207560000Y-69911000D02*
X202066000Y-69911000D01*
X217037000Y-66591000D02*
X200963000Y-66591000D01*
X213143000Y-72711000D02*
X204857000Y-72711000D01*
X211478000Y-73471000D02*
X206522000Y-73471000D01*
X217019000Y-66751000D02*
X200981000Y-66751000D01*
X207560000Y-69151000D02*
X201666000Y-69151000D01*
X207560000Y-69551000D02*
X201864000Y-69551000D01*
X210920000Y-73631000D02*
X207080000Y-73631000D01*
X207560000Y-69991000D02*
X202114000Y-69991000D01*
X215910000Y-69951000D02*
X210440000Y-69951000D01*
X216278000Y-69271000D02*
X210440000Y-69271000D01*
X217028000Y-66671000D02*
X200972000Y-66671000D01*
X207560000Y-70311000D02*
X202321000Y-70311000D01*
X216389000Y-69031000D02*
X210440000Y-69031000D01*
X216297000Y-69231000D02*
X210440000Y-69231000D01*
X213854000Y-72231000D02*
X204146000Y-72231000D01*
X211597000Y-73431000D02*
X206403000Y-73431000D01*
X207560000Y-68311000D02*
X201334000Y-68311000D01*
X216905000Y-67431000D02*
X201095000Y-67431000D01*
X207560000Y-69231000D02*
X201703000Y-69231000D01*
X216966000Y-67111000D02*
X201034000Y-67111000D01*
X216896000Y-67471000D02*
X201104000Y-67471000D01*
X217071000Y-66150000D02*
X200929000Y-66150000D01*
X217076000Y-66030000D02*
X200924000Y-66030000D01*
X207560000Y-69071000D02*
X201629000Y-69071000D01*
X214251000Y-71911000D02*
X203749000Y-71911000D01*
X212390000Y-73111000D02*
X205610000Y-73111000D01*
X213398000Y-72551000D02*
X204602000Y-72551000D01*
X207560000Y-70671000D02*
X202580000Y-70671000D01*
X216094000Y-69631000D02*
X210440000Y-69631000D01*
X207560000Y-70151000D02*
X202215000Y-70151000D01*
X214643000Y-71551000D02*
X203357000Y-71551000D01*
X213634000Y-72391000D02*
X204366000Y-72391000D01*
X216840000Y-67711000D02*
X201160000Y-67711000D01*
X214952000Y-71231000D02*
X203048000Y-71231000D01*
X214108000Y-72031000D02*
X203892000Y-72031000D01*
X207560000Y-68991000D02*
X201594000Y-68991000D01*
X214602000Y-71591000D02*
X203398000Y-71591000D01*
X217080000Y-65790000D02*
X200920000Y-65790000D01*
X217008000Y-66831000D02*
X200992000Y-66831000D01*
X217081000Y-65750000D02*
X200919000Y-65750000D01*
X207560000Y-68711000D02*
X201478000Y-68711000D01*
X216765000Y-67991000D02*
X201235000Y-67991000D01*
X216406000Y-68991000D02*
X210440000Y-68991000D01*
X207560000Y-70271000D02*
X202294000Y-70271000D01*
X213459000Y-72511000D02*
X204541000Y-72511000D01*
X216440000Y-68911000D02*
X210440000Y-68911000D01*
X216754000Y-68031000D02*
X201246000Y-68031000D01*
X212303000Y-73151000D02*
X205697000Y-73151000D01*
X207560000Y-69591000D02*
X201885000Y-69591000D01*
X214355000Y-57860509D02*
X212755000Y-57860509D01*
X207560000Y-68791000D02*
X201510000Y-68791000D01*
X216537000Y-68671000D02*
X210440000Y-68671000D01*
X217074000Y-66070000D02*
X200926000Y-66070000D01*
X215480000Y-70591000D02*
X210440000Y-70591000D01*
X213691000Y-72351000D02*
X204309000Y-72351000D01*
X214916000Y-71271000D02*
X203084000Y-71271000D01*
X213577000Y-72431000D02*
X204423000Y-72431000D01*
X212790000Y-72911000D02*
X205210000Y-72911000D01*
X207560000Y-69631000D02*
X201906000Y-69631000D01*
X207560000Y-68831000D02*
X201526000Y-68831000D01*
X215358000Y-70751000D02*
X210440000Y-70751000D01*
X216742000Y-68071000D02*
X210440000Y-68071000D01*
X207560000Y-68671000D02*
X201463000Y-68671000D01*
X215759000Y-70191000D02*
X210440000Y-70191000D01*
X216929000Y-67311000D02*
X201071000Y-67311000D01*
X216506000Y-68751000D02*
X210440000Y-68751000D01*
X211924000Y-73311000D02*
X206076000Y-73311000D01*
X214989000Y-71191000D02*
X203011000Y-71191000D01*
X210564000Y-73711000D02*
X207436000Y-73711000D01*
X207560000Y-69831000D02*
X202019000Y-69831000D01*
X215390000Y-70711000D02*
X210440000Y-70711000D01*
X211218000Y-73551000D02*
X206782000Y-73551000D01*
X207560000Y-69311000D02*
X201742000Y-69311000D01*
X215539000Y-70511000D02*
X210440000Y-70511000D01*
X207560000Y-70071000D02*
X202164000Y-70071000D01*
X215295000Y-70831000D02*
X210440000Y-70831000D01*
X216850000Y-67671000D02*
X201150000Y-67671000D01*
X216991000Y-66951000D02*
X201009000Y-66951000D01*
X216730000Y-68111000D02*
X210440000Y-68111000D01*
X211820000Y-73351000D02*
X206180000Y-73351000D01*
X217061000Y-66310000D02*
X200939000Y-66310000D01*
X216830000Y-67751000D02*
X201170000Y-67751000D01*
X216049000Y-69711000D02*
X210440000Y-69711000D01*
X216611000Y-68471000D02*
X210440000Y-68471000D01*
X213273000Y-72631000D02*
X204727000Y-72631000D01*
X216258000Y-69311000D02*
X210440000Y-69311000D01*
X207560000Y-70191000D02*
X202241000Y-70191000D01*
X217058000Y-66350000D02*
X200942000Y-66350000D01*
X215836000Y-70071000D02*
X210440000Y-70071000D01*
X207560000Y-68391000D02*
X201361000Y-68391000D01*
X213800000Y-72271000D02*
X204200000Y-72271000D01*
X215679000Y-70311000D02*
X210440000Y-70311000D01*
X207560000Y-69871000D02*
X202042000Y-69871000D01*
X217045000Y-66511000D02*
X200955000Y-66511000D01*
X207560000Y-70791000D02*
X202673000Y-70791000D01*
X207560000Y-70231000D02*
X202267000Y-70231000D01*
X216985000Y-66991000D02*
X201015000Y-66991000D01*
X215861000Y-70031000D02*
X210440000Y-70031000D01*
X207560000Y-69031000D02*
X201611000Y-69031000D01*
X215510000Y-70551000D02*
X210440000Y-70551000D01*
X216157000Y-69511000D02*
X210440000Y-69511000D01*
X216004000Y-69791000D02*
X210440000Y-69791000D01*
X216457000Y-68871000D02*
X210440000Y-68871000D01*
X215596000Y-70431000D02*
X210440000Y-70431000D01*
X207560000Y-68271000D02*
X201320000Y-68271000D01*
X216959000Y-67151000D02*
X201041000Y-67151000D01*
X207560000Y-69391000D02*
X201781000Y-69391000D01*
X214432000Y-71751000D02*
X203568000Y-71751000D01*
X207560000Y-68351000D02*
X201347000Y-68351000D01*
X215129000Y-71031000D02*
X202871000Y-71031000D01*
X216199000Y-69431000D02*
X210440000Y-69431000D01*
X215981000Y-69831000D02*
X210440000Y-69831000D01*
X214059000Y-72071000D02*
X203941000Y-72071000D01*
X216693000Y-68231000D02*
X210440000Y-68231000D01*
X216136000Y-69551000D02*
X210440000Y-69551000D01*
X213958000Y-72151000D02*
X204042000Y-72151000D01*
X215450000Y-70631000D02*
X210440000Y-70631000D01*
X207560000Y-70551000D02*
X202490000Y-70551000D01*
X216972000Y-67071000D02*
X201028000Y-67071000D01*
X213336000Y-72591000D02*
X204664000Y-72591000D01*
X217024000Y-66711000D02*
X200976000Y-66711000D01*
X216718000Y-68151000D02*
X210440000Y-68151000D01*
X216810000Y-67831000D02*
X201190000Y-67831000D01*
X214475000Y-71711000D02*
X203525000Y-71711000D01*
X214684000Y-71511000D02*
X203316000Y-71511000D01*
X216777000Y-67951000D02*
X201223000Y-67951000D01*
X216423000Y-68951000D02*
X210440000Y-68951000D01*
X214343000Y-71831000D02*
X203657000Y-71831000D01*
X213007000Y-72791000D02*
X204993000Y-72791000D01*
X207560000Y-70871000D02*
X202737000Y-70871000D01*
X207560000Y-68471000D02*
X201389000Y-68471000D01*
X212864000Y-72871000D02*
X205136000Y-72871000D01*
X207560000Y-69511000D02*
X201843000Y-69511000D01*
X216788000Y-67911000D02*
X201212000Y-67911000D01*
X216239000Y-69351000D02*
X210440000Y-69351000D01*
X207560000Y-69951000D02*
X202090000Y-69951000D01*
X211351000Y-73511000D02*
X206649000Y-73511000D01*
X216952000Y-67191000D02*
X201048000Y-67191000D01*
X207560000Y-70391000D02*
X202376000Y-70391000D01*
X214763000Y-71431000D02*
X203237000Y-71431000D01*
X207560000Y-68191000D02*
X201295000Y-68191000D01*
X207560000Y-68631000D02*
X201447000Y-68631000D01*
X215095000Y-71071000D02*
X202905000Y-71071000D01*
X214878000Y-71311000D02*
X203122000Y-71311000D01*
X207560000Y-68871000D02*
X201543000Y-68871000D01*
X213519000Y-72471000D02*
X204481000Y-72471000D01*
X216553000Y-68631000D02*
X210440000Y-68631000D01*
X214388000Y-71791000D02*
X203612000Y-71791000D01*
X207560000Y-69111000D02*
X201647000Y-69111000D01*
X217080000Y-65830000D02*
X200920000Y-65830000D01*
X215624000Y-70391000D02*
X210440000Y-70391000D01*
X207560000Y-68591000D02*
X201432000Y-68591000D01*
X213555000Y-57060509D02*
X213555000Y-58660509D01*
X207560000Y-70351000D02*
X202348000Y-70351000D01*
X216353000Y-69111000D02*
X210440000Y-69111000D01*
X207560000Y-69751000D02*
X201973000Y-69751000D01*
X207560000Y-70591000D02*
X202520000Y-70591000D01*
X217033000Y-66631000D02*
X200967000Y-66631000D01*
X215785000Y-70151000D02*
X210440000Y-70151000D01*
X217078000Y-65950000D02*
X200922000Y-65950000D01*
X212936000Y-72831000D02*
X205064000Y-72831000D01*
X217066000Y-66230000D02*
X200934000Y-66230000D01*
X214204000Y-71951000D02*
X203796000Y-71951000D01*
X217073000Y-66110000D02*
X200927000Y-66110000D01*
X216937000Y-67271000D02*
X201063000Y-67271000D01*
X216799000Y-67871000D02*
X201201000Y-67871000D01*
X207560000Y-69271000D02*
X201722000Y-69271000D01*
X215263000Y-70871000D02*
X210440000Y-70871000D01*
X216666000Y-68311000D02*
X210440000Y-68311000D01*
X207560000Y-70111000D02*
X202189000Y-70111000D01*
X216705000Y-68191000D02*
X210440000Y-68191000D01*
X207560000Y-68231000D02*
X201307000Y-68231000D01*
X216178000Y-69471000D02*
X210440000Y-69471000D01*
X217077000Y-65990000D02*
X200923000Y-65990000D01*
X215230000Y-70911000D02*
X210440000Y-70911000D01*
X207560000Y-70751000D02*
X202642000Y-70751000D01*
X213746000Y-72311000D02*
X204254000Y-72311000D01*
X215568000Y-70471000D02*
X210440000Y-70471000D01*
X213076000Y-72751000D02*
X204924000Y-72751000D01*
X210098000Y-73791000D02*
X207902000Y-73791000D01*
X217052000Y-66430000D02*
X200948000Y-66430000D01*
X216979000Y-67031000D02*
X201021000Y-67031000D01*
X215163000Y-70991000D02*
X202837000Y-70991000D01*
X216490000Y-68791000D02*
X210440000Y-68791000D01*
X217079000Y-65910000D02*
X200921000Y-65910000D01*
X207560000Y-69431000D02*
X201801000Y-69431000D01*
X216639000Y-68391000D02*
X210440000Y-68391000D01*
X207560000Y-70831000D02*
X202705000Y-70831000D01*
X213209000Y-72671000D02*
X204791000Y-72671000D01*
X214009000Y-72111000D02*
X203991000Y-72111000D01*
X216820000Y-67791000D02*
X201180000Y-67791000D01*
X215420000Y-70671000D02*
X210440000Y-70671000D01*
X216997000Y-66911000D02*
X201003000Y-66911000D01*
X211074000Y-73591000D02*
X206926000Y-73591000D01*
X217064000Y-66270000D02*
X200936000Y-66270000D01*
X215060000Y-71111000D02*
X202940000Y-71111000D01*
X217041000Y-66551000D02*
X200959000Y-66551000D01*
X216334000Y-69151000D02*
X210440000Y-69151000D01*
X216316000Y-69191000D02*
X210440000Y-69191000D01*
X209765000Y-73831000D02*
X208235000Y-73831000D01*
X217080000Y-65870000D02*
X200920000Y-65870000D01*
X210752000Y-73671000D02*
X207248000Y-73671000D01*
X216568000Y-68591000D02*
X210440000Y-68591000D01*
X214724000Y-71471000D02*
X203276000Y-71471000D01*
X214560000Y-71631000D02*
X203440000Y-71631000D01*
X215934000Y-69911000D02*
X210440000Y-69911000D01*
X207560000Y-68151000D02*
X201282000Y-68151000D01*
X212024000Y-73271000D02*
X205976000Y-73271000D01*
X212715000Y-72951000D02*
X205285000Y-72951000D01*
X207560000Y-68071000D02*
X201258000Y-68071000D01*
X216680000Y-68271000D02*
X210440000Y-68271000D01*
X216887000Y-67511000D02*
X201113000Y-67511000D01*
X216597000Y-68511000D02*
X210440000Y-68511000D01*
X216860000Y-67631000D02*
X201140000Y-67631000D01*
X216582000Y-68551000D02*
X210440000Y-68551000D01*
X207560000Y-68511000D02*
X201403000Y-68511000D01*
X207560000Y-70031000D02*
X202139000Y-70031000D01*
X215327000Y-70791000D02*
X210440000Y-70791000D01*
X207560000Y-68111000D02*
X201270000Y-68111000D01*
X207560000Y-68911000D02*
X201560000Y-68911000D01*
X207560000Y-68431000D02*
X201375000Y-68431000D01*
X215652000Y-70351000D02*
X210440000Y-70351000D01*
X207560000Y-69471000D02*
X201822000Y-69471000D01*
X214156000Y-71991000D02*
X203844000Y-71991000D01*
X217120000Y-65750000D02*
G75*
G03*
X217120000Y-65750000I-8120000J0D01*
G01*
%TO.C,D202*%
X74499000Y-103550000D02*
X74499000Y-107450000D01*
X76499000Y-103550000D02*
X76499000Y-107450000D01*
X76499000Y-103550000D02*
X74499000Y-103550000D01*
%TO.C,R203*%
X85825000Y-142744564D02*
X85825000Y-142290436D01*
X84355000Y-142744564D02*
X84355000Y-142290436D01*
%TO.C,R219*%
X111385000Y-138430000D02*
X111385000Y-143130000D01*
X107685000Y-138430000D02*
X107685000Y-143130000D01*
X107685000Y-143130000D02*
G75*
G03*
X111385000Y-143130000I1850000J0D01*
G01*
X111385000Y-138430000D02*
G75*
G03*
X107685000Y-138430000I-1850000J0D01*
G01*
%TO.C,JP222*%
X104755000Y-131400000D02*
X104155000Y-131400000D01*
X105455000Y-129300000D02*
X105455000Y-130700000D01*
X103455000Y-130700000D02*
X103455000Y-129300000D01*
X104155000Y-128600000D02*
X104755000Y-128600000D01*
X105455000Y-129300000D02*
G75*
G03*
X104755000Y-128600000I-699999J1D01*
G01*
X104755000Y-131400000D02*
G75*
G03*
X105455000Y-130700000I1J699999D01*
G01*
X104155000Y-128600000D02*
G75*
G03*
X103455000Y-129300000I-1J-699999D01*
G01*
X103455000Y-130700000D02*
G75*
G03*
X104155000Y-131400000I699999J-1D01*
G01*
%TO.C,JP226*%
X115615000Y-129300000D02*
X115615000Y-130700000D01*
X114915000Y-131400000D02*
X114315000Y-131400000D01*
X113615000Y-130700000D02*
X113615000Y-129300000D01*
X114315000Y-128600000D02*
X114915000Y-128600000D01*
X113615000Y-130700000D02*
G75*
G03*
X114315000Y-131400000I699999J-1D01*
G01*
X115615000Y-129300000D02*
G75*
G03*
X114915000Y-128600000I-699999J1D01*
G01*
X114915000Y-131400000D02*
G75*
G03*
X115615000Y-130700000I1J699999D01*
G01*
X114315000Y-128600000D02*
G75*
G03*
X113615000Y-129300000I-1J-699999D01*
G01*
%TO.C,U303*%
X157008000Y-61976000D02*
X157008000Y-61176000D01*
X157008000Y-61976000D02*
X157008000Y-62776000D01*
X153888000Y-61976000D02*
X153888000Y-61176000D01*
X153888000Y-61976000D02*
X153888000Y-63776000D01*
%TO.C,D302*%
X174000000Y-131200000D02*
X174000000Y-127350000D01*
X172000000Y-131200000D02*
X172000000Y-127350000D01*
X172000000Y-131200000D02*
X174000000Y-131200000D01*
%TO.C,C311*%
X143921752Y-129193000D02*
X143399248Y-129193000D01*
X143921752Y-127723000D02*
X143399248Y-127723000D01*
%TO.C,C310*%
X140435000Y-135577252D02*
X140435000Y-135054748D01*
X138965000Y-135577252D02*
X138965000Y-135054748D01*
%TO.C,R311*%
X143887564Y-126907000D02*
X143433436Y-126907000D01*
X143887564Y-125437000D02*
X143433436Y-125437000D01*
%TO.C,R307*%
X152373000Y-61494936D02*
X152373000Y-61949064D01*
X150903000Y-61494936D02*
X150903000Y-61949064D01*
%TO.C,R309*%
X142975064Y-137121000D02*
X142520936Y-137121000D01*
X142975064Y-138591000D02*
X142520936Y-138591000D01*
%TO.C,JP303*%
X160828000Y-57280000D02*
X160228000Y-57280000D01*
X160228000Y-54480000D02*
X160828000Y-54480000D01*
X161528000Y-55180000D02*
X161528000Y-56580000D01*
X159528000Y-56580000D02*
X159528000Y-55180000D01*
X161528000Y-55180000D02*
G75*
G03*
X160828000Y-54480000I-699999J1D01*
G01*
X160228000Y-54480000D02*
G75*
G03*
X159528000Y-55180000I-1J-699999D01*
G01*
X160828000Y-57280000D02*
G75*
G03*
X161528000Y-56580000I1J699999D01*
G01*
X159528000Y-56580000D02*
G75*
G03*
X160228000Y-57280000I699999J-1D01*
G01*
D10*
%TO.C,U302*%
X177250000Y-58275000D02*
X172750000Y-58275000D01*
X178375000Y-63825000D02*
X172750000Y-63825000D01*
D13*
%TO.C,C207*%
X137176248Y-142061000D02*
X137698752Y-142061000D01*
X137176248Y-140591000D02*
X137698752Y-140591000D01*
%TO.C,R202*%
X86895000Y-142744564D02*
X86895000Y-142290436D01*
X88365000Y-142744564D02*
X88365000Y-142290436D01*
%TO.C,Q301*%
X176566000Y-138430000D02*
X176566000Y-139080000D01*
X173446000Y-138430000D02*
X173446000Y-140105000D01*
X176566000Y-138430000D02*
X176566000Y-137780000D01*
X173446000Y-138430000D02*
X173446000Y-137780000D01*
%TO.C,R308*%
X215480000Y-121327064D02*
X215480000Y-120872936D01*
X216950000Y-121327064D02*
X216950000Y-120872936D01*
%TO.C,U202*%
X113888039Y-95339144D02*
X112997084Y-96230098D01*
X113774902Y-97007916D02*
X114665856Y-96116961D01*
X114665856Y-96116961D02*
X113888039Y-95339144D01*
X112997371Y-96230326D02*
G75*
G03*
X113774902Y-97007916I-2997371J-3774674D01*
G01*
%TO.C,C203*%
X131183748Y-137060000D02*
X131706252Y-137060000D01*
X131183748Y-138530000D02*
X131706252Y-138530000D01*
%TO.C,FL301*%
X167175000Y-135600000D02*
X157575000Y-135600000D01*
X157575000Y-141000000D02*
X157575000Y-142000000D01*
X167175000Y-139200000D02*
X167175000Y-138400000D01*
X167175000Y-142000000D02*
X167175000Y-141000000D01*
X157575000Y-135600000D02*
X157575000Y-136600000D01*
X157575000Y-139200000D02*
X157575000Y-138400000D01*
X157575000Y-142000000D02*
X167175000Y-142000000D01*
X167175000Y-136600000D02*
X167175000Y-135600000D01*
%TO.C,D301*%
X73135000Y-68285000D02*
X73135000Y-64400000D01*
X70865000Y-68285000D02*
X73135000Y-68285000D01*
X70865000Y-64400000D02*
X70865000Y-68285000D01*
%TO.C,R215*%
X89625000Y-101850000D02*
X84925000Y-101850000D01*
X89625000Y-98150000D02*
X84925000Y-98150000D01*
X89625000Y-101850000D02*
G75*
G03*
X89625000Y-98150000I0J1850000D01*
G01*
X84925000Y-98150000D02*
G75*
G03*
X84925000Y-101850000I0J-1850000D01*
G01*
%TO.C,JP220*%
X99075000Y-128600000D02*
X99675000Y-128600000D01*
X100375000Y-129300000D02*
X100375000Y-130700000D01*
X99675000Y-131400000D02*
X99075000Y-131400000D01*
X98375000Y-130700000D02*
X98375000Y-129300000D01*
X99075000Y-128600000D02*
G75*
G03*
X98375000Y-129300000I-1J-699999D01*
G01*
X98375000Y-130700000D02*
G75*
G03*
X99075000Y-131400000I699999J-1D01*
G01*
X99675000Y-131400000D02*
G75*
G03*
X100375000Y-130700000I1J699999D01*
G01*
X100375000Y-129300000D02*
G75*
G03*
X99675000Y-128600000I-699999J1D01*
G01*
%TO.C,R204*%
X105190000Y-140490436D02*
X105190000Y-140944564D01*
X103720000Y-140490436D02*
X103720000Y-140944564D01*
%TO.C,R214*%
X87502064Y-99265000D02*
X87047936Y-99265000D01*
X87502064Y-100735000D02*
X87047936Y-100735000D01*
%TO.C,R208*%
X92622064Y-125445000D02*
X92167936Y-125445000D01*
X92622064Y-126915000D02*
X92167936Y-126915000D01*
%TO.C,RN201*%
X98045000Y-127340000D02*
X98045000Y-128990000D01*
X98045000Y-132640000D02*
X115945000Y-132640000D01*
X115945000Y-127340000D02*
X98045000Y-127340000D01*
X98045000Y-130990000D02*
X98045000Y-132640000D01*
X115945000Y-132640000D02*
X115945000Y-127340000D01*
X98045000Y-130990000D02*
G75*
G03*
X98045000Y-128990000I0J1000000D01*
G01*
%TO.C,D305*%
X179000000Y-126800000D02*
X179000000Y-130650000D01*
X181000000Y-126800000D02*
X179000000Y-126800000D01*
X181000000Y-126800000D02*
X181000000Y-130650000D01*
%TO.C,R209*%
X94745000Y-124330000D02*
X90045000Y-124330000D01*
X94745000Y-128030000D02*
X90045000Y-128030000D01*
X94745000Y-128030000D02*
G75*
G03*
X94745000Y-124330000I0J1850000D01*
G01*
X90045000Y-124330000D02*
G75*
G03*
X90045000Y-128030000I0J-1850000D01*
G01*
%TO.C,C306*%
X175711252Y-66090000D02*
X174288748Y-66090000D01*
X175711252Y-67910000D02*
X174288748Y-67910000D01*
%TO.C,C201*%
X85986252Y-138287500D02*
X85463748Y-138287500D01*
X85986252Y-139757500D02*
X85463748Y-139757500D01*
%TO.C,R205*%
X119245000Y-133110000D02*
X123945000Y-133110000D01*
X119245000Y-129410000D02*
X123945000Y-129410000D01*
X123945000Y-133110000D02*
G75*
G03*
X123945000Y-129410000I0J1850000D01*
G01*
X119245000Y-129410000D02*
G75*
G03*
X119245000Y-133110000I0J-1850000D01*
G01*
%TO.C,JP304*%
X154132000Y-54480000D02*
X154732000Y-54480000D01*
X153432000Y-56580000D02*
X153432000Y-55180000D01*
X154732000Y-57280000D02*
X154132000Y-57280000D01*
X155432000Y-55180000D02*
X155432000Y-56580000D01*
X154732000Y-57280000D02*
G75*
G03*
X155432000Y-56580000I1J699999D01*
G01*
X155432000Y-55180000D02*
G75*
G03*
X154732000Y-54480000I-699999J1D01*
G01*
X154132000Y-54480000D02*
G75*
G03*
X153432000Y-55180000I-1J-699999D01*
G01*
X153432000Y-56580000D02*
G75*
G03*
X154132000Y-57280000I699999J-1D01*
G01*
%TO.C,C301*%
X170735000Y-60205252D02*
X170735000Y-59682748D01*
X169265000Y-60205252D02*
X169265000Y-59682748D01*
%TO.C,D304*%
X178000000Y-131200000D02*
X178000000Y-127350000D01*
X176000000Y-131200000D02*
X178000000Y-131200000D01*
X176000000Y-131200000D02*
X176000000Y-127350000D01*
%TO.C,R303*%
X180567000Y-58139064D02*
X180567000Y-57684936D01*
X179097000Y-58139064D02*
X179097000Y-57684936D01*
%TO.C,C202*%
X89435000Y-142256248D02*
X89435000Y-142778752D01*
X90905000Y-142256248D02*
X90905000Y-142778752D01*
%TO.C,C304*%
X181129000Y-58173252D02*
X181129000Y-57650748D01*
X182599000Y-58173252D02*
X182599000Y-57650748D01*
%TO.C,C205*%
X91193252Y-137441000D02*
X90670748Y-137441000D01*
X91193252Y-138911000D02*
X90670748Y-138911000D01*
%TO.C,D303*%
X170672000Y-126800000D02*
X168672000Y-126800000D01*
X170672000Y-126800000D02*
X170672000Y-130650000D01*
X168672000Y-126800000D02*
X168672000Y-130650000D01*
%TO.C,JP225*%
X113075000Y-129300000D02*
X113075000Y-130700000D01*
X112375000Y-131400000D02*
X111775000Y-131400000D01*
X111775000Y-128600000D02*
X112375000Y-128600000D01*
X111075000Y-130700000D02*
X111075000Y-129300000D01*
X112375000Y-131400000D02*
G75*
G03*
X113075000Y-130700000I1J699999D01*
G01*
X111075000Y-130700000D02*
G75*
G03*
X111775000Y-131400000I699999J-1D01*
G01*
X111775000Y-128600000D02*
G75*
G03*
X111075000Y-129300000I-1J-699999D01*
G01*
X113075000Y-129300000D02*
G75*
G03*
X112375000Y-128600000I-699999J1D01*
G01*
%TO.C,Q201*%
X113410000Y-56510000D02*
X112150000Y-56510000D01*
X106590000Y-56510000D02*
X107850000Y-56510000D01*
X113410000Y-60270000D02*
X113410000Y-56510000D01*
X106590000Y-62520000D02*
X106590000Y-56510000D01*
%TO.C,R313*%
X147293000Y-131532936D02*
X147293000Y-131987064D01*
X145823000Y-131532936D02*
X145823000Y-131987064D01*
%TO.C,C309*%
X171711252Y-133910000D02*
X170288748Y-133910000D01*
X171711252Y-132090000D02*
X170288748Y-132090000D01*
%TO.C,JP223*%
X106000000Y-130700000D02*
X106000000Y-129300000D01*
X106700000Y-128600000D02*
X107300000Y-128600000D01*
X108000000Y-129300000D02*
X108000000Y-130700000D01*
X107300000Y-131400000D02*
X106700000Y-131400000D01*
X108000000Y-129300000D02*
G75*
G03*
X107300000Y-128600000I-699999J1D01*
G01*
X107300000Y-131400000D02*
G75*
G03*
X108000000Y-130700000I1J699999D01*
G01*
X106700000Y-128600000D02*
G75*
G03*
X106000000Y-129300000I-1J-699999D01*
G01*
X106000000Y-130700000D02*
G75*
G03*
X106700000Y-131400000I699999J-1D01*
G01*
%TD*%
M02*
