G04 #@! TF.GenerationSoftware,KiCad,Pcbnew,(6.0.5)*
G04 #@! TF.CreationDate,2022-08-16T15:24:45+02:00*
G04 #@! TF.ProjectId,reference_front_panel,72656665-7265-46e6-9365-5f66726f6e74,rev?*
G04 #@! TF.SameCoordinates,Original*
G04 #@! TF.FileFunction,Profile,NP*
%FSLAX46Y46*%
G04 Gerber Fmt 4.6, Leading zero omitted, Abs format (unit mm)*
G04 Created by KiCad (PCBNEW (6.0.5)) date 2022-08-16 15:24:45*
%MOMM*%
%LPD*%
G01*
G04 APERTURE LIST*
G04 #@! TA.AperFunction,Profile*
%ADD10C,0.200000*%
G04 #@! TD*
G04 APERTURE END LIST*
D10*
X126060000Y-120456796D02*
X126060000Y-116683204D01*
X155615404Y-54650000D02*
G75*
G03*
X155615404Y-51350000I-2445404J1650000D01*
G01*
X100000000Y-50000000D02*
X100000000Y-178400000D01*
X126945923Y-140840216D02*
X126342576Y-140213433D01*
X126342574Y-135046565D02*
G75*
G03*
X126060000Y-135743204I717426J-696635D01*
G01*
X109895404Y-54650000D02*
X105004596Y-54650000D01*
X105004596Y-51350000D02*
G75*
G03*
X105004596Y-54650000I2445404J-1650000D01*
G01*
X126342576Y-115986567D02*
X126945923Y-115359784D01*
X105004596Y-51350000D02*
X109895404Y-51350000D01*
X126060003Y-120456796D02*
G75*
G03*
X126342576Y-121153433I999997J-4D01*
G01*
X126060003Y-139516796D02*
G75*
G03*
X126342576Y-140213433I999997J-4D01*
G01*
X155615404Y-177050000D02*
G75*
G03*
X155615404Y-173750000I-2445404J1650000D01*
G01*
X150724596Y-51350000D02*
X155615404Y-51350000D01*
X150724596Y-51350000D02*
G75*
G03*
X150724596Y-54650000I2445404J-1650000D01*
G01*
X155615404Y-177050000D02*
X150724596Y-177050000D01*
X100000000Y-178400000D02*
X160620000Y-178400000D01*
X126945923Y-121780216D02*
X126342576Y-121153433D01*
X126342574Y-115986565D02*
G75*
G03*
X126060000Y-116683204I717426J-696635D01*
G01*
X126060000Y-139516796D02*
X126060000Y-135743204D01*
X160620000Y-178400000D02*
X160620000Y-50000000D01*
X126342576Y-135046567D02*
X126945923Y-134419784D01*
X109895404Y-177050000D02*
X105004596Y-177050000D01*
X126945923Y-121780216D02*
G75*
G03*
X126945923Y-115359784I3364077J3210216D01*
G01*
X109895404Y-54650000D02*
G75*
G03*
X109895404Y-51350000I-2445404J1650000D01*
G01*
X150724596Y-173750000D02*
X155615404Y-173750000D01*
X105004596Y-173750000D02*
G75*
G03*
X105004596Y-177050000I2445404J-1650000D01*
G01*
X126945923Y-140840216D02*
G75*
G03*
X126945923Y-134419784I3364077J3210216D01*
G01*
X105004596Y-173750000D02*
X109895404Y-173750000D01*
X155615404Y-54650000D02*
X150724596Y-54650000D01*
X150724596Y-173750000D02*
G75*
G03*
X150724596Y-177050000I2445404J-1650000D01*
G01*
X160620000Y-50000000D02*
X100000000Y-50000000D01*
X109895404Y-177050000D02*
G75*
G03*
X109895404Y-173750000I-2445404J1650000D01*
G01*
M02*
