G04 #@! TF.GenerationSoftware,KiCad,Pcbnew,(6.0.5)*
G04 #@! TF.CreationDate,2022-08-16T15:24:45+02:00*
G04 #@! TF.ProjectId,reference_front_panel,72656665-7265-46e6-9365-5f66726f6e74,rev?*
G04 #@! TF.SameCoordinates,Original*
G04 #@! TF.FileFunction,Legend,Top*
G04 #@! TF.FilePolarity,Positive*
%FSLAX46Y46*%
G04 Gerber Fmt 4.6, Leading zero omitted, Abs format (unit mm)*
G04 Created by KiCad (PCBNEW (6.0.5)) date 2022-08-16 15:24:45*
%MOMM*%
%LPD*%
G01*
G04 APERTURE LIST*
%ADD10C,0.150000*%
G04 APERTURE END LIST*
D10*
G04 #@! TO.C,H107*
X105735714Y-172352380D02*
X105735714Y-171352380D01*
X105735714Y-171828571D02*
X106307142Y-171828571D01*
X106307142Y-172352380D02*
X106307142Y-171352380D01*
X107307142Y-172352380D02*
X106735714Y-172352380D01*
X107021428Y-172352380D02*
X107021428Y-171352380D01*
X106926190Y-171495238D01*
X106830952Y-171590476D01*
X106735714Y-171638095D01*
X107926190Y-171352380D02*
X108021428Y-171352380D01*
X108116666Y-171400000D01*
X108164285Y-171447619D01*
X108211904Y-171542857D01*
X108259523Y-171733333D01*
X108259523Y-171971428D01*
X108211904Y-172161904D01*
X108164285Y-172257142D01*
X108116666Y-172304761D01*
X108021428Y-172352380D01*
X107926190Y-172352380D01*
X107830952Y-172304761D01*
X107783333Y-172257142D01*
X107735714Y-172161904D01*
X107688095Y-171971428D01*
X107688095Y-171733333D01*
X107735714Y-171542857D01*
X107783333Y-171447619D01*
X107830952Y-171400000D01*
X107926190Y-171352380D01*
X108592857Y-171352380D02*
X109259523Y-171352380D01*
X108830952Y-172352380D01*
G04 #@! TO.C,H110*
X151455714Y-172352380D02*
X151455714Y-171352380D01*
X151455714Y-171828571D02*
X152027142Y-171828571D01*
X152027142Y-172352380D02*
X152027142Y-171352380D01*
X153027142Y-172352380D02*
X152455714Y-172352380D01*
X152741428Y-172352380D02*
X152741428Y-171352380D01*
X152646190Y-171495238D01*
X152550952Y-171590476D01*
X152455714Y-171638095D01*
X153979523Y-172352380D02*
X153408095Y-172352380D01*
X153693809Y-172352380D02*
X153693809Y-171352380D01*
X153598571Y-171495238D01*
X153503333Y-171590476D01*
X153408095Y-171638095D01*
X154598571Y-171352380D02*
X154693809Y-171352380D01*
X154789047Y-171400000D01*
X154836666Y-171447619D01*
X154884285Y-171542857D01*
X154931904Y-171733333D01*
X154931904Y-171971428D01*
X154884285Y-172161904D01*
X154836666Y-172257142D01*
X154789047Y-172304761D01*
X154693809Y-172352380D01*
X154598571Y-172352380D01*
X154503333Y-172304761D01*
X154455714Y-172257142D01*
X154408095Y-172161904D01*
X154360476Y-171971428D01*
X154360476Y-171733333D01*
X154408095Y-171542857D01*
X154455714Y-171447619D01*
X154503333Y-171400000D01*
X154598571Y-171352380D01*
G04 #@! TO.C,G\u002A\u002A\u002A*
G36*
X130858044Y-91969544D02*
G01*
X131248759Y-91985424D01*
X131556548Y-92016832D01*
X131745412Y-92064598D01*
X131776276Y-92084849D01*
X131825304Y-92215123D01*
X131865391Y-92471343D01*
X131895045Y-92810287D01*
X131912775Y-93188732D01*
X131917091Y-93563455D01*
X131906501Y-93891232D01*
X131879515Y-94128842D01*
X131849878Y-94218667D01*
X131784540Y-94270224D01*
X131651126Y-94307432D01*
X131425230Y-94332868D01*
X131082443Y-94349109D01*
X130598360Y-94358731D01*
X130513751Y-94359743D01*
X130048698Y-94360979D01*
X129625059Y-94354771D01*
X129280815Y-94342205D01*
X129053949Y-94324366D01*
X129007667Y-94316715D01*
X128753667Y-94259609D01*
X128729734Y-93256312D01*
X128726780Y-92843415D01*
X128737426Y-92497976D01*
X128759809Y-92255162D01*
X128788136Y-92153809D01*
X128920469Y-92093972D01*
X129185859Y-92044678D01*
X129548309Y-92006757D01*
X129971821Y-91981041D01*
X130420399Y-91968359D01*
X130858044Y-91969544D01*
G37*
G36*
X142354904Y-123240377D02*
G01*
X142380881Y-123252668D01*
X142387260Y-123395318D01*
X142322291Y-123632829D01*
X142207466Y-123918448D01*
X142064277Y-124205423D01*
X141914214Y-124447000D01*
X141778770Y-124596426D01*
X141756761Y-124610382D01*
X141636605Y-124750317D01*
X141638315Y-124858491D01*
X141633385Y-125046706D01*
X141538810Y-125325289D01*
X141349695Y-125704071D01*
X141061144Y-126192882D01*
X140677599Y-126787497D01*
X140327301Y-127288868D01*
X139955478Y-127763168D01*
X139527738Y-128251259D01*
X139009691Y-128794004D01*
X138871334Y-128933691D01*
X138497347Y-129302522D01*
X138147214Y-129635628D01*
X137844525Y-129911503D01*
X137612869Y-130108640D01*
X137476775Y-130205075D01*
X137262275Y-130323327D01*
X136985115Y-130492114D01*
X136812100Y-130604167D01*
X136568076Y-130753719D01*
X136367666Y-130853655D01*
X136278397Y-130879333D01*
X136150111Y-130953942D01*
X136060466Y-131180797D01*
X136008371Y-131564439D01*
X135992667Y-132070178D01*
X135992667Y-132826667D01*
X132690667Y-132826667D01*
X132681203Y-131577833D01*
X132675630Y-131110253D01*
X132666804Y-130681153D01*
X132655795Y-130329603D01*
X132643669Y-130094676D01*
X132639370Y-130047332D01*
X132637450Y-129795074D01*
X132715578Y-129603884D01*
X132898918Y-129446154D01*
X133212635Y-129294277D01*
X133387932Y-129226114D01*
X134528092Y-128721263D01*
X135564343Y-128092285D01*
X136523934Y-127322161D01*
X136703184Y-127155292D01*
X137703692Y-126088482D01*
X138588883Y-124908254D01*
X139215073Y-123873167D01*
X139503086Y-123344000D01*
X141397684Y-123344000D01*
X141310362Y-123661500D01*
X141186588Y-124019459D01*
X141027327Y-124354717D01*
X140861508Y-124610708D01*
X140782522Y-124693531D01*
X140670339Y-124861739D01*
X140649334Y-124966406D01*
X140611952Y-125141130D01*
X140518516Y-125380905D01*
X140480000Y-125460667D01*
X140375822Y-125685014D01*
X140316155Y-125852526D01*
X140310667Y-125887123D01*
X140350369Y-125904053D01*
X140452572Y-125808435D01*
X140591916Y-125632479D01*
X140743045Y-125408392D01*
X140880598Y-125168385D01*
X140888157Y-125153609D01*
X141022568Y-124931884D01*
X141154173Y-124781333D01*
X141198140Y-124753301D01*
X141291320Y-124647596D01*
X141279802Y-124499090D01*
X141291901Y-124335407D01*
X141363314Y-124081109D01*
X141472132Y-123794165D01*
X141596449Y-123532541D01*
X141711145Y-123357763D01*
X141818353Y-123309778D01*
X142009087Y-123266733D01*
X142211789Y-123239857D01*
X142354904Y-123240377D01*
G37*
G36*
X113491273Y-101524852D02*
G01*
X113593942Y-102214209D01*
X113822694Y-102868589D01*
X114193838Y-103534487D01*
X114198992Y-103542385D01*
X114344137Y-103764437D01*
X113807569Y-104325552D01*
X113559899Y-104572958D01*
X113346896Y-104764655D01*
X113200622Y-104872710D01*
X113163464Y-104886667D01*
X113065099Y-104825682D01*
X112889683Y-104661951D01*
X112666749Y-104424312D01*
X112534816Y-104272833D01*
X112274549Y-103971754D01*
X112024859Y-103692322D01*
X111826262Y-103479549D01*
X111768853Y-103421875D01*
X111612447Y-103242945D01*
X111528527Y-103093455D01*
X111524000Y-103066437D01*
X111584625Y-102931277D01*
X111764725Y-102682079D01*
X112061639Y-102322093D01*
X112472704Y-101854569D01*
X112905203Y-101380110D01*
X113445711Y-100794553D01*
X113491273Y-101524852D01*
G37*
G36*
X145542302Y-99548686D02*
G01*
X145868753Y-99900149D01*
X146270503Y-100328308D01*
X146705106Y-100788164D01*
X147130117Y-101234718D01*
X147299269Y-101411353D01*
X147799204Y-101937720D01*
X148188038Y-102360838D01*
X148476925Y-102694620D01*
X148677021Y-102952983D01*
X148799480Y-103149839D01*
X148855456Y-103299102D01*
X148862000Y-103360662D01*
X148802909Y-103501155D01*
X148645999Y-103718840D01*
X148421816Y-103982151D01*
X148160909Y-104259518D01*
X147893823Y-104519374D01*
X147651106Y-104730151D01*
X147463303Y-104860282D01*
X147385364Y-104886667D01*
X147254000Y-104828861D01*
X147048530Y-104675596D01*
X146808320Y-104457101D01*
X146751355Y-104399833D01*
X146286157Y-103914872D01*
X145857454Y-103452564D01*
X145479639Y-103029691D01*
X145167101Y-102663039D01*
X144934232Y-102369390D01*
X144795422Y-102165529D01*
X144761714Y-102079364D01*
X144764590Y-101947917D01*
X144768926Y-101676864D01*
X144774302Y-101295920D01*
X144780299Y-100834801D01*
X144786350Y-100335833D01*
X144794033Y-99679667D01*
X145136667Y-99679667D01*
X145179000Y-99722000D01*
X145221334Y-99679667D01*
X145179000Y-99637333D01*
X145136667Y-99679667D01*
X144794033Y-99679667D01*
X144804937Y-98748333D01*
X145542302Y-99548686D01*
G37*
G36*
X132483317Y-144162837D02*
G01*
X132535795Y-144653143D01*
X132540778Y-144993027D01*
X132497158Y-145194925D01*
X132403827Y-145271271D01*
X132384463Y-145272667D01*
X132310456Y-145217644D01*
X132274293Y-145036364D01*
X132268069Y-144828167D01*
X132280714Y-144465424D01*
X132311761Y-144068009D01*
X132328755Y-143918000D01*
X132388705Y-143452333D01*
X132483317Y-144162837D01*
G37*
G36*
X149003937Y-116783928D02*
G01*
X149124194Y-116827853D01*
X149172444Y-116875462D01*
X149235135Y-117043109D01*
X149288370Y-117346215D01*
X149329561Y-117751042D01*
X149356119Y-118223856D01*
X149365455Y-118730919D01*
X149354978Y-119238497D01*
X149354552Y-119248341D01*
X149332119Y-119642150D01*
X149301204Y-119901715D01*
X149254370Y-120062121D01*
X149184183Y-120158455D01*
X149157011Y-120180437D01*
X149069183Y-120234397D01*
X148963103Y-120264639D01*
X148803465Y-120272161D01*
X148554964Y-120257965D01*
X148182293Y-120223052D01*
X148066848Y-120211333D01*
X147799779Y-120168126D01*
X147652752Y-120092803D01*
X147581573Y-119975338D01*
X147558701Y-119826674D01*
X147541948Y-119542613D01*
X147532345Y-119157015D01*
X147530920Y-118703739D01*
X147534298Y-118420246D01*
X147544676Y-117874468D01*
X147562946Y-117474013D01*
X147602729Y-117194967D01*
X147677647Y-117013416D01*
X147801320Y-116905447D01*
X147987372Y-116847146D01*
X148249422Y-116814600D01*
X148459143Y-116796600D01*
X148795426Y-116774967D01*
X149003937Y-116783928D01*
G37*
G36*
X140909624Y-78171265D02*
G01*
X140964220Y-78357397D01*
X140985842Y-78695994D01*
X140988000Y-78926911D01*
X140988000Y-79721821D01*
X140700174Y-79775818D01*
X140520174Y-79819126D01*
X140387244Y-79887726D01*
X140293523Y-80005650D01*
X140231152Y-80196932D01*
X140192270Y-80485608D01*
X140169017Y-80895712D01*
X140153629Y-81446971D01*
X140123591Y-82788667D01*
X138786667Y-82788667D01*
X138786667Y-78216667D01*
X140141334Y-78216667D01*
X140141334Y-78707733D01*
X140429200Y-78419867D01*
X140653993Y-78213279D01*
X140810175Y-78126819D01*
X140909624Y-78171265D01*
G37*
G36*
X141527100Y-137358858D02*
G01*
X141554161Y-137118759D01*
X141600581Y-136967482D01*
X141676851Y-136864772D01*
X141750000Y-136802990D01*
X142049029Y-136663897D01*
X142392472Y-136636900D01*
X142715211Y-136719644D01*
X142896849Y-136844485D01*
X142998997Y-136962424D01*
X143060976Y-137094702D01*
X143092612Y-137285536D01*
X143103731Y-137579144D01*
X143104667Y-137779667D01*
X143100155Y-138141698D01*
X143080070Y-138378711D01*
X143034585Y-138534921D01*
X142953873Y-138654548D01*
X142896849Y-138714848D01*
X142617661Y-138884576D01*
X142279621Y-138935339D01*
X141943964Y-138867559D01*
X141695559Y-138706589D01*
X141592929Y-138593150D01*
X141531258Y-138476100D01*
X141502433Y-138312898D01*
X141498338Y-138061001D01*
X141507268Y-137779667D01*
X142258000Y-137779667D01*
X142267364Y-138130141D01*
X142293118Y-138378332D01*
X142331755Y-138494434D01*
X142342667Y-138499333D01*
X142383899Y-138419741D01*
X142413098Y-138200836D01*
X142426757Y-137872420D01*
X142427334Y-137779667D01*
X142417970Y-137429192D01*
X142392216Y-137181001D01*
X142353579Y-137064899D01*
X142342667Y-137060000D01*
X142301435Y-137139592D01*
X142272236Y-137358497D01*
X142258577Y-137686913D01*
X142258000Y-137779667D01*
X141507268Y-137779667D01*
X141508907Y-137728029D01*
X141527100Y-137358858D01*
G37*
G36*
X107343024Y-116901158D02*
G01*
X107539129Y-116915758D01*
X107593652Y-116930096D01*
X107622689Y-117040085D01*
X107647744Y-117286240D01*
X107668317Y-117635432D01*
X107683908Y-118054527D01*
X107694019Y-118510397D01*
X107698150Y-118969911D01*
X107695802Y-119399936D01*
X107686476Y-119767343D01*
X107669671Y-120039000D01*
X107644890Y-120181777D01*
X107642730Y-120186302D01*
X107580174Y-120272932D01*
X107481076Y-120326124D01*
X107308088Y-120353853D01*
X107023863Y-120364092D01*
X106805053Y-120365158D01*
X106446390Y-120357529D01*
X106136205Y-120337048D01*
X105925962Y-120307588D01*
X105885719Y-120295954D01*
X105799967Y-120243995D01*
X105741734Y-120145473D01*
X105701592Y-119965894D01*
X105670115Y-119670764D01*
X105652886Y-119443945D01*
X105614990Y-118785120D01*
X105598862Y-118201257D01*
X105604059Y-117713373D01*
X105630140Y-117342484D01*
X105676661Y-117109607D01*
X105703167Y-117056704D01*
X105789054Y-116989746D01*
X105946172Y-116944704D01*
X106205524Y-116916525D01*
X106598117Y-116900161D01*
X106675718Y-116898294D01*
X107042475Y-116894895D01*
X107343024Y-116901158D01*
G37*
G36*
X110241349Y-134940163D02*
G01*
X110441005Y-135114861D01*
X110565560Y-135268188D01*
X110756103Y-135502305D01*
X111052984Y-135844952D01*
X111444483Y-136283267D01*
X111918878Y-136804390D01*
X112464447Y-137395460D01*
X113069469Y-138043619D01*
X113722222Y-138736004D01*
X113829184Y-138848845D01*
X114298280Y-139346029D01*
X114657910Y-139740176D01*
X114916056Y-140050231D01*
X115080702Y-140295137D01*
X115159829Y-140493841D01*
X115161421Y-140665286D01*
X115093460Y-140828418D01*
X114963928Y-141002181D01*
X114809225Y-141174725D01*
X114576431Y-141405304D01*
X114347430Y-141597023D01*
X114216858Y-141682853D01*
X114080965Y-141743019D01*
X113969561Y-141742787D01*
X113836509Y-141664738D01*
X113635672Y-141491453D01*
X113582964Y-141443519D01*
X113306782Y-141180827D01*
X113027599Y-140898285D01*
X112884165Y-140743900D01*
X112691481Y-140530901D01*
X112426862Y-140241813D01*
X112133993Y-139924263D01*
X111989667Y-139768679D01*
X111288143Y-139012533D01*
X110695347Y-138369687D01*
X110203219Y-137830828D01*
X109803698Y-137386640D01*
X109488723Y-137027809D01*
X109250234Y-136745023D01*
X109080171Y-136528967D01*
X108970472Y-136370326D01*
X108913077Y-136259787D01*
X108899387Y-136197877D01*
X108952536Y-136068322D01*
X109090650Y-135856434D01*
X109281835Y-135602426D01*
X109494196Y-135346514D01*
X109695838Y-135128911D01*
X109854869Y-134989831D01*
X109860465Y-134986094D01*
X110058570Y-134901535D01*
X110241349Y-134940163D01*
G37*
G36*
X137347334Y-98071000D02*
G01*
X137356107Y-98306107D01*
X137399230Y-98417498D01*
X137501909Y-98450545D01*
X137559000Y-98452000D01*
X137689615Y-98467791D01*
X137751499Y-98545413D01*
X137769858Y-98730236D01*
X137770667Y-98833000D01*
X137761976Y-99068038D01*
X137718918Y-99179396D01*
X137616015Y-99212494D01*
X137556953Y-99214000D01*
X137343239Y-99214000D01*
X137366453Y-100632167D01*
X137375658Y-101151857D01*
X137386019Y-101526574D01*
X137401137Y-101780660D01*
X137424611Y-101938456D01*
X137460040Y-102024305D01*
X137511025Y-102062549D01*
X137580167Y-102077388D01*
X137699991Y-102117659D01*
X137755859Y-102225292D01*
X137770580Y-102448442D01*
X137770667Y-102479555D01*
X137770667Y-102854667D01*
X137156834Y-102852092D01*
X136827769Y-102838368D01*
X136548049Y-102804780D01*
X136376685Y-102758501D01*
X136373667Y-102756899D01*
X136245372Y-102678522D01*
X136149611Y-102587082D01*
X136081643Y-102458319D01*
X136036731Y-102267969D01*
X136010134Y-101991772D01*
X135997113Y-101605467D01*
X135992929Y-101084790D01*
X135992667Y-100806484D01*
X135991925Y-100250978D01*
X135988104Y-99842309D01*
X135978812Y-99557984D01*
X135961659Y-99375509D01*
X135934250Y-99272389D01*
X135894196Y-99226131D01*
X135839103Y-99214239D01*
X135823334Y-99214000D01*
X135717514Y-99189071D01*
X135667474Y-99085558D01*
X135654065Y-98860370D01*
X135654000Y-98833000D01*
X135665080Y-98594905D01*
X135711085Y-98482317D01*
X135811169Y-98452145D01*
X135823334Y-98452000D01*
X135929153Y-98427071D01*
X135979193Y-98323558D01*
X135992602Y-98098370D01*
X135992667Y-98071000D01*
X135992667Y-97690000D01*
X137347334Y-97690000D01*
X137347334Y-98071000D01*
G37*
G36*
X112719188Y-161690253D02*
G01*
X112836669Y-161907627D01*
X112878664Y-162245380D01*
X112878667Y-162248333D01*
X112837282Y-162586917D01*
X112720329Y-162805275D01*
X112538610Y-162883329D01*
X112537021Y-162883333D01*
X112451894Y-162867594D01*
X112401941Y-162797051D01*
X112377994Y-162636711D01*
X112370888Y-162351585D01*
X112370667Y-162248333D01*
X112374790Y-161923390D01*
X112393271Y-161732710D01*
X112435276Y-161641302D01*
X112509972Y-161614176D01*
X112537021Y-161613333D01*
X112719188Y-161690253D01*
G37*
G36*
X126988029Y-137419210D02*
G01*
X127156419Y-137438435D01*
X127421837Y-137487349D01*
X127454841Y-138616748D01*
X127470137Y-139079031D01*
X127490006Y-139414477D01*
X127522744Y-139665541D01*
X127576649Y-139874679D01*
X127660017Y-140084346D01*
X127781146Y-140336998D01*
X127797455Y-140369888D01*
X127950572Y-140707023D01*
X128032531Y-140952401D01*
X128034858Y-141080341D01*
X128032807Y-141083104D01*
X127993053Y-141205052D01*
X127953474Y-141449372D01*
X127921170Y-141769249D01*
X127914626Y-141862357D01*
X127887090Y-142216950D01*
X127854004Y-142530485D01*
X127821696Y-142744736D01*
X127815898Y-142770499D01*
X127812520Y-142990918D01*
X127900936Y-143146465D01*
X128050038Y-143191510D01*
X128094767Y-143179544D01*
X128242884Y-143175542D01*
X128349575Y-143300923D01*
X128418216Y-143566115D01*
X128452186Y-143981545D01*
X128457334Y-144299000D01*
X128445040Y-144795041D01*
X128404733Y-145136904D01*
X128331274Y-145338191D01*
X128219527Y-145412504D01*
X128064351Y-145373446D01*
X128053602Y-145367824D01*
X127918894Y-145314662D01*
X127844249Y-145354303D01*
X127814513Y-145512827D01*
X127813663Y-145780667D01*
X127826998Y-146015398D01*
X127873949Y-146127622D01*
X127986211Y-146164152D01*
X128076334Y-146168651D01*
X128293955Y-146178232D01*
X128433143Y-146189818D01*
X128480066Y-146251923D01*
X128511796Y-146433811D01*
X128529899Y-146751618D01*
X128535939Y-147221482D01*
X128535953Y-147249680D01*
X128539962Y-147688489D01*
X128550859Y-148097000D01*
X128566948Y-148427885D01*
X128585241Y-148625514D01*
X128584479Y-148871551D01*
X128524458Y-149111872D01*
X128425461Y-149315738D01*
X128307770Y-149452413D01*
X128191669Y-149491157D01*
X128097439Y-149401233D01*
X128088049Y-149379000D01*
X127997065Y-149261939D01*
X127887909Y-149307055D01*
X127805054Y-149442500D01*
X127764023Y-149706784D01*
X127790987Y-149829586D01*
X127805315Y-149950941D01*
X127818867Y-150224672D01*
X127831353Y-150633823D01*
X127842479Y-151161436D01*
X127851955Y-151790555D01*
X127859490Y-152504223D01*
X127864790Y-153285484D01*
X127867565Y-154117380D01*
X127867799Y-154295752D01*
X127871885Y-158565333D01*
X128711334Y-158565333D01*
X128721904Y-154183833D01*
X128723724Y-153270078D01*
X128724837Y-152352488D01*
X128725260Y-151455800D01*
X128725010Y-150604748D01*
X128724106Y-149824067D01*
X128722564Y-149138493D01*
X128720402Y-148572762D01*
X128717638Y-148151607D01*
X128717635Y-148151333D01*
X128714536Y-147555206D01*
X128718417Y-147103875D01*
X128730800Y-146772888D01*
X128753208Y-146537796D01*
X128787161Y-146374148D01*
X128834182Y-146257495D01*
X128835699Y-146254672D01*
X128913718Y-146033349D01*
X128916025Y-145843387D01*
X128915525Y-145841782D01*
X128925200Y-145677933D01*
X129074494Y-145501748D01*
X129104391Y-145476655D01*
X129246382Y-145341217D01*
X129245616Y-145280755D01*
X129211757Y-145275711D01*
X129059650Y-145189507D01*
X128941599Y-144941267D01*
X128858964Y-144535104D01*
X128818598Y-144087333D01*
X128778530Y-143367667D01*
X129053086Y-143123648D01*
X129216741Y-142967493D01*
X129263065Y-142877117D01*
X129207478Y-142813173D01*
X129180888Y-142797501D01*
X129033229Y-142643203D01*
X128900837Y-142388140D01*
X128813879Y-142100223D01*
X128796000Y-141931053D01*
X128801204Y-141793809D01*
X128839741Y-141735485D01*
X128945998Y-141755151D01*
X129154361Y-141851877D01*
X129285648Y-141917802D01*
X129874979Y-142145152D01*
X130555287Y-142273618D01*
X131261206Y-142309333D01*
X131596669Y-142311365D01*
X131793859Y-142323899D01*
X131883836Y-142356594D01*
X131897659Y-142419109D01*
X131873802Y-142499833D01*
X131832075Y-142728412D01*
X131830789Y-142944333D01*
X131840210Y-143113788D01*
X131851177Y-143417478D01*
X131862651Y-143820327D01*
X131873593Y-144287256D01*
X131879687Y-144595333D01*
X131888964Y-145069915D01*
X131898213Y-145488293D01*
X131906672Y-145819740D01*
X131913575Y-146033529D01*
X131916994Y-146096050D01*
X132000423Y-146163315D01*
X132172398Y-146151020D01*
X132391138Y-146148825D01*
X132482964Y-146210414D01*
X132511962Y-146340084D01*
X132535636Y-146603027D01*
X132553634Y-146963255D01*
X132565606Y-147384781D01*
X132571199Y-147831618D01*
X132570063Y-148267778D01*
X132561845Y-148657273D01*
X132546195Y-148964117D01*
X132522762Y-149152322D01*
X132512004Y-149184766D01*
X132383014Y-149319885D01*
X132216716Y-149295887D01*
X132086448Y-149199212D01*
X131972125Y-149115807D01*
X131898319Y-149156561D01*
X131833358Y-149283879D01*
X131774936Y-149504764D01*
X131834133Y-149729743D01*
X131838155Y-149738649D01*
X131874921Y-149876928D01*
X131901888Y-150117832D01*
X131919637Y-150476061D01*
X131928745Y-150966315D01*
X131929791Y-151603294D01*
X131927290Y-152003482D01*
X131922733Y-152702069D01*
X131919482Y-153511941D01*
X131917642Y-154375055D01*
X131917318Y-155233366D01*
X131918614Y-156028831D01*
X131919545Y-156300500D01*
X131928667Y-158565333D01*
X132817667Y-158565363D01*
X132788299Y-154245004D01*
X132782161Y-153261631D01*
X132778432Y-152433804D01*
X132777410Y-151747747D01*
X132779391Y-151189685D01*
X132784671Y-150745843D01*
X132793547Y-150402446D01*
X132806315Y-150145718D01*
X132823271Y-149961885D01*
X132844713Y-149837172D01*
X132870936Y-149757803D01*
X132885430Y-149731581D01*
X132963926Y-149513279D01*
X132937354Y-149405259D01*
X132913609Y-149280943D01*
X132893128Y-149016857D01*
X132877194Y-148642553D01*
X132867088Y-148187582D01*
X132864048Y-147716833D01*
X132864452Y-147197479D01*
X132864792Y-146716196D01*
X132865045Y-146306918D01*
X132865190Y-146003575D01*
X132865213Y-145852414D01*
X132896689Y-145619326D01*
X132973926Y-145454678D01*
X132987194Y-145441839D01*
X133066025Y-145344236D01*
X133009132Y-145241016D01*
X132984908Y-145216145D01*
X132937395Y-145138254D01*
X132904462Y-144999197D01*
X132884429Y-144774808D01*
X132875614Y-144440922D01*
X132876337Y-143973374D01*
X132879494Y-143700553D01*
X132898452Y-142309333D01*
X135878673Y-142309333D01*
X135842865Y-142553307D01*
X135853396Y-142768928D01*
X135921029Y-142870807D01*
X136031485Y-142889143D01*
X136289555Y-142905809D01*
X136673521Y-142920215D01*
X137161666Y-142931769D01*
X137732274Y-142939882D01*
X138363627Y-142943962D01*
X138624268Y-142944333D01*
X141213535Y-142944333D01*
X141527047Y-143219500D01*
X141766881Y-143413822D01*
X141902873Y-143480508D01*
X141942276Y-143419715D01*
X141892344Y-143231602D01*
X141890812Y-143227433D01*
X141835549Y-143037864D01*
X141861877Y-142946845D01*
X141919334Y-142917581D01*
X142035392Y-142842784D01*
X142236784Y-142679445D01*
X142487659Y-142457292D01*
X142596667Y-142355951D01*
X142909670Y-142068209D01*
X143238059Y-141778216D01*
X143519433Y-141540872D01*
X143562782Y-141505978D01*
X143829513Y-141254051D01*
X144109083Y-140928366D01*
X144313072Y-140641508D01*
X144539794Y-140317020D01*
X144720455Y-140148616D01*
X144865236Y-140132658D01*
X144984316Y-140265509D01*
X145036122Y-140383167D01*
X145133251Y-140566487D01*
X145290522Y-140792306D01*
X145472145Y-141017069D01*
X145642332Y-141197222D01*
X145765291Y-141289212D01*
X145784042Y-141293333D01*
X145890956Y-141359166D01*
X146019788Y-141512322D01*
X146121692Y-141686284D01*
X146151068Y-141793121D01*
X146132838Y-141882959D01*
X146070563Y-142017731D01*
X145950193Y-142221452D01*
X145757677Y-142518138D01*
X145521289Y-142869499D01*
X145349025Y-143094115D01*
X145137085Y-143334412D01*
X145097956Y-143374893D01*
X144873110Y-143613392D01*
X144656533Y-143858799D01*
X144628667Y-143892124D01*
X144446599Y-144088967D01*
X144196587Y-144330989D01*
X144002621Y-144504844D01*
X143742120Y-144710558D01*
X143554371Y-144807382D01*
X143401210Y-144814380D01*
X143388787Y-144811500D01*
X143240241Y-144800021D01*
X143191836Y-144900290D01*
X143189334Y-144971741D01*
X143182993Y-145072960D01*
X143153943Y-145156228D01*
X143087145Y-145223309D01*
X142967557Y-145275966D01*
X142780141Y-145315962D01*
X142509856Y-145345060D01*
X142141661Y-145365024D01*
X141660517Y-145377616D01*
X141051384Y-145384601D01*
X140299221Y-145387740D01*
X139633334Y-145388632D01*
X138903748Y-145387627D01*
X138217182Y-145383684D01*
X137594548Y-145377146D01*
X137056758Y-145368359D01*
X136624724Y-145357667D01*
X136319357Y-145345415D01*
X136161571Y-145331946D01*
X136158615Y-145331385D01*
X135858896Y-145271665D01*
X135862281Y-145716666D01*
X135869951Y-145975132D01*
X135901467Y-146105054D01*
X135977264Y-146147186D01*
X136077334Y-146145548D01*
X136203801Y-146141103D01*
X136481541Y-146134795D01*
X136892507Y-146126929D01*
X137418654Y-146117808D01*
X138041935Y-146107736D01*
X138744304Y-146097015D01*
X139507713Y-146085950D01*
X140144670Y-146077130D01*
X144000339Y-146024831D01*
X144326145Y-146283749D01*
X144572216Y-146456761D01*
X144749270Y-146537654D01*
X144836898Y-146521919D01*
X144814690Y-146405048D01*
X144806887Y-146389938D01*
X144759993Y-146244866D01*
X144813015Y-146140805D01*
X144985180Y-146067501D01*
X145295715Y-146014706D01*
X145560274Y-145988280D01*
X146279667Y-145926612D01*
X147170411Y-145006973D01*
X147489728Y-144685788D01*
X147776116Y-144413497D01*
X148005783Y-144211534D01*
X148154939Y-144101338D01*
X148191090Y-144087333D01*
X148293478Y-144145101D01*
X148485330Y-144301472D01*
X148740795Y-144531044D01*
X149034023Y-144808417D01*
X149339166Y-145108190D01*
X149630373Y-145404961D01*
X149881795Y-145673329D01*
X150067582Y-145887895D01*
X150161886Y-146023255D01*
X150162436Y-146024472D01*
X150182487Y-146197809D01*
X150092865Y-146428316D01*
X150042645Y-146515831D01*
X149819013Y-146843432D01*
X149520936Y-147218378D01*
X149172657Y-147616237D01*
X148798421Y-148012577D01*
X148422470Y-148382966D01*
X148069049Y-148702973D01*
X147762400Y-148948164D01*
X147526767Y-149094109D01*
X147459825Y-149118733D01*
X147235367Y-149221107D01*
X147081847Y-149338820D01*
X147000791Y-149405248D01*
X146893443Y-149451330D01*
X146730175Y-149480618D01*
X146481363Y-149496663D01*
X146117379Y-149503016D01*
X145708167Y-149503475D01*
X145189874Y-149503629D01*
X144577075Y-149505885D01*
X143887490Y-149510013D01*
X143138842Y-149515785D01*
X142348853Y-149522970D01*
X141535243Y-149531341D01*
X140715736Y-149540668D01*
X139908054Y-149550721D01*
X139129917Y-149561272D01*
X138399048Y-149572091D01*
X137733169Y-149582950D01*
X137150002Y-149593618D01*
X136667268Y-149603868D01*
X136302690Y-149613470D01*
X136073989Y-149622194D01*
X135999111Y-149629017D01*
X135986710Y-149718725D01*
X135974539Y-149961944D01*
X135962876Y-150342853D01*
X135951996Y-150845629D01*
X135942179Y-151454452D01*
X135933701Y-152153498D01*
X135926840Y-152926947D01*
X135921873Y-153758976D01*
X135920437Y-154116751D01*
X135905113Y-158565333D01*
X160630667Y-158565333D01*
X160630667Y-168810000D01*
X135992667Y-168810000D01*
X135992667Y-178462000D01*
X132768303Y-178462000D01*
X132775577Y-173826500D01*
X132776879Y-172950927D01*
X132777970Y-172122477D01*
X132778840Y-171357320D01*
X132779476Y-170671626D01*
X132779867Y-170081565D01*
X132780001Y-169603306D01*
X132779866Y-169253020D01*
X132779451Y-169046875D01*
X132779092Y-169000500D01*
X132759287Y-168886950D01*
X132676962Y-168830321D01*
X132488971Y-168811367D01*
X132352000Y-168810000D01*
X131928667Y-168810000D01*
X131928667Y-178462000D01*
X128711334Y-178462000D01*
X128711334Y-168810000D01*
X127874020Y-168810000D01*
X127880434Y-171794500D01*
X127881681Y-172595296D01*
X127882141Y-173435053D01*
X127881854Y-174275254D01*
X127880855Y-175077384D01*
X127879182Y-175802928D01*
X127876874Y-176413370D01*
X127875758Y-176620500D01*
X127864667Y-178462000D01*
X124641990Y-178462000D01*
X124665828Y-173635973D01*
X124689667Y-168809947D01*
X116210752Y-168809973D01*
X114823886Y-168809890D01*
X113595948Y-168809503D01*
X112516532Y-168808617D01*
X111575233Y-168807040D01*
X110761646Y-168804576D01*
X110065365Y-168801033D01*
X109475985Y-168796217D01*
X108983099Y-168789934D01*
X108576304Y-168781990D01*
X108245193Y-168772192D01*
X107979361Y-168760345D01*
X107768402Y-168746256D01*
X107601911Y-168729731D01*
X107469483Y-168710577D01*
X107360712Y-168688599D01*
X107265193Y-168663605D01*
X107193752Y-168642064D01*
X106553345Y-168357112D01*
X105977640Y-167935290D01*
X105495198Y-167405158D01*
X105134580Y-166795277D01*
X105003270Y-166451581D01*
X104951481Y-166270122D01*
X104951455Y-166270000D01*
X110931334Y-166270000D01*
X112370667Y-166270000D01*
X112370667Y-165000000D01*
X112371837Y-164511721D01*
X112377542Y-164167643D01*
X112391074Y-163942641D01*
X112415723Y-163811587D01*
X112454780Y-163749354D01*
X112511538Y-163730816D01*
X112537021Y-163730000D01*
X112665573Y-163759825D01*
X112758828Y-163863127D01*
X112821728Y-164060643D01*
X112859215Y-164373111D01*
X112876229Y-164821270D01*
X112878667Y-165163767D01*
X112878667Y-166270000D01*
X114148667Y-166270000D01*
X114145974Y-165063500D01*
X114141873Y-164550830D01*
X114126649Y-164178387D01*
X114095168Y-163941296D01*
X114675702Y-163941296D01*
X114681024Y-164439627D01*
X114713532Y-164888622D01*
X114726538Y-164990475D01*
X114787520Y-165344631D01*
X114863621Y-165586498D01*
X114977428Y-165772959D01*
X115085647Y-165894826D01*
X115326974Y-166091437D01*
X115594339Y-166236901D01*
X115662472Y-166260430D01*
X116024080Y-166316600D01*
X116441689Y-166313333D01*
X116845976Y-166256522D01*
X117167615Y-166152058D01*
X117211111Y-166128807D01*
X117503855Y-165868159D01*
X117725301Y-165492128D01*
X117852479Y-165047621D01*
X117874000Y-164775016D01*
X117874000Y-164322667D01*
X116624352Y-164322667D01*
X116587516Y-164831927D01*
X116538204Y-165205990D01*
X116452145Y-165424411D01*
X116323310Y-165498075D01*
X116228691Y-165479566D01*
X116159602Y-165417395D01*
X116118469Y-165274475D01*
X116099392Y-165018307D01*
X116096000Y-164748657D01*
X116096000Y-164068667D01*
X117874000Y-164068667D01*
X117873528Y-163539500D01*
X117823788Y-162910520D01*
X117673348Y-162414216D01*
X117559019Y-162248333D01*
X118043334Y-162248333D01*
X118054413Y-162486428D01*
X118100419Y-162599016D01*
X118200502Y-162629188D01*
X118212667Y-162629333D01*
X118268403Y-162635640D01*
X118310345Y-162668596D01*
X118340452Y-162749250D01*
X118360682Y-162898654D01*
X118372992Y-163137857D01*
X118379342Y-163487911D01*
X118381689Y-163969865D01*
X118382000Y-164449667D01*
X118382000Y-166270000D01*
X119736667Y-166270000D01*
X119736667Y-164449667D01*
X119737165Y-163941296D01*
X120263702Y-163941296D01*
X120269024Y-164439627D01*
X120301532Y-164888622D01*
X120314538Y-164990475D01*
X120375520Y-165344631D01*
X120451621Y-165586498D01*
X120565428Y-165772959D01*
X120673647Y-165894826D01*
X120914974Y-166091437D01*
X121182339Y-166236901D01*
X121250472Y-166260430D01*
X121612080Y-166316600D01*
X122029689Y-166313333D01*
X122338062Y-166270000D01*
X123970000Y-166270000D01*
X125313015Y-166270000D01*
X125340007Y-164907665D01*
X125351168Y-164397804D01*
X125363989Y-164029871D01*
X125370477Y-163941296D01*
X126444369Y-163941296D01*
X126449691Y-164439627D01*
X126482199Y-164888622D01*
X126495205Y-164990475D01*
X126556187Y-165344631D01*
X126632288Y-165586498D01*
X126746095Y-165772959D01*
X126854313Y-165894826D01*
X127095641Y-166091437D01*
X127363005Y-166236901D01*
X127431139Y-166260430D01*
X127792746Y-166316600D01*
X128210356Y-166313333D01*
X128518728Y-166270000D01*
X130066000Y-166270000D01*
X131420667Y-166270000D01*
X131421963Y-164470833D01*
X131425748Y-163930414D01*
X131435588Y-163443682D01*
X131450420Y-163037424D01*
X131469180Y-162738427D01*
X131490805Y-162573481D01*
X131498085Y-162553496D01*
X131629222Y-162477403D01*
X131708455Y-162487339D01*
X131753171Y-162522031D01*
X131786991Y-162601066D01*
X131811383Y-162745186D01*
X131827814Y-162975135D01*
X131837749Y-163311658D01*
X131842656Y-163775498D01*
X131844000Y-164387399D01*
X131844000Y-166270000D01*
X133300944Y-166270000D01*
X133270972Y-164244167D01*
X133264048Y-163814667D01*
X133753701Y-163814667D01*
X133756368Y-164280297D01*
X133766934Y-164709223D01*
X133783841Y-165061315D01*
X133805533Y-165296441D01*
X133812847Y-165338667D01*
X133979742Y-165750163D01*
X134272830Y-166057832D01*
X134678456Y-166253323D01*
X135182964Y-166328286D01*
X135420690Y-166321847D01*
X135747185Y-166273142D01*
X136049749Y-166187661D01*
X136182690Y-166127968D01*
X136459792Y-165882790D01*
X136677998Y-165524148D01*
X136810994Y-165104747D01*
X136839334Y-164812727D01*
X136839334Y-164407333D01*
X135654000Y-164407333D01*
X135654000Y-164814484D01*
X135620125Y-165153024D01*
X135527339Y-165386930D01*
X135388895Y-165492203D01*
X135285244Y-165482080D01*
X135233901Y-165444187D01*
X135196766Y-165360052D01*
X135171626Y-165205864D01*
X135156268Y-164957808D01*
X135148477Y-164592072D01*
X135146041Y-164084841D01*
X135146000Y-163984000D01*
X135146149Y-163941296D01*
X137197036Y-163941296D01*
X137202358Y-164439627D01*
X137234865Y-164888622D01*
X137247872Y-164990475D01*
X137308853Y-165344631D01*
X137384954Y-165586498D01*
X137498762Y-165772959D01*
X137606980Y-165894826D01*
X137848307Y-166091437D01*
X138115672Y-166236901D01*
X138183805Y-166260430D01*
X138545413Y-166316600D01*
X138963022Y-166313333D01*
X139367309Y-166256522D01*
X139688948Y-166152058D01*
X139732444Y-166128807D01*
X140025189Y-165868159D01*
X140246634Y-165492128D01*
X140373813Y-165047621D01*
X140395334Y-164775016D01*
X140395334Y-164322667D01*
X139145686Y-164322667D01*
X139108849Y-164831927D01*
X139059537Y-165205990D01*
X138973478Y-165424411D01*
X138844643Y-165498075D01*
X138750025Y-165479566D01*
X138680936Y-165417395D01*
X138639803Y-165274475D01*
X138620725Y-165018307D01*
X138617334Y-164748657D01*
X138617334Y-164068667D01*
X140395334Y-164068667D01*
X140394861Y-163539500D01*
X140345121Y-162910520D01*
X140194681Y-162414216D01*
X139939847Y-162044469D01*
X139576922Y-161795159D01*
X139280693Y-161694648D01*
X138768788Y-161632850D01*
X138287235Y-161687747D01*
X137868863Y-161848316D01*
X137546503Y-162103534D01*
X137398343Y-162326674D01*
X137319553Y-162586318D01*
X137258096Y-162971038D01*
X137216436Y-163437232D01*
X137197036Y-163941296D01*
X135146149Y-163941296D01*
X135147868Y-163449117D01*
X135154893Y-163059962D01*
X135169212Y-162792957D01*
X135192961Y-162624524D01*
X135228273Y-162531086D01*
X135277285Y-162489064D01*
X135281545Y-162487339D01*
X135433482Y-162498181D01*
X135529484Y-162665631D01*
X135567482Y-162985759D01*
X135568037Y-163031500D01*
X135569334Y-163391333D01*
X136862648Y-163391333D01*
X136806989Y-162904500D01*
X136693066Y-162416853D01*
X136472680Y-162054961D01*
X136138404Y-161812804D01*
X135682807Y-161684365D01*
X135269596Y-161658950D01*
X134895964Y-161675470D01*
X134625934Y-161729415D01*
X134395406Y-161834744D01*
X134357376Y-161857624D01*
X134143370Y-162007324D01*
X133986530Y-162171875D01*
X133878106Y-162379643D01*
X133809347Y-162658998D01*
X133771503Y-163038308D01*
X133755824Y-163545942D01*
X133753701Y-163814667D01*
X133264048Y-163814667D01*
X133260629Y-163602568D01*
X133249627Y-163107899D01*
X133235940Y-162737763D01*
X133217542Y-162469761D01*
X133192405Y-162281496D01*
X133158503Y-162150570D01*
X133113808Y-162054585D01*
X133066515Y-161984672D01*
X132793189Y-161747268D01*
X132453224Y-161638191D01*
X132092195Y-161658953D01*
X131755677Y-161811066D01*
X131611281Y-161936395D01*
X131396956Y-162163667D01*
X131439404Y-161930833D01*
X131481852Y-161698000D01*
X130066000Y-161698000D01*
X130066000Y-166270000D01*
X128518728Y-166270000D01*
X128614642Y-166256522D01*
X128936282Y-166152058D01*
X128979778Y-166128807D01*
X129272522Y-165868159D01*
X129493967Y-165492128D01*
X129621146Y-165047621D01*
X129642667Y-164775016D01*
X129642667Y-164322667D01*
X128393019Y-164322667D01*
X128356183Y-164831927D01*
X128306870Y-165205990D01*
X128220812Y-165424411D01*
X128091977Y-165498075D01*
X127997358Y-165479566D01*
X127928269Y-165417395D01*
X127887136Y-165274475D01*
X127868058Y-165018307D01*
X127864667Y-164748657D01*
X127864667Y-164068667D01*
X129642667Y-164068667D01*
X129642195Y-163539500D01*
X129592454Y-162910520D01*
X129442015Y-162414216D01*
X129187180Y-162044469D01*
X128824255Y-161795159D01*
X128528027Y-161694648D01*
X128016121Y-161632850D01*
X127534568Y-161687747D01*
X127116196Y-161848316D01*
X126793836Y-162103534D01*
X126645677Y-162326674D01*
X126566887Y-162586318D01*
X126505430Y-162971038D01*
X126463770Y-163437232D01*
X126444369Y-163941296D01*
X125370477Y-163941296D01*
X125382549Y-163776478D01*
X125410924Y-163610236D01*
X125453192Y-163503758D01*
X125513429Y-163429655D01*
X125566880Y-163383665D01*
X125780251Y-163264465D01*
X125969047Y-163222000D01*
X126062506Y-163215391D01*
X126121569Y-163174499D01*
X126154126Y-163067732D01*
X126168067Y-162863492D01*
X126171281Y-162530186D01*
X126171334Y-162411961D01*
X126169838Y-162038288D01*
X126160405Y-161804520D01*
X126135613Y-161681229D01*
X126088040Y-161638985D01*
X126010264Y-161648362D01*
X125980834Y-161656583D01*
X125798802Y-161753547D01*
X125593979Y-161922623D01*
X125557500Y-161959958D01*
X125324667Y-162208671D01*
X125324667Y-161698000D01*
X123970000Y-161698000D01*
X123970000Y-166270000D01*
X122338062Y-166270000D01*
X122433976Y-166256522D01*
X122755615Y-166152058D01*
X122799111Y-166128807D01*
X123091855Y-165868159D01*
X123313301Y-165492128D01*
X123440479Y-165047621D01*
X123462000Y-164775016D01*
X123462000Y-164322667D01*
X122212352Y-164322667D01*
X122175516Y-164831927D01*
X122126204Y-165205990D01*
X122040145Y-165424411D01*
X121911310Y-165498075D01*
X121816691Y-165479566D01*
X121747602Y-165417395D01*
X121706469Y-165274475D01*
X121687392Y-165018307D01*
X121684000Y-164748657D01*
X121684000Y-164068667D01*
X123462000Y-164068667D01*
X123461528Y-163539500D01*
X123411788Y-162910520D01*
X123261348Y-162414216D01*
X123006513Y-162044469D01*
X122643588Y-161795159D01*
X122347360Y-161694648D01*
X121835455Y-161632850D01*
X121353901Y-161687747D01*
X120935530Y-161848316D01*
X120613170Y-162103534D01*
X120465010Y-162326674D01*
X120386220Y-162586318D01*
X120324763Y-162971038D01*
X120283103Y-163437232D01*
X120263702Y-163941296D01*
X119737165Y-163941296D01*
X119737254Y-163850504D01*
X119740319Y-163399623D01*
X119747822Y-163075973D01*
X119761720Y-162858505D01*
X119783971Y-162726167D01*
X119816535Y-162657910D01*
X119861367Y-162632682D01*
X119906000Y-162629333D01*
X120011820Y-162604404D01*
X120061859Y-162500891D01*
X120075269Y-162275704D01*
X120075334Y-162248333D01*
X120069129Y-162014233D01*
X120026164Y-161903380D01*
X119909913Y-161869687D01*
X119773376Y-161867333D01*
X119573731Y-161855191D01*
X119497071Y-161792833D01*
X119497428Y-161641363D01*
X119498210Y-161634500D01*
X119547239Y-161466958D01*
X119678737Y-161392891D01*
X119800167Y-161375135D01*
X119977892Y-161344273D01*
X120055956Y-161262732D01*
X120075019Y-161077343D01*
X120075334Y-161015302D01*
X120075334Y-160682000D01*
X142076719Y-160682000D01*
X142103860Y-163046642D01*
X142112477Y-163744112D01*
X142121507Y-164292653D01*
X142132535Y-164712667D01*
X142147144Y-165024552D01*
X142166917Y-165248711D01*
X142193439Y-165405543D01*
X142228293Y-165515449D01*
X142273062Y-165598830D01*
X142305565Y-165644910D01*
X142673035Y-166017225D01*
X143103387Y-166246501D01*
X143199731Y-166274788D01*
X143546533Y-166320789D01*
X143954035Y-166314513D01*
X144288530Y-166270000D01*
X145983334Y-166270000D01*
X147338000Y-166270000D01*
X147339297Y-164470833D01*
X147343081Y-163930414D01*
X147352921Y-163443682D01*
X147367753Y-163037424D01*
X147386513Y-162738427D01*
X147408138Y-162573481D01*
X147415418Y-162553496D01*
X147546556Y-162477403D01*
X147625789Y-162487339D01*
X147670504Y-162522031D01*
X147704324Y-162601066D01*
X147728717Y-162745186D01*
X147745147Y-162975135D01*
X147755082Y-163311658D01*
X147759989Y-163775498D01*
X147761333Y-164387399D01*
X147761334Y-164404676D01*
X147761334Y-166270000D01*
X149218278Y-166270000D01*
X149708667Y-166270000D01*
X151148000Y-166270000D01*
X151148000Y-162248333D01*
X151317334Y-162248333D01*
X151328413Y-162486428D01*
X151374419Y-162599016D01*
X151474502Y-162629188D01*
X151486667Y-162629333D01*
X151546347Y-162636441D01*
X151590066Y-162672938D01*
X151620302Y-162761587D01*
X151639533Y-162925149D01*
X151650240Y-163186386D01*
X151654899Y-163568059D01*
X151655991Y-164092931D01*
X151656000Y-164184248D01*
X151657309Y-164738908D01*
X151662920Y-165150433D01*
X151675360Y-165445015D01*
X151697157Y-165648844D01*
X151730837Y-165788111D01*
X151778929Y-165889006D01*
X151827021Y-165956581D01*
X151951659Y-166089147D01*
X152100834Y-166174815D01*
X152314375Y-166224742D01*
X152632115Y-166250082D01*
X152904834Y-166258470D01*
X153434000Y-166270000D01*
X153434000Y-165894888D01*
X153422191Y-165657267D01*
X153371559Y-165540067D01*
X153259295Y-165495137D01*
X153243500Y-165492722D01*
X153173619Y-165477602D01*
X153122848Y-165438918D01*
X153087589Y-165352328D01*
X153064240Y-165193491D01*
X153049203Y-164938063D01*
X153038878Y-164561702D01*
X153029786Y-164047500D01*
X153006573Y-162629333D01*
X153220286Y-162629333D01*
X153352126Y-162613839D01*
X153414590Y-162537077D01*
X153433156Y-162353627D01*
X153434000Y-162248333D01*
X153425227Y-162013226D01*
X153382104Y-161901835D01*
X153279425Y-161868788D01*
X153222334Y-161867333D01*
X153091718Y-161851542D01*
X153029834Y-161773920D01*
X153011475Y-161589097D01*
X153010667Y-161486333D01*
X153010667Y-161105333D01*
X151656000Y-161105333D01*
X151656000Y-161486333D01*
X151644921Y-161724428D01*
X151598915Y-161837016D01*
X151498831Y-161867188D01*
X151486667Y-161867333D01*
X151380847Y-161892262D01*
X151330808Y-161995775D01*
X151317398Y-162220963D01*
X151317334Y-162248333D01*
X151148000Y-162248333D01*
X151148000Y-161698000D01*
X149708667Y-161698000D01*
X149708667Y-166270000D01*
X149218278Y-166270000D01*
X149188306Y-164244167D01*
X149177962Y-163602568D01*
X149166960Y-163107899D01*
X149153274Y-162737763D01*
X149134875Y-162469761D01*
X149109738Y-162281496D01*
X149075836Y-162150570D01*
X149031142Y-162054585D01*
X148983849Y-161984672D01*
X148710522Y-161747268D01*
X148370557Y-161638191D01*
X148009528Y-161658953D01*
X147673010Y-161811066D01*
X147528614Y-161936395D01*
X147314290Y-162163667D01*
X147356737Y-161930833D01*
X147399185Y-161698000D01*
X145983334Y-161698000D01*
X145983334Y-166270000D01*
X144288530Y-166270000D01*
X144349894Y-166261834D01*
X144661769Y-166168627D01*
X144692930Y-166153551D01*
X144920596Y-165989994D01*
X145131146Y-165769117D01*
X145151159Y-165742111D01*
X145208798Y-165656734D01*
X145254193Y-165567280D01*
X145289057Y-165453173D01*
X145315102Y-165293841D01*
X145334039Y-165068709D01*
X145347581Y-164757204D01*
X145357440Y-164338751D01*
X145365329Y-163792778D01*
X145372959Y-163098709D01*
X145373218Y-163073833D01*
X145390174Y-161444000D01*
X149708667Y-161444000D01*
X151148000Y-161444000D01*
X151148000Y-160682000D01*
X149708667Y-160682000D01*
X149708667Y-161444000D01*
X145390174Y-161444000D01*
X145398102Y-160682000D01*
X143954012Y-160682000D01*
X143931506Y-163031500D01*
X143924487Y-163722727D01*
X143917224Y-164263162D01*
X143908206Y-164671338D01*
X143895918Y-164965792D01*
X143878847Y-165165059D01*
X143855479Y-165287675D01*
X143824302Y-165352175D01*
X143783801Y-165377093D01*
X143739667Y-165381000D01*
X143689796Y-165375474D01*
X143650568Y-165346538D01*
X143620471Y-165275658D01*
X143597991Y-165144297D01*
X143581614Y-164933922D01*
X143569827Y-164625995D01*
X143561117Y-164201981D01*
X143553970Y-163643347D01*
X143547828Y-163031500D01*
X143525322Y-160682000D01*
X142076719Y-160682000D01*
X120075334Y-160682000D01*
X119630834Y-160682472D01*
X119179039Y-160712440D01*
X118809680Y-160795124D01*
X118554892Y-160921233D01*
X118467663Y-161018805D01*
X118411961Y-161206126D01*
X118383112Y-161465741D01*
X118382000Y-161523100D01*
X118368284Y-161746885D01*
X118312629Y-161846779D01*
X118212667Y-161867333D01*
X118106847Y-161892262D01*
X118056808Y-161995775D01*
X118043398Y-162220963D01*
X118043334Y-162248333D01*
X117559019Y-162248333D01*
X117418513Y-162044469D01*
X117055588Y-161795159D01*
X116759360Y-161694648D01*
X116247455Y-161632850D01*
X115765901Y-161687747D01*
X115347530Y-161848316D01*
X115025170Y-162103534D01*
X114877010Y-162326674D01*
X114798220Y-162586318D01*
X114736763Y-162971038D01*
X114695103Y-163437232D01*
X114675702Y-163941296D01*
X114095168Y-163941296D01*
X114091954Y-163917090D01*
X114029442Y-163737856D01*
X113930763Y-163611601D01*
X113787571Y-163509243D01*
X113683000Y-163450534D01*
X113535239Y-163356465D01*
X113541384Y-163314033D01*
X113581015Y-163310056D01*
X113742207Y-163250802D01*
X113927986Y-163111440D01*
X113940849Y-163098848D01*
X114049133Y-162971245D01*
X114111866Y-162825882D01*
X114141036Y-162613758D01*
X114148632Y-162285873D01*
X114148667Y-162249462D01*
X114132392Y-161778195D01*
X114070693Y-161415532D01*
X113944257Y-161146586D01*
X113733773Y-160956473D01*
X113419927Y-160830306D01*
X112983407Y-160753199D01*
X112404902Y-160710266D01*
X112137983Y-160699616D01*
X110931334Y-160658652D01*
X110931334Y-166270000D01*
X104951455Y-166270000D01*
X104911442Y-166082234D01*
X104881678Y-165863664D01*
X104860715Y-165590155D01*
X104847080Y-165237450D01*
X104839299Y-164781295D01*
X104835898Y-164197432D01*
X104835334Y-163687667D01*
X104836505Y-162997510D01*
X104841001Y-162452421D01*
X104850297Y-162028144D01*
X104865865Y-161700421D01*
X104889180Y-161444998D01*
X104921715Y-161237619D01*
X104964945Y-161054027D01*
X105003270Y-160923752D01*
X105121227Y-160658652D01*
X105288221Y-160283345D01*
X105710044Y-159707640D01*
X106240176Y-159225198D01*
X106850056Y-158864580D01*
X107193752Y-158733269D01*
X107286271Y-158705774D01*
X107383991Y-158681453D01*
X107497330Y-158660112D01*
X107636709Y-158641557D01*
X107812548Y-158625593D01*
X108035267Y-158612026D01*
X108315287Y-158600661D01*
X108663027Y-158591304D01*
X109088907Y-158583760D01*
X109603347Y-158577835D01*
X110216768Y-158573333D01*
X110939590Y-158570061D01*
X111782232Y-158567824D01*
X112755116Y-158566428D01*
X113868660Y-158565677D01*
X115133285Y-158565378D01*
X116189585Y-158565333D01*
X124647334Y-158565333D01*
X124665563Y-155623167D01*
X124669718Y-154918181D01*
X124673227Y-154254102D01*
X124676003Y-153653218D01*
X124677958Y-153137822D01*
X124679006Y-152730205D01*
X124679060Y-152452659D01*
X124678381Y-152342333D01*
X124663084Y-150934362D01*
X124664175Y-149574417D01*
X124681742Y-148154334D01*
X124681794Y-148151333D01*
X124692561Y-147533659D01*
X124700798Y-147051232D01*
X124706778Y-146669992D01*
X124710775Y-146355875D01*
X124713061Y-146074819D01*
X124713909Y-145792763D01*
X124713593Y-145475644D01*
X124712385Y-145089400D01*
X124710558Y-144599969D01*
X124710463Y-144574167D01*
X124708878Y-144088461D01*
X124707813Y-143644865D01*
X124707323Y-143278851D01*
X124707466Y-143025889D01*
X124707867Y-142944333D01*
X124708423Y-142779268D01*
X124708444Y-142477441D01*
X124707964Y-142071423D01*
X124707022Y-141593785D01*
X124705834Y-141138476D01*
X124706816Y-140561007D01*
X124714501Y-140132657D01*
X124730253Y-139833295D01*
X124755437Y-139642790D01*
X124791416Y-139541014D01*
X124815800Y-139515869D01*
X124879197Y-139439572D01*
X124840598Y-139314587D01*
X124780295Y-139216216D01*
X124700474Y-139053140D01*
X124660216Y-138842657D01*
X124653116Y-138537071D01*
X124660446Y-138323767D01*
X124686914Y-137995843D01*
X124729654Y-137729482D01*
X124780312Y-137573711D01*
X124790551Y-137560249D01*
X124911200Y-137518880D01*
X125161837Y-137481209D01*
X125503124Y-137449261D01*
X125895724Y-137425062D01*
X126300300Y-137410637D01*
X126677514Y-137408011D01*
X126988029Y-137419210D01*
G37*
G36*
X127109678Y-55970500D02*
G01*
X127111463Y-57112528D01*
X127114237Y-58390223D01*
X127117882Y-59769921D01*
X127122284Y-61217959D01*
X127127326Y-62700672D01*
X127132892Y-64184398D01*
X127138868Y-65635474D01*
X127145136Y-67020235D01*
X127151581Y-68305018D01*
X127153092Y-68585833D01*
X127189496Y-75253333D01*
X124901334Y-75253333D01*
X124901334Y-50022667D01*
X127102667Y-50022667D01*
X127109678Y-55970500D01*
G37*
G36*
X142707762Y-117089746D02*
G01*
X142820350Y-117135752D01*
X142850521Y-117235835D01*
X142850667Y-117248000D01*
X142825738Y-117353820D01*
X142722225Y-117403859D01*
X142497037Y-117417269D01*
X142469667Y-117417333D01*
X142231572Y-117406254D01*
X142118984Y-117360248D01*
X142088812Y-117260164D01*
X142088667Y-117248000D01*
X142113596Y-117142180D01*
X142217109Y-117092141D01*
X142442296Y-117078731D01*
X142469667Y-117078667D01*
X142707762Y-117089746D01*
G37*
G36*
X141496000Y-130498333D02*
G01*
X141453667Y-130540667D01*
X141411334Y-130498333D01*
X141453667Y-130456000D01*
X141496000Y-130498333D01*
G37*
G36*
X131504681Y-79184280D02*
G01*
X131552166Y-79601736D01*
X131600164Y-79984040D01*
X131642457Y-80283719D01*
X131668226Y-80433113D01*
X131702148Y-80572308D01*
X131727762Y-80591262D01*
X131753558Y-80473865D01*
X131787754Y-80206333D01*
X131828094Y-79872158D01*
X131879852Y-79451795D01*
X131932945Y-79027017D01*
X131941727Y-78957500D01*
X132035487Y-78216667D01*
X133173010Y-78216667D01*
X133284065Y-79367245D01*
X133327963Y-79774005D01*
X133372268Y-80101101D01*
X133412634Y-80321841D01*
X133444717Y-80409534D01*
X133452908Y-80404411D01*
X133485582Y-80277250D01*
X133528886Y-80021764D01*
X133576577Y-79678123D01*
X133612446Y-79377947D01*
X133658411Y-78992343D01*
X133703268Y-78662459D01*
X133741151Y-78429027D01*
X133761823Y-78340781D01*
X133838968Y-78269965D01*
X134021978Y-78230556D01*
X134340001Y-78216857D01*
X134396895Y-78216667D01*
X134984340Y-78216667D01*
X134937703Y-78491833D01*
X134913450Y-78658408D01*
X134872955Y-78962834D01*
X134820093Y-79374828D01*
X134758741Y-79864107D01*
X134692774Y-80400388D01*
X134680334Y-80502667D01*
X134613894Y-81044607D01*
X134551300Y-81545418D01*
X134496439Y-81974748D01*
X134453200Y-82302244D01*
X134425470Y-82497557D01*
X134422358Y-82516731D01*
X134375115Y-82795130D01*
X133638724Y-82770731D01*
X132902334Y-82746333D01*
X132765294Y-81772667D01*
X132710478Y-81395992D01*
X132663153Y-81094561D01*
X132628449Y-80899460D01*
X132611645Y-80841333D01*
X132592692Y-80937192D01*
X132553991Y-81164776D01*
X132501462Y-81488433D01*
X132449966Y-81815000D01*
X132304895Y-82746333D01*
X131568879Y-82770761D01*
X131214600Y-82780109D01*
X130994477Y-82774329D01*
X130873500Y-82745795D01*
X130816659Y-82686881D01*
X130791368Y-82601427D01*
X130766580Y-82453449D01*
X130725257Y-82171320D01*
X130671204Y-81784084D01*
X130608226Y-81320786D01*
X130540127Y-80810470D01*
X130470713Y-80282180D01*
X130403789Y-79764961D01*
X130343160Y-79287856D01*
X130292630Y-78879911D01*
X130256005Y-78570170D01*
X130237089Y-78387676D01*
X130235334Y-78357042D01*
X130261970Y-78281544D01*
X130364675Y-78238537D01*
X130577645Y-78219781D01*
X130817893Y-78216667D01*
X131400452Y-78216667D01*
X131504681Y-79184280D01*
G37*
G36*
X115853846Y-140576012D02*
G01*
X115972290Y-140653625D01*
X116186638Y-140834138D01*
X116475718Y-141098108D01*
X116818356Y-141426095D01*
X117193381Y-141798659D01*
X117269458Y-141875842D01*
X118485250Y-143113667D01*
X121375792Y-143089032D01*
X122147259Y-143084816D01*
X122828936Y-143085815D01*
X123406016Y-143091756D01*
X123863695Y-143102366D01*
X124187167Y-143117373D01*
X124361627Y-143136502D01*
X124385437Y-143144564D01*
X124438159Y-143197334D01*
X124475038Y-143289715D01*
X124497855Y-143446460D01*
X124508390Y-143692322D01*
X124508422Y-144052054D01*
X124499732Y-144550410D01*
X124496609Y-144690655D01*
X124478000Y-145505644D01*
X122991325Y-145520734D01*
X122501863Y-145526596D01*
X122068495Y-145533474D01*
X121720771Y-145540763D01*
X121488241Y-145547859D01*
X121403825Y-145553182D01*
X121293135Y-145557185D01*
X121038667Y-145558818D01*
X120665959Y-145558159D01*
X120200549Y-145555285D01*
X119667975Y-145550274D01*
X119388757Y-145547044D01*
X117474513Y-145523548D01*
X116975757Y-144994205D01*
X116310313Y-144282754D01*
X115759440Y-143681896D01*
X115316641Y-143183834D01*
X114975423Y-142780768D01*
X114729291Y-142464899D01*
X114571749Y-142228428D01*
X114496302Y-142063556D01*
X114487334Y-142006124D01*
X114514714Y-141893227D01*
X114605942Y-141733619D01*
X114774648Y-141509285D01*
X115034463Y-141202215D01*
X115399017Y-140794395D01*
X115430513Y-140759738D01*
X115609619Y-140597628D01*
X115764773Y-140557602D01*
X115853846Y-140576012D01*
G37*
G36*
X108835279Y-101554901D02*
G01*
X109033988Y-101700029D01*
X109273574Y-101906023D01*
X109315012Y-101944500D01*
X109592810Y-102197835D01*
X109867830Y-102436314D01*
X110080956Y-102608686D01*
X110082538Y-102609876D01*
X110262635Y-102756828D01*
X110326777Y-102866898D01*
X110299147Y-102998267D01*
X110270889Y-103063078D01*
X110155695Y-103245358D01*
X109930957Y-103534338D01*
X109607404Y-103917520D01*
X109195765Y-104382407D01*
X108706769Y-104916501D01*
X108380559Y-105265130D01*
X108116776Y-105558568D01*
X107884477Y-105841446D01*
X107719398Y-106069233D01*
X107675903Y-106143198D01*
X107587927Y-106337704D01*
X107583563Y-106456172D01*
X107662198Y-106569467D01*
X107672116Y-106580497D01*
X107707357Y-106632983D01*
X107736023Y-106715520D01*
X107758686Y-106844078D01*
X107775917Y-107034622D01*
X107788289Y-107303121D01*
X107796372Y-107665543D01*
X107800738Y-108137856D01*
X107801958Y-108736028D01*
X107800603Y-109476026D01*
X107798347Y-110107631D01*
X107792978Y-111307648D01*
X107786968Y-112349219D01*
X107780025Y-113243234D01*
X107771858Y-114000581D01*
X107762176Y-114632147D01*
X107750687Y-115148821D01*
X107737100Y-115561490D01*
X107721122Y-115881045D01*
X107702463Y-116118371D01*
X107680830Y-116284358D01*
X107655933Y-116389893D01*
X107628678Y-116444456D01*
X107541247Y-116502519D01*
X107375203Y-116540666D01*
X107102846Y-116562178D01*
X106696478Y-116570330D01*
X106562246Y-116570667D01*
X106147272Y-116569321D01*
X105871050Y-116561186D01*
X105703004Y-116540112D01*
X105612552Y-116499950D01*
X105569118Y-116434551D01*
X105549444Y-116367004D01*
X105533579Y-116206761D01*
X105527400Y-115917384D01*
X105531012Y-115538798D01*
X105544521Y-115110933D01*
X105546030Y-115075838D01*
X105563324Y-114649759D01*
X105576005Y-114273804D01*
X105582953Y-113986441D01*
X105583046Y-113826141D01*
X105582663Y-113819000D01*
X105580234Y-113703887D01*
X105577349Y-113435807D01*
X105574107Y-113031124D01*
X105570607Y-112506204D01*
X105566948Y-111877412D01*
X105563228Y-111161113D01*
X105559546Y-110373672D01*
X105556001Y-109531454D01*
X105554569Y-109163372D01*
X105537544Y-104677077D01*
X107064877Y-103088538D01*
X107480741Y-102660816D01*
X107863091Y-102276683D01*
X108195048Y-101952368D01*
X108459737Y-101704096D01*
X108640283Y-101548096D01*
X108716950Y-101500000D01*
X108835279Y-101554901D01*
G37*
G36*
X121996632Y-162516242D02*
G01*
X122081399Y-162697332D01*
X122107334Y-163017258D01*
X122090611Y-163214649D01*
X122015994Y-163294185D01*
X121895667Y-163306667D01*
X121770045Y-163292941D01*
X121707375Y-163222896D01*
X121686005Y-163053227D01*
X121684000Y-162883333D01*
X121693559Y-162628164D01*
X121732520Y-162501006D01*
X121816309Y-162461115D01*
X121844275Y-162460000D01*
X121996632Y-162516242D01*
G37*
G36*
X132720224Y-91947719D02*
G01*
X132892114Y-92034208D01*
X132941688Y-92096434D01*
X132985073Y-92259986D01*
X133016115Y-92534793D01*
X133028395Y-92862883D01*
X133028402Y-92879600D01*
X133012842Y-93436019D01*
X132964505Y-93838019D01*
X132878026Y-94098281D01*
X132748041Y-94229487D01*
X132569186Y-94244317D01*
X132464039Y-94213686D01*
X132386492Y-94176190D01*
X132335569Y-94113340D01*
X132306930Y-93994958D01*
X132296235Y-93790864D01*
X132299144Y-93470879D01*
X132307886Y-93127860D01*
X132323243Y-92724900D01*
X132344171Y-92381771D01*
X132367901Y-92135138D01*
X132391344Y-92022170D01*
X132526997Y-91940157D01*
X132720224Y-91947719D01*
G37*
G36*
X124393334Y-99383333D02*
G01*
X124816667Y-99383333D01*
X124816667Y-97266667D01*
X126256000Y-97266667D01*
X126256000Y-102854667D01*
X124816667Y-102854667D01*
X124816667Y-100484000D01*
X124393334Y-100484000D01*
X124393334Y-102854667D01*
X122869334Y-102854667D01*
X122869334Y-97266667D01*
X124393334Y-97266667D01*
X124393334Y-99383333D01*
G37*
G36*
X138929966Y-162516242D02*
G01*
X139014733Y-162697332D01*
X139040667Y-163017258D01*
X139023944Y-163214649D01*
X138949328Y-163294185D01*
X138829000Y-163306667D01*
X138703378Y-163292941D01*
X138640708Y-163222896D01*
X138619339Y-163053227D01*
X138617334Y-162883333D01*
X138626892Y-162628164D01*
X138665853Y-162501006D01*
X138749642Y-162461115D01*
X138777608Y-162460000D01*
X138929966Y-162516242D01*
G37*
G36*
X142850667Y-119872667D02*
G01*
X142088667Y-119872667D01*
X142088667Y-117586667D01*
X142850667Y-117586667D01*
X142850667Y-119872667D01*
G37*
G36*
X130319013Y-108442667D02*
G01*
X130801176Y-108447449D01*
X131138235Y-108463409D01*
X131354194Y-108492964D01*
X131473055Y-108538530D01*
X131498523Y-108561461D01*
X131550904Y-108720918D01*
X131575210Y-109026855D01*
X131572390Y-109386961D01*
X131547667Y-110093667D01*
X131314834Y-110069295D01*
X131146700Y-110077012D01*
X131082000Y-110126594D01*
X131160337Y-110227227D01*
X131379381Y-110355628D01*
X131715181Y-110500050D01*
X132143786Y-110648743D01*
X132151319Y-110651109D01*
X133001734Y-110986841D01*
X133843341Y-111447772D01*
X134641406Y-112007751D01*
X135361191Y-112640627D01*
X135967962Y-113320250D01*
X136272041Y-113753418D01*
X136261846Y-113784506D01*
X136178064Y-113808956D01*
X136006003Y-113827325D01*
X135730974Y-113840169D01*
X135338289Y-113848043D01*
X134813256Y-113851504D01*
X134141187Y-113851109D01*
X133732041Y-113849578D01*
X133032459Y-113843977D01*
X132342165Y-113833949D01*
X131691936Y-113820275D01*
X131112548Y-113803733D01*
X130634778Y-113785104D01*
X130289403Y-113765167D01*
X130238881Y-113761087D01*
X129845528Y-113719095D01*
X129495662Y-113667476D01*
X129236492Y-113613938D01*
X129138215Y-113581374D01*
X129045102Y-113529662D01*
X128982666Y-113459132D01*
X128943654Y-113337548D01*
X128920814Y-113132673D01*
X128906897Y-112812270D01*
X128898976Y-112517817D01*
X128895345Y-112023200D01*
X128916746Y-111678146D01*
X128968427Y-111464044D01*
X129055641Y-111362285D01*
X129183638Y-111354256D01*
X129224162Y-111365199D01*
X129371591Y-111365768D01*
X129438361Y-111291025D01*
X129383950Y-111192211D01*
X129368932Y-111182136D01*
X129207330Y-111139862D01*
X129038676Y-111139307D01*
X128815583Y-111162708D01*
X128832466Y-109960080D01*
X128841492Y-109420019D01*
X128866187Y-109026112D01*
X128929120Y-108755323D01*
X129052860Y-108584614D01*
X129259975Y-108490948D01*
X129573034Y-108451287D01*
X130014606Y-108442594D01*
X130319013Y-108442667D01*
G37*
G36*
X114209307Y-95711891D02*
G01*
X114376017Y-95845250D01*
X114416811Y-95883217D01*
X114651887Y-96108434D01*
X114348478Y-96444271D01*
X113954110Y-96997038D01*
X113667747Y-97644650D01*
X113510451Y-98336646D01*
X113495376Y-98488272D01*
X113447249Y-99124610D01*
X112177863Y-100502805D01*
X111685037Y-101036732D01*
X111292982Y-101458149D01*
X110988688Y-101779955D01*
X110759147Y-102015048D01*
X110591350Y-102176330D01*
X110472285Y-102276698D01*
X110388946Y-102329054D01*
X110328321Y-102346296D01*
X110318305Y-102346667D01*
X110217650Y-102288511D01*
X110033538Y-102132073D01*
X109796387Y-101904399D01*
X109640201Y-101743704D01*
X109396339Y-101478146D01*
X109204327Y-101253282D01*
X109089693Y-101099890D01*
X109068667Y-101054594D01*
X109125226Y-100950232D01*
X109285071Y-100741070D01*
X109533454Y-100442926D01*
X109855625Y-100071618D01*
X110236837Y-99642964D01*
X110662340Y-99172782D01*
X111117386Y-98676890D01*
X111587226Y-98171106D01*
X112057113Y-97671248D01*
X112512296Y-97193134D01*
X112938028Y-96752581D01*
X113319560Y-96365408D01*
X113642143Y-96047432D01*
X113891030Y-95814473D01*
X114051470Y-95682346D01*
X114100430Y-95658000D01*
X114209307Y-95711891D01*
G37*
G36*
X154471511Y-116843560D02*
G01*
X154682068Y-116895926D01*
X154821033Y-117011121D01*
X154903258Y-117210392D01*
X154943593Y-117514984D01*
X154956890Y-117946143D01*
X154958000Y-118525113D01*
X154958000Y-118532946D01*
X154952575Y-119028748D01*
X154937457Y-119458990D01*
X154914388Y-119793609D01*
X154885107Y-120002539D01*
X154870355Y-120047566D01*
X154816553Y-120118863D01*
X154725203Y-120165999D01*
X154564902Y-120193855D01*
X154304250Y-120207314D01*
X153911846Y-120211257D01*
X153817018Y-120211333D01*
X153339330Y-120204000D01*
X153016110Y-120181029D01*
X152833087Y-120140958D01*
X152782830Y-120105500D01*
X152743941Y-119959467D01*
X152715021Y-119681825D01*
X152696145Y-119310012D01*
X152687389Y-118881461D01*
X152688825Y-118433610D01*
X152700530Y-118003895D01*
X152722578Y-117629750D01*
X152755044Y-117348612D01*
X152777127Y-117248000D01*
X152890764Y-116867000D01*
X153776216Y-116842334D01*
X154174510Y-116832778D01*
X154471511Y-116843560D01*
G37*
G36*
X135243521Y-79105457D02*
G01*
X135287080Y-78956690D01*
X135348551Y-78828741D01*
X135359604Y-78809333D01*
X135634606Y-78491005D01*
X136008763Y-78273378D01*
X136444896Y-78156718D01*
X136905825Y-78141295D01*
X137354371Y-78227375D01*
X137753353Y-78415228D01*
X138065593Y-78705121D01*
X138123183Y-78789409D01*
X138226979Y-78999098D01*
X138293814Y-79253838D01*
X138334181Y-79602653D01*
X138348399Y-79841735D01*
X138384046Y-80587333D01*
X136578485Y-80587333D01*
X136603076Y-81285833D01*
X136618879Y-81630152D01*
X136642661Y-81838564D01*
X136683702Y-81944491D01*
X136751279Y-81981355D01*
X136797000Y-81984333D01*
X136888351Y-81965834D01*
X136943036Y-81885990D01*
X136973476Y-81708284D01*
X136991369Y-81412833D01*
X137016404Y-80841333D01*
X138363334Y-80841333D01*
X138363334Y-81310373D01*
X138293737Y-81836219D01*
X138092012Y-82280563D01*
X137768751Y-82620495D01*
X137751790Y-82632774D01*
X137419263Y-82785255D01*
X136995535Y-82861598D01*
X136541784Y-82859523D01*
X136119185Y-82776749D01*
X135931237Y-82700643D01*
X135655104Y-82511050D01*
X135421665Y-82268576D01*
X135380904Y-82209343D01*
X135309206Y-82083515D01*
X135257869Y-81953049D01*
X135223518Y-81788038D01*
X135202778Y-81558576D01*
X135192275Y-81234756D01*
X135188635Y-80786672D01*
X135188334Y-80502667D01*
X135190281Y-79973646D01*
X135198125Y-79584237D01*
X135206667Y-79441676D01*
X136585334Y-79441676D01*
X136593529Y-79677484D01*
X136635749Y-79789598D01*
X136738443Y-79823487D01*
X136808508Y-79825333D01*
X136941997Y-79815485D01*
X136999331Y-79756345D01*
X136999480Y-79603517D01*
X136977477Y-79429858D01*
X136933900Y-79155617D01*
X136886347Y-79017002D01*
X136814425Y-78981103D01*
X136715985Y-79007883D01*
X136623829Y-79115474D01*
X136586754Y-79359035D01*
X136585334Y-79441676D01*
X135206667Y-79441676D01*
X135214871Y-79304740D01*
X135243521Y-79105457D01*
G37*
G36*
X118426406Y-89166092D02*
G01*
X118724617Y-89191188D01*
X118925307Y-89236198D01*
X118977138Y-89268645D01*
X119022587Y-89408683D01*
X119044921Y-89655815D01*
X119042605Y-89872356D01*
X119017000Y-90366333D01*
X118362517Y-90371706D01*
X118044160Y-90381220D01*
X117794704Y-90401536D01*
X117659818Y-90428627D01*
X117650640Y-90434471D01*
X117547407Y-90438282D01*
X117479624Y-90397565D01*
X117341372Y-90349640D01*
X117244905Y-90403766D01*
X117134647Y-90451503D01*
X117043711Y-90354108D01*
X117033238Y-90335033D01*
X116971266Y-90121090D01*
X116946984Y-89831364D01*
X116960964Y-89542044D01*
X117013776Y-89329323D01*
X117025542Y-89308000D01*
X117145785Y-89246949D01*
X117390364Y-89201338D01*
X117714908Y-89172061D01*
X118075046Y-89160014D01*
X118426406Y-89166092D01*
G37*
G36*
X126783383Y-80198874D02*
G01*
X126809626Y-79694547D01*
X126848259Y-79324112D01*
X126904489Y-79052283D01*
X126983312Y-78844208D01*
X127227296Y-78523838D01*
X127576941Y-78297564D01*
X127996187Y-78166804D01*
X128448972Y-78132975D01*
X128899238Y-78197497D01*
X129310924Y-78361787D01*
X129647971Y-78627262D01*
X129735710Y-78735967D01*
X129812462Y-78853275D01*
X129867829Y-78976095D01*
X129905989Y-79134456D01*
X129931120Y-79358383D01*
X129947399Y-79677903D01*
X129959007Y-80123043D01*
X129963880Y-80375667D01*
X129971814Y-80889913D01*
X129971732Y-81266903D01*
X129960510Y-81538642D01*
X129935025Y-81737137D01*
X129892154Y-81894393D01*
X129828774Y-82042417D01*
X129794547Y-82110985D01*
X129531642Y-82482595D01*
X129179747Y-82725546D01*
X128722335Y-82848647D01*
X128372667Y-82868626D01*
X128039427Y-82850054D01*
X127737389Y-82803858D01*
X127568334Y-82753814D01*
X127283247Y-82582158D01*
X127067170Y-82340660D01*
X126914437Y-82010881D01*
X126819381Y-81574379D01*
X126776339Y-81012716D01*
X126778808Y-80485898D01*
X128203334Y-80485898D01*
X128206526Y-80961385D01*
X128215365Y-81376590D01*
X128228746Y-81702438D01*
X128245563Y-81909856D01*
X128259778Y-81970222D01*
X128395144Y-82031717D01*
X128505963Y-81934513D01*
X128581888Y-81688652D01*
X128587811Y-81651989D01*
X128607537Y-81425231D01*
X128618065Y-81097493D01*
X128620267Y-80705123D01*
X128615019Y-80284466D01*
X128603194Y-79871870D01*
X128585665Y-79503680D01*
X128563306Y-79216242D01*
X128536991Y-79045904D01*
X128524485Y-79017517D01*
X128403783Y-78991235D01*
X128333985Y-79007883D01*
X128285203Y-79049233D01*
X128249972Y-79145657D01*
X128226232Y-79320469D01*
X128211923Y-79596978D01*
X128204982Y-79998498D01*
X128203334Y-80485898D01*
X126778808Y-80485898D01*
X126779644Y-80307449D01*
X126783383Y-80198874D01*
G37*
G36*
X111425709Y-103623932D02*
G01*
X111593591Y-103753199D01*
X111840861Y-103981003D01*
X112108938Y-104243974D01*
X112860736Y-104992288D01*
X112915486Y-105595644D01*
X112929505Y-105831551D01*
X112942956Y-106210278D01*
X112955308Y-106705315D01*
X112966026Y-107290148D01*
X112974578Y-107938264D01*
X112980431Y-108623153D01*
X112981884Y-108898428D01*
X112984499Y-109650040D01*
X112984577Y-110250171D01*
X112981261Y-110716665D01*
X112973694Y-111067367D01*
X112961017Y-111320120D01*
X112942371Y-111492769D01*
X112916900Y-111603158D01*
X112883744Y-111669130D01*
X112846922Y-111705060D01*
X112764470Y-111782372D01*
X112743042Y-111883243D01*
X112781059Y-112060037D01*
X112831308Y-112222966D01*
X112876949Y-112401361D01*
X112910072Y-112625072D01*
X112931892Y-112918861D01*
X112943623Y-113307487D01*
X112946482Y-113815710D01*
X112941683Y-114468293D01*
X112941652Y-114471018D01*
X112929574Y-115177961D01*
X112910913Y-115720619D01*
X112885367Y-116103924D01*
X112852633Y-116332808D01*
X112823050Y-116406235D01*
X112692778Y-116456731D01*
X112445987Y-116496837D01*
X112135361Y-116522686D01*
X111813589Y-116530412D01*
X111533356Y-116516146D01*
X111460640Y-116506235D01*
X111352858Y-116470385D01*
X111275632Y-116388470D01*
X111224058Y-116236108D01*
X111193233Y-115988916D01*
X111178254Y-115622511D01*
X111174218Y-115112510D01*
X111174216Y-115081902D01*
X111173752Y-114673105D01*
X111172360Y-114317080D01*
X111170258Y-114053410D01*
X111167817Y-113924833D01*
X111165061Y-113783452D01*
X111162356Y-113503943D01*
X111159808Y-113117513D01*
X111157518Y-112655367D01*
X111155593Y-112148712D01*
X111154134Y-111628752D01*
X111153246Y-111126694D01*
X111153033Y-110673744D01*
X111153598Y-110301107D01*
X111154937Y-110051333D01*
X111155902Y-109834216D01*
X111156305Y-109472375D01*
X111156170Y-108990420D01*
X111155520Y-108412961D01*
X111154381Y-107764605D01*
X111152778Y-107069963D01*
X111151498Y-106605420D01*
X111150520Y-105782258D01*
X111153202Y-105114513D01*
X111160003Y-104588300D01*
X111171376Y-104189732D01*
X111187779Y-103904924D01*
X111209667Y-103719990D01*
X111237495Y-103621044D01*
X111250070Y-103602750D01*
X111317704Y-103578637D01*
X111425709Y-103623932D01*
G37*
G36*
X140903334Y-117586667D02*
G01*
X140913087Y-117881639D01*
X140947662Y-118040008D01*
X141015031Y-118093665D01*
X141030334Y-118094667D01*
X141104077Y-118055653D01*
X141143669Y-117917352D01*
X141157083Y-117647875D01*
X141157334Y-117586667D01*
X141157334Y-117078667D01*
X141919334Y-117078667D01*
X141919334Y-119872667D01*
X141157334Y-119872667D01*
X141157334Y-119280000D01*
X141149865Y-118957994D01*
X141123009Y-118773700D01*
X141070093Y-118695974D01*
X141030334Y-118687333D01*
X140961332Y-118722188D01*
X140921841Y-118847513D01*
X140905185Y-119094454D01*
X140903334Y-119280000D01*
X140903334Y-119872667D01*
X140226000Y-119872667D01*
X140226000Y-117078667D01*
X140903334Y-117078667D01*
X140903334Y-117586667D01*
G37*
G36*
X112406356Y-116922652D02*
G01*
X112672358Y-116963466D01*
X112781261Y-117020983D01*
X112811835Y-117138542D01*
X112837688Y-117389921D01*
X112858397Y-117741724D01*
X112873540Y-118160552D01*
X112882695Y-118613007D01*
X112885438Y-119065690D01*
X112881348Y-119485204D01*
X112870003Y-119838151D01*
X112850980Y-120091133D01*
X112823857Y-120210751D01*
X112821627Y-120213282D01*
X112692191Y-120259642D01*
X112443612Y-120297248D01*
X112125967Y-120323629D01*
X111789329Y-120336313D01*
X111483774Y-120332829D01*
X111259377Y-120310705D01*
X111196915Y-120293471D01*
X110996829Y-120209698D01*
X111031190Y-118750016D01*
X111052530Y-118117484D01*
X111083069Y-117626138D01*
X111122031Y-117285185D01*
X111168635Y-117103833D01*
X111170755Y-117099833D01*
X111237401Y-117005843D01*
X111335727Y-116949034D01*
X111504909Y-116920212D01*
X111784126Y-116910178D01*
X111982279Y-116909333D01*
X112406356Y-116922652D01*
G37*
G36*
X124480720Y-77200667D02*
G01*
X125046458Y-77209586D01*
X125473330Y-77240932D01*
X125791086Y-77301584D01*
X126029477Y-77398419D01*
X126218254Y-77538317D01*
X126298334Y-77620937D01*
X126373149Y-77726581D01*
X126424777Y-77868384D01*
X126458850Y-78080272D01*
X126480997Y-78396172D01*
X126495756Y-78810587D01*
X126500546Y-79330474D01*
X126482758Y-79715601D01*
X126443232Y-79951530D01*
X126426852Y-79991829D01*
X126199072Y-80248156D01*
X125852536Y-80423784D01*
X125425881Y-80500464D01*
X125345834Y-80502350D01*
X124901334Y-80502667D01*
X124901334Y-82788667D01*
X123377334Y-82788667D01*
X123377334Y-78851667D01*
X124901334Y-78851667D01*
X124907024Y-79213178D01*
X124927402Y-79434409D01*
X124967426Y-79544133D01*
X125025355Y-79571333D01*
X125161247Y-79504204D01*
X125237021Y-79407566D01*
X125303696Y-79182219D01*
X125325306Y-78886725D01*
X125304469Y-78586956D01*
X125243801Y-78348784D01*
X125191619Y-78265047D01*
X125063037Y-78160550D01*
X124977859Y-78163927D01*
X124927990Y-78291535D01*
X124905337Y-78559731D01*
X124901334Y-78851667D01*
X123377334Y-78851667D01*
X123377334Y-77200667D01*
X124480720Y-77200667D01*
G37*
G36*
X130370138Y-101137128D02*
G01*
X130449020Y-100879976D01*
X130601153Y-100688872D01*
X130856579Y-100525653D01*
X131232812Y-100357315D01*
X131537948Y-100217110D01*
X131794737Y-100073425D01*
X131948382Y-99956979D01*
X131949834Y-99955358D01*
X132075670Y-99698461D01*
X132079670Y-99400879D01*
X131983844Y-99174914D01*
X131855571Y-99065185D01*
X131756443Y-99113293D01*
X131693796Y-99309151D01*
X131674667Y-99599997D01*
X131674667Y-100060667D01*
X130299648Y-100060667D01*
X130336476Y-99551529D01*
X130412340Y-99105961D01*
X130585076Y-98761001D01*
X130883951Y-98462005D01*
X130945274Y-98414898D01*
X131091406Y-98327048D01*
X131270588Y-98273950D01*
X131527417Y-98247688D01*
X131906493Y-98240346D01*
X131928667Y-98240333D01*
X132315376Y-98247024D01*
X132578047Y-98272411D01*
X132761637Y-98324470D01*
X132911099Y-98411172D01*
X132917292Y-98415685D01*
X133081069Y-98547416D01*
X133207753Y-98688044D01*
X133302051Y-98860419D01*
X133368671Y-99087386D01*
X133412321Y-99391794D01*
X133437710Y-99796491D01*
X133449544Y-100324323D01*
X133452533Y-100998139D01*
X133452535Y-101013167D01*
X133452667Y-102854667D01*
X132775334Y-102854667D01*
X132438769Y-102851752D01*
X132236741Y-102836550D01*
X132134472Y-102799376D01*
X132097183Y-102730545D01*
X132091316Y-102664167D01*
X132071609Y-102557971D01*
X132041333Y-102581281D01*
X131888197Y-102755996D01*
X131625812Y-102871497D01*
X131306423Y-102919497D01*
X130982276Y-102891706D01*
X130722285Y-102790541D01*
X130503600Y-102574056D01*
X130373347Y-102242852D01*
X130327237Y-101782647D01*
X130333230Y-101547061D01*
X131674667Y-101547061D01*
X131684897Y-101804977D01*
X131711034Y-101987698D01*
X131731111Y-102036222D01*
X131880836Y-102091063D01*
X132017968Y-102011333D01*
X132046608Y-101958742D01*
X132079343Y-101792736D01*
X132095442Y-101544403D01*
X132096084Y-101264256D01*
X132082446Y-101002806D01*
X132055708Y-100810567D01*
X132018134Y-100738000D01*
X131881194Y-100815532D01*
X131766677Y-101019698D01*
X131692687Y-101307854D01*
X131674667Y-101547061D01*
X130333230Y-101547061D01*
X130334466Y-101498488D01*
X130370138Y-101137128D01*
G37*
G36*
X133458858Y-107603448D02*
G01*
X133336874Y-107631888D01*
X133286736Y-107661026D01*
X133148218Y-107717117D01*
X132987717Y-107699237D01*
X132752872Y-107605611D01*
X132447517Y-107477416D01*
X132239240Y-107423391D01*
X132077637Y-107434500D01*
X131984160Y-107467777D01*
X131835180Y-107488656D01*
X131564052Y-107488766D01*
X131216579Y-107468944D01*
X131010494Y-107449952D01*
X130224392Y-107391988D01*
X129551642Y-107399806D01*
X128948297Y-107476491D01*
X128370408Y-107625130D01*
X128330334Y-107638125D01*
X127680809Y-107848779D01*
X127177998Y-108006096D01*
X126826377Y-108108707D01*
X126652764Y-108151308D01*
X126474579Y-108220151D01*
X126192328Y-108368266D01*
X125838618Y-108574959D01*
X125446060Y-108819533D01*
X125047261Y-109081293D01*
X124674830Y-109339543D01*
X124361376Y-109573588D01*
X124196356Y-109710299D01*
X123411396Y-110441039D01*
X122750943Y-111140867D01*
X122190399Y-111845844D01*
X121705171Y-112592030D01*
X121270663Y-113415488D01*
X120862280Y-114352277D01*
X120643322Y-114919667D01*
X120340220Y-115900847D01*
X120143741Y-116940207D01*
X120051025Y-118062076D01*
X120059213Y-119290781D01*
X120081722Y-119696122D01*
X120123965Y-120304201D01*
X120163350Y-120777943D01*
X120204791Y-121152166D01*
X120253201Y-121461688D01*
X120313494Y-121741327D01*
X120390582Y-122025901D01*
X120428404Y-122152812D01*
X120824313Y-123219239D01*
X121355128Y-124282087D01*
X121997147Y-125305921D01*
X122726666Y-126255305D01*
X123519982Y-127094803D01*
X124036825Y-127547263D01*
X124356544Y-127807687D01*
X124628743Y-128034546D01*
X124825647Y-128204334D01*
X124919484Y-128293545D01*
X124921204Y-128295785D01*
X124968034Y-128454341D01*
X124982963Y-128707638D01*
X124967652Y-128984440D01*
X124923760Y-129213514D01*
X124898355Y-129276233D01*
X124778183Y-129408176D01*
X124689667Y-129440000D01*
X124557378Y-129507145D01*
X124478000Y-129609333D01*
X124368026Y-129741028D01*
X124214349Y-129764208D01*
X123983235Y-129678019D01*
X123826673Y-129592822D01*
X123578464Y-129426269D01*
X123244211Y-129169610D01*
X122857988Y-128852092D01*
X122453871Y-128502962D01*
X122065934Y-128151468D01*
X121728252Y-127826855D01*
X121535207Y-127626022D01*
X121179786Y-127198906D01*
X120795244Y-126673585D01*
X120419911Y-126107173D01*
X120092121Y-125556784D01*
X119902975Y-125193967D01*
X119725475Y-124838534D01*
X119693563Y-124778321D01*
X120142474Y-124778321D01*
X120167999Y-124802686D01*
X120263256Y-124910246D01*
X120430057Y-125129865D01*
X120646915Y-125432112D01*
X120892342Y-125787555D01*
X120957474Y-125884000D01*
X121321705Y-126394043D01*
X121721036Y-126898670D01*
X122136784Y-127379121D01*
X122550269Y-127816633D01*
X122942810Y-128192445D01*
X123295726Y-128487795D01*
X123590336Y-128683921D01*
X123807960Y-128762061D01*
X123823737Y-128762667D01*
X123937196Y-128742414D01*
X123902053Y-128656329D01*
X123885334Y-128635667D01*
X123760782Y-128529104D01*
X123701028Y-128508667D01*
X123592528Y-128453428D01*
X123396053Y-128306482D01*
X123143239Y-128095982D01*
X122865723Y-127850078D01*
X122595143Y-127596926D01*
X122363135Y-127364677D01*
X122201336Y-127181484D01*
X122184438Y-127159101D01*
X122024200Y-126948098D01*
X121798901Y-126662182D01*
X121552032Y-126356400D01*
X121502772Y-126296336D01*
X121256629Y-125980388D01*
X121027095Y-125657093D01*
X120857780Y-125388393D01*
X120837490Y-125351409D01*
X120583214Y-125002409D01*
X120333496Y-124831425D01*
X120179217Y-124770946D01*
X120142474Y-124778321D01*
X119693563Y-124778321D01*
X119530513Y-124470674D01*
X119396695Y-124233000D01*
X119258317Y-123963175D01*
X119167136Y-123719715D01*
X119145978Y-123603564D01*
X119108168Y-123402925D01*
X119015232Y-123139213D01*
X118966564Y-123030929D01*
X118838710Y-122713861D01*
X118697150Y-122277482D01*
X118554285Y-121769786D01*
X118422520Y-121238770D01*
X118314259Y-120732429D01*
X118241904Y-120298760D01*
X118226970Y-120169000D01*
X118181649Y-119456993D01*
X118177162Y-119028221D01*
X118817254Y-119028221D01*
X118846110Y-119869842D01*
X118954888Y-120768683D01*
X119132888Y-121638924D01*
X119152183Y-121713846D01*
X119280449Y-122205895D01*
X119369888Y-122561497D01*
X119425750Y-122807700D01*
X119453286Y-122971553D01*
X119457746Y-123080106D01*
X119444380Y-123160406D01*
X119437483Y-123183647D01*
X119419421Y-123356725D01*
X119439865Y-123427909D01*
X119565011Y-123511069D01*
X119704226Y-123462721D01*
X119778696Y-123344958D01*
X119775091Y-123190089D01*
X119717705Y-122911705D01*
X119614500Y-122543967D01*
X119533959Y-122294829D01*
X119289644Y-121421409D01*
X119110818Y-120455335D01*
X119093034Y-120325370D01*
X119009991Y-119692851D01*
X118946487Y-119215121D01*
X118899746Y-118879113D01*
X118866988Y-118671760D01*
X118845436Y-118579994D01*
X118832311Y-118590749D01*
X118824835Y-118690957D01*
X118820231Y-118867551D01*
X118817254Y-119028221D01*
X118177162Y-119028221D01*
X118173722Y-118699464D01*
X118200011Y-117921176D01*
X118257338Y-117146893D01*
X118342524Y-116401378D01*
X118452393Y-115709393D01*
X118583765Y-115095702D01*
X118733464Y-114585068D01*
X118898311Y-114202255D01*
X119014721Y-114030667D01*
X119055698Y-113946000D01*
X119567334Y-113946000D01*
X119596220Y-114028465D01*
X119604670Y-114030667D01*
X119676956Y-113971338D01*
X119694334Y-113946000D01*
X119687621Y-113867981D01*
X119656997Y-113861333D01*
X119570779Y-113922794D01*
X119567334Y-113946000D01*
X119055698Y-113946000D01*
X119103090Y-113848079D01*
X119127126Y-113692000D01*
X119164329Y-113481130D01*
X119258516Y-113205952D01*
X119385995Y-112917711D01*
X119523073Y-112667654D01*
X119646057Y-112507024D01*
X119688223Y-112478394D01*
X119791286Y-112354824D01*
X119821334Y-112161786D01*
X119858835Y-111934757D01*
X119954907Y-111641576D01*
X120033864Y-111460629D01*
X120125947Y-111255073D01*
X120142857Y-111178171D01*
X120098176Y-111214367D01*
X120005485Y-111348104D01*
X119878367Y-111563827D01*
X119775568Y-111756464D01*
X119636097Y-112007013D01*
X119506448Y-112205636D01*
X119454604Y-112268634D01*
X119366242Y-112412823D01*
X119263880Y-112659143D01*
X119196554Y-112865040D01*
X119078765Y-113182269D01*
X118928528Y-113473947D01*
X118838360Y-113602953D01*
X118709708Y-113796584D01*
X118660795Y-113956082D01*
X118665734Y-113986031D01*
X118664495Y-114112741D01*
X118625971Y-114365546D01*
X118556881Y-114707022D01*
X118470198Y-115074921D01*
X118207511Y-116266605D01*
X118044994Y-117359222D01*
X117978533Y-118387115D01*
X117987646Y-119101944D01*
X118010898Y-119538837D01*
X118038567Y-119939767D01*
X118067186Y-120260323D01*
X118093292Y-120456098D01*
X118093311Y-120456193D01*
X118116647Y-120647144D01*
X118077867Y-120694795D01*
X118054708Y-120684030D01*
X117968775Y-120680663D01*
X117958667Y-120714336D01*
X118010681Y-120800653D01*
X118029940Y-120804000D01*
X118076277Y-120881263D01*
X118145762Y-121090146D01*
X118228004Y-121396290D01*
X118292417Y-121671833D01*
X118476132Y-122459891D01*
X118647850Y-123097446D01*
X118813001Y-123602430D01*
X118977016Y-123992776D01*
X119022117Y-124081421D01*
X119141352Y-124332192D01*
X119215970Y-124540155D01*
X119228667Y-124613488D01*
X119288071Y-124772536D01*
X119409713Y-124918378D01*
X119531595Y-125069669D01*
X119692346Y-125326124D01*
X119861603Y-125638373D01*
X119899410Y-125714672D01*
X120458059Y-126672318D01*
X121173713Y-127571120D01*
X121371518Y-127780686D01*
X121634113Y-128052463D01*
X121890504Y-128321588D01*
X122074558Y-128518342D01*
X122332303Y-128776745D01*
X122642880Y-129056466D01*
X122959637Y-129318349D01*
X123235922Y-129523239D01*
X123372504Y-129607732D01*
X123586439Y-129747037D01*
X123791069Y-129913769D01*
X123928228Y-130052854D01*
X123949173Y-130146836D01*
X123864017Y-130263370D01*
X123846276Y-130283047D01*
X123701010Y-130406988D01*
X123547199Y-130437725D01*
X123351219Y-130368172D01*
X123079445Y-130191243D01*
X122948681Y-130093911D01*
X122570012Y-129780797D01*
X122125757Y-129372565D01*
X121646718Y-128901483D01*
X121163696Y-128399821D01*
X120707491Y-127899846D01*
X120308904Y-127433826D01*
X119998736Y-127034031D01*
X119920723Y-126921666D01*
X119560599Y-126356879D01*
X119278836Y-125862380D01*
X119084204Y-125455460D01*
X118985472Y-125153407D01*
X118974667Y-125056530D01*
X118916642Y-124866991D01*
X118773397Y-124656123D01*
X118736620Y-124616927D01*
X118558590Y-124366766D01*
X118386838Y-123993793D01*
X118304217Y-123755607D01*
X118107779Y-123122009D01*
X117957070Y-122625163D01*
X117845708Y-122240704D01*
X117767313Y-121944268D01*
X117715502Y-121711491D01*
X117683896Y-121518009D01*
X117666112Y-121339458D01*
X117664212Y-121312000D01*
X117630384Y-120949544D01*
X117578233Y-120542251D01*
X117546253Y-120338333D01*
X117470729Y-119819417D01*
X117425892Y-119299087D01*
X117412245Y-118747380D01*
X117430290Y-118134329D01*
X117480526Y-117429970D01*
X117563457Y-116604336D01*
X117616474Y-116143959D01*
X117700074Y-115582540D01*
X117808839Y-115064178D01*
X117934368Y-114616500D01*
X118068263Y-114267137D01*
X118202125Y-114043715D01*
X118272975Y-113984385D01*
X118400930Y-113903839D01*
X118385803Y-113821805D01*
X118322150Y-113753102D01*
X118255591Y-113668602D01*
X118239739Y-113566942D01*
X118280617Y-113406168D01*
X118384249Y-113144324D01*
X118422563Y-113053696D01*
X118562634Y-112760502D01*
X118703403Y-112524828D01*
X118815094Y-112396319D01*
X118817887Y-112394511D01*
X118945423Y-112252842D01*
X118974667Y-112148982D01*
X119019050Y-111963045D01*
X119140148Y-111670120D01*
X119319886Y-111303533D01*
X119510906Y-110950700D01*
X120244667Y-110950700D01*
X120285852Y-110976043D01*
X120398405Y-110867280D01*
X120424800Y-110834500D01*
X120498024Y-110734213D01*
X120454179Y-110755237D01*
X120392834Y-110802533D01*
X120275574Y-110906978D01*
X120244667Y-110950700D01*
X119510906Y-110950700D01*
X119540189Y-110896612D01*
X119691593Y-110638487D01*
X120519425Y-110638487D01*
X120531007Y-110644000D01*
X120608272Y-110584396D01*
X120625667Y-110559333D01*
X120647242Y-110480179D01*
X120635660Y-110474667D01*
X120558395Y-110534270D01*
X120541000Y-110559333D01*
X120519425Y-110638487D01*
X119691593Y-110638487D01*
X119782980Y-110482684D01*
X120030186Y-110095075D01*
X120263729Y-109767115D01*
X120273079Y-109755000D01*
X121158930Y-108717931D01*
X122119499Y-107790341D01*
X123128523Y-106996480D01*
X123596995Y-106685833D01*
X123967802Y-106458970D01*
X124220081Y-106319041D01*
X124375355Y-106257804D01*
X124455149Y-106267016D01*
X124480990Y-106338434D01*
X124481390Y-106347167D01*
X124516592Y-106357396D01*
X124598305Y-106243086D01*
X124611676Y-106219056D01*
X124787468Y-106023881D01*
X125069741Y-105836947D01*
X125397416Y-105690940D01*
X125709413Y-105618543D01*
X125737481Y-105616606D01*
X125957671Y-105576811D01*
X126095925Y-105513883D01*
X126285599Y-105411790D01*
X126599318Y-105289564D01*
X126995185Y-105160790D01*
X127431302Y-105039056D01*
X127865772Y-104937950D01*
X127882264Y-104934579D01*
X128271632Y-104878366D01*
X128789165Y-104836682D01*
X129396359Y-104809538D01*
X130054709Y-104796942D01*
X130725711Y-104798902D01*
X131370858Y-104815428D01*
X131951647Y-104846527D01*
X132429572Y-104892210D01*
X132685308Y-104933495D01*
X133270257Y-105071751D01*
X133796430Y-105227248D01*
X134229265Y-105388351D01*
X134534198Y-105543431D01*
X134569995Y-105567759D01*
X134736363Y-105657846D01*
X134840608Y-105660865D01*
X134846265Y-105654171D01*
X134950193Y-105631263D01*
X135149761Y-105681328D01*
X135399756Y-105783348D01*
X135654964Y-105916303D01*
X135870174Y-106059175D01*
X135999880Y-106190466D01*
X136107997Y-106328256D01*
X136184990Y-106359235D01*
X136186941Y-106357503D01*
X136295338Y-106360207D01*
X136511169Y-106448164D01*
X136806084Y-106605449D01*
X137151736Y-106816135D01*
X137519776Y-107064297D01*
X137766287Y-107244751D01*
X138264186Y-107652048D01*
X138793954Y-108136033D01*
X139312502Y-108653703D01*
X139776740Y-109162056D01*
X140141334Y-109615020D01*
X140435031Y-110035075D01*
X140730703Y-110491154D01*
X141007700Y-110948076D01*
X141245370Y-111370660D01*
X141423061Y-111723724D01*
X141515645Y-111956333D01*
X141602888Y-112190338D01*
X141695940Y-112355255D01*
X141719017Y-112379667D01*
X141875167Y-112571474D01*
X142036508Y-112868016D01*
X142175364Y-113207915D01*
X142264059Y-113529792D01*
X142277174Y-113617530D01*
X142295570Y-113853519D01*
X142274754Y-113960434D01*
X142202136Y-113976429D01*
X142161697Y-113967489D01*
X142030516Y-113884909D01*
X142004000Y-113818183D01*
X141935761Y-113697047D01*
X141873760Y-113660139D01*
X141765055Y-113554943D01*
X141630471Y-113341617D01*
X141495920Y-113073247D01*
X141387313Y-112802921D01*
X141330562Y-112583727D01*
X141327494Y-112540955D01*
X141266681Y-112354012D01*
X141148182Y-112202289D01*
X141005659Y-112032269D01*
X140843110Y-111780468D01*
X140764746Y-111636841D01*
X140426080Y-111045384D01*
X139989386Y-110397151D01*
X139489123Y-109735736D01*
X138959754Y-109104735D01*
X138435737Y-108547742D01*
X138020816Y-108165511D01*
X137523130Y-107775098D01*
X136944820Y-107366386D01*
X136340474Y-106975112D01*
X135764678Y-106637015D01*
X135386800Y-106440986D01*
X135041063Y-106252057D01*
X134825998Y-106082578D01*
X134765847Y-105990000D01*
X134700705Y-105867914D01*
X134605828Y-105894742D01*
X134589646Y-105907663D01*
X134398374Y-105964646D01*
X134236933Y-105940566D01*
X134042100Y-105898038D01*
X133929275Y-105892186D01*
X133811706Y-105877439D01*
X133595004Y-105820530D01*
X133457857Y-105777390D01*
X132933584Y-105633494D01*
X132316519Y-105512933D01*
X131643219Y-105418372D01*
X130950245Y-105352473D01*
X130274153Y-105317900D01*
X129651504Y-105317314D01*
X129118856Y-105353379D01*
X128712768Y-105428758D01*
X128704569Y-105431165D01*
X128396099Y-105508016D01*
X128107958Y-105555979D01*
X127989554Y-105564000D01*
X127759529Y-105591964D01*
X127453303Y-105663878D01*
X127242921Y-105728773D01*
X126990720Y-105808278D01*
X126817215Y-105849085D01*
X126764000Y-105845406D01*
X126710508Y-105843170D01*
X126658167Y-105875540D01*
X126505323Y-105935680D01*
X126276243Y-105976430D01*
X126256000Y-105978258D01*
X126016975Y-106023168D01*
X125839903Y-106098907D01*
X125832667Y-106104397D01*
X125665382Y-106211929D01*
X125422020Y-106340247D01*
X125160189Y-106462290D01*
X124937494Y-106550998D01*
X124820196Y-106580000D01*
X124696641Y-106635564D01*
X124523167Y-106773111D01*
X124481797Y-106812833D01*
X124285652Y-106981127D01*
X124008066Y-107186832D01*
X123748469Y-107360046D01*
X123384997Y-107617314D01*
X122950017Y-107969906D01*
X122481165Y-108383674D01*
X122016074Y-108824475D01*
X121592379Y-109258163D01*
X121320260Y-109563124D01*
X121043368Y-109895192D01*
X120880436Y-110102038D01*
X120831447Y-110183673D01*
X120896387Y-110140108D01*
X121075239Y-109971354D01*
X121367987Y-109677421D01*
X121774615Y-109258321D01*
X121798090Y-109233920D01*
X122171092Y-108856295D01*
X122535380Y-108505851D01*
X122863009Y-108208144D01*
X123126036Y-107988727D01*
X123271428Y-107886583D01*
X123501958Y-107748126D01*
X123540473Y-107723000D01*
X124478000Y-107723000D01*
X124520334Y-107765333D01*
X124562667Y-107723000D01*
X124520334Y-107680667D01*
X124478000Y-107723000D01*
X123540473Y-107723000D01*
X123666465Y-107640808D01*
X123716000Y-107601373D01*
X123851293Y-107489563D01*
X124054228Y-107367954D01*
X124249060Y-107278460D01*
X124337764Y-107257333D01*
X124467268Y-107215797D01*
X124690760Y-107107006D01*
X124724322Y-107088000D01*
X125917334Y-107088000D01*
X125981763Y-107170206D01*
X126002000Y-107172667D01*
X126084207Y-107108237D01*
X126086667Y-107088000D01*
X126022238Y-107005793D01*
X126002000Y-107003333D01*
X125919794Y-107067762D01*
X125917334Y-107088000D01*
X124724322Y-107088000D01*
X124954576Y-106957607D01*
X125241546Y-106795803D01*
X125500773Y-106668806D01*
X125663334Y-106608065D01*
X125888810Y-106528820D01*
X125899475Y-106523555D01*
X127638889Y-106523555D01*
X127650511Y-106573890D01*
X127695334Y-106580000D01*
X127717549Y-106570125D01*
X127984835Y-106570125D01*
X128085792Y-106557695D01*
X128203334Y-106495333D01*
X128282676Y-106429579D01*
X128206417Y-106412250D01*
X128187164Y-106411963D01*
X128034077Y-106455106D01*
X127991667Y-106495333D01*
X127984835Y-106570125D01*
X127717549Y-106570125D01*
X127765024Y-106549022D01*
X127751778Y-106523555D01*
X127651298Y-106513422D01*
X127638889Y-106523555D01*
X125899475Y-106523555D01*
X126128135Y-106410667D01*
X128372667Y-106410667D01*
X128406749Y-106481031D01*
X128531499Y-106464489D01*
X128669000Y-106410667D01*
X128769364Y-106358682D01*
X128722591Y-106337316D01*
X128605500Y-106331951D01*
X128436680Y-106354143D01*
X128372667Y-106410667D01*
X126128135Y-106410667D01*
X126129000Y-106410240D01*
X126504804Y-106231804D01*
X126998292Y-106056577D01*
X127558290Y-105900419D01*
X128133621Y-105779190D01*
X128203334Y-105767403D01*
X128740398Y-105702150D01*
X129362214Y-105663874D01*
X130031579Y-105651381D01*
X130711289Y-105663477D01*
X131364142Y-105698968D01*
X131952934Y-105756660D01*
X132440464Y-105835360D01*
X132733000Y-105912787D01*
X132962355Y-105984896D01*
X133269358Y-106072641D01*
X133452667Y-106121774D01*
X133981166Y-106282047D01*
X134354143Y-106446418D01*
X134567549Y-106612328D01*
X134617334Y-106777216D01*
X134590945Y-106841640D01*
X134529683Y-106896780D01*
X134419687Y-106909468D01*
X134233110Y-106874745D01*
X133942110Y-106787655D01*
X133562574Y-106658538D01*
X133101069Y-106501933D01*
X132723272Y-106389167D01*
X132378603Y-106310823D01*
X132016485Y-106257481D01*
X131586339Y-106219722D01*
X131037586Y-106188127D01*
X131036147Y-106188054D01*
X130521493Y-106170289D01*
X130057070Y-106169813D01*
X129666510Y-106185062D01*
X129373446Y-106214472D01*
X129201509Y-106256477D01*
X129174333Y-106309514D01*
X129175927Y-106311185D01*
X129278315Y-106337880D01*
X129514172Y-106367676D01*
X129847773Y-106396837D01*
X130220853Y-106420453D01*
X131291559Y-106501529D01*
X132212683Y-106623523D01*
X132979509Y-106785589D01*
X133587324Y-106986885D01*
X133721204Y-107046725D01*
X134166217Y-107231173D01*
X134491176Y-107300533D01*
X134700437Y-107254589D01*
X134798358Y-107093126D01*
X134807334Y-106992966D01*
X134840228Y-106861047D01*
X134881465Y-106834000D01*
X135017138Y-106869615D01*
X135241164Y-106959517D01*
X135499826Y-107078292D01*
X135739408Y-107200523D01*
X135906192Y-107300797D01*
X135948339Y-107338772D01*
X136058777Y-107432866D01*
X136252855Y-107540804D01*
X136273623Y-107550331D01*
X136752898Y-107804665D01*
X137144623Y-108089031D01*
X137214197Y-108153056D01*
X137389489Y-108309268D01*
X137519541Y-108407056D01*
X137649920Y-108516104D01*
X137867014Y-108726665D01*
X138146419Y-109012475D01*
X138463734Y-109347268D01*
X138794557Y-109704781D01*
X139114484Y-110058750D01*
X139399114Y-110382910D01*
X139624044Y-110650997D01*
X139726159Y-110782044D01*
X139995781Y-111174193D01*
X140270468Y-111620979D01*
X140534105Y-112090727D01*
X140770571Y-112551761D01*
X140963751Y-112972405D01*
X141097526Y-113320983D01*
X141155779Y-113565820D01*
X141157014Y-113594059D01*
X141149168Y-113709649D01*
X141102026Y-113778774D01*
X140979569Y-113815976D01*
X140745777Y-113835800D01*
X140534204Y-113845525D01*
X139911714Y-113872051D01*
X139772524Y-113578730D01*
X139680996Y-113356040D01*
X139634715Y-113185089D01*
X139633334Y-113165287D01*
X139580152Y-113033567D01*
X139445994Y-112841387D01*
X139372584Y-112754749D01*
X139179432Y-112505170D01*
X139021716Y-112243817D01*
X138992844Y-112181842D01*
X138917672Y-112039618D01*
X138787605Y-111848796D01*
X138590358Y-111594079D01*
X138313645Y-111260170D01*
X137945180Y-110831772D01*
X137512251Y-110338389D01*
X137247444Y-110058878D01*
X136928493Y-109752918D01*
X136587116Y-109447554D01*
X136255027Y-109169832D01*
X135963944Y-108946797D01*
X135745582Y-108805493D01*
X135679898Y-108775909D01*
X135492530Y-108683684D01*
X135401623Y-108579261D01*
X135400000Y-108566079D01*
X135323852Y-108429072D01*
X135128494Y-108310769D01*
X134900580Y-108247738D01*
X134731100Y-108199986D01*
X134668404Y-108162626D01*
X134543538Y-108113185D01*
X134433389Y-108101307D01*
X134224800Y-108048592D01*
X134092651Y-107974307D01*
X133902679Y-107875326D01*
X133779358Y-107850000D01*
X133616955Y-107783084D01*
X133567506Y-107726269D01*
X135788255Y-107726269D01*
X135843376Y-107851336D01*
X136004873Y-108038254D01*
X136256563Y-108269411D01*
X136582261Y-108527193D01*
X136734990Y-108637589D01*
X137086065Y-108893410D01*
X137440810Y-109166145D01*
X137736329Y-109407079D01*
X137802092Y-109464151D01*
X138113359Y-109769410D01*
X138469149Y-110164402D01*
X138834234Y-110605362D01*
X139173385Y-111048526D01*
X139451372Y-111450133D01*
X139595531Y-111692088D01*
X139795101Y-112031461D01*
X139988622Y-112299485D01*
X140152347Y-112466178D01*
X140240759Y-112506667D01*
X140310351Y-112463245D01*
X140310667Y-112458684D01*
X140263904Y-112367380D01*
X140147031Y-112197419D01*
X140099000Y-112133192D01*
X139966390Y-111946368D01*
X139892693Y-111817363D01*
X139887334Y-111797293D01*
X139842587Y-111705865D01*
X139722762Y-111510078D01*
X139549485Y-111244579D01*
X139454070Y-111103129D01*
X139231495Y-110807134D01*
X138927235Y-110445413D01*
X138564784Y-110041812D01*
X138167632Y-109620174D01*
X137759273Y-109204344D01*
X137363198Y-108818166D01*
X137002900Y-108485484D01*
X136701872Y-108230144D01*
X136483605Y-108075988D01*
X136458334Y-108062505D01*
X136235693Y-107936207D01*
X136080152Y-107819836D01*
X136051960Y-107787339D01*
X135914245Y-107690056D01*
X135855694Y-107680667D01*
X135788255Y-107726269D01*
X133567506Y-107726269D01*
X133546238Y-107701833D01*
X133458858Y-107603448D01*
G37*
G36*
X147799484Y-113876368D02*
G01*
X147797219Y-113428113D01*
X147800824Y-113013012D01*
X147810636Y-112663834D01*
X147826993Y-112413352D01*
X147850233Y-112294338D01*
X147854353Y-112289838D01*
X147873909Y-112193700D01*
X147788016Y-112065735D01*
X147749709Y-112014338D01*
X147718458Y-111942496D01*
X147693635Y-111834111D01*
X147674615Y-111673085D01*
X147660771Y-111443320D01*
X147651476Y-111128718D01*
X147646103Y-110713181D01*
X147644027Y-110180612D01*
X147644620Y-109514911D01*
X147647256Y-108699982D01*
X147648155Y-108472366D01*
X147661976Y-105049118D01*
X148071488Y-104569734D01*
X148420771Y-104175432D01*
X148726180Y-103859055D01*
X148971981Y-103635144D01*
X149142439Y-103518241D01*
X149215268Y-103512734D01*
X149269849Y-103652166D01*
X149317954Y-103943626D01*
X149359176Y-104369920D01*
X149393111Y-104913851D01*
X149419354Y-105558224D01*
X149437501Y-106285844D01*
X149447147Y-107079514D01*
X149447887Y-107922040D01*
X149439316Y-108796224D01*
X149421029Y-109684873D01*
X149392623Y-110570790D01*
X149385590Y-110748621D01*
X149365925Y-111320771D01*
X149360720Y-111743802D01*
X149370546Y-112037356D01*
X149395973Y-112221079D01*
X149430854Y-112306351D01*
X149547517Y-112396844D01*
X149642521Y-112357878D01*
X149769073Y-112322975D01*
X150042240Y-112294466D01*
X150439372Y-112273864D01*
X150937819Y-112262685D01*
X151084309Y-112261491D01*
X151589316Y-112260149D01*
X151951599Y-112264375D01*
X152197751Y-112277152D01*
X152354360Y-112301464D01*
X152448018Y-112340292D01*
X152505315Y-112396619D01*
X152522842Y-112422843D01*
X152635853Y-112565638D01*
X152724870Y-112554543D01*
X152823586Y-112384795D01*
X152825775Y-112380002D01*
X152877638Y-112117885D01*
X152833150Y-111935502D01*
X152806374Y-111775092D01*
X152785072Y-111453961D01*
X152769460Y-110980640D01*
X152759753Y-110363660D01*
X152756167Y-109611553D01*
X152757689Y-108950667D01*
X152760743Y-108274338D01*
X152763110Y-107644012D01*
X152764744Y-107081862D01*
X152765597Y-106610063D01*
X152765624Y-106250790D01*
X152764779Y-106026219D01*
X152763904Y-105967465D01*
X152716484Y-105806521D01*
X152574492Y-105580988D01*
X152325726Y-105273588D01*
X152079334Y-104998058D01*
X151764576Y-104638638D01*
X151540025Y-104346922D01*
X151419270Y-104141455D01*
X151402000Y-104073708D01*
X151333152Y-103900541D01*
X151160987Y-103803214D01*
X150992331Y-103700921D01*
X150782401Y-103516892D01*
X150571452Y-103294636D01*
X150399732Y-103077659D01*
X150307495Y-102909470D01*
X150301334Y-102874019D01*
X150366229Y-102773843D01*
X150527119Y-102638624D01*
X150576500Y-102605085D01*
X150792587Y-102431742D01*
X151033830Y-102191103D01*
X151148000Y-102058758D01*
X151401022Y-101764154D01*
X151591836Y-101597639D01*
X151747932Y-101543678D01*
X151896803Y-101586737D01*
X151938215Y-101612239D01*
X152226024Y-101838006D01*
X152606653Y-102191115D01*
X153071699Y-102663158D01*
X153612758Y-103245731D01*
X153973418Y-103648255D01*
X154323867Y-104045611D01*
X154578348Y-104342503D01*
X154753513Y-104564920D01*
X154866016Y-104738851D01*
X154932509Y-104890285D01*
X154969647Y-105045209D01*
X154994082Y-105229613D01*
X154995661Y-105243538D01*
X155008282Y-105441962D01*
X155019383Y-105787538D01*
X155028691Y-106258089D01*
X155035932Y-106831440D01*
X155040833Y-107485414D01*
X155043121Y-108197833D01*
X155042520Y-108946522D01*
X155042293Y-109021949D01*
X155040086Y-109751275D01*
X155038314Y-110427839D01*
X155037004Y-111032858D01*
X155036186Y-111547548D01*
X155035887Y-111953127D01*
X155036137Y-112230810D01*
X155036963Y-112361815D01*
X155037208Y-112368867D01*
X155093482Y-112385274D01*
X155169667Y-112337333D01*
X155307190Y-112275253D01*
X155419958Y-112334255D01*
X155563862Y-112395115D01*
X155631625Y-112381959D01*
X155708685Y-112251905D01*
X155705972Y-112073969D01*
X155630516Y-111953356D01*
X155610512Y-111872245D01*
X155594423Y-111653267D01*
X155582210Y-111292216D01*
X155573836Y-110784884D01*
X155569263Y-110127064D01*
X155568453Y-109314547D01*
X155571367Y-108343128D01*
X155577968Y-107208598D01*
X155582330Y-106618195D01*
X155623628Y-101338339D01*
X155438981Y-101086306D01*
X155310587Y-100921047D01*
X155102288Y-100663846D01*
X154844181Y-100351499D01*
X154598167Y-100058369D01*
X154343243Y-99750399D01*
X154134527Y-99485823D01*
X153993589Y-99292865D01*
X153942000Y-99199833D01*
X153996516Y-99093693D01*
X154143004Y-98895038D01*
X154355874Y-98633224D01*
X154609535Y-98337610D01*
X154878397Y-98037552D01*
X155136870Y-97762407D01*
X155359364Y-97541533D01*
X155481467Y-97433751D01*
X155817250Y-97163908D01*
X156094469Y-97363454D01*
X156286268Y-97525673D01*
X156560666Y-97789303D01*
X156891518Y-98125984D01*
X157252684Y-98507354D01*
X157618019Y-98905051D01*
X157961382Y-99290715D01*
X158256629Y-99635984D01*
X158477618Y-99912498D01*
X158580698Y-100060667D01*
X158810334Y-100441667D01*
X158827230Y-106029667D01*
X158829042Y-106994526D01*
X158828633Y-107914871D01*
X158826149Y-108775820D01*
X158821731Y-109562493D01*
X158815523Y-110260008D01*
X158807669Y-110853485D01*
X158798311Y-111328043D01*
X158787594Y-111668802D01*
X158775661Y-111860881D01*
X158770738Y-111892168D01*
X158737666Y-112067776D01*
X158767609Y-112181586D01*
X158885640Y-112244968D01*
X159116829Y-112269294D01*
X159486249Y-112265936D01*
X159587582Y-112262645D01*
X159937176Y-112248065D01*
X160198892Y-112245726D01*
X160385365Y-112276492D01*
X160509233Y-112361225D01*
X160583129Y-112520786D01*
X160619689Y-112776038D01*
X160631550Y-113147843D01*
X160631346Y-113657064D01*
X160630667Y-113984860D01*
X160630667Y-115620976D01*
X160411884Y-115675887D01*
X160160638Y-115701195D01*
X159824724Y-115688167D01*
X159468417Y-115644542D01*
X159155990Y-115578062D01*
X158958500Y-115500866D01*
X158795400Y-115426682D01*
X158649349Y-115462902D01*
X158568402Y-115512211D01*
X158479340Y-115554042D01*
X158341890Y-115586443D01*
X158135696Y-115610622D01*
X157840404Y-115627789D01*
X157435659Y-115639150D01*
X156901107Y-115645914D01*
X156261235Y-115649164D01*
X155420048Y-115651079D01*
X154732474Y-115651124D01*
X154182800Y-115648862D01*
X153755313Y-115643854D01*
X153434298Y-115635662D01*
X153204043Y-115623848D01*
X153048834Y-115607974D01*
X152952957Y-115587601D01*
X152900698Y-115562291D01*
X152892687Y-115555220D01*
X152757371Y-115527647D01*
X152647755Y-115567642D01*
X152494116Y-115605758D01*
X152209648Y-115638386D01*
X151832806Y-115664010D01*
X151402046Y-115681116D01*
X150955825Y-115688190D01*
X150532600Y-115683716D01*
X150170826Y-115666179D01*
X150162580Y-115665535D01*
X149809733Y-115601945D01*
X149592711Y-115481982D01*
X149586661Y-115475518D01*
X149485663Y-115385615D01*
X149368945Y-115362455D01*
X149177381Y-115401778D01*
X149055791Y-115437283D01*
X148733565Y-115510801D01*
X148407256Y-115547404D01*
X148124744Y-115545834D01*
X147933910Y-115504836D01*
X147887060Y-115467939D01*
X147860502Y-115345489D01*
X147838129Y-115092336D01*
X147820276Y-114741251D01*
X147808639Y-114368433D01*
X148082977Y-114368433D01*
X148086891Y-114711064D01*
X148104505Y-114970396D01*
X148137432Y-115110340D01*
X148143967Y-115118982D01*
X148267373Y-115184857D01*
X148480756Y-115260350D01*
X148709108Y-115322875D01*
X148877420Y-115349844D01*
X148904028Y-115347849D01*
X148969856Y-115260361D01*
X149029763Y-115065652D01*
X149042654Y-114997380D01*
X149064738Y-114739036D01*
X149072003Y-114366851D01*
X149065876Y-113935535D01*
X149065687Y-113930976D01*
X149312444Y-113930976D01*
X149344147Y-114225126D01*
X149410106Y-114448249D01*
X149422260Y-114470060D01*
X149495366Y-114495860D01*
X149570049Y-114400285D01*
X149617667Y-114228579D01*
X149622704Y-114153433D01*
X149665066Y-113966587D01*
X149714297Y-113889570D01*
X149746510Y-113767988D01*
X149660623Y-113563531D01*
X149637591Y-113524661D01*
X149470589Y-113250048D01*
X149368192Y-113441378D01*
X149319093Y-113643745D01*
X149312444Y-113930976D01*
X149065687Y-113930976D01*
X149047782Y-113499797D01*
X149019147Y-113114349D01*
X148995507Y-112930000D01*
X155570310Y-112930000D01*
X155579137Y-113084035D01*
X155601114Y-113102189D01*
X155609030Y-113078167D01*
X155622197Y-112863433D01*
X155609030Y-112781833D01*
X155584489Y-112755483D01*
X155571129Y-112872555D01*
X155570310Y-112930000D01*
X148995507Y-112930000D01*
X148987062Y-112864147D01*
X148935217Y-112690711D01*
X148872283Y-112629267D01*
X148863573Y-112632695D01*
X148758618Y-112623787D01*
X148744435Y-112606600D01*
X148672706Y-112562921D01*
X148509819Y-112557865D01*
X148257060Y-112584278D01*
X148212578Y-112668860D01*
X148172136Y-112886670D01*
X148137345Y-113201621D01*
X148109814Y-113577623D01*
X148091155Y-113978590D01*
X148082977Y-114368433D01*
X147808639Y-114368433D01*
X147807283Y-114325004D01*
X147799484Y-113876368D01*
G37*
G36*
X154580006Y-125909021D02*
G01*
X154746638Y-125934125D01*
X154845651Y-125984085D01*
X154878656Y-126017414D01*
X154911925Y-126093207D01*
X154939542Y-126243029D01*
X154962251Y-126481910D01*
X154980794Y-126824880D01*
X154995915Y-127286971D01*
X155008357Y-127883213D01*
X155018863Y-128628636D01*
X155022130Y-128919181D01*
X155030205Y-129780588D01*
X155033589Y-130488070D01*
X155031268Y-131056996D01*
X155022227Y-131502733D01*
X155005453Y-131840651D01*
X154979929Y-132086118D01*
X154944643Y-132254501D01*
X154898579Y-132361170D01*
X154840722Y-132421494D01*
X154789349Y-132445450D01*
X154653868Y-132555943D01*
X154543431Y-132754568D01*
X154539045Y-132767212D01*
X154438818Y-132947807D01*
X154242260Y-133208146D01*
X153971815Y-133525622D01*
X153649928Y-133877624D01*
X153299040Y-134241544D01*
X152941598Y-134594771D01*
X152600045Y-134914698D01*
X152296824Y-135178715D01*
X152054380Y-135364212D01*
X151895157Y-135448580D01*
X151874541Y-135451333D01*
X151774495Y-135394424D01*
X151591904Y-135242756D01*
X151360236Y-135024920D01*
X151272350Y-134936910D01*
X151008545Y-134681746D01*
X150758911Y-134463135D01*
X150568279Y-134319774D01*
X150534167Y-134299736D01*
X150370855Y-134190429D01*
X150301358Y-134097853D01*
X150301334Y-134096666D01*
X150357634Y-133991655D01*
X150517448Y-133780332D01*
X150767145Y-133478659D01*
X151093094Y-133102597D01*
X151481666Y-132668109D01*
X151919229Y-132191158D01*
X152031421Y-132070643D01*
X152362840Y-131698218D01*
X152612539Y-131381391D01*
X152763362Y-131142932D01*
X152797989Y-131053269D01*
X152859403Y-130858413D01*
X152927421Y-130751455D01*
X152945568Y-130652664D01*
X152898331Y-130465058D01*
X152878574Y-130414537D01*
X152835854Y-130270562D01*
X152803624Y-130056363D01*
X152780743Y-129751393D01*
X152766065Y-129335108D01*
X152758447Y-128786962D01*
X152756667Y-128224432D01*
X152756231Y-127549291D01*
X152761357Y-127024132D01*
X152781698Y-126629652D01*
X152826907Y-126346550D01*
X152906634Y-126155524D01*
X153030533Y-126037272D01*
X153208256Y-125972492D01*
X153449454Y-125941881D01*
X153763781Y-125926138D01*
X153909115Y-125919821D01*
X154312062Y-125905384D01*
X154580006Y-125909021D01*
G37*
G36*
X112337592Y-144479155D02*
G01*
X112506481Y-144578314D01*
X112599672Y-144644766D01*
X112793510Y-144804689D01*
X113061668Y-145051226D01*
X113363795Y-145346400D01*
X113574400Y-145562161D01*
X114227801Y-146246333D01*
X124276399Y-146192835D01*
X124373084Y-146405034D01*
X124412643Y-146572259D01*
X124444354Y-146861350D01*
X124467977Y-147239220D01*
X124483275Y-147672781D01*
X124490011Y-148128947D01*
X124487946Y-148574630D01*
X124476842Y-148976744D01*
X124456462Y-149302201D01*
X124426568Y-149517914D01*
X124395976Y-149589034D01*
X124260387Y-149619795D01*
X123958059Y-149647402D01*
X123488665Y-149671864D01*
X122851878Y-149693188D01*
X122047371Y-149711382D01*
X121074817Y-149726452D01*
X119933890Y-149738407D01*
X118624263Y-149747254D01*
X117376165Y-149752343D01*
X113364662Y-149764495D01*
X112178318Y-148555748D01*
X111603468Y-147962020D01*
X111147501Y-147472294D01*
X110803184Y-147077572D01*
X110563285Y-146768858D01*
X110420572Y-146537156D01*
X110367810Y-146373468D01*
X110373829Y-146311262D01*
X110451026Y-146193626D01*
X110623264Y-145988398D01*
X110862658Y-145724448D01*
X111141324Y-145430646D01*
X111431376Y-145135860D01*
X111704930Y-144868961D01*
X111934101Y-144658818D01*
X112088794Y-144535739D01*
X112218005Y-144469155D01*
X112337592Y-144479155D01*
G37*
G36*
X148935345Y-120564673D02*
G01*
X149182739Y-120608249D01*
X149258867Y-120655833D01*
X149288470Y-120784195D01*
X149314439Y-121055517D01*
X149336617Y-121445205D01*
X149354850Y-121928663D01*
X149368983Y-122481297D01*
X149378861Y-123078512D01*
X149384327Y-123695712D01*
X149385228Y-124308304D01*
X149381409Y-124891691D01*
X149372713Y-125421279D01*
X149358986Y-125872473D01*
X149340072Y-126220679D01*
X149315817Y-126441300D01*
X149295772Y-126506422D01*
X149250355Y-126654580D01*
X149294664Y-126905769D01*
X149307099Y-126947956D01*
X149340982Y-127139265D01*
X149367333Y-127469727D01*
X149386369Y-127945949D01*
X149398310Y-128574541D01*
X149403373Y-129362111D01*
X149403309Y-129863333D01*
X149397508Y-130877474D01*
X149384378Y-131725630D01*
X149363750Y-132410994D01*
X149335455Y-132936764D01*
X149299323Y-133306134D01*
X149255184Y-133522301D01*
X149205848Y-133588667D01*
X149112402Y-133536685D01*
X148934671Y-133401258D01*
X148739358Y-133236147D01*
X148462154Y-132965222D01*
X148170145Y-132638806D01*
X147996458Y-132420115D01*
X147654041Y-131956603D01*
X147644187Y-128679523D01*
X147642602Y-127817461D01*
X147643831Y-127109970D01*
X147648330Y-126542304D01*
X147656557Y-126099719D01*
X147668968Y-125767468D01*
X147686020Y-125530807D01*
X147708171Y-125374988D01*
X147735878Y-125285268D01*
X147750076Y-125262774D01*
X147816916Y-125143009D01*
X147799087Y-124998828D01*
X147730918Y-124838822D01*
X147652877Y-124605973D01*
X147629624Y-124320155D01*
X147648840Y-123988876D01*
X147685653Y-123696051D01*
X147730972Y-123476281D01*
X147774060Y-123378468D01*
X147799999Y-123278954D01*
X147768791Y-123188601D01*
X147737473Y-123052261D01*
X147707541Y-122783672D01*
X147682138Y-122419910D01*
X147664405Y-121998049D01*
X147662729Y-121937053D01*
X147652149Y-121424205D01*
X147660921Y-121056494D01*
X147704117Y-120809777D01*
X147796810Y-120659912D01*
X147954072Y-120582755D01*
X148190977Y-120554166D01*
X148522597Y-120550000D01*
X148528704Y-120550000D01*
X148935345Y-120564673D01*
G37*
G36*
X140903334Y-138330000D02*
G01*
X141157334Y-138330000D01*
X141327986Y-138346519D01*
X141397981Y-138430309D01*
X141411334Y-138626333D01*
X141411334Y-138922667D01*
X140226000Y-138922667D01*
X140226000Y-136128667D01*
X140903334Y-136128667D01*
X140903334Y-138330000D01*
G37*
G36*
X101725079Y-122093143D02*
G01*
X101742969Y-121637209D01*
X101760982Y-121312765D01*
X101778967Y-121133919D01*
X101791155Y-121102695D01*
X101891029Y-121086285D01*
X101913480Y-121059381D01*
X101896719Y-120984426D01*
X101843054Y-120973333D01*
X101808755Y-120953555D01*
X101781272Y-120883451D01*
X101759882Y-120746866D01*
X101743859Y-120527648D01*
X101732482Y-120209641D01*
X101725025Y-119776692D01*
X101720765Y-119212647D01*
X101718977Y-118501351D01*
X101718799Y-118200500D01*
X101718604Y-117687094D01*
X101718231Y-117022769D01*
X101717697Y-116225937D01*
X101717017Y-115315013D01*
X101716206Y-114308411D01*
X101715279Y-113224543D01*
X101714254Y-112081823D01*
X101713144Y-110898666D01*
X101711966Y-109693484D01*
X101710735Y-108484691D01*
X101709984Y-107770840D01*
X101701819Y-100114013D01*
X102105435Y-99727507D01*
X102295930Y-99536069D01*
X102571164Y-99247511D01*
X102903503Y-98891389D01*
X103265314Y-98497259D01*
X103555270Y-98176833D01*
X103892390Y-97807838D01*
X104196018Y-97487021D01*
X104446444Y-97234292D01*
X104623959Y-97069556D01*
X104707862Y-97012667D01*
X104797108Y-97072870D01*
X104972708Y-97236393D01*
X105211267Y-97477606D01*
X105489385Y-97770879D01*
X105783666Y-98090581D01*
X106070712Y-98411083D01*
X106327125Y-98706755D01*
X106529508Y-98951966D01*
X106654463Y-99121086D01*
X106682659Y-99175890D01*
X106664886Y-99288979D01*
X106567225Y-99468593D01*
X106380418Y-99727274D01*
X106095208Y-100077561D01*
X105702339Y-100531995D01*
X105576957Y-100673778D01*
X105274796Y-101023801D01*
X105074274Y-101289444D01*
X104957940Y-101506710D01*
X104908344Y-101711599D01*
X104908034Y-101940112D01*
X104916710Y-102035883D01*
X104892305Y-102211934D01*
X104811320Y-102445262D01*
X104792340Y-102487016D01*
X104707551Y-102690757D01*
X104704515Y-102814750D01*
X104780356Y-102925361D01*
X104828730Y-102992505D01*
X104866305Y-103086763D01*
X104893744Y-103226371D01*
X104911709Y-103429564D01*
X104920865Y-103714577D01*
X104921875Y-104099644D01*
X104915403Y-104603002D01*
X104902112Y-105242884D01*
X104887141Y-105860333D01*
X104879753Y-106240329D01*
X104872614Y-106773453D01*
X104865811Y-107443501D01*
X104859433Y-108234268D01*
X104853569Y-109129550D01*
X104848307Y-110113142D01*
X104843736Y-111168839D01*
X104839945Y-112280436D01*
X104837022Y-113431730D01*
X104835056Y-114606515D01*
X104834243Y-115530080D01*
X104832583Y-117040668D01*
X104829248Y-118383692D01*
X104824217Y-119560912D01*
X104817469Y-120574090D01*
X104808983Y-121424987D01*
X104798738Y-122115363D01*
X104786714Y-122646979D01*
X104772890Y-123021596D01*
X104757245Y-123240976D01*
X104742343Y-123306811D01*
X104692623Y-123420030D01*
X104707098Y-123498311D01*
X104715710Y-123603902D01*
X104723436Y-123863013D01*
X104730232Y-124259830D01*
X104736055Y-124778541D01*
X104740862Y-125403335D01*
X104744611Y-126118399D01*
X104747259Y-126907922D01*
X104748762Y-127756090D01*
X104749077Y-128647091D01*
X104748162Y-129565114D01*
X104745974Y-130494346D01*
X104742470Y-131418975D01*
X104737606Y-132323189D01*
X104732904Y-132996000D01*
X104731886Y-133326553D01*
X104732665Y-133770816D01*
X104735049Y-134273175D01*
X104738841Y-134778019D01*
X104739319Y-134829499D01*
X104750667Y-136027998D01*
X105390276Y-136704432D01*
X105821547Y-137169064D01*
X106139572Y-137536183D01*
X106354471Y-137824272D01*
X106476363Y-138051814D01*
X106515366Y-138237291D01*
X106481600Y-138399186D01*
X106396110Y-138541667D01*
X106227731Y-138743135D01*
X105988468Y-139000322D01*
X105705247Y-139287580D01*
X105404993Y-139579260D01*
X105114633Y-139849714D01*
X104861092Y-140073295D01*
X104671296Y-140224353D01*
X104573982Y-140277333D01*
X104467567Y-140217885D01*
X104271749Y-140054024D01*
X104010098Y-139807480D01*
X103706181Y-139499980D01*
X103540781Y-139324833D01*
X102952046Y-138687441D01*
X102477552Y-138163925D01*
X102112036Y-137748187D01*
X101850237Y-137434134D01*
X101686894Y-137215670D01*
X101622226Y-137102333D01*
X101606402Y-136978753D01*
X101593679Y-136704552D01*
X101583908Y-136293836D01*
X101576939Y-135760710D01*
X101572624Y-135119280D01*
X101570814Y-134383652D01*
X101571360Y-133567930D01*
X101574113Y-132686221D01*
X101578924Y-131752631D01*
X101585644Y-130781264D01*
X101594124Y-129786227D01*
X101604215Y-128781625D01*
X101615769Y-127781564D01*
X101628636Y-126800149D01*
X101642668Y-125851486D01*
X101657715Y-124949680D01*
X101673628Y-124108837D01*
X101690259Y-123343063D01*
X101690362Y-123339003D01*
X101956667Y-123339003D01*
X102018127Y-123425221D01*
X102041334Y-123428667D01*
X102123799Y-123399780D01*
X102126000Y-123391330D01*
X102066671Y-123319044D01*
X102041334Y-123301667D01*
X101963315Y-123308379D01*
X101956667Y-123339003D01*
X101690362Y-123339003D01*
X101707459Y-122666463D01*
X101725079Y-122093143D01*
G37*
G36*
X135400000Y-102854667D02*
G01*
X133960667Y-102854667D01*
X133960667Y-97266667D01*
X135400000Y-97266667D01*
X135400000Y-102854667D01*
G37*
G36*
X111076575Y-127503875D02*
G01*
X111080408Y-126624199D01*
X111085051Y-125887431D01*
X111090927Y-125280359D01*
X111098459Y-124789770D01*
X111108071Y-124402451D01*
X111120185Y-124105191D01*
X111135226Y-123884776D01*
X111153616Y-123727995D01*
X111175778Y-123621634D01*
X111202138Y-123552481D01*
X111233116Y-123507324D01*
X111234416Y-123505875D01*
X111332104Y-123373966D01*
X111308716Y-123270459D01*
X111240789Y-123189166D01*
X111181459Y-123095350D01*
X111141037Y-122948691D01*
X111116267Y-122719769D01*
X111103897Y-122379163D01*
X111100667Y-121922145D01*
X111101581Y-121435742D01*
X111117519Y-121094161D01*
X111168277Y-120872962D01*
X111273651Y-120747702D01*
X111453435Y-120693937D01*
X111727424Y-120687225D01*
X112088835Y-120701990D01*
X112450144Y-120724733D01*
X112675019Y-120760005D01*
X112796284Y-120815323D01*
X112838681Y-120873738D01*
X112866096Y-121012940D01*
X112895525Y-121280262D01*
X112923073Y-121634595D01*
X112941366Y-121957838D01*
X112957264Y-122408086D01*
X112953014Y-122727435D01*
X112925836Y-122953428D01*
X112872951Y-123123605D01*
X112851683Y-123169336D01*
X112767249Y-123399228D01*
X112786562Y-123595604D01*
X112813349Y-123666498D01*
X112838389Y-123794741D01*
X112859660Y-124055327D01*
X112877298Y-124453993D01*
X112891435Y-124996477D01*
X112902205Y-125688517D01*
X112909742Y-126535852D01*
X112914179Y-127544220D01*
X112915187Y-128043000D01*
X112915828Y-129017890D01*
X112914552Y-129837057D01*
X112911003Y-130514107D01*
X112904826Y-131062642D01*
X112895666Y-131496267D01*
X112883168Y-131828585D01*
X112866975Y-132073202D01*
X112846733Y-132243720D01*
X112822087Y-132353743D01*
X112801305Y-132403333D01*
X112726267Y-132544632D01*
X112743294Y-132560075D01*
X112827229Y-132494851D01*
X112876241Y-132454152D01*
X112922584Y-132430756D01*
X112979627Y-132437065D01*
X113060739Y-132485483D01*
X113179288Y-132588413D01*
X113348643Y-132758258D01*
X113582172Y-133007420D01*
X113893244Y-133348303D01*
X114295227Y-133793309D01*
X114645011Y-134181333D01*
X115076088Y-134655936D01*
X115529938Y-135149529D01*
X115973434Y-135626502D01*
X116373452Y-136051247D01*
X116696864Y-136388156D01*
X116719953Y-136411799D01*
X117017278Y-136723152D01*
X117266066Y-136997842D01*
X117444482Y-137210675D01*
X117530692Y-137336455D01*
X117535334Y-137352657D01*
X117485907Y-137478315D01*
X117360572Y-137674575D01*
X117281334Y-137779667D01*
X117103337Y-138015018D01*
X117039154Y-138127740D01*
X117087645Y-138116025D01*
X117247671Y-137978063D01*
X117346597Y-137883280D01*
X117580762Y-137693659D01*
X117817270Y-137561990D01*
X117918097Y-137531336D01*
X118060735Y-137520518D01*
X118351111Y-137508077D01*
X118767645Y-137494602D01*
X119288757Y-137480682D01*
X119892867Y-137466905D01*
X120558393Y-137453860D01*
X121091334Y-137444808D01*
X121919859Y-137433061D01*
X122594248Y-137426911D01*
X123129614Y-137426656D01*
X123541071Y-137432596D01*
X123843733Y-137445028D01*
X124052714Y-137464250D01*
X124183128Y-137490562D01*
X124224000Y-137506677D01*
X124335851Y-137582110D01*
X124407739Y-137696399D01*
X124455211Y-137891656D01*
X124493816Y-138209994D01*
X124497532Y-138247609D01*
X124529762Y-138682520D01*
X124522336Y-138980547D01*
X124469563Y-139170698D01*
X124365753Y-139281981D01*
X124287303Y-139319190D01*
X124139124Y-139340889D01*
X123831564Y-139358564D01*
X123374531Y-139372142D01*
X122777932Y-139381545D01*
X122051674Y-139386697D01*
X121205665Y-139387524D01*
X120249811Y-139383950D01*
X119194019Y-139375897D01*
X118230551Y-139365538D01*
X117565703Y-139356485D01*
X117056057Y-139343179D01*
X116687494Y-139319322D01*
X116445894Y-139278617D01*
X116317139Y-139214765D01*
X116287111Y-139121471D01*
X116341689Y-138992437D01*
X116466754Y-138821364D01*
X116613019Y-138644081D01*
X116981446Y-138203000D01*
X116529566Y-138605167D01*
X116291110Y-138804308D01*
X116090854Y-138948137D01*
X115970132Y-139007135D01*
X115966409Y-139007333D01*
X115856196Y-138947957D01*
X115678110Y-138792964D01*
X115488733Y-138595531D01*
X115326410Y-138415077D01*
X115070939Y-138133511D01*
X114743784Y-137774375D01*
X114366406Y-137361209D01*
X113960270Y-136917555D01*
X113725334Y-136661366D01*
X113329350Y-136229332D01*
X112965599Y-135831491D01*
X112651704Y-135487196D01*
X112405287Y-135215799D01*
X112243973Y-135036653D01*
X112192105Y-134977668D01*
X112034100Y-134812663D01*
X111829455Y-134624309D01*
X111806532Y-134604667D01*
X111576692Y-134372836D01*
X111493957Y-134170653D01*
X111550705Y-133958964D01*
X111651326Y-133807432D01*
X111803520Y-133588302D01*
X111859696Y-133461460D01*
X111814161Y-133442747D01*
X111774893Y-133463587D01*
X111639544Y-133486067D01*
X111418775Y-133471779D01*
X111372726Y-133464714D01*
X111058334Y-133411594D01*
X111058568Y-133334667D01*
X111956449Y-133334667D01*
X112034805Y-133279191D01*
X112186987Y-133137935D01*
X112286000Y-133038333D01*
X112442891Y-132868527D01*
X112527158Y-132761317D01*
X112530884Y-132742000D01*
X112452529Y-132797475D01*
X112300346Y-132938731D01*
X112201334Y-133038333D01*
X112044443Y-133208139D01*
X111960175Y-133315350D01*
X111956449Y-133334667D01*
X111058568Y-133334667D01*
X111073127Y-128539673D01*
X111076575Y-127503875D01*
G37*
G36*
X106875222Y-138559693D02*
G01*
X107052104Y-138724005D01*
X107305237Y-138974780D01*
X107615826Y-139292568D01*
X107965077Y-139657922D01*
X108334198Y-140051393D01*
X108704392Y-140453535D01*
X109041539Y-140827667D01*
X109421015Y-141247531D01*
X109856898Y-141719752D01*
X110288440Y-142178957D01*
X110574911Y-142477768D01*
X110863921Y-142780149D01*
X111104475Y-143040583D01*
X111274563Y-143234582D01*
X111352176Y-143337657D01*
X111354667Y-143345357D01*
X111407111Y-143439206D01*
X111541858Y-143611642D01*
X111660786Y-143748349D01*
X111787438Y-143890947D01*
X111866822Y-144008805D01*
X111888461Y-144124476D01*
X111841880Y-144260511D01*
X111716604Y-144439461D01*
X111502158Y-144683878D01*
X111188065Y-145016314D01*
X110962446Y-145251726D01*
X110641371Y-145583272D01*
X110411271Y-145807542D01*
X110248101Y-145941535D01*
X110127817Y-146002249D01*
X110026373Y-146006682D01*
X109934976Y-145978085D01*
X109756635Y-145863898D01*
X109516148Y-145655771D01*
X109254534Y-145394040D01*
X109012816Y-145119040D01*
X108873121Y-144934000D01*
X108720026Y-144738070D01*
X108474866Y-144455879D01*
X108166671Y-144119529D01*
X107824469Y-143761123D01*
X107676169Y-143610309D01*
X107321850Y-143249993D01*
X106937651Y-142853512D01*
X106543243Y-142441786D01*
X106158298Y-142035737D01*
X105802486Y-141656283D01*
X105495477Y-141324346D01*
X105256942Y-141060846D01*
X105106553Y-140886703D01*
X105069463Y-140838022D01*
X105025779Y-140692052D01*
X105006029Y-140470395D01*
X105005963Y-140462001D01*
X105018906Y-140336254D01*
X105071367Y-140206905D01*
X105181973Y-140049885D01*
X105369349Y-139841122D01*
X105652119Y-139556548D01*
X105872500Y-139342124D01*
X106186357Y-139042018D01*
X106457301Y-138789123D01*
X106662175Y-138604582D01*
X106777824Y-138509539D01*
X106793384Y-138501290D01*
X106875222Y-138559693D01*
G37*
G36*
X150562463Y-91438949D02*
G01*
X150680087Y-91494749D01*
X150811146Y-91618626D01*
X150985579Y-91837090D01*
X151155257Y-92068419D01*
X151344822Y-92311858D01*
X151621079Y-92642369D01*
X151953622Y-93024705D01*
X152312044Y-93423618D01*
X152502667Y-93630317D01*
X152870023Y-94025224D01*
X153237515Y-94421300D01*
X153572171Y-94782938D01*
X153841019Y-95074534D01*
X153942000Y-95184622D01*
X154377678Y-95652326D01*
X154748699Y-96029632D01*
X155096413Y-96358187D01*
X155196602Y-96448343D01*
X155365441Y-96633821D01*
X155459215Y-96804920D01*
X155466000Y-96846114D01*
X155409234Y-96995959D01*
X155255540Y-97231462D01*
X155029826Y-97525024D01*
X154757000Y-97849044D01*
X154461968Y-98175922D01*
X154169638Y-98478056D01*
X153904919Y-98727848D01*
X153692716Y-98897695D01*
X153558373Y-98960000D01*
X153421568Y-98901654D01*
X153228983Y-98752339D01*
X153106539Y-98632716D01*
X152966241Y-98482979D01*
X152823564Y-98329511D01*
X152660799Y-98152962D01*
X152460232Y-97933977D01*
X152204153Y-97653206D01*
X151874850Y-97291295D01*
X151454611Y-96828892D01*
X151313898Y-96674000D01*
X150918007Y-96241148D01*
X150475914Y-95762552D01*
X150038974Y-95293547D01*
X149658539Y-94889467D01*
X149624540Y-94853667D01*
X149194943Y-94389219D01*
X148883114Y-94020763D01*
X148678871Y-93733377D01*
X148572031Y-93512137D01*
X148552410Y-93342121D01*
X148562487Y-93297352D01*
X148647865Y-93154563D01*
X148826173Y-92933338D01*
X149070812Y-92660370D01*
X149355187Y-92362353D01*
X149652698Y-92065981D01*
X149936750Y-91797950D01*
X150180745Y-91584951D01*
X150358085Y-91453681D01*
X150428334Y-91424714D01*
X150562463Y-91438949D01*
G37*
G36*
X114760656Y-87712412D02*
G01*
X115281346Y-87724152D01*
X115656604Y-87736811D01*
X115910311Y-87753714D01*
X116066353Y-87778185D01*
X116148612Y-87813552D01*
X116180971Y-87863140D01*
X116186837Y-87911000D01*
X116193523Y-88249400D01*
X116192643Y-88654077D01*
X116185367Y-89090427D01*
X116172864Y-89523846D01*
X116156305Y-89919729D01*
X116136861Y-90243471D01*
X116115700Y-90460470D01*
X116098134Y-90534195D01*
X116032263Y-90680363D01*
X115998279Y-90832000D01*
X115976262Y-90931031D01*
X115921311Y-90995925D01*
X115800454Y-91037138D01*
X115580715Y-91065131D01*
X115229122Y-91090359D01*
X115172333Y-91093961D01*
X114375667Y-91144255D01*
X113909444Y-91672259D01*
X113664538Y-91933858D01*
X113383158Y-92210177D01*
X113094863Y-92475146D01*
X112829210Y-92702694D01*
X112615757Y-92866750D01*
X112484063Y-92941243D01*
X112468739Y-92942998D01*
X112390708Y-92883314D01*
X112222664Y-92726138D01*
X111991059Y-92496899D01*
X111778000Y-92278935D01*
X111473356Y-91957318D01*
X111174519Y-91632021D01*
X110925383Y-91351251D01*
X110821406Y-91228354D01*
X110643687Y-90999271D01*
X110563654Y-90848043D01*
X110563777Y-90728437D01*
X110599654Y-90643584D01*
X110671732Y-90533591D01*
X110807051Y-90365112D01*
X111015369Y-90127460D01*
X111306444Y-89809945D01*
X111690035Y-89401880D01*
X112175900Y-88892576D01*
X112618736Y-88432078D01*
X113340736Y-87683157D01*
X114760656Y-87712412D01*
G37*
G36*
X143985109Y-128650588D02*
G01*
X144178229Y-128832245D01*
X144407049Y-129122500D01*
X144655063Y-129435255D01*
X144994308Y-129825382D01*
X145390637Y-130256440D01*
X145809902Y-130691988D01*
X146217953Y-131095583D01*
X146517448Y-131374627D01*
X146833354Y-131658253D01*
X146649502Y-131967293D01*
X146491340Y-132196311D01*
X146267411Y-132477084D01*
X146071044Y-132699667D01*
X145841081Y-132949891D01*
X145545823Y-133276104D01*
X145231594Y-133626960D01*
X145058916Y-133821500D01*
X144741979Y-134171024D01*
X144517733Y-134395423D01*
X144375283Y-134503523D01*
X144303734Y-134504154D01*
X144290000Y-134444490D01*
X144226564Y-134306404D01*
X144058785Y-134102190D01*
X143820455Y-133863662D01*
X143545367Y-133622633D01*
X143267313Y-133410914D01*
X143046466Y-133273824D01*
X142616671Y-133077622D01*
X142171858Y-132943963D01*
X141667897Y-132864211D01*
X141060653Y-132829728D01*
X140761839Y-132826667D01*
X140453428Y-132830213D01*
X140220659Y-132830577D01*
X140067547Y-132812349D01*
X139998112Y-132760116D01*
X140016370Y-132658468D01*
X140126338Y-132491992D01*
X140332035Y-132245278D01*
X140637478Y-131902914D01*
X141046683Y-131449489D01*
X141151175Y-131333143D01*
X141753704Y-130662450D01*
X142254712Y-130108234D01*
X142664584Y-129659887D01*
X142993708Y-129306803D01*
X143252469Y-129038372D01*
X143451253Y-128843988D01*
X143600448Y-128713044D01*
X143710438Y-128634931D01*
X143791611Y-128599043D01*
X143833845Y-128593333D01*
X143985109Y-128650588D01*
G37*
G36*
X127509430Y-120540855D02*
G01*
X127526000Y-120670621D01*
X127567469Y-120857000D01*
X127675574Y-121136645D01*
X127825861Y-121460077D01*
X127993877Y-121777815D01*
X128155168Y-122040380D01*
X128277725Y-122191701D01*
X128383652Y-122316445D01*
X128378561Y-122447801D01*
X128326143Y-122565828D01*
X128269498Y-122777634D01*
X128226597Y-123157574D01*
X128197417Y-123705899D01*
X128186957Y-124091776D01*
X128174517Y-124598122D01*
X128158495Y-124961450D01*
X128135646Y-125208071D01*
X128102726Y-125364299D01*
X128056490Y-125456447D01*
X128013622Y-125497533D01*
X127913865Y-125588639D01*
X127943752Y-125671507D01*
X128016499Y-125741161D01*
X128069849Y-125806421D01*
X128109783Y-125908111D01*
X128138664Y-126070296D01*
X128158860Y-126317042D01*
X128172734Y-126672412D01*
X128182651Y-127160471D01*
X128187053Y-127476432D01*
X128189602Y-127993024D01*
X128184418Y-128462339D01*
X128172432Y-128853712D01*
X128154574Y-129136479D01*
X128132306Y-129278589D01*
X128103627Y-129549506D01*
X128139085Y-129716177D01*
X128173137Y-129951442D01*
X128083169Y-130161116D01*
X127953437Y-130312162D01*
X127844976Y-130371333D01*
X127738177Y-130429660D01*
X127562705Y-130581115D01*
X127394727Y-130752333D01*
X127120973Y-131006215D01*
X126876868Y-131119928D01*
X126622703Y-131107779D01*
X126510000Y-131071143D01*
X126361153Y-130989581D01*
X126158426Y-130851723D01*
X126121008Y-130823828D01*
X125905726Y-130693041D01*
X125713828Y-130627202D01*
X125687926Y-130625333D01*
X125513088Y-130576745D01*
X125311432Y-130459651D01*
X125143730Y-130317059D01*
X125070758Y-130191976D01*
X125070667Y-130188526D01*
X125125893Y-130092845D01*
X125273620Y-129909556D01*
X125486917Y-129671096D01*
X125596973Y-129554584D01*
X125905204Y-129253782D01*
X126126111Y-129085975D01*
X126268358Y-129044657D01*
X126274306Y-129045986D01*
X126393229Y-129062539D01*
X126409131Y-129006990D01*
X126320297Y-128854783D01*
X126254356Y-128760357D01*
X126185263Y-128648289D01*
X126138840Y-128519521D01*
X126111671Y-128341559D01*
X126100344Y-128081913D01*
X126101444Y-127708090D01*
X126107704Y-127364650D01*
X126120341Y-126891410D01*
X126137474Y-126560093D01*
X126162882Y-126343286D01*
X126200343Y-126213581D01*
X126253635Y-126143567D01*
X126278275Y-126127217D01*
X126367622Y-126060048D01*
X126360441Y-125973493D01*
X126251770Y-125811720D01*
X126250039Y-125809379D01*
X126124970Y-125559319D01*
X126112256Y-125403733D01*
X127385423Y-125403733D01*
X127385947Y-125421804D01*
X127478682Y-125498329D01*
X127599867Y-125574987D01*
X127723200Y-125628472D01*
X127796441Y-125640891D01*
X127772945Y-125599135D01*
X127678050Y-125543581D01*
X127526000Y-125467464D01*
X127385423Y-125403733D01*
X126112256Y-125403733D01*
X126099453Y-125247050D01*
X126102280Y-125200255D01*
X126161318Y-124920060D01*
X126285395Y-124795979D01*
X126471840Y-124829135D01*
X126660290Y-124966170D01*
X126721201Y-125007383D01*
X126681514Y-124935414D01*
X126550501Y-124765927D01*
X126519131Y-124727717D01*
X126158122Y-124291101D01*
X126155406Y-122940403D01*
X126160765Y-122356910D01*
X126178800Y-121897164D01*
X126208588Y-121576279D01*
X126249071Y-121409614D01*
X126361650Y-121263389D01*
X126554144Y-121070930D01*
X126790536Y-120861785D01*
X127034806Y-120665500D01*
X127250937Y-120511621D01*
X127402910Y-120429695D01*
X127447301Y-120426688D01*
X127509430Y-120540855D01*
G37*
G36*
X147570816Y-132646760D02*
G01*
X147787674Y-132894370D01*
X148064497Y-133203124D01*
X148345355Y-133510705D01*
X148375167Y-133542950D01*
X148598177Y-133796358D01*
X148767447Y-134012623D01*
X148855469Y-134155686D01*
X148862000Y-134181085D01*
X148807542Y-134366347D01*
X148664618Y-134625635D01*
X148463904Y-134912645D01*
X148236076Y-135181074D01*
X148129729Y-135286383D01*
X147939275Y-135476855D01*
X147679364Y-135756639D01*
X147387951Y-136084144D01*
X147168667Y-136339487D01*
X146594474Y-137013580D01*
X146116654Y-137560522D01*
X145728520Y-137987524D01*
X145423388Y-138301795D01*
X145194573Y-138510547D01*
X145073167Y-138599658D01*
X144798000Y-138769962D01*
X144795930Y-137301148D01*
X144790334Y-136789385D01*
X144776170Y-136309549D01*
X144755197Y-135898748D01*
X144729174Y-135594089D01*
X144708817Y-135463510D01*
X144623774Y-135094686D01*
X145087798Y-134574510D01*
X145325037Y-134313335D01*
X145641097Y-133972071D01*
X145997108Y-133592380D01*
X146354201Y-133215922D01*
X146402560Y-133165333D01*
X147253298Y-132276333D01*
X147570816Y-132646760D01*
G37*
G36*
X107636270Y-120949244D02*
G01*
X107668537Y-121119176D01*
X107694137Y-121419748D01*
X107710897Y-121812326D01*
X107716646Y-122258278D01*
X107716137Y-122370106D01*
X107714179Y-122704105D01*
X107712430Y-123183780D01*
X107710926Y-123785475D01*
X107709703Y-124485532D01*
X107708797Y-125260295D01*
X107708244Y-126086106D01*
X107708080Y-126939310D01*
X107708225Y-127560307D01*
X107709908Y-131564947D01*
X108158903Y-132047640D01*
X108568345Y-132492563D01*
X108964873Y-132932156D01*
X109328572Y-133343587D01*
X109639526Y-133704022D01*
X109877819Y-133990627D01*
X110023537Y-134180569D01*
X110037841Y-134201869D01*
X110121665Y-134345660D01*
X110131020Y-134454380D01*
X110052777Y-134585421D01*
X109911945Y-134752203D01*
X109676036Y-135009063D01*
X109410071Y-135275516D01*
X109145282Y-135523071D01*
X108912899Y-135723235D01*
X108744153Y-135847516D01*
X108682157Y-135874146D01*
X108589352Y-135817186D01*
X108407988Y-135662589D01*
X108166163Y-135435454D01*
X107948168Y-135218500D01*
X107667859Y-134935165D01*
X107417470Y-134686329D01*
X107229234Y-134503788D01*
X107149344Y-134430458D01*
X107008996Y-134289994D01*
X106818338Y-134073858D01*
X106698000Y-133927628D01*
X106307009Y-133448661D01*
X105978496Y-133067800D01*
X105724831Y-132798924D01*
X105573725Y-132666238D01*
X105536864Y-132635994D01*
X105506018Y-132592581D01*
X105480790Y-132522126D01*
X105460781Y-132410756D01*
X105445592Y-132244601D01*
X105434824Y-132009786D01*
X105428080Y-131692440D01*
X105424958Y-131278690D01*
X105425062Y-130754664D01*
X105427993Y-130106490D01*
X105433351Y-129320295D01*
X105440738Y-128382206D01*
X105442913Y-128115240D01*
X105452945Y-127037666D01*
X105464222Y-126121780D01*
X105476968Y-125359938D01*
X105491411Y-124744498D01*
X105507774Y-124267816D01*
X105526284Y-123922250D01*
X105547166Y-123700156D01*
X105570646Y-123593892D01*
X105576602Y-123584864D01*
X105628091Y-123434533D01*
X105591039Y-123332238D01*
X105561859Y-123191949D01*
X105540902Y-122916072D01*
X105529636Y-122538215D01*
X105529529Y-122091988D01*
X105531501Y-121969375D01*
X105555000Y-120761667D01*
X107546808Y-120713941D01*
X107636270Y-120949244D01*
G37*
G36*
X144636866Y-112183464D02*
G01*
X144631667Y-112173606D01*
X144590294Y-112020650D01*
X144549945Y-111739852D01*
X144515506Y-111372663D01*
X144493595Y-111002396D01*
X144467483Y-110527472D01*
X144428198Y-110180895D01*
X144362681Y-109921681D01*
X144257875Y-109708844D01*
X144100723Y-109501400D01*
X143968660Y-109354705D01*
X143753906Y-109123744D01*
X144148953Y-108776010D01*
X144359219Y-108575972D01*
X144495245Y-108418343D01*
X144546130Y-108323174D01*
X144500970Y-108310521D01*
X144355828Y-108395532D01*
X144143349Y-108497240D01*
X143983751Y-108527333D01*
X143847940Y-108467134D01*
X143614565Y-108285410D01*
X143281899Y-107980471D01*
X142848219Y-107550626D01*
X142386056Y-107071214D01*
X145671214Y-107071214D01*
X145679290Y-107088000D01*
X145750026Y-107032007D01*
X145814000Y-106961000D01*
X145865518Y-106857860D01*
X145833426Y-106834000D01*
X145731537Y-106901628D01*
X145698716Y-106961000D01*
X145671214Y-107071214D01*
X142386056Y-107071214D01*
X142311799Y-106994185D01*
X141670914Y-106309458D01*
X141218736Y-105818000D01*
X140327748Y-104844333D01*
X141187041Y-104793403D01*
X141581265Y-104764969D01*
X141937805Y-104730216D01*
X142205696Y-104694537D01*
X142300334Y-104675555D01*
X142828351Y-104472461D01*
X143352370Y-104158662D01*
X143818264Y-103772739D01*
X144171910Y-103353273D01*
X144186216Y-103331267D01*
X144320897Y-103121449D01*
X144413405Y-102978491D01*
X144434694Y-102946340D01*
X144503662Y-102982401D01*
X144662850Y-103124846D01*
X144892100Y-103351644D01*
X145171255Y-103640765D01*
X145480156Y-103970177D01*
X145798645Y-104317850D01*
X146106565Y-104661753D01*
X146383756Y-104979855D01*
X146610062Y-105250125D01*
X146765325Y-105450533D01*
X146829385Y-105559047D01*
X146830000Y-105564190D01*
X146781779Y-105696322D01*
X146661086Y-105893351D01*
X146609060Y-105964683D01*
X146483992Y-106135699D01*
X146461563Y-106194807D01*
X146537058Y-106161048D01*
X146564614Y-106144129D01*
X146643449Y-106096991D01*
X146710946Y-106069247D01*
X146767971Y-106072534D01*
X146815393Y-106118492D01*
X146854079Y-106218758D01*
X146884895Y-106384971D01*
X146908711Y-106628770D01*
X146926392Y-106961793D01*
X146938807Y-107395679D01*
X146946822Y-107942065D01*
X146951306Y-108612592D01*
X146953125Y-109418897D01*
X146953148Y-110372618D01*
X146952367Y-111346734D01*
X146951171Y-112406246D01*
X146949393Y-113309755D01*
X146946630Y-114070589D01*
X146942479Y-114702077D01*
X146936539Y-115217549D01*
X146928406Y-115630334D01*
X146917679Y-115953761D01*
X146903954Y-116201160D01*
X146886831Y-116385859D01*
X146865906Y-116521188D01*
X146840777Y-116620476D01*
X146811042Y-116697053D01*
X146789568Y-116740000D01*
X146732314Y-116865816D01*
X146690752Y-117014822D01*
X146662580Y-117214573D01*
X146645494Y-117492624D01*
X146637192Y-117876532D01*
X146635371Y-118393851D01*
X146635748Y-118580662D01*
X146639282Y-119143523D01*
X146647792Y-119563229D01*
X146663566Y-119865937D01*
X146688895Y-120077806D01*
X146726069Y-120224991D01*
X146777378Y-120333650D01*
X146791120Y-120355486D01*
X146824382Y-120416211D01*
X146852590Y-120497927D01*
X146876265Y-120614603D01*
X146895929Y-120780211D01*
X146912104Y-121008719D01*
X146925312Y-121314098D01*
X146936073Y-121710319D01*
X146944909Y-122211350D01*
X146952343Y-122831163D01*
X146958895Y-123583727D01*
X146965087Y-124483012D01*
X146968965Y-125118824D01*
X146974766Y-126272610D01*
X146977249Y-127268124D01*
X146975981Y-128116401D01*
X146970534Y-128828478D01*
X146960474Y-129415391D01*
X146945372Y-129888175D01*
X146924795Y-130257867D01*
X146898314Y-130535503D01*
X146865497Y-130732119D01*
X146825912Y-130858750D01*
X146779129Y-130926434D01*
X146741396Y-130944741D01*
X146628829Y-130894166D01*
X146435694Y-130732388D01*
X146186306Y-130481146D01*
X146032236Y-130310723D01*
X145612235Y-129840119D01*
X145202671Y-129396133D01*
X144820430Y-128995753D01*
X144482397Y-128655972D01*
X144205459Y-128393778D01*
X144006501Y-128226162D01*
X143904657Y-128170000D01*
X143796123Y-128113057D01*
X143802434Y-127953538D01*
X143918499Y-127708403D01*
X144136150Y-127398505D01*
X144490301Y-126950472D01*
X144543041Y-125803402D01*
X144557672Y-125369529D01*
X144560621Y-124988685D01*
X144552320Y-124696879D01*
X144533202Y-124530122D01*
X144527558Y-124513733D01*
X144460837Y-124250356D01*
X144459996Y-123934049D01*
X144518201Y-123636342D01*
X144628619Y-123428762D01*
X144631490Y-123425843D01*
X144745673Y-123288197D01*
X144739711Y-123173822D01*
X144673824Y-123068338D01*
X144603990Y-122872720D01*
X144561439Y-122552650D01*
X144546193Y-122150799D01*
X144558274Y-121709841D01*
X144597703Y-121272447D01*
X144664501Y-120881289D01*
X144672694Y-120846333D01*
X144722620Y-120536039D01*
X144760373Y-120093366D01*
X144785921Y-119554832D01*
X144799234Y-118956957D01*
X144800280Y-118336259D01*
X144789028Y-117729256D01*
X144765445Y-117172468D01*
X144729502Y-116702412D01*
X144681165Y-116355607D01*
X144676569Y-116333380D01*
X144598712Y-115920942D01*
X144543217Y-115529247D01*
X144513226Y-115194062D01*
X144511883Y-114951151D01*
X144542332Y-114836280D01*
X144544830Y-114834487D01*
X144571907Y-114730920D01*
X144578541Y-114481147D01*
X144565427Y-114106969D01*
X144533265Y-113630187D01*
X144491159Y-113157343D01*
X144473518Y-112846735D01*
X144500787Y-112649337D01*
X144580467Y-112513210D01*
X144584928Y-112508220D01*
X144669820Y-112365555D01*
X144826222Y-112365555D01*
X144837845Y-112415890D01*
X144882667Y-112422000D01*
X144952357Y-112391022D01*
X144939111Y-112365555D01*
X144838632Y-112355422D01*
X144826222Y-112365555D01*
X144669820Y-112365555D01*
X144678640Y-112350733D01*
X144636866Y-112183464D01*
G37*
G36*
X136446502Y-123571851D02*
G01*
X135823026Y-124407629D01*
X135065565Y-125148271D01*
X134185712Y-125785127D01*
X133195064Y-126309548D01*
X132329963Y-126642517D01*
X131991039Y-126773823D01*
X131755287Y-126907276D01*
X131668578Y-126996044D01*
X131638518Y-127137706D01*
X131614709Y-127421198D01*
X131597788Y-127819111D01*
X131588393Y-128304036D01*
X131587161Y-128848562D01*
X131594729Y-129425282D01*
X131603862Y-129778667D01*
X131614413Y-130328780D01*
X131610744Y-130801988D01*
X131593625Y-131167958D01*
X131563828Y-131396357D01*
X131562623Y-131401257D01*
X131522236Y-131516130D01*
X131446725Y-131589552D01*
X131298039Y-131637204D01*
X131038129Y-131674768D01*
X130849372Y-131695209D01*
X130193000Y-131763570D01*
X130855093Y-131812877D01*
X131232865Y-131850916D01*
X131472444Y-131913520D01*
X131604969Y-132025575D01*
X131661580Y-132211968D01*
X131673370Y-132466833D01*
X131674667Y-132826667D01*
X131128501Y-132826667D01*
X130325801Y-132890843D01*
X129605484Y-133079474D01*
X129282834Y-133219623D01*
X128880667Y-133422186D01*
X128880667Y-132760359D01*
X128894060Y-132387850D01*
X128931299Y-132120675D01*
X128982267Y-131996933D01*
X129121478Y-131937642D01*
X129362209Y-131900377D01*
X129511434Y-131894037D01*
X129824168Y-131878198D01*
X130017373Y-131839612D01*
X130078761Y-131788323D01*
X129996045Y-131734376D01*
X129762800Y-131688544D01*
X129380584Y-131635434D01*
X129137939Y-131578227D01*
X129005867Y-131496772D01*
X128955369Y-131370920D01*
X128957445Y-131180521D01*
X128961710Y-131131914D01*
X128983247Y-130859310D01*
X128990539Y-130615858D01*
X128982438Y-130347908D01*
X128957797Y-130001812D01*
X128930968Y-129694000D01*
X128915487Y-129446710D01*
X128899718Y-129057738D01*
X128884382Y-128554732D01*
X128870206Y-127965341D01*
X128857912Y-127317213D01*
X128848224Y-126637997D01*
X128846184Y-126456150D01*
X128839580Y-125678377D01*
X128838219Y-125054510D01*
X128842552Y-124569190D01*
X128853030Y-124207060D01*
X128870105Y-123952760D01*
X128894230Y-123790931D01*
X128925854Y-123706214D01*
X128927083Y-123704484D01*
X129050007Y-123626243D01*
X129300791Y-123558667D01*
X129685337Y-123501334D01*
X130209547Y-123453818D01*
X130879323Y-123415697D01*
X131700567Y-123386547D01*
X132679182Y-123365945D01*
X133817716Y-123353490D01*
X136595766Y-123334036D01*
X136446502Y-123571851D01*
G37*
G36*
X136350547Y-86238833D02*
G01*
X136373667Y-87741667D01*
X141820300Y-87761028D01*
X147266933Y-87780390D01*
X147493677Y-87972695D01*
X147650218Y-88120210D01*
X147892238Y-88365853D01*
X148195233Y-88683041D01*
X148534703Y-89045190D01*
X148886145Y-89425719D01*
X149225056Y-89798044D01*
X149526937Y-90135584D01*
X149767283Y-90411755D01*
X149921594Y-90599974D01*
X149946122Y-90633403D01*
X150067453Y-90833622D01*
X150129789Y-90987097D01*
X150132000Y-91006597D01*
X150077705Y-91111036D01*
X149931266Y-91309390D01*
X149717353Y-91572986D01*
X149460637Y-91873149D01*
X149185786Y-92181205D01*
X148917470Y-92468479D01*
X148680360Y-92706298D01*
X148625047Y-92758167D01*
X148426787Y-92920918D01*
X148265510Y-93019654D01*
X148216752Y-93033333D01*
X148121873Y-92976256D01*
X147931804Y-92818821D01*
X147669760Y-92581724D01*
X147358958Y-92285663D01*
X147175873Y-92105421D01*
X146244028Y-91177508D01*
X141499448Y-91175725D01*
X140612396Y-91174423D01*
X139771490Y-91171318D01*
X138992826Y-91166598D01*
X138292501Y-91160447D01*
X137686614Y-91153051D01*
X137191262Y-91144597D01*
X136822542Y-91135269D01*
X136596552Y-91125254D01*
X136533710Y-91118436D01*
X136398692Y-91092459D01*
X136343571Y-91131503D01*
X136348724Y-91274361D01*
X136373948Y-91434298D01*
X136415676Y-91663785D01*
X136449233Y-91808979D01*
X136458067Y-91831005D01*
X136544865Y-91837685D01*
X136782505Y-91845840D01*
X137152508Y-91855094D01*
X137636391Y-91865073D01*
X138215676Y-91875400D01*
X138871881Y-91885701D01*
X139586525Y-91895600D01*
X139725340Y-91897379D01*
X142969891Y-91938413D01*
X143404167Y-92266295D01*
X143655876Y-92482837D01*
X143959248Y-92782719D01*
X144263404Y-93114525D01*
X144381722Y-93254164D01*
X144666454Y-93590841D01*
X144964039Y-93927709D01*
X145225624Y-94209960D01*
X145313213Y-94299243D01*
X145602839Y-94605165D01*
X145854017Y-94904852D01*
X146042129Y-95165854D01*
X146142554Y-95355720D01*
X146152667Y-95405679D01*
X146097582Y-95508008D01*
X145950787Y-95695915D01*
X145739975Y-95934909D01*
X145655317Y-96025161D01*
X145404295Y-96303806D01*
X145185303Y-96574043D01*
X145037945Y-96786338D01*
X145018143Y-96822167D01*
X144918932Y-97001977D01*
X144852750Y-97094143D01*
X144846261Y-97097333D01*
X144781981Y-97038030D01*
X144619954Y-96872030D01*
X144377148Y-96617194D01*
X144070526Y-96291385D01*
X143717056Y-95912464D01*
X143557269Y-95740222D01*
X143180375Y-95339643D01*
X142832919Y-94982267D01*
X142534094Y-94686890D01*
X142303092Y-94472306D01*
X142159107Y-94357307D01*
X142131000Y-94343581D01*
X142008146Y-94333533D01*
X141737065Y-94323145D01*
X141338861Y-94312844D01*
X140834639Y-94303055D01*
X140245503Y-94294205D01*
X139592557Y-94286721D01*
X139109272Y-94282526D01*
X136256876Y-94261000D01*
X136306348Y-94790167D01*
X136355820Y-95319333D01*
X133211404Y-95319333D01*
X133233825Y-94874833D01*
X133261304Y-94598019D01*
X133317004Y-94452220D01*
X133404614Y-94401452D01*
X133497289Y-94369229D01*
X133456788Y-94307984D01*
X133375824Y-94248484D01*
X133303994Y-94186751D01*
X133254679Y-94100063D01*
X133223684Y-93958657D01*
X133206817Y-93732770D01*
X133199883Y-93392639D01*
X133198667Y-92991196D01*
X133204836Y-92531550D01*
X133222121Y-92163768D01*
X133248690Y-91913427D01*
X133282709Y-91806107D01*
X133283644Y-91805474D01*
X133329825Y-91693363D01*
X133316523Y-91545378D01*
X133315225Y-91332383D01*
X133368913Y-91211900D01*
X133426811Y-91112401D01*
X133347024Y-91086082D01*
X133336034Y-91086000D01*
X133300513Y-91073416D01*
X133271642Y-91025227D01*
X133248742Y-90925778D01*
X133231136Y-90759414D01*
X133218147Y-90510479D01*
X133209097Y-90163318D01*
X133203309Y-89702276D01*
X133200107Y-89111697D01*
X133198812Y-88375926D01*
X133198667Y-87911000D01*
X133198667Y-84736000D01*
X136327426Y-84736000D01*
X136350547Y-86238833D01*
G37*
G36*
X115618220Y-107404426D02*
G01*
X115590761Y-107376187D01*
X118051837Y-107376187D01*
X118139919Y-107383537D01*
X118161990Y-107375819D01*
X118279593Y-107263228D01*
X118325435Y-107159016D01*
X118348190Y-107043077D01*
X118300949Y-107053677D01*
X118206778Y-107135662D01*
X118076034Y-107283318D01*
X118051837Y-107376187D01*
X115590761Y-107376187D01*
X115360756Y-107139650D01*
X115112064Y-106867861D01*
X114901555Y-106619727D01*
X114758645Y-106425916D01*
X114724031Y-106364170D01*
X114630304Y-106241333D01*
X119017000Y-106241333D01*
X119023713Y-106319352D01*
X119054337Y-106326000D01*
X119140555Y-106264539D01*
X119144000Y-106241333D01*
X119115113Y-106158868D01*
X119106664Y-106156667D01*
X119034378Y-106215995D01*
X119017000Y-106241333D01*
X114630304Y-106241333D01*
X114605899Y-106209349D01*
X114487831Y-106156667D01*
X114351260Y-106102172D01*
X114311470Y-106074715D01*
X119267614Y-106074715D01*
X119346370Y-106037507D01*
X119494857Y-105910601D01*
X119696610Y-105704214D01*
X119812956Y-105573670D01*
X120017507Y-105329240D01*
X120169669Y-105131575D01*
X120242131Y-105016577D01*
X120244667Y-105006154D01*
X120193372Y-105017391D01*
X120061033Y-105123095D01*
X119879968Y-105291943D01*
X119682497Y-105492614D01*
X119500938Y-105693785D01*
X119385143Y-105839167D01*
X119275050Y-106012007D01*
X119267614Y-106074715D01*
X114311470Y-106074715D01*
X114147525Y-105961586D01*
X113986769Y-105824864D01*
X113818078Y-105664248D01*
X113721448Y-105535497D01*
X113704760Y-105408544D01*
X113775895Y-105253317D01*
X113942732Y-105039747D01*
X114213153Y-104737765D01*
X114295250Y-104647799D01*
X114783667Y-104112599D01*
X115180952Y-104334809D01*
X115396869Y-104451118D01*
X115597793Y-104543628D01*
X115806933Y-104615574D01*
X116047501Y-104670195D01*
X116342703Y-104710727D01*
X116715751Y-104740406D01*
X117189854Y-104762470D01*
X117788221Y-104780154D01*
X118485863Y-104795701D01*
X120833393Y-104844333D01*
X120289590Y-105394667D01*
X119996871Y-105701522D01*
X119707138Y-106022908D01*
X119473233Y-106299811D01*
X119430640Y-106353915D01*
X119246494Y-106580580D01*
X119112811Y-106696110D01*
X118983581Y-106728534D01*
X118843237Y-106711755D01*
X118630730Y-106699042D01*
X118528812Y-106772931D01*
X118521481Y-106789673D01*
X118518732Y-106899908D01*
X118553991Y-106918667D01*
X118630304Y-106976886D01*
X118614235Y-107115068D01*
X118516046Y-107278495D01*
X118479196Y-107317535D01*
X118323700Y-107495767D01*
X118243119Y-107616949D01*
X118151081Y-107741118D01*
X117971113Y-107949508D01*
X117734721Y-108206302D01*
X117610096Y-108336615D01*
X117315095Y-108659290D01*
X117023690Y-109008224D01*
X116788080Y-109320170D01*
X116740770Y-109389898D01*
X116516392Y-109690248D01*
X116324409Y-109863687D01*
X116239431Y-109897898D01*
X116136036Y-109931977D01*
X116073241Y-110023950D01*
X116035071Y-110213504D01*
X116011334Y-110464576D01*
X116005432Y-110623842D01*
X115999774Y-110940237D01*
X115994418Y-111401559D01*
X115989418Y-111995603D01*
X115984832Y-112710167D01*
X115980716Y-113533047D01*
X115977127Y-114452039D01*
X115974121Y-115454941D01*
X115971755Y-116529548D01*
X115970084Y-117663657D01*
X115969167Y-118845065D01*
X115969000Y-119610698D01*
X115969000Y-128216576D01*
X117334854Y-129611455D01*
X117780775Y-130070554D01*
X118236215Y-130546010D01*
X118670706Y-131005545D01*
X119053776Y-131416883D01*
X119354957Y-131747747D01*
X119409188Y-131808782D01*
X119812691Y-132257641D01*
X120208718Y-132683302D01*
X120579457Y-133067983D01*
X120907096Y-133393901D01*
X121173822Y-133643275D01*
X121361824Y-133798322D01*
X121446525Y-133842667D01*
X121530415Y-133784368D01*
X121714146Y-133620624D01*
X121980311Y-133368158D01*
X122311498Y-133043697D01*
X122690300Y-132663967D01*
X122966733Y-132382167D01*
X123427084Y-131912835D01*
X123784865Y-131556127D01*
X124052880Y-131300721D01*
X124243934Y-131135295D01*
X124370833Y-131048529D01*
X124446381Y-131029101D01*
X124475016Y-131048667D01*
X124543013Y-131128204D01*
X124561039Y-131053445D01*
X124561370Y-131032301D01*
X124626636Y-130877283D01*
X124740962Y-130764052D01*
X124876248Y-130691682D01*
X125022303Y-130688876D01*
X125248665Y-130755425D01*
X125268743Y-130762474D01*
X125536254Y-130870157D01*
X125765102Y-130983924D01*
X125807135Y-131009556D01*
X126036361Y-131103025D01*
X126246097Y-131133333D01*
X126552314Y-131157767D01*
X126717700Y-131238032D01*
X126743157Y-131384570D01*
X126629588Y-131607825D01*
X126377896Y-131918239D01*
X126319500Y-131982537D01*
X125835610Y-132521181D01*
X125472984Y-132952306D01*
X125232846Y-133274314D01*
X125116419Y-133485605D01*
X125108375Y-133564811D01*
X125144553Y-133741149D01*
X125155409Y-133913091D01*
X125164163Y-134039742D01*
X125217425Y-134104890D01*
X125355856Y-134125675D01*
X125620121Y-134119236D01*
X125642243Y-134118300D01*
X125992340Y-134099428D01*
X126410485Y-134071294D01*
X126741611Y-134045314D01*
X127242706Y-134022067D01*
X127592558Y-134057543D01*
X127801870Y-134160991D01*
X127881342Y-134341659D01*
X127841676Y-134608795D01*
X127728193Y-134897906D01*
X127557922Y-135391902D01*
X127468939Y-135973018D01*
X127463246Y-136048622D01*
X127417137Y-136721333D01*
X126812378Y-136721333D01*
X126436274Y-136707047D01*
X126196804Y-136660518D01*
X126074802Y-136588516D01*
X126038787Y-136554839D01*
X125994517Y-136526721D01*
X125928010Y-136503885D01*
X125825286Y-136486052D01*
X125672361Y-136472946D01*
X125455254Y-136464288D01*
X125159983Y-136459802D01*
X124772566Y-136459209D01*
X124279021Y-136462232D01*
X123665366Y-136468593D01*
X122917620Y-136478015D01*
X122021799Y-136490221D01*
X121493523Y-136497566D01*
X120792945Y-136508822D01*
X120137119Y-136522218D01*
X119547589Y-136537095D01*
X119045900Y-136552795D01*
X118653596Y-136568662D01*
X118392219Y-136584037D01*
X118292955Y-136595295D01*
X118217007Y-136611316D01*
X118147024Y-136615329D01*
X118070792Y-136595951D01*
X117976099Y-136541795D01*
X117850730Y-136441479D01*
X117682472Y-136283617D01*
X117459114Y-136056825D01*
X117168440Y-135749719D01*
X116798238Y-135350913D01*
X116336295Y-134849025D01*
X115842000Y-134310657D01*
X115436709Y-133871505D01*
X115053861Y-133460971D01*
X114713254Y-133099951D01*
X114434689Y-132809342D01*
X114237963Y-132610041D01*
X114165508Y-132541255D01*
X113870095Y-132226067D01*
X113718319Y-131913316D01*
X113691043Y-131558780D01*
X113700384Y-131466543D01*
X113747253Y-131213320D01*
X113807873Y-131025544D01*
X113830001Y-130987336D01*
X113894155Y-130817087D01*
X113925330Y-130559251D01*
X113921348Y-130289355D01*
X113880034Y-130082925D01*
X113857284Y-130040866D01*
X113833850Y-129923699D01*
X113812674Y-129637516D01*
X113793764Y-129182620D01*
X113777129Y-128559316D01*
X113762774Y-127767905D01*
X113750709Y-126808691D01*
X113740940Y-125681976D01*
X113738598Y-125333479D01*
X113709529Y-120744892D01*
X113924337Y-120320989D01*
X114004229Y-120152196D01*
X114062738Y-119987867D01*
X114104183Y-119796278D01*
X114132888Y-119545703D01*
X114153172Y-119204417D01*
X114169357Y-118740694D01*
X114176901Y-118466710D01*
X114189957Y-117942853D01*
X114195258Y-117558174D01*
X114189795Y-117282587D01*
X114170558Y-117086004D01*
X114134539Y-116938338D01*
X114078728Y-116809499D01*
X114000115Y-116669402D01*
X113996519Y-116663249D01*
X113778379Y-116290166D01*
X113789806Y-113742249D01*
X113792532Y-113089772D01*
X113794693Y-112482013D01*
X113796235Y-111942471D01*
X113797103Y-111494644D01*
X113797243Y-111162032D01*
X113796602Y-110968135D01*
X113796245Y-110940333D01*
X113794190Y-110780622D01*
X113791328Y-110481251D01*
X113787905Y-110071889D01*
X113784167Y-109582207D01*
X113780357Y-109041875D01*
X113779462Y-108908333D01*
X113771808Y-108248679D01*
X113757961Y-107741200D01*
X113736839Y-107368816D01*
X113707358Y-107114447D01*
X113668436Y-106961011D01*
X113654083Y-106930918D01*
X113586225Y-106720947D01*
X113583046Y-106490123D01*
X113634710Y-106292061D01*
X113731381Y-106180380D01*
X113793016Y-106173590D01*
X113929736Y-106264495D01*
X114046809Y-106432869D01*
X114165521Y-106597871D01*
X114290276Y-106664667D01*
X114450960Y-106729282D01*
X114681072Y-106903512D01*
X114953387Y-107157931D01*
X115240679Y-107463114D01*
X115515722Y-107789636D01*
X115751293Y-108108073D01*
X115920164Y-108388999D01*
X115954495Y-108463344D01*
X116127038Y-108721874D01*
X116319723Y-108825993D01*
X116603172Y-108875296D01*
X116811098Y-108818652D01*
X117006167Y-108645262D01*
X117149302Y-108458652D01*
X117189816Y-108346016D01*
X117127508Y-108329087D01*
X117008495Y-108395532D01*
X116816804Y-108495830D01*
X116682950Y-108527333D01*
X116497712Y-108454148D01*
X116340957Y-108276784D01*
X116266245Y-108058529D01*
X116265334Y-108033833D01*
X116220309Y-107888795D01*
X116149097Y-107850000D01*
X116041804Y-107790269D01*
X115924615Y-107690660D01*
X117704667Y-107690660D01*
X117756833Y-107736563D01*
X117789334Y-107723000D01*
X117870839Y-107610841D01*
X117874000Y-107586006D01*
X117821834Y-107540103D01*
X117789334Y-107553667D01*
X117707828Y-107665826D01*
X117704667Y-107690660D01*
X115924615Y-107690660D01*
X115855040Y-107631522D01*
X115618220Y-107404426D01*
G37*
G36*
X136332935Y-56647833D02*
G01*
X136333837Y-57885305D01*
X136335900Y-59218627D01*
X136339011Y-60615745D01*
X136343058Y-62044604D01*
X136347931Y-63473151D01*
X136353516Y-64869331D01*
X136359702Y-66201090D01*
X136366377Y-67436373D01*
X136373430Y-68543127D01*
X136375406Y-68818667D01*
X136381678Y-69785675D01*
X136386045Y-70712650D01*
X136388539Y-71584051D01*
X136389192Y-72384338D01*
X136388035Y-73097969D01*
X136385102Y-73709404D01*
X136380424Y-74203102D01*
X136374033Y-74563523D01*
X136365961Y-74775124D01*
X136363032Y-74808833D01*
X136309789Y-75253333D01*
X133200574Y-75253333D01*
X133200354Y-62638000D01*
X133200135Y-50022667D01*
X136331334Y-50022667D01*
X136332935Y-56647833D01*
G37*
G36*
X154525759Y-115921432D02*
G01*
X154772218Y-116006103D01*
X154864296Y-116149284D01*
X154843130Y-116273255D01*
X154789687Y-116331479D01*
X154664053Y-116369648D01*
X154438296Y-116391419D01*
X154084484Y-116400450D01*
X153864988Y-116401333D01*
X153469041Y-116393959D01*
X153151260Y-116373750D01*
X152944935Y-116343580D01*
X152883667Y-116316667D01*
X152875832Y-116180113D01*
X153017756Y-116063041D01*
X153290360Y-115971964D01*
X153674567Y-115913397D01*
X154122133Y-115893805D01*
X154525759Y-115921432D01*
G37*
G36*
X122907334Y-91867442D02*
G01*
X123463666Y-91870423D01*
X123915184Y-91875242D01*
X124242854Y-91881780D01*
X124427640Y-91889919D01*
X124456834Y-91893493D01*
X124535094Y-91917866D01*
X124588329Y-91968815D01*
X124621354Y-92074772D01*
X124638985Y-92264168D01*
X124646040Y-92565435D01*
X124647333Y-93007003D01*
X124647334Y-93018013D01*
X124639115Y-93560679D01*
X124614265Y-93938203D01*
X124572492Y-94153988D01*
X124545733Y-94201733D01*
X124427522Y-94236379D01*
X124166268Y-94264441D01*
X123788131Y-94286018D01*
X123319270Y-94301208D01*
X122785845Y-94310109D01*
X122214014Y-94312820D01*
X121629936Y-94309439D01*
X121059772Y-94300064D01*
X120529679Y-94284795D01*
X120065818Y-94263729D01*
X119694346Y-94236965D01*
X119441425Y-94204601D01*
X119356680Y-94182213D01*
X119154963Y-94113369D01*
X118989831Y-94117867D01*
X118777109Y-94201303D01*
X118729844Y-94223892D01*
X118499416Y-94374022D01*
X118227709Y-94606667D01*
X117990296Y-94853012D01*
X117778009Y-95093087D01*
X117623606Y-95232267D01*
X117474575Y-95298059D01*
X117278404Y-95317968D01*
X117100019Y-95319333D01*
X116522156Y-95358184D01*
X115961534Y-95465579D01*
X115485542Y-95627779D01*
X115409730Y-95663913D01*
X115104459Y-95818297D01*
X114823674Y-95528600D01*
X114704670Y-95398614D01*
X114632326Y-95282185D01*
X114616624Y-95159339D01*
X114667540Y-95010107D01*
X114795055Y-94814515D01*
X115009147Y-94552592D01*
X115319795Y-94204367D01*
X115683321Y-93808117D01*
X116036117Y-93421198D01*
X116376674Y-93040733D01*
X116675870Y-92699750D01*
X116904584Y-92431274D01*
X116989809Y-92326451D01*
X117333284Y-91890333D01*
X120799809Y-91870714D01*
X121556371Y-91867469D01*
X122265224Y-91866418D01*
X122907334Y-91867442D01*
G37*
G36*
X127096990Y-86349153D02*
G01*
X127095258Y-86854943D01*
X127098528Y-87301077D01*
X127106210Y-87660508D01*
X127117713Y-87906191D01*
X127132446Y-88011080D01*
X127133329Y-88012218D01*
X127230127Y-88009450D01*
X127298116Y-87966792D01*
X127415198Y-87939105D01*
X127676221Y-87916829D01*
X128055881Y-87899819D01*
X128528877Y-87887932D01*
X129069906Y-87881025D01*
X129653667Y-87878953D01*
X130254857Y-87881574D01*
X130848174Y-87888743D01*
X131408316Y-87900318D01*
X131909980Y-87916154D01*
X132327865Y-87936107D01*
X132636668Y-87960035D01*
X132811088Y-87987794D01*
X132835483Y-87998224D01*
X132887135Y-88061197D01*
X132925200Y-88179661D01*
X132952201Y-88377984D01*
X132970657Y-88680533D01*
X132983088Y-89111678D01*
X132989314Y-89485486D01*
X132991465Y-89962237D01*
X132985031Y-90386243D01*
X132971145Y-90725605D01*
X132950943Y-90948423D01*
X132934881Y-91015804D01*
X132900271Y-91056457D01*
X132831491Y-91088516D01*
X132710391Y-91112950D01*
X132518817Y-91130732D01*
X132238619Y-91142831D01*
X131851643Y-91150220D01*
X131339738Y-91153868D01*
X130684752Y-91154746D01*
X130341771Y-91154500D01*
X129612192Y-91152881D01*
X129031374Y-91149034D01*
X128578749Y-91141796D01*
X128233749Y-91130002D01*
X127975804Y-91112489D01*
X127784346Y-91088094D01*
X127638807Y-91055652D01*
X127518618Y-91014000D01*
X127467145Y-90991862D01*
X127248872Y-90896647D01*
X127104734Y-90839430D01*
X127078020Y-90832000D01*
X127064411Y-90907622D01*
X127061305Y-91099228D01*
X127066752Y-91353926D01*
X127078804Y-91618826D01*
X127095513Y-91841035D01*
X127114931Y-91967663D01*
X127120252Y-91978474D01*
X127213633Y-91981170D01*
X127405736Y-91949877D01*
X127448453Y-91940609D01*
X127678214Y-91910882D01*
X127954327Y-91904233D01*
X128215180Y-91918572D01*
X128399164Y-91951811D01*
X128442528Y-91974306D01*
X128458626Y-92066894D01*
X128477931Y-92294433D01*
X128498010Y-92622634D01*
X128516336Y-93014826D01*
X128530391Y-93515488D01*
X128516791Y-93870395D01*
X128462301Y-94102513D01*
X128353683Y-94234804D01*
X128177701Y-94290234D01*
X127921120Y-94291765D01*
X127786037Y-94281852D01*
X127498050Y-94249451D01*
X127265998Y-94208905D01*
X127177124Y-94183250D01*
X127106832Y-94170819D01*
X127070976Y-94231071D01*
X127064091Y-94395169D01*
X127080712Y-94694274D01*
X127082667Y-94721813D01*
X127125420Y-95319333D01*
X124748113Y-95319333D01*
X124792278Y-94959500D01*
X124847320Y-94685848D01*
X124928676Y-94456735D01*
X124950419Y-94416931D01*
X125019886Y-94265001D01*
X124972790Y-94160815D01*
X124932966Y-94125119D01*
X124878518Y-94056522D01*
X124845603Y-93940330D01*
X124832417Y-93747079D01*
X124837158Y-93447301D01*
X124858023Y-93011534D01*
X124861272Y-92953188D01*
X124889828Y-92540565D01*
X124924349Y-92186791D01*
X124960633Y-91927719D01*
X124994482Y-91799205D01*
X124996882Y-91795733D01*
X125006999Y-91669007D01*
X124942803Y-91593283D01*
X124859825Y-91498094D01*
X124881643Y-91387783D01*
X124943711Y-91285716D01*
X125027592Y-91116653D01*
X124999784Y-90972627D01*
X124955420Y-90895500D01*
X124888261Y-90705423D01*
X124857533Y-90394903D01*
X124859160Y-89985333D01*
X124872166Y-89509388D01*
X124882539Y-88998780D01*
X124889943Y-88489006D01*
X124894044Y-88015566D01*
X124894504Y-87613958D01*
X124890989Y-87319681D01*
X124885587Y-87191333D01*
X124880477Y-87028900D01*
X124878532Y-86736625D01*
X124879766Y-86353970D01*
X124884195Y-85920397D01*
X124885071Y-85857833D01*
X124901334Y-84736000D01*
X127110563Y-84736000D01*
X127096990Y-86349153D01*
G37*
G36*
X152927936Y-124315949D02*
G01*
X152932193Y-123946934D01*
X152946609Y-123628753D01*
X152971288Y-123401301D01*
X153004817Y-123305282D01*
X153110905Y-123317421D01*
X153197884Y-123497088D01*
X153265920Y-123844644D01*
X153272404Y-123894333D01*
X153325492Y-124317667D01*
X153337413Y-123887162D01*
X153362309Y-123601862D01*
X153437076Y-123411021D01*
X153591489Y-123240957D01*
X153602600Y-123230995D01*
X153859622Y-123049464D01*
X154060871Y-123016329D01*
X154208967Y-123134882D01*
X154306528Y-123408416D01*
X154356172Y-123840223D01*
X154364037Y-124188339D01*
X154358291Y-124608178D01*
X154337519Y-124890597D01*
X154294016Y-125067352D01*
X154220075Y-125170196D01*
X154111334Y-125229620D01*
X154095609Y-125263020D01*
X154220048Y-125283195D01*
X154257887Y-125284649D01*
X154391381Y-125278815D01*
X154488121Y-125238659D01*
X154553250Y-125141462D01*
X154591913Y-124964501D01*
X154609252Y-124685056D01*
X154610412Y-124280407D01*
X154601383Y-123767333D01*
X154577000Y-122624333D01*
X153913871Y-122599480D01*
X153579045Y-122590716D01*
X153376155Y-122600558D01*
X153268149Y-122636756D01*
X153217979Y-122707060D01*
X153205496Y-122747646D01*
X153138387Y-122900559D01*
X153071759Y-122900692D01*
X153023681Y-122763688D01*
X153010667Y-122579021D01*
X152976281Y-122300684D01*
X152891735Y-122058798D01*
X152873821Y-122028522D01*
X152799531Y-121871826D01*
X152771866Y-121670078D01*
X152785760Y-121371175D01*
X152797959Y-121248335D01*
X152842233Y-120950692D01*
X152899325Y-120722680D01*
X152955971Y-120614796D01*
X153095757Y-120578780D01*
X153351568Y-120556727D01*
X153680626Y-120547781D01*
X154040151Y-120551088D01*
X154387366Y-120565792D01*
X154679491Y-120591040D01*
X154873749Y-120625977D01*
X154927735Y-120654193D01*
X154955346Y-120781375D01*
X154974458Y-121032875D01*
X154982287Y-121363770D01*
X154981466Y-121521064D01*
X154989146Y-121983654D01*
X155028875Y-122286366D01*
X155102832Y-122436002D01*
X155213198Y-122439362D01*
X155264565Y-122404175D01*
X155333556Y-122355745D01*
X155383317Y-122369458D01*
X155430431Y-122474347D01*
X155491479Y-122699444D01*
X155535379Y-122878333D01*
X155617832Y-123217000D01*
X155626583Y-122874100D01*
X155656473Y-122629967D01*
X155719711Y-122452594D01*
X155739047Y-122427487D01*
X155797514Y-122313339D01*
X155737823Y-122157933D01*
X155723896Y-122135387D01*
X155691427Y-122056502D01*
X155665725Y-121923237D01*
X155646289Y-121719412D01*
X155632617Y-121428843D01*
X155624207Y-121035351D01*
X155620556Y-120522751D01*
X155621164Y-119874865D01*
X155625527Y-119075508D01*
X155626164Y-118984741D01*
X155631633Y-118294520D01*
X155637709Y-117660178D01*
X155644124Y-117101051D01*
X155650614Y-116636474D01*
X155656912Y-116285782D01*
X155662751Y-116068312D01*
X155667238Y-116002540D01*
X155754152Y-115994074D01*
X155981678Y-115983453D01*
X156321124Y-115971710D01*
X156743798Y-115959879D01*
X157059873Y-115952403D01*
X157588987Y-115943238D01*
X157973413Y-115943612D01*
X158237608Y-115955102D01*
X158406030Y-115979286D01*
X158503137Y-116017739D01*
X158536783Y-116047638D01*
X158565106Y-116163646D01*
X158590984Y-116424457D01*
X158614106Y-116805555D01*
X158634161Y-117282423D01*
X158650838Y-117830543D01*
X158663825Y-118425400D01*
X158672813Y-119042477D01*
X158677491Y-119657256D01*
X158677546Y-120245222D01*
X158672669Y-120781857D01*
X158662548Y-121242645D01*
X158646872Y-121603069D01*
X158625331Y-121838612D01*
X158611076Y-121905463D01*
X158574302Y-122147317D01*
X158623133Y-122460342D01*
X158654417Y-122574414D01*
X158753927Y-122852299D01*
X158840755Y-122983439D01*
X158904781Y-122962818D01*
X158935887Y-122785416D01*
X158937334Y-122714705D01*
X158972191Y-122483238D01*
X159084545Y-122381513D01*
X159085500Y-122381235D01*
X159249824Y-122356258D01*
X159525721Y-122334762D01*
X159855434Y-122319448D01*
X160181205Y-122313016D01*
X160440167Y-122317890D01*
X160630667Y-122328000D01*
X160630667Y-125723512D01*
X159546071Y-125704161D01*
X159130867Y-125699541D01*
X158776105Y-125700831D01*
X158516609Y-125707527D01*
X158387205Y-125719131D01*
X158381904Y-125720904D01*
X158272738Y-125732213D01*
X158026736Y-125738772D01*
X157676338Y-125740272D01*
X157253982Y-125736400D01*
X157078649Y-125733404D01*
X156560490Y-125719212D01*
X156187475Y-125697954D01*
X155935469Y-125666972D01*
X155780340Y-125623605D01*
X155714955Y-125583101D01*
X155589078Y-125502724D01*
X155493340Y-125555096D01*
X155482873Y-125567336D01*
X155379108Y-125618704D01*
X155154432Y-125656914D01*
X154793086Y-125683670D01*
X154279309Y-125700676D01*
X154242857Y-125701432D01*
X153094914Y-125724587D01*
X153010457Y-125502448D01*
X152975099Y-125329047D01*
X152949492Y-125046900D01*
X152941778Y-124875055D01*
X153271944Y-124875055D01*
X153286203Y-125060798D01*
X153321111Y-125150222D01*
X153394769Y-125184325D01*
X153395354Y-125068637D01*
X153353811Y-124906077D01*
X153301688Y-124741482D01*
X153280115Y-124732894D01*
X153271985Y-124873829D01*
X153271944Y-124875055D01*
X152941778Y-124875055D01*
X152933736Y-124695902D01*
X152927936Y-124315949D01*
G37*
G36*
X143075897Y-128814832D02*
G01*
X143062334Y-128847333D01*
X142950174Y-128928839D01*
X142925340Y-128932000D01*
X142879437Y-128879834D01*
X142893000Y-128847333D01*
X143005159Y-128765827D01*
X143029994Y-128762667D01*
X143075897Y-128814832D01*
G37*
G36*
X119661170Y-61516167D02*
G01*
X119662321Y-62908786D01*
X119663516Y-64261764D01*
X119664742Y-65564691D01*
X119665986Y-66807159D01*
X119667236Y-67978758D01*
X119668478Y-69069080D01*
X119669700Y-70067715D01*
X119670888Y-70964255D01*
X119672030Y-71748291D01*
X119673112Y-72409414D01*
X119674122Y-72937215D01*
X119675047Y-73321286D01*
X119675874Y-73551216D01*
X119676217Y-73602333D01*
X119676980Y-74009600D01*
X119672839Y-74445543D01*
X119667047Y-74724167D01*
X119652000Y-75253333D01*
X116434667Y-75253333D01*
X116434667Y-50022667D01*
X119652000Y-50022667D01*
X119661170Y-61516167D01*
G37*
G36*
X153742806Y-138363936D02*
G01*
X153952928Y-138588948D01*
X154037010Y-138689833D01*
X154280157Y-138977719D01*
X154578177Y-139318754D01*
X154869781Y-139642882D01*
X154891560Y-139666597D01*
X155146076Y-139953879D01*
X155313021Y-140189007D01*
X155386981Y-140398564D01*
X155362541Y-140609135D01*
X155234287Y-140847301D01*
X154996805Y-141139645D01*
X154644680Y-141512752D01*
X154481617Y-141679275D01*
X154142196Y-142030598D01*
X153824982Y-142369979D01*
X153559157Y-142665422D01*
X153373906Y-142884932D01*
X153332929Y-142938693D01*
X153093597Y-143244884D01*
X152739618Y-143661186D01*
X152277868Y-144179786D01*
X151715226Y-144792873D01*
X151453648Y-145073289D01*
X151172047Y-145365532D01*
X150968075Y-145550943D01*
X150810286Y-145652215D01*
X150667233Y-145692039D01*
X150590693Y-145696000D01*
X150424361Y-145675647D01*
X150271562Y-145595879D01*
X150092295Y-145428635D01*
X149904046Y-145214304D01*
X149617104Y-144886655D01*
X149289695Y-144530090D01*
X149052500Y-144282991D01*
X148835852Y-144043850D01*
X148677640Y-143831087D01*
X148608791Y-143686885D01*
X148608000Y-143676723D01*
X148647291Y-143524551D01*
X148771301Y-143309016D01*
X148989238Y-143018130D01*
X149310309Y-142639905D01*
X149743720Y-142162352D01*
X149898718Y-141996120D01*
X150287477Y-141574590D01*
X150721822Y-141093008D01*
X151144559Y-140615301D01*
X151451685Y-140260454D01*
X151927743Y-139708201D01*
X152309977Y-139279013D01*
X152608730Y-138962451D01*
X152834343Y-138748074D01*
X152997160Y-138625444D01*
X153107523Y-138584122D01*
X153112600Y-138584000D01*
X153273057Y-138517913D01*
X153368982Y-138414667D01*
X153476047Y-138287181D01*
X153592251Y-138266809D01*
X153742806Y-138363936D01*
G37*
G36*
X141153861Y-130840217D02*
G01*
X141101063Y-130940360D01*
X140958417Y-131124059D01*
X140755007Y-131354332D01*
X140721102Y-131390550D01*
X140528907Y-131585580D01*
X140404006Y-131694826D01*
X140366861Y-131701073D01*
X140375259Y-131681476D01*
X140478027Y-131525663D01*
X140633800Y-131330427D01*
X140810921Y-131129973D01*
X140977735Y-130958506D01*
X141102583Y-130850228D01*
X141153810Y-130839344D01*
X141153861Y-130840217D01*
G37*
G36*
X148920961Y-116017905D02*
G01*
X149129277Y-116106204D01*
X149200667Y-116235836D01*
X149185637Y-116318248D01*
X149117959Y-116367710D01*
X148963747Y-116392468D01*
X148689116Y-116400769D01*
X148520676Y-116401333D01*
X148162517Y-116394164D01*
X147941357Y-116368854D01*
X147825319Y-116319700D01*
X147790550Y-116270682D01*
X147763805Y-116160340D01*
X147811902Y-116092600D01*
X147967847Y-116046761D01*
X148206101Y-116010070D01*
X148603822Y-115983724D01*
X148920961Y-116017905D01*
G37*
G36*
X128177299Y-162516242D02*
G01*
X128262066Y-162697332D01*
X128288000Y-163017258D01*
X128271278Y-163214649D01*
X128196661Y-163294185D01*
X128076334Y-163306667D01*
X127950711Y-163292941D01*
X127888042Y-163222896D01*
X127866672Y-163053227D01*
X127864667Y-162883333D01*
X127874226Y-162628164D01*
X127913187Y-162501006D01*
X127996975Y-162461115D01*
X128024942Y-162460000D01*
X128177299Y-162516242D01*
G37*
G36*
X116408632Y-162516242D02*
G01*
X116493399Y-162697332D01*
X116519334Y-163017258D01*
X116502611Y-163214649D01*
X116427994Y-163294185D01*
X116307667Y-163306667D01*
X116182045Y-163292941D01*
X116119375Y-163222896D01*
X116098005Y-163053227D01*
X116096000Y-162883333D01*
X116105559Y-162628164D01*
X116144520Y-162501006D01*
X116228309Y-162461115D01*
X116256275Y-162460000D01*
X116408632Y-162516242D01*
G37*
G36*
X126861521Y-99171457D02*
G01*
X126905080Y-99022690D01*
X126966551Y-98894741D01*
X126977604Y-98875333D01*
X127252606Y-98557005D01*
X127626763Y-98339378D01*
X128062896Y-98222718D01*
X128523825Y-98207295D01*
X128972371Y-98293375D01*
X129371353Y-98481228D01*
X129683593Y-98771121D01*
X129741183Y-98855409D01*
X129844979Y-99065098D01*
X129911814Y-99319838D01*
X129952181Y-99668653D01*
X129966399Y-99907735D01*
X130002046Y-100653333D01*
X128196485Y-100653333D01*
X128221076Y-101351833D01*
X128236879Y-101696152D01*
X128260661Y-101904564D01*
X128301702Y-102010491D01*
X128369279Y-102047355D01*
X128415000Y-102050333D01*
X128506351Y-102031834D01*
X128561036Y-101951990D01*
X128591476Y-101774284D01*
X128609369Y-101478833D01*
X128634404Y-100907333D01*
X129981334Y-100907333D01*
X129981334Y-101376373D01*
X129911737Y-101902219D01*
X129710012Y-102346563D01*
X129386751Y-102686495D01*
X129369790Y-102698774D01*
X129037263Y-102851255D01*
X128613535Y-102927598D01*
X128159784Y-102925523D01*
X127737185Y-102842749D01*
X127549237Y-102766643D01*
X127273104Y-102577050D01*
X127039665Y-102334576D01*
X126998904Y-102275343D01*
X126927206Y-102149515D01*
X126875869Y-102019049D01*
X126841518Y-101854038D01*
X126820778Y-101624576D01*
X126810275Y-101300756D01*
X126806635Y-100852672D01*
X126806334Y-100568667D01*
X126808281Y-100039646D01*
X126816125Y-99650237D01*
X126824667Y-99507676D01*
X128203334Y-99507676D01*
X128211529Y-99743484D01*
X128253749Y-99855598D01*
X128356443Y-99889487D01*
X128426508Y-99891333D01*
X128559997Y-99881485D01*
X128617331Y-99822345D01*
X128617480Y-99669517D01*
X128595477Y-99495858D01*
X128551900Y-99221617D01*
X128504347Y-99083002D01*
X128432425Y-99047103D01*
X128333985Y-99073883D01*
X128241829Y-99181474D01*
X128204754Y-99425035D01*
X128203334Y-99507676D01*
X126824667Y-99507676D01*
X126832871Y-99370740D01*
X126861521Y-99171457D01*
G37*
G36*
X139464000Y-97859333D02*
G01*
X139472295Y-98150915D01*
X139494127Y-98361527D01*
X139524915Y-98448633D01*
X139527500Y-98449000D01*
X139640769Y-98408505D01*
X139802667Y-98325000D01*
X140148728Y-98215344D01*
X140537281Y-98230023D01*
X140829541Y-98330623D01*
X140977405Y-98421147D01*
X141092990Y-98535418D01*
X141180189Y-98693921D01*
X141242895Y-98917146D01*
X141285000Y-99225580D01*
X141310398Y-99639709D01*
X141322981Y-100180023D01*
X141326642Y-100867008D01*
X141326667Y-100946947D01*
X141326667Y-102854667D01*
X139887334Y-102854667D01*
X139887334Y-100996997D01*
X139884753Y-100338337D01*
X139875473Y-99833661D01*
X139857188Y-99467676D01*
X139827591Y-99225090D01*
X139784374Y-99090611D01*
X139725232Y-99048945D01*
X139647858Y-99084800D01*
X139604790Y-99123830D01*
X139565717Y-99241068D01*
X139533745Y-99510552D01*
X139508575Y-99936864D01*
X139489910Y-100524588D01*
X139480501Y-101038386D01*
X139454668Y-102854667D01*
X138109334Y-102854667D01*
X138109334Y-97266667D01*
X139464000Y-97266667D01*
X139464000Y-97859333D01*
G37*
G36*
X150448175Y-134838787D02*
G01*
X150644491Y-135002964D01*
X150869428Y-135231949D01*
X151089713Y-135488112D01*
X151272076Y-135733827D01*
X151383243Y-135931465D01*
X151402000Y-136007777D01*
X151339196Y-136208359D01*
X151151752Y-136519749D01*
X150841120Y-136939730D01*
X150579270Y-137263360D01*
X150454001Y-137442756D01*
X150449796Y-137546355D01*
X150481034Y-137574407D01*
X150542964Y-137655255D01*
X150476022Y-137773214D01*
X150361077Y-137873127D01*
X150265397Y-137906163D01*
X150240262Y-137860792D01*
X150259000Y-137822000D01*
X150255130Y-137743856D01*
X150226660Y-137737333D01*
X150113821Y-137786703D01*
X150095196Y-137881995D01*
X150152639Y-137932982D01*
X150180245Y-138010563D01*
X150066103Y-138171356D01*
X150024649Y-138215380D01*
X149817120Y-138443886D01*
X149628485Y-138673735D01*
X149616337Y-138689833D01*
X149467283Y-138856349D01*
X149360687Y-138918302D01*
X149323238Y-138867309D01*
X149346753Y-138774500D01*
X149378143Y-138674949D01*
X149333611Y-138696872D01*
X149254031Y-138773850D01*
X149159968Y-138917104D01*
X149159533Y-139009273D01*
X149130696Y-139107469D01*
X149004001Y-139284098D01*
X148805994Y-139502720D01*
X148783931Y-139524855D01*
X148572069Y-139746826D01*
X148418526Y-139929089D01*
X148354346Y-140034568D01*
X148354000Y-140038362D01*
X148308527Y-140159459D01*
X148197025Y-140344078D01*
X148176651Y-140373258D01*
X148005058Y-140550819D01*
X147846167Y-140573719D01*
X147707482Y-140593977D01*
X147494880Y-140728782D01*
X147193492Y-140987610D01*
X147186700Y-140993892D01*
X146930266Y-141213578D01*
X146701743Y-141378110D01*
X146541953Y-141458902D01*
X146517237Y-141462667D01*
X146381544Y-141398695D01*
X146173243Y-141223050D01*
X145920508Y-140960138D01*
X145867935Y-140900188D01*
X145596329Y-140563456D01*
X145445793Y-140318713D01*
X145406742Y-140150234D01*
X145407382Y-140144718D01*
X145439933Y-140053203D01*
X145524116Y-139913903D01*
X145667907Y-139717399D01*
X145879284Y-139454269D01*
X146166221Y-139115095D01*
X146536695Y-138690456D01*
X146998682Y-138170931D01*
X147560159Y-137547101D01*
X148229101Y-136809545D01*
X148260892Y-136774591D01*
X148771119Y-136215231D01*
X149181647Y-135769683D01*
X149505432Y-135425339D01*
X149755432Y-135169590D01*
X149944605Y-134989828D01*
X150085909Y-134873445D01*
X150192300Y-134807831D01*
X150276737Y-134780379D01*
X150313751Y-134777045D01*
X150448175Y-134838787D01*
G37*
G36*
X158084040Y-125913707D02*
G01*
X158395658Y-125929362D01*
X158574349Y-125954976D01*
X158598667Y-125964931D01*
X158643019Y-126014911D01*
X158681271Y-126111011D01*
X158713823Y-126264440D01*
X158741073Y-126486405D01*
X158763423Y-126788115D01*
X158781271Y-127180778D01*
X158795018Y-127675603D01*
X158805064Y-128283798D01*
X158811808Y-129016572D01*
X158815649Y-129885133D01*
X158816989Y-130900689D01*
X158816239Y-132064667D01*
X158810334Y-136509667D01*
X158581662Y-136982460D01*
X158224457Y-137599991D01*
X157736975Y-138255403D01*
X157359526Y-138688201D01*
X157141939Y-138905146D01*
X156871324Y-139148608D01*
X156581200Y-139391688D01*
X156305083Y-139607487D01*
X156076494Y-139769105D01*
X155928950Y-139849642D01*
X155906865Y-139854000D01*
X155814634Y-139796475D01*
X155641641Y-139643899D01*
X155421304Y-139426271D01*
X155364589Y-139367167D01*
X154904004Y-138879981D01*
X154549693Y-138499598D01*
X154289424Y-138211866D01*
X154110965Y-138002633D01*
X154002082Y-137857749D01*
X153950544Y-137763061D01*
X153942000Y-137721432D01*
X153994930Y-137607087D01*
X154137677Y-137400467D01*
X154346180Y-137134618D01*
X154513500Y-136936575D01*
X154881040Y-136515178D01*
X155154644Y-136197705D01*
X155348509Y-135957769D01*
X155476831Y-135768983D01*
X155553807Y-135604958D01*
X155593634Y-135439308D01*
X155610508Y-135245645D01*
X155618625Y-134997581D01*
X155622686Y-134874912D01*
X155640579Y-134497159D01*
X155665222Y-134256048D01*
X155704022Y-134118893D01*
X155764388Y-134053005D01*
X155813186Y-134034304D01*
X155921380Y-134001233D01*
X155959601Y-133949183D01*
X155925266Y-133837249D01*
X155815792Y-133624525D01*
X155783500Y-133564127D01*
X155736564Y-133472947D01*
X155698049Y-133380650D01*
X155667122Y-133270430D01*
X155642952Y-133125480D01*
X155624705Y-132928993D01*
X155611550Y-132664163D01*
X155602652Y-132314182D01*
X155597181Y-131862245D01*
X155594304Y-131291544D01*
X155593188Y-130585272D01*
X155593000Y-129726624D01*
X155593000Y-129718248D01*
X155593541Y-128850185D01*
X155595564Y-128135861D01*
X155599671Y-127559682D01*
X155606461Y-127106056D01*
X155616536Y-126759389D01*
X155630496Y-126504090D01*
X155648942Y-126324564D01*
X155672475Y-126205220D01*
X155701696Y-126130464D01*
X155732823Y-126088949D01*
X155816743Y-126032822D01*
X155957125Y-125991118D01*
X156179958Y-125960716D01*
X156511233Y-125938494D01*
X156976941Y-125921328D01*
X157172156Y-125916048D01*
X157667029Y-125908954D01*
X158084040Y-125913707D01*
G37*
G36*
X146407747Y-95767120D02*
G01*
X146538466Y-95847921D01*
X146716934Y-95996236D01*
X146954595Y-96223227D01*
X147262893Y-96540058D01*
X147653272Y-96957894D01*
X148137176Y-97487897D01*
X148396337Y-97774667D01*
X148829716Y-98252022D01*
X149298968Y-98763230D01*
X149765519Y-99266638D01*
X150190794Y-99720596D01*
X150490740Y-100036184D01*
X150879109Y-100446572D01*
X151154127Y-100762819D01*
X151322482Y-101010221D01*
X151390862Y-101214071D01*
X151365956Y-101399662D01*
X151254452Y-101592288D01*
X151063037Y-101817243D01*
X150984147Y-101902167D01*
X150735907Y-102152684D01*
X150555128Y-102288900D01*
X150405009Y-102329945D01*
X150248754Y-102294948D01*
X150237328Y-102290425D01*
X150151648Y-102216337D01*
X149959295Y-102023002D01*
X149666632Y-101717259D01*
X149280018Y-101305943D01*
X148805816Y-100795894D01*
X148250386Y-100193949D01*
X147620090Y-99506945D01*
X146921288Y-98741721D01*
X146272673Y-98028805D01*
X145937024Y-97650914D01*
X145656343Y-97318479D01*
X145447661Y-97052822D01*
X145328007Y-96875264D01*
X145306000Y-96818570D01*
X145362217Y-96702846D01*
X145507325Y-96512437D01*
X145706011Y-96285060D01*
X145922961Y-96058433D01*
X146122862Y-95870273D01*
X146270399Y-95758298D01*
X146313332Y-95742667D01*
X146407747Y-95767120D01*
G37*
G36*
X116515542Y-88547807D02*
G01*
X116549163Y-88156231D01*
X116588386Y-87845828D01*
X116631653Y-87651244D01*
X116656349Y-87606354D01*
X116722888Y-87508715D01*
X116675377Y-87373224D01*
X116649682Y-87331735D01*
X116582244Y-87130294D01*
X116536075Y-86767805D01*
X116511033Y-86242183D01*
X116506978Y-85551339D01*
X116510573Y-85265167D01*
X116519334Y-84736000D01*
X119667063Y-84736000D01*
X119641828Y-86229443D01*
X119616593Y-87722887D01*
X122026130Y-87758103D01*
X122651683Y-87768384D01*
X123224241Y-87779965D01*
X123721295Y-87792219D01*
X124120338Y-87804518D01*
X124398862Y-87816232D01*
X124534358Y-87826733D01*
X124541500Y-87828336D01*
X124583557Y-87922993D01*
X124616053Y-88154425D01*
X124639100Y-88490351D01*
X124652811Y-88898487D01*
X124657299Y-89346553D01*
X124652677Y-89802266D01*
X124639056Y-90233346D01*
X124616551Y-90607509D01*
X124585273Y-90892474D01*
X124545336Y-91055959D01*
X124530154Y-91077849D01*
X124425208Y-91110469D01*
X124192645Y-91135266D01*
X123823431Y-91152572D01*
X123308532Y-91162717D01*
X122638912Y-91166032D01*
X122155315Y-91164864D01*
X121474389Y-91161016D01*
X120942700Y-91155451D01*
X120540149Y-91146770D01*
X120246640Y-91133576D01*
X120042076Y-91114470D01*
X119906360Y-91088052D01*
X119819394Y-91052926D01*
X119761082Y-91007691D01*
X119751343Y-90997581D01*
X119658501Y-90923932D01*
X119522105Y-90877622D01*
X119306131Y-90853102D01*
X118974558Y-90844825D01*
X118760682Y-90845009D01*
X118099136Y-90847330D01*
X117586707Y-90845319D01*
X117203202Y-90837324D01*
X116928426Y-90821693D01*
X116742183Y-90796776D01*
X116624281Y-90760921D01*
X116554524Y-90712477D01*
X116518810Y-90661689D01*
X116486064Y-90510651D01*
X116468277Y-90232908D01*
X116463891Y-89863106D01*
X116471347Y-89435890D01*
X116471419Y-89434051D01*
X116782059Y-89434051D01*
X116790752Y-89782265D01*
X116807816Y-90120031D01*
X116836210Y-90329526D01*
X116888497Y-90451810D01*
X116977240Y-90527939D01*
X117027334Y-90555476D01*
X117302164Y-90623724D01*
X117564623Y-90612371D01*
X117806426Y-90586640D01*
X118150620Y-90565770D01*
X118530264Y-90553618D01*
X118601789Y-90552604D01*
X119313334Y-90544836D01*
X119323917Y-90222751D01*
X119338307Y-89733222D01*
X119343742Y-89387046D01*
X119339791Y-89158460D01*
X119326019Y-89021699D01*
X119302571Y-88951919D01*
X119201305Y-88916680D01*
X118962086Y-88883712D01*
X118616291Y-88856169D01*
X118195299Y-88837210D01*
X118148932Y-88835871D01*
X117634606Y-88825316D01*
X117266098Y-88837112D01*
X117019997Y-88887573D01*
X116872896Y-88993009D01*
X116801386Y-89169731D01*
X116782059Y-89434051D01*
X116471419Y-89434051D01*
X116489083Y-88985909D01*
X116515542Y-88547807D01*
G37*
G36*
X148612999Y-112902145D02*
G01*
X148712699Y-113060685D01*
X148734491Y-113291754D01*
X148697746Y-113459823D01*
X148650007Y-113701676D01*
X148691556Y-113809422D01*
X148735331Y-113933078D01*
X148766240Y-114172909D01*
X148777334Y-114461875D01*
X148767566Y-114786636D01*
X148733295Y-114977307D01*
X148667072Y-115068269D01*
X148643409Y-115079941D01*
X148504460Y-115119210D01*
X148418271Y-115085481D01*
X148365250Y-114949302D01*
X148325806Y-114681221D01*
X148315418Y-114586854D01*
X148295639Y-114252552D01*
X148310789Y-113993304D01*
X148340709Y-113886168D01*
X148374445Y-113666260D01*
X148341593Y-113582155D01*
X148281923Y-113375794D01*
X148288561Y-113143666D01*
X148351388Y-112950524D01*
X148454121Y-112862085D01*
X148612999Y-112902145D01*
G37*
G36*
X110310967Y-91524029D02*
G01*
X110561468Y-91741860D01*
X110758296Y-91953833D01*
X111044558Y-92267637D01*
X111352775Y-92591653D01*
X111618525Y-92858228D01*
X111629834Y-92869115D01*
X111839227Y-93095341D01*
X111984335Y-93300534D01*
X112032000Y-93428090D01*
X111972811Y-93575591D01*
X111802058Y-93828461D01*
X111529958Y-94174413D01*
X111166731Y-94601162D01*
X110722595Y-95096421D01*
X110207769Y-95647907D01*
X110036406Y-95827333D01*
X109651846Y-96232800D01*
X109220818Y-96694974D01*
X108803639Y-97148841D01*
X108541285Y-97438917D01*
X108224234Y-97783378D01*
X107904855Y-98114030D01*
X107621640Y-98391933D01*
X107423414Y-98569760D01*
X107028512Y-98893352D01*
X106715089Y-98534002D01*
X106512151Y-98307102D01*
X106239185Y-98009560D01*
X105943533Y-97692790D01*
X105829787Y-97572492D01*
X105502465Y-97209787D01*
X105295852Y-96932229D01*
X105198548Y-96719041D01*
X105199152Y-96549444D01*
X105229861Y-96479148D01*
X105306056Y-96384387D01*
X105482561Y-96183083D01*
X105743758Y-95892123D01*
X106074030Y-95528395D01*
X106457759Y-95108783D01*
X106879329Y-94650175D01*
X107323121Y-94169457D01*
X107773519Y-93683516D01*
X108214904Y-93209239D01*
X108631659Y-92763510D01*
X109008167Y-92363218D01*
X109328810Y-92025248D01*
X109577972Y-91766488D01*
X109728312Y-91615167D01*
X109920735Y-91469345D01*
X110106171Y-91436078D01*
X110310967Y-91524029D01*
G37*
G04 #@! TD*
M02*
