G04 #@! TF.GenerationSoftware,KiCad,Pcbnew,(6.0.0)*
G04 #@! TF.CreationDate,2022-02-12T13:04:56+01:00*
G04 #@! TF.ProjectId,ADRmu,4144526d-752e-46b6-9963-61645f706362,0.3*
G04 #@! TF.SameCoordinates,Original*
G04 #@! TF.FileFunction,Soldermask,Top*
G04 #@! TF.FilePolarity,Negative*
%FSLAX46Y46*%
G04 Gerber Fmt 4.6, Leading zero omitted, Abs format (unit mm)*
G04 Created by KiCad (PCBNEW (6.0.0)) date 2022-02-12 13:04:56*
%MOMM*%
%LPD*%
G01*
G04 APERTURE LIST*
G04 Aperture macros list*
%AMRoundRect*
0 Rectangle with rounded corners*
0 $1 Rounding radius*
0 $2 $3 $4 $5 $6 $7 $8 $9 X,Y pos of 4 corners*
0 Add a 4 corners polygon primitive as box body*
4,1,4,$2,$3,$4,$5,$6,$7,$8,$9,$2,$3,0*
0 Add four circle primitives for the rounded corners*
1,1,$1+$1,$2,$3*
1,1,$1+$1,$4,$5*
1,1,$1+$1,$6,$7*
1,1,$1+$1,$8,$9*
0 Add four rect primitives between the rounded corners*
20,1,$1+$1,$2,$3,$4,$5,0*
20,1,$1+$1,$4,$5,$6,$7,0*
20,1,$1+$1,$6,$7,$8,$9,0*
20,1,$1+$1,$8,$9,$2,$3,0*%
%AMFreePoly0*
4,1,22,0.500000,-0.750000,0.000000,-0.750000,0.000000,-0.745033,-0.079941,-0.743568,-0.215256,-0.701293,-0.333266,-0.622738,-0.424486,-0.514219,-0.481581,-0.384460,-0.499164,-0.250000,-0.500000,-0.250000,-0.500000,0.250000,-0.499164,0.250000,-0.499963,0.256109,-0.478152,0.396186,-0.417904,0.524511,-0.324060,0.630769,-0.204165,0.706417,-0.067858,0.745374,0.000000,0.744959,0.000000,0.750000,
0.500000,0.750000,0.500000,-0.750000,0.500000,-0.750000,$1*%
%AMFreePoly1*
4,1,20,0.000000,0.744959,0.073905,0.744508,0.209726,0.703889,0.328688,0.626782,0.421226,0.519385,0.479903,0.390333,0.500000,0.250000,0.500000,-0.250000,0.499851,-0.262216,0.476331,-0.402017,0.414519,-0.529596,0.319384,-0.634700,0.198574,-0.708877,0.061801,-0.746166,0.000000,-0.745033,0.000000,-0.750000,-0.500000,-0.750000,-0.500000,0.750000,0.000000,0.750000,0.000000,0.744959,
0.000000,0.744959,$1*%
%AMFreePoly2*
4,1,22,0.550000,-0.750000,0.000000,-0.750000,0.000000,-0.745033,-0.079941,-0.743568,-0.215256,-0.701293,-0.333266,-0.622738,-0.424486,-0.514219,-0.481581,-0.384460,-0.499164,-0.250000,-0.500000,-0.250000,-0.500000,0.250000,-0.499164,0.250000,-0.499963,0.256109,-0.478152,0.396186,-0.417904,0.524511,-0.324060,0.630769,-0.204165,0.706417,-0.067858,0.745374,0.000000,0.744959,0.000000,0.750000,
0.550000,0.750000,0.550000,-0.750000,0.550000,-0.750000,$1*%
%AMFreePoly3*
4,1,20,0.000000,0.744959,0.073905,0.744508,0.209726,0.703889,0.328688,0.626782,0.421226,0.519385,0.479903,0.390333,0.500000,0.250000,0.500000,-0.250000,0.499851,-0.262216,0.476331,-0.402017,0.414519,-0.529596,0.319384,-0.634700,0.198574,-0.708877,0.061801,-0.746166,0.000000,-0.745033,0.000000,-0.750000,-0.550000,-0.750000,-0.550000,0.750000,0.000000,0.750000,0.000000,0.744959,
0.000000,0.744959,$1*%
%AMFreePoly4*
4,1,9,3.862500,-0.866500,0.737500,-0.866500,0.737500,-0.450000,-0.737500,-0.450000,-0.737500,0.450000,0.737500,0.450000,0.737500,0.866500,3.862500,0.866500,3.862500,-0.866500,3.862500,-0.866500,$1*%
G04 Aperture macros list end*
%ADD10C,18.100000*%
%ADD11RoundRect,0.250000X0.262500X0.450000X-0.262500X0.450000X-0.262500X-0.450000X0.262500X-0.450000X0*%
%ADD12RoundRect,0.250000X0.503814X0.132583X0.132583X0.503814X-0.503814X-0.132583X-0.132583X-0.503814X0*%
%ADD13FreePoly0,0.000000*%
%ADD14FreePoly1,0.000000*%
%ADD15RoundRect,0.250000X0.450000X-0.262500X0.450000X0.262500X-0.450000X0.262500X-0.450000X-0.262500X0*%
%ADD16RoundRect,0.250000X-0.625000X0.375000X-0.625000X-0.375000X0.625000X-0.375000X0.625000X0.375000X0*%
%ADD17RoundRect,0.250000X-0.262500X-0.450000X0.262500X-0.450000X0.262500X0.450000X-0.262500X0.450000X0*%
%ADD18C,1.600000*%
%ADD19RoundRect,0.250002X1.699998X1.699998X-1.699998X1.699998X-1.699998X-1.699998X1.699998X-1.699998X0*%
%ADD20C,4.300000*%
%ADD21RoundRect,0.250002X-1.699998X-1.699998X1.699998X-1.699998X1.699998X1.699998X-1.699998X1.699998X0*%
%ADD22RoundRect,0.250000X-0.250000X-0.475000X0.250000X-0.475000X0.250000X0.475000X-0.250000X0.475000X0*%
%ADD23RoundRect,0.250000X-0.450000X0.262500X-0.450000X-0.262500X0.450000X-0.262500X0.450000X0.262500X0*%
%ADD24R,1.200000X0.900000*%
%ADD25FreePoly0,90.000000*%
%ADD26FreePoly1,90.000000*%
%ADD27C,2.850000*%
%ADD28RoundRect,0.250000X-1.050000X1.050000X-1.050000X-1.050000X1.050000X-1.050000X1.050000X1.050000X0*%
%ADD29C,2.600000*%
%ADD30FreePoly2,90.000000*%
%ADD31R,1.500000X1.000000*%
%ADD32FreePoly3,90.000000*%
%ADD33C,1.500000*%
%ADD34RoundRect,0.150000X-0.825000X-0.150000X0.825000X-0.150000X0.825000X0.150000X-0.825000X0.150000X0*%
%ADD35RoundRect,0.093750X-0.093750X-0.106250X0.093750X-0.106250X0.093750X0.106250X-0.093750X0.106250X0*%
%ADD36R,1.000000X1.600000*%
%ADD37RoundRect,0.250000X-0.325000X-0.650000X0.325000X-0.650000X0.325000X0.650000X-0.325000X0.650000X0*%
%ADD38R,0.900000X1.300000*%
%ADD39FreePoly4,90.000000*%
%ADD40RoundRect,0.100000X-0.100000X0.625000X-0.100000X-0.625000X0.100000X-0.625000X0.100000X0.625000X0*%
%ADD41R,2.850000X1.650000*%
%ADD42RoundRect,0.250000X0.475000X-0.250000X0.475000X0.250000X-0.475000X0.250000X-0.475000X-0.250000X0*%
%ADD43R,1.800000X2.500000*%
%ADD44FreePoly0,180.000000*%
%ADD45FreePoly1,180.000000*%
%ADD46C,1.400000*%
%ADD47RoundRect,0.250000X0.250000X0.475000X-0.250000X0.475000X-0.250000X-0.475000X0.250000X-0.475000X0*%
%ADD48R,1.600000X1.600000*%
%ADD49O,1.600000X1.600000*%
%ADD50R,2.400000X2.400000*%
%ADD51C,2.400000*%
%ADD52R,0.900000X1.200000*%
%ADD53FreePoly0,270.000000*%
%ADD54FreePoly1,270.000000*%
%ADD55R,1.100000X1.100000*%
%ADD56RoundRect,0.250000X-0.475000X0.250000X-0.475000X-0.250000X0.475000X-0.250000X0.475000X0.250000X0*%
%ADD57R,1.050000X0.450000*%
%ADD58R,1.470000X0.895000*%
%ADD59RoundRect,0.150000X0.587500X0.150000X-0.587500X0.150000X-0.587500X-0.150000X0.587500X-0.150000X0*%
%ADD60O,1.200000X1.600000*%
%ADD61O,1.200000X1.200000*%
%ADD62R,2.850000X1.200000*%
%ADD63RoundRect,0.100000X-0.712500X-0.100000X0.712500X-0.100000X0.712500X0.100000X-0.712500X0.100000X0*%
%ADD64RoundRect,0.250000X0.325000X0.650000X-0.325000X0.650000X-0.325000X-0.650000X0.325000X-0.650000X0*%
%ADD65RoundRect,0.250000X0.650000X-0.325000X0.650000X0.325000X-0.650000X0.325000X-0.650000X-0.325000X0*%
%ADD66R,1.500000X2.000000*%
%ADD67R,3.800000X2.000000*%
G04 APERTURE END LIST*
D10*
X119050000Y-100000000D02*
G75*
G03*
X119050000Y-100000000I-9050000J0D01*
G01*
G04 #@! TO.C,SYM101*
G36*
X205467584Y-115164687D02*
G01*
X205474043Y-115167095D01*
X205474987Y-115167715D01*
X205478291Y-115171048D01*
X205481815Y-115175993D01*
X205483520Y-115179005D01*
X205485613Y-115184253D01*
X205486982Y-115190563D01*
X205487619Y-115198272D01*
X205487517Y-115207716D01*
X205486669Y-115219233D01*
X205485068Y-115233158D01*
X205482708Y-115249829D01*
X205481930Y-115254904D01*
X205479162Y-115272024D01*
X205475767Y-115291847D01*
X205471840Y-115313890D01*
X205467474Y-115337670D01*
X205462764Y-115362706D01*
X205457805Y-115388514D01*
X205452689Y-115414612D01*
X205447511Y-115440517D01*
X205442366Y-115465746D01*
X205437346Y-115489816D01*
X205432547Y-115512246D01*
X205428062Y-115532552D01*
X205426294Y-115540337D01*
X205419833Y-115568860D01*
X205414201Y-115594564D01*
X205409352Y-115617776D01*
X205405239Y-115638824D01*
X205401816Y-115658034D01*
X205399036Y-115675734D01*
X205396854Y-115692252D01*
X205395221Y-115707914D01*
X205394094Y-115723048D01*
X205393424Y-115737982D01*
X205393165Y-115753042D01*
X205393272Y-115768556D01*
X205393353Y-115772696D01*
X205393737Y-115785200D01*
X205394358Y-115797612D01*
X205395264Y-115810356D01*
X205396498Y-115823858D01*
X205398107Y-115838543D01*
X205400138Y-115854834D01*
X205402634Y-115873156D01*
X205405643Y-115893936D01*
X205408367Y-115912064D01*
X205415547Y-115955328D01*
X205423525Y-115995731D01*
X205432395Y-116033600D01*
X205442250Y-116069264D01*
X205453185Y-116103051D01*
X205465293Y-116135288D01*
X205478669Y-116166304D01*
X205485217Y-116180134D01*
X205495198Y-116199917D01*
X205504713Y-116217151D01*
X205514163Y-116232436D01*
X205523952Y-116246371D01*
X205534479Y-116259555D01*
X205546149Y-116272588D01*
X205549659Y-116276275D01*
X205564499Y-116290903D01*
X205579412Y-116303919D01*
X205594849Y-116315593D01*
X205611263Y-116326192D01*
X205629106Y-116335986D01*
X205648831Y-116345243D01*
X205670889Y-116354231D01*
X205695734Y-116363219D01*
X205696650Y-116363533D01*
X205765278Y-116385966D01*
X205834189Y-116406266D01*
X205903726Y-116424506D01*
X205974230Y-116440756D01*
X206046045Y-116455087D01*
X206119511Y-116467570D01*
X206194970Y-116478275D01*
X206272765Y-116487274D01*
X206312299Y-116491124D01*
X206339066Y-116493486D01*
X206365431Y-116495621D01*
X206391742Y-116497545D01*
X206418347Y-116499276D01*
X206445595Y-116500829D01*
X206473833Y-116502222D01*
X206503410Y-116503471D01*
X206534674Y-116504591D01*
X206567974Y-116505601D01*
X206603658Y-116506515D01*
X206642073Y-116507351D01*
X206663753Y-116507770D01*
X206730728Y-116508620D01*
X206800316Y-116508730D01*
X206872587Y-116508098D01*
X206947611Y-116506722D01*
X207025456Y-116504600D01*
X207106193Y-116501730D01*
X207189890Y-116498110D01*
X207276617Y-116493739D01*
X207366443Y-116488614D01*
X207377845Y-116487923D01*
X207401537Y-116486438D01*
X207422426Y-116485034D01*
X207440972Y-116483669D01*
X207457634Y-116482302D01*
X207472874Y-116480892D01*
X207487152Y-116479396D01*
X207500928Y-116477773D01*
X207514661Y-116475981D01*
X207523183Y-116474793D01*
X207584672Y-116464410D01*
X207645203Y-116450923D01*
X207704803Y-116434323D01*
X207763495Y-116414601D01*
X207821303Y-116391747D01*
X207878251Y-116365753D01*
X207934365Y-116336608D01*
X207989668Y-116304305D01*
X208016028Y-116287612D01*
X208028001Y-116279694D01*
X208042437Y-116269897D01*
X208059200Y-116258320D01*
X208078152Y-116245062D01*
X208099157Y-116230221D01*
X208122079Y-116213897D01*
X208146780Y-116196187D01*
X208173125Y-116177191D01*
X208200976Y-116157007D01*
X208230196Y-116135734D01*
X208260650Y-116113469D01*
X208292200Y-116090313D01*
X208324710Y-116066364D01*
X208358043Y-116041720D01*
X208392063Y-116016480D01*
X208406091Y-116006046D01*
X208426465Y-115990909D01*
X208444508Y-115977575D01*
X208460484Y-115965870D01*
X208474661Y-115955619D01*
X208487304Y-115946648D01*
X208498680Y-115938782D01*
X208509054Y-115931845D01*
X208518694Y-115925663D01*
X208527865Y-115920061D01*
X208536833Y-115914865D01*
X208545865Y-115909898D01*
X208555227Y-115904987D01*
X208565185Y-115899957D01*
X208574849Y-115895196D01*
X208618020Y-115875731D01*
X208663643Y-115858285D01*
X208711582Y-115842881D01*
X208761701Y-115829546D01*
X208813864Y-115818305D01*
X208867935Y-115809182D01*
X208923778Y-115802204D01*
X208981257Y-115797396D01*
X209040236Y-115794783D01*
X209100579Y-115794390D01*
X209115378Y-115794632D01*
X209136404Y-115795096D01*
X209154673Y-115795616D01*
X209170660Y-115796283D01*
X209184836Y-115797189D01*
X209197676Y-115798426D01*
X209209652Y-115800086D01*
X209221238Y-115802261D01*
X209232908Y-115805043D01*
X209245135Y-115808523D01*
X209258391Y-115812794D01*
X209273150Y-115817948D01*
X209289886Y-115824076D01*
X209309072Y-115831271D01*
X209314454Y-115833303D01*
X209326444Y-115837971D01*
X209335638Y-115841921D01*
X209342368Y-115845371D01*
X209346968Y-115848537D01*
X209349770Y-115851638D01*
X209351107Y-115854890D01*
X209351350Y-115857395D01*
X209350484Y-115862146D01*
X209347743Y-115866731D01*
X209342911Y-115871289D01*
X209335770Y-115875959D01*
X209326105Y-115880880D01*
X209313699Y-115886193D01*
X209298335Y-115892038D01*
X209296761Y-115892609D01*
X209288960Y-115895451D01*
X209282258Y-115897939D01*
X209277258Y-115899844D01*
X209274564Y-115900939D01*
X209274307Y-115901067D01*
X209274304Y-115902784D01*
X209276483Y-115906178D01*
X209280497Y-115910860D01*
X209286002Y-115916439D01*
X209292649Y-115922526D01*
X209295631Y-115925083D01*
X209305924Y-115933360D01*
X209316572Y-115941096D01*
X209327970Y-115948512D01*
X209340514Y-115955826D01*
X209354600Y-115963259D01*
X209370624Y-115971030D01*
X209388981Y-115979359D01*
X209409322Y-115988148D01*
X209432320Y-115998104D01*
X209452510Y-116007295D01*
X209470215Y-116015890D01*
X209485757Y-116024059D01*
X209499459Y-116031973D01*
X209511642Y-116039801D01*
X209522629Y-116047713D01*
X209523327Y-116048248D01*
X209528283Y-116052305D01*
X209534058Y-116057415D01*
X209540167Y-116063098D01*
X209546121Y-116068874D01*
X209551431Y-116074262D01*
X209555612Y-116078783D01*
X209558174Y-116081956D01*
X209558743Y-116083117D01*
X209557371Y-116084974D01*
X209553670Y-116087851D01*
X209548262Y-116091369D01*
X209541769Y-116095150D01*
X209534814Y-116098816D01*
X209528019Y-116101987D01*
X209526980Y-116102427D01*
X209518391Y-116105755D01*
X209509786Y-116108514D01*
X209500684Y-116110781D01*
X209490607Y-116112634D01*
X209479075Y-116114150D01*
X209465608Y-116115407D01*
X209449727Y-116116483D01*
X209435450Y-116117242D01*
X209417550Y-116118249D01*
X209402385Y-116119427D01*
X209389425Y-116120848D01*
X209378140Y-116122583D01*
X209368001Y-116124706D01*
X209358477Y-116127287D01*
X209356199Y-116127991D01*
X209342778Y-116132231D01*
X209358903Y-116140447D01*
X209372536Y-116147202D01*
X209384429Y-116152602D01*
X209395600Y-116157037D01*
X209407070Y-116160895D01*
X209419860Y-116164567D01*
X209426923Y-116166417D01*
X209453934Y-116173917D01*
X209477965Y-116181850D01*
X209499287Y-116190326D01*
X209518168Y-116199452D01*
X209534879Y-116209336D01*
X209535881Y-116209997D01*
X209554404Y-116223673D01*
X209570185Y-116238414D01*
X209583485Y-116254588D01*
X209594561Y-116272563D01*
X209603671Y-116292705D01*
X209611075Y-116315382D01*
X209611752Y-116317880D01*
X209617241Y-116336532D01*
X209623203Y-116352572D01*
X209629990Y-116366656D01*
X209637958Y-116379435D01*
X209647460Y-116391562D01*
X209657500Y-116402345D01*
X209662946Y-116407714D01*
X209668320Y-116412739D01*
X209674032Y-116417750D01*
X209680488Y-116423076D01*
X209688098Y-116429048D01*
X209697269Y-116435997D01*
X209708410Y-116444251D01*
X209717963Y-116451250D01*
X209737112Y-116465410D01*
X209753685Y-116478079D01*
X209767892Y-116489466D01*
X209779945Y-116499781D01*
X209790053Y-116509236D01*
X209798429Y-116518039D01*
X209805283Y-116526401D01*
X209810827Y-116534532D01*
X209815271Y-116542641D01*
X209818826Y-116550940D01*
X209819247Y-116552080D01*
X209820998Y-116557506D01*
X209823046Y-116564773D01*
X209825207Y-116573115D01*
X209827300Y-116581767D01*
X209829142Y-116589961D01*
X209830552Y-116596933D01*
X209831348Y-116601917D01*
X209831458Y-116603439D01*
X209831196Y-116604412D01*
X209830194Y-116605366D01*
X209828127Y-116606395D01*
X209824670Y-116607594D01*
X209819500Y-116609060D01*
X209812292Y-116610888D01*
X209802720Y-116613173D01*
X209790462Y-116616010D01*
X209782467Y-116617838D01*
X209770345Y-116620632D01*
X209759321Y-116623230D01*
X209749780Y-116625536D01*
X209742105Y-116627456D01*
X209736680Y-116628894D01*
X209733889Y-116629756D01*
X209733593Y-116629929D01*
X209734781Y-116631237D01*
X209738061Y-116634436D01*
X209743110Y-116639220D01*
X209749602Y-116645284D01*
X209757213Y-116652322D01*
X209764064Y-116658609D01*
X209787647Y-116680440D01*
X209810117Y-116701763D01*
X209831266Y-116722366D01*
X209850884Y-116742035D01*
X209868761Y-116760556D01*
X209884689Y-116777717D01*
X209898457Y-116793303D01*
X209909857Y-116807102D01*
X209909945Y-116807214D01*
X209923713Y-116825246D01*
X209934991Y-116841353D01*
X209943838Y-116855655D01*
X209950312Y-116868271D01*
X209954473Y-116879317D01*
X209956380Y-116888914D01*
X209956090Y-116897179D01*
X209955621Y-116899279D01*
X209951860Y-116907166D01*
X209944997Y-116914728D01*
X209935186Y-116921856D01*
X209922585Y-116928440D01*
X209907350Y-116934370D01*
X209904127Y-116935428D01*
X209898369Y-116937365D01*
X209893851Y-116939070D01*
X209891470Y-116940200D01*
X209891382Y-116940270D01*
X209891662Y-116942073D01*
X209893941Y-116945619D01*
X209897811Y-116950438D01*
X209902868Y-116956064D01*
X209908706Y-116962026D01*
X209914918Y-116967856D01*
X209916419Y-116969183D01*
X209919965Y-116972245D01*
X209925677Y-116977136D01*
X209933226Y-116983577D01*
X209942283Y-116991287D01*
X209952521Y-116999989D01*
X209963611Y-117009401D01*
X209975224Y-117019245D01*
X209980063Y-117023342D01*
X210006615Y-117045931D01*
X210030680Y-117066639D01*
X210052366Y-117085567D01*
X210071782Y-117102817D01*
X210089037Y-117118489D01*
X210104239Y-117132684D01*
X210117496Y-117145505D01*
X210128917Y-117157052D01*
X210138611Y-117167425D01*
X210146687Y-117176728D01*
X210152501Y-117184055D01*
X210164822Y-117201635D01*
X210177266Y-117221752D01*
X210189428Y-117243723D01*
X210199072Y-117262984D01*
X210206037Y-117278060D01*
X210211346Y-117290703D01*
X210215109Y-117301226D01*
X210217433Y-117309945D01*
X210218428Y-117317174D01*
X210218484Y-117319127D01*
X210217651Y-117327834D01*
X210214961Y-117334346D01*
X210210127Y-117338911D01*
X210202863Y-117341780D01*
X210192882Y-117343203D01*
X210190722Y-117343327D01*
X210187562Y-117343421D01*
X210184230Y-117343372D01*
X210180451Y-117343133D01*
X210175946Y-117342659D01*
X210170439Y-117341902D01*
X210163653Y-117340817D01*
X210155309Y-117339356D01*
X210145131Y-117337473D01*
X210132841Y-117335122D01*
X210118162Y-117332255D01*
X210100817Y-117328827D01*
X210082127Y-117325110D01*
X210057352Y-117320174D01*
X210035559Y-117315837D01*
X210016527Y-117312059D01*
X210000033Y-117308803D01*
X209985856Y-117306030D01*
X209973775Y-117303700D01*
X209963568Y-117301776D01*
X209955014Y-117300218D01*
X209947891Y-117298988D01*
X209941978Y-117298047D01*
X209937053Y-117297356D01*
X209932894Y-117296877D01*
X209929281Y-117296571D01*
X209925991Y-117296400D01*
X209922803Y-117296323D01*
X209919496Y-117296304D01*
X209899116Y-117296304D01*
X209896492Y-117303383D01*
X209893869Y-117310462D01*
X209930842Y-117336033D01*
X209940223Y-117342484D01*
X209951821Y-117350401D01*
X209965133Y-117359444D01*
X209979655Y-117369272D01*
X209994884Y-117379544D01*
X210010315Y-117389920D01*
X210025446Y-117400059D01*
X210033136Y-117405198D01*
X210052702Y-117418297D01*
X210069785Y-117429838D01*
X210084655Y-117440019D01*
X210097581Y-117449039D01*
X210108833Y-117457098D01*
X210118681Y-117464396D01*
X210127393Y-117471133D01*
X210135239Y-117477507D01*
X210142489Y-117483718D01*
X210149411Y-117489965D01*
X210155972Y-117496156D01*
X210173463Y-117513862D01*
X210188822Y-117531445D01*
X210202479Y-117549540D01*
X210214862Y-117568778D01*
X210226400Y-117589791D01*
X210237522Y-117613213D01*
X210241394Y-117622091D01*
X210244319Y-117629147D01*
X210247835Y-117637978D01*
X210251799Y-117648186D01*
X210256064Y-117659376D01*
X210260487Y-117671153D01*
X210264923Y-117683119D01*
X210269226Y-117694879D01*
X210273253Y-117706037D01*
X210276858Y-117716197D01*
X210279897Y-117724963D01*
X210282224Y-117731939D01*
X210283696Y-117736728D01*
X210284167Y-117738936D01*
X210284135Y-117739028D01*
X210282314Y-117739899D01*
X210277932Y-117741725D01*
X210271484Y-117744309D01*
X210263465Y-117747452D01*
X210254368Y-117750957D01*
X210254002Y-117751097D01*
X210243202Y-117755298D01*
X210235206Y-117758604D01*
X210229718Y-117761154D01*
X210226445Y-117763089D01*
X210225091Y-117764549D01*
X210225016Y-117764928D01*
X210225604Y-117769491D01*
X210227348Y-117777000D01*
X210230216Y-117787356D01*
X210234178Y-117800462D01*
X210239201Y-117816220D01*
X210245255Y-117834533D01*
X210252309Y-117855303D01*
X210260331Y-117878433D01*
X210269291Y-117903824D01*
X210270440Y-117907053D01*
X210279598Y-117933506D01*
X210287323Y-117957517D01*
X210293718Y-117979527D01*
X210298884Y-117999978D01*
X210302922Y-118019311D01*
X210305936Y-118037967D01*
X210308026Y-118056388D01*
X210309294Y-118075014D01*
X210309317Y-118075492D01*
X210309530Y-118085345D01*
X210309360Y-118096232D01*
X210308855Y-118107612D01*
X210308067Y-118118941D01*
X210307048Y-118129680D01*
X210305848Y-118139286D01*
X210304517Y-118147217D01*
X210303108Y-118152931D01*
X210301760Y-118155794D01*
X210300012Y-118155597D01*
X210295430Y-118154536D01*
X210288308Y-118152694D01*
X210278940Y-118150150D01*
X210267620Y-118146987D01*
X210254639Y-118143287D01*
X210240293Y-118139130D01*
X210224874Y-118134597D01*
X210217886Y-118132524D01*
X210202074Y-118127825D01*
X210187200Y-118123420D01*
X210173559Y-118119396D01*
X210161445Y-118115838D01*
X210151155Y-118112834D01*
X210142983Y-118110468D01*
X210137223Y-118108828D01*
X210134171Y-118108000D01*
X210133764Y-118107915D01*
X210133373Y-118109426D01*
X210134170Y-118113932D01*
X210136141Y-118121390D01*
X210139273Y-118131758D01*
X210143551Y-118144994D01*
X210148962Y-118161054D01*
X210155492Y-118179898D01*
X210163128Y-118201481D01*
X210171856Y-118225763D01*
X210173475Y-118230234D01*
X210184298Y-118260269D01*
X210194250Y-118288277D01*
X210203287Y-118314120D01*
X210211362Y-118337661D01*
X210218429Y-118358765D01*
X210224441Y-118377294D01*
X210229353Y-118393111D01*
X210233118Y-118406081D01*
X210234184Y-118410024D01*
X210236615Y-118420275D01*
X210238041Y-118429339D01*
X210238690Y-118438946D01*
X210238799Y-118445172D01*
X210238768Y-118453420D01*
X210238481Y-118459284D01*
X210237799Y-118463645D01*
X210236587Y-118467381D01*
X210234745Y-118471300D01*
X210230270Y-118478136D01*
X210224269Y-118483842D01*
X210216505Y-118488485D01*
X210206739Y-118492136D01*
X210194733Y-118494863D01*
X210180249Y-118496735D01*
X210163049Y-118497822D01*
X210142894Y-118498192D01*
X210142066Y-118498193D01*
X210115455Y-118498207D01*
X210116340Y-118503514D01*
X210116737Y-118506645D01*
X210117360Y-118512486D01*
X210118157Y-118520496D01*
X210119074Y-118530132D01*
X210120057Y-118540851D01*
X210120551Y-118546381D01*
X210123223Y-118574919D01*
X210125946Y-118600541D01*
X210128780Y-118623596D01*
X210131786Y-118644434D01*
X210135025Y-118663402D01*
X210138557Y-118680853D01*
X210142442Y-118697133D01*
X210146742Y-118712594D01*
X210151516Y-118727585D01*
X210152403Y-118730181D01*
X210159925Y-118749808D01*
X210167832Y-118766214D01*
X210176119Y-118779388D01*
X210179151Y-118783285D01*
X210182813Y-118787369D01*
X210188325Y-118792987D01*
X210195758Y-118800207D01*
X210205186Y-118809096D01*
X210216682Y-118819722D01*
X210230320Y-118832150D01*
X210246171Y-118846448D01*
X210264308Y-118862684D01*
X210284806Y-118880924D01*
X210300951Y-118895234D01*
X210318886Y-118911133D01*
X210334563Y-118925103D01*
X210348190Y-118937356D01*
X210359978Y-118948103D01*
X210370134Y-118957554D01*
X210378870Y-118965921D01*
X210386392Y-118973415D01*
X210392912Y-118980247D01*
X210398638Y-118986628D01*
X210403779Y-118992769D01*
X210408544Y-118998882D01*
X210413142Y-119005177D01*
X210417784Y-119011865D01*
X210420488Y-119015874D01*
X210432968Y-119036153D01*
X210443626Y-119057146D01*
X210452688Y-119079424D01*
X210460378Y-119103559D01*
X210466923Y-119130124D01*
X210468472Y-119137534D01*
X210474012Y-119161461D01*
X210480506Y-119182785D01*
X210488183Y-119202087D01*
X210497268Y-119219949D01*
X210506318Y-119234509D01*
X210509653Y-119238876D01*
X210515188Y-119245387D01*
X210522792Y-119253899D01*
X210532333Y-119264271D01*
X210543680Y-119276358D01*
X210556701Y-119290018D01*
X210571265Y-119305109D01*
X210571440Y-119305288D01*
X210596704Y-119331449D01*
X210619784Y-119355632D01*
X210640891Y-119378080D01*
X210660236Y-119399035D01*
X210678032Y-119418738D01*
X210694490Y-119437431D01*
X210709822Y-119455357D01*
X210724240Y-119472757D01*
X210737956Y-119489873D01*
X210751180Y-119506947D01*
X210764126Y-119524220D01*
X210769166Y-119531092D01*
X210791614Y-119562140D01*
X210813090Y-119592414D01*
X210834095Y-119622641D01*
X210855130Y-119653550D01*
X210876696Y-119685869D01*
X210899292Y-119720326D01*
X210899713Y-119720973D01*
X210925634Y-119760811D01*
X210920592Y-119767177D01*
X210915551Y-119773543D01*
X210908727Y-119770090D01*
X210901374Y-119766305D01*
X210891453Y-119761098D01*
X210879255Y-119754626D01*
X210865071Y-119747046D01*
X210849191Y-119738515D01*
X210831907Y-119729189D01*
X210813510Y-119719226D01*
X210794290Y-119708783D01*
X210774539Y-119698016D01*
X210754547Y-119687082D01*
X210740563Y-119679411D01*
X210721177Y-119668764D01*
X210704431Y-119659572D01*
X210690099Y-119651726D01*
X210677957Y-119645115D01*
X210667779Y-119639629D01*
X210659338Y-119635157D01*
X210652411Y-119631588D01*
X210646771Y-119628813D01*
X210642192Y-119626719D01*
X210638450Y-119625198D01*
X210635319Y-119624138D01*
X210632573Y-119623428D01*
X210629987Y-119622959D01*
X210627335Y-119622619D01*
X210624392Y-119622298D01*
X210623992Y-119622254D01*
X210617946Y-119621672D01*
X210613450Y-119621417D01*
X210611224Y-119621524D01*
X210611114Y-119621652D01*
X210624289Y-119644444D01*
X210637497Y-119664386D01*
X210647862Y-119678064D01*
X210667111Y-119702570D01*
X210684907Y-119726619D01*
X210701593Y-119750757D01*
X210717513Y-119775530D01*
X210733008Y-119801485D01*
X210748423Y-119829167D01*
X210764100Y-119859123D01*
X210774174Y-119879224D01*
X210779976Y-119891032D01*
X210785349Y-119902116D01*
X210790487Y-119912901D01*
X210795583Y-119923811D01*
X210800829Y-119935271D01*
X210806419Y-119947706D01*
X210812545Y-119961540D01*
X210819401Y-119977198D01*
X210827179Y-119995104D01*
X210834138Y-120011200D01*
X210843824Y-120033537D01*
X210852506Y-120053316D01*
X210860400Y-120071006D01*
X210867725Y-120087078D01*
X210874699Y-120102000D01*
X210881540Y-120116244D01*
X210888466Y-120130278D01*
X210895696Y-120144572D01*
X210899325Y-120151640D01*
X210925999Y-120201447D01*
X210953601Y-120249115D01*
X210982795Y-120295761D01*
X211003522Y-120326918D01*
X211010058Y-120336740D01*
X211016438Y-120346721D01*
X211022247Y-120356186D01*
X211027074Y-120364462D01*
X211030507Y-120370873D01*
X211030969Y-120371826D01*
X211033615Y-120377989D01*
X211036920Y-120386552D01*
X211040621Y-120396781D01*
X211044453Y-120407941D01*
X211048154Y-120419301D01*
X211048971Y-120421905D01*
X211054873Y-120440421D01*
X211060159Y-120456002D01*
X211064944Y-120468896D01*
X211069347Y-120479350D01*
X211073482Y-120487613D01*
X211077467Y-120493932D01*
X211081417Y-120498554D01*
X211085449Y-120501729D01*
X211086819Y-120502501D01*
X211090104Y-120503786D01*
X211096254Y-120505781D01*
X211104965Y-120508404D01*
X211115935Y-120511568D01*
X211128859Y-120515189D01*
X211143436Y-120519182D01*
X211159362Y-120523462D01*
X211176334Y-120527944D01*
X211194049Y-120532544D01*
X211195030Y-120532797D01*
X211262698Y-120549438D01*
X211328231Y-120563981D01*
X211391953Y-120576480D01*
X211454186Y-120586988D01*
X211515254Y-120595559D01*
X211575479Y-120602246D01*
X211635185Y-120607103D01*
X211650171Y-120608043D01*
X211672345Y-120609048D01*
X211694904Y-120609502D01*
X211717336Y-120609425D01*
X211739131Y-120608838D01*
X211759779Y-120607761D01*
X211778769Y-120606216D01*
X211795590Y-120604222D01*
X211809733Y-120601802D01*
X211810989Y-120601535D01*
X211832806Y-120595345D01*
X211852684Y-120586617D01*
X211870716Y-120575280D01*
X211886994Y-120561259D01*
X211901611Y-120544482D01*
X211914661Y-120524876D01*
X211919683Y-120515804D01*
X211927833Y-120501511D01*
X211935819Y-120490120D01*
X211943906Y-120481297D01*
X211952361Y-120474705D01*
X211952366Y-120474703D01*
X211984209Y-120453633D01*
X212013383Y-120432801D01*
X212040409Y-120411741D01*
X212065808Y-120389988D01*
X212090099Y-120367078D01*
X212113805Y-120342546D01*
X212137446Y-120315927D01*
X212157919Y-120291263D01*
X212165125Y-120282255D01*
X212172135Y-120273298D01*
X212179072Y-120264203D01*
X212186062Y-120254782D01*
X212193229Y-120244845D01*
X212200700Y-120234206D01*
X212208597Y-120222675D01*
X212217047Y-120210063D01*
X212226175Y-120196183D01*
X212236105Y-120180847D01*
X212246962Y-120163864D01*
X212258871Y-120145048D01*
X212271957Y-120124210D01*
X212286345Y-120101161D01*
X212302159Y-120075712D01*
X212319526Y-120047676D01*
X212321381Y-120044677D01*
X212367481Y-119970040D01*
X212411847Y-119897991D01*
X212454558Y-119828402D01*
X212495692Y-119761145D01*
X212535326Y-119696090D01*
X212573540Y-119633109D01*
X212610410Y-119572073D01*
X212646015Y-119512853D01*
X212680434Y-119455320D01*
X212713744Y-119399346D01*
X212746023Y-119344802D01*
X212756792Y-119326535D01*
X212768654Y-119306373D01*
X212779035Y-119288668D01*
X212788126Y-119273074D01*
X212796119Y-119259243D01*
X212803206Y-119246827D01*
X212809579Y-119235480D01*
X212815427Y-119224853D01*
X212820944Y-119214599D01*
X212826320Y-119204372D01*
X212831748Y-119193822D01*
X212837418Y-119182604D01*
X212843522Y-119170369D01*
X212849268Y-119158764D01*
X212854372Y-119148417D01*
X212859001Y-119138993D01*
X212863299Y-119130187D01*
X212867407Y-119121692D01*
X212871468Y-119113203D01*
X212875625Y-119104415D01*
X212880020Y-119095020D01*
X212884795Y-119084714D01*
X212890094Y-119073191D01*
X212896058Y-119060145D01*
X212902830Y-119045270D01*
X212910552Y-119028261D01*
X212919368Y-119008812D01*
X212926843Y-118992306D01*
X212936536Y-118970946D01*
X212945042Y-118952314D01*
X212952487Y-118936150D01*
X212959000Y-118922192D01*
X212964706Y-118910180D01*
X212969733Y-118899852D01*
X212974208Y-118890947D01*
X212978258Y-118883204D01*
X212982010Y-118876361D01*
X212985590Y-118870158D01*
X212988823Y-118864820D01*
X212997263Y-118851299D01*
X213004389Y-118840204D01*
X213010525Y-118831136D01*
X213015994Y-118823695D01*
X213021120Y-118817479D01*
X213026225Y-118812090D01*
X213031633Y-118807126D01*
X213037667Y-118802189D01*
X213042253Y-118798671D01*
X213050920Y-118792609D01*
X213060548Y-118786842D01*
X213071610Y-118781136D01*
X213084577Y-118775261D01*
X213099920Y-118768983D01*
X213111926Y-118764376D01*
X213128327Y-118758025D01*
X213146835Y-118750536D01*
X213166642Y-118742249D01*
X213186943Y-118733505D01*
X213206931Y-118724644D01*
X213219358Y-118718991D01*
X213231604Y-118713266D01*
X213244917Y-118706883D01*
X213258930Y-118700032D01*
X213273275Y-118692902D01*
X213287582Y-118685683D01*
X213301484Y-118678566D01*
X213314613Y-118671739D01*
X213326600Y-118665392D01*
X213337076Y-118659717D01*
X213345675Y-118654901D01*
X213352027Y-118651136D01*
X213355516Y-118648804D01*
X213364991Y-118640838D01*
X213375885Y-118630344D01*
X213387938Y-118617599D01*
X213400890Y-118602876D01*
X213414482Y-118586452D01*
X213415124Y-118585653D01*
X213434091Y-118562873D01*
X213452265Y-118542874D01*
X213469975Y-118525373D01*
X213487551Y-118510083D01*
X213505321Y-118496720D01*
X213523614Y-118484999D01*
X213542761Y-118474634D01*
X213544093Y-118473976D01*
X213554197Y-118468808D01*
X213563223Y-118463662D01*
X213571485Y-118458232D01*
X213579297Y-118452214D01*
X213586973Y-118445301D01*
X213594827Y-118437189D01*
X213603174Y-118427573D01*
X213612328Y-118416147D01*
X213622602Y-118402606D01*
X213634312Y-118386644D01*
X213635121Y-118385528D01*
X213652494Y-118361388D01*
X213668024Y-118339443D01*
X213681934Y-118319355D01*
X213694445Y-118300792D01*
X213705782Y-118283416D01*
X213716166Y-118266893D01*
X213725820Y-118250888D01*
X213734378Y-118236107D01*
X213747352Y-118213963D01*
X213759673Y-118194473D01*
X213771669Y-118177175D01*
X213783666Y-118161606D01*
X213795992Y-118147306D01*
X213801310Y-118141604D01*
X213823480Y-118120628D01*
X213847413Y-118102278D01*
X213872902Y-118086687D01*
X213899741Y-118073988D01*
X213916169Y-118067890D01*
X213927736Y-118064294D01*
X213939537Y-118061114D01*
X213950814Y-118058518D01*
X213960807Y-118056675D01*
X213968758Y-118055756D01*
X213970860Y-118055684D01*
X213975465Y-118055911D01*
X213981823Y-118056540D01*
X213989172Y-118057459D01*
X213996749Y-118058552D01*
X214003792Y-118059707D01*
X214009540Y-118060808D01*
X214013230Y-118061743D01*
X214014114Y-118062151D01*
X214014206Y-118064111D01*
X214013551Y-118068815D01*
X214012243Y-118075854D01*
X214010375Y-118084816D01*
X214008043Y-118095291D01*
X214005340Y-118106868D01*
X214002360Y-118119136D01*
X213999197Y-118131685D01*
X213995945Y-118144103D01*
X213992698Y-118155980D01*
X213992353Y-118157207D01*
X213988587Y-118170608D01*
X213985507Y-118181817D01*
X213983038Y-118191381D01*
X213981103Y-118199849D01*
X213979626Y-118207770D01*
X213978529Y-118215692D01*
X213977736Y-118224163D01*
X213977171Y-118233731D01*
X213976757Y-118244946D01*
X213976417Y-118258356D01*
X213976093Y-118273666D01*
X213975708Y-118290760D01*
X213975289Y-118305090D01*
X213974782Y-118317156D01*
X213974131Y-118327459D01*
X213973281Y-118336502D01*
X213972176Y-118344785D01*
X213970761Y-118352810D01*
X213968981Y-118361078D01*
X213966780Y-118370091D01*
X213964462Y-118378996D01*
X213955378Y-118407865D01*
X213943208Y-118437551D01*
X213928000Y-118467954D01*
X213909804Y-118498976D01*
X213891752Y-118526147D01*
X213887268Y-118532493D01*
X213882595Y-118538966D01*
X213877537Y-118545820D01*
X213871899Y-118553305D01*
X213865487Y-118561675D01*
X213858105Y-118571181D01*
X213849558Y-118582075D01*
X213839650Y-118594609D01*
X213828186Y-118609035D01*
X213814971Y-118625605D01*
X213806711Y-118635944D01*
X213770360Y-118681415D01*
X213785437Y-118688734D01*
X213797899Y-118695287D01*
X213810245Y-118702697D01*
X213821770Y-118710484D01*
X213831768Y-118718165D01*
X213839534Y-118725259D01*
X213840578Y-118726369D01*
X213848572Y-118736514D01*
X213854344Y-118747229D01*
X213857893Y-118758759D01*
X213859214Y-118771351D01*
X213858305Y-118785250D01*
X213855163Y-118800704D01*
X213849786Y-118817957D01*
X213842169Y-118837257D01*
X213839149Y-118844149D01*
X213824566Y-118873557D01*
X213808223Y-118900639D01*
X213790232Y-118925270D01*
X213770704Y-118947324D01*
X213749750Y-118966676D01*
X213727480Y-118983200D01*
X213704253Y-118996647D01*
X213688232Y-119004044D01*
X213672011Y-119010114D01*
X213654824Y-119015079D01*
X213635901Y-119019162D01*
X213615515Y-119022443D01*
X213580626Y-119028140D01*
X213548311Y-119035160D01*
X213518095Y-119043657D01*
X213489499Y-119053787D01*
X213462049Y-119065706D01*
X213435267Y-119079569D01*
X213428446Y-119083458D01*
X213405814Y-119097336D01*
X213384585Y-119111962D01*
X213364117Y-119127843D01*
X213343767Y-119145488D01*
X213322893Y-119165405D01*
X213315452Y-119172898D01*
X213307167Y-119181442D01*
X213299392Y-119189698D01*
X213291909Y-119197942D01*
X213284500Y-119206450D01*
X213276946Y-119215496D01*
X213269031Y-119225358D01*
X213260536Y-119236310D01*
X213251242Y-119248628D01*
X213240933Y-119262587D01*
X213229389Y-119278464D01*
X213216394Y-119296534D01*
X213204570Y-119313084D01*
X213160288Y-119375568D01*
X213116562Y-119438019D01*
X213073239Y-119500673D01*
X213030165Y-119563761D01*
X212987188Y-119627519D01*
X212944155Y-119692178D01*
X212900913Y-119757974D01*
X212857310Y-119825140D01*
X212813193Y-119893908D01*
X212768408Y-119964514D01*
X212722804Y-120037190D01*
X212676227Y-120112169D01*
X212628525Y-120189687D01*
X212590643Y-120251725D01*
X212572011Y-120282403D01*
X212555018Y-120310532D01*
X212539544Y-120336321D01*
X212525473Y-120359976D01*
X212512687Y-120381704D01*
X212501067Y-120401710D01*
X212490496Y-120420201D01*
X212480856Y-120437385D01*
X212472029Y-120453468D01*
X212463898Y-120468656D01*
X212456345Y-120483155D01*
X212449252Y-120497174D01*
X212442501Y-120510917D01*
X212440539Y-120514987D01*
X212434373Y-120527965D01*
X212428656Y-120540314D01*
X212423268Y-120552347D01*
X212418093Y-120564379D01*
X212413010Y-120576722D01*
X212407903Y-120589690D01*
X212402652Y-120603597D01*
X212397139Y-120618754D01*
X212391245Y-120635477D01*
X212384852Y-120654078D01*
X212377843Y-120674871D01*
X212370097Y-120698168D01*
X212361854Y-120723197D01*
X212353672Y-120748003D01*
X212346316Y-120770017D01*
X212339665Y-120789573D01*
X212333597Y-120807004D01*
X212327991Y-120822646D01*
X212322726Y-120836831D01*
X212317680Y-120849893D01*
X212312732Y-120862166D01*
X212307760Y-120873983D01*
X212303111Y-120884626D01*
X212295612Y-120901057D01*
X212287350Y-120918349D01*
X212278612Y-120935955D01*
X212269684Y-120953327D01*
X212260854Y-120969918D01*
X212252407Y-120985180D01*
X212244630Y-120998566D01*
X212237811Y-121009528D01*
X212237356Y-121010221D01*
X212224012Y-121027900D01*
X212209118Y-121042713D01*
X212192628Y-121054687D01*
X212174494Y-121063850D01*
X212154669Y-121070226D01*
X212133107Y-121073844D01*
X212122586Y-121074589D01*
X212118809Y-121074721D01*
X212115008Y-121074776D01*
X212110951Y-121074729D01*
X212106405Y-121074556D01*
X212101137Y-121074232D01*
X212094913Y-121073735D01*
X212087501Y-121073040D01*
X212078668Y-121072123D01*
X212068181Y-121070960D01*
X212055806Y-121069527D01*
X212041312Y-121067800D01*
X212024465Y-121065756D01*
X212005031Y-121063369D01*
X211982779Y-121060617D01*
X211962550Y-121058105D01*
X211918458Y-121052635D01*
X211876349Y-121047431D01*
X211836298Y-121042501D01*
X211798379Y-121037856D01*
X211762669Y-121033503D01*
X211729244Y-121029451D01*
X211698178Y-121025710D01*
X211669547Y-121022288D01*
X211643427Y-121019195D01*
X211619894Y-121016439D01*
X211599022Y-121014029D01*
X211580888Y-121011973D01*
X211565567Y-121010282D01*
X211553134Y-121008964D01*
X211543665Y-121008028D01*
X211537236Y-121007482D01*
X211533922Y-121007336D01*
X211533473Y-121007459D01*
X211535193Y-121008690D01*
X211539378Y-121011537D01*
X211545762Y-121015826D01*
X211554080Y-121021379D01*
X211564065Y-121028023D01*
X211575453Y-121035581D01*
X211587976Y-121043877D01*
X211601370Y-121052738D01*
X211615369Y-121061986D01*
X211629708Y-121071447D01*
X211644119Y-121080944D01*
X211658338Y-121090304D01*
X211672099Y-121099349D01*
X211685136Y-121107906D01*
X211697184Y-121115797D01*
X211707976Y-121122848D01*
X211717247Y-121128883D01*
X211723312Y-121132812D01*
X211738743Y-121142716D01*
X211754712Y-121152855D01*
X211770891Y-121163030D01*
X211786954Y-121173038D01*
X211802571Y-121182682D01*
X211817415Y-121191759D01*
X211831160Y-121200069D01*
X211843476Y-121207412D01*
X211854036Y-121213589D01*
X211862513Y-121218397D01*
X211868578Y-121221638D01*
X211868651Y-121221675D01*
X211879323Y-121226413D01*
X211893193Y-121231526D01*
X211910213Y-121236999D01*
X211930339Y-121242816D01*
X211944649Y-121246667D01*
X211962276Y-121251340D01*
X211977129Y-121255421D01*
X211989611Y-121259073D01*
X212000127Y-121262462D01*
X212009078Y-121265750D01*
X212016869Y-121269104D01*
X212023903Y-121272687D01*
X212030584Y-121276664D01*
X212037314Y-121281200D01*
X212044496Y-121286458D01*
X212047148Y-121288466D01*
X212053017Y-121292919D01*
X212058746Y-121297218D01*
X212064761Y-121301675D01*
X212071486Y-121306601D01*
X212079347Y-121312305D01*
X212088770Y-121319098D01*
X212100180Y-121327291D01*
X212107963Y-121332870D01*
X212113684Y-121336917D01*
X212118827Y-121340354D01*
X212123762Y-121343306D01*
X212128861Y-121345900D01*
X212134496Y-121348261D01*
X212141038Y-121350515D01*
X212148858Y-121352789D01*
X212158328Y-121355209D01*
X212169819Y-121357900D01*
X212183702Y-121360988D01*
X212200348Y-121364601D01*
X212203391Y-121365257D01*
X212251002Y-121375486D01*
X212295871Y-121385052D01*
X212338364Y-121394025D01*
X212378843Y-121402474D01*
X212417675Y-121410470D01*
X212455223Y-121418081D01*
X212491851Y-121425376D01*
X212527923Y-121432427D01*
X212563804Y-121439301D01*
X212599858Y-121446069D01*
X212636450Y-121452799D01*
X212673943Y-121459562D01*
X212712702Y-121466427D01*
X212753092Y-121473464D01*
X212795475Y-121480741D01*
X212840217Y-121488329D01*
X212887683Y-121496297D01*
X212907252Y-121499563D01*
X212958567Y-121508049D01*
X213007335Y-121515969D01*
X213053856Y-121523357D01*
X213098432Y-121530248D01*
X213141364Y-121536675D01*
X213182956Y-121542674D01*
X213223507Y-121548277D01*
X213263319Y-121553521D01*
X213302695Y-121558437D01*
X213341935Y-121563062D01*
X213381342Y-121567428D01*
X213421217Y-121571571D01*
X213461861Y-121575523D01*
X213503576Y-121579321D01*
X213546665Y-121582997D01*
X213591427Y-121586585D01*
X213638165Y-121590121D01*
X213687181Y-121593638D01*
X213738776Y-121597171D01*
X213793251Y-121600753D01*
X213808679Y-121601745D01*
X213828784Y-121603038D01*
X213850577Y-121604451D01*
X213873330Y-121605935D01*
X213896314Y-121607442D01*
X213918800Y-121608926D01*
X213940062Y-121610337D01*
X213959369Y-121611628D01*
X213972798Y-121612534D01*
X213990529Y-121613729D01*
X214005466Y-121614708D01*
X214018073Y-121615483D01*
X214028812Y-121616066D01*
X214038147Y-121616470D01*
X214046542Y-121616707D01*
X214054460Y-121616790D01*
X214062366Y-121616732D01*
X214070722Y-121616543D01*
X214079992Y-121616238D01*
X214090640Y-121615829D01*
X214092593Y-121615750D01*
X214109187Y-121615045D01*
X214123017Y-121614345D01*
X214134587Y-121613598D01*
X214144398Y-121612751D01*
X214152952Y-121611750D01*
X214160753Y-121610541D01*
X214168302Y-121609072D01*
X214176101Y-121607288D01*
X214179101Y-121606550D01*
X214203332Y-121599007D01*
X214225622Y-121588916D01*
X214246215Y-121576161D01*
X214254408Y-121569986D01*
X214259807Y-121565547D01*
X214264706Y-121561134D01*
X214269495Y-121556307D01*
X214274564Y-121550628D01*
X214280302Y-121543656D01*
X214287100Y-121534952D01*
X214295347Y-121524076D01*
X214296486Y-121522560D01*
X214304238Y-121512498D01*
X214313155Y-121501351D01*
X214322375Y-121490171D01*
X214331036Y-121480012D01*
X214335282Y-121475203D01*
X214348447Y-121460024D01*
X214359468Y-121446095D01*
X214368829Y-121432730D01*
X214377017Y-121419242D01*
X214383533Y-121406934D01*
X214391224Y-121390091D01*
X214397941Y-121372238D01*
X214403782Y-121352982D01*
X214408845Y-121331931D01*
X214413228Y-121308691D01*
X214417029Y-121282870D01*
X214419322Y-121263727D01*
X214422471Y-121237903D01*
X214426317Y-121210902D01*
X214430721Y-121183504D01*
X214435547Y-121156490D01*
X214440657Y-121130638D01*
X214445914Y-121106730D01*
X214449580Y-121091678D01*
X214454592Y-121075759D01*
X214460813Y-121062773D01*
X214468376Y-121052573D01*
X214477414Y-121045007D01*
X214488060Y-121039927D01*
X214497627Y-121037584D01*
X214510210Y-121036835D01*
X214522353Y-121038835D01*
X214534223Y-121043678D01*
X214545983Y-121051457D01*
X214557798Y-121062264D01*
X214569833Y-121076193D01*
X214572902Y-121080182D01*
X214586545Y-121100779D01*
X214597111Y-121122232D01*
X214604131Y-121142883D01*
X214605599Y-121148560D01*
X214606711Y-121153626D01*
X214607523Y-121158697D01*
X214608094Y-121164390D01*
X214608481Y-121171323D01*
X214608740Y-121180111D01*
X214608928Y-121191373D01*
X214608977Y-121195140D01*
X214609051Y-121205472D01*
X214608984Y-121215371D01*
X214608754Y-121225345D01*
X214608333Y-121235904D01*
X214607698Y-121247556D01*
X214606822Y-121260811D01*
X214605682Y-121276179D01*
X214604252Y-121294167D01*
X214603871Y-121298837D01*
X214600373Y-121341437D01*
X214597119Y-121380940D01*
X214594094Y-121417506D01*
X214591279Y-121451293D01*
X214588660Y-121482460D01*
X214586218Y-121511167D01*
X214583938Y-121537572D01*
X214581803Y-121561834D01*
X214579797Y-121584113D01*
X214577903Y-121604567D01*
X214576104Y-121623355D01*
X214574384Y-121640637D01*
X214572727Y-121656571D01*
X214571115Y-121671316D01*
X214569533Y-121685032D01*
X214567963Y-121697877D01*
X214566390Y-121710010D01*
X214564797Y-121721591D01*
X214563166Y-121732777D01*
X214561482Y-121743729D01*
X214559729Y-121754605D01*
X214557889Y-121765565D01*
X214555946Y-121776766D01*
X214553883Y-121788369D01*
X214551691Y-121800497D01*
X214548262Y-121818335D01*
X214544914Y-121833346D01*
X214541476Y-121845960D01*
X214537776Y-121856606D01*
X214533642Y-121865713D01*
X214528904Y-121873710D01*
X214523390Y-121881028D01*
X214516929Y-121888095D01*
X214516595Y-121888433D01*
X214508831Y-121895549D01*
X214500665Y-121901456D01*
X214491487Y-121906456D01*
X214480684Y-121910851D01*
X214467646Y-121914940D01*
X214457272Y-121917681D01*
X214441024Y-121922044D01*
X214427282Y-121926455D01*
X214415294Y-121931206D01*
X214404311Y-121936587D01*
X214395607Y-121941625D01*
X214380395Y-121951936D01*
X214366506Y-121963434D01*
X214353429Y-121976633D01*
X214340650Y-121992046D01*
X214328808Y-122008488D01*
X214318267Y-122022537D01*
X214306918Y-122034711D01*
X214294447Y-122045171D01*
X214280538Y-122054078D01*
X214264878Y-122061592D01*
X214247152Y-122067873D01*
X214227043Y-122073081D01*
X214204239Y-122077376D01*
X214189173Y-122079577D01*
X214178604Y-122080884D01*
X214168746Y-122081860D01*
X214158805Y-122082548D01*
X214147984Y-122082992D01*
X214135487Y-122083234D01*
X214120586Y-122083319D01*
X214099139Y-122083045D01*
X214078122Y-122082126D01*
X214057081Y-122080498D01*
X214035557Y-122078098D01*
X214013096Y-122074864D01*
X213989239Y-122070731D01*
X213963531Y-122065636D01*
X213935514Y-122059516D01*
X213915642Y-122054910D01*
X213840393Y-122037035D01*
X213762145Y-122018268D01*
X213681030Y-121998641D01*
X213597181Y-121978186D01*
X213556713Y-121968257D01*
X213511728Y-121957215D01*
X213469706Y-121946932D01*
X213430446Y-121937362D01*
X213393746Y-121928457D01*
X213359405Y-121920172D01*
X213327221Y-121912459D01*
X213296993Y-121905272D01*
X213268520Y-121898565D01*
X213241598Y-121892291D01*
X213216028Y-121886402D01*
X213191607Y-121880854D01*
X213168133Y-121875599D01*
X213145406Y-121870590D01*
X213123224Y-121865781D01*
X213101384Y-121861125D01*
X213079686Y-121856576D01*
X213057928Y-121852087D01*
X213035908Y-121847612D01*
X213027279Y-121845874D01*
X212978762Y-121836356D01*
X212927885Y-121826816D01*
X212874554Y-121817238D01*
X212818671Y-121807607D01*
X212760140Y-121797907D01*
X212698865Y-121788122D01*
X212634750Y-121778238D01*
X212567698Y-121768238D01*
X212497613Y-121758108D01*
X212424399Y-121747830D01*
X212396116Y-121743935D01*
X212387317Y-121742737D01*
X212375602Y-121741153D01*
X212361246Y-121739220D01*
X212344525Y-121736976D01*
X212325715Y-121734455D01*
X212305091Y-121731696D01*
X212282928Y-121728734D01*
X212259502Y-121725607D01*
X212235088Y-121722351D01*
X212209961Y-121719003D01*
X212184398Y-121715599D01*
X212158673Y-121712175D01*
X212133061Y-121708770D01*
X212107839Y-121705419D01*
X212083282Y-121702158D01*
X212059664Y-121699025D01*
X212037262Y-121696057D01*
X212016350Y-121693289D01*
X211997205Y-121690759D01*
X211980102Y-121688502D01*
X211965315Y-121686557D01*
X211953121Y-121684959D01*
X211943795Y-121683745D01*
X211941320Y-121683425D01*
X211923282Y-121681276D01*
X211903607Y-121679274D01*
X211881979Y-121677395D01*
X211858080Y-121675611D01*
X211831595Y-121673899D01*
X211802207Y-121672234D01*
X211797614Y-121671991D01*
X211768848Y-121670433D01*
X211742985Y-121668900D01*
X211719663Y-121667334D01*
X211698521Y-121665673D01*
X211679197Y-121663858D01*
X211661330Y-121661830D01*
X211644557Y-121659528D01*
X211628518Y-121656893D01*
X211612849Y-121653865D01*
X211597191Y-121650383D01*
X211581180Y-121646388D01*
X211564455Y-121641821D01*
X211546655Y-121636620D01*
X211527418Y-121630727D01*
X211506382Y-121624082D01*
X211504499Y-121623480D01*
X211486579Y-121617415D01*
X211470428Y-121611141D01*
X211455662Y-121604382D01*
X211441900Y-121596864D01*
X211428757Y-121588311D01*
X211415852Y-121578447D01*
X211402801Y-121566997D01*
X211389223Y-121553686D01*
X211374733Y-121538236D01*
X211358949Y-121520374D01*
X211355209Y-121516029D01*
X211332442Y-121490123D01*
X211308820Y-121464573D01*
X211284137Y-121439194D01*
X211258187Y-121413803D01*
X211230764Y-121388215D01*
X211201662Y-121362247D01*
X211170674Y-121335715D01*
X211137595Y-121308434D01*
X211102218Y-121280221D01*
X211064337Y-121250891D01*
X211024665Y-121220947D01*
X211011514Y-121211291D01*
X210996950Y-121200881D01*
X210981255Y-121189899D01*
X210964711Y-121178528D01*
X210947602Y-121166951D01*
X210930210Y-121155350D01*
X210912816Y-121143908D01*
X210895705Y-121132807D01*
X210879157Y-121122230D01*
X210863457Y-121112361D01*
X210848886Y-121103381D01*
X210835726Y-121095474D01*
X210824261Y-121088822D01*
X210814772Y-121083607D01*
X210807543Y-121080013D01*
X210805126Y-121078982D01*
X210798946Y-121076577D01*
X210794034Y-121074706D01*
X210791092Y-121073633D01*
X210790576Y-121073480D01*
X210790445Y-121075049D01*
X210790323Y-121079499D01*
X210790213Y-121086445D01*
X210790121Y-121095502D01*
X210790050Y-121106285D01*
X210790004Y-121118409D01*
X210789991Y-121126145D01*
X210789846Y-121161705D01*
X210789482Y-121194923D01*
X210788905Y-121225695D01*
X210788119Y-121253919D01*
X210787128Y-121279491D01*
X210785938Y-121302307D01*
X210784552Y-121322264D01*
X210782975Y-121339259D01*
X210781212Y-121353189D01*
X210779482Y-121362965D01*
X210775666Y-121375885D01*
X210770253Y-121386759D01*
X210763471Y-121395303D01*
X210755548Y-121401231D01*
X210746711Y-121404259D01*
X210746432Y-121404302D01*
X210741450Y-121404771D01*
X210736285Y-121404616D01*
X210730734Y-121403728D01*
X210724589Y-121401997D01*
X210717646Y-121399312D01*
X210709700Y-121395564D01*
X210700544Y-121390643D01*
X210689973Y-121384439D01*
X210677782Y-121376841D01*
X210663766Y-121367740D01*
X210647719Y-121357026D01*
X210629435Y-121344589D01*
X210610409Y-121331494D01*
X210592475Y-121319149D01*
X210577080Y-121308656D01*
X210564120Y-121299950D01*
X210553493Y-121292963D01*
X210545095Y-121287629D01*
X210538822Y-121283881D01*
X210534571Y-121281652D01*
X210532239Y-121280876D01*
X210532168Y-121280874D01*
X210530457Y-121281251D01*
X210527670Y-121282624D01*
X210523119Y-121285347D01*
X210520904Y-121286736D01*
X210521364Y-121288280D01*
X210522867Y-121292610D01*
X210525313Y-121299451D01*
X210528603Y-121308529D01*
X210532636Y-121319571D01*
X210537312Y-121332303D01*
X210542532Y-121346450D01*
X210548196Y-121361739D01*
X210552519Y-121373372D01*
X210563612Y-121403189D01*
X210573624Y-121430112D01*
X210582610Y-121454309D01*
X210590629Y-121475947D01*
X210597738Y-121495193D01*
X210603993Y-121512215D01*
X210609453Y-121527180D01*
X210614174Y-121540254D01*
X210618215Y-121551606D01*
X210621632Y-121561402D01*
X210624483Y-121569810D01*
X210626824Y-121576997D01*
X210628714Y-121583131D01*
X210630210Y-121588377D01*
X210631369Y-121592905D01*
X210632248Y-121596880D01*
X210632905Y-121600471D01*
X210633397Y-121603844D01*
X210633782Y-121607167D01*
X210634116Y-121610606D01*
X210634214Y-121611671D01*
X210635267Y-121623212D01*
X210619886Y-121625960D01*
X210611834Y-121627213D01*
X210603741Y-121628167D01*
X210596984Y-121628667D01*
X210595181Y-121628707D01*
X210588576Y-121628084D01*
X210579857Y-121626183D01*
X210568875Y-121622954D01*
X210555481Y-121618350D01*
X210539526Y-121612322D01*
X210520861Y-121604822D01*
X210517366Y-121603380D01*
X210487194Y-121590886D01*
X210484323Y-121594431D01*
X210483617Y-121595421D01*
X210483272Y-121596521D01*
X210483464Y-121598000D01*
X210484367Y-121600131D01*
X210486155Y-121603181D01*
X210489003Y-121607422D01*
X210493083Y-121613123D01*
X210498572Y-121620555D01*
X210505643Y-121629988D01*
X210514470Y-121641693D01*
X210516800Y-121644777D01*
X210530916Y-121663438D01*
X210543444Y-121679927D01*
X210554740Y-121694698D01*
X210565157Y-121708204D01*
X210575052Y-121720899D01*
X210584777Y-121733237D01*
X210594689Y-121745672D01*
X210605142Y-121758657D01*
X210616491Y-121772647D01*
X210623619Y-121781394D01*
X210639208Y-121800586D01*
X210652823Y-121817558D01*
X210664632Y-121832558D01*
X210674804Y-121845831D01*
X210683505Y-121857625D01*
X210690904Y-121868185D01*
X210697168Y-121877760D01*
X210702465Y-121886594D01*
X210706964Y-121894936D01*
X210710831Y-121903031D01*
X210714235Y-121911126D01*
X210717098Y-121918775D01*
X210721493Y-121933202D01*
X210724567Y-121947747D01*
X210726274Y-121961804D01*
X210726566Y-121974766D01*
X210725396Y-121986029D01*
X210722934Y-121994498D01*
X210717099Y-122004125D01*
X210708865Y-122011622D01*
X210698375Y-122016913D01*
X210685770Y-122019921D01*
X210674712Y-122020632D01*
X210666467Y-122020331D01*
X210655537Y-122019421D01*
X210641840Y-122017891D01*
X210625296Y-122015730D01*
X210605820Y-122012928D01*
X210583332Y-122009473D01*
X210557750Y-122005355D01*
X210551447Y-122004318D01*
X210532795Y-122001291D01*
X210517088Y-121998867D01*
X210504069Y-121997013D01*
X210493479Y-121995693D01*
X210485061Y-121994874D01*
X210478556Y-121994523D01*
X210476928Y-121994504D01*
X210470354Y-121994577D01*
X210465223Y-121994773D01*
X210462255Y-121995058D01*
X210461804Y-121995235D01*
X210462678Y-121996704D01*
X210465180Y-122000617D01*
X210469130Y-122006697D01*
X210474346Y-122014669D01*
X210480648Y-122024257D01*
X210487855Y-122035186D01*
X210495786Y-122047179D01*
X210502370Y-122057114D01*
X210511080Y-122070322D01*
X210519462Y-122083181D01*
X210527289Y-122095333D01*
X210534336Y-122106421D01*
X210540375Y-122116087D01*
X210545182Y-122123975D01*
X210548530Y-122129727D01*
X210549754Y-122132024D01*
X210556192Y-122147222D01*
X210559730Y-122160964D01*
X210560368Y-122173239D01*
X210558107Y-122184036D01*
X210552947Y-122193346D01*
X210547551Y-122199023D01*
X210542154Y-122202763D01*
X210534567Y-122206474D01*
X210524660Y-122210190D01*
X210512303Y-122213944D01*
X210497367Y-122217767D01*
X210479720Y-122221693D01*
X210459233Y-122225754D01*
X210435776Y-122229984D01*
X210409219Y-122234415D01*
X210403329Y-122235360D01*
X210391155Y-122237350D01*
X210379684Y-122239320D01*
X210369417Y-122241176D01*
X210360857Y-122242825D01*
X210354504Y-122244174D01*
X210350859Y-122245129D01*
X210350782Y-122245156D01*
X210342183Y-122249372D01*
X210336508Y-122254979D01*
X210333677Y-122262130D01*
X210333609Y-122270973D01*
X210334507Y-122275747D01*
X210335985Y-122280633D01*
X210338735Y-122288330D01*
X210342689Y-122298671D01*
X210347776Y-122311489D01*
X210353929Y-122326618D01*
X210361078Y-122343890D01*
X210369154Y-122363139D01*
X210378087Y-122384198D01*
X210387809Y-122406900D01*
X210398250Y-122431079D01*
X210409342Y-122456567D01*
X210411766Y-122462114D01*
X210418200Y-122477863D01*
X210422622Y-122491363D01*
X210425005Y-122502958D01*
X210425324Y-122512991D01*
X210423551Y-122521807D01*
X210419661Y-122529750D01*
X210413626Y-122537164D01*
X210405438Y-122544379D01*
X210402937Y-122546308D01*
X210400446Y-122548159D01*
X210397743Y-122550058D01*
X210394610Y-122552132D01*
X210390826Y-122554509D01*
X210386173Y-122557316D01*
X210380429Y-122560681D01*
X210373376Y-122564730D01*
X210364793Y-122569591D01*
X210354461Y-122575392D01*
X210342160Y-122582259D01*
X210327670Y-122590319D01*
X210310771Y-122599701D01*
X210291243Y-122610532D01*
X210290337Y-122611035D01*
X210260314Y-122627714D01*
X210232184Y-122643406D01*
X210206041Y-122658058D01*
X210181977Y-122671617D01*
X210160083Y-122684030D01*
X210140454Y-122695243D01*
X210123181Y-122705205D01*
X210108357Y-122713862D01*
X210096075Y-122721160D01*
X210086427Y-122727047D01*
X210079506Y-122731470D01*
X210076690Y-122733407D01*
X210072342Y-122736672D01*
X210066404Y-122741313D01*
X210059292Y-122746987D01*
X210051424Y-122753349D01*
X210043217Y-122760056D01*
X210035088Y-122766763D01*
X210027453Y-122773126D01*
X210020731Y-122778801D01*
X210015338Y-122783445D01*
X210011692Y-122786713D01*
X210010234Y-122788215D01*
X210010032Y-122790631D01*
X210010688Y-122794745D01*
X210010970Y-122795871D01*
X210012629Y-122802032D01*
X210056398Y-122800156D01*
X210069026Y-122799568D01*
X210081474Y-122798903D01*
X210093096Y-122798201D01*
X210103246Y-122797504D01*
X210111279Y-122796852D01*
X210115642Y-122796404D01*
X210123408Y-122795269D01*
X210134275Y-122793374D01*
X210148173Y-122790736D01*
X210165028Y-122787367D01*
X210184771Y-122783285D01*
X210207329Y-122778503D01*
X210232631Y-122773036D01*
X210260605Y-122766899D01*
X210291179Y-122760108D01*
X210309116Y-122756090D01*
X210338510Y-122749490D01*
X210364919Y-122743568D01*
X210388549Y-122738283D01*
X210409601Y-122733596D01*
X210428279Y-122729467D01*
X210444785Y-122725856D01*
X210459323Y-122722723D01*
X210472095Y-122720029D01*
X210483305Y-122717733D01*
X210493155Y-122715797D01*
X210501849Y-122714179D01*
X210509589Y-122712841D01*
X210516578Y-122711743D01*
X210523020Y-122710844D01*
X210529117Y-122710105D01*
X210535073Y-122709486D01*
X210541090Y-122708948D01*
X210547371Y-122708450D01*
X210554119Y-122707952D01*
X210554873Y-122707898D01*
X210565363Y-122707180D01*
X210573340Y-122706773D01*
X210579545Y-122706691D01*
X210584719Y-122706953D01*
X210589602Y-122707574D01*
X210594934Y-122708571D01*
X210596172Y-122708828D01*
X210602866Y-122710285D01*
X210607103Y-122711507D01*
X210609624Y-122712914D01*
X210611172Y-122714925D01*
X210612490Y-122717959D01*
X210612538Y-122718081D01*
X210615028Y-122724421D01*
X210558421Y-122768259D01*
X210541232Y-122781555D01*
X210526224Y-122793123D01*
X210513009Y-122803253D01*
X210501199Y-122812235D01*
X210490407Y-122820359D01*
X210480244Y-122827914D01*
X210470322Y-122835191D01*
X210460255Y-122842479D01*
X210449654Y-122850069D01*
X210438132Y-122858249D01*
X210435675Y-122859986D01*
X210419555Y-122871772D01*
X210406256Y-122882365D01*
X210395624Y-122891910D01*
X210387502Y-122900553D01*
X210381734Y-122908440D01*
X210379614Y-122912290D01*
X210376844Y-122918956D01*
X210374446Y-122926500D01*
X210372521Y-122934310D01*
X210371169Y-122941774D01*
X210370490Y-122948280D01*
X210370584Y-122953215D01*
X210371552Y-122955967D01*
X210372396Y-122956333D01*
X210375223Y-122956021D01*
X210379571Y-122955095D01*
X210385578Y-122953510D01*
X210393382Y-122951218D01*
X210403121Y-122948176D01*
X210414934Y-122944337D01*
X210428957Y-122939655D01*
X210445329Y-122934086D01*
X210464189Y-122927582D01*
X210485674Y-122920099D01*
X210509923Y-122911592D01*
X210537073Y-122902013D01*
X210542638Y-122900045D01*
X210564520Y-122892303D01*
X210586666Y-122884470D01*
X210608723Y-122876671D01*
X210630338Y-122869030D01*
X210651157Y-122861672D01*
X210670828Y-122854723D01*
X210688996Y-122848306D01*
X210705309Y-122842547D01*
X210719413Y-122837570D01*
X210730956Y-122833501D01*
X210735335Y-122831958D01*
X210750452Y-122826633D01*
X210766630Y-122820930D01*
X210783100Y-122815120D01*
X210799094Y-122809473D01*
X210813844Y-122804262D01*
X210826583Y-122799756D01*
X210830866Y-122798240D01*
X210870875Y-122784069D01*
X210891862Y-122784371D01*
X210899821Y-122784556D01*
X210906551Y-122784846D01*
X210911405Y-122785204D01*
X210913734Y-122785591D01*
X210913823Y-122785647D01*
X210913980Y-122787745D01*
X210913251Y-122792333D01*
X210911796Y-122798803D01*
X210909774Y-122806549D01*
X210907342Y-122814967D01*
X210904661Y-122823449D01*
X210901889Y-122831390D01*
X210901697Y-122831906D01*
X210890801Y-122857326D01*
X210877336Y-122881950D01*
X210861032Y-122906250D01*
X210852087Y-122917977D01*
X210845357Y-122926074D01*
X210837450Y-122934818D01*
X210828179Y-122944385D01*
X210817357Y-122954951D01*
X210804797Y-122966693D01*
X210790312Y-122979787D01*
X210773715Y-122994409D01*
X210754820Y-123010735D01*
X210742683Y-123021098D01*
X210722664Y-123038140D01*
X210704961Y-123053245D01*
X210689394Y-123066577D01*
X210675780Y-123078302D01*
X210663938Y-123088584D01*
X210653686Y-123097589D01*
X210644841Y-123105482D01*
X210637222Y-123112428D01*
X210630647Y-123118592D01*
X210624935Y-123124140D01*
X210619903Y-123129236D01*
X210615370Y-123134046D01*
X210611153Y-123138735D01*
X210607071Y-123143468D01*
X210604285Y-123146790D01*
X210598328Y-123154037D01*
X210593177Y-123160461D01*
X210589170Y-123165626D01*
X210586643Y-123169100D01*
X210585913Y-123170400D01*
X210587324Y-123171492D01*
X210590461Y-123171911D01*
X210593620Y-123172172D01*
X210599316Y-123172891D01*
X210606866Y-123173972D01*
X210615587Y-123175320D01*
X210620263Y-123176079D01*
X210634525Y-123178339D01*
X210646260Y-123179938D01*
X210656136Y-123180896D01*
X210664821Y-123181237D01*
X210672981Y-123180984D01*
X210681284Y-123180158D01*
X210690396Y-123178782D01*
X210692060Y-123178498D01*
X210703997Y-123176405D01*
X210718949Y-123173741D01*
X210736722Y-123170541D01*
X210757122Y-123166841D01*
X210779953Y-123162677D01*
X210805023Y-123158084D01*
X210832137Y-123153099D01*
X210861100Y-123147758D01*
X210891718Y-123142095D01*
X210923798Y-123136148D01*
X210957145Y-123129951D01*
X210991564Y-123123541D01*
X211026863Y-123116953D01*
X211062845Y-123110223D01*
X211099318Y-123103388D01*
X211099498Y-123103354D01*
X211139200Y-123095933D01*
X211176048Y-123089102D01*
X211210011Y-123082867D01*
X211241059Y-123077233D01*
X211269163Y-123072205D01*
X211294291Y-123067788D01*
X211316414Y-123063987D01*
X211335502Y-123060808D01*
X211351525Y-123058255D01*
X211364452Y-123056335D01*
X211374254Y-123055052D01*
X211380899Y-123054412D01*
X211382992Y-123054334D01*
X211385041Y-123054616D01*
X211385865Y-123056020D01*
X211385718Y-123059380D01*
X211385355Y-123062091D01*
X211380186Y-123089976D01*
X211372834Y-123117170D01*
X211363500Y-123143128D01*
X211352386Y-123167301D01*
X211339694Y-123189144D01*
X211337188Y-123192887D01*
X211323785Y-123210986D01*
X211309560Y-123227124D01*
X211293732Y-123242103D01*
X211275520Y-123256726D01*
X211273949Y-123257895D01*
X211266087Y-123263525D01*
X211256123Y-123270370D01*
X211244759Y-123277973D01*
X211232697Y-123285877D01*
X211220640Y-123293623D01*
X211209291Y-123300754D01*
X211199352Y-123306813D01*
X211194213Y-123309825D01*
X211172436Y-123323487D01*
X211153194Y-123338176D01*
X211135908Y-123354443D01*
X211119997Y-123372838D01*
X211104881Y-123393910D01*
X211103952Y-123395324D01*
X211100198Y-123401285D01*
X211095980Y-123408331D01*
X211091625Y-123415871D01*
X211087461Y-123423313D01*
X211083816Y-123430067D01*
X211081017Y-123435542D01*
X211079392Y-123439147D01*
X211079117Y-123440135D01*
X211080699Y-123440348D01*
X211085272Y-123440550D01*
X211092563Y-123440737D01*
X211102297Y-123440905D01*
X211114201Y-123441052D01*
X211127999Y-123441173D01*
X211143418Y-123441267D01*
X211160182Y-123441330D01*
X211178019Y-123441358D01*
X211182782Y-123441360D01*
X211200853Y-123441378D01*
X211217923Y-123441432D01*
X211233717Y-123441519D01*
X211247963Y-123441634D01*
X211260385Y-123441774D01*
X211270710Y-123441937D01*
X211278662Y-123442119D01*
X211283968Y-123442318D01*
X211286353Y-123442528D01*
X211286461Y-123442584D01*
X211285951Y-123444893D01*
X211284626Y-123449459D01*
X211282756Y-123455458D01*
X211280608Y-123462067D01*
X211278452Y-123468462D01*
X211276554Y-123473819D01*
X211275184Y-123477314D01*
X211275054Y-123477599D01*
X211273130Y-123479922D01*
X211268830Y-123483995D01*
X211262400Y-123489624D01*
X211254089Y-123496614D01*
X211244142Y-123504771D01*
X211232808Y-123513899D01*
X211220334Y-123523805D01*
X211206967Y-123534294D01*
X211192955Y-123545170D01*
X211178543Y-123556240D01*
X211163981Y-123567309D01*
X211149514Y-123578182D01*
X211135391Y-123588664D01*
X211121859Y-123598561D01*
X211116107Y-123602715D01*
X211100996Y-123613686D01*
X211088489Y-123623155D01*
X211078481Y-123631439D01*
X211070863Y-123638853D01*
X211065528Y-123645714D01*
X211062370Y-123652341D01*
X211061280Y-123659048D01*
X211062152Y-123666154D01*
X211064878Y-123673975D01*
X211069351Y-123682828D01*
X211075465Y-123693029D01*
X211082062Y-123703292D01*
X211089503Y-123715396D01*
X211094806Y-123725808D01*
X211098180Y-123735113D01*
X211099832Y-123743893D01*
X211099970Y-123752730D01*
X211099923Y-123753445D01*
X211098461Y-123762547D01*
X211095266Y-123771062D01*
X211090085Y-123779304D01*
X211082664Y-123787587D01*
X211072751Y-123796226D01*
X211060091Y-123805535D01*
X211055407Y-123808715D01*
X211029271Y-123825257D01*
X211002311Y-123840452D01*
X210974035Y-123854531D01*
X210943949Y-123867725D01*
X210911564Y-123880264D01*
X210878224Y-123891778D01*
X210823305Y-123908695D01*
X210765926Y-123924295D01*
X210706660Y-123938464D01*
X210646083Y-123951090D01*
X210584771Y-123962059D01*
X210523298Y-123971257D01*
X210462239Y-123978572D01*
X210416079Y-123982833D01*
X210403235Y-123983688D01*
X210387683Y-123984443D01*
X210369983Y-123985092D01*
X210350691Y-123985627D01*
X210330367Y-123986042D01*
X210309568Y-123986330D01*
X210288852Y-123986484D01*
X210268776Y-123986497D01*
X210249899Y-123986364D01*
X210232779Y-123986076D01*
X210217973Y-123985627D01*
X210211135Y-123985316D01*
X210121614Y-123979278D01*
X210032243Y-123970581D01*
X209942743Y-123959181D01*
X209852834Y-123945034D01*
X209762233Y-123928097D01*
X209670661Y-123908327D01*
X209595486Y-123890183D01*
X209496975Y-123863718D01*
X209400187Y-123834498D01*
X209305036Y-123802488D01*
X209211440Y-123767656D01*
X209119314Y-123729966D01*
X209028573Y-123689384D01*
X208939134Y-123645877D01*
X208850913Y-123599411D01*
X208780609Y-123559766D01*
X208694908Y-123508134D01*
X208611301Y-123453998D01*
X208529784Y-123397352D01*
X208450353Y-123338194D01*
X208373001Y-123276519D01*
X208297726Y-123212323D01*
X208224521Y-123145602D01*
X208153382Y-123076352D01*
X208084304Y-123004569D01*
X208017282Y-122930249D01*
X207973743Y-122879292D01*
X207911763Y-122802654D01*
X207852448Y-122724172D01*
X207795839Y-122643913D01*
X207741976Y-122561947D01*
X207690901Y-122478340D01*
X207642657Y-122393160D01*
X207597283Y-122306475D01*
X207554821Y-122218354D01*
X207515313Y-122128863D01*
X207513749Y-122125145D01*
X207481979Y-122046310D01*
X207452314Y-121966033D01*
X207424712Y-121884159D01*
X207399133Y-121800538D01*
X207375535Y-121715016D01*
X207353879Y-121627441D01*
X207334123Y-121537661D01*
X207316227Y-121445522D01*
X207300150Y-121350873D01*
X207291286Y-121292305D01*
X207282295Y-121227610D01*
X207274231Y-121164139D01*
X207267036Y-121101284D01*
X207260654Y-121038432D01*
X207255028Y-120974974D01*
X207250101Y-120910300D01*
X207245815Y-120843799D01*
X207242115Y-120774860D01*
X207241139Y-120754225D01*
X207240717Y-120742971D01*
X207240341Y-120728822D01*
X207240012Y-120712116D01*
X207239730Y-120693196D01*
X207239494Y-120672399D01*
X207239305Y-120650068D01*
X207239163Y-120626541D01*
X207239067Y-120602159D01*
X207239017Y-120577262D01*
X207239014Y-120552191D01*
X207239058Y-120527286D01*
X207239148Y-120502886D01*
X207239285Y-120479332D01*
X207239469Y-120456964D01*
X207239699Y-120436122D01*
X207239976Y-120417147D01*
X207240299Y-120400378D01*
X207240669Y-120386156D01*
X207241086Y-120374821D01*
X207241136Y-120373731D01*
X207245683Y-120289138D01*
X207251209Y-120207309D01*
X207257757Y-120127874D01*
X207265375Y-120050466D01*
X207274107Y-119974717D01*
X207283999Y-119900261D01*
X207295097Y-119826729D01*
X207307445Y-119753753D01*
X207321090Y-119680966D01*
X207335523Y-119610586D01*
X207357149Y-119514239D01*
X207380269Y-119420750D01*
X207404905Y-119330063D01*
X207431077Y-119242121D01*
X207458805Y-119156867D01*
X207488112Y-119074246D01*
X207519016Y-118994200D01*
X207551539Y-118916674D01*
X207585702Y-118841611D01*
X207621525Y-118768954D01*
X207659028Y-118698648D01*
X207687673Y-118648445D01*
X207702727Y-118623145D01*
X207718907Y-118596630D01*
X207736320Y-118568738D01*
X207755070Y-118539309D01*
X207775262Y-118508182D01*
X207797001Y-118475196D01*
X207820392Y-118440190D01*
X207845538Y-118403002D01*
X207872546Y-118363472D01*
X207884892Y-118345519D01*
X207901991Y-118320694D01*
X207917435Y-118298257D01*
X207931425Y-118277911D01*
X207944163Y-118259359D01*
X207955851Y-118242301D01*
X207966690Y-118226442D01*
X207976883Y-118211482D01*
X207986632Y-118197123D01*
X207996137Y-118183070D01*
X208005601Y-118169022D01*
X208015226Y-118154684D01*
X208025214Y-118139756D01*
X208035766Y-118123941D01*
X208047084Y-118106942D01*
X208059370Y-118088460D01*
X208071936Y-118069539D01*
X208095668Y-118033729D01*
X208117617Y-118000468D01*
X208137859Y-117969621D01*
X208156472Y-117941055D01*
X208173533Y-117914635D01*
X208189119Y-117890225D01*
X208203308Y-117867692D01*
X208216178Y-117846900D01*
X208227804Y-117827716D01*
X208238266Y-117810004D01*
X208247640Y-117793631D01*
X208256003Y-117778461D01*
X208263433Y-117764360D01*
X208270007Y-117751194D01*
X208275802Y-117738827D01*
X208280896Y-117727125D01*
X208285367Y-117715954D01*
X208289290Y-117705179D01*
X208292745Y-117694666D01*
X208295807Y-117684279D01*
X208297979Y-117676157D01*
X208305128Y-117641742D01*
X208309062Y-117606926D01*
X208309782Y-117571897D01*
X208307287Y-117536839D01*
X208301576Y-117501938D01*
X208298700Y-117489314D01*
X208290258Y-117459281D01*
X208279650Y-117429393D01*
X208266720Y-117399317D01*
X208251315Y-117368721D01*
X208233283Y-117337271D01*
X208215507Y-117309215D01*
X208201715Y-117289009D01*
X208188501Y-117271184D01*
X208175318Y-117255055D01*
X208161618Y-117239937D01*
X208153623Y-117231764D01*
X208134608Y-117213857D01*
X208114528Y-117197054D01*
X208093132Y-117181219D01*
X208070173Y-117166215D01*
X208045400Y-117151905D01*
X208018566Y-117138153D01*
X207989421Y-117124821D01*
X207957716Y-117111773D01*
X207923202Y-117098871D01*
X207892269Y-117088186D01*
X207828561Y-117068343D01*
X207763191Y-117050866D01*
X207696031Y-117035730D01*
X207626951Y-117022911D01*
X207555822Y-117012384D01*
X207482516Y-117004123D01*
X207434184Y-116999999D01*
X207416231Y-116998718D01*
X207398294Y-116997581D01*
X207380182Y-116996586D01*
X207361706Y-116995734D01*
X207342676Y-116995024D01*
X207322901Y-116994456D01*
X207302192Y-116994029D01*
X207280358Y-116993742D01*
X207257210Y-116993595D01*
X207232557Y-116993589D01*
X207206210Y-116993721D01*
X207177978Y-116993992D01*
X207147672Y-116994401D01*
X207115101Y-116994949D01*
X207080076Y-116995633D01*
X207042406Y-116996455D01*
X207001901Y-116997413D01*
X206958372Y-116998506D01*
X206946727Y-116998808D01*
X206919115Y-116999525D01*
X206890763Y-117000256D01*
X206862037Y-117000994D01*
X206833298Y-117001727D01*
X206804910Y-117002448D01*
X206777237Y-117003147D01*
X206750642Y-117003815D01*
X206725488Y-117004443D01*
X206702138Y-117005022D01*
X206680955Y-117005542D01*
X206662304Y-117005995D01*
X206646546Y-117006370D01*
X206646251Y-117006377D01*
X206624832Y-117006882D01*
X206601713Y-117007427D01*
X206577572Y-117007997D01*
X206553083Y-117008575D01*
X206528923Y-117009146D01*
X206505768Y-117009693D01*
X206484294Y-117010201D01*
X206465177Y-117010654D01*
X206459271Y-117010794D01*
X206441351Y-117011175D01*
X206420821Y-117011536D01*
X206398337Y-117011868D01*
X206374557Y-117012166D01*
X206350135Y-117012422D01*
X206325729Y-117012629D01*
X206301994Y-117012779D01*
X206279587Y-117012865D01*
X206269840Y-117012881D01*
X206245959Y-117012886D01*
X206224943Y-117012841D01*
X206206392Y-117012730D01*
X206189904Y-117012535D01*
X206175079Y-117012239D01*
X206161516Y-117011822D01*
X206148815Y-117011269D01*
X206136574Y-117010560D01*
X206124393Y-117009678D01*
X206111871Y-117008606D01*
X206098607Y-117007325D01*
X206084201Y-117005819D01*
X206068252Y-117004068D01*
X206066529Y-117003876D01*
X206010434Y-116996795D01*
X205952049Y-116987861D01*
X205891715Y-116977163D01*
X205829770Y-116964785D01*
X205766554Y-116950816D01*
X205702405Y-116935342D01*
X205637664Y-116918450D01*
X205572669Y-116900226D01*
X205507759Y-116880758D01*
X205443274Y-116860132D01*
X205379553Y-116838436D01*
X205316935Y-116815755D01*
X205286762Y-116804310D01*
X205246077Y-116788313D01*
X205205438Y-116771695D01*
X205165135Y-116754595D01*
X205125456Y-116737151D01*
X205086688Y-116719501D01*
X205049119Y-116701782D01*
X205013039Y-116684132D01*
X204978735Y-116666689D01*
X204946496Y-116649591D01*
X204916609Y-116632975D01*
X204889364Y-116616980D01*
X204870478Y-116605245D01*
X204833726Y-116580594D01*
X204799548Y-116555275D01*
X204768038Y-116529381D01*
X204739285Y-116503004D01*
X204713382Y-116476236D01*
X204690420Y-116449169D01*
X204670491Y-116421895D01*
X204653686Y-116394506D01*
X204645878Y-116379568D01*
X204632642Y-116348915D01*
X204622503Y-116317319D01*
X204615488Y-116284944D01*
X204611619Y-116251955D01*
X204610923Y-116218514D01*
X204613424Y-116184786D01*
X204614834Y-116174419D01*
X204618568Y-116153056D01*
X204623614Y-116129455D01*
X204629782Y-116104276D01*
X204636881Y-116078182D01*
X204644719Y-116051834D01*
X204653107Y-116025893D01*
X204661853Y-116001020D01*
X204670766Y-115977877D01*
X204673308Y-115971698D01*
X204688388Y-115937784D01*
X204704927Y-115904615D01*
X204722677Y-115872583D01*
X204741394Y-115842081D01*
X204760829Y-115813503D01*
X204780738Y-115787243D01*
X204800873Y-115763692D01*
X204809103Y-115754945D01*
X204820615Y-115743379D01*
X204831609Y-115733049D01*
X204842527Y-115723648D01*
X204853808Y-115714870D01*
X204865890Y-115706408D01*
X204879215Y-115697953D01*
X204894220Y-115689200D01*
X204911346Y-115679841D01*
X204931033Y-115669570D01*
X204932155Y-115668994D01*
X204958648Y-115655172D01*
X204982479Y-115642167D01*
X205004069Y-115629707D01*
X205023836Y-115617520D01*
X205042197Y-115605334D01*
X205059573Y-115592876D01*
X205076382Y-115579875D01*
X205093042Y-115566058D01*
X205100598Y-115559505D01*
X205115932Y-115545545D01*
X205130226Y-115531430D01*
X205143885Y-115516686D01*
X205157315Y-115500834D01*
X205170922Y-115483397D01*
X205185111Y-115463899D01*
X205198834Y-115444017D01*
X205209582Y-115428288D01*
X205221252Y-115411507D01*
X205233641Y-115393951D01*
X205246544Y-115375893D01*
X205259754Y-115357611D01*
X205273068Y-115339379D01*
X205286280Y-115321472D01*
X205299186Y-115304167D01*
X205311580Y-115287738D01*
X205323259Y-115272461D01*
X205334015Y-115258612D01*
X205343646Y-115246465D01*
X205351946Y-115236296D01*
X205358709Y-115228382D01*
X205361800Y-115224983D01*
X205370901Y-115215956D01*
X205381422Y-115206593D01*
X205392813Y-115197295D01*
X205404525Y-115188466D01*
X205416008Y-115180509D01*
X205426712Y-115173827D01*
X205436087Y-115168823D01*
X205441496Y-115166558D01*
X205450337Y-115164385D01*
X205459357Y-115163773D01*
X205467584Y-115164687D01*
G37*
G04 #@! TD*
D11*
G04 #@! TO.C,R306*
X152763900Y-58209600D03*
X150938900Y-58209600D03*
G04 #@! TD*
D12*
G04 #@! TO.C,R302*
X216291235Y-56779235D03*
X215000765Y-55488765D03*
G04 #@! TD*
D11*
G04 #@! TO.C,R204*
X105367500Y-63950000D03*
X103542500Y-63950000D03*
G04 #@! TD*
D13*
G04 #@! TO.C,JP213*
X131923000Y-115124000D03*
D14*
X133223000Y-115124000D03*
G04 #@! TD*
D15*
G04 #@! TO.C,R224*
X97089000Y-143221500D03*
X97089000Y-141396500D03*
G04 #@! TD*
D16*
G04 #@! TO.C,D306*
X71375000Y-84600000D03*
X71375000Y-87400000D03*
G04 #@! TD*
D17*
G04 #@! TO.C,R312*
X160184500Y-140531000D03*
X162009500Y-140531000D03*
G04 #@! TD*
D13*
G04 #@! TO.C,JP211*
X131923000Y-122744000D03*
D14*
X133223000Y-122744000D03*
G04 #@! TD*
D18*
G04 #@! TO.C,C206*
X123211000Y-140912000D03*
X118211000Y-140912000D03*
G04 #@! TD*
D19*
G04 #@! TO.C,J305*
X185000000Y-130000000D03*
G04 #@! TD*
D20*
G04 #@! TO.C,H303*
X157000000Y-118000000D03*
G04 #@! TD*
D21*
G04 #@! TO.C,J301*
X185000000Y-70000000D03*
G04 #@! TD*
D22*
G04 #@! TO.C,C203*
X79888000Y-144780000D03*
X81788000Y-144780000D03*
G04 #@! TD*
D17*
G04 #@! TO.C,R217*
X120682500Y-126180000D03*
X122507500Y-126180000D03*
G04 #@! TD*
G04 #@! TO.C,R229*
X133260500Y-140531000D03*
X135085500Y-140531000D03*
G04 #@! TD*
D13*
G04 #@! TO.C,JP221*
X131923000Y-129094000D03*
D14*
X133223000Y-129094000D03*
G04 #@! TD*
D23*
G04 #@! TO.C,R202*
X90097000Y-113572500D03*
X90097000Y-115397500D03*
G04 #@! TD*
D22*
G04 #@! TO.C,C307*
X154457400Y-58209600D03*
X156357400Y-58209600D03*
G04 #@! TD*
D20*
G04 #@! TO.C,H306*
X170000000Y-95000000D03*
G04 #@! TD*
D24*
G04 #@! TO.C,D201*
X96327000Y-68650000D03*
X96327000Y-71950000D03*
G04 #@! TD*
D11*
G04 #@! TO.C,R305*
X160129900Y-58209600D03*
X158304900Y-58209600D03*
G04 #@! TD*
D25*
G04 #@! TO.C,JP206*
X109535000Y-130650000D03*
D26*
X109535000Y-129350000D03*
G04 #@! TD*
D27*
G04 #@! TO.C,J101*
X227240000Y-144450000D03*
X227240000Y-55550000D03*
D28*
X224700000Y-63170000D03*
D29*
X224700000Y-68250000D03*
X224700000Y-73330000D03*
X224700000Y-78410000D03*
X224700000Y-83490000D03*
X224700000Y-88570000D03*
X224700000Y-93650000D03*
X224700000Y-98730000D03*
X224700000Y-103810000D03*
X224700000Y-108890000D03*
X224700000Y-113970000D03*
X224700000Y-119050000D03*
X224700000Y-124130000D03*
X224700000Y-129210000D03*
X224700000Y-134290000D03*
X224700000Y-139370000D03*
X219620000Y-63170000D03*
X219620000Y-68250000D03*
X219620000Y-73330000D03*
X219620000Y-78410000D03*
X219620000Y-83490000D03*
X219620000Y-88570000D03*
X219620000Y-93650000D03*
X219620000Y-98730000D03*
X219620000Y-103810000D03*
X219620000Y-108890000D03*
X219620000Y-113970000D03*
X219620000Y-119050000D03*
X219620000Y-124130000D03*
X219620000Y-129210000D03*
X219620000Y-134290000D03*
X219620000Y-139370000D03*
G04 #@! TD*
D30*
G04 #@! TO.C,JP309*
X148502900Y-64052360D03*
D31*
X148502900Y-62752360D03*
D32*
X148502900Y-61452360D03*
G04 #@! TD*
D33*
G04 #@! TO.C,R215*
X119695000Y-126180000D03*
X123495000Y-126180000D03*
G04 #@! TD*
D23*
G04 #@! TO.C,R304*
X180848000Y-61887500D03*
X180848000Y-63712500D03*
G04 #@! TD*
D34*
G04 #@! TO.C,U203*
X125983000Y-137610000D03*
X125983000Y-138880000D03*
X125983000Y-140150000D03*
X125983000Y-141420000D03*
X130933000Y-141420000D03*
X130933000Y-140150000D03*
X130933000Y-138880000D03*
X130933000Y-137610000D03*
G04 #@! TD*
D35*
G04 #@! TO.C,U304*
X143642421Y-97158720D03*
X143642421Y-97808720D03*
X143642421Y-98458720D03*
X145417421Y-98458720D03*
X145417421Y-97808720D03*
X145417421Y-97158720D03*
D36*
X144529921Y-97808720D03*
G04 #@! TD*
D33*
G04 #@! TO.C,R225*
X114615000Y-137991000D03*
X114615000Y-141791000D03*
G04 #@! TD*
D25*
G04 #@! TO.C,JP302*
X157439400Y-56065600D03*
D26*
X157439400Y-54765600D03*
G04 #@! TD*
D20*
G04 #@! TO.C,H304*
X170000000Y-105000000D03*
G04 #@! TD*
D23*
G04 #@! TO.C,R226*
X114615000Y-138916000D03*
X114615000Y-140741000D03*
G04 #@! TD*
D15*
G04 #@! TO.C,R301*
X183896000Y-58824500D03*
X183896000Y-56999500D03*
G04 #@! TD*
D23*
G04 #@! TO.C,R214*
X100391000Y-138789000D03*
X100391000Y-140614000D03*
G04 #@! TD*
D13*
G04 #@! TO.C,JP208*
X131923000Y-110171000D03*
D14*
X133223000Y-110171000D03*
G04 #@! TD*
D37*
G04 #@! TO.C,C305*
X160069000Y-60960000D03*
X163019000Y-60960000D03*
G04 #@! TD*
D23*
G04 #@! TO.C,R227*
X109789000Y-138597500D03*
X109789000Y-140422500D03*
G04 #@! TD*
D33*
G04 #@! TO.C,R219*
X95057000Y-127958000D03*
X91257000Y-127958000D03*
G04 #@! TD*
D13*
G04 #@! TO.C,JP223*
X78024000Y-73602000D03*
D14*
X79324000Y-73602000D03*
G04 #@! TD*
D18*
G04 #@! TO.C,C208*
X131085000Y-144087000D03*
X126085000Y-144087000D03*
G04 #@! TD*
D37*
G04 #@! TO.C,C312*
X167242000Y-142817000D03*
X170192000Y-142817000D03*
G04 #@! TD*
D21*
G04 #@! TO.C,J105*
X134000000Y-100000000D03*
G04 #@! TD*
D38*
G04 #@! TO.C,U301*
X163559400Y-58081600D03*
D39*
X165059400Y-57994100D03*
D38*
X166559400Y-58081600D03*
G04 #@! TD*
D40*
G04 #@! TO.C,U305*
X166786000Y-136222000D03*
X166136000Y-136222000D03*
X165486000Y-136222000D03*
X164836000Y-136222000D03*
X164186000Y-136222000D03*
X163536000Y-136222000D03*
X163536000Y-140522000D03*
X164186000Y-140522000D03*
X164836000Y-140522000D03*
X165486000Y-140522000D03*
X166136000Y-140522000D03*
X166786000Y-140522000D03*
D41*
X165161000Y-138372000D03*
G04 #@! TD*
D33*
G04 #@! TO.C,R210*
X104963000Y-137610000D03*
X104963000Y-141410000D03*
G04 #@! TD*
G04 #@! TO.C,R216*
X100391000Y-137864000D03*
X100391000Y-141664000D03*
G04 #@! TD*
D17*
G04 #@! TO.C,R211*
X120667000Y-131260000D03*
X122492000Y-131260000D03*
G04 #@! TD*
D42*
G04 #@! TO.C,C309*
X147245921Y-98834720D03*
X147245921Y-96934720D03*
G04 #@! TD*
D43*
G04 #@! TO.C,D101*
X143571000Y-145198000D03*
X143571000Y-141198000D03*
G04 #@! TD*
D25*
G04 #@! TO.C,JP209*
X101915000Y-130650000D03*
D26*
X101915000Y-129350000D03*
G04 #@! TD*
D44*
G04 #@! TO.C,JP306*
X176733000Y-139769000D03*
D45*
X175433000Y-139769000D03*
G04 #@! TD*
D46*
G04 #@! TO.C,C209*
X135570000Y-142944000D03*
X135570000Y-145444000D03*
G04 #@! TD*
D47*
G04 #@! TO.C,C303*
X166950000Y-61016000D03*
X165050000Y-61016000D03*
G04 #@! TD*
D34*
G04 #@! TO.C,U202*
X77440000Y-139022500D03*
X77440000Y-140292500D03*
X77440000Y-141562500D03*
X77440000Y-142832500D03*
X82390000Y-142832500D03*
X82390000Y-141562500D03*
X82390000Y-140292500D03*
X82390000Y-139022500D03*
G04 #@! TD*
D11*
G04 #@! TO.C,R310*
X162009500Y-136086000D03*
X160184500Y-136086000D03*
G04 #@! TD*
D33*
G04 #@! TO.C,R201*
X90097000Y-112585000D03*
X90097000Y-116385000D03*
G04 #@! TD*
D20*
G04 #@! TO.C,H302*
X180000000Y-105000000D03*
G04 #@! TD*
D48*
G04 #@! TO.C,RN201*
X86795000Y-122100000D03*
D49*
X86795000Y-119560000D03*
X86795000Y-117020000D03*
X86795000Y-114480000D03*
X86795000Y-111940000D03*
X86795000Y-109400000D03*
X86795000Y-106860000D03*
X86795000Y-104320000D03*
X79175000Y-104320000D03*
X79175000Y-106860000D03*
X79175000Y-109400000D03*
X79175000Y-111940000D03*
X79175000Y-114480000D03*
X79175000Y-117020000D03*
X79175000Y-119560000D03*
X79175000Y-122100000D03*
G04 #@! TD*
D44*
G04 #@! TO.C,JP305*
X176741000Y-136848000D03*
D45*
X175441000Y-136848000D03*
G04 #@! TD*
D30*
G04 #@! TO.C,JP308*
X145962900Y-64052360D03*
D31*
X145962900Y-62752360D03*
D32*
X145962900Y-61452360D03*
G04 #@! TD*
D25*
G04 #@! TO.C,JP301*
X151343400Y-56065600D03*
D26*
X151343400Y-54765600D03*
G04 #@! TD*
D50*
G04 #@! TO.C,C302*
X209000000Y-62000000D03*
D51*
X209000000Y-69500000D03*
G04 #@! TD*
D52*
G04 #@! TO.C,D202*
X77023000Y-100018000D03*
X73723000Y-100018000D03*
G04 #@! TD*
D15*
G04 #@! TO.C,R207*
X84643000Y-142840500D03*
X84643000Y-141015500D03*
G04 #@! TD*
D33*
G04 #@! TO.C,R228*
X109789000Y-137610000D03*
X109789000Y-141410000D03*
G04 #@! TD*
D25*
G04 #@! TO.C,JP219*
X104455000Y-130650000D03*
D26*
X104455000Y-129350000D03*
G04 #@! TD*
D20*
G04 #@! TO.C,H301*
X193000000Y-118000000D03*
G04 #@! TD*
D21*
G04 #@! TO.C,J104*
X80375000Y-100000000D03*
G04 #@! TD*
D33*
G04 #@! TO.C,R220*
X137531000Y-129094000D03*
X141331000Y-129094000D03*
G04 #@! TD*
D53*
G04 #@! TO.C,JP225*
X114615000Y-129350000D03*
D54*
X114615000Y-130650000D03*
G04 #@! TD*
D21*
G04 #@! TO.C,J102*
X138745000Y-137000000D03*
G04 #@! TD*
D55*
G04 #@! TO.C,D302*
X173000000Y-130400000D03*
X173000000Y-127600000D03*
G04 #@! TD*
D22*
G04 #@! TO.C,C311*
X163703000Y-142563000D03*
X165603000Y-142563000D03*
G04 #@! TD*
D56*
G04 #@! TO.C,C310*
X169860000Y-137930000D03*
X169860000Y-139830000D03*
G04 #@! TD*
D11*
G04 #@! TO.C,R311*
X162009500Y-142563000D03*
X160184500Y-142563000D03*
G04 #@! TD*
G04 #@! TO.C,R307*
X149004700Y-58158800D03*
X147179700Y-58158800D03*
G04 #@! TD*
G04 #@! TO.C,R309*
X170137500Y-136086000D03*
X168312500Y-136086000D03*
G04 #@! TD*
D20*
G04 #@! TO.C,H308*
X180000000Y-95000000D03*
G04 #@! TD*
D11*
G04 #@! TO.C,R218*
X94069500Y-127958000D03*
X92244500Y-127958000D03*
G04 #@! TD*
D25*
G04 #@! TO.C,JP303*
X160487400Y-56065600D03*
D26*
X160487400Y-54765600D03*
G04 #@! TD*
D57*
G04 #@! TO.C,U302*
X177775000Y-63275000D03*
X177775000Y-62625000D03*
X177775000Y-61975000D03*
X177775000Y-61325000D03*
X177775000Y-60675000D03*
X177775000Y-60025000D03*
X177775000Y-59375000D03*
X177775000Y-58725000D03*
X172225000Y-58725000D03*
X172225000Y-59375000D03*
X172225000Y-60025000D03*
X172225000Y-60675000D03*
X172225000Y-61325000D03*
X172225000Y-61975000D03*
X172225000Y-62625000D03*
X172225000Y-63275000D03*
D58*
X175735000Y-60552500D03*
X175735000Y-61447500D03*
X174265000Y-60552500D03*
X174265000Y-62342500D03*
X175735000Y-59657500D03*
X174265000Y-59657500D03*
X175735000Y-62342500D03*
X174265000Y-61447500D03*
G04 #@! TD*
D25*
G04 #@! TO.C,JP214*
X145730000Y-119083000D03*
D26*
X145730000Y-117783000D03*
G04 #@! TD*
D15*
G04 #@! TO.C,R206*
X86675000Y-142840500D03*
X86675000Y-141015500D03*
G04 #@! TD*
D13*
G04 #@! TO.C,JP220*
X131923000Y-125411000D03*
D14*
X133223000Y-125411000D03*
G04 #@! TD*
D33*
G04 #@! TO.C,R203*
X75873000Y-118173000D03*
X75873000Y-121973000D03*
G04 #@! TD*
D21*
G04 #@! TO.C,J103*
X144775000Y-137000000D03*
G04 #@! TD*
D59*
G04 #@! TO.C,Q301*
X215374500Y-125860000D03*
X215374500Y-123960000D03*
X213499500Y-124910000D03*
G04 #@! TD*
D23*
G04 #@! TO.C,R205*
X75873000Y-119160500D03*
X75873000Y-120985500D03*
G04 #@! TD*
D15*
G04 #@! TO.C,R308*
X216215000Y-122012500D03*
X216215000Y-120187500D03*
G04 #@! TD*
D13*
G04 #@! TO.C,JP216*
X131923000Y-107504000D03*
D14*
X133223000Y-107504000D03*
G04 #@! TD*
D60*
G04 #@! TO.C,U201*
X110000000Y-97085000D03*
D61*
X107935248Y-97940248D03*
X107080000Y-100005000D03*
X107935248Y-102069752D03*
X110000000Y-102925000D03*
X112064752Y-102069752D03*
X112920000Y-100005000D03*
X112064752Y-97940248D03*
G04 #@! TD*
D13*
G04 #@! TO.C,JP229*
X81453000Y-73602000D03*
D14*
X82753000Y-73602000D03*
G04 #@! TD*
D21*
G04 #@! TO.C,J302*
X175000000Y-71000000D03*
G04 #@! TD*
D18*
G04 #@! TO.C,C205*
X74356000Y-136300000D03*
X74356000Y-131300000D03*
G04 #@! TD*
D30*
G04 #@! TO.C,JP307*
X151042900Y-64052360D03*
D31*
X151042900Y-62752360D03*
D32*
X151042900Y-61452360D03*
G04 #@! TD*
D22*
G04 #@! TO.C,C207*
X127508000Y-135705000D03*
X129408000Y-135705000D03*
G04 #@! TD*
D62*
G04 #@! TO.C,FL301*
X179766000Y-139642000D03*
X172416000Y-139642000D03*
X179766000Y-137142000D03*
X172416000Y-137142000D03*
G04 #@! TD*
D63*
G04 #@! TO.C,U303*
X153426200Y-61218560D03*
X153426200Y-61868560D03*
X153426200Y-62518560D03*
X153426200Y-63168560D03*
X157651200Y-63168560D03*
X157651200Y-62518560D03*
X157651200Y-61868560D03*
X157651200Y-61218560D03*
G04 #@! TD*
D16*
G04 #@! TO.C,D301*
X71375000Y-64600000D03*
X71375000Y-67400000D03*
G04 #@! TD*
D33*
G04 #@! TO.C,R223*
X89175000Y-100000000D03*
X85375000Y-100000000D03*
G04 #@! TD*
D25*
G04 #@! TO.C,JP218*
X99375000Y-130650000D03*
D26*
X99375000Y-129350000D03*
G04 #@! TD*
D48*
G04 #@! TO.C,RN204*
X78039000Y-76662245D03*
D49*
X78039000Y-79202245D03*
X78039000Y-81742245D03*
X78039000Y-84282245D03*
X78039000Y-86822245D03*
X78039000Y-89362245D03*
X78039000Y-91902245D03*
X78039000Y-94442245D03*
X85659000Y-94442245D03*
X85659000Y-91902245D03*
X85659000Y-89362245D03*
X85659000Y-86822245D03*
X85659000Y-84282245D03*
X85659000Y-81742245D03*
X85659000Y-79202245D03*
X85659000Y-76662245D03*
G04 #@! TD*
D23*
G04 #@! TO.C,R208*
X104963000Y-138535000D03*
X104963000Y-140360000D03*
G04 #@! TD*
D11*
G04 #@! TO.C,R221*
X88187500Y-100000000D03*
X86362500Y-100000000D03*
G04 #@! TD*
D13*
G04 #@! TO.C,JP212*
X145512000Y-107504000D03*
D14*
X146812000Y-107504000D03*
G04 #@! TD*
D11*
G04 #@! TO.C,R212*
X94069500Y-133419000D03*
X92244500Y-133419000D03*
G04 #@! TD*
D48*
G04 #@! TO.C,RN203*
X99375000Y-133800000D03*
D49*
X101915000Y-133800000D03*
X104455000Y-133800000D03*
X106995000Y-133800000D03*
X109535000Y-133800000D03*
X112075000Y-133800000D03*
X114615000Y-133800000D03*
X114615000Y-126180000D03*
X112075000Y-126180000D03*
X109535000Y-126180000D03*
X106995000Y-126180000D03*
X104455000Y-126180000D03*
X101915000Y-126180000D03*
X99375000Y-126180000D03*
G04 #@! TD*
D55*
G04 #@! TO.C,D305*
X180000000Y-127600000D03*
X180000000Y-130400000D03*
G04 #@! TD*
D19*
G04 #@! TO.C,J304*
X165000000Y-130000000D03*
G04 #@! TD*
D33*
G04 #@! TO.C,R213*
X95057000Y-133419000D03*
X91257000Y-133419000D03*
G04 #@! TD*
D64*
G04 #@! TO.C,C306*
X176475000Y-67000000D03*
X173525000Y-67000000D03*
G04 #@! TD*
D22*
G04 #@! TO.C,C202*
X81661000Y-137102000D03*
X83561000Y-137102000D03*
G04 #@! TD*
D33*
G04 #@! TO.C,R209*
X119695000Y-131260000D03*
X123495000Y-131260000D03*
G04 #@! TD*
D65*
G04 #@! TO.C,C313*
X157414000Y-143911000D03*
X157414000Y-140961000D03*
G04 #@! TD*
D25*
G04 #@! TO.C,JP304*
X154391400Y-56065600D03*
D26*
X154391400Y-54765600D03*
G04 #@! TD*
D42*
G04 #@! TO.C,C301*
X170000000Y-60894000D03*
X170000000Y-58994000D03*
G04 #@! TD*
D55*
G04 #@! TO.C,D304*
X177000000Y-130400000D03*
X177000000Y-127600000D03*
G04 #@! TD*
D15*
G04 #@! TO.C,R303*
X179832000Y-58824500D03*
X179832000Y-56999500D03*
G04 #@! TD*
D48*
G04 #@! TO.C,RN202*
X135570000Y-107511000D03*
D49*
X135570000Y-110051000D03*
X135570000Y-112591000D03*
X135570000Y-115131000D03*
X135570000Y-117671000D03*
X135570000Y-120211000D03*
X135570000Y-122751000D03*
X135570000Y-125291000D03*
X143190000Y-125291000D03*
X143190000Y-122751000D03*
X143190000Y-120211000D03*
X143190000Y-117671000D03*
X143190000Y-115131000D03*
X143190000Y-112591000D03*
X143190000Y-110051000D03*
X143190000Y-107511000D03*
G04 #@! TD*
D56*
G04 #@! TO.C,C201*
X88707000Y-140978000D03*
X88707000Y-142878000D03*
G04 #@! TD*
D42*
G04 #@! TO.C,C304*
X181864000Y-58862000D03*
X181864000Y-56962000D03*
G04 #@! TD*
D17*
G04 #@! TO.C,R222*
X138518500Y-129094000D03*
X140343500Y-129094000D03*
G04 #@! TD*
D13*
G04 #@! TO.C,JP226*
X85009000Y-73602000D03*
D14*
X86309000Y-73602000D03*
G04 #@! TD*
D20*
G04 #@! TO.C,H305*
X157000000Y-82000000D03*
G04 #@! TD*
G04 #@! TO.C,H307*
X193000000Y-82000000D03*
G04 #@! TD*
D55*
G04 #@! TO.C,D303*
X169672000Y-127600000D03*
X169672000Y-130400000D03*
G04 #@! TD*
D25*
G04 #@! TO.C,JP227*
X112075000Y-130650000D03*
D26*
X112075000Y-129350000D03*
G04 #@! TD*
D66*
G04 #@! TO.C,Q201*
X107700000Y-61570000D03*
X110000000Y-61570000D03*
D67*
X110000000Y-55270000D03*
D66*
X112300000Y-61570000D03*
G04 #@! TD*
D11*
G04 #@! TO.C,R313*
X162009500Y-138499000D03*
X160184500Y-138499000D03*
G04 #@! TD*
D37*
G04 #@! TO.C,C308*
X177021000Y-133000000D03*
X179971000Y-133000000D03*
G04 #@! TD*
D18*
G04 #@! TO.C,C204*
X74356000Y-144428000D03*
X74356000Y-139428000D03*
G04 #@! TD*
D21*
G04 #@! TO.C,J303*
X165000000Y-70000000D03*
G04 #@! TD*
D53*
G04 #@! TO.C,JP207*
X107000000Y-129350000D03*
D54*
X107000000Y-130650000D03*
G04 #@! TD*
M02*
