G04 #@! TF.GenerationSoftware,KiCad,Pcbnew,(6.0.0)*
G04 #@! TF.CreationDate,2022-02-13T15:48:03+01:00*
G04 #@! TF.ProjectId,ADRmu,4144526d-752e-46b6-9963-61645f706362,0.3*
G04 #@! TF.SameCoordinates,Original*
G04 #@! TF.FileFunction,Soldermask,Top*
G04 #@! TF.FilePolarity,Negative*
%FSLAX46Y46*%
G04 Gerber Fmt 4.6, Leading zero omitted, Abs format (unit mm)*
G04 Created by KiCad (PCBNEW (6.0.0)) date 2022-02-13 15:48:03*
%MOMM*%
%LPD*%
G01*
G04 APERTURE LIST*
G04 Aperture macros list*
%AMRoundRect*
0 Rectangle with rounded corners*
0 $1 Rounding radius*
0 $2 $3 $4 $5 $6 $7 $8 $9 X,Y pos of 4 corners*
0 Add a 4 corners polygon primitive as box body*
4,1,4,$2,$3,$4,$5,$6,$7,$8,$9,$2,$3,0*
0 Add four circle primitives for the rounded corners*
1,1,$1+$1,$2,$3*
1,1,$1+$1,$4,$5*
1,1,$1+$1,$6,$7*
1,1,$1+$1,$8,$9*
0 Add four rect primitives between the rounded corners*
20,1,$1+$1,$2,$3,$4,$5,0*
20,1,$1+$1,$4,$5,$6,$7,0*
20,1,$1+$1,$6,$7,$8,$9,0*
20,1,$1+$1,$8,$9,$2,$3,0*%
%AMFreePoly0*
4,1,22,0.500000,-0.750000,0.000000,-0.750000,0.000000,-0.745033,-0.079941,-0.743568,-0.215256,-0.701293,-0.333266,-0.622738,-0.424486,-0.514219,-0.481581,-0.384460,-0.499164,-0.250000,-0.500000,-0.250000,-0.500000,0.250000,-0.499164,0.250000,-0.499963,0.256109,-0.478152,0.396186,-0.417904,0.524511,-0.324060,0.630769,-0.204165,0.706417,-0.067858,0.745374,0.000000,0.744959,0.000000,0.750000,
0.500000,0.750000,0.500000,-0.750000,0.500000,-0.750000,$1*%
%AMFreePoly1*
4,1,20,0.000000,0.744959,0.073905,0.744508,0.209726,0.703889,0.328688,0.626782,0.421226,0.519385,0.479903,0.390333,0.500000,0.250000,0.500000,-0.250000,0.499851,-0.262216,0.476331,-0.402017,0.414519,-0.529596,0.319384,-0.634700,0.198574,-0.708877,0.061801,-0.746166,0.000000,-0.745033,0.000000,-0.750000,-0.500000,-0.750000,-0.500000,0.750000,0.000000,0.750000,0.000000,0.744959,
0.000000,0.744959,$1*%
%AMFreePoly2*
4,1,22,0.550000,-0.750000,0.000000,-0.750000,0.000000,-0.745033,-0.079941,-0.743568,-0.215256,-0.701293,-0.333266,-0.622738,-0.424486,-0.514219,-0.481581,-0.384460,-0.499164,-0.250000,-0.500000,-0.250000,-0.500000,0.250000,-0.499164,0.250000,-0.499963,0.256109,-0.478152,0.396186,-0.417904,0.524511,-0.324060,0.630769,-0.204165,0.706417,-0.067858,0.745374,0.000000,0.744959,0.000000,0.750000,
0.550000,0.750000,0.550000,-0.750000,0.550000,-0.750000,$1*%
%AMFreePoly3*
4,1,20,0.000000,0.744959,0.073905,0.744508,0.209726,0.703889,0.328688,0.626782,0.421226,0.519385,0.479903,0.390333,0.500000,0.250000,0.500000,-0.250000,0.499851,-0.262216,0.476331,-0.402017,0.414519,-0.529596,0.319384,-0.634700,0.198574,-0.708877,0.061801,-0.746166,0.000000,-0.745033,0.000000,-0.750000,-0.550000,-0.750000,-0.550000,0.750000,0.000000,0.750000,0.000000,0.744959,
0.000000,0.744959,$1*%
%AMFreePoly4*
4,1,9,3.862500,-0.866500,0.737500,-0.866500,0.737500,-0.450000,-0.737500,-0.450000,-0.737500,0.450000,0.737500,0.450000,0.737500,0.866500,3.862500,0.866500,3.862500,-0.866500,3.862500,-0.866500,$1*%
G04 Aperture macros list end*
%ADD10C,18.100000*%
%ADD11RoundRect,0.250000X0.262500X0.450000X-0.262500X0.450000X-0.262500X-0.450000X0.262500X-0.450000X0*%
%ADD12RoundRect,0.250000X0.503814X0.132583X0.132583X0.503814X-0.503814X-0.132583X-0.132583X-0.503814X0*%
%ADD13FreePoly0,0.000000*%
%ADD14FreePoly1,0.000000*%
%ADD15RoundRect,0.250000X0.450000X-0.262500X0.450000X0.262500X-0.450000X0.262500X-0.450000X-0.262500X0*%
%ADD16RoundRect,0.250000X-0.625000X0.375000X-0.625000X-0.375000X0.625000X-0.375000X0.625000X0.375000X0*%
%ADD17RoundRect,0.250000X-0.262500X-0.450000X0.262500X-0.450000X0.262500X0.450000X-0.262500X0.450000X0*%
%ADD18C,1.600000*%
%ADD19RoundRect,0.250002X1.699998X1.699998X-1.699998X1.699998X-1.699998X-1.699998X1.699998X-1.699998X0*%
%ADD20C,4.300000*%
%ADD21RoundRect,0.250002X-1.699998X-1.699998X1.699998X-1.699998X1.699998X1.699998X-1.699998X1.699998X0*%
%ADD22RoundRect,0.250000X-0.250000X-0.475000X0.250000X-0.475000X0.250000X0.475000X-0.250000X0.475000X0*%
%ADD23RoundRect,0.250000X-0.450000X0.262500X-0.450000X-0.262500X0.450000X-0.262500X0.450000X0.262500X0*%
%ADD24R,1.200000X0.900000*%
%ADD25FreePoly0,90.000000*%
%ADD26FreePoly1,90.000000*%
%ADD27C,2.850000*%
%ADD28RoundRect,0.250000X-1.050000X1.050000X-1.050000X-1.050000X1.050000X-1.050000X1.050000X1.050000X0*%
%ADD29C,2.600000*%
%ADD30FreePoly2,90.000000*%
%ADD31R,1.500000X1.000000*%
%ADD32FreePoly3,90.000000*%
%ADD33C,1.500000*%
%ADD34RoundRect,0.150000X-0.825000X-0.150000X0.825000X-0.150000X0.825000X0.150000X-0.825000X0.150000X0*%
%ADD35RoundRect,0.093750X-0.093750X-0.106250X0.093750X-0.106250X0.093750X0.106250X-0.093750X0.106250X0*%
%ADD36R,1.000000X1.600000*%
%ADD37RoundRect,0.250000X-0.325000X-0.650000X0.325000X-0.650000X0.325000X0.650000X-0.325000X0.650000X0*%
%ADD38R,0.900000X1.300000*%
%ADD39FreePoly4,90.000000*%
%ADD40RoundRect,0.100000X-0.100000X0.625000X-0.100000X-0.625000X0.100000X-0.625000X0.100000X0.625000X0*%
%ADD41R,2.850000X1.650000*%
%ADD42RoundRect,0.250000X0.475000X-0.250000X0.475000X0.250000X-0.475000X0.250000X-0.475000X-0.250000X0*%
%ADD43R,1.800000X2.500000*%
%ADD44FreePoly0,180.000000*%
%ADD45FreePoly1,180.000000*%
%ADD46C,1.400000*%
%ADD47RoundRect,0.250000X0.250000X0.475000X-0.250000X0.475000X-0.250000X-0.475000X0.250000X-0.475000X0*%
%ADD48R,1.600000X1.600000*%
%ADD49O,1.600000X1.600000*%
%ADD50R,2.400000X2.400000*%
%ADD51C,2.400000*%
%ADD52R,0.900000X1.200000*%
%ADD53FreePoly0,270.000000*%
%ADD54FreePoly1,270.000000*%
%ADD55R,1.100000X1.100000*%
%ADD56RoundRect,0.250000X-0.475000X0.250000X-0.475000X-0.250000X0.475000X-0.250000X0.475000X0.250000X0*%
%ADD57R,1.050000X0.450000*%
%ADD58R,1.470000X0.895000*%
%ADD59RoundRect,0.150000X0.587500X0.150000X-0.587500X0.150000X-0.587500X-0.150000X0.587500X-0.150000X0*%
%ADD60O,1.200000X1.600000*%
%ADD61O,1.200000X1.200000*%
%ADD62R,2.850000X1.200000*%
%ADD63RoundRect,0.100000X-0.712500X-0.100000X0.712500X-0.100000X0.712500X0.100000X-0.712500X0.100000X0*%
%ADD64RoundRect,0.250000X0.325000X0.650000X-0.325000X0.650000X-0.325000X-0.650000X0.325000X-0.650000X0*%
%ADD65RoundRect,0.250000X0.650000X-0.325000X0.650000X0.325000X-0.650000X0.325000X-0.650000X-0.325000X0*%
%ADD66R,1.500000X2.000000*%
%ADD67R,3.800000X2.000000*%
G04 APERTURE END LIST*
D10*
X119050000Y-100000000D02*
G75*
G03*
X119050000Y-100000000I-9050000J0D01*
G01*
G04 #@! TO.C,SYM101*
G36*
X205086584Y-107798687D02*
G01*
X205093043Y-107801095D01*
X205093987Y-107801715D01*
X205097291Y-107805048D01*
X205100815Y-107809993D01*
X205102520Y-107813005D01*
X205104613Y-107818253D01*
X205105982Y-107824563D01*
X205106619Y-107832272D01*
X205106517Y-107841716D01*
X205105669Y-107853233D01*
X205104068Y-107867158D01*
X205101708Y-107883829D01*
X205100930Y-107888904D01*
X205098162Y-107906024D01*
X205094767Y-107925847D01*
X205090840Y-107947890D01*
X205086474Y-107971670D01*
X205081764Y-107996706D01*
X205076805Y-108022514D01*
X205071689Y-108048612D01*
X205066511Y-108074517D01*
X205061366Y-108099746D01*
X205056346Y-108123816D01*
X205051547Y-108146246D01*
X205047062Y-108166552D01*
X205045294Y-108174337D01*
X205038833Y-108202860D01*
X205033201Y-108228564D01*
X205028352Y-108251776D01*
X205024239Y-108272824D01*
X205020816Y-108292034D01*
X205018036Y-108309734D01*
X205015854Y-108326252D01*
X205014221Y-108341914D01*
X205013094Y-108357048D01*
X205012424Y-108371982D01*
X205012165Y-108387042D01*
X205012272Y-108402556D01*
X205012353Y-108406696D01*
X205012737Y-108419200D01*
X205013358Y-108431612D01*
X205014264Y-108444356D01*
X205015498Y-108457858D01*
X205017107Y-108472543D01*
X205019138Y-108488834D01*
X205021634Y-108507156D01*
X205024643Y-108527936D01*
X205027367Y-108546064D01*
X205034547Y-108589328D01*
X205042525Y-108629731D01*
X205051395Y-108667600D01*
X205061250Y-108703264D01*
X205072185Y-108737051D01*
X205084293Y-108769288D01*
X205097669Y-108800304D01*
X205104217Y-108814134D01*
X205114198Y-108833917D01*
X205123713Y-108851151D01*
X205133163Y-108866436D01*
X205142952Y-108880371D01*
X205153479Y-108893555D01*
X205165149Y-108906588D01*
X205168659Y-108910275D01*
X205183499Y-108924903D01*
X205198412Y-108937919D01*
X205213849Y-108949593D01*
X205230263Y-108960192D01*
X205248106Y-108969986D01*
X205267831Y-108979243D01*
X205289889Y-108988231D01*
X205314734Y-108997219D01*
X205315650Y-108997533D01*
X205384278Y-109019966D01*
X205453189Y-109040266D01*
X205522726Y-109058506D01*
X205593230Y-109074756D01*
X205665045Y-109089087D01*
X205738511Y-109101570D01*
X205813970Y-109112275D01*
X205891765Y-109121274D01*
X205931299Y-109125124D01*
X205958066Y-109127486D01*
X205984431Y-109129621D01*
X206010742Y-109131545D01*
X206037347Y-109133276D01*
X206064595Y-109134829D01*
X206092833Y-109136222D01*
X206122410Y-109137471D01*
X206153674Y-109138591D01*
X206186974Y-109139601D01*
X206222658Y-109140515D01*
X206261073Y-109141351D01*
X206282753Y-109141770D01*
X206349728Y-109142620D01*
X206419316Y-109142730D01*
X206491587Y-109142098D01*
X206566611Y-109140722D01*
X206644456Y-109138600D01*
X206725193Y-109135730D01*
X206808890Y-109132110D01*
X206895617Y-109127739D01*
X206985443Y-109122614D01*
X206996845Y-109121923D01*
X207020537Y-109120438D01*
X207041426Y-109119034D01*
X207059972Y-109117669D01*
X207076634Y-109116302D01*
X207091874Y-109114892D01*
X207106152Y-109113396D01*
X207119928Y-109111773D01*
X207133661Y-109109981D01*
X207142183Y-109108793D01*
X207203672Y-109098410D01*
X207264203Y-109084923D01*
X207323803Y-109068323D01*
X207382495Y-109048601D01*
X207440303Y-109025747D01*
X207497251Y-108999753D01*
X207553365Y-108970608D01*
X207608668Y-108938305D01*
X207635028Y-108921612D01*
X207647001Y-108913694D01*
X207661437Y-108903897D01*
X207678200Y-108892320D01*
X207697152Y-108879062D01*
X207718157Y-108864221D01*
X207741079Y-108847897D01*
X207765780Y-108830187D01*
X207792125Y-108811191D01*
X207819976Y-108791007D01*
X207849196Y-108769734D01*
X207879650Y-108747469D01*
X207911200Y-108724313D01*
X207943710Y-108700364D01*
X207977043Y-108675720D01*
X208011063Y-108650480D01*
X208025091Y-108640046D01*
X208045465Y-108624909D01*
X208063508Y-108611575D01*
X208079484Y-108599870D01*
X208093661Y-108589619D01*
X208106304Y-108580648D01*
X208117680Y-108572782D01*
X208128054Y-108565845D01*
X208137694Y-108559663D01*
X208146865Y-108554061D01*
X208155833Y-108548865D01*
X208164865Y-108543898D01*
X208174227Y-108538987D01*
X208184185Y-108533957D01*
X208193849Y-108529196D01*
X208237020Y-108509731D01*
X208282643Y-108492285D01*
X208330582Y-108476881D01*
X208380701Y-108463546D01*
X208432864Y-108452305D01*
X208486935Y-108443182D01*
X208542778Y-108436204D01*
X208600257Y-108431396D01*
X208659236Y-108428783D01*
X208719579Y-108428390D01*
X208734378Y-108428632D01*
X208755404Y-108429096D01*
X208773673Y-108429616D01*
X208789660Y-108430283D01*
X208803836Y-108431189D01*
X208816676Y-108432426D01*
X208828652Y-108434086D01*
X208840238Y-108436261D01*
X208851908Y-108439043D01*
X208864135Y-108442523D01*
X208877391Y-108446794D01*
X208892150Y-108451948D01*
X208908886Y-108458076D01*
X208928072Y-108465271D01*
X208933454Y-108467303D01*
X208945444Y-108471971D01*
X208954638Y-108475921D01*
X208961368Y-108479371D01*
X208965968Y-108482537D01*
X208968770Y-108485638D01*
X208970107Y-108488890D01*
X208970350Y-108491395D01*
X208969484Y-108496146D01*
X208966743Y-108500731D01*
X208961911Y-108505289D01*
X208954770Y-108509959D01*
X208945105Y-108514880D01*
X208932699Y-108520193D01*
X208917335Y-108526038D01*
X208915761Y-108526609D01*
X208907960Y-108529451D01*
X208901258Y-108531939D01*
X208896258Y-108533844D01*
X208893564Y-108534939D01*
X208893307Y-108535067D01*
X208893304Y-108536784D01*
X208895483Y-108540178D01*
X208899497Y-108544860D01*
X208905002Y-108550439D01*
X208911649Y-108556526D01*
X208914631Y-108559083D01*
X208924924Y-108567360D01*
X208935572Y-108575096D01*
X208946970Y-108582512D01*
X208959514Y-108589826D01*
X208973600Y-108597259D01*
X208989624Y-108605030D01*
X209007981Y-108613359D01*
X209028322Y-108622148D01*
X209051320Y-108632104D01*
X209071510Y-108641295D01*
X209089215Y-108649890D01*
X209104757Y-108658059D01*
X209118459Y-108665973D01*
X209130642Y-108673801D01*
X209141629Y-108681713D01*
X209142327Y-108682248D01*
X209147283Y-108686305D01*
X209153058Y-108691415D01*
X209159167Y-108697098D01*
X209165121Y-108702874D01*
X209170431Y-108708262D01*
X209174612Y-108712783D01*
X209177174Y-108715956D01*
X209177743Y-108717117D01*
X209176371Y-108718974D01*
X209172670Y-108721851D01*
X209167262Y-108725369D01*
X209160769Y-108729150D01*
X209153814Y-108732816D01*
X209147019Y-108735987D01*
X209145980Y-108736427D01*
X209137391Y-108739755D01*
X209128786Y-108742514D01*
X209119684Y-108744781D01*
X209109607Y-108746634D01*
X209098075Y-108748150D01*
X209084608Y-108749407D01*
X209068727Y-108750483D01*
X209054450Y-108751242D01*
X209036550Y-108752249D01*
X209021385Y-108753427D01*
X209008425Y-108754848D01*
X208997140Y-108756583D01*
X208987001Y-108758706D01*
X208977477Y-108761287D01*
X208975199Y-108761991D01*
X208961778Y-108766231D01*
X208977903Y-108774447D01*
X208991536Y-108781202D01*
X209003429Y-108786602D01*
X209014600Y-108791037D01*
X209026070Y-108794895D01*
X209038860Y-108798567D01*
X209045923Y-108800417D01*
X209072934Y-108807917D01*
X209096965Y-108815850D01*
X209118287Y-108824326D01*
X209137168Y-108833452D01*
X209153879Y-108843336D01*
X209154881Y-108843997D01*
X209173404Y-108857673D01*
X209189185Y-108872414D01*
X209202485Y-108888588D01*
X209213561Y-108906563D01*
X209222671Y-108926705D01*
X209230075Y-108949382D01*
X209230752Y-108951880D01*
X209236241Y-108970532D01*
X209242203Y-108986572D01*
X209248990Y-109000656D01*
X209256958Y-109013435D01*
X209266460Y-109025562D01*
X209276500Y-109036345D01*
X209281946Y-109041714D01*
X209287320Y-109046739D01*
X209293032Y-109051750D01*
X209299488Y-109057076D01*
X209307098Y-109063048D01*
X209316269Y-109069997D01*
X209327410Y-109078251D01*
X209336963Y-109085250D01*
X209356112Y-109099410D01*
X209372685Y-109112079D01*
X209386892Y-109123466D01*
X209398945Y-109133781D01*
X209409053Y-109143236D01*
X209417429Y-109152039D01*
X209424283Y-109160401D01*
X209429827Y-109168532D01*
X209434271Y-109176641D01*
X209437826Y-109184940D01*
X209438247Y-109186080D01*
X209439998Y-109191506D01*
X209442046Y-109198773D01*
X209444207Y-109207115D01*
X209446300Y-109215767D01*
X209448142Y-109223961D01*
X209449552Y-109230933D01*
X209450348Y-109235917D01*
X209450458Y-109237439D01*
X209450196Y-109238412D01*
X209449194Y-109239366D01*
X209447127Y-109240395D01*
X209443670Y-109241594D01*
X209438500Y-109243060D01*
X209431292Y-109244888D01*
X209421720Y-109247173D01*
X209409462Y-109250010D01*
X209401467Y-109251838D01*
X209389345Y-109254632D01*
X209378321Y-109257230D01*
X209368780Y-109259536D01*
X209361105Y-109261456D01*
X209355680Y-109262894D01*
X209352889Y-109263756D01*
X209352593Y-109263929D01*
X209353781Y-109265237D01*
X209357061Y-109268436D01*
X209362110Y-109273220D01*
X209368602Y-109279284D01*
X209376213Y-109286322D01*
X209383064Y-109292609D01*
X209406647Y-109314440D01*
X209429117Y-109335763D01*
X209450266Y-109356366D01*
X209469884Y-109376035D01*
X209487761Y-109394556D01*
X209503689Y-109411717D01*
X209517457Y-109427303D01*
X209528857Y-109441102D01*
X209528945Y-109441214D01*
X209542713Y-109459246D01*
X209553991Y-109475353D01*
X209562838Y-109489655D01*
X209569312Y-109502271D01*
X209573473Y-109513317D01*
X209575380Y-109522914D01*
X209575090Y-109531179D01*
X209574621Y-109533279D01*
X209570860Y-109541166D01*
X209563997Y-109548728D01*
X209554186Y-109555856D01*
X209541585Y-109562440D01*
X209526350Y-109568370D01*
X209523127Y-109569428D01*
X209517369Y-109571365D01*
X209512851Y-109573070D01*
X209510470Y-109574200D01*
X209510382Y-109574270D01*
X209510662Y-109576073D01*
X209512941Y-109579619D01*
X209516811Y-109584438D01*
X209521868Y-109590064D01*
X209527706Y-109596026D01*
X209533918Y-109601856D01*
X209535419Y-109603183D01*
X209538965Y-109606245D01*
X209544677Y-109611136D01*
X209552226Y-109617577D01*
X209561283Y-109625287D01*
X209571521Y-109633989D01*
X209582611Y-109643401D01*
X209594224Y-109653245D01*
X209599063Y-109657342D01*
X209625615Y-109679931D01*
X209649680Y-109700639D01*
X209671366Y-109719567D01*
X209690782Y-109736817D01*
X209708037Y-109752489D01*
X209723239Y-109766684D01*
X209736496Y-109779505D01*
X209747917Y-109791052D01*
X209757611Y-109801425D01*
X209765687Y-109810728D01*
X209771501Y-109818055D01*
X209783822Y-109835635D01*
X209796266Y-109855752D01*
X209808428Y-109877723D01*
X209818072Y-109896984D01*
X209825037Y-109912060D01*
X209830346Y-109924703D01*
X209834109Y-109935226D01*
X209836433Y-109943945D01*
X209837428Y-109951174D01*
X209837484Y-109953127D01*
X209836651Y-109961834D01*
X209833961Y-109968346D01*
X209829127Y-109972911D01*
X209821863Y-109975780D01*
X209811882Y-109977203D01*
X209809722Y-109977327D01*
X209806562Y-109977421D01*
X209803230Y-109977372D01*
X209799451Y-109977133D01*
X209794946Y-109976659D01*
X209789439Y-109975902D01*
X209782653Y-109974817D01*
X209774309Y-109973356D01*
X209764131Y-109971473D01*
X209751841Y-109969122D01*
X209737162Y-109966255D01*
X209719817Y-109962827D01*
X209701127Y-109959110D01*
X209676352Y-109954174D01*
X209654559Y-109949837D01*
X209635527Y-109946059D01*
X209619033Y-109942803D01*
X209604856Y-109940030D01*
X209592775Y-109937700D01*
X209582568Y-109935776D01*
X209574014Y-109934218D01*
X209566891Y-109932988D01*
X209560978Y-109932047D01*
X209556053Y-109931356D01*
X209551894Y-109930877D01*
X209548281Y-109930571D01*
X209544991Y-109930400D01*
X209541803Y-109930323D01*
X209538496Y-109930304D01*
X209518116Y-109930304D01*
X209515492Y-109937383D01*
X209512869Y-109944462D01*
X209549842Y-109970033D01*
X209559223Y-109976484D01*
X209570821Y-109984401D01*
X209584133Y-109993444D01*
X209598655Y-110003272D01*
X209613884Y-110013544D01*
X209629315Y-110023920D01*
X209644446Y-110034059D01*
X209652136Y-110039198D01*
X209671702Y-110052297D01*
X209688785Y-110063838D01*
X209703655Y-110074019D01*
X209716581Y-110083039D01*
X209727833Y-110091098D01*
X209737681Y-110098396D01*
X209746393Y-110105133D01*
X209754239Y-110111507D01*
X209761489Y-110117718D01*
X209768411Y-110123965D01*
X209774972Y-110130156D01*
X209792463Y-110147862D01*
X209807822Y-110165445D01*
X209821479Y-110183540D01*
X209833862Y-110202778D01*
X209845400Y-110223791D01*
X209856522Y-110247213D01*
X209860394Y-110256091D01*
X209863319Y-110263147D01*
X209866835Y-110271978D01*
X209870799Y-110282186D01*
X209875064Y-110293376D01*
X209879487Y-110305153D01*
X209883923Y-110317119D01*
X209888226Y-110328879D01*
X209892253Y-110340037D01*
X209895858Y-110350197D01*
X209898897Y-110358963D01*
X209901224Y-110365939D01*
X209902696Y-110370728D01*
X209903167Y-110372936D01*
X209903135Y-110373028D01*
X209901314Y-110373899D01*
X209896932Y-110375725D01*
X209890484Y-110378309D01*
X209882465Y-110381452D01*
X209873368Y-110384957D01*
X209873002Y-110385097D01*
X209862202Y-110389298D01*
X209854206Y-110392604D01*
X209848718Y-110395154D01*
X209845445Y-110397089D01*
X209844091Y-110398549D01*
X209844016Y-110398928D01*
X209844604Y-110403491D01*
X209846348Y-110411000D01*
X209849216Y-110421356D01*
X209853178Y-110434462D01*
X209858201Y-110450220D01*
X209864255Y-110468533D01*
X209871309Y-110489303D01*
X209879331Y-110512433D01*
X209888291Y-110537824D01*
X209889440Y-110541053D01*
X209898598Y-110567506D01*
X209906323Y-110591517D01*
X209912718Y-110613527D01*
X209917884Y-110633978D01*
X209921922Y-110653311D01*
X209924936Y-110671967D01*
X209927026Y-110690388D01*
X209928294Y-110709014D01*
X209928317Y-110709492D01*
X209928530Y-110719345D01*
X209928360Y-110730232D01*
X209927855Y-110741612D01*
X209927067Y-110752941D01*
X209926048Y-110763680D01*
X209924848Y-110773286D01*
X209923517Y-110781217D01*
X209922108Y-110786931D01*
X209920760Y-110789794D01*
X209919012Y-110789597D01*
X209914430Y-110788536D01*
X209907308Y-110786694D01*
X209897940Y-110784150D01*
X209886620Y-110780987D01*
X209873639Y-110777287D01*
X209859293Y-110773130D01*
X209843874Y-110768597D01*
X209836886Y-110766524D01*
X209821074Y-110761825D01*
X209806200Y-110757420D01*
X209792559Y-110753396D01*
X209780445Y-110749838D01*
X209770155Y-110746834D01*
X209761983Y-110744468D01*
X209756223Y-110742828D01*
X209753171Y-110742000D01*
X209752764Y-110741915D01*
X209752373Y-110743426D01*
X209753170Y-110747932D01*
X209755141Y-110755390D01*
X209758273Y-110765758D01*
X209762551Y-110778994D01*
X209767962Y-110795054D01*
X209774492Y-110813898D01*
X209782128Y-110835481D01*
X209790856Y-110859763D01*
X209792475Y-110864234D01*
X209803298Y-110894269D01*
X209813250Y-110922277D01*
X209822287Y-110948120D01*
X209830362Y-110971661D01*
X209837429Y-110992765D01*
X209843441Y-111011294D01*
X209848353Y-111027111D01*
X209852118Y-111040081D01*
X209853184Y-111044024D01*
X209855615Y-111054275D01*
X209857041Y-111063339D01*
X209857690Y-111072946D01*
X209857799Y-111079172D01*
X209857768Y-111087420D01*
X209857481Y-111093284D01*
X209856799Y-111097645D01*
X209855587Y-111101381D01*
X209853745Y-111105300D01*
X209849270Y-111112136D01*
X209843269Y-111117842D01*
X209835505Y-111122485D01*
X209825739Y-111126136D01*
X209813733Y-111128863D01*
X209799249Y-111130735D01*
X209782049Y-111131822D01*
X209761894Y-111132192D01*
X209761066Y-111132193D01*
X209734455Y-111132207D01*
X209735340Y-111137514D01*
X209735737Y-111140645D01*
X209736360Y-111146486D01*
X209737157Y-111154496D01*
X209738074Y-111164132D01*
X209739057Y-111174851D01*
X209739551Y-111180381D01*
X209742223Y-111208919D01*
X209744946Y-111234541D01*
X209747780Y-111257596D01*
X209750786Y-111278434D01*
X209754025Y-111297402D01*
X209757557Y-111314853D01*
X209761442Y-111331133D01*
X209765742Y-111346594D01*
X209770516Y-111361585D01*
X209771403Y-111364181D01*
X209778925Y-111383808D01*
X209786832Y-111400214D01*
X209795119Y-111413388D01*
X209798151Y-111417285D01*
X209801813Y-111421369D01*
X209807325Y-111426987D01*
X209814758Y-111434207D01*
X209824186Y-111443096D01*
X209835682Y-111453722D01*
X209849320Y-111466150D01*
X209865171Y-111480448D01*
X209883308Y-111496684D01*
X209903806Y-111514924D01*
X209919951Y-111529234D01*
X209937886Y-111545133D01*
X209953563Y-111559103D01*
X209967190Y-111571356D01*
X209978978Y-111582103D01*
X209989134Y-111591554D01*
X209997870Y-111599921D01*
X210005392Y-111607415D01*
X210011912Y-111614247D01*
X210017638Y-111620628D01*
X210022779Y-111626769D01*
X210027544Y-111632882D01*
X210032142Y-111639177D01*
X210036784Y-111645865D01*
X210039488Y-111649874D01*
X210051968Y-111670153D01*
X210062626Y-111691146D01*
X210071688Y-111713424D01*
X210079378Y-111737559D01*
X210085923Y-111764124D01*
X210087472Y-111771534D01*
X210093012Y-111795461D01*
X210099506Y-111816785D01*
X210107183Y-111836087D01*
X210116268Y-111853949D01*
X210125318Y-111868509D01*
X210128653Y-111872876D01*
X210134188Y-111879387D01*
X210141792Y-111887899D01*
X210151333Y-111898271D01*
X210162680Y-111910358D01*
X210175701Y-111924018D01*
X210190265Y-111939109D01*
X210190440Y-111939288D01*
X210215704Y-111965449D01*
X210238784Y-111989632D01*
X210259891Y-112012080D01*
X210279236Y-112033035D01*
X210297032Y-112052738D01*
X210313490Y-112071431D01*
X210328822Y-112089357D01*
X210343240Y-112106757D01*
X210356956Y-112123873D01*
X210370180Y-112140947D01*
X210383126Y-112158220D01*
X210388166Y-112165092D01*
X210410614Y-112196140D01*
X210432090Y-112226414D01*
X210453095Y-112256641D01*
X210474130Y-112287550D01*
X210495696Y-112319869D01*
X210518292Y-112354326D01*
X210518713Y-112354973D01*
X210544634Y-112394811D01*
X210539592Y-112401177D01*
X210534551Y-112407543D01*
X210527727Y-112404090D01*
X210520374Y-112400305D01*
X210510453Y-112395098D01*
X210498255Y-112388626D01*
X210484071Y-112381046D01*
X210468191Y-112372515D01*
X210450907Y-112363189D01*
X210432510Y-112353226D01*
X210413290Y-112342783D01*
X210393539Y-112332016D01*
X210373547Y-112321082D01*
X210359563Y-112313411D01*
X210340177Y-112302764D01*
X210323431Y-112293572D01*
X210309099Y-112285726D01*
X210296957Y-112279115D01*
X210286779Y-112273629D01*
X210278338Y-112269157D01*
X210271411Y-112265588D01*
X210265771Y-112262813D01*
X210261192Y-112260719D01*
X210257450Y-112259198D01*
X210254319Y-112258138D01*
X210251573Y-112257428D01*
X210248987Y-112256959D01*
X210246335Y-112256619D01*
X210243392Y-112256298D01*
X210242992Y-112256254D01*
X210236946Y-112255672D01*
X210232450Y-112255417D01*
X210230224Y-112255524D01*
X210230114Y-112255652D01*
X210243289Y-112278444D01*
X210256497Y-112298386D01*
X210266862Y-112312064D01*
X210286111Y-112336570D01*
X210303907Y-112360619D01*
X210320593Y-112384757D01*
X210336513Y-112409530D01*
X210352008Y-112435485D01*
X210367423Y-112463167D01*
X210383100Y-112493123D01*
X210393174Y-112513224D01*
X210398976Y-112525032D01*
X210404349Y-112536116D01*
X210409487Y-112546901D01*
X210414583Y-112557811D01*
X210419829Y-112569271D01*
X210425419Y-112581706D01*
X210431545Y-112595540D01*
X210438401Y-112611198D01*
X210446179Y-112629104D01*
X210453138Y-112645200D01*
X210462824Y-112667537D01*
X210471506Y-112687316D01*
X210479400Y-112705006D01*
X210486725Y-112721078D01*
X210493699Y-112736000D01*
X210500540Y-112750244D01*
X210507466Y-112764278D01*
X210514696Y-112778572D01*
X210518325Y-112785640D01*
X210544999Y-112835447D01*
X210572601Y-112883115D01*
X210601795Y-112929761D01*
X210622522Y-112960918D01*
X210629058Y-112970740D01*
X210635438Y-112980721D01*
X210641247Y-112990186D01*
X210646074Y-112998462D01*
X210649507Y-113004873D01*
X210649969Y-113005826D01*
X210652615Y-113011989D01*
X210655920Y-113020552D01*
X210659621Y-113030781D01*
X210663453Y-113041941D01*
X210667154Y-113053301D01*
X210667971Y-113055905D01*
X210673873Y-113074421D01*
X210679159Y-113090002D01*
X210683944Y-113102896D01*
X210688347Y-113113350D01*
X210692482Y-113121613D01*
X210696467Y-113127932D01*
X210700417Y-113132554D01*
X210704449Y-113135729D01*
X210705819Y-113136501D01*
X210709104Y-113137786D01*
X210715254Y-113139781D01*
X210723965Y-113142404D01*
X210734935Y-113145568D01*
X210747859Y-113149189D01*
X210762436Y-113153182D01*
X210778362Y-113157462D01*
X210795334Y-113161944D01*
X210813049Y-113166544D01*
X210814030Y-113166797D01*
X210881698Y-113183438D01*
X210947231Y-113197981D01*
X211010953Y-113210480D01*
X211073186Y-113220988D01*
X211134254Y-113229559D01*
X211194479Y-113236246D01*
X211254185Y-113241103D01*
X211269171Y-113242043D01*
X211291345Y-113243048D01*
X211313904Y-113243502D01*
X211336336Y-113243425D01*
X211358131Y-113242838D01*
X211378779Y-113241761D01*
X211397769Y-113240216D01*
X211414590Y-113238222D01*
X211428733Y-113235802D01*
X211429989Y-113235535D01*
X211451806Y-113229345D01*
X211471684Y-113220617D01*
X211489716Y-113209280D01*
X211505994Y-113195259D01*
X211520611Y-113178482D01*
X211533661Y-113158876D01*
X211538683Y-113149804D01*
X211546833Y-113135511D01*
X211554819Y-113124120D01*
X211562906Y-113115297D01*
X211571361Y-113108705D01*
X211571366Y-113108703D01*
X211603209Y-113087633D01*
X211632383Y-113066801D01*
X211659409Y-113045741D01*
X211684808Y-113023988D01*
X211709099Y-113001078D01*
X211732805Y-112976546D01*
X211756446Y-112949927D01*
X211776919Y-112925263D01*
X211784125Y-112916255D01*
X211791135Y-112907298D01*
X211798072Y-112898203D01*
X211805062Y-112888782D01*
X211812229Y-112878845D01*
X211819700Y-112868206D01*
X211827597Y-112856675D01*
X211836047Y-112844063D01*
X211845175Y-112830183D01*
X211855105Y-112814847D01*
X211865962Y-112797864D01*
X211877871Y-112779048D01*
X211890957Y-112758210D01*
X211905345Y-112735161D01*
X211921159Y-112709712D01*
X211938526Y-112681676D01*
X211940381Y-112678677D01*
X211986481Y-112604040D01*
X212030847Y-112531991D01*
X212073558Y-112462402D01*
X212114692Y-112395145D01*
X212154326Y-112330090D01*
X212192540Y-112267109D01*
X212229410Y-112206073D01*
X212265015Y-112146853D01*
X212299434Y-112089320D01*
X212332744Y-112033346D01*
X212365023Y-111978802D01*
X212375792Y-111960535D01*
X212387654Y-111940373D01*
X212398035Y-111922668D01*
X212407126Y-111907074D01*
X212415119Y-111893243D01*
X212422206Y-111880827D01*
X212428579Y-111869480D01*
X212434427Y-111858853D01*
X212439944Y-111848599D01*
X212445320Y-111838372D01*
X212450748Y-111827822D01*
X212456418Y-111816604D01*
X212462522Y-111804369D01*
X212468268Y-111792764D01*
X212473372Y-111782417D01*
X212478001Y-111772993D01*
X212482299Y-111764187D01*
X212486407Y-111755692D01*
X212490468Y-111747203D01*
X212494625Y-111738415D01*
X212499020Y-111729020D01*
X212503795Y-111718714D01*
X212509094Y-111707191D01*
X212515058Y-111694145D01*
X212521830Y-111679270D01*
X212529552Y-111662261D01*
X212538368Y-111642812D01*
X212545843Y-111626306D01*
X212555536Y-111604946D01*
X212564042Y-111586314D01*
X212571487Y-111570150D01*
X212578000Y-111556192D01*
X212583706Y-111544180D01*
X212588733Y-111533852D01*
X212593208Y-111524947D01*
X212597258Y-111517204D01*
X212601010Y-111510361D01*
X212604590Y-111504158D01*
X212607823Y-111498820D01*
X212616263Y-111485299D01*
X212623389Y-111474204D01*
X212629525Y-111465136D01*
X212634994Y-111457695D01*
X212640120Y-111451479D01*
X212645225Y-111446090D01*
X212650633Y-111441126D01*
X212656667Y-111436189D01*
X212661253Y-111432671D01*
X212669920Y-111426609D01*
X212679548Y-111420842D01*
X212690610Y-111415136D01*
X212703577Y-111409261D01*
X212718920Y-111402983D01*
X212730926Y-111398376D01*
X212747327Y-111392025D01*
X212765835Y-111384536D01*
X212785642Y-111376249D01*
X212805943Y-111367505D01*
X212825931Y-111358644D01*
X212838358Y-111352991D01*
X212850604Y-111347266D01*
X212863917Y-111340883D01*
X212877930Y-111334032D01*
X212892275Y-111326902D01*
X212906582Y-111319683D01*
X212920484Y-111312566D01*
X212933613Y-111305739D01*
X212945600Y-111299392D01*
X212956076Y-111293717D01*
X212964675Y-111288901D01*
X212971027Y-111285136D01*
X212974516Y-111282804D01*
X212983991Y-111274838D01*
X212994885Y-111264344D01*
X213006938Y-111251599D01*
X213019890Y-111236876D01*
X213033482Y-111220452D01*
X213034124Y-111219653D01*
X213053091Y-111196873D01*
X213071265Y-111176874D01*
X213088975Y-111159373D01*
X213106551Y-111144083D01*
X213124321Y-111130720D01*
X213142614Y-111118999D01*
X213161761Y-111108634D01*
X213163093Y-111107976D01*
X213173197Y-111102808D01*
X213182223Y-111097662D01*
X213190485Y-111092232D01*
X213198297Y-111086214D01*
X213205973Y-111079301D01*
X213213827Y-111071189D01*
X213222174Y-111061573D01*
X213231328Y-111050147D01*
X213241602Y-111036606D01*
X213253312Y-111020644D01*
X213254121Y-111019528D01*
X213271494Y-110995388D01*
X213287024Y-110973443D01*
X213300934Y-110953355D01*
X213313445Y-110934792D01*
X213324782Y-110917416D01*
X213335166Y-110900893D01*
X213344820Y-110884888D01*
X213353378Y-110870107D01*
X213366352Y-110847963D01*
X213378673Y-110828473D01*
X213390669Y-110811175D01*
X213402666Y-110795606D01*
X213414992Y-110781306D01*
X213420310Y-110775604D01*
X213442480Y-110754628D01*
X213466413Y-110736278D01*
X213491902Y-110720687D01*
X213518741Y-110707988D01*
X213535169Y-110701890D01*
X213546736Y-110698294D01*
X213558537Y-110695114D01*
X213569814Y-110692518D01*
X213579807Y-110690675D01*
X213587758Y-110689756D01*
X213589860Y-110689684D01*
X213594465Y-110689911D01*
X213600823Y-110690540D01*
X213608172Y-110691459D01*
X213615749Y-110692552D01*
X213622792Y-110693707D01*
X213628540Y-110694808D01*
X213632230Y-110695743D01*
X213633114Y-110696151D01*
X213633206Y-110698111D01*
X213632551Y-110702815D01*
X213631243Y-110709854D01*
X213629375Y-110718816D01*
X213627043Y-110729291D01*
X213624340Y-110740868D01*
X213621360Y-110753136D01*
X213618197Y-110765685D01*
X213614945Y-110778103D01*
X213611698Y-110789980D01*
X213611353Y-110791207D01*
X213607587Y-110804608D01*
X213604507Y-110815817D01*
X213602038Y-110825381D01*
X213600103Y-110833849D01*
X213598626Y-110841770D01*
X213597529Y-110849692D01*
X213596736Y-110858163D01*
X213596171Y-110867731D01*
X213595757Y-110878946D01*
X213595417Y-110892356D01*
X213595093Y-110907666D01*
X213594708Y-110924760D01*
X213594289Y-110939090D01*
X213593782Y-110951156D01*
X213593131Y-110961459D01*
X213592281Y-110970502D01*
X213591176Y-110978785D01*
X213589761Y-110986810D01*
X213587981Y-110995078D01*
X213585780Y-111004091D01*
X213583462Y-111012996D01*
X213574378Y-111041865D01*
X213562208Y-111071551D01*
X213547000Y-111101954D01*
X213528804Y-111132976D01*
X213510752Y-111160147D01*
X213506268Y-111166493D01*
X213501595Y-111172966D01*
X213496537Y-111179820D01*
X213490899Y-111187305D01*
X213484487Y-111195675D01*
X213477105Y-111205181D01*
X213468558Y-111216075D01*
X213458650Y-111228609D01*
X213447186Y-111243035D01*
X213433971Y-111259605D01*
X213425711Y-111269944D01*
X213389360Y-111315415D01*
X213404437Y-111322734D01*
X213416899Y-111329287D01*
X213429245Y-111336697D01*
X213440770Y-111344484D01*
X213450768Y-111352165D01*
X213458534Y-111359259D01*
X213459578Y-111360369D01*
X213467572Y-111370514D01*
X213473344Y-111381229D01*
X213476893Y-111392759D01*
X213478214Y-111405351D01*
X213477305Y-111419250D01*
X213474163Y-111434704D01*
X213468786Y-111451957D01*
X213461169Y-111471257D01*
X213458149Y-111478149D01*
X213443566Y-111507557D01*
X213427223Y-111534639D01*
X213409232Y-111559270D01*
X213389704Y-111581324D01*
X213368750Y-111600676D01*
X213346480Y-111617200D01*
X213323253Y-111630647D01*
X213307232Y-111638044D01*
X213291011Y-111644114D01*
X213273824Y-111649079D01*
X213254901Y-111653162D01*
X213234515Y-111656443D01*
X213199626Y-111662140D01*
X213167311Y-111669160D01*
X213137095Y-111677657D01*
X213108499Y-111687787D01*
X213081049Y-111699706D01*
X213054267Y-111713569D01*
X213047446Y-111717458D01*
X213024814Y-111731336D01*
X213003585Y-111745962D01*
X212983117Y-111761843D01*
X212962767Y-111779488D01*
X212941893Y-111799405D01*
X212934452Y-111806898D01*
X212926167Y-111815442D01*
X212918392Y-111823698D01*
X212910909Y-111831942D01*
X212903500Y-111840450D01*
X212895946Y-111849496D01*
X212888031Y-111859358D01*
X212879536Y-111870310D01*
X212870242Y-111882628D01*
X212859933Y-111896587D01*
X212848389Y-111912464D01*
X212835394Y-111930534D01*
X212823570Y-111947084D01*
X212779288Y-112009568D01*
X212735562Y-112072019D01*
X212692239Y-112134673D01*
X212649165Y-112197761D01*
X212606188Y-112261519D01*
X212563155Y-112326178D01*
X212519913Y-112391974D01*
X212476310Y-112459140D01*
X212432193Y-112527908D01*
X212387408Y-112598514D01*
X212341804Y-112671190D01*
X212295227Y-112746169D01*
X212247525Y-112823687D01*
X212209643Y-112885725D01*
X212191011Y-112916403D01*
X212174018Y-112944532D01*
X212158544Y-112970321D01*
X212144473Y-112993976D01*
X212131687Y-113015704D01*
X212120067Y-113035710D01*
X212109496Y-113054201D01*
X212099856Y-113071385D01*
X212091029Y-113087468D01*
X212082898Y-113102656D01*
X212075345Y-113117155D01*
X212068252Y-113131174D01*
X212061501Y-113144917D01*
X212059539Y-113148987D01*
X212053373Y-113161965D01*
X212047656Y-113174314D01*
X212042268Y-113186347D01*
X212037093Y-113198379D01*
X212032010Y-113210722D01*
X212026903Y-113223690D01*
X212021652Y-113237597D01*
X212016139Y-113252754D01*
X212010245Y-113269477D01*
X212003852Y-113288078D01*
X211996843Y-113308871D01*
X211989097Y-113332168D01*
X211980854Y-113357197D01*
X211972672Y-113382003D01*
X211965316Y-113404017D01*
X211958665Y-113423573D01*
X211952597Y-113441004D01*
X211946991Y-113456646D01*
X211941726Y-113470831D01*
X211936680Y-113483893D01*
X211931732Y-113496166D01*
X211926760Y-113507983D01*
X211922111Y-113518626D01*
X211914612Y-113535057D01*
X211906350Y-113552349D01*
X211897612Y-113569955D01*
X211888684Y-113587327D01*
X211879854Y-113603918D01*
X211871407Y-113619180D01*
X211863630Y-113632566D01*
X211856811Y-113643528D01*
X211856356Y-113644221D01*
X211843012Y-113661900D01*
X211828118Y-113676713D01*
X211811628Y-113688687D01*
X211793494Y-113697850D01*
X211773669Y-113704226D01*
X211752107Y-113707844D01*
X211741586Y-113708589D01*
X211737809Y-113708721D01*
X211734008Y-113708776D01*
X211729951Y-113708729D01*
X211725405Y-113708556D01*
X211720137Y-113708232D01*
X211713913Y-113707735D01*
X211706501Y-113707040D01*
X211697668Y-113706123D01*
X211687181Y-113704960D01*
X211674806Y-113703527D01*
X211660312Y-113701800D01*
X211643465Y-113699756D01*
X211624031Y-113697369D01*
X211601779Y-113694617D01*
X211581550Y-113692105D01*
X211537458Y-113686635D01*
X211495349Y-113681431D01*
X211455298Y-113676501D01*
X211417379Y-113671856D01*
X211381669Y-113667503D01*
X211348244Y-113663451D01*
X211317178Y-113659710D01*
X211288547Y-113656288D01*
X211262427Y-113653195D01*
X211238894Y-113650439D01*
X211218022Y-113648029D01*
X211199888Y-113645973D01*
X211184567Y-113644282D01*
X211172134Y-113642964D01*
X211162665Y-113642028D01*
X211156236Y-113641482D01*
X211152922Y-113641336D01*
X211152473Y-113641459D01*
X211154193Y-113642690D01*
X211158378Y-113645537D01*
X211164762Y-113649826D01*
X211173080Y-113655379D01*
X211183065Y-113662023D01*
X211194453Y-113669581D01*
X211206976Y-113677877D01*
X211220370Y-113686738D01*
X211234369Y-113695986D01*
X211248708Y-113705447D01*
X211263119Y-113714944D01*
X211277338Y-113724304D01*
X211291099Y-113733349D01*
X211304136Y-113741906D01*
X211316184Y-113749797D01*
X211326976Y-113756848D01*
X211336247Y-113762883D01*
X211342312Y-113766812D01*
X211357743Y-113776716D01*
X211373712Y-113786855D01*
X211389891Y-113797030D01*
X211405954Y-113807038D01*
X211421571Y-113816682D01*
X211436415Y-113825759D01*
X211450160Y-113834069D01*
X211462476Y-113841412D01*
X211473036Y-113847589D01*
X211481513Y-113852397D01*
X211487578Y-113855638D01*
X211487651Y-113855675D01*
X211498323Y-113860413D01*
X211512193Y-113865526D01*
X211529213Y-113870999D01*
X211549339Y-113876816D01*
X211563649Y-113880667D01*
X211581276Y-113885340D01*
X211596129Y-113889421D01*
X211608611Y-113893073D01*
X211619127Y-113896462D01*
X211628078Y-113899750D01*
X211635869Y-113903104D01*
X211642903Y-113906687D01*
X211649584Y-113910664D01*
X211656314Y-113915200D01*
X211663496Y-113920458D01*
X211666148Y-113922466D01*
X211672017Y-113926919D01*
X211677746Y-113931218D01*
X211683761Y-113935675D01*
X211690486Y-113940601D01*
X211698347Y-113946305D01*
X211707770Y-113953098D01*
X211719180Y-113961291D01*
X211726963Y-113966870D01*
X211732684Y-113970917D01*
X211737827Y-113974354D01*
X211742762Y-113977306D01*
X211747861Y-113979900D01*
X211753496Y-113982261D01*
X211760038Y-113984515D01*
X211767858Y-113986789D01*
X211777328Y-113989209D01*
X211788819Y-113991900D01*
X211802702Y-113994988D01*
X211819348Y-113998601D01*
X211822391Y-113999257D01*
X211870002Y-114009486D01*
X211914871Y-114019052D01*
X211957364Y-114028025D01*
X211997843Y-114036474D01*
X212036675Y-114044470D01*
X212074223Y-114052081D01*
X212110851Y-114059376D01*
X212146923Y-114066427D01*
X212182804Y-114073301D01*
X212218858Y-114080069D01*
X212255450Y-114086799D01*
X212292943Y-114093562D01*
X212331702Y-114100427D01*
X212372092Y-114107464D01*
X212414475Y-114114741D01*
X212459217Y-114122329D01*
X212506683Y-114130297D01*
X212526252Y-114133563D01*
X212577567Y-114142049D01*
X212626335Y-114149969D01*
X212672856Y-114157357D01*
X212717432Y-114164248D01*
X212760364Y-114170675D01*
X212801956Y-114176674D01*
X212842507Y-114182277D01*
X212882319Y-114187521D01*
X212921695Y-114192437D01*
X212960935Y-114197062D01*
X213000342Y-114201428D01*
X213040217Y-114205571D01*
X213080861Y-114209523D01*
X213122576Y-114213321D01*
X213165665Y-114216997D01*
X213210427Y-114220585D01*
X213257165Y-114224121D01*
X213306181Y-114227638D01*
X213357776Y-114231171D01*
X213412251Y-114234753D01*
X213427679Y-114235745D01*
X213447784Y-114237038D01*
X213469577Y-114238451D01*
X213492330Y-114239935D01*
X213515314Y-114241442D01*
X213537800Y-114242926D01*
X213559062Y-114244337D01*
X213578369Y-114245628D01*
X213591798Y-114246534D01*
X213609529Y-114247729D01*
X213624466Y-114248708D01*
X213637073Y-114249483D01*
X213647812Y-114250066D01*
X213657147Y-114250470D01*
X213665542Y-114250707D01*
X213673460Y-114250790D01*
X213681366Y-114250732D01*
X213689722Y-114250543D01*
X213698992Y-114250238D01*
X213709640Y-114249829D01*
X213711593Y-114249750D01*
X213728187Y-114249045D01*
X213742017Y-114248345D01*
X213753587Y-114247598D01*
X213763398Y-114246751D01*
X213771952Y-114245750D01*
X213779753Y-114244541D01*
X213787302Y-114243072D01*
X213795101Y-114241288D01*
X213798101Y-114240550D01*
X213822332Y-114233007D01*
X213844622Y-114222916D01*
X213865215Y-114210161D01*
X213873408Y-114203986D01*
X213878807Y-114199547D01*
X213883706Y-114195134D01*
X213888495Y-114190307D01*
X213893564Y-114184628D01*
X213899302Y-114177656D01*
X213906100Y-114168952D01*
X213914347Y-114158076D01*
X213915486Y-114156560D01*
X213923238Y-114146498D01*
X213932155Y-114135351D01*
X213941375Y-114124171D01*
X213950036Y-114114012D01*
X213954282Y-114109203D01*
X213967447Y-114094024D01*
X213978468Y-114080095D01*
X213987829Y-114066730D01*
X213996017Y-114053242D01*
X214002533Y-114040934D01*
X214010224Y-114024091D01*
X214016941Y-114006238D01*
X214022782Y-113986982D01*
X214027845Y-113965931D01*
X214032228Y-113942691D01*
X214036029Y-113916870D01*
X214038322Y-113897727D01*
X214041471Y-113871903D01*
X214045317Y-113844902D01*
X214049721Y-113817504D01*
X214054547Y-113790490D01*
X214059657Y-113764638D01*
X214064914Y-113740730D01*
X214068580Y-113725678D01*
X214073592Y-113709759D01*
X214079813Y-113696773D01*
X214087376Y-113686573D01*
X214096414Y-113679007D01*
X214107060Y-113673927D01*
X214116627Y-113671584D01*
X214129210Y-113670835D01*
X214141353Y-113672835D01*
X214153223Y-113677678D01*
X214164983Y-113685457D01*
X214176798Y-113696264D01*
X214188833Y-113710193D01*
X214191902Y-113714182D01*
X214205545Y-113734779D01*
X214216111Y-113756232D01*
X214223131Y-113776883D01*
X214224599Y-113782560D01*
X214225711Y-113787626D01*
X214226523Y-113792697D01*
X214227094Y-113798390D01*
X214227481Y-113805323D01*
X214227740Y-113814111D01*
X214227928Y-113825373D01*
X214227977Y-113829140D01*
X214228051Y-113839472D01*
X214227984Y-113849371D01*
X214227754Y-113859345D01*
X214227333Y-113869904D01*
X214226698Y-113881556D01*
X214225822Y-113894811D01*
X214224682Y-113910179D01*
X214223252Y-113928167D01*
X214222871Y-113932837D01*
X214219373Y-113975437D01*
X214216119Y-114014940D01*
X214213094Y-114051506D01*
X214210279Y-114085293D01*
X214207660Y-114116460D01*
X214205218Y-114145167D01*
X214202938Y-114171572D01*
X214200803Y-114195834D01*
X214198797Y-114218113D01*
X214196903Y-114238567D01*
X214195104Y-114257355D01*
X214193384Y-114274637D01*
X214191727Y-114290571D01*
X214190115Y-114305316D01*
X214188533Y-114319032D01*
X214186963Y-114331877D01*
X214185390Y-114344010D01*
X214183797Y-114355591D01*
X214182166Y-114366777D01*
X214180482Y-114377729D01*
X214178729Y-114388605D01*
X214176889Y-114399565D01*
X214174946Y-114410766D01*
X214172883Y-114422369D01*
X214170691Y-114434497D01*
X214167262Y-114452335D01*
X214163914Y-114467346D01*
X214160476Y-114479960D01*
X214156776Y-114490606D01*
X214152642Y-114499713D01*
X214147904Y-114507710D01*
X214142390Y-114515028D01*
X214135929Y-114522095D01*
X214135595Y-114522433D01*
X214127831Y-114529549D01*
X214119665Y-114535456D01*
X214110487Y-114540456D01*
X214099684Y-114544851D01*
X214086646Y-114548940D01*
X214076272Y-114551681D01*
X214060024Y-114556044D01*
X214046282Y-114560455D01*
X214034294Y-114565206D01*
X214023311Y-114570587D01*
X214014607Y-114575625D01*
X213999395Y-114585936D01*
X213985506Y-114597434D01*
X213972429Y-114610633D01*
X213959650Y-114626046D01*
X213947808Y-114642488D01*
X213937267Y-114656537D01*
X213925918Y-114668711D01*
X213913447Y-114679171D01*
X213899538Y-114688078D01*
X213883878Y-114695592D01*
X213866152Y-114701873D01*
X213846043Y-114707081D01*
X213823239Y-114711376D01*
X213808173Y-114713577D01*
X213797604Y-114714884D01*
X213787746Y-114715860D01*
X213777805Y-114716548D01*
X213766984Y-114716992D01*
X213754487Y-114717234D01*
X213739586Y-114717319D01*
X213718139Y-114717045D01*
X213697122Y-114716126D01*
X213676081Y-114714498D01*
X213654557Y-114712098D01*
X213632096Y-114708864D01*
X213608239Y-114704731D01*
X213582531Y-114699636D01*
X213554514Y-114693516D01*
X213534642Y-114688910D01*
X213459393Y-114671035D01*
X213381145Y-114652268D01*
X213300030Y-114632641D01*
X213216181Y-114612186D01*
X213175713Y-114602257D01*
X213130728Y-114591215D01*
X213088706Y-114580932D01*
X213049446Y-114571362D01*
X213012746Y-114562457D01*
X212978405Y-114554172D01*
X212946221Y-114546459D01*
X212915993Y-114539272D01*
X212887520Y-114532565D01*
X212860598Y-114526291D01*
X212835028Y-114520402D01*
X212810607Y-114514854D01*
X212787133Y-114509599D01*
X212764406Y-114504590D01*
X212742224Y-114499781D01*
X212720384Y-114495125D01*
X212698686Y-114490576D01*
X212676928Y-114486087D01*
X212654908Y-114481612D01*
X212646279Y-114479874D01*
X212597762Y-114470356D01*
X212546885Y-114460816D01*
X212493554Y-114451238D01*
X212437671Y-114441607D01*
X212379140Y-114431907D01*
X212317865Y-114422122D01*
X212253750Y-114412238D01*
X212186698Y-114402238D01*
X212116613Y-114392108D01*
X212043399Y-114381830D01*
X212015116Y-114377935D01*
X212006317Y-114376737D01*
X211994602Y-114375153D01*
X211980246Y-114373220D01*
X211963525Y-114370976D01*
X211944715Y-114368455D01*
X211924091Y-114365696D01*
X211901928Y-114362734D01*
X211878502Y-114359607D01*
X211854088Y-114356351D01*
X211828961Y-114353003D01*
X211803398Y-114349599D01*
X211777673Y-114346175D01*
X211752061Y-114342770D01*
X211726839Y-114339419D01*
X211702282Y-114336158D01*
X211678664Y-114333025D01*
X211656262Y-114330057D01*
X211635350Y-114327289D01*
X211616205Y-114324759D01*
X211599102Y-114322502D01*
X211584315Y-114320557D01*
X211572121Y-114318959D01*
X211562795Y-114317745D01*
X211560320Y-114317425D01*
X211542282Y-114315276D01*
X211522607Y-114313274D01*
X211500979Y-114311395D01*
X211477080Y-114309611D01*
X211450595Y-114307899D01*
X211421207Y-114306234D01*
X211416614Y-114305991D01*
X211387848Y-114304433D01*
X211361985Y-114302900D01*
X211338663Y-114301334D01*
X211317521Y-114299673D01*
X211298197Y-114297858D01*
X211280330Y-114295830D01*
X211263557Y-114293528D01*
X211247518Y-114290893D01*
X211231849Y-114287865D01*
X211216191Y-114284383D01*
X211200180Y-114280388D01*
X211183455Y-114275821D01*
X211165655Y-114270620D01*
X211146418Y-114264727D01*
X211125382Y-114258082D01*
X211123499Y-114257480D01*
X211105579Y-114251415D01*
X211089428Y-114245141D01*
X211074662Y-114238382D01*
X211060900Y-114230864D01*
X211047757Y-114222311D01*
X211034852Y-114212447D01*
X211021801Y-114200997D01*
X211008223Y-114187686D01*
X210993733Y-114172236D01*
X210977949Y-114154374D01*
X210974209Y-114150029D01*
X210951442Y-114124123D01*
X210927820Y-114098573D01*
X210903137Y-114073194D01*
X210877187Y-114047803D01*
X210849764Y-114022215D01*
X210820662Y-113996247D01*
X210789674Y-113969715D01*
X210756595Y-113942434D01*
X210721218Y-113914221D01*
X210683337Y-113884891D01*
X210643665Y-113854947D01*
X210630514Y-113845291D01*
X210615950Y-113834881D01*
X210600255Y-113823899D01*
X210583711Y-113812528D01*
X210566602Y-113800951D01*
X210549210Y-113789350D01*
X210531816Y-113777908D01*
X210514705Y-113766807D01*
X210498157Y-113756230D01*
X210482457Y-113746361D01*
X210467886Y-113737381D01*
X210454726Y-113729474D01*
X210443261Y-113722822D01*
X210433772Y-113717607D01*
X210426543Y-113714013D01*
X210424126Y-113712982D01*
X210417946Y-113710577D01*
X210413034Y-113708706D01*
X210410092Y-113707633D01*
X210409576Y-113707480D01*
X210409445Y-113709049D01*
X210409323Y-113713499D01*
X210409213Y-113720445D01*
X210409121Y-113729502D01*
X210409050Y-113740285D01*
X210409004Y-113752409D01*
X210408991Y-113760145D01*
X210408846Y-113795705D01*
X210408482Y-113828923D01*
X210407905Y-113859695D01*
X210407119Y-113887919D01*
X210406128Y-113913491D01*
X210404938Y-113936307D01*
X210403552Y-113956264D01*
X210401975Y-113973259D01*
X210400212Y-113987189D01*
X210398482Y-113996965D01*
X210394666Y-114009885D01*
X210389253Y-114020759D01*
X210382471Y-114029303D01*
X210374548Y-114035231D01*
X210365711Y-114038259D01*
X210365432Y-114038302D01*
X210360450Y-114038771D01*
X210355285Y-114038616D01*
X210349734Y-114037728D01*
X210343589Y-114035997D01*
X210336646Y-114033312D01*
X210328700Y-114029564D01*
X210319544Y-114024643D01*
X210308973Y-114018439D01*
X210296782Y-114010841D01*
X210282766Y-114001740D01*
X210266719Y-113991026D01*
X210248435Y-113978589D01*
X210229409Y-113965494D01*
X210211475Y-113953149D01*
X210196080Y-113942656D01*
X210183120Y-113933950D01*
X210172493Y-113926963D01*
X210164095Y-113921629D01*
X210157822Y-113917881D01*
X210153571Y-113915652D01*
X210151239Y-113914876D01*
X210151168Y-113914874D01*
X210149457Y-113915251D01*
X210146670Y-113916624D01*
X210142119Y-113919347D01*
X210139904Y-113920736D01*
X210140364Y-113922280D01*
X210141867Y-113926610D01*
X210144313Y-113933451D01*
X210147603Y-113942529D01*
X210151636Y-113953571D01*
X210156312Y-113966303D01*
X210161532Y-113980450D01*
X210167196Y-113995739D01*
X210171519Y-114007372D01*
X210182612Y-114037189D01*
X210192624Y-114064112D01*
X210201610Y-114088309D01*
X210209629Y-114109947D01*
X210216738Y-114129193D01*
X210222993Y-114146215D01*
X210228453Y-114161180D01*
X210233174Y-114174254D01*
X210237215Y-114185606D01*
X210240632Y-114195402D01*
X210243483Y-114203810D01*
X210245824Y-114210997D01*
X210247714Y-114217131D01*
X210249210Y-114222377D01*
X210250369Y-114226905D01*
X210251248Y-114230880D01*
X210251905Y-114234471D01*
X210252397Y-114237844D01*
X210252782Y-114241167D01*
X210253116Y-114244606D01*
X210253214Y-114245671D01*
X210254267Y-114257212D01*
X210238886Y-114259960D01*
X210230834Y-114261213D01*
X210222741Y-114262167D01*
X210215984Y-114262667D01*
X210214181Y-114262707D01*
X210207576Y-114262084D01*
X210198857Y-114260183D01*
X210187875Y-114256954D01*
X210174481Y-114252350D01*
X210158526Y-114246322D01*
X210139861Y-114238822D01*
X210136366Y-114237380D01*
X210106194Y-114224886D01*
X210103323Y-114228431D01*
X210102617Y-114229421D01*
X210102272Y-114230521D01*
X210102464Y-114232000D01*
X210103367Y-114234131D01*
X210105155Y-114237181D01*
X210108003Y-114241422D01*
X210112083Y-114247123D01*
X210117572Y-114254555D01*
X210124643Y-114263988D01*
X210133470Y-114275693D01*
X210135800Y-114278777D01*
X210149916Y-114297438D01*
X210162444Y-114313927D01*
X210173740Y-114328698D01*
X210184157Y-114342204D01*
X210194052Y-114354899D01*
X210203777Y-114367237D01*
X210213689Y-114379672D01*
X210224142Y-114392657D01*
X210235491Y-114406647D01*
X210242619Y-114415394D01*
X210258208Y-114434586D01*
X210271823Y-114451558D01*
X210283632Y-114466558D01*
X210293804Y-114479831D01*
X210302505Y-114491625D01*
X210309904Y-114502185D01*
X210316168Y-114511760D01*
X210321465Y-114520594D01*
X210325964Y-114528936D01*
X210329831Y-114537031D01*
X210333235Y-114545126D01*
X210336098Y-114552775D01*
X210340493Y-114567202D01*
X210343567Y-114581747D01*
X210345274Y-114595804D01*
X210345566Y-114608766D01*
X210344396Y-114620029D01*
X210341934Y-114628498D01*
X210336099Y-114638125D01*
X210327865Y-114645622D01*
X210317375Y-114650913D01*
X210304770Y-114653921D01*
X210293712Y-114654632D01*
X210285467Y-114654331D01*
X210274537Y-114653421D01*
X210260840Y-114651891D01*
X210244296Y-114649730D01*
X210224820Y-114646928D01*
X210202332Y-114643473D01*
X210176750Y-114639355D01*
X210170447Y-114638318D01*
X210151795Y-114635291D01*
X210136088Y-114632867D01*
X210123069Y-114631013D01*
X210112479Y-114629693D01*
X210104061Y-114628874D01*
X210097556Y-114628523D01*
X210095928Y-114628504D01*
X210089354Y-114628577D01*
X210084223Y-114628773D01*
X210081255Y-114629058D01*
X210080804Y-114629235D01*
X210081678Y-114630704D01*
X210084180Y-114634617D01*
X210088130Y-114640697D01*
X210093346Y-114648669D01*
X210099648Y-114658257D01*
X210106855Y-114669186D01*
X210114786Y-114681179D01*
X210121370Y-114691114D01*
X210130080Y-114704322D01*
X210138462Y-114717181D01*
X210146289Y-114729333D01*
X210153336Y-114740421D01*
X210159375Y-114750087D01*
X210164182Y-114757975D01*
X210167530Y-114763727D01*
X210168754Y-114766024D01*
X210175192Y-114781222D01*
X210178730Y-114794964D01*
X210179368Y-114807239D01*
X210177107Y-114818036D01*
X210171947Y-114827346D01*
X210166551Y-114833023D01*
X210161154Y-114836763D01*
X210153567Y-114840474D01*
X210143660Y-114844190D01*
X210131303Y-114847944D01*
X210116367Y-114851767D01*
X210098720Y-114855693D01*
X210078233Y-114859754D01*
X210054776Y-114863984D01*
X210028219Y-114868415D01*
X210022329Y-114869360D01*
X210010155Y-114871350D01*
X209998684Y-114873320D01*
X209988417Y-114875176D01*
X209979857Y-114876825D01*
X209973504Y-114878174D01*
X209969859Y-114879129D01*
X209969782Y-114879156D01*
X209961183Y-114883372D01*
X209955508Y-114888979D01*
X209952677Y-114896130D01*
X209952609Y-114904973D01*
X209953507Y-114909747D01*
X209954985Y-114914633D01*
X209957735Y-114922330D01*
X209961689Y-114932671D01*
X209966776Y-114945489D01*
X209972929Y-114960618D01*
X209980078Y-114977890D01*
X209988154Y-114997139D01*
X209997087Y-115018198D01*
X210006809Y-115040900D01*
X210017250Y-115065079D01*
X210028342Y-115090567D01*
X210030766Y-115096114D01*
X210037200Y-115111863D01*
X210041622Y-115125363D01*
X210044005Y-115136958D01*
X210044324Y-115146991D01*
X210042551Y-115155807D01*
X210038661Y-115163750D01*
X210032626Y-115171164D01*
X210024438Y-115178379D01*
X210021937Y-115180308D01*
X210019446Y-115182159D01*
X210016743Y-115184058D01*
X210013610Y-115186132D01*
X210009826Y-115188509D01*
X210005173Y-115191316D01*
X209999429Y-115194681D01*
X209992376Y-115198730D01*
X209983793Y-115203591D01*
X209973461Y-115209392D01*
X209961160Y-115216259D01*
X209946670Y-115224319D01*
X209929771Y-115233701D01*
X209910243Y-115244532D01*
X209909337Y-115245035D01*
X209879314Y-115261714D01*
X209851184Y-115277406D01*
X209825041Y-115292058D01*
X209800977Y-115305617D01*
X209779083Y-115318030D01*
X209759454Y-115329243D01*
X209742181Y-115339205D01*
X209727357Y-115347862D01*
X209715075Y-115355160D01*
X209705427Y-115361047D01*
X209698506Y-115365470D01*
X209695690Y-115367407D01*
X209691342Y-115370672D01*
X209685404Y-115375313D01*
X209678292Y-115380987D01*
X209670424Y-115387349D01*
X209662217Y-115394056D01*
X209654088Y-115400763D01*
X209646453Y-115407126D01*
X209639731Y-115412801D01*
X209634338Y-115417445D01*
X209630692Y-115420713D01*
X209629234Y-115422215D01*
X209629032Y-115424631D01*
X209629688Y-115428745D01*
X209629970Y-115429871D01*
X209631629Y-115436032D01*
X209675398Y-115434156D01*
X209688026Y-115433568D01*
X209700474Y-115432903D01*
X209712096Y-115432201D01*
X209722246Y-115431504D01*
X209730279Y-115430852D01*
X209734642Y-115430404D01*
X209742408Y-115429269D01*
X209753275Y-115427374D01*
X209767173Y-115424736D01*
X209784028Y-115421367D01*
X209803771Y-115417285D01*
X209826329Y-115412503D01*
X209851631Y-115407036D01*
X209879605Y-115400899D01*
X209910179Y-115394108D01*
X209928116Y-115390090D01*
X209957510Y-115383490D01*
X209983919Y-115377568D01*
X210007549Y-115372283D01*
X210028601Y-115367596D01*
X210047279Y-115363467D01*
X210063785Y-115359856D01*
X210078323Y-115356723D01*
X210091095Y-115354029D01*
X210102305Y-115351733D01*
X210112155Y-115349797D01*
X210120849Y-115348179D01*
X210128589Y-115346841D01*
X210135578Y-115345743D01*
X210142020Y-115344844D01*
X210148117Y-115344105D01*
X210154073Y-115343486D01*
X210160090Y-115342948D01*
X210166371Y-115342450D01*
X210173119Y-115341952D01*
X210173873Y-115341898D01*
X210184363Y-115341180D01*
X210192340Y-115340773D01*
X210198545Y-115340691D01*
X210203719Y-115340953D01*
X210208602Y-115341574D01*
X210213934Y-115342571D01*
X210215172Y-115342828D01*
X210221866Y-115344285D01*
X210226103Y-115345507D01*
X210228624Y-115346914D01*
X210230172Y-115348925D01*
X210231490Y-115351959D01*
X210231538Y-115352081D01*
X210234028Y-115358421D01*
X210177421Y-115402259D01*
X210160232Y-115415555D01*
X210145224Y-115427123D01*
X210132009Y-115437253D01*
X210120199Y-115446235D01*
X210109407Y-115454359D01*
X210099244Y-115461914D01*
X210089322Y-115469191D01*
X210079255Y-115476479D01*
X210068654Y-115484069D01*
X210057132Y-115492249D01*
X210054675Y-115493986D01*
X210038555Y-115505772D01*
X210025256Y-115516365D01*
X210014624Y-115525910D01*
X210006502Y-115534553D01*
X210000734Y-115542440D01*
X209998614Y-115546290D01*
X209995844Y-115552956D01*
X209993446Y-115560500D01*
X209991521Y-115568310D01*
X209990169Y-115575774D01*
X209989490Y-115582280D01*
X209989584Y-115587215D01*
X209990552Y-115589967D01*
X209991396Y-115590333D01*
X209994223Y-115590021D01*
X209998571Y-115589095D01*
X210004578Y-115587510D01*
X210012382Y-115585218D01*
X210022121Y-115582176D01*
X210033934Y-115578337D01*
X210047957Y-115573655D01*
X210064329Y-115568086D01*
X210083189Y-115561582D01*
X210104674Y-115554099D01*
X210128923Y-115545592D01*
X210156073Y-115536013D01*
X210161638Y-115534045D01*
X210183520Y-115526303D01*
X210205666Y-115518470D01*
X210227723Y-115510671D01*
X210249338Y-115503030D01*
X210270157Y-115495672D01*
X210289828Y-115488723D01*
X210307996Y-115482306D01*
X210324309Y-115476547D01*
X210338413Y-115471570D01*
X210349956Y-115467501D01*
X210354335Y-115465958D01*
X210369452Y-115460633D01*
X210385630Y-115454930D01*
X210402100Y-115449120D01*
X210418094Y-115443473D01*
X210432844Y-115438262D01*
X210445583Y-115433756D01*
X210449866Y-115432240D01*
X210489875Y-115418069D01*
X210510862Y-115418371D01*
X210518821Y-115418556D01*
X210525551Y-115418846D01*
X210530405Y-115419204D01*
X210532734Y-115419591D01*
X210532823Y-115419647D01*
X210532980Y-115421745D01*
X210532251Y-115426333D01*
X210530796Y-115432803D01*
X210528774Y-115440549D01*
X210526342Y-115448967D01*
X210523661Y-115457449D01*
X210520889Y-115465390D01*
X210520697Y-115465906D01*
X210509801Y-115491326D01*
X210496336Y-115515950D01*
X210480032Y-115540250D01*
X210471087Y-115551977D01*
X210464357Y-115560074D01*
X210456450Y-115568818D01*
X210447179Y-115578385D01*
X210436357Y-115588951D01*
X210423797Y-115600693D01*
X210409312Y-115613787D01*
X210392715Y-115628409D01*
X210373820Y-115644735D01*
X210361683Y-115655098D01*
X210341664Y-115672140D01*
X210323961Y-115687245D01*
X210308394Y-115700577D01*
X210294780Y-115712302D01*
X210282938Y-115722584D01*
X210272686Y-115731589D01*
X210263841Y-115739482D01*
X210256222Y-115746428D01*
X210249647Y-115752592D01*
X210243935Y-115758140D01*
X210238903Y-115763236D01*
X210234370Y-115768046D01*
X210230153Y-115772735D01*
X210226071Y-115777468D01*
X210223285Y-115780790D01*
X210217328Y-115788037D01*
X210212177Y-115794461D01*
X210208170Y-115799626D01*
X210205643Y-115803100D01*
X210204913Y-115804400D01*
X210206324Y-115805492D01*
X210209461Y-115805911D01*
X210212620Y-115806172D01*
X210218316Y-115806891D01*
X210225866Y-115807972D01*
X210234587Y-115809320D01*
X210239263Y-115810079D01*
X210253525Y-115812339D01*
X210265260Y-115813938D01*
X210275136Y-115814896D01*
X210283821Y-115815237D01*
X210291981Y-115814984D01*
X210300284Y-115814158D01*
X210309396Y-115812782D01*
X210311060Y-115812498D01*
X210322997Y-115810405D01*
X210337949Y-115807741D01*
X210355722Y-115804541D01*
X210376122Y-115800841D01*
X210398953Y-115796677D01*
X210424023Y-115792084D01*
X210451137Y-115787099D01*
X210480100Y-115781758D01*
X210510718Y-115776095D01*
X210542798Y-115770148D01*
X210576145Y-115763951D01*
X210610564Y-115757541D01*
X210645863Y-115750953D01*
X210681845Y-115744223D01*
X210718318Y-115737388D01*
X210718498Y-115737354D01*
X210758200Y-115729933D01*
X210795048Y-115723102D01*
X210829011Y-115716867D01*
X210860059Y-115711233D01*
X210888163Y-115706205D01*
X210913291Y-115701788D01*
X210935414Y-115697987D01*
X210954502Y-115694808D01*
X210970525Y-115692255D01*
X210983452Y-115690335D01*
X210993254Y-115689052D01*
X210999899Y-115688412D01*
X211001992Y-115688334D01*
X211004041Y-115688616D01*
X211004865Y-115690020D01*
X211004718Y-115693380D01*
X211004355Y-115696091D01*
X210999186Y-115723976D01*
X210991834Y-115751170D01*
X210982500Y-115777128D01*
X210971386Y-115801301D01*
X210958694Y-115823144D01*
X210956188Y-115826887D01*
X210942785Y-115844986D01*
X210928560Y-115861124D01*
X210912732Y-115876103D01*
X210894520Y-115890726D01*
X210892949Y-115891895D01*
X210885087Y-115897525D01*
X210875123Y-115904370D01*
X210863759Y-115911973D01*
X210851697Y-115919877D01*
X210839640Y-115927623D01*
X210828291Y-115934754D01*
X210818352Y-115940813D01*
X210813213Y-115943825D01*
X210791436Y-115957487D01*
X210772194Y-115972176D01*
X210754908Y-115988443D01*
X210738997Y-116006838D01*
X210723881Y-116027910D01*
X210722952Y-116029324D01*
X210719198Y-116035285D01*
X210714980Y-116042331D01*
X210710625Y-116049871D01*
X210706461Y-116057313D01*
X210702816Y-116064067D01*
X210700017Y-116069542D01*
X210698392Y-116073147D01*
X210698117Y-116074135D01*
X210699699Y-116074348D01*
X210704272Y-116074550D01*
X210711563Y-116074737D01*
X210721297Y-116074905D01*
X210733201Y-116075052D01*
X210746999Y-116075173D01*
X210762418Y-116075267D01*
X210779182Y-116075330D01*
X210797019Y-116075358D01*
X210801782Y-116075360D01*
X210819853Y-116075378D01*
X210836923Y-116075432D01*
X210852717Y-116075519D01*
X210866963Y-116075634D01*
X210879385Y-116075774D01*
X210889710Y-116075937D01*
X210897662Y-116076119D01*
X210902968Y-116076318D01*
X210905353Y-116076528D01*
X210905461Y-116076584D01*
X210904951Y-116078893D01*
X210903626Y-116083459D01*
X210901756Y-116089458D01*
X210899608Y-116096067D01*
X210897452Y-116102462D01*
X210895554Y-116107819D01*
X210894184Y-116111314D01*
X210894054Y-116111599D01*
X210892130Y-116113922D01*
X210887830Y-116117995D01*
X210881400Y-116123624D01*
X210873089Y-116130614D01*
X210863142Y-116138771D01*
X210851808Y-116147899D01*
X210839334Y-116157805D01*
X210825967Y-116168294D01*
X210811955Y-116179170D01*
X210797543Y-116190240D01*
X210782981Y-116201309D01*
X210768514Y-116212182D01*
X210754391Y-116222664D01*
X210740859Y-116232561D01*
X210735107Y-116236715D01*
X210719996Y-116247686D01*
X210707489Y-116257155D01*
X210697481Y-116265439D01*
X210689863Y-116272853D01*
X210684528Y-116279714D01*
X210681370Y-116286341D01*
X210680280Y-116293048D01*
X210681152Y-116300154D01*
X210683878Y-116307975D01*
X210688351Y-116316828D01*
X210694465Y-116327029D01*
X210701062Y-116337292D01*
X210708503Y-116349396D01*
X210713806Y-116359808D01*
X210717180Y-116369113D01*
X210718832Y-116377893D01*
X210718970Y-116386730D01*
X210718923Y-116387445D01*
X210717461Y-116396547D01*
X210714266Y-116405062D01*
X210709085Y-116413304D01*
X210701664Y-116421587D01*
X210691751Y-116430226D01*
X210679091Y-116439535D01*
X210674407Y-116442715D01*
X210648271Y-116459257D01*
X210621311Y-116474452D01*
X210593035Y-116488531D01*
X210562949Y-116501725D01*
X210530564Y-116514264D01*
X210497224Y-116525778D01*
X210442305Y-116542695D01*
X210384926Y-116558295D01*
X210325660Y-116572464D01*
X210265083Y-116585090D01*
X210203771Y-116596059D01*
X210142298Y-116605257D01*
X210081239Y-116612572D01*
X210035079Y-116616833D01*
X210022235Y-116617688D01*
X210006683Y-116618443D01*
X209988983Y-116619092D01*
X209969691Y-116619627D01*
X209949367Y-116620042D01*
X209928568Y-116620330D01*
X209907852Y-116620484D01*
X209887776Y-116620497D01*
X209868899Y-116620364D01*
X209851779Y-116620076D01*
X209836973Y-116619627D01*
X209830135Y-116619316D01*
X209740614Y-116613278D01*
X209651243Y-116604581D01*
X209561743Y-116593181D01*
X209471834Y-116579034D01*
X209381233Y-116562097D01*
X209289661Y-116542327D01*
X209214486Y-116524183D01*
X209115975Y-116497718D01*
X209019187Y-116468498D01*
X208924036Y-116436488D01*
X208830440Y-116401656D01*
X208738314Y-116363966D01*
X208647573Y-116323384D01*
X208558134Y-116279877D01*
X208469913Y-116233411D01*
X208399609Y-116193766D01*
X208313908Y-116142134D01*
X208230301Y-116087998D01*
X208148784Y-116031352D01*
X208069353Y-115972194D01*
X207992001Y-115910519D01*
X207916726Y-115846323D01*
X207843521Y-115779602D01*
X207772382Y-115710352D01*
X207703304Y-115638569D01*
X207636282Y-115564249D01*
X207592743Y-115513292D01*
X207530763Y-115436654D01*
X207471448Y-115358172D01*
X207414839Y-115277913D01*
X207360976Y-115195947D01*
X207309901Y-115112340D01*
X207261657Y-115027160D01*
X207216283Y-114940475D01*
X207173821Y-114852354D01*
X207134313Y-114762863D01*
X207132749Y-114759145D01*
X207100979Y-114680310D01*
X207071314Y-114600033D01*
X207043712Y-114518159D01*
X207018133Y-114434538D01*
X206994535Y-114349016D01*
X206972879Y-114261441D01*
X206953123Y-114171661D01*
X206935227Y-114079522D01*
X206919150Y-113984873D01*
X206910286Y-113926305D01*
X206901295Y-113861610D01*
X206893231Y-113798139D01*
X206886036Y-113735284D01*
X206879654Y-113672432D01*
X206874028Y-113608974D01*
X206869101Y-113544300D01*
X206864815Y-113477799D01*
X206861115Y-113408860D01*
X206860139Y-113388225D01*
X206859717Y-113376971D01*
X206859341Y-113362822D01*
X206859012Y-113346116D01*
X206858730Y-113327196D01*
X206858494Y-113306399D01*
X206858305Y-113284068D01*
X206858163Y-113260541D01*
X206858067Y-113236159D01*
X206858017Y-113211262D01*
X206858014Y-113186191D01*
X206858058Y-113161286D01*
X206858148Y-113136886D01*
X206858285Y-113113332D01*
X206858469Y-113090964D01*
X206858699Y-113070122D01*
X206858976Y-113051147D01*
X206859299Y-113034378D01*
X206859669Y-113020156D01*
X206860086Y-113008821D01*
X206860136Y-113007731D01*
X206864683Y-112923138D01*
X206870209Y-112841309D01*
X206876757Y-112761874D01*
X206884375Y-112684466D01*
X206893107Y-112608717D01*
X206902999Y-112534261D01*
X206914097Y-112460729D01*
X206926445Y-112387753D01*
X206940090Y-112314966D01*
X206954523Y-112244586D01*
X206976149Y-112148239D01*
X206999269Y-112054750D01*
X207023905Y-111964063D01*
X207050077Y-111876121D01*
X207077805Y-111790867D01*
X207107112Y-111708246D01*
X207138016Y-111628200D01*
X207170539Y-111550674D01*
X207204702Y-111475611D01*
X207240525Y-111402954D01*
X207278028Y-111332648D01*
X207306673Y-111282445D01*
X207321727Y-111257145D01*
X207337907Y-111230630D01*
X207355320Y-111202738D01*
X207374070Y-111173309D01*
X207394262Y-111142182D01*
X207416001Y-111109196D01*
X207439392Y-111074190D01*
X207464538Y-111037002D01*
X207491546Y-110997472D01*
X207503892Y-110979519D01*
X207520991Y-110954694D01*
X207536435Y-110932257D01*
X207550425Y-110911911D01*
X207563163Y-110893359D01*
X207574851Y-110876301D01*
X207585690Y-110860442D01*
X207595883Y-110845482D01*
X207605632Y-110831123D01*
X207615137Y-110817070D01*
X207624601Y-110803022D01*
X207634226Y-110788684D01*
X207644214Y-110773756D01*
X207654766Y-110757941D01*
X207666084Y-110740942D01*
X207678370Y-110722460D01*
X207690936Y-110703539D01*
X207714668Y-110667729D01*
X207736617Y-110634468D01*
X207756859Y-110603621D01*
X207775472Y-110575055D01*
X207792533Y-110548635D01*
X207808119Y-110524225D01*
X207822308Y-110501692D01*
X207835178Y-110480900D01*
X207846804Y-110461716D01*
X207857266Y-110444004D01*
X207866640Y-110427631D01*
X207875003Y-110412461D01*
X207882433Y-110398360D01*
X207889007Y-110385194D01*
X207894802Y-110372827D01*
X207899896Y-110361125D01*
X207904367Y-110349954D01*
X207908290Y-110339179D01*
X207911745Y-110328666D01*
X207914807Y-110318279D01*
X207916979Y-110310157D01*
X207924128Y-110275742D01*
X207928062Y-110240926D01*
X207928782Y-110205897D01*
X207926287Y-110170839D01*
X207920576Y-110135938D01*
X207917700Y-110123314D01*
X207909258Y-110093281D01*
X207898650Y-110063393D01*
X207885720Y-110033317D01*
X207870315Y-110002721D01*
X207852283Y-109971271D01*
X207834507Y-109943215D01*
X207820715Y-109923009D01*
X207807501Y-109905184D01*
X207794318Y-109889055D01*
X207780618Y-109873937D01*
X207772623Y-109865764D01*
X207753608Y-109847857D01*
X207733528Y-109831054D01*
X207712132Y-109815219D01*
X207689173Y-109800215D01*
X207664400Y-109785905D01*
X207637566Y-109772153D01*
X207608421Y-109758821D01*
X207576716Y-109745773D01*
X207542202Y-109732871D01*
X207511269Y-109722186D01*
X207447561Y-109702343D01*
X207382191Y-109684866D01*
X207315031Y-109669730D01*
X207245951Y-109656911D01*
X207174822Y-109646384D01*
X207101516Y-109638123D01*
X207053184Y-109633999D01*
X207035231Y-109632718D01*
X207017294Y-109631581D01*
X206999182Y-109630586D01*
X206980706Y-109629734D01*
X206961676Y-109629024D01*
X206941901Y-109628456D01*
X206921192Y-109628029D01*
X206899358Y-109627742D01*
X206876210Y-109627595D01*
X206851557Y-109627589D01*
X206825210Y-109627721D01*
X206796978Y-109627992D01*
X206766672Y-109628401D01*
X206734101Y-109628949D01*
X206699076Y-109629633D01*
X206661406Y-109630455D01*
X206620901Y-109631413D01*
X206577372Y-109632506D01*
X206565727Y-109632808D01*
X206538115Y-109633525D01*
X206509763Y-109634256D01*
X206481037Y-109634994D01*
X206452298Y-109635727D01*
X206423910Y-109636448D01*
X206396237Y-109637147D01*
X206369642Y-109637815D01*
X206344488Y-109638443D01*
X206321138Y-109639022D01*
X206299955Y-109639542D01*
X206281304Y-109639995D01*
X206265546Y-109640370D01*
X206265251Y-109640377D01*
X206243832Y-109640882D01*
X206220713Y-109641427D01*
X206196572Y-109641997D01*
X206172083Y-109642575D01*
X206147923Y-109643146D01*
X206124768Y-109643693D01*
X206103294Y-109644201D01*
X206084177Y-109644654D01*
X206078271Y-109644794D01*
X206060351Y-109645175D01*
X206039821Y-109645536D01*
X206017337Y-109645868D01*
X205993557Y-109646166D01*
X205969135Y-109646422D01*
X205944729Y-109646629D01*
X205920994Y-109646779D01*
X205898587Y-109646865D01*
X205888840Y-109646881D01*
X205864959Y-109646886D01*
X205843943Y-109646841D01*
X205825392Y-109646730D01*
X205808904Y-109646535D01*
X205794079Y-109646239D01*
X205780516Y-109645822D01*
X205767815Y-109645269D01*
X205755574Y-109644560D01*
X205743393Y-109643678D01*
X205730871Y-109642606D01*
X205717607Y-109641325D01*
X205703201Y-109639819D01*
X205687252Y-109638068D01*
X205685529Y-109637876D01*
X205629434Y-109630795D01*
X205571049Y-109621861D01*
X205510715Y-109611163D01*
X205448770Y-109598785D01*
X205385554Y-109584816D01*
X205321405Y-109569342D01*
X205256664Y-109552450D01*
X205191669Y-109534226D01*
X205126759Y-109514758D01*
X205062274Y-109494132D01*
X204998553Y-109472436D01*
X204935935Y-109449755D01*
X204905762Y-109438310D01*
X204865077Y-109422313D01*
X204824438Y-109405695D01*
X204784135Y-109388595D01*
X204744456Y-109371151D01*
X204705688Y-109353501D01*
X204668119Y-109335782D01*
X204632039Y-109318132D01*
X204597735Y-109300689D01*
X204565496Y-109283591D01*
X204535609Y-109266975D01*
X204508364Y-109250980D01*
X204489478Y-109239245D01*
X204452726Y-109214594D01*
X204418548Y-109189275D01*
X204387038Y-109163381D01*
X204358285Y-109137004D01*
X204332382Y-109110236D01*
X204309420Y-109083169D01*
X204289491Y-109055895D01*
X204272686Y-109028506D01*
X204264878Y-109013568D01*
X204251642Y-108982915D01*
X204241503Y-108951319D01*
X204234488Y-108918944D01*
X204230619Y-108885955D01*
X204229923Y-108852514D01*
X204232424Y-108818786D01*
X204233834Y-108808419D01*
X204237568Y-108787056D01*
X204242614Y-108763455D01*
X204248782Y-108738276D01*
X204255881Y-108712182D01*
X204263719Y-108685834D01*
X204272107Y-108659893D01*
X204280853Y-108635020D01*
X204289766Y-108611877D01*
X204292308Y-108605698D01*
X204307388Y-108571784D01*
X204323927Y-108538615D01*
X204341677Y-108506583D01*
X204360394Y-108476081D01*
X204379829Y-108447503D01*
X204399738Y-108421243D01*
X204419873Y-108397692D01*
X204428103Y-108388945D01*
X204439615Y-108377379D01*
X204450609Y-108367049D01*
X204461527Y-108357648D01*
X204472808Y-108348870D01*
X204484890Y-108340408D01*
X204498215Y-108331953D01*
X204513220Y-108323200D01*
X204530346Y-108313841D01*
X204550033Y-108303570D01*
X204551155Y-108302994D01*
X204577648Y-108289172D01*
X204601479Y-108276167D01*
X204623069Y-108263707D01*
X204642836Y-108251520D01*
X204661197Y-108239334D01*
X204678573Y-108226876D01*
X204695382Y-108213875D01*
X204712042Y-108200058D01*
X204719598Y-108193505D01*
X204734932Y-108179545D01*
X204749226Y-108165430D01*
X204762885Y-108150686D01*
X204776315Y-108134834D01*
X204789922Y-108117397D01*
X204804111Y-108097899D01*
X204817834Y-108078017D01*
X204828582Y-108062288D01*
X204840252Y-108045507D01*
X204852641Y-108027951D01*
X204865544Y-108009893D01*
X204878754Y-107991611D01*
X204892068Y-107973379D01*
X204905280Y-107955472D01*
X204918186Y-107938167D01*
X204930580Y-107921738D01*
X204942259Y-107906461D01*
X204953015Y-107892612D01*
X204962646Y-107880465D01*
X204970946Y-107870296D01*
X204977709Y-107862382D01*
X204980800Y-107858983D01*
X204989901Y-107849956D01*
X205000422Y-107840593D01*
X205011813Y-107831295D01*
X205023525Y-107822466D01*
X205035008Y-107814509D01*
X205045712Y-107807827D01*
X205055087Y-107802823D01*
X205060496Y-107800558D01*
X205069337Y-107798385D01*
X205078357Y-107797773D01*
X205086584Y-107798687D01*
G37*
G04 #@! TD*
D11*
G04 #@! TO.C,R306*
X152763900Y-58209600D03*
X150938900Y-58209600D03*
G04 #@! TD*
D12*
G04 #@! TO.C,R302*
X216291235Y-56779235D03*
X215000765Y-55488765D03*
G04 #@! TD*
D11*
G04 #@! TO.C,R204*
X105367500Y-63950000D03*
X103542500Y-63950000D03*
G04 #@! TD*
D13*
G04 #@! TO.C,JP213*
X131923000Y-115124000D03*
D14*
X133223000Y-115124000D03*
G04 #@! TD*
D15*
G04 #@! TO.C,R224*
X97089000Y-143221500D03*
X97089000Y-141396500D03*
G04 #@! TD*
D16*
G04 #@! TO.C,D306*
X71375000Y-84600000D03*
X71375000Y-87400000D03*
G04 #@! TD*
D17*
G04 #@! TO.C,R312*
X160184500Y-140531000D03*
X162009500Y-140531000D03*
G04 #@! TD*
D13*
G04 #@! TO.C,JP211*
X131923000Y-122744000D03*
D14*
X133223000Y-122744000D03*
G04 #@! TD*
D18*
G04 #@! TO.C,C206*
X123211000Y-140912000D03*
X118211000Y-140912000D03*
G04 #@! TD*
D19*
G04 #@! TO.C,J305*
X185000000Y-130000000D03*
G04 #@! TD*
D20*
G04 #@! TO.C,H303*
X157000000Y-118000000D03*
G04 #@! TD*
D21*
G04 #@! TO.C,J301*
X185000000Y-70000000D03*
G04 #@! TD*
D22*
G04 #@! TO.C,C203*
X79888000Y-144780000D03*
X81788000Y-144780000D03*
G04 #@! TD*
D17*
G04 #@! TO.C,R217*
X120682500Y-126180000D03*
X122507500Y-126180000D03*
G04 #@! TD*
G04 #@! TO.C,R229*
X133260500Y-140531000D03*
X135085500Y-140531000D03*
G04 #@! TD*
D13*
G04 #@! TO.C,JP221*
X131923000Y-129094000D03*
D14*
X133223000Y-129094000D03*
G04 #@! TD*
D23*
G04 #@! TO.C,R202*
X90097000Y-113572500D03*
X90097000Y-115397500D03*
G04 #@! TD*
D22*
G04 #@! TO.C,C307*
X154457400Y-58209600D03*
X156357400Y-58209600D03*
G04 #@! TD*
D20*
G04 #@! TO.C,H306*
X170000000Y-95000000D03*
G04 #@! TD*
D24*
G04 #@! TO.C,D201*
X96327000Y-68650000D03*
X96327000Y-71950000D03*
G04 #@! TD*
D11*
G04 #@! TO.C,R305*
X160129900Y-58209600D03*
X158304900Y-58209600D03*
G04 #@! TD*
D25*
G04 #@! TO.C,JP206*
X109535000Y-130650000D03*
D26*
X109535000Y-129350000D03*
G04 #@! TD*
D27*
G04 #@! TO.C,J101*
X227240000Y-144450000D03*
X227240000Y-55550000D03*
D28*
X224700000Y-63170000D03*
D29*
X224700000Y-68250000D03*
X224700000Y-73330000D03*
X224700000Y-78410000D03*
X224700000Y-83490000D03*
X224700000Y-88570000D03*
X224700000Y-93650000D03*
X224700000Y-98730000D03*
X224700000Y-103810000D03*
X224700000Y-108890000D03*
X224700000Y-113970000D03*
X224700000Y-119050000D03*
X224700000Y-124130000D03*
X224700000Y-129210000D03*
X224700000Y-134290000D03*
X224700000Y-139370000D03*
X219620000Y-63170000D03*
X219620000Y-68250000D03*
X219620000Y-73330000D03*
X219620000Y-78410000D03*
X219620000Y-83490000D03*
X219620000Y-88570000D03*
X219620000Y-93650000D03*
X219620000Y-98730000D03*
X219620000Y-103810000D03*
X219620000Y-108890000D03*
X219620000Y-113970000D03*
X219620000Y-119050000D03*
X219620000Y-124130000D03*
X219620000Y-129210000D03*
X219620000Y-134290000D03*
X219620000Y-139370000D03*
G04 #@! TD*
D30*
G04 #@! TO.C,JP309*
X148502900Y-64052360D03*
D31*
X148502900Y-62752360D03*
D32*
X148502900Y-61452360D03*
G04 #@! TD*
D33*
G04 #@! TO.C,R215*
X119695000Y-126180000D03*
X123495000Y-126180000D03*
G04 #@! TD*
D23*
G04 #@! TO.C,R304*
X180848000Y-61887500D03*
X180848000Y-63712500D03*
G04 #@! TD*
D34*
G04 #@! TO.C,U203*
X125983000Y-137610000D03*
X125983000Y-138880000D03*
X125983000Y-140150000D03*
X125983000Y-141420000D03*
X130933000Y-141420000D03*
X130933000Y-140150000D03*
X130933000Y-138880000D03*
X130933000Y-137610000D03*
G04 #@! TD*
D35*
G04 #@! TO.C,U304*
X143642421Y-97158720D03*
X143642421Y-97808720D03*
X143642421Y-98458720D03*
X145417421Y-98458720D03*
X145417421Y-97808720D03*
X145417421Y-97158720D03*
D36*
X144529921Y-97808720D03*
G04 #@! TD*
D33*
G04 #@! TO.C,R225*
X114615000Y-137991000D03*
X114615000Y-141791000D03*
G04 #@! TD*
D25*
G04 #@! TO.C,JP302*
X157439400Y-56065600D03*
D26*
X157439400Y-54765600D03*
G04 #@! TD*
D20*
G04 #@! TO.C,H304*
X170000000Y-105000000D03*
G04 #@! TD*
D23*
G04 #@! TO.C,R226*
X114615000Y-138916000D03*
X114615000Y-140741000D03*
G04 #@! TD*
D15*
G04 #@! TO.C,R301*
X183896000Y-58824500D03*
X183896000Y-56999500D03*
G04 #@! TD*
D23*
G04 #@! TO.C,R214*
X100391000Y-138789000D03*
X100391000Y-140614000D03*
G04 #@! TD*
D13*
G04 #@! TO.C,JP208*
X131923000Y-110171000D03*
D14*
X133223000Y-110171000D03*
G04 #@! TD*
D37*
G04 #@! TO.C,C305*
X160069000Y-60960000D03*
X163019000Y-60960000D03*
G04 #@! TD*
D23*
G04 #@! TO.C,R227*
X109789000Y-138597500D03*
X109789000Y-140422500D03*
G04 #@! TD*
D33*
G04 #@! TO.C,R219*
X95057000Y-127958000D03*
X91257000Y-127958000D03*
G04 #@! TD*
D13*
G04 #@! TO.C,JP223*
X78024000Y-73602000D03*
D14*
X79324000Y-73602000D03*
G04 #@! TD*
D18*
G04 #@! TO.C,C208*
X131085000Y-144087000D03*
X126085000Y-144087000D03*
G04 #@! TD*
D37*
G04 #@! TO.C,C312*
X167242000Y-142817000D03*
X170192000Y-142817000D03*
G04 #@! TD*
D21*
G04 #@! TO.C,J105*
X134000000Y-100000000D03*
G04 #@! TD*
D38*
G04 #@! TO.C,U301*
X163559400Y-58081600D03*
D39*
X165059400Y-57994100D03*
D38*
X166559400Y-58081600D03*
G04 #@! TD*
D40*
G04 #@! TO.C,U305*
X166786000Y-136222000D03*
X166136000Y-136222000D03*
X165486000Y-136222000D03*
X164836000Y-136222000D03*
X164186000Y-136222000D03*
X163536000Y-136222000D03*
X163536000Y-140522000D03*
X164186000Y-140522000D03*
X164836000Y-140522000D03*
X165486000Y-140522000D03*
X166136000Y-140522000D03*
X166786000Y-140522000D03*
D41*
X165161000Y-138372000D03*
G04 #@! TD*
D33*
G04 #@! TO.C,R210*
X104963000Y-137610000D03*
X104963000Y-141410000D03*
G04 #@! TD*
G04 #@! TO.C,R216*
X100391000Y-137864000D03*
X100391000Y-141664000D03*
G04 #@! TD*
D17*
G04 #@! TO.C,R211*
X120667000Y-131260000D03*
X122492000Y-131260000D03*
G04 #@! TD*
D42*
G04 #@! TO.C,C309*
X147245921Y-98834720D03*
X147245921Y-96934720D03*
G04 #@! TD*
D43*
G04 #@! TO.C,D101*
X143571000Y-145198000D03*
X143571000Y-141198000D03*
G04 #@! TD*
D25*
G04 #@! TO.C,JP209*
X101915000Y-130650000D03*
D26*
X101915000Y-129350000D03*
G04 #@! TD*
D44*
G04 #@! TO.C,JP306*
X176733000Y-139769000D03*
D45*
X175433000Y-139769000D03*
G04 #@! TD*
D46*
G04 #@! TO.C,C209*
X135570000Y-142944000D03*
X135570000Y-145444000D03*
G04 #@! TD*
D47*
G04 #@! TO.C,C303*
X166950000Y-61016000D03*
X165050000Y-61016000D03*
G04 #@! TD*
D34*
G04 #@! TO.C,U202*
X77440000Y-139022500D03*
X77440000Y-140292500D03*
X77440000Y-141562500D03*
X77440000Y-142832500D03*
X82390000Y-142832500D03*
X82390000Y-141562500D03*
X82390000Y-140292500D03*
X82390000Y-139022500D03*
G04 #@! TD*
D11*
G04 #@! TO.C,R310*
X162009500Y-136086000D03*
X160184500Y-136086000D03*
G04 #@! TD*
D33*
G04 #@! TO.C,R201*
X90097000Y-112585000D03*
X90097000Y-116385000D03*
G04 #@! TD*
D20*
G04 #@! TO.C,H302*
X180000000Y-105000000D03*
G04 #@! TD*
D48*
G04 #@! TO.C,RN201*
X86795000Y-122100000D03*
D49*
X86795000Y-119560000D03*
X86795000Y-117020000D03*
X86795000Y-114480000D03*
X86795000Y-111940000D03*
X86795000Y-109400000D03*
X86795000Y-106860000D03*
X86795000Y-104320000D03*
X79175000Y-104320000D03*
X79175000Y-106860000D03*
X79175000Y-109400000D03*
X79175000Y-111940000D03*
X79175000Y-114480000D03*
X79175000Y-117020000D03*
X79175000Y-119560000D03*
X79175000Y-122100000D03*
G04 #@! TD*
D44*
G04 #@! TO.C,JP305*
X176741000Y-136848000D03*
D45*
X175441000Y-136848000D03*
G04 #@! TD*
D30*
G04 #@! TO.C,JP308*
X145962900Y-64052360D03*
D31*
X145962900Y-62752360D03*
D32*
X145962900Y-61452360D03*
G04 #@! TD*
D25*
G04 #@! TO.C,JP301*
X151343400Y-56065600D03*
D26*
X151343400Y-54765600D03*
G04 #@! TD*
D50*
G04 #@! TO.C,C302*
X209000000Y-62000000D03*
D51*
X209000000Y-69500000D03*
G04 #@! TD*
D52*
G04 #@! TO.C,D202*
X77023000Y-100018000D03*
X73723000Y-100018000D03*
G04 #@! TD*
D15*
G04 #@! TO.C,R207*
X84643000Y-142840500D03*
X84643000Y-141015500D03*
G04 #@! TD*
D33*
G04 #@! TO.C,R228*
X109789000Y-137610000D03*
X109789000Y-141410000D03*
G04 #@! TD*
D25*
G04 #@! TO.C,JP219*
X104455000Y-130650000D03*
D26*
X104455000Y-129350000D03*
G04 #@! TD*
D20*
G04 #@! TO.C,H301*
X193000000Y-118000000D03*
G04 #@! TD*
D21*
G04 #@! TO.C,J104*
X80375000Y-100000000D03*
G04 #@! TD*
D33*
G04 #@! TO.C,R220*
X137531000Y-129094000D03*
X141331000Y-129094000D03*
G04 #@! TD*
D53*
G04 #@! TO.C,JP225*
X114615000Y-129350000D03*
D54*
X114615000Y-130650000D03*
G04 #@! TD*
D21*
G04 #@! TO.C,J102*
X138745000Y-137000000D03*
G04 #@! TD*
D55*
G04 #@! TO.C,D302*
X173000000Y-130400000D03*
X173000000Y-127600000D03*
G04 #@! TD*
D22*
G04 #@! TO.C,C311*
X163703000Y-142563000D03*
X165603000Y-142563000D03*
G04 #@! TD*
D56*
G04 #@! TO.C,C310*
X169860000Y-137930000D03*
X169860000Y-139830000D03*
G04 #@! TD*
D11*
G04 #@! TO.C,R311*
X162009500Y-142563000D03*
X160184500Y-142563000D03*
G04 #@! TD*
G04 #@! TO.C,R307*
X149004700Y-58158800D03*
X147179700Y-58158800D03*
G04 #@! TD*
G04 #@! TO.C,R309*
X170137500Y-136086000D03*
X168312500Y-136086000D03*
G04 #@! TD*
D20*
G04 #@! TO.C,H308*
X180000000Y-95000000D03*
G04 #@! TD*
D11*
G04 #@! TO.C,R218*
X94069500Y-127958000D03*
X92244500Y-127958000D03*
G04 #@! TD*
D25*
G04 #@! TO.C,JP303*
X160487400Y-56065600D03*
D26*
X160487400Y-54765600D03*
G04 #@! TD*
D57*
G04 #@! TO.C,U302*
X177775000Y-63275000D03*
X177775000Y-62625000D03*
X177775000Y-61975000D03*
X177775000Y-61325000D03*
X177775000Y-60675000D03*
X177775000Y-60025000D03*
X177775000Y-59375000D03*
X177775000Y-58725000D03*
X172225000Y-58725000D03*
X172225000Y-59375000D03*
X172225000Y-60025000D03*
X172225000Y-60675000D03*
X172225000Y-61325000D03*
X172225000Y-61975000D03*
X172225000Y-62625000D03*
X172225000Y-63275000D03*
D58*
X175735000Y-60552500D03*
X175735000Y-61447500D03*
X174265000Y-60552500D03*
X174265000Y-62342500D03*
X175735000Y-59657500D03*
X174265000Y-59657500D03*
X175735000Y-62342500D03*
X174265000Y-61447500D03*
G04 #@! TD*
D25*
G04 #@! TO.C,JP214*
X145730000Y-119083000D03*
D26*
X145730000Y-117783000D03*
G04 #@! TD*
D15*
G04 #@! TO.C,R206*
X86675000Y-142840500D03*
X86675000Y-141015500D03*
G04 #@! TD*
D13*
G04 #@! TO.C,JP220*
X131923000Y-125411000D03*
D14*
X133223000Y-125411000D03*
G04 #@! TD*
D33*
G04 #@! TO.C,R203*
X75873000Y-118173000D03*
X75873000Y-121973000D03*
G04 #@! TD*
D21*
G04 #@! TO.C,J103*
X144775000Y-137000000D03*
G04 #@! TD*
D59*
G04 #@! TO.C,Q301*
X215374500Y-125860000D03*
X215374500Y-123960000D03*
X213499500Y-124910000D03*
G04 #@! TD*
D23*
G04 #@! TO.C,R205*
X75873000Y-119160500D03*
X75873000Y-120985500D03*
G04 #@! TD*
D15*
G04 #@! TO.C,R308*
X216215000Y-122012500D03*
X216215000Y-120187500D03*
G04 #@! TD*
D13*
G04 #@! TO.C,JP216*
X131923000Y-107504000D03*
D14*
X133223000Y-107504000D03*
G04 #@! TD*
D60*
G04 #@! TO.C,U201*
X110000000Y-97085000D03*
D61*
X107935248Y-97940248D03*
X107080000Y-100005000D03*
X107935248Y-102069752D03*
X110000000Y-102925000D03*
X112064752Y-102069752D03*
X112920000Y-100005000D03*
X112064752Y-97940248D03*
G04 #@! TD*
D13*
G04 #@! TO.C,JP229*
X81453000Y-73602000D03*
D14*
X82753000Y-73602000D03*
G04 #@! TD*
D21*
G04 #@! TO.C,J302*
X175000000Y-71000000D03*
G04 #@! TD*
D18*
G04 #@! TO.C,C205*
X74356000Y-136300000D03*
X74356000Y-131300000D03*
G04 #@! TD*
D30*
G04 #@! TO.C,JP307*
X151042900Y-64052360D03*
D31*
X151042900Y-62752360D03*
D32*
X151042900Y-61452360D03*
G04 #@! TD*
D22*
G04 #@! TO.C,C207*
X127508000Y-135705000D03*
X129408000Y-135705000D03*
G04 #@! TD*
D62*
G04 #@! TO.C,FL301*
X179766000Y-139642000D03*
X172416000Y-139642000D03*
X179766000Y-137142000D03*
X172416000Y-137142000D03*
G04 #@! TD*
D63*
G04 #@! TO.C,U303*
X153426200Y-61218560D03*
X153426200Y-61868560D03*
X153426200Y-62518560D03*
X153426200Y-63168560D03*
X157651200Y-63168560D03*
X157651200Y-62518560D03*
X157651200Y-61868560D03*
X157651200Y-61218560D03*
G04 #@! TD*
D16*
G04 #@! TO.C,D301*
X71375000Y-64600000D03*
X71375000Y-67400000D03*
G04 #@! TD*
D33*
G04 #@! TO.C,R223*
X89175000Y-100000000D03*
X85375000Y-100000000D03*
G04 #@! TD*
D25*
G04 #@! TO.C,JP218*
X99375000Y-130650000D03*
D26*
X99375000Y-129350000D03*
G04 #@! TD*
D48*
G04 #@! TO.C,RN204*
X78039000Y-76662245D03*
D49*
X78039000Y-79202245D03*
X78039000Y-81742245D03*
X78039000Y-84282245D03*
X78039000Y-86822245D03*
X78039000Y-89362245D03*
X78039000Y-91902245D03*
X78039000Y-94442245D03*
X85659000Y-94442245D03*
X85659000Y-91902245D03*
X85659000Y-89362245D03*
X85659000Y-86822245D03*
X85659000Y-84282245D03*
X85659000Y-81742245D03*
X85659000Y-79202245D03*
X85659000Y-76662245D03*
G04 #@! TD*
D23*
G04 #@! TO.C,R208*
X104963000Y-138535000D03*
X104963000Y-140360000D03*
G04 #@! TD*
D11*
G04 #@! TO.C,R221*
X88187500Y-100000000D03*
X86362500Y-100000000D03*
G04 #@! TD*
D13*
G04 #@! TO.C,JP212*
X145512000Y-107504000D03*
D14*
X146812000Y-107504000D03*
G04 #@! TD*
D11*
G04 #@! TO.C,R212*
X94069500Y-133419000D03*
X92244500Y-133419000D03*
G04 #@! TD*
D48*
G04 #@! TO.C,RN203*
X99375000Y-133800000D03*
D49*
X101915000Y-133800000D03*
X104455000Y-133800000D03*
X106995000Y-133800000D03*
X109535000Y-133800000D03*
X112075000Y-133800000D03*
X114615000Y-133800000D03*
X114615000Y-126180000D03*
X112075000Y-126180000D03*
X109535000Y-126180000D03*
X106995000Y-126180000D03*
X104455000Y-126180000D03*
X101915000Y-126180000D03*
X99375000Y-126180000D03*
G04 #@! TD*
D55*
G04 #@! TO.C,D305*
X180000000Y-127600000D03*
X180000000Y-130400000D03*
G04 #@! TD*
D19*
G04 #@! TO.C,J304*
X165000000Y-130000000D03*
G04 #@! TD*
D33*
G04 #@! TO.C,R213*
X95057000Y-133419000D03*
X91257000Y-133419000D03*
G04 #@! TD*
D64*
G04 #@! TO.C,C306*
X176475000Y-67000000D03*
X173525000Y-67000000D03*
G04 #@! TD*
D22*
G04 #@! TO.C,C202*
X81661000Y-137102000D03*
X83561000Y-137102000D03*
G04 #@! TD*
D33*
G04 #@! TO.C,R209*
X119695000Y-131260000D03*
X123495000Y-131260000D03*
G04 #@! TD*
D65*
G04 #@! TO.C,C313*
X157414000Y-143911000D03*
X157414000Y-140961000D03*
G04 #@! TD*
D25*
G04 #@! TO.C,JP304*
X154391400Y-56065600D03*
D26*
X154391400Y-54765600D03*
G04 #@! TD*
D42*
G04 #@! TO.C,C301*
X170000000Y-60894000D03*
X170000000Y-58994000D03*
G04 #@! TD*
D55*
G04 #@! TO.C,D304*
X177000000Y-130400000D03*
X177000000Y-127600000D03*
G04 #@! TD*
D15*
G04 #@! TO.C,R303*
X179832000Y-58824500D03*
X179832000Y-56999500D03*
G04 #@! TD*
D48*
G04 #@! TO.C,RN202*
X135570000Y-107511000D03*
D49*
X135570000Y-110051000D03*
X135570000Y-112591000D03*
X135570000Y-115131000D03*
X135570000Y-117671000D03*
X135570000Y-120211000D03*
X135570000Y-122751000D03*
X135570000Y-125291000D03*
X143190000Y-125291000D03*
X143190000Y-122751000D03*
X143190000Y-120211000D03*
X143190000Y-117671000D03*
X143190000Y-115131000D03*
X143190000Y-112591000D03*
X143190000Y-110051000D03*
X143190000Y-107511000D03*
G04 #@! TD*
D56*
G04 #@! TO.C,C201*
X88707000Y-140978000D03*
X88707000Y-142878000D03*
G04 #@! TD*
D42*
G04 #@! TO.C,C304*
X181864000Y-58862000D03*
X181864000Y-56962000D03*
G04 #@! TD*
D17*
G04 #@! TO.C,R222*
X138518500Y-129094000D03*
X140343500Y-129094000D03*
G04 #@! TD*
D13*
G04 #@! TO.C,JP226*
X85009000Y-73602000D03*
D14*
X86309000Y-73602000D03*
G04 #@! TD*
D20*
G04 #@! TO.C,H305*
X157000000Y-82000000D03*
G04 #@! TD*
G04 #@! TO.C,H307*
X193000000Y-82000000D03*
G04 #@! TD*
D55*
G04 #@! TO.C,D303*
X169672000Y-127600000D03*
X169672000Y-130400000D03*
G04 #@! TD*
D25*
G04 #@! TO.C,JP227*
X112075000Y-130650000D03*
D26*
X112075000Y-129350000D03*
G04 #@! TD*
D66*
G04 #@! TO.C,Q201*
X107700000Y-61570000D03*
X110000000Y-61570000D03*
D67*
X110000000Y-55270000D03*
D66*
X112300000Y-61570000D03*
G04 #@! TD*
D11*
G04 #@! TO.C,R313*
X162009500Y-138499000D03*
X160184500Y-138499000D03*
G04 #@! TD*
D37*
G04 #@! TO.C,C308*
X177021000Y-133000000D03*
X179971000Y-133000000D03*
G04 #@! TD*
D18*
G04 #@! TO.C,C204*
X74356000Y-144428000D03*
X74356000Y-139428000D03*
G04 #@! TD*
D21*
G04 #@! TO.C,J303*
X165000000Y-70000000D03*
G04 #@! TD*
D53*
G04 #@! TO.C,JP207*
X107000000Y-129350000D03*
D54*
X107000000Y-130650000D03*
G04 #@! TD*
M02*
