G04 #@! TF.GenerationSoftware,KiCad,Pcbnew,(7.0.0)*
G04 #@! TF.CreationDate,2023-02-17T09:17:20+01:00*
G04 #@! TF.ProjectId,adrmu6layer,6164726d-7536-46c6-9179-65722e6b6963,1.1*
G04 #@! TF.SameCoordinates,Original*
G04 #@! TF.FileFunction,Soldermask,Bot*
G04 #@! TF.FilePolarity,Negative*
%FSLAX46Y46*%
G04 Gerber Fmt 4.6, Leading zero omitted, Abs format (unit mm)*
G04 Created by KiCad (PCBNEW (7.0.0)) date 2023-02-17 09:17:20*
%MOMM*%
%LPD*%
G01*
G04 APERTURE LIST*
G04 Aperture macros list*
%AMRoundRect*
0 Rectangle with rounded corners*
0 $1 Rounding radius*
0 $2 $3 $4 $5 $6 $7 $8 $9 X,Y pos of 4 corners*
0 Add a 4 corners polygon primitive as box body*
4,1,4,$2,$3,$4,$5,$6,$7,$8,$9,$2,$3,0*
0 Add four circle primitives for the rounded corners*
1,1,$1+$1,$2,$3*
1,1,$1+$1,$4,$5*
1,1,$1+$1,$6,$7*
1,1,$1+$1,$8,$9*
0 Add four rect primitives between the rounded corners*
20,1,$1+$1,$2,$3,$4,$5,0*
20,1,$1+$1,$4,$5,$6,$7,0*
20,1,$1+$1,$6,$7,$8,$9,0*
20,1,$1+$1,$8,$9,$2,$3,0*%
%AMHorizOval*
0 Thick line with rounded ends*
0 $1 width*
0 $2 $3 position (X,Y) of the first rounded end (center of the circle)*
0 $4 $5 position (X,Y) of the second rounded end (center of the circle)*
0 Add line between two ends*
20,1,$1,$2,$3,$4,$5,0*
0 Add two circle primitives to create the rounded ends*
1,1,$1,$2,$3*
1,1,$1,$4,$5*%
%AMRotRect*
0 Rectangle, with rotation*
0 The origin of the aperture is its center*
0 $1 length*
0 $2 width*
0 $3 Rotation angle, in degrees counterclockwise*
0 Add horizontal line*
21,1,$1,$2,0,0,$3*%
%AMFreePoly0*
4,1,19,0.500000,-0.750000,0.000000,-0.750000,0.000000,-0.744911,-0.071157,-0.744911,-0.207708,-0.704816,-0.327430,-0.627875,-0.420627,-0.520320,-0.479746,-0.390866,-0.500000,-0.250000,-0.500000,0.250000,-0.479746,0.390866,-0.420627,0.520320,-0.327430,0.627875,-0.207708,0.704816,-0.071157,0.744911,0.000000,0.744911,0.000000,0.750000,0.500000,0.750000,0.500000,-0.750000,0.500000,-0.750000,
$1*%
%AMFreePoly1*
4,1,19,0.000000,0.744911,0.071157,0.744911,0.207708,0.704816,0.327430,0.627875,0.420627,0.520320,0.479746,0.390866,0.500000,0.250000,0.500000,-0.250000,0.479746,-0.390866,0.420627,-0.520320,0.327430,-0.627875,0.207708,-0.704816,0.071157,-0.744911,0.000000,-0.744911,0.000000,-0.750000,-0.500000,-0.750000,-0.500000,0.750000,0.000000,0.750000,0.000000,0.744911,0.000000,0.744911,
$1*%
G04 Aperture macros list end*
%ADD10C,0.150000*%
%ADD11RoundRect,0.250000X-0.550000X-0.550000X0.550000X-0.550000X0.550000X0.550000X-0.550000X0.550000X0*%
%ADD12R,1.600000X1.600000*%
%ADD13O,1.600000X1.600000*%
%ADD14C,1.500000*%
%ADD15C,1.600000*%
%ADD16RoundRect,0.250001X0.899999X0.899999X-0.899999X0.899999X-0.899999X-0.899999X0.899999X-0.899999X0*%
%ADD17C,4.300000*%
%ADD18RoundRect,0.250001X-0.899999X-0.899999X0.899999X-0.899999X0.899999X0.899999X-0.899999X0.899999X0*%
%ADD19C,1.400000*%
%ADD20C,2.850000*%
%ADD21RoundRect,0.250000X-1.050000X1.050000X-1.050000X-1.050000X1.050000X-1.050000X1.050000X1.050000X0*%
%ADD22C,2.600000*%
%ADD23RoundRect,0.250002X-1.699998X-1.699998X1.699998X-1.699998X1.699998X1.699998X-1.699998X1.699998X0*%
%ADD24RotRect,1.800000X1.800000X225.000000*%
%ADD25HorizOval,1.800000X0.000000X0.000000X0.000000X0.000000X0*%
%ADD26R,2.400000X2.400000*%
%ADD27C,2.400000*%
%ADD28RoundRect,0.250000X-1.125000X-1.125000X1.125000X-1.125000X1.125000X1.125000X-1.125000X1.125000X0*%
%ADD29R,2.000000X2.000000*%
%ADD30O,1.200000X1.200000*%
%ADD31C,2.100000*%
%ADD32C,1.750000*%
%ADD33RoundRect,0.250000X0.450000X-0.262500X0.450000X0.262500X-0.450000X0.262500X-0.450000X-0.262500X0*%
%ADD34FreePoly0,270.000000*%
%ADD35FreePoly1,270.000000*%
%ADD36RoundRect,0.250000X-0.450000X0.262500X-0.450000X-0.262500X0.450000X-0.262500X0.450000X0.262500X0*%
%ADD37FreePoly0,0.000000*%
%ADD38FreePoly1,0.000000*%
%ADD39FreePoly0,90.000000*%
%ADD40FreePoly1,90.000000*%
%ADD41FreePoly0,180.000000*%
%ADD42FreePoly1,180.000000*%
G04 APERTURE END LIST*
D10*
X70000000Y-50000000D02*
X230000000Y-50000000D01*
X230000000Y-50000000D02*
X230000000Y-53000000D01*
X230000000Y-53000000D02*
X70000000Y-53000000D01*
X70000000Y-53000000D02*
X70000000Y-50000000D01*
G36*
X70000000Y-50000000D02*
G01*
X230000000Y-50000000D01*
X230000000Y-53000000D01*
X70000000Y-53000000D01*
X70000000Y-50000000D01*
G37*
D11*
G04 #@! TO.C,J217*
X93980000Y-106680000D03*
G04 #@! TD*
D12*
G04 #@! TO.C,RN401*
X144999999Y-94499999D03*
D13*
X144999999Y-97039999D03*
X144999999Y-99579999D03*
X144999999Y-102119999D03*
X144999999Y-104659999D03*
X144999999Y-107199999D03*
X144999999Y-109739999D03*
X144999999Y-112279999D03*
X152619999Y-112279999D03*
X152619999Y-109739999D03*
X152619999Y-107199999D03*
X152619999Y-104659999D03*
X152619999Y-102119999D03*
X152619999Y-99579999D03*
X152619999Y-97039999D03*
X152619999Y-94499999D03*
G04 #@! TD*
D14*
G04 #@! TO.C,R202*
X92950000Y-113000000D03*
X96750000Y-113000000D03*
G04 #@! TD*
D15*
G04 #@! TO.C,C401*
X128300000Y-133800000D03*
X123300000Y-133800000D03*
G04 #@! TD*
D16*
G04 #@! TO.C,J305*
X180000000Y-127000000D03*
G04 #@! TD*
D17*
G04 #@! TO.C,H303*
X170000000Y-120000000D03*
G04 #@! TD*
D18*
G04 #@! TO.C,J301*
X197000000Y-73000000D03*
G04 #@! TD*
D11*
G04 #@! TO.C,J210*
X96520000Y-93980000D03*
G04 #@! TD*
D19*
G04 #@! TO.C,C414*
X170200000Y-137500000D03*
X170200000Y-135000000D03*
G04 #@! TD*
D17*
G04 #@! TO.C,H306*
X187000000Y-97000000D03*
G04 #@! TD*
D18*
G04 #@! TO.C,J106*
X164700000Y-135200000D03*
G04 #@! TD*
D20*
G04 #@! TO.C,J101*
X227240000Y-55550000D03*
X227240000Y-144450000D03*
D21*
X224700000Y-63170000D03*
D22*
X224700000Y-68250000D03*
X224700000Y-73330000D03*
X224700000Y-78410000D03*
X224700000Y-83490000D03*
X224700000Y-88570000D03*
X224700000Y-93650000D03*
X224700000Y-98730000D03*
X224700000Y-103810000D03*
X224700000Y-108890000D03*
X224700000Y-113970000D03*
X224700000Y-119050000D03*
X224700000Y-124130000D03*
X224700000Y-129210000D03*
X224700000Y-134290000D03*
X224700000Y-139370000D03*
X219620000Y-63170000D03*
X219620000Y-68250000D03*
X219620000Y-73330000D03*
X219620000Y-78410000D03*
X219620000Y-83490000D03*
X219620000Y-88570000D03*
X219620000Y-93650000D03*
X219620000Y-98730000D03*
X219620000Y-103810000D03*
X219620000Y-108890000D03*
X219620000Y-113970000D03*
X219620000Y-119050000D03*
X219620000Y-124130000D03*
X219620000Y-129210000D03*
X219620000Y-134290000D03*
X219620000Y-139370000D03*
G04 #@! TD*
D14*
G04 #@! TO.C,R213*
X130800000Y-113400000D03*
X134600000Y-113400000D03*
G04 #@! TD*
D11*
G04 #@! TO.C,J208*
X96520000Y-104140000D03*
G04 #@! TD*
D14*
G04 #@! TO.C,R402*
X124114624Y-125240000D03*
X124114624Y-129040000D03*
G04 #@! TD*
D17*
G04 #@! TO.C,H304*
X187000000Y-103000000D03*
G04 #@! TD*
D14*
G04 #@! TO.C,R217*
X104150000Y-117300000D03*
X100350000Y-117300000D03*
G04 #@! TD*
D23*
G04 #@! TO.C,J105*
X143499624Y-87249000D03*
G04 #@! TD*
D11*
G04 #@! TO.C,J212*
X93980000Y-104140000D03*
G04 #@! TD*
D14*
G04 #@! TO.C,RN402*
X140750000Y-111750000D03*
X140750000Y-109250000D03*
X140750000Y-106750000D03*
G04 #@! TD*
D11*
G04 #@! TO.C,J207*
X96520000Y-101600000D03*
G04 #@! TD*
D14*
G04 #@! TO.C,R208*
X114462624Y-124859000D03*
X114462624Y-128659000D03*
G04 #@! TD*
G04 #@! TO.C,R214*
X109890624Y-125113000D03*
X109890624Y-128913000D03*
G04 #@! TD*
D11*
G04 #@! TO.C,J204*
X93980000Y-93980000D03*
G04 #@! TD*
G04 #@! TO.C,J206*
X96520000Y-99060000D03*
G04 #@! TD*
D15*
G04 #@! TO.C,C404*
X134000000Y-122000000D03*
X134000000Y-127000000D03*
G04 #@! TD*
D24*
G04 #@! TO.C,Q201*
X92999999Y-70754375D03*
D25*
X91203948Y-72550426D03*
X89407897Y-74346477D03*
G04 #@! TD*
D11*
G04 #@! TO.C,J205*
X93980000Y-96520000D03*
G04 #@! TD*
D17*
G04 #@! TO.C,H302*
X193000000Y-103000000D03*
G04 #@! TD*
D12*
G04 #@! TO.C,RN201*
X91439999Y-91439999D03*
D13*
X91439999Y-93979999D03*
X91439999Y-96519999D03*
X91439999Y-99059999D03*
X91439999Y-101599999D03*
X91439999Y-104139999D03*
X91439999Y-106679999D03*
X91439999Y-109219999D03*
X99059999Y-109219999D03*
X99059999Y-106679999D03*
X99059999Y-104139999D03*
X99059999Y-101599999D03*
X99059999Y-99059999D03*
X99059999Y-96519999D03*
X99059999Y-93979999D03*
X99059999Y-91439999D03*
G04 #@! TD*
D11*
G04 #@! TO.C,J216*
X101600000Y-99060000D03*
G04 #@! TD*
G04 #@! TO.C,J214*
X93980000Y-91440000D03*
G04 #@! TD*
D26*
G04 #@! TO.C,C303*
X206999999Y-58287245D03*
D27*
X207000000Y-65787246D03*
G04 #@! TD*
D14*
G04 #@! TO.C,R405*
X119288624Y-124859000D03*
X119288624Y-128659000D03*
G04 #@! TD*
D19*
G04 #@! TO.C,C412*
X143600000Y-123500000D03*
X141100000Y-123500000D03*
G04 #@! TD*
D11*
G04 #@! TO.C,J202*
X93980000Y-99060000D03*
G04 #@! TD*
D14*
G04 #@! TO.C,R223*
X80000000Y-127350000D03*
X80000000Y-131150000D03*
G04 #@! TD*
D17*
G04 #@! TO.C,H301*
X210000000Y-120000000D03*
G04 #@! TD*
D23*
G04 #@! TO.C,J104*
X87000000Y-87000000D03*
G04 #@! TD*
D14*
G04 #@! TO.C,R407*
X148500000Y-116000000D03*
X152300000Y-116000000D03*
G04 #@! TD*
D28*
G04 #@! TO.C,J102*
X153500000Y-132987500D03*
G04 #@! TD*
D14*
G04 #@! TO.C,RN202*
X104140000Y-132080000D03*
X104140000Y-129580000D03*
X104140000Y-127080000D03*
G04 #@! TD*
D15*
G04 #@! TO.C,C408*
X135300000Y-129900000D03*
X130300000Y-129900000D03*
G04 #@! TD*
D11*
G04 #@! TO.C,J211*
X93980000Y-101600000D03*
G04 #@! TD*
D17*
G04 #@! TO.C,H308*
X193000000Y-97000000D03*
G04 #@! TD*
D11*
G04 #@! TO.C,J203*
X96520000Y-109220000D03*
G04 #@! TD*
G04 #@! TO.C,J215*
X89408000Y-96520000D03*
G04 #@! TD*
D28*
G04 #@! TO.C,J103*
X157756000Y-132375500D03*
G04 #@! TD*
D29*
G04 #@! TO.C,TP401*
X141399999Y-136399999D03*
G04 #@! TD*
D30*
G04 #@! TO.C,U201*
X119499623Y-84333999D03*
X117434871Y-85189247D03*
X116579623Y-87253999D03*
X117434871Y-89318751D03*
X119499623Y-90173999D03*
X121564375Y-89318751D03*
X122419623Y-87253999D03*
X121564375Y-85189247D03*
G04 #@! TD*
D18*
G04 #@! TO.C,J302*
X180000000Y-73000000D03*
G04 #@! TD*
D29*
G04 #@! TO.C,TP201*
X83999999Y-134749999D03*
G04 #@! TD*
D14*
G04 #@! TO.C,R220*
X96200000Y-87249000D03*
X92400000Y-87249000D03*
G04 #@! TD*
D12*
G04 #@! TO.C,RN204*
X87332262Y-109834375D03*
D13*
X87332262Y-107294375D03*
X87332262Y-104754375D03*
X87332262Y-102214375D03*
X87332262Y-99674375D03*
X87332262Y-97134375D03*
X87332262Y-94594375D03*
X87332262Y-92054375D03*
X79712262Y-92054375D03*
X79712262Y-94594375D03*
X79712262Y-97134375D03*
X79712262Y-99674375D03*
X79712262Y-102214375D03*
X79712262Y-104754375D03*
X79712262Y-107294375D03*
X79712262Y-109834375D03*
G04 #@! TD*
D18*
G04 #@! TO.C,J310*
X200000000Y-127000000D03*
G04 #@! TD*
D14*
G04 #@! TO.C,R225*
X80000000Y-121900000D03*
X80000000Y-118100000D03*
G04 #@! TD*
D12*
G04 #@! TO.C,RN203*
X108874623Y-121048999D03*
D13*
X111414623Y-121048999D03*
X113954623Y-121048999D03*
X116494623Y-121048999D03*
X119034623Y-121048999D03*
X121574623Y-121048999D03*
X124114623Y-121048999D03*
X126654623Y-121048999D03*
X126654623Y-113428999D03*
X121574623Y-113428999D03*
X124114623Y-113428999D03*
X116494623Y-113428999D03*
X119034623Y-113428999D03*
X113954623Y-113428999D03*
X111414623Y-113428999D03*
X108874623Y-113428999D03*
G04 #@! TD*
D16*
G04 #@! TO.C,J304*
X183000000Y-127000000D03*
G04 #@! TD*
D14*
G04 #@! TO.C,R211*
X102900000Y-121918000D03*
X99100000Y-121918000D03*
G04 #@! TD*
D11*
G04 #@! TO.C,J201*
X96520000Y-96520000D03*
G04 #@! TD*
D14*
G04 #@! TO.C,R207*
X130900000Y-117700000D03*
X134700000Y-117700000D03*
G04 #@! TD*
D28*
G04 #@! TO.C,J107*
X153500000Y-136820500D03*
G04 #@! TD*
D16*
G04 #@! TO.C,J308*
X197000000Y-127000000D03*
G04 #@! TD*
D15*
G04 #@! TO.C,C413*
X144300000Y-134800000D03*
X149300000Y-134800000D03*
G04 #@! TD*
D31*
G04 #@! TO.C,SW301*
X75790000Y-61945000D03*
X75790000Y-54935000D03*
D32*
X73300000Y-60695000D03*
X73300000Y-56195000D03*
G04 #@! TD*
D15*
G04 #@! TO.C,C409*
X148600000Y-128050000D03*
X143600000Y-128050000D03*
G04 #@! TD*
D17*
G04 #@! TO.C,H305*
X170000000Y-80000000D03*
G04 #@! TD*
G04 #@! TO.C,H307*
X210000000Y-80000000D03*
G04 #@! TD*
D18*
G04 #@! TO.C,J309*
X200000000Y-73000000D03*
G04 #@! TD*
D28*
G04 #@! TO.C,J108*
X157756000Y-136820500D03*
G04 #@! TD*
D18*
G04 #@! TO.C,J303*
X183000000Y-73000000D03*
G04 #@! TD*
D11*
G04 #@! TO.C,J209*
X96520000Y-106680000D03*
G04 #@! TD*
D33*
G04 #@! TO.C,R226*
X80000000Y-130162500D03*
X80000000Y-128337500D03*
G04 #@! TD*
D34*
G04 #@! TO.C,JP308*
X183100000Y-58650000D03*
D35*
X183100000Y-59950000D03*
G04 #@! TD*
D34*
G04 #@! TO.C,JP208*
X109890624Y-126300500D03*
D35*
X109890624Y-127600500D03*
G04 #@! TD*
D36*
G04 #@! TO.C,R227*
X80000000Y-119087500D03*
X80000000Y-120912500D03*
G04 #@! TD*
D37*
G04 #@! TO.C,JP213*
X94000624Y-87249000D03*
D38*
X95300624Y-87249000D03*
G04 #@! TD*
D39*
G04 #@! TO.C,JP220*
X81915000Y-98900000D03*
D40*
X81915000Y-97600000D03*
G04 #@! TD*
D39*
G04 #@! TO.C,JP310*
X194500000Y-134650000D03*
D40*
X194500000Y-133350000D03*
G04 #@! TD*
D34*
G04 #@! TO.C,JP309*
X192000000Y-133350000D03*
D35*
X192000000Y-134650000D03*
G04 #@! TD*
D37*
G04 #@! TO.C,JP409*
X153350000Y-125100000D03*
D38*
X154650000Y-125100000D03*
G04 #@! TD*
D34*
G04 #@! TO.C,JP401*
X124114624Y-126427500D03*
D35*
X124114624Y-127727500D03*
G04 #@! TD*
D41*
G04 #@! TO.C,JP207*
X101650000Y-121918000D03*
D42*
X100350000Y-121918000D03*
G04 #@! TD*
D34*
G04 #@! TO.C,JP404*
X119288624Y-126109000D03*
D35*
X119288624Y-127409000D03*
G04 #@! TD*
D41*
G04 #@! TO.C,JP408*
X154650000Y-122500000D03*
D42*
X153350000Y-122500000D03*
G04 #@! TD*
D37*
G04 #@! TO.C,JP203*
X132150000Y-117700000D03*
D38*
X133450000Y-117700000D03*
G04 #@! TD*
D34*
G04 #@! TO.C,JP202*
X114462624Y-126046500D03*
D35*
X114462624Y-127346500D03*
G04 #@! TD*
D37*
G04 #@! TO.C,JP209*
X132050000Y-113400000D03*
D38*
X133350000Y-113400000D03*
G04 #@! TD*
M02*
