M48
; DRILL file {KiCad (6.0.0)} date Fri Mar  4 00:59:12 2022
; FORMAT={-:-/ absolute / inch / decimal}
; #@! TF.CreationDate,2022-03-04T00:59:12+01:00
; #@! TF.GenerationSoftware,Kicad,Pcbnew,(6.0.0)
; #@! TF.FileFunction,Plated,1,4,PTH
FMAT,2
INCH
; #@! TA.AperFunction,Plated,PTH,ViaDrill
T1C0.0118
; #@! TA.AperFunction,Plated,PTH,ViaDrill
T2C0.0157
; #@! TA.AperFunction,Plated,PTH,ViaDrill
T3C0.0197
; #@! TA.AperFunction,Plated,PTH,ComponentDrill
T4C0.0276
; #@! TA.AperFunction,Plated,PTH,ViaDrill
T5C0.0315
; #@! TA.AperFunction,Plated,PTH,ComponentDrill
T6C0.0315
; #@! TA.AperFunction,Plated,PTH,ComponentDrill
T7C0.0394
; #@! TA.AperFunction,Plated,PTH,ComponentDrill
T8C0.0472
; #@! TA.AperFunction,Plated,PTH,ComponentDrill
T9C0.0630
; #@! TA.AperFunction,Plated,PTH,ComponentDrill
T10C0.0689
%
G90
G05
T1
X6.5967Y-4.9981
X6.6685Y-5.1425
X6.7467Y-4.9981
T2
X2.7953Y-2.5
X6.2756Y-2.7872
X6.4227Y-2.3266
X6.4605Y-2.4014
X6.549Y-2.2517
X6.5529Y-2.4154
X6.673Y-2.2396
X6.751Y-2.3557
X6.8057Y-2.3622
X6.819Y-2.2477
T3
X2.815Y-2.0374
X3.2382Y-2.0374
X3.6614Y-2.0374
X4.0846Y-2.0374
X4.5079Y-2.0374
X4.9311Y-2.0374
X5.3543Y-2.0374
X5.7776Y-2.0374
X6.2008Y-2.0374
X6.624Y-2.0374
X7.0472Y-2.0374
X7.4705Y-2.0374
X7.8937Y-2.0374
X8.3169Y-2.0374
X8.7402Y-2.0374
T4
X4.5897Y-3.4352
X4.6234Y-3.3539
X4.6234Y-3.5165
X4.7047Y-3.3202
X4.7047Y-3.5502
X4.786Y-3.3539
X4.786Y-3.5165
X4.8197Y-3.4352
X5.7114Y-5.128
X5.7114Y-5.2264
T5
X2.8937Y-3.4449
X3.4449Y-5.2915
X3.6164Y-4.8257
X3.622Y-5.3346
X3.7114Y-4.8957
X3.7598Y-5.2559
X4.0551Y-2.7856
X4.2314Y-5.0107
X4.252Y-4.2029
X4.3076Y-4.5533
X4.9803Y-5.1122
X5.2342Y-2.9057
X5.3937Y-4.8425
X5.457Y-4.9606
X6.122Y-3.7894
X6.2992Y-4.4094
X6.4173Y-4.9606
X6.424Y-5.1845
X6.437Y-2.5787
X6.5157Y-2.7559
X6.8962Y-2.3425
X6.939Y-5.1969
X7.0079Y-2.1595
X7.0472Y-2.5197
X7.2047Y-2.4803
X7.3606Y-2.6378
X7.4843Y-2.2835
X7.6006Y-2.6378
X7.7953Y-2.5197
T6
X3.1383Y-3.6242
X3.1383Y-3.7242
X3.1383Y-3.8242
X3.1383Y-3.9242
X3.1383Y-4.0242
X3.1383Y-4.1242
X3.1383Y-4.2242
X3.1383Y-4.3242
X3.3014Y-4.6673
X3.3014Y-4.8641
X3.3014Y-4.9873
X3.3014Y-5.1841
X3.4383Y-3.6242
X3.4383Y-3.7242
X3.4383Y-3.8242
X3.4383Y-3.9242
X3.4383Y-4.0242
X3.4383Y-4.1242
X3.4383Y-4.2242
X3.4383Y-4.3242
X3.6069Y-3.588
X3.6069Y-3.688
X3.6069Y-3.788
X3.6069Y-3.888
X3.6069Y-3.988
X3.6069Y-4.088
X3.6069Y-4.188
X3.6069Y-4.288
X3.7352Y-3.435
X3.8848Y-3.435
X3.9069Y-3.588
X3.9069Y-3.688
X3.9069Y-3.788
X3.9069Y-3.888
X3.9069Y-3.988
X3.9069Y-4.088
X3.9069Y-4.188
X3.9069Y-4.288
X3.9668Y-4.5357
X3.9668Y-4.7507
X4.0354Y-3.9313
X4.0354Y-4.0809
X4.1164Y-4.5357
X4.1164Y-4.7507
X4.2864Y-4.4657
X4.2864Y-4.7657
X4.3264Y-4.9257
X4.3264Y-5.0753
X4.3864Y-4.4657
X4.3864Y-4.7657
X4.4864Y-4.4657
X4.4864Y-4.7657
X4.5064Y-4.9157
X4.5064Y-5.0653
X4.5864Y-4.4657
X4.5864Y-4.7657
X4.6864Y-4.4657
X4.6864Y-4.7657
X4.6964Y-4.9157
X4.6964Y-5.0653
X4.7864Y-4.4657
X4.7864Y-4.7657
X4.8864Y-4.4657
X4.8864Y-4.7657
X4.8864Y-4.9307
X4.8864Y-5.0803
X5.028Y-5.0394
X5.0864Y-4.4657
X5.0864Y-4.6657
X5.2248Y-5.0394
X5.236Y-4.4657
X5.236Y-4.6657
X5.338Y-5.1707
X5.5348Y-5.1707
X5.7114Y-3.7307
X5.7114Y-3.8307
X5.7114Y-3.9307
X5.7114Y-4.0307
X5.7114Y-4.1307
X5.7114Y-4.2307
X5.7114Y-4.3307
X5.7114Y-4.4307
X5.7886Y-4.5804
X5.9382Y-4.5804
X6.0114Y-3.7307
X6.0114Y-3.8307
X6.0114Y-3.9307
X6.0114Y-4.0307
X6.0114Y-4.1307
X6.0114Y-4.2307
X6.0114Y-4.3307
X6.0114Y-4.4307
T7
X3.52Y-2.927
X3.5907Y-2.8563
X3.6614Y-2.7856
T8
X8.2283Y-2.2948
X8.2283Y-2.59
T9
X8.6465Y-2.487
X8.6465Y-2.687
X8.6465Y-2.887
X8.6465Y-3.087
X8.6465Y-3.287
X8.6465Y-3.487
X8.6465Y-3.687
X8.6465Y-3.887
X8.6465Y-4.087
X8.6465Y-4.287
X8.6465Y-4.487
X8.6465Y-4.687
X8.6465Y-4.887
X8.6465Y-5.087
X8.6465Y-5.287
X8.6465Y-5.487
X8.8465Y-2.487
X8.8465Y-2.687
X8.8465Y-2.887
X8.8465Y-3.087
X8.8465Y-3.287
X8.8465Y-3.487
X8.8465Y-3.687
X8.8465Y-3.887
X8.8465Y-4.087
X8.8465Y-4.287
X8.8465Y-4.487
X8.8465Y-4.687
X8.8465Y-4.887
X8.8465Y-5.087
X8.8465Y-5.287
X8.8465Y-5.487
T10
X3.5236Y-3.4254
X5.6496Y-3.435
X5.9843Y-4.9213
X5.9843Y-5.1575
X7.0866Y-2.7559
X7.2835Y-5.1181
X7.4803Y-2.7992
X7.7165Y-5.1181
X7.874Y-2.7559
T0
M30
