G04 #@! TF.GenerationSoftware,KiCad,Pcbnew,(6.0.5)*
G04 #@! TF.CreationDate,2023-01-29T23:25:53+01:00*
G04 #@! TF.ProjectId,adrmu6layer,6164726d-7536-46c6-9179-65722e6b6963,1*
G04 #@! TF.SameCoordinates,Original*
G04 #@! TF.FileFunction,Soldermask,Top*
G04 #@! TF.FilePolarity,Negative*
%FSLAX46Y46*%
G04 Gerber Fmt 4.6, Leading zero omitted, Abs format (unit mm)*
G04 Created by KiCad (PCBNEW (6.0.5)) date 2023-01-29 23:25:53*
%MOMM*%
%LPD*%
G01*
G04 APERTURE LIST*
G04 Aperture macros list*
%AMRoundRect*
0 Rectangle with rounded corners*
0 $1 Rounding radius*
0 $2 $3 $4 $5 $6 $7 $8 $9 X,Y pos of 4 corners*
0 Add a 4 corners polygon primitive as box body*
4,1,4,$2,$3,$4,$5,$6,$7,$8,$9,$2,$3,0*
0 Add four circle primitives for the rounded corners*
1,1,$1+$1,$2,$3*
1,1,$1+$1,$4,$5*
1,1,$1+$1,$6,$7*
1,1,$1+$1,$8,$9*
0 Add four rect primitives between the rounded corners*
20,1,$1+$1,$2,$3,$4,$5,0*
20,1,$1+$1,$4,$5,$6,$7,0*
20,1,$1+$1,$6,$7,$8,$9,0*
20,1,$1+$1,$8,$9,$2,$3,0*%
%AMHorizOval*
0 Thick line with rounded ends*
0 $1 width*
0 $2 $3 position (X,Y) of the first rounded end (center of the circle)*
0 $4 $5 position (X,Y) of the second rounded end (center of the circle)*
0 Add line between two ends*
20,1,$1,$2,$3,$4,$5,0*
0 Add two circle primitives to create the rounded ends*
1,1,$1,$2,$3*
1,1,$1,$4,$5*%
%AMRotRect*
0 Rectangle, with rotation*
0 The origin of the aperture is its center*
0 $1 length*
0 $2 width*
0 $3 Rotation angle, in degrees counterclockwise*
0 Add horizontal line*
21,1,$1,$2,0,0,$3*%
%AMFreePoly0*
4,1,22,0.500000,-0.750000,0.000000,-0.750000,0.000000,-0.745033,-0.079941,-0.743568,-0.215256,-0.701293,-0.333266,-0.622738,-0.424486,-0.514219,-0.481581,-0.384460,-0.499164,-0.250000,-0.500000,-0.250000,-0.500000,0.250000,-0.499164,0.250000,-0.499963,0.256109,-0.478152,0.396186,-0.417904,0.524511,-0.324060,0.630769,-0.204165,0.706417,-0.067858,0.745374,0.000000,0.744959,0.000000,0.750000,
0.500000,0.750000,0.500000,-0.750000,0.500000,-0.750000,$1*%
%AMFreePoly1*
4,1,20,0.000000,0.744959,0.073905,0.744508,0.209726,0.703889,0.328688,0.626782,0.421226,0.519385,0.479903,0.390333,0.500000,0.250000,0.500000,-0.250000,0.499851,-0.262216,0.476331,-0.402017,0.414519,-0.529596,0.319384,-0.634700,0.198574,-0.708877,0.061801,-0.746166,0.000000,-0.745033,0.000000,-0.750000,-0.500000,-0.750000,-0.500000,0.750000,0.000000,0.750000,0.000000,0.744959,
0.000000,0.744959,$1*%
%AMFreePoly2*
4,1,22,0.550000,-0.750000,0.000000,-0.750000,0.000000,-0.745033,-0.079941,-0.743568,-0.215256,-0.701293,-0.333266,-0.622738,-0.424486,-0.514219,-0.481581,-0.384460,-0.499164,-0.250000,-0.500000,-0.250000,-0.500000,0.250000,-0.499164,0.250000,-0.499963,0.256109,-0.478152,0.396186,-0.417904,0.524511,-0.324060,0.630769,-0.204165,0.706417,-0.067858,0.745374,0.000000,0.744959,0.000000,0.750000,
0.550000,0.750000,0.550000,-0.750000,0.550000,-0.750000,$1*%
%AMFreePoly3*
4,1,20,0.000000,0.744959,0.073905,0.744508,0.209726,0.703889,0.328688,0.626782,0.421226,0.519385,0.479903,0.390333,0.500000,0.250000,0.500000,-0.250000,0.499851,-0.262216,0.476331,-0.402017,0.414519,-0.529596,0.319384,-0.634700,0.198574,-0.708877,0.061801,-0.746166,0.000000,-0.745033,0.000000,-0.750000,-0.550000,-0.750000,-0.550000,0.750000,0.000000,0.750000,0.000000,0.744959,
0.000000,0.744959,$1*%
%AMFreePoly4*
4,1,9,3.862500,-0.866500,0.737500,-0.866500,0.737500,-0.450000,-0.737500,-0.450000,-0.737500,0.450000,0.737500,0.450000,0.737500,0.866500,3.862500,0.866500,3.862500,-0.866500,3.862500,-0.866500,$1*%
G04 Aperture macros list end*
%ADD10C,0.150000*%
%ADD11C,7.100000*%
%ADD12RoundRect,0.250000X0.475000X-0.250000X0.475000X0.250000X-0.475000X0.250000X-0.475000X-0.250000X0*%
%ADD13RoundRect,0.250000X0.250000X0.475000X-0.250000X0.475000X-0.250000X-0.475000X0.250000X-0.475000X0*%
%ADD14RoundRect,0.225000X0.225000X0.250000X-0.225000X0.250000X-0.225000X-0.250000X0.225000X-0.250000X0*%
%ADD15RoundRect,0.250000X-0.650000X0.325000X-0.650000X-0.325000X0.650000X-0.325000X0.650000X0.325000X0*%
%ADD16RoundRect,0.250000X-0.325000X-0.650000X0.325000X-0.650000X0.325000X0.650000X-0.325000X0.650000X0*%
%ADD17FreePoly0,90.000000*%
%ADD18FreePoly1,90.000000*%
%ADD19C,1.500000*%
%ADD20RoundRect,0.250000X0.262500X0.450000X-0.262500X0.450000X-0.262500X-0.450000X0.262500X-0.450000X0*%
%ADD21RoundRect,0.250000X-0.750000X0.250000X-0.750000X-0.250000X0.750000X-0.250000X0.750000X0.250000X0*%
%ADD22RoundRect,0.250000X-0.262500X-0.450000X0.262500X-0.450000X0.262500X0.450000X-0.262500X0.450000X0*%
%ADD23RoundRect,0.250000X-0.550000X-0.550000X0.550000X-0.550000X0.550000X0.550000X-0.550000X0.550000X0*%
%ADD24R,1.600000X1.600000*%
%ADD25O,1.600000X1.600000*%
%ADD26R,0.850000X0.300000*%
%ADD27RoundRect,0.250000X0.450000X-0.262500X0.450000X0.262500X-0.450000X0.262500X-0.450000X-0.262500X0*%
%ADD28RoundRect,0.250000X-0.250000X-0.750000X0.250000X-0.750000X0.250000X0.750000X-0.250000X0.750000X0*%
%ADD29RoundRect,0.250000X-0.625000X0.375000X-0.625000X-0.375000X0.625000X-0.375000X0.625000X0.375000X0*%
%ADD30C,1.600000*%
%ADD31RoundRect,0.250002X1.699998X1.699998X-1.699998X1.699998X-1.699998X-1.699998X1.699998X-1.699998X0*%
%ADD32RoundRect,0.225000X-0.250000X0.225000X-0.250000X-0.225000X0.250000X-0.225000X0.250000X0.225000X0*%
%ADD33C,4.300000*%
%ADD34RoundRect,0.250002X-1.699998X-1.699998X1.699998X-1.699998X1.699998X1.699998X-1.699998X1.699998X0*%
%ADD35C,1.400000*%
%ADD36RoundRect,0.225000X0.250000X-0.225000X0.250000X0.225000X-0.250000X0.225000X-0.250000X-0.225000X0*%
%ADD37FreePoly0,270.000000*%
%ADD38FreePoly1,270.000000*%
%ADD39RoundRect,0.225000X-0.225000X-0.250000X0.225000X-0.250000X0.225000X0.250000X-0.225000X0.250000X0*%
%ADD40RoundRect,0.250000X-1.125000X-1.125000X1.125000X-1.125000X1.125000X1.125000X-1.125000X1.125000X0*%
%ADD41RotRect,0.900000X1.200000X315.000000*%
%ADD42C,2.850000*%
%ADD43RoundRect,0.250000X-1.050000X1.050000X-1.050000X-1.050000X1.050000X-1.050000X1.050000X1.050000X0*%
%ADD44C,2.600000*%
%ADD45FreePoly2,90.000000*%
%ADD46R,1.500000X1.000000*%
%ADD47FreePoly3,90.000000*%
%ADD48RoundRect,0.250000X-0.450000X0.262500X-0.450000X-0.262500X0.450000X-0.262500X0.450000X0.262500X0*%
%ADD49RoundRect,0.062500X-0.375000X-0.062500X0.375000X-0.062500X0.375000X0.062500X-0.375000X0.062500X0*%
%ADD50R,1.600000X2.340000*%
%ADD51RoundRect,0.093750X-0.093750X-0.106250X0.093750X-0.106250X0.093750X0.106250X-0.093750X0.106250X0*%
%ADD52R,1.000000X1.600000*%
%ADD53FreePoly0,0.000000*%
%ADD54FreePoly1,0.000000*%
%ADD55R,0.900000X1.300000*%
%ADD56FreePoly4,90.000000*%
%ADD57RoundRect,0.100000X-0.100000X0.625000X-0.100000X-0.625000X0.100000X-0.625000X0.100000X0.625000X0*%
%ADD58R,2.850000X1.650000*%
%ADD59R,0.625000X0.250000*%
%ADD60R,0.700000X0.450000*%
%ADD61R,0.575000X0.450000*%
%ADD62RoundRect,0.150000X-0.587500X-0.150000X0.587500X-0.150000X0.587500X0.150000X-0.587500X0.150000X0*%
%ADD63R,1.100000X1.100000*%
%ADD64RotRect,1.800000X1.800000X225.000000*%
%ADD65HorizOval,1.800000X0.000000X0.000000X0.000000X0.000000X0*%
%ADD66RoundRect,0.150000X-0.825000X-0.150000X0.825000X-0.150000X0.825000X0.150000X-0.825000X0.150000X0*%
%ADD67R,2.400000X2.400000*%
%ADD68C,2.400000*%
%ADD69R,0.900000X1.200000*%
%ADD70RoundRect,0.150000X0.587500X0.150000X-0.587500X0.150000X-0.587500X-0.150000X0.587500X-0.150000X0*%
%ADD71R,1.300000X0.900000*%
%ADD72FreePoly4,0.000000*%
%ADD73RoundRect,0.150000X-0.150000X0.587500X-0.150000X-0.587500X0.150000X-0.587500X0.150000X0.587500X0*%
%ADD74FreePoly0,180.000000*%
%ADD75FreePoly1,180.000000*%
%ADD76R,1.050000X0.450000*%
%ADD77R,1.470000X0.895000*%
%ADD78RoundRect,0.062500X0.375000X0.062500X-0.375000X0.062500X-0.375000X-0.062500X0.375000X-0.062500X0*%
%ADD79R,2.000000X2.000000*%
%ADD80O,1.200000X1.200000*%
%ADD81RoundRect,0.218750X0.218750X0.256250X-0.218750X0.256250X-0.218750X-0.256250X0.218750X-0.256250X0*%
%ADD82RoundRect,0.100000X-0.712500X-0.100000X0.712500X-0.100000X0.712500X0.100000X-0.712500X0.100000X0*%
%ADD83RoundRect,0.250000X0.325000X0.650000X-0.325000X0.650000X-0.325000X-0.650000X0.325000X-0.650000X0*%
%ADD84RoundRect,0.250000X0.650000X-0.325000X0.650000X0.325000X-0.650000X0.325000X-0.650000X-0.325000X0*%
%ADD85C,2.100000*%
%ADD86C,1.750000*%
%ADD87R,2.500000X1.800000*%
G04 APERTURE END LIST*
D10*
X70000000Y-50000000D02*
X230000000Y-50000000D01*
X230000000Y-50000000D02*
X230000000Y-53000000D01*
X230000000Y-53000000D02*
X70000000Y-53000000D01*
X70000000Y-53000000D02*
X70000000Y-50000000D01*
G36*
X70000000Y-50000000D02*
G01*
X230000000Y-50000000D01*
X230000000Y-53000000D01*
X70000000Y-53000000D01*
X70000000Y-50000000D01*
G37*
D11*
X123049624Y-87249000D02*
G75*
G03*
X123049624Y-87249000I-3550000J0D01*
G01*
D12*
G04 #@! TO.C,C421*
X172000000Y-137050000D03*
X172000000Y-135150000D03*
G04 #@! TD*
D13*
G04 #@! TO.C,C420*
X145400000Y-122300000D03*
X143500000Y-122300000D03*
G04 #@! TD*
D14*
G04 #@! TO.C,C419*
X152375000Y-130500000D03*
X150825000Y-130500000D03*
G04 #@! TD*
D15*
G04 #@! TO.C,C418*
X134900000Y-122925000D03*
X134900000Y-125875000D03*
G04 #@! TD*
D14*
G04 #@! TO.C,C416*
X133575000Y-129900000D03*
X132025000Y-129900000D03*
G04 #@! TD*
D16*
G04 #@! TO.C,C415*
X124325000Y-133800000D03*
X127275000Y-133800000D03*
G04 #@! TD*
D17*
G04 #@! TO.C,JP411*
X151300000Y-128950000D03*
D18*
X151300000Y-127650000D03*
G04 #@! TD*
D17*
G04 #@! TO.C,JP410*
X153900000Y-128900000D03*
D18*
X153900000Y-127600000D03*
G04 #@! TD*
D19*
G04 #@! TO.C,RN402*
X140750000Y-111750000D03*
X140750000Y-109250000D03*
X140750000Y-106750000D03*
G04 #@! TD*
G04 #@! TO.C,RN202*
X104140000Y-132080000D03*
X104140000Y-129580000D03*
X104140000Y-127080000D03*
G04 #@! TD*
D20*
G04 #@! TO.C,R306*
X167763900Y-58209600D03*
X165938900Y-58209600D03*
G04 #@! TD*
D21*
G04 #@! TO.C,J401*
X161200000Y-137200000D03*
G04 #@! TD*
D22*
G04 #@! TO.C,R303*
X73509500Y-64262000D03*
X75334500Y-64262000D03*
G04 #@! TD*
D23*
G04 #@! TO.C,J217*
X93980000Y-106680000D03*
G04 #@! TD*
D24*
G04 #@! TO.C,RN401*
X145000000Y-94500000D03*
D25*
X145000000Y-97040000D03*
X145000000Y-99580000D03*
X145000000Y-102120000D03*
X145000000Y-104660000D03*
X145000000Y-107200000D03*
X145000000Y-109740000D03*
X145000000Y-112280000D03*
X152620000Y-112280000D03*
X152620000Y-109740000D03*
X152620000Y-107200000D03*
X152620000Y-104660000D03*
X152620000Y-102120000D03*
X152620000Y-99580000D03*
X152620000Y-97040000D03*
X152620000Y-94500000D03*
G04 #@! TD*
D26*
G04 #@! TO.C,U402*
X155508000Y-125713520D03*
X155508000Y-125213520D03*
X155508000Y-124713520D03*
X155508000Y-124213520D03*
X155508000Y-123713520D03*
X153608000Y-123713520D03*
X153608000Y-124213520D03*
X153608000Y-124713520D03*
X153608000Y-125213520D03*
X153608000Y-125713520D03*
G04 #@! TD*
D27*
G04 #@! TO.C,R203*
X87000000Y-133666876D03*
X87000000Y-131841876D03*
G04 #@! TD*
G04 #@! TO.C,R401*
X120900000Y-135025000D03*
X120900000Y-133200000D03*
G04 #@! TD*
D19*
G04 #@! TO.C,R202*
X92950000Y-113000000D03*
X96750000Y-113000000D03*
G04 #@! TD*
D15*
G04 #@! TO.C,C316*
X205308000Y-130525000D03*
X205308000Y-133475000D03*
G04 #@! TD*
D28*
G04 #@! TO.C,J306*
X175718500Y-130149600D03*
G04 #@! TD*
D29*
G04 #@! TO.C,D306*
X71375000Y-84600000D03*
X71375000Y-87400000D03*
G04 #@! TD*
D22*
G04 #@! TO.C,R312*
X167593000Y-130565000D03*
X169418000Y-130565000D03*
G04 #@! TD*
D30*
G04 #@! TO.C,C401*
X128300000Y-133800000D03*
X123300000Y-133800000D03*
G04 #@! TD*
D31*
G04 #@! TO.C,J305*
X190000000Y-128900000D03*
G04 #@! TD*
D32*
G04 #@! TO.C,C403*
X144200000Y-137125000D03*
X144200000Y-138675000D03*
G04 #@! TD*
D22*
G04 #@! TO.C,R318*
X82887500Y-61050000D03*
X84712500Y-61050000D03*
G04 #@! TD*
D33*
G04 #@! TO.C,H303*
X170000000Y-120000000D03*
G04 #@! TD*
D34*
G04 #@! TO.C,J301*
X200000000Y-73100000D03*
G04 #@! TD*
D23*
G04 #@! TO.C,J210*
X96520000Y-93980000D03*
G04 #@! TD*
D35*
G04 #@! TO.C,C414*
X170200000Y-137500000D03*
X170200000Y-135000000D03*
G04 #@! TD*
D36*
G04 #@! TO.C,C203*
X94000000Y-133775000D03*
X94000000Y-132225000D03*
G04 #@! TD*
D22*
G04 #@! TO.C,R215*
X131787500Y-113400000D03*
X133612500Y-113400000D03*
G04 #@! TD*
D20*
G04 #@! TO.C,R406*
X151712500Y-122000000D03*
X149887500Y-122000000D03*
G04 #@! TD*
D37*
G04 #@! TO.C,JP407*
X141600000Y-116150000D03*
D38*
X141600000Y-117450000D03*
G04 #@! TD*
D39*
G04 #@! TO.C,C311*
X169632400Y-58209600D03*
X171182400Y-58209600D03*
G04 #@! TD*
D33*
G04 #@! TO.C,H306*
X187000000Y-97000000D03*
G04 #@! TD*
D40*
G04 #@! TO.C,J106*
X164700000Y-135200000D03*
G04 #@! TD*
D41*
G04 #@! TO.C,D201*
X103833274Y-71587650D03*
X106166726Y-73921102D03*
G04 #@! TD*
D20*
G04 #@! TO.C,R305*
X175129900Y-58209600D03*
X173304900Y-58209600D03*
G04 #@! TD*
D27*
G04 #@! TO.C,R222*
X80000000Y-130162500D03*
X80000000Y-128337500D03*
G04 #@! TD*
D17*
G04 #@! TO.C,JP204*
X119034624Y-117899000D03*
D18*
X119034624Y-116599000D03*
G04 #@! TD*
D42*
G04 #@! TO.C,J101*
X227240000Y-144450000D03*
X227240000Y-55550000D03*
D43*
X224700000Y-63170000D03*
D44*
X224700000Y-68250000D03*
X224700000Y-73330000D03*
X224700000Y-78410000D03*
X224700000Y-83490000D03*
X224700000Y-88570000D03*
X224700000Y-93650000D03*
X224700000Y-98730000D03*
X224700000Y-103810000D03*
X224700000Y-108890000D03*
X224700000Y-113970000D03*
X224700000Y-119050000D03*
X224700000Y-124130000D03*
X224700000Y-129210000D03*
X224700000Y-134290000D03*
X224700000Y-139370000D03*
X219620000Y-63170000D03*
X219620000Y-68250000D03*
X219620000Y-73330000D03*
X219620000Y-78410000D03*
X219620000Y-83490000D03*
X219620000Y-88570000D03*
X219620000Y-93650000D03*
X219620000Y-98730000D03*
X219620000Y-103810000D03*
X219620000Y-108890000D03*
X219620000Y-113970000D03*
X219620000Y-119050000D03*
X219620000Y-124130000D03*
X219620000Y-129210000D03*
X219620000Y-134290000D03*
X219620000Y-139370000D03*
G04 #@! TD*
D45*
G04 #@! TO.C,JP307*
X163502900Y-64052360D03*
D46*
X163502900Y-62752360D03*
D47*
X163502900Y-61452360D03*
G04 #@! TD*
D19*
G04 #@! TO.C,R213*
X130800000Y-113400000D03*
X134600000Y-113400000D03*
G04 #@! TD*
D48*
G04 #@! TO.C,R304*
X195700000Y-61887500D03*
X195700000Y-63712500D03*
G04 #@! TD*
D49*
G04 #@! TO.C,U401*
X130462500Y-132550000D03*
X130462500Y-133050000D03*
X130462500Y-133550000D03*
X130462500Y-134050000D03*
X133337500Y-134050000D03*
X133337500Y-133550000D03*
X133337500Y-133050000D03*
X133337500Y-132550000D03*
D50*
X131900000Y-133300000D03*
G04 #@! TD*
D23*
G04 #@! TO.C,J208*
X96520000Y-104140000D03*
G04 #@! TD*
D51*
G04 #@! TO.C,U303*
X160396500Y-70274000D03*
X160396500Y-70924000D03*
X160396500Y-71574000D03*
X162171500Y-71574000D03*
X162171500Y-70924000D03*
X162171500Y-70274000D03*
D52*
X161284000Y-70924000D03*
G04 #@! TD*
D53*
G04 #@! TO.C,JP223*
X99550000Y-87254000D03*
D54*
X100850000Y-87254000D03*
G04 #@! TD*
D19*
G04 #@! TO.C,R402*
X124114624Y-125240000D03*
X124114624Y-129040000D03*
G04 #@! TD*
D17*
G04 #@! TO.C,JP302*
X172439400Y-56065600D03*
D18*
X172439400Y-54765600D03*
G04 #@! TD*
D33*
G04 #@! TO.C,H304*
X187000000Y-103000000D03*
G04 #@! TD*
D48*
G04 #@! TO.C,R403*
X124114624Y-126165000D03*
X124114624Y-127990000D03*
G04 #@! TD*
G04 #@! TO.C,R301*
X197700000Y-61887500D03*
X197700000Y-63712500D03*
G04 #@! TD*
G04 #@! TO.C,R212*
X109890624Y-126038000D03*
X109890624Y-127863000D03*
G04 #@! TD*
G04 #@! TO.C,R218*
X87500000Y-116337500D03*
X87500000Y-118162500D03*
G04 #@! TD*
D17*
G04 #@! TO.C,JP405*
X142240000Y-97170000D03*
D18*
X142240000Y-95870000D03*
G04 #@! TD*
D16*
G04 #@! TO.C,C305*
X175069000Y-60960000D03*
X178019000Y-60960000D03*
G04 #@! TD*
D48*
G04 #@! TO.C,R404*
X119288624Y-125846500D03*
X119288624Y-127671500D03*
G04 #@! TD*
D19*
G04 #@! TO.C,R217*
X104150000Y-117300000D03*
X100350000Y-117300000D03*
G04 #@! TD*
D15*
G04 #@! TO.C,C312*
X174956500Y-132383000D03*
X174956500Y-135333000D03*
G04 #@! TD*
D20*
G04 #@! TO.C,R221*
X96562500Y-125050000D03*
X94737500Y-125050000D03*
G04 #@! TD*
D34*
G04 #@! TO.C,J105*
X143499624Y-87249000D03*
G04 #@! TD*
D55*
G04 #@! TO.C,U301*
X178559400Y-58081600D03*
D56*
X180059400Y-57994100D03*
D55*
X181559400Y-58081600D03*
G04 #@! TD*
D57*
G04 #@! TO.C,U305*
X174194500Y-126256000D03*
X173544500Y-126256000D03*
X172894500Y-126256000D03*
X172244500Y-126256000D03*
X171594500Y-126256000D03*
X170944500Y-126256000D03*
X170944500Y-130556000D03*
X171594500Y-130556000D03*
X172244500Y-130556000D03*
X172894500Y-130556000D03*
X173544500Y-130556000D03*
X174194500Y-130556000D03*
D58*
X172569500Y-128406000D03*
G04 #@! TD*
D23*
G04 #@! TO.C,J212*
X93980000Y-104140000D03*
G04 #@! TD*
D49*
G04 #@! TO.C,U403*
X144062500Y-130650000D03*
X144062500Y-131150000D03*
X144062500Y-131650000D03*
X144062500Y-132150000D03*
X146937500Y-132150000D03*
X146937500Y-131650000D03*
X146937500Y-131150000D03*
X146937500Y-130650000D03*
D50*
X145500000Y-131400000D03*
G04 #@! TD*
D27*
G04 #@! TO.C,R409*
X147960000Y-125622500D03*
X147960000Y-123797500D03*
G04 #@! TD*
D59*
G04 #@! TO.C,U405*
X217087500Y-138300000D03*
X217087500Y-137800000D03*
D60*
X217050000Y-137300000D03*
D59*
X217087500Y-136800000D03*
X217087500Y-136300000D03*
X216312500Y-136300000D03*
X216312500Y-136800000D03*
D61*
X216287500Y-137300000D03*
D59*
X216312500Y-137800000D03*
X216312500Y-138300000D03*
G04 #@! TD*
D62*
G04 #@! TO.C,Q401*
X149952500Y-123770000D03*
X149952500Y-125670000D03*
X151827500Y-124720000D03*
G04 #@! TD*
D23*
G04 #@! TO.C,J207*
X96520000Y-101600000D03*
G04 #@! TD*
D19*
G04 #@! TO.C,R208*
X114462624Y-124859000D03*
X114462624Y-128659000D03*
G04 #@! TD*
G04 #@! TO.C,R214*
X109890624Y-125113000D03*
X109890624Y-128913000D03*
G04 #@! TD*
D22*
G04 #@! TO.C,R209*
X131872000Y-117700000D03*
X133697000Y-117700000D03*
G04 #@! TD*
D36*
G04 #@! TO.C,C308*
X164000000Y-71775000D03*
X164000000Y-70225000D03*
G04 #@! TD*
D23*
G04 #@! TO.C,J204*
X93980000Y-93980000D03*
G04 #@! TD*
G04 #@! TO.C,J206*
X96520000Y-99060000D03*
G04 #@! TD*
D17*
G04 #@! TO.C,JP206*
X111414624Y-117899000D03*
D18*
X111414624Y-116599000D03*
G04 #@! TD*
D22*
G04 #@! TO.C,R314*
X82907500Y-56769000D03*
X84732500Y-56769000D03*
G04 #@! TD*
D63*
G04 #@! TO.C,D307*
X163100000Y-129594000D03*
X163100000Y-132394000D03*
G04 #@! TD*
D30*
G04 #@! TO.C,C404*
X134900000Y-121900000D03*
X134900000Y-126900000D03*
G04 #@! TD*
D64*
G04 #@! TO.C,Q201*
X93000000Y-70754376D03*
D65*
X91203949Y-72550427D03*
X89407898Y-74346478D03*
G04 #@! TD*
D14*
G04 #@! TO.C,C302*
X181775000Y-61016000D03*
X180225000Y-61016000D03*
G04 #@! TD*
D66*
G04 #@! TO.C,U202*
X86939624Y-126271500D03*
X86939624Y-127541500D03*
X86939624Y-128811500D03*
X86939624Y-130081500D03*
X91889624Y-130081500D03*
X91889624Y-128811500D03*
X91889624Y-127541500D03*
X91889624Y-126271500D03*
G04 #@! TD*
D23*
G04 #@! TO.C,J205*
X93980000Y-96520000D03*
G04 #@! TD*
D20*
G04 #@! TO.C,R310*
X169418000Y-126120000D03*
X167593000Y-126120000D03*
G04 #@! TD*
D33*
G04 #@! TO.C,H302*
X193000000Y-103000000D03*
G04 #@! TD*
D24*
G04 #@! TO.C,RN201*
X91440000Y-91440000D03*
D25*
X91440000Y-93980000D03*
X91440000Y-96520000D03*
X91440000Y-99060000D03*
X91440000Y-101600000D03*
X91440000Y-104140000D03*
X91440000Y-106680000D03*
X91440000Y-109220000D03*
X99060000Y-109220000D03*
X99060000Y-106680000D03*
X99060000Y-104140000D03*
X99060000Y-101600000D03*
X99060000Y-99060000D03*
X99060000Y-96520000D03*
X99060000Y-93980000D03*
X99060000Y-91440000D03*
G04 #@! TD*
D23*
G04 #@! TO.C,J216*
X101600000Y-99060000D03*
G04 #@! TD*
D45*
G04 #@! TO.C,JP306*
X160962900Y-64052360D03*
D46*
X160962900Y-62752360D03*
D47*
X160962900Y-61452360D03*
G04 #@! TD*
D17*
G04 #@! TO.C,JP301*
X166343400Y-56065600D03*
D18*
X166343400Y-54765600D03*
G04 #@! TD*
D23*
G04 #@! TO.C,J214*
X93980000Y-91440000D03*
G04 #@! TD*
D67*
G04 #@! TO.C,C303*
X207000000Y-58287246D03*
D68*
X207000000Y-65787246D03*
G04 #@! TD*
D69*
G04 #@! TO.C,D202*
X83526000Y-87267000D03*
X80226000Y-87267000D03*
G04 #@! TD*
D20*
G04 #@! TO.C,R205*
X96912500Y-128000000D03*
X95087500Y-128000000D03*
G04 #@! TD*
D63*
G04 #@! TO.C,D102*
X218310000Y-54610000D03*
X221110000Y-54610000D03*
G04 #@! TD*
D19*
G04 #@! TO.C,R405*
X119288624Y-124859000D03*
X119288624Y-128659000D03*
G04 #@! TD*
D17*
G04 #@! TO.C,JP211*
X113954624Y-117899000D03*
D18*
X113954624Y-116599000D03*
G04 #@! TD*
D35*
G04 #@! TO.C,C412*
X145650000Y-123500000D03*
X143150000Y-123500000D03*
G04 #@! TD*
D23*
G04 #@! TO.C,J202*
X93980000Y-99060000D03*
G04 #@! TD*
D70*
G04 #@! TO.C,Q302*
X80644651Y-56830000D03*
X80644651Y-54930000D03*
X78769651Y-55880000D03*
G04 #@! TD*
D19*
G04 #@! TO.C,R223*
X80000000Y-127350000D03*
X80000000Y-131150000D03*
G04 #@! TD*
D39*
G04 #@! TO.C,C315*
X161475000Y-122450000D03*
X163025000Y-122450000D03*
G04 #@! TD*
D14*
G04 #@! TO.C,C318*
X80775000Y-58600000D03*
X79225000Y-58600000D03*
G04 #@! TD*
D33*
G04 #@! TO.C,H301*
X210000000Y-120000000D03*
G04 #@! TD*
D71*
G04 #@! TO.C,U306*
X159850000Y-124500000D03*
D72*
X159937500Y-126000000D03*
D71*
X159850000Y-127500000D03*
G04 #@! TD*
D34*
G04 #@! TO.C,J104*
X87000000Y-87000000D03*
G04 #@! TD*
D19*
G04 #@! TO.C,R407*
X148500000Y-116000000D03*
X152300000Y-116000000D03*
G04 #@! TD*
D73*
G04 #@! TO.C,Q303*
X80950000Y-60612500D03*
X79050000Y-60612500D03*
X80000000Y-62487500D03*
G04 #@! TD*
D37*
G04 #@! TO.C,JP402*
X124114624Y-116599000D03*
D38*
X124114624Y-117899000D03*
G04 #@! TD*
D39*
G04 #@! TO.C,C410*
X153795000Y-122160000D03*
X155345000Y-122160000D03*
G04 #@! TD*
D40*
G04 #@! TO.C,J102*
X153500000Y-132987500D03*
G04 #@! TD*
D63*
G04 #@! TO.C,D302*
X186182000Y-129797000D03*
X186182000Y-126997000D03*
G04 #@! TD*
D30*
G04 #@! TO.C,C408*
X135300000Y-129900000D03*
X130300000Y-129900000D03*
G04 #@! TD*
D39*
G04 #@! TO.C,C310*
X171286500Y-132597000D03*
X172836500Y-132597000D03*
G04 #@! TD*
D12*
G04 #@! TO.C,C407*
X118950000Y-135062500D03*
X118950000Y-133162500D03*
G04 #@! TD*
D74*
G04 #@! TO.C,JPH201*
X102250000Y-70485000D03*
D75*
X100950000Y-70485000D03*
G04 #@! TD*
D32*
G04 #@! TO.C,C406*
X142200000Y-132200000D03*
X142200000Y-133750000D03*
G04 #@! TD*
G04 #@! TO.C,C309*
X175836300Y-126275800D03*
X175836300Y-127825800D03*
G04 #@! TD*
D23*
G04 #@! TO.C,J211*
X93980000Y-101600000D03*
G04 #@! TD*
D48*
G04 #@! TO.C,R224*
X80000000Y-119087500D03*
X80000000Y-120912500D03*
G04 #@! TD*
D36*
G04 #@! TO.C,C314*
X165750000Y-126775000D03*
X165750000Y-125225000D03*
G04 #@! TD*
D20*
G04 #@! TO.C,R311*
X169418000Y-132597000D03*
X167593000Y-132597000D03*
G04 #@! TD*
G04 #@! TO.C,R315*
X84732500Y-54864000D03*
X82907500Y-54864000D03*
G04 #@! TD*
G04 #@! TO.C,R307*
X164004700Y-58158800D03*
X162179700Y-58158800D03*
G04 #@! TD*
D48*
G04 #@! TO.C,R413*
X160900000Y-133625000D03*
X160900000Y-135450000D03*
G04 #@! TD*
D27*
G04 #@! TO.C,R309*
X157900000Y-123012500D03*
X157900000Y-121187500D03*
G04 #@! TD*
D33*
G04 #@! TO.C,H308*
X193000000Y-97000000D03*
G04 #@! TD*
D20*
G04 #@! TO.C,R216*
X103162500Y-117300000D03*
X101337500Y-117300000D03*
G04 #@! TD*
D23*
G04 #@! TO.C,J203*
X96520000Y-109220000D03*
G04 #@! TD*
D17*
G04 #@! TO.C,JP303*
X175487400Y-56065600D03*
D18*
X175487400Y-54765600D03*
G04 #@! TD*
D76*
G04 #@! TO.C,U302*
X192775000Y-63275000D03*
X192775000Y-62625000D03*
X192775000Y-61975000D03*
X192775000Y-61325000D03*
X192775000Y-60675000D03*
X192775000Y-60025000D03*
X192775000Y-59375000D03*
X192775000Y-58725000D03*
X187225000Y-58725000D03*
X187225000Y-59375000D03*
X187225000Y-60025000D03*
X187225000Y-60675000D03*
X187225000Y-61325000D03*
X187225000Y-61975000D03*
X187225000Y-62625000D03*
X187225000Y-63275000D03*
D77*
X189265000Y-59657500D03*
X189265000Y-62342500D03*
X190735000Y-59657500D03*
X190735000Y-62342500D03*
X189265000Y-61447500D03*
X190735000Y-60552500D03*
X189265000Y-60552500D03*
X190735000Y-61447500D03*
G04 #@! TD*
D23*
G04 #@! TO.C,J215*
X89408000Y-96520000D03*
G04 #@! TD*
D78*
G04 #@! TO.C,U404*
X148737500Y-138950000D03*
X148737500Y-138450000D03*
X148737500Y-137950000D03*
X148737500Y-137450000D03*
X145862500Y-137450000D03*
X145862500Y-137950000D03*
X145862500Y-138450000D03*
X145862500Y-138950000D03*
D50*
X147300000Y-138200000D03*
G04 #@! TD*
D32*
G04 #@! TO.C,C317*
X198062500Y-131725000D03*
X198062500Y-133275000D03*
G04 #@! TD*
D27*
G04 #@! TO.C,R204*
X89750000Y-133662500D03*
X89750000Y-131837500D03*
G04 #@! TD*
D20*
G04 #@! TO.C,R316*
X79312500Y-64450000D03*
X77487500Y-64450000D03*
G04 #@! TD*
G04 #@! TO.C,R410*
X137312500Y-134900000D03*
X135487500Y-134900000D03*
G04 #@! TD*
D36*
G04 #@! TO.C,C405*
X148700000Y-132000000D03*
X148700000Y-130450000D03*
G04 #@! TD*
D40*
G04 #@! TO.C,J103*
X157756000Y-132375500D03*
G04 #@! TD*
D73*
G04 #@! TO.C,Q301*
X157950000Y-115062500D03*
X156050000Y-115062500D03*
X157000000Y-116937500D03*
G04 #@! TD*
D79*
G04 #@! TO.C,TP401*
X141400000Y-136400000D03*
G04 #@! TD*
D48*
G04 #@! TO.C,R414*
X160900000Y-130175000D03*
X160900000Y-132000000D03*
G04 #@! TD*
D27*
G04 #@! TO.C,R308*
X155000000Y-112912500D03*
X155000000Y-111087500D03*
G04 #@! TD*
D80*
G04 #@! TO.C,U201*
X119499624Y-84334000D03*
X117434872Y-85189248D03*
X116579624Y-87254000D03*
X117434872Y-89318752D03*
X119499624Y-90174000D03*
X121564376Y-89318752D03*
X122419624Y-87254000D03*
X121564376Y-85189248D03*
G04 #@! TD*
D17*
G04 #@! TO.C,JP222*
X86000000Y-114404376D03*
D18*
X86000000Y-113104376D03*
G04 #@! TD*
D34*
G04 #@! TO.C,J302*
X190000000Y-71100000D03*
G04 #@! TD*
D32*
G04 #@! TO.C,C205*
X83500000Y-125725000D03*
X83500000Y-127275000D03*
G04 #@! TD*
D71*
G04 #@! TO.C,U307*
X199912500Y-130453000D03*
D72*
X200000000Y-131953000D03*
D71*
X199912500Y-133453000D03*
G04 #@! TD*
D81*
G04 #@! TO.C,F301*
X181838700Y-130403600D03*
X180263700Y-130403600D03*
G04 #@! TD*
D45*
G04 #@! TO.C,JP305*
X166042900Y-64052360D03*
D46*
X166042900Y-62752360D03*
D47*
X166042900Y-61452360D03*
G04 #@! TD*
D14*
G04 #@! TO.C,C402*
X136375000Y-132200000D03*
X134825000Y-132200000D03*
G04 #@! TD*
D79*
G04 #@! TO.C,TP201*
X84000000Y-134750000D03*
G04 #@! TD*
D82*
G04 #@! TO.C,U304*
X168426200Y-61218560D03*
X168426200Y-61868560D03*
X168426200Y-62518560D03*
X168426200Y-63168560D03*
X172651200Y-63168560D03*
X172651200Y-62518560D03*
X172651200Y-61868560D03*
X172651200Y-61218560D03*
G04 #@! TD*
D29*
G04 #@! TO.C,D301*
X71375000Y-64600000D03*
X71375000Y-67400000D03*
G04 #@! TD*
D19*
G04 #@! TO.C,R220*
X96200000Y-87249000D03*
X92400000Y-87249000D03*
G04 #@! TD*
D17*
G04 #@! TO.C,JP210*
X108874624Y-117899000D03*
D18*
X108874624Y-116599000D03*
G04 #@! TD*
D24*
G04 #@! TO.C,RN204*
X87332263Y-109834376D03*
D25*
X87332263Y-107294376D03*
X87332263Y-104754376D03*
X87332263Y-102214376D03*
X87332263Y-99674376D03*
X87332263Y-97134376D03*
X87332263Y-94594376D03*
X87332263Y-92054376D03*
X79712263Y-92054376D03*
X79712263Y-94594376D03*
X79712263Y-97134376D03*
X79712263Y-99674376D03*
X79712263Y-102214376D03*
X79712263Y-104754376D03*
X79712263Y-107294376D03*
X79712263Y-109834376D03*
G04 #@! TD*
D48*
G04 #@! TO.C,R206*
X114462624Y-125784000D03*
X114462624Y-127609000D03*
G04 #@! TD*
D20*
G04 #@! TO.C,R219*
X95563124Y-87249000D03*
X93738124Y-87249000D03*
G04 #@! TD*
G04 #@! TO.C,R234*
X130452500Y-109855000D03*
X128627500Y-109855000D03*
G04 #@! TD*
D37*
G04 #@! TO.C,JP406*
X144300000Y-116150000D03*
D38*
X144300000Y-117450000D03*
G04 #@! TD*
D19*
G04 #@! TO.C,R225*
X80000000Y-121900000D03*
X80000000Y-118100000D03*
G04 #@! TD*
D53*
G04 #@! TO.C,JPB201*
X132700000Y-109855000D03*
D54*
X134000000Y-109855000D03*
G04 #@! TD*
D36*
G04 #@! TO.C,C411*
X155900000Y-128832500D03*
X155900000Y-127282500D03*
G04 #@! TD*
D63*
G04 #@! TO.C,D103*
X218310000Y-57150000D03*
X221110000Y-57150000D03*
G04 #@! TD*
D20*
G04 #@! TO.C,R210*
X101912500Y-121918000D03*
X100087500Y-121918000D03*
G04 #@! TD*
D24*
G04 #@! TO.C,RN203*
X108874624Y-121049000D03*
D25*
X111414624Y-121049000D03*
X113954624Y-121049000D03*
X116494624Y-121049000D03*
X119034624Y-121049000D03*
X121574624Y-121049000D03*
X124114624Y-121049000D03*
X126654624Y-121049000D03*
X126654624Y-113429000D03*
X121574624Y-113429000D03*
X124114624Y-113429000D03*
X119034624Y-113429000D03*
X116494624Y-113429000D03*
X113954624Y-113429000D03*
X111414624Y-113429000D03*
X108874624Y-113429000D03*
G04 #@! TD*
D63*
G04 #@! TO.C,D305*
X196215000Y-126997000D03*
X196215000Y-129797000D03*
G04 #@! TD*
D28*
G04 #@! TO.C,J307*
X128300000Y-126762000D03*
G04 #@! TD*
D31*
G04 #@! TO.C,J304*
X180000000Y-126900000D03*
G04 #@! TD*
D19*
G04 #@! TO.C,R211*
X102900000Y-121918000D03*
X99100000Y-121918000D03*
G04 #@! TD*
D83*
G04 #@! TO.C,C306*
X191475000Y-67000000D03*
X188525000Y-67000000D03*
G04 #@! TD*
D23*
G04 #@! TO.C,J201*
X96520000Y-96520000D03*
G04 #@! TD*
D39*
G04 #@! TO.C,C202*
X91335624Y-124351000D03*
X92885624Y-124351000D03*
G04 #@! TD*
D19*
G04 #@! TO.C,R207*
X130900000Y-117700000D03*
X134700000Y-117700000D03*
G04 #@! TD*
D84*
G04 #@! TO.C,C313*
X165500000Y-131929000D03*
X165500000Y-128979000D03*
G04 #@! TD*
D17*
G04 #@! TO.C,JP304*
X169391400Y-56065600D03*
D18*
X169391400Y-54765600D03*
G04 #@! TD*
D22*
G04 #@! TO.C,R201*
X93937500Y-113000000D03*
X95762500Y-113000000D03*
G04 #@! TD*
D36*
G04 #@! TO.C,C301*
X185000000Y-60719000D03*
X185000000Y-59169000D03*
G04 #@! TD*
D40*
G04 #@! TO.C,J107*
X153500000Y-136820500D03*
G04 #@! TD*
D63*
G04 #@! TO.C,D304*
X193802000Y-129797000D03*
X193802000Y-126997000D03*
G04 #@! TD*
D31*
G04 #@! TO.C,J308*
X200000000Y-126900000D03*
G04 #@! TD*
D27*
G04 #@! TO.C,R302*
X194832000Y-58824500D03*
X194832000Y-56999500D03*
G04 #@! TD*
D30*
G04 #@! TO.C,C413*
X144300000Y-134800000D03*
X149300000Y-134800000D03*
G04 #@! TD*
D85*
G04 #@! TO.C,SW301*
X75790000Y-61945000D03*
X75790000Y-54935000D03*
D86*
X73300000Y-60695000D03*
X73300000Y-56195000D03*
G04 #@! TD*
D36*
G04 #@! TO.C,C201*
X92000000Y-133775000D03*
X92000000Y-132225000D03*
G04 #@! TD*
D12*
G04 #@! TO.C,C304*
X196864000Y-58862000D03*
X196864000Y-56962000D03*
G04 #@! TD*
D22*
G04 #@! TO.C,R408*
X149487500Y-116000000D03*
X151312500Y-116000000D03*
G04 #@! TD*
D20*
G04 #@! TO.C,R317*
X84732500Y-59029600D03*
X82907500Y-59029600D03*
G04 #@! TD*
D30*
G04 #@! TO.C,C409*
X148600000Y-128050000D03*
X143600000Y-128050000D03*
G04 #@! TD*
D87*
G04 #@! TO.C,D308*
X180524400Y-133146800D03*
X184524400Y-133146800D03*
G04 #@! TD*
D33*
G04 #@! TO.C,H305*
X170000000Y-80000000D03*
G04 #@! TD*
G04 #@! TO.C,H307*
X210000000Y-80000000D03*
G04 #@! TD*
D63*
G04 #@! TO.C,D303*
X183769000Y-127378000D03*
X183769000Y-130178000D03*
G04 #@! TD*
D17*
G04 #@! TO.C,JP403*
X121574624Y-117899000D03*
D18*
X121574624Y-116599000D03*
G04 #@! TD*
D17*
G04 #@! TO.C,JP218*
X82250000Y-114400000D03*
D18*
X82250000Y-113100000D03*
G04 #@! TD*
D20*
G04 #@! TO.C,R313*
X169418000Y-128533000D03*
X167593000Y-128533000D03*
G04 #@! TD*
D15*
G04 #@! TO.C,C307*
X177750500Y-130300200D03*
X177750500Y-133250200D03*
G04 #@! TD*
D40*
G04 #@! TO.C,J108*
X157756000Y-136820500D03*
G04 #@! TD*
D36*
G04 #@! TO.C,C204*
X83500000Y-130775000D03*
X83500000Y-129225000D03*
G04 #@! TD*
D27*
G04 #@! TO.C,R412*
X140300000Y-132212500D03*
X140300000Y-130387500D03*
G04 #@! TD*
D34*
G04 #@! TO.C,J303*
X180000000Y-73100000D03*
G04 #@! TD*
D37*
G04 #@! TO.C,JP205*
X116499624Y-116599000D03*
D38*
X116499624Y-117899000D03*
G04 #@! TD*
D23*
G04 #@! TO.C,J209*
X96520000Y-106680000D03*
G04 #@! TD*
M02*
