G04 #@! TF.GenerationSoftware,KiCad,Pcbnew,(6.0.0)*
G04 #@! TF.CreationDate,2022-03-04T00:59:08+01:00*
G04 #@! TF.ProjectId,ADRmu,4144526d-752e-46b6-9963-61645f706362,0.4*
G04 #@! TF.SameCoordinates,Original*
G04 #@! TF.FileFunction,Soldermask,Bot*
G04 #@! TF.FilePolarity,Negative*
%FSLAX46Y46*%
G04 Gerber Fmt 4.6, Leading zero omitted, Abs format (unit mm)*
G04 Created by KiCad (PCBNEW (6.0.0)) date 2022-03-04 00:59:08*
%MOMM*%
%LPD*%
G01*
G04 APERTURE LIST*
G04 Aperture macros list*
%AMRoundRect*
0 Rectangle with rounded corners*
0 $1 Rounding radius*
0 $2 $3 $4 $5 $6 $7 $8 $9 X,Y pos of 4 corners*
0 Add a 4 corners polygon primitive as box body*
4,1,4,$2,$3,$4,$5,$6,$7,$8,$9,$2,$3,0*
0 Add four circle primitives for the rounded corners*
1,1,$1+$1,$2,$3*
1,1,$1+$1,$4,$5*
1,1,$1+$1,$6,$7*
1,1,$1+$1,$8,$9*
0 Add four rect primitives between the rounded corners*
20,1,$1+$1,$2,$3,$4,$5,0*
20,1,$1+$1,$4,$5,$6,$7,0*
20,1,$1+$1,$6,$7,$8,$9,0*
20,1,$1+$1,$8,$9,$2,$3,0*%
%AMHorizOval*
0 Thick line with rounded ends*
0 $1 width*
0 $2 $3 position (X,Y) of the first rounded end (center of the circle)*
0 $4 $5 position (X,Y) of the second rounded end (center of the circle)*
0 Add line between two ends*
20,1,$1,$2,$3,$4,$5,0*
0 Add two circle primitives to create the rounded ends*
1,1,$1,$2,$3*
1,1,$1,$4,$5*%
%AMRotRect*
0 Rectangle, with rotation*
0 The origin of the aperture is its center*
0 $1 length*
0 $2 width*
0 $3 Rotation angle, in degrees counterclockwise*
0 Add horizontal line*
21,1,$1,$2,0,0,$3*%
%AMFreePoly0*
4,1,22,0.500000,-0.750000,0.000000,-0.750000,0.000000,-0.745033,-0.079941,-0.743568,-0.215256,-0.701293,-0.333266,-0.622738,-0.424486,-0.514219,-0.481581,-0.384460,-0.499164,-0.250000,-0.500000,-0.250000,-0.500000,0.250000,-0.499164,0.250000,-0.499963,0.256109,-0.478152,0.396186,-0.417904,0.524511,-0.324060,0.630769,-0.204165,0.706417,-0.067858,0.745374,0.000000,0.744959,0.000000,0.750000,
0.500000,0.750000,0.500000,-0.750000,0.500000,-0.750000,$1*%
%AMFreePoly1*
4,1,20,0.000000,0.744959,0.073905,0.744508,0.209726,0.703889,0.328688,0.626782,0.421226,0.519385,0.479903,0.390333,0.500000,0.250000,0.500000,-0.250000,0.499851,-0.262216,0.476331,-0.402017,0.414519,-0.529596,0.319384,-0.634700,0.198574,-0.708877,0.061801,-0.746166,0.000000,-0.745033,0.000000,-0.750000,-0.500000,-0.750000,-0.500000,0.750000,0.000000,0.750000,0.000000,0.744959,
0.000000,0.744959,$1*%
G04 Aperture macros list end*
%ADD10C,0.150000*%
%ADD11C,17.100000*%
%ADD12C,1.600000*%
%ADD13RoundRect,0.250002X1.699998X1.699998X-1.699998X1.699998X-1.699998X-1.699998X1.699998X-1.699998X0*%
%ADD14C,4.300000*%
%ADD15RoundRect,0.250002X-1.699998X-1.699998X1.699998X-1.699998X1.699998X1.699998X-1.699998X1.699998X0*%
%ADD16C,2.850000*%
%ADD17RoundRect,0.250000X-1.050000X1.050000X-1.050000X-1.050000X1.050000X-1.050000X1.050000X1.050000X0*%
%ADD18C,2.600000*%
%ADD19C,1.500000*%
%ADD20C,1.400000*%
%ADD21RotRect,1.800000X1.800000X225.000000*%
%ADD22HorizOval,1.800000X0.000000X0.000000X0.000000X0.000000X0*%
%ADD23R,1.600000X1.600000*%
%ADD24O,1.600000X1.600000*%
%ADD25R,2.400000X2.400000*%
%ADD26C,2.400000*%
%ADD27O,1.200000X1.600000*%
%ADD28O,1.200000X1.200000*%
%ADD29FreePoly0,90.000000*%
%ADD30FreePoly1,90.000000*%
%ADD31FreePoly0,270.000000*%
%ADD32FreePoly1,270.000000*%
%ADD33FreePoly0,180.000000*%
%ADD34FreePoly1,180.000000*%
%ADD35FreePoly0,0.000000*%
%ADD36FreePoly1,0.000000*%
G04 APERTURE END LIST*
D10*
X230000000Y-50000000D02*
X70000000Y-50000000D01*
X70000000Y-50000000D02*
X70000000Y-53000000D01*
X70000000Y-53000000D02*
X230000000Y-53000000D01*
X230000000Y-53000000D02*
X230000000Y-50000000D01*
G36*
X230000000Y-50000000D02*
G01*
X70000000Y-50000000D01*
X70000000Y-53000000D01*
X230000000Y-53000000D01*
X230000000Y-50000000D01*
G37*
D11*
X128049624Y-87249000D02*
G75*
G03*
X128049624Y-87249000I-8550000J0D01*
G01*
D12*
G04 #@! TO.C,C206*
X132710624Y-128000000D03*
X127710624Y-128000000D03*
G04 #@! TD*
D13*
G04 #@! TO.C,J305*
X196000000Y-130000000D03*
G04 #@! TD*
D14*
G04 #@! TO.C,H303*
X172000000Y-118000000D03*
G04 #@! TD*
D15*
G04 #@! TO.C,J301*
X200000000Y-70000000D03*
G04 #@! TD*
D14*
G04 #@! TO.C,H306*
X185000000Y-95000000D03*
G04 #@! TD*
D16*
G04 #@! TO.C,J101*
X227240000Y-144450000D03*
X227240000Y-55550000D03*
D17*
X224700000Y-63170000D03*
D18*
X224700000Y-68250000D03*
X224700000Y-73330000D03*
X224700000Y-78410000D03*
X224700000Y-83490000D03*
X224700000Y-88570000D03*
X224700000Y-93650000D03*
X224700000Y-98730000D03*
X224700000Y-103810000D03*
X224700000Y-108890000D03*
X224700000Y-113970000D03*
X224700000Y-119050000D03*
X224700000Y-124130000D03*
X224700000Y-129210000D03*
X224700000Y-134290000D03*
X224700000Y-139370000D03*
X219620000Y-63170000D03*
X219620000Y-68250000D03*
X219620000Y-73330000D03*
X219620000Y-78410000D03*
X219620000Y-83490000D03*
X219620000Y-88570000D03*
X219620000Y-93650000D03*
X219620000Y-98730000D03*
X219620000Y-103810000D03*
X219620000Y-108890000D03*
X219620000Y-113970000D03*
X219620000Y-119050000D03*
X219620000Y-124130000D03*
X219620000Y-129210000D03*
X219620000Y-134290000D03*
X219620000Y-139370000D03*
G04 #@! TD*
D19*
G04 #@! TO.C,R213*
X129194624Y-113429000D03*
X132994624Y-113429000D03*
G04 #@! TD*
G04 #@! TO.C,R223*
X124114624Y-125240000D03*
X124114624Y-129040000D03*
G04 #@! TD*
D14*
G04 #@! TO.C,H304*
X185000000Y-105000000D03*
G04 #@! TD*
D19*
G04 #@! TO.C,R217*
X104556624Y-115207000D03*
X100756624Y-115207000D03*
G04 #@! TD*
D12*
G04 #@! TO.C,C208*
X140584624Y-131336000D03*
X135584624Y-131336000D03*
G04 #@! TD*
D15*
G04 #@! TO.C,J105*
X143499624Y-87249000D03*
G04 #@! TD*
D19*
G04 #@! TO.C,R208*
X114462624Y-124859000D03*
X114462624Y-128659000D03*
G04 #@! TD*
G04 #@! TO.C,R214*
X109890624Y-125113000D03*
X109890624Y-128913000D03*
G04 #@! TD*
D20*
G04 #@! TO.C,C209*
X145069624Y-132750000D03*
X145069624Y-130250000D03*
G04 #@! TD*
D21*
G04 #@! TO.C,Q201*
X93000000Y-70754376D03*
D22*
X91203949Y-72550427D03*
X89407898Y-74346478D03*
G04 #@! TD*
D19*
G04 #@! TO.C,R201*
X102499624Y-103654376D03*
X102499624Y-99854376D03*
G04 #@! TD*
D14*
G04 #@! TO.C,H302*
X195000000Y-105000000D03*
G04 #@! TD*
D23*
G04 #@! TO.C,RN201*
X91614812Y-91134376D03*
D24*
X91614812Y-93674376D03*
X91614812Y-96214376D03*
X91614812Y-98754376D03*
X91614812Y-101294376D03*
X91614812Y-103834376D03*
X91614812Y-106374376D03*
X91614812Y-108914376D03*
X99234812Y-108914376D03*
X99234812Y-106374376D03*
X99234812Y-103834376D03*
X99234812Y-101294376D03*
X99234812Y-98754376D03*
X99234812Y-96214376D03*
X99234812Y-93674376D03*
X99234812Y-91134376D03*
G04 #@! TD*
D25*
G04 #@! TO.C,C303*
X209000000Y-58287246D03*
D26*
X209000000Y-65787246D03*
G04 #@! TD*
D19*
G04 #@! TO.C,R226*
X119288624Y-124859000D03*
X119288624Y-128659000D03*
G04 #@! TD*
D14*
G04 #@! TO.C,H301*
X208000000Y-118000000D03*
G04 #@! TD*
D15*
G04 #@! TO.C,J104*
X89500000Y-87004376D03*
G04 #@! TD*
D19*
G04 #@! TO.C,R218*
X147030624Y-116343000D03*
X150830624Y-116343000D03*
G04 #@! TD*
D15*
G04 #@! TO.C,J102*
X152000000Y-131000000D03*
G04 #@! TD*
D14*
G04 #@! TO.C,H308*
X195000000Y-95000000D03*
G04 #@! TD*
D15*
G04 #@! TO.C,J103*
X152000000Y-125000000D03*
G04 #@! TD*
D27*
G04 #@! TO.C,U201*
X119499624Y-84334000D03*
D28*
X117434872Y-85189248D03*
X116579624Y-87254000D03*
X117434872Y-89318752D03*
X119499624Y-90174000D03*
X121564376Y-89318752D03*
X122419624Y-87254000D03*
X121564376Y-85189248D03*
G04 #@! TD*
D15*
G04 #@! TO.C,J302*
X190000000Y-71100000D03*
G04 #@! TD*
D12*
G04 #@! TO.C,C205*
X83855624Y-123549000D03*
X83855624Y-118549000D03*
G04 #@! TD*
D19*
G04 #@! TO.C,R221*
X98674624Y-87249000D03*
X94874624Y-87249000D03*
G04 #@! TD*
D23*
G04 #@! TO.C,RN204*
X87332263Y-109834376D03*
D24*
X87332263Y-107294376D03*
X87332263Y-104754376D03*
X87332263Y-102214376D03*
X87332263Y-99674376D03*
X87332263Y-97134376D03*
X87332263Y-94594376D03*
X87332263Y-92054376D03*
X79712263Y-92054376D03*
X79712263Y-94594376D03*
X79712263Y-97134376D03*
X79712263Y-99674376D03*
X79712263Y-102214376D03*
X79712263Y-104754376D03*
X79712263Y-107294376D03*
X79712263Y-109834376D03*
G04 #@! TD*
D23*
G04 #@! TO.C,RN203*
X108874624Y-121049000D03*
D24*
X111414624Y-121049000D03*
X113954624Y-121049000D03*
X116494624Y-121049000D03*
X119034624Y-121049000D03*
X121574624Y-121049000D03*
X124114624Y-121049000D03*
X124114624Y-113429000D03*
X121574624Y-113429000D03*
X119034624Y-113429000D03*
X116494624Y-113429000D03*
X113954624Y-113429000D03*
X111414624Y-113429000D03*
X108874624Y-113429000D03*
G04 #@! TD*
D13*
G04 #@! TO.C,J304*
X185000000Y-130000000D03*
G04 #@! TD*
D19*
G04 #@! TO.C,R211*
X104556624Y-120668000D03*
X100756624Y-120668000D03*
G04 #@! TD*
G04 #@! TO.C,R207*
X129194624Y-118509000D03*
X132994624Y-118509000D03*
G04 #@! TD*
D23*
G04 #@! TO.C,RN202*
X145069624Y-94760000D03*
D24*
X145069624Y-97300000D03*
X145069624Y-99840000D03*
X145069624Y-102380000D03*
X145069624Y-104920000D03*
X145069624Y-107460000D03*
X145069624Y-110000000D03*
X145069624Y-112540000D03*
X152689624Y-112540000D03*
X152689624Y-110000000D03*
X152689624Y-107460000D03*
X152689624Y-104920000D03*
X152689624Y-102380000D03*
X152689624Y-99840000D03*
X152689624Y-97300000D03*
X152689624Y-94760000D03*
G04 #@! TD*
D14*
G04 #@! TO.C,H305*
X172000000Y-82000000D03*
G04 #@! TD*
G04 #@! TO.C,H307*
X208000000Y-82000000D03*
G04 #@! TD*
D12*
G04 #@! TO.C,C204*
X83855624Y-131677000D03*
X83855624Y-126677000D03*
G04 #@! TD*
D15*
G04 #@! TO.C,J303*
X180000000Y-70000000D03*
G04 #@! TD*
D29*
G04 #@! TO.C,JP201*
X102499624Y-102404376D03*
D30*
X102499624Y-101104376D03*
G04 #@! TD*
D31*
G04 #@! TO.C,JP213*
X109890624Y-126300500D03*
D32*
X109890624Y-127600500D03*
G04 #@! TD*
D33*
G04 #@! TO.C,JP220*
X97424624Y-87249000D03*
D34*
X96124624Y-87249000D03*
G04 #@! TD*
D31*
G04 #@! TO.C,JP222*
X124114624Y-126427500D03*
D32*
X124114624Y-127727500D03*
G04 #@! TD*
D33*
G04 #@! TO.C,JP208*
X103306624Y-120668000D03*
D34*
X102006624Y-120668000D03*
G04 #@! TD*
D31*
G04 #@! TO.C,JP226*
X119288624Y-126109000D03*
D32*
X119288624Y-127409000D03*
G04 #@! TD*
D35*
G04 #@! TO.C,JP203*
X130429124Y-118509000D03*
D36*
X131729124Y-118509000D03*
G04 #@! TD*
D31*
G04 #@! TO.C,JP202*
X114462624Y-126046500D03*
D32*
X114462624Y-127346500D03*
G04 #@! TD*
D35*
G04 #@! TO.C,JP215*
X130444624Y-113429000D03*
D36*
X131744624Y-113429000D03*
G04 #@! TD*
M02*
