G04 #@! TF.GenerationSoftware,KiCad,Pcbnew,(6.0.5)*
G04 #@! TF.CreationDate,2022-05-23T21:49:17+02:00*
G04 #@! TF.ProjectId,ADRmu,4144526d-752e-46b6-9963-61645f706362,0.5*
G04 #@! TF.SameCoordinates,Original*
G04 #@! TF.FileFunction,Soldermask,Top*
G04 #@! TF.FilePolarity,Negative*
%FSLAX46Y46*%
G04 Gerber Fmt 4.6, Leading zero omitted, Abs format (unit mm)*
G04 Created by KiCad (PCBNEW (6.0.5)) date 2022-05-23 21:49:17*
%MOMM*%
%LPD*%
G01*
G04 APERTURE LIST*
G04 Aperture macros list*
%AMRoundRect*
0 Rectangle with rounded corners*
0 $1 Rounding radius*
0 $2 $3 $4 $5 $6 $7 $8 $9 X,Y pos of 4 corners*
0 Add a 4 corners polygon primitive as box body*
4,1,4,$2,$3,$4,$5,$6,$7,$8,$9,$2,$3,0*
0 Add four circle primitives for the rounded corners*
1,1,$1+$1,$2,$3*
1,1,$1+$1,$4,$5*
1,1,$1+$1,$6,$7*
1,1,$1+$1,$8,$9*
0 Add four rect primitives between the rounded corners*
20,1,$1+$1,$2,$3,$4,$5,0*
20,1,$1+$1,$4,$5,$6,$7,0*
20,1,$1+$1,$6,$7,$8,$9,0*
20,1,$1+$1,$8,$9,$2,$3,0*%
%AMHorizOval*
0 Thick line with rounded ends*
0 $1 width*
0 $2 $3 position (X,Y) of the first rounded end (center of the circle)*
0 $4 $5 position (X,Y) of the second rounded end (center of the circle)*
0 Add line between two ends*
20,1,$1,$2,$3,$4,$5,0*
0 Add two circle primitives to create the rounded ends*
1,1,$1,$2,$3*
1,1,$1,$4,$5*%
%AMRotRect*
0 Rectangle, with rotation*
0 The origin of the aperture is its center*
0 $1 length*
0 $2 width*
0 $3 Rotation angle, in degrees counterclockwise*
0 Add horizontal line*
21,1,$1,$2,0,0,$3*%
%AMFreePoly0*
4,1,20,0.000000,0.744959,0.073905,0.744508,0.209726,0.703889,0.328688,0.626782,0.421226,0.519385,0.479903,0.390333,0.500000,0.250000,0.500000,-0.250000,0.499851,-0.262216,0.476331,-0.402017,0.414519,-0.529596,0.319384,-0.634700,0.198574,-0.708877,0.061801,-0.746166,0.000000,-0.745033,0.000000,-0.750000,-0.500000,-0.750000,-0.500000,0.750000,0.000000,0.750000,0.000000,0.744959,
0.000000,0.744959,$1*%
%AMFreePoly1*
4,1,22,0.500000,-0.750000,0.000000,-0.750000,0.000000,-0.745033,-0.079941,-0.743568,-0.215256,-0.701293,-0.333266,-0.622738,-0.424486,-0.514219,-0.481581,-0.384460,-0.499164,-0.250000,-0.500000,-0.250000,-0.500000,0.250000,-0.499164,0.250000,-0.499963,0.256109,-0.478152,0.396186,-0.417904,0.524511,-0.324060,0.630769,-0.204165,0.706417,-0.067858,0.745374,0.000000,0.744959,0.000000,0.750000,
0.500000,0.750000,0.500000,-0.750000,0.500000,-0.750000,$1*%
%AMFreePoly2*
4,1,22,0.550000,-0.750000,0.000000,-0.750000,0.000000,-0.745033,-0.079941,-0.743568,-0.215256,-0.701293,-0.333266,-0.622738,-0.424486,-0.514219,-0.481581,-0.384460,-0.499164,-0.250000,-0.500000,-0.250000,-0.500000,0.250000,-0.499164,0.250000,-0.499963,0.256109,-0.478152,0.396186,-0.417904,0.524511,-0.324060,0.630769,-0.204165,0.706417,-0.067858,0.745374,0.000000,0.744959,0.000000,0.750000,
0.550000,0.750000,0.550000,-0.750000,0.550000,-0.750000,$1*%
%AMFreePoly3*
4,1,20,0.000000,0.744959,0.073905,0.744508,0.209726,0.703889,0.328688,0.626782,0.421226,0.519385,0.479903,0.390333,0.500000,0.250000,0.500000,-0.250000,0.499851,-0.262216,0.476331,-0.402017,0.414519,-0.529596,0.319384,-0.634700,0.198574,-0.708877,0.061801,-0.746166,0.000000,-0.745033,0.000000,-0.750000,-0.550000,-0.750000,-0.550000,0.750000,0.000000,0.750000,0.000000,0.744959,
0.000000,0.744959,$1*%
%AMFreePoly4*
4,1,9,3.862500,-0.866500,0.737500,-0.866500,0.737500,-0.450000,-0.737500,-0.450000,-0.737500,0.450000,0.737500,0.450000,0.737500,0.866500,3.862500,0.866500,3.862500,-0.866500,3.862500,-0.866500,$1*%
G04 Aperture macros list end*
%ADD10C,0.150000*%
%ADD11C,17.100000*%
%ADD12RoundRect,0.250000X0.262500X0.450000X-0.262500X0.450000X-0.262500X-0.450000X0.262500X-0.450000X0*%
%ADD13RoundRect,0.250000X0.503814X0.132583X0.132583X0.503814X-0.503814X-0.132583X-0.132583X-0.503814X0*%
%ADD14R,1.600000X1.600000*%
%ADD15O,1.600000X1.600000*%
%ADD16RoundRect,0.250000X0.450000X-0.262500X0.450000X0.262500X-0.450000X0.262500X-0.450000X-0.262500X0*%
%ADD17C,1.500000*%
%ADD18RoundRect,0.250000X-0.625000X0.375000X-0.625000X-0.375000X0.625000X-0.375000X0.625000X0.375000X0*%
%ADD19RoundRect,0.250000X-0.262500X-0.450000X0.262500X-0.450000X0.262500X0.450000X-0.262500X0.450000X0*%
%ADD20C,1.600000*%
%ADD21RoundRect,0.250002X1.699998X1.699998X-1.699998X1.699998X-1.699998X-1.699998X1.699998X-1.699998X0*%
%ADD22C,4.300000*%
%ADD23RoundRect,0.250002X-1.699998X-1.699998X1.699998X-1.699998X1.699998X1.699998X-1.699998X1.699998X0*%
%ADD24RoundRect,0.250000X0.475000X-0.250000X0.475000X0.250000X-0.475000X0.250000X-0.475000X-0.250000X0*%
%ADD25FreePoly0,0.000000*%
%ADD26FreePoly1,0.000000*%
%ADD27RoundRect,0.250000X-0.250000X-0.475000X0.250000X-0.475000X0.250000X0.475000X-0.250000X0.475000X0*%
%ADD28RotRect,0.900000X1.200000X315.000000*%
%ADD29FreePoly1,90.000000*%
%ADD30FreePoly0,90.000000*%
%ADD31C,2.850000*%
%ADD32RoundRect,0.250000X-1.050000X1.050000X-1.050000X-1.050000X1.050000X-1.050000X1.050000X1.050000X0*%
%ADD33C,2.600000*%
%ADD34FreePoly2,90.000000*%
%ADD35R,1.500000X1.000000*%
%ADD36FreePoly3,90.000000*%
%ADD37RoundRect,0.250000X-0.450000X0.262500X-0.450000X-0.262500X0.450000X-0.262500X0.450000X0.262500X0*%
%ADD38RoundRect,0.150000X-0.825000X-0.150000X0.825000X-0.150000X0.825000X0.150000X-0.825000X0.150000X0*%
%ADD39RoundRect,0.250000X-0.550000X-0.550000X0.550000X-0.550000X0.550000X0.550000X-0.550000X0.550000X0*%
%ADD40RoundRect,0.093750X-0.093750X-0.106250X0.093750X-0.106250X0.093750X0.106250X-0.093750X0.106250X0*%
%ADD41R,1.000000X1.600000*%
%ADD42RoundRect,0.250000X-0.325000X-0.650000X0.325000X-0.650000X0.325000X0.650000X-0.325000X0.650000X0*%
%ADD43R,0.900000X1.300000*%
%ADD44FreePoly4,90.000000*%
%ADD45RoundRect,0.100000X-0.100000X0.625000X-0.100000X-0.625000X0.100000X-0.625000X0.100000X0.625000X0*%
%ADD46R,2.850000X1.650000*%
%ADD47R,1.800000X2.500000*%
%ADD48C,1.400000*%
%ADD49RotRect,1.800000X1.800000X225.000000*%
%ADD50HorizOval,1.800000X0.000000X0.000000X0.000000X0.000000X0*%
%ADD51RoundRect,0.250000X0.250000X0.475000X-0.250000X0.475000X-0.250000X-0.475000X0.250000X-0.475000X0*%
%ADD52R,2.400000X2.400000*%
%ADD53C,2.400000*%
%ADD54R,0.900000X1.200000*%
%ADD55FreePoly1,270.000000*%
%ADD56FreePoly0,270.000000*%
%ADD57R,1.100000X1.100000*%
%ADD58RoundRect,0.250000X-0.475000X0.250000X-0.475000X-0.250000X0.475000X-0.250000X0.475000X0.250000X0*%
%ADD59R,1.050000X0.450000*%
%ADD60R,1.470000X0.895000*%
%ADD61RoundRect,0.150000X0.587500X0.150000X-0.587500X0.150000X-0.587500X-0.150000X0.587500X-0.150000X0*%
%ADD62O,1.200000X1.600000*%
%ADD63O,1.200000X1.200000*%
%ADD64RoundRect,0.100000X-0.712500X-0.100000X0.712500X-0.100000X0.712500X0.100000X-0.712500X0.100000X0*%
%ADD65FreePoly1,180.000000*%
%ADD66FreePoly0,180.000000*%
%ADD67RoundRect,0.250000X0.325000X0.650000X-0.325000X0.650000X-0.325000X-0.650000X0.325000X-0.650000X0*%
%ADD68RoundRect,0.250000X0.650000X-0.325000X0.650000X0.325000X-0.650000X0.325000X-0.650000X-0.325000X0*%
%ADD69RoundRect,0.250000X-0.650000X0.325000X-0.650000X-0.325000X0.650000X-0.325000X0.650000X0.325000X0*%
G04 APERTURE END LIST*
D10*
X70000000Y-50000000D02*
X230000000Y-50000000D01*
X230000000Y-50000000D02*
X230000000Y-53000000D01*
X230000000Y-53000000D02*
X70000000Y-53000000D01*
X70000000Y-53000000D02*
X70000000Y-50000000D01*
G36*
X70000000Y-50000000D02*
G01*
X230000000Y-50000000D01*
X230000000Y-53000000D01*
X70000000Y-53000000D01*
X70000000Y-50000000D01*
G37*
D11*
X128049624Y-87249000D02*
G75*
G03*
X128049624Y-87249000I-8550000J0D01*
G01*
G04 #@! TO.C,SYM101*
G36*
X79891214Y-54002424D02*
G01*
X79901581Y-54003834D01*
X79922944Y-54007568D01*
X79946545Y-54012614D01*
X79971724Y-54018782D01*
X79997818Y-54025881D01*
X80024166Y-54033719D01*
X80050107Y-54042107D01*
X80074980Y-54050853D01*
X80098123Y-54059766D01*
X80104302Y-54062308D01*
X80138216Y-54077388D01*
X80171385Y-54093927D01*
X80203417Y-54111677D01*
X80233919Y-54130394D01*
X80262497Y-54149829D01*
X80288757Y-54169738D01*
X80312308Y-54189873D01*
X80321055Y-54198103D01*
X80332621Y-54209615D01*
X80342951Y-54220609D01*
X80352352Y-54231527D01*
X80361130Y-54242808D01*
X80369592Y-54254890D01*
X80378047Y-54268215D01*
X80386800Y-54283220D01*
X80396159Y-54300346D01*
X80406430Y-54320033D01*
X80407006Y-54321155D01*
X80420828Y-54347648D01*
X80433833Y-54371479D01*
X80446293Y-54393069D01*
X80458480Y-54412836D01*
X80470666Y-54431197D01*
X80483124Y-54448573D01*
X80496125Y-54465382D01*
X80509942Y-54482042D01*
X80516495Y-54489598D01*
X80530455Y-54504932D01*
X80544570Y-54519226D01*
X80559314Y-54532885D01*
X80575166Y-54546315D01*
X80592603Y-54559922D01*
X80612101Y-54574111D01*
X80631983Y-54587834D01*
X80647712Y-54598582D01*
X80664493Y-54610252D01*
X80682049Y-54622641D01*
X80700107Y-54635544D01*
X80718389Y-54648754D01*
X80736621Y-54662068D01*
X80754528Y-54675280D01*
X80771833Y-54688186D01*
X80788262Y-54700580D01*
X80803539Y-54712259D01*
X80817388Y-54723015D01*
X80829535Y-54732646D01*
X80839704Y-54740946D01*
X80847618Y-54747709D01*
X80851017Y-54750800D01*
X80860044Y-54759901D01*
X80869407Y-54770422D01*
X80878705Y-54781813D01*
X80887534Y-54793525D01*
X80895491Y-54805008D01*
X80902173Y-54815712D01*
X80907177Y-54825087D01*
X80909442Y-54830496D01*
X80911615Y-54839337D01*
X80912227Y-54848357D01*
X80911313Y-54856584D01*
X80908905Y-54863043D01*
X80908285Y-54863987D01*
X80904952Y-54867291D01*
X80900007Y-54870815D01*
X80896995Y-54872520D01*
X80891747Y-54874613D01*
X80885437Y-54875982D01*
X80877728Y-54876619D01*
X80868284Y-54876517D01*
X80856767Y-54875669D01*
X80842842Y-54874068D01*
X80826171Y-54871708D01*
X80821096Y-54870930D01*
X80803976Y-54868162D01*
X80784153Y-54864767D01*
X80762110Y-54860840D01*
X80738330Y-54856474D01*
X80713294Y-54851764D01*
X80687486Y-54846805D01*
X80661388Y-54841689D01*
X80635483Y-54836511D01*
X80610254Y-54831366D01*
X80586184Y-54826346D01*
X80563754Y-54821547D01*
X80543448Y-54817062D01*
X80535663Y-54815294D01*
X80507140Y-54808833D01*
X80481436Y-54803201D01*
X80458224Y-54798352D01*
X80437176Y-54794239D01*
X80417966Y-54790816D01*
X80400266Y-54788036D01*
X80383748Y-54785854D01*
X80368086Y-54784221D01*
X80352952Y-54783094D01*
X80338018Y-54782424D01*
X80322958Y-54782165D01*
X80307444Y-54782272D01*
X80303304Y-54782353D01*
X80290800Y-54782737D01*
X80278388Y-54783358D01*
X80265644Y-54784264D01*
X80252142Y-54785498D01*
X80237457Y-54787107D01*
X80221166Y-54789138D01*
X80202844Y-54791634D01*
X80182064Y-54794643D01*
X80163936Y-54797367D01*
X80120672Y-54804547D01*
X80080269Y-54812525D01*
X80042400Y-54821395D01*
X80006736Y-54831250D01*
X79972949Y-54842185D01*
X79940712Y-54854293D01*
X79909696Y-54867669D01*
X79895866Y-54874217D01*
X79876083Y-54884198D01*
X79858849Y-54893713D01*
X79843564Y-54903163D01*
X79829629Y-54912952D01*
X79816445Y-54923479D01*
X79803412Y-54935149D01*
X79799725Y-54938659D01*
X79785097Y-54953499D01*
X79772081Y-54968412D01*
X79760407Y-54983849D01*
X79749808Y-55000263D01*
X79740014Y-55018106D01*
X79730757Y-55037831D01*
X79721769Y-55059889D01*
X79712781Y-55084734D01*
X79712467Y-55085650D01*
X79690034Y-55154278D01*
X79669734Y-55223189D01*
X79651494Y-55292726D01*
X79635244Y-55363230D01*
X79620913Y-55435045D01*
X79608430Y-55508511D01*
X79597725Y-55583970D01*
X79588726Y-55661765D01*
X79584876Y-55701299D01*
X79582514Y-55728066D01*
X79580379Y-55754431D01*
X79578455Y-55780742D01*
X79576724Y-55807347D01*
X79575171Y-55834595D01*
X79573778Y-55862833D01*
X79572529Y-55892410D01*
X79571409Y-55923674D01*
X79570399Y-55956974D01*
X79569485Y-55992658D01*
X79568649Y-56031073D01*
X79568230Y-56052753D01*
X79567380Y-56119728D01*
X79567270Y-56189316D01*
X79567902Y-56261587D01*
X79569278Y-56336611D01*
X79571400Y-56414456D01*
X79574270Y-56495193D01*
X79577890Y-56578890D01*
X79582261Y-56665617D01*
X79587386Y-56755443D01*
X79588077Y-56766845D01*
X79589562Y-56790537D01*
X79590966Y-56811426D01*
X79592331Y-56829972D01*
X79593698Y-56846634D01*
X79595108Y-56861874D01*
X79596604Y-56876152D01*
X79598227Y-56889928D01*
X79600019Y-56903661D01*
X79601207Y-56912183D01*
X79611590Y-56973672D01*
X79625077Y-57034203D01*
X79641677Y-57093803D01*
X79661399Y-57152495D01*
X79684253Y-57210303D01*
X79710247Y-57267251D01*
X79739392Y-57323365D01*
X79771695Y-57378668D01*
X79788388Y-57405028D01*
X79796306Y-57417001D01*
X79806103Y-57431437D01*
X79817680Y-57448200D01*
X79830938Y-57467152D01*
X79845779Y-57488157D01*
X79862103Y-57511079D01*
X79879813Y-57535780D01*
X79898809Y-57562125D01*
X79918993Y-57589976D01*
X79940266Y-57619196D01*
X79962531Y-57649650D01*
X79985687Y-57681200D01*
X80009636Y-57713710D01*
X80034280Y-57747043D01*
X80059520Y-57781063D01*
X80069954Y-57795091D01*
X80085091Y-57815465D01*
X80098425Y-57833508D01*
X80110130Y-57849484D01*
X80120381Y-57863661D01*
X80129352Y-57876304D01*
X80137218Y-57887680D01*
X80144155Y-57898054D01*
X80150337Y-57907694D01*
X80155939Y-57916865D01*
X80161135Y-57925833D01*
X80166102Y-57934865D01*
X80171013Y-57944227D01*
X80176043Y-57954185D01*
X80180804Y-57963849D01*
X80200269Y-58007020D01*
X80217715Y-58052643D01*
X80233119Y-58100582D01*
X80246454Y-58150701D01*
X80257695Y-58202864D01*
X80266818Y-58256935D01*
X80273796Y-58312778D01*
X80278604Y-58370257D01*
X80281217Y-58429236D01*
X80281610Y-58489579D01*
X80281368Y-58504378D01*
X80280904Y-58525404D01*
X80280384Y-58543673D01*
X80279717Y-58559660D01*
X80278811Y-58573836D01*
X80277574Y-58586676D01*
X80275914Y-58598652D01*
X80273739Y-58610238D01*
X80270957Y-58621908D01*
X80267477Y-58634135D01*
X80263206Y-58647391D01*
X80258052Y-58662150D01*
X80251924Y-58678886D01*
X80244729Y-58698072D01*
X80242697Y-58703454D01*
X80238029Y-58715444D01*
X80234079Y-58724638D01*
X80230629Y-58731368D01*
X80227463Y-58735968D01*
X80224362Y-58738770D01*
X80221110Y-58740107D01*
X80218605Y-58740350D01*
X80213854Y-58739484D01*
X80209269Y-58736743D01*
X80204711Y-58731911D01*
X80200041Y-58724770D01*
X80195120Y-58715105D01*
X80189807Y-58702699D01*
X80183962Y-58687335D01*
X80183391Y-58685761D01*
X80180549Y-58677960D01*
X80178061Y-58671258D01*
X80176156Y-58666258D01*
X80175061Y-58663564D01*
X80174933Y-58663307D01*
X80173216Y-58663304D01*
X80169822Y-58665483D01*
X80165140Y-58669497D01*
X80159561Y-58675002D01*
X80153474Y-58681649D01*
X80150917Y-58684631D01*
X80142640Y-58694924D01*
X80134904Y-58705572D01*
X80127488Y-58716970D01*
X80120174Y-58729514D01*
X80112741Y-58743600D01*
X80104970Y-58759624D01*
X80096641Y-58777981D01*
X80087852Y-58798322D01*
X80077896Y-58821320D01*
X80068705Y-58841510D01*
X80060110Y-58859215D01*
X80051941Y-58874757D01*
X80044027Y-58888459D01*
X80036199Y-58900642D01*
X80028287Y-58911629D01*
X80027752Y-58912327D01*
X80023695Y-58917283D01*
X80018585Y-58923058D01*
X80012902Y-58929167D01*
X80007126Y-58935121D01*
X80001738Y-58940431D01*
X79997217Y-58944612D01*
X79994044Y-58947174D01*
X79992883Y-58947743D01*
X79991026Y-58946371D01*
X79988149Y-58942670D01*
X79984631Y-58937262D01*
X79980850Y-58930769D01*
X79977184Y-58923814D01*
X79974013Y-58917019D01*
X79973573Y-58915980D01*
X79970245Y-58907391D01*
X79967486Y-58898786D01*
X79965219Y-58889684D01*
X79963366Y-58879607D01*
X79961850Y-58868075D01*
X79960593Y-58854608D01*
X79959517Y-58838727D01*
X79958758Y-58824450D01*
X79957751Y-58806550D01*
X79956573Y-58791385D01*
X79955152Y-58778425D01*
X79953417Y-58767140D01*
X79951294Y-58757001D01*
X79948713Y-58747477D01*
X79948009Y-58745199D01*
X79943769Y-58731778D01*
X79935553Y-58747903D01*
X79928798Y-58761536D01*
X79923398Y-58773429D01*
X79918963Y-58784600D01*
X79915105Y-58796070D01*
X79911433Y-58808860D01*
X79909583Y-58815923D01*
X79902083Y-58842934D01*
X79894150Y-58866965D01*
X79885674Y-58888287D01*
X79876548Y-58907168D01*
X79866664Y-58923879D01*
X79866003Y-58924881D01*
X79852327Y-58943404D01*
X79837586Y-58959185D01*
X79821412Y-58972485D01*
X79803437Y-58983561D01*
X79783295Y-58992671D01*
X79760618Y-59000075D01*
X79758120Y-59000752D01*
X79739468Y-59006241D01*
X79723428Y-59012203D01*
X79709344Y-59018990D01*
X79696565Y-59026958D01*
X79684438Y-59036460D01*
X79673655Y-59046500D01*
X79668286Y-59051946D01*
X79663261Y-59057320D01*
X79658250Y-59063032D01*
X79652924Y-59069488D01*
X79646952Y-59077098D01*
X79640003Y-59086269D01*
X79631749Y-59097410D01*
X79624750Y-59106963D01*
X79610590Y-59126112D01*
X79597921Y-59142685D01*
X79586534Y-59156892D01*
X79576219Y-59168945D01*
X79566764Y-59179053D01*
X79557961Y-59187429D01*
X79549599Y-59194283D01*
X79541468Y-59199827D01*
X79533359Y-59204271D01*
X79525060Y-59207826D01*
X79523920Y-59208247D01*
X79518494Y-59209998D01*
X79511227Y-59212046D01*
X79502885Y-59214207D01*
X79494233Y-59216300D01*
X79486039Y-59218142D01*
X79479067Y-59219552D01*
X79474083Y-59220348D01*
X79472561Y-59220458D01*
X79471588Y-59220196D01*
X79470634Y-59219194D01*
X79469605Y-59217127D01*
X79468406Y-59213670D01*
X79466940Y-59208500D01*
X79465112Y-59201292D01*
X79462827Y-59191720D01*
X79459990Y-59179462D01*
X79458162Y-59171467D01*
X79455368Y-59159345D01*
X79452770Y-59148321D01*
X79450464Y-59138780D01*
X79448544Y-59131105D01*
X79447106Y-59125680D01*
X79446244Y-59122889D01*
X79446071Y-59122593D01*
X79444763Y-59123781D01*
X79441564Y-59127061D01*
X79436780Y-59132110D01*
X79430716Y-59138602D01*
X79423678Y-59146213D01*
X79417391Y-59153064D01*
X79395560Y-59176647D01*
X79374237Y-59199117D01*
X79353634Y-59220266D01*
X79333965Y-59239884D01*
X79315444Y-59257761D01*
X79298283Y-59273689D01*
X79282697Y-59287457D01*
X79268898Y-59298857D01*
X79268786Y-59298945D01*
X79250754Y-59312713D01*
X79234647Y-59323991D01*
X79220345Y-59332838D01*
X79207729Y-59339312D01*
X79196683Y-59343473D01*
X79187086Y-59345380D01*
X79178821Y-59345090D01*
X79176721Y-59344621D01*
X79168834Y-59340860D01*
X79161272Y-59333997D01*
X79154144Y-59324186D01*
X79147560Y-59311585D01*
X79141630Y-59296350D01*
X79140572Y-59293127D01*
X79138635Y-59287369D01*
X79136930Y-59282851D01*
X79135800Y-59280470D01*
X79135730Y-59280382D01*
X79133927Y-59280662D01*
X79130381Y-59282941D01*
X79125562Y-59286811D01*
X79119936Y-59291868D01*
X79113974Y-59297706D01*
X79108144Y-59303918D01*
X79106817Y-59305419D01*
X79103755Y-59308965D01*
X79098864Y-59314677D01*
X79092423Y-59322226D01*
X79084713Y-59331283D01*
X79076011Y-59341521D01*
X79066599Y-59352611D01*
X79056755Y-59364224D01*
X79052658Y-59369063D01*
X79030069Y-59395615D01*
X79009361Y-59419680D01*
X78990433Y-59441366D01*
X78973183Y-59460782D01*
X78957511Y-59478037D01*
X78943316Y-59493239D01*
X78930495Y-59506496D01*
X78918948Y-59517917D01*
X78908575Y-59527611D01*
X78899272Y-59535687D01*
X78891945Y-59541501D01*
X78874365Y-59553822D01*
X78854248Y-59566266D01*
X78832277Y-59578428D01*
X78813016Y-59588072D01*
X78797940Y-59595037D01*
X78785297Y-59600346D01*
X78774774Y-59604109D01*
X78766055Y-59606433D01*
X78758826Y-59607428D01*
X78756873Y-59607484D01*
X78748166Y-59606651D01*
X78741654Y-59603961D01*
X78737089Y-59599127D01*
X78734220Y-59591863D01*
X78732797Y-59581882D01*
X78732673Y-59579722D01*
X78732579Y-59576562D01*
X78732628Y-59573230D01*
X78732867Y-59569451D01*
X78733341Y-59564946D01*
X78734098Y-59559439D01*
X78735183Y-59552653D01*
X78736644Y-59544309D01*
X78738527Y-59534131D01*
X78740878Y-59521841D01*
X78743745Y-59507162D01*
X78747173Y-59489817D01*
X78750890Y-59471127D01*
X78755826Y-59446352D01*
X78760163Y-59424559D01*
X78763941Y-59405527D01*
X78767197Y-59389033D01*
X78769970Y-59374856D01*
X78772300Y-59362775D01*
X78774224Y-59352568D01*
X78775782Y-59344014D01*
X78777012Y-59336891D01*
X78777953Y-59330978D01*
X78778644Y-59326053D01*
X78779123Y-59321894D01*
X78779429Y-59318281D01*
X78779600Y-59314991D01*
X78779677Y-59311803D01*
X78779696Y-59308496D01*
X78779696Y-59288116D01*
X78772617Y-59285492D01*
X78765538Y-59282869D01*
X78739967Y-59319842D01*
X78733516Y-59329223D01*
X78725599Y-59340821D01*
X78716556Y-59354133D01*
X78706728Y-59368655D01*
X78696456Y-59383884D01*
X78686080Y-59399315D01*
X78675941Y-59414446D01*
X78670802Y-59422136D01*
X78657703Y-59441702D01*
X78646162Y-59458785D01*
X78635981Y-59473655D01*
X78626961Y-59486581D01*
X78618902Y-59497833D01*
X78611604Y-59507681D01*
X78604867Y-59516393D01*
X78598493Y-59524239D01*
X78592282Y-59531489D01*
X78586035Y-59538411D01*
X78579844Y-59544972D01*
X78562138Y-59562463D01*
X78544555Y-59577822D01*
X78526460Y-59591479D01*
X78507222Y-59603862D01*
X78486209Y-59615400D01*
X78462787Y-59626522D01*
X78453909Y-59630394D01*
X78446853Y-59633319D01*
X78438022Y-59636835D01*
X78427814Y-59640799D01*
X78416624Y-59645064D01*
X78404847Y-59649487D01*
X78392881Y-59653923D01*
X78381121Y-59658226D01*
X78369963Y-59662253D01*
X78359803Y-59665858D01*
X78351037Y-59668897D01*
X78344061Y-59671224D01*
X78339272Y-59672696D01*
X78337064Y-59673167D01*
X78336972Y-59673135D01*
X78336101Y-59671314D01*
X78334275Y-59666932D01*
X78331691Y-59660484D01*
X78328548Y-59652465D01*
X78325043Y-59643368D01*
X78324903Y-59643002D01*
X78320702Y-59632202D01*
X78317396Y-59624206D01*
X78314846Y-59618718D01*
X78312911Y-59615445D01*
X78311451Y-59614091D01*
X78311072Y-59614016D01*
X78306509Y-59614604D01*
X78299000Y-59616348D01*
X78288644Y-59619216D01*
X78275538Y-59623178D01*
X78259780Y-59628201D01*
X78241467Y-59634255D01*
X78220697Y-59641309D01*
X78197567Y-59649331D01*
X78172176Y-59658291D01*
X78168947Y-59659440D01*
X78142494Y-59668598D01*
X78118483Y-59676323D01*
X78096473Y-59682718D01*
X78076022Y-59687884D01*
X78056689Y-59691922D01*
X78038033Y-59694936D01*
X78019612Y-59697026D01*
X78000986Y-59698294D01*
X78000508Y-59698317D01*
X77990655Y-59698530D01*
X77979768Y-59698360D01*
X77968388Y-59697855D01*
X77957059Y-59697067D01*
X77946320Y-59696048D01*
X77936714Y-59694848D01*
X77928783Y-59693517D01*
X77923069Y-59692108D01*
X77920206Y-59690760D01*
X77920403Y-59689012D01*
X77921464Y-59684430D01*
X77923306Y-59677308D01*
X77925850Y-59667940D01*
X77929013Y-59656620D01*
X77932713Y-59643639D01*
X77936870Y-59629293D01*
X77941403Y-59613874D01*
X77943476Y-59606886D01*
X77948175Y-59591074D01*
X77952580Y-59576200D01*
X77956604Y-59562559D01*
X77960162Y-59550445D01*
X77963166Y-59540155D01*
X77965532Y-59531983D01*
X77967172Y-59526223D01*
X77968000Y-59523171D01*
X77968085Y-59522764D01*
X77966574Y-59522373D01*
X77962068Y-59523170D01*
X77954610Y-59525141D01*
X77944242Y-59528273D01*
X77931006Y-59532551D01*
X77914946Y-59537962D01*
X77896102Y-59544492D01*
X77874519Y-59552128D01*
X77850237Y-59560856D01*
X77845766Y-59562475D01*
X77815731Y-59573298D01*
X77787723Y-59583250D01*
X77761880Y-59592287D01*
X77738339Y-59600362D01*
X77717235Y-59607429D01*
X77698706Y-59613441D01*
X77682889Y-59618353D01*
X77669919Y-59622118D01*
X77665976Y-59623184D01*
X77655725Y-59625615D01*
X77646661Y-59627041D01*
X77637054Y-59627690D01*
X77630828Y-59627799D01*
X77622580Y-59627768D01*
X77616716Y-59627481D01*
X77612355Y-59626799D01*
X77608619Y-59625587D01*
X77604700Y-59623745D01*
X77597864Y-59619270D01*
X77592158Y-59613269D01*
X77587515Y-59605505D01*
X77583864Y-59595739D01*
X77581137Y-59583733D01*
X77579265Y-59569249D01*
X77578178Y-59552049D01*
X77577808Y-59531894D01*
X77577807Y-59531066D01*
X77577793Y-59504455D01*
X77572486Y-59505340D01*
X77569355Y-59505737D01*
X77563514Y-59506360D01*
X77555504Y-59507157D01*
X77545868Y-59508074D01*
X77535149Y-59509057D01*
X77529619Y-59509551D01*
X77501081Y-59512223D01*
X77475459Y-59514946D01*
X77452404Y-59517780D01*
X77431566Y-59520786D01*
X77412598Y-59524025D01*
X77395147Y-59527557D01*
X77378867Y-59531442D01*
X77363406Y-59535742D01*
X77348415Y-59540516D01*
X77345819Y-59541403D01*
X77326192Y-59548925D01*
X77309786Y-59556832D01*
X77296612Y-59565119D01*
X77292715Y-59568151D01*
X77288631Y-59571813D01*
X77283013Y-59577325D01*
X77275793Y-59584758D01*
X77266904Y-59594186D01*
X77256278Y-59605682D01*
X77243850Y-59619320D01*
X77229552Y-59635171D01*
X77213316Y-59653308D01*
X77195076Y-59673806D01*
X77180766Y-59689951D01*
X77164867Y-59707886D01*
X77150897Y-59723563D01*
X77138644Y-59737190D01*
X77127897Y-59748978D01*
X77118446Y-59759134D01*
X77110079Y-59767870D01*
X77102585Y-59775392D01*
X77095753Y-59781912D01*
X77089372Y-59787638D01*
X77083231Y-59792779D01*
X77077118Y-59797544D01*
X77070823Y-59802142D01*
X77064135Y-59806784D01*
X77060126Y-59809488D01*
X77039847Y-59821968D01*
X77018854Y-59832626D01*
X76996576Y-59841688D01*
X76972441Y-59849378D01*
X76945876Y-59855923D01*
X76938466Y-59857472D01*
X76914539Y-59863012D01*
X76893215Y-59869506D01*
X76873913Y-59877183D01*
X76856051Y-59886268D01*
X76841491Y-59895318D01*
X76837124Y-59898653D01*
X76830613Y-59904188D01*
X76822101Y-59911792D01*
X76811729Y-59921333D01*
X76799642Y-59932680D01*
X76785982Y-59945701D01*
X76770891Y-59960265D01*
X76770712Y-59960440D01*
X76744551Y-59985704D01*
X76720368Y-60008784D01*
X76697920Y-60029891D01*
X76676965Y-60049236D01*
X76657262Y-60067032D01*
X76638569Y-60083490D01*
X76620643Y-60098822D01*
X76603243Y-60113240D01*
X76586127Y-60126956D01*
X76569053Y-60140180D01*
X76551780Y-60153126D01*
X76544908Y-60158166D01*
X76513860Y-60180614D01*
X76483586Y-60202090D01*
X76453359Y-60223095D01*
X76422450Y-60244130D01*
X76390131Y-60265696D01*
X76355674Y-60288292D01*
X76355027Y-60288713D01*
X76315189Y-60314634D01*
X76308823Y-60309592D01*
X76302457Y-60304551D01*
X76305910Y-60297727D01*
X76309695Y-60290374D01*
X76314902Y-60280453D01*
X76321374Y-60268255D01*
X76328954Y-60254071D01*
X76337485Y-60238191D01*
X76346811Y-60220907D01*
X76356774Y-60202510D01*
X76367217Y-60183290D01*
X76377984Y-60163539D01*
X76388918Y-60143547D01*
X76396589Y-60129563D01*
X76407236Y-60110177D01*
X76416428Y-60093431D01*
X76424274Y-60079099D01*
X76430885Y-60066957D01*
X76436371Y-60056779D01*
X76440843Y-60048338D01*
X76444412Y-60041411D01*
X76447187Y-60035771D01*
X76449281Y-60031192D01*
X76450802Y-60027450D01*
X76451862Y-60024319D01*
X76452572Y-60021573D01*
X76453041Y-60018987D01*
X76453381Y-60016335D01*
X76453702Y-60013392D01*
X76453746Y-60012992D01*
X76454328Y-60006946D01*
X76454583Y-60002450D01*
X76454476Y-60000224D01*
X76454348Y-60000114D01*
X76431556Y-60013289D01*
X76411614Y-60026497D01*
X76397936Y-60036862D01*
X76373430Y-60056111D01*
X76349381Y-60073907D01*
X76325243Y-60090593D01*
X76300470Y-60106513D01*
X76274515Y-60122008D01*
X76246833Y-60137423D01*
X76216877Y-60153100D01*
X76196776Y-60163174D01*
X76184968Y-60168976D01*
X76173884Y-60174349D01*
X76163099Y-60179487D01*
X76152189Y-60184583D01*
X76140729Y-60189829D01*
X76128294Y-60195419D01*
X76114460Y-60201545D01*
X76098802Y-60208401D01*
X76080896Y-60216179D01*
X76064800Y-60223138D01*
X76042463Y-60232824D01*
X76022684Y-60241506D01*
X76004994Y-60249400D01*
X75988922Y-60256725D01*
X75974000Y-60263699D01*
X75959756Y-60270540D01*
X75945722Y-60277466D01*
X75931428Y-60284696D01*
X75924360Y-60288325D01*
X75874553Y-60314999D01*
X75826885Y-60342601D01*
X75780239Y-60371795D01*
X75749082Y-60392522D01*
X75739260Y-60399058D01*
X75729279Y-60405438D01*
X75719814Y-60411247D01*
X75711538Y-60416074D01*
X75705127Y-60419507D01*
X75704174Y-60419969D01*
X75698011Y-60422615D01*
X75689448Y-60425920D01*
X75679219Y-60429621D01*
X75668059Y-60433453D01*
X75656699Y-60437154D01*
X75654095Y-60437971D01*
X75635579Y-60443873D01*
X75619998Y-60449159D01*
X75607104Y-60453944D01*
X75596650Y-60458347D01*
X75588387Y-60462482D01*
X75582068Y-60466467D01*
X75577446Y-60470417D01*
X75574271Y-60474449D01*
X75573499Y-60475819D01*
X75572214Y-60479104D01*
X75570219Y-60485254D01*
X75567596Y-60493965D01*
X75564432Y-60504935D01*
X75560811Y-60517859D01*
X75556818Y-60532436D01*
X75552538Y-60548362D01*
X75548056Y-60565334D01*
X75543456Y-60583049D01*
X75543203Y-60584030D01*
X75526562Y-60651698D01*
X75512019Y-60717231D01*
X75499520Y-60780953D01*
X75489012Y-60843186D01*
X75480441Y-60904254D01*
X75473754Y-60964479D01*
X75468897Y-61024185D01*
X75467957Y-61039171D01*
X75466952Y-61061345D01*
X75466498Y-61083904D01*
X75466575Y-61106336D01*
X75467162Y-61128131D01*
X75468239Y-61148779D01*
X75469784Y-61167769D01*
X75471778Y-61184590D01*
X75474198Y-61198733D01*
X75474465Y-61199989D01*
X75480655Y-61221806D01*
X75489383Y-61241684D01*
X75500720Y-61259716D01*
X75514741Y-61275994D01*
X75531518Y-61290611D01*
X75551124Y-61303661D01*
X75560196Y-61308683D01*
X75574489Y-61316833D01*
X75585880Y-61324819D01*
X75594703Y-61332906D01*
X75601295Y-61341361D01*
X75601297Y-61341366D01*
X75622367Y-61373209D01*
X75643199Y-61402383D01*
X75664259Y-61429409D01*
X75686012Y-61454808D01*
X75708922Y-61479099D01*
X75733454Y-61502805D01*
X75760073Y-61526446D01*
X75784737Y-61546919D01*
X75793745Y-61554125D01*
X75802702Y-61561135D01*
X75811797Y-61568072D01*
X75821218Y-61575062D01*
X75831155Y-61582229D01*
X75841794Y-61589700D01*
X75853325Y-61597597D01*
X75865937Y-61606047D01*
X75879817Y-61615175D01*
X75895153Y-61625105D01*
X75912136Y-61635962D01*
X75930952Y-61647871D01*
X75951790Y-61660957D01*
X75974839Y-61675345D01*
X76000288Y-61691159D01*
X76028324Y-61708526D01*
X76031323Y-61710381D01*
X76105960Y-61756481D01*
X76178009Y-61800847D01*
X76247598Y-61843558D01*
X76314855Y-61884692D01*
X76379910Y-61924326D01*
X76442891Y-61962540D01*
X76503927Y-61999410D01*
X76563147Y-62035015D01*
X76620680Y-62069434D01*
X76676654Y-62102744D01*
X76731198Y-62135023D01*
X76749465Y-62145792D01*
X76769627Y-62157654D01*
X76787332Y-62168035D01*
X76802926Y-62177126D01*
X76816757Y-62185119D01*
X76829173Y-62192206D01*
X76840520Y-62198579D01*
X76851147Y-62204427D01*
X76861401Y-62209944D01*
X76871628Y-62215320D01*
X76882178Y-62220748D01*
X76893396Y-62226418D01*
X76905631Y-62232522D01*
X76917236Y-62238268D01*
X76927583Y-62243372D01*
X76937007Y-62248001D01*
X76945813Y-62252299D01*
X76954308Y-62256407D01*
X76962797Y-62260468D01*
X76971585Y-62264625D01*
X76980980Y-62269020D01*
X76991286Y-62273795D01*
X77002809Y-62279094D01*
X77015855Y-62285058D01*
X77030730Y-62291830D01*
X77047739Y-62299552D01*
X77067188Y-62308368D01*
X77083694Y-62315843D01*
X77105054Y-62325536D01*
X77123686Y-62334042D01*
X77139850Y-62341487D01*
X77153808Y-62348000D01*
X77165820Y-62353706D01*
X77176148Y-62358733D01*
X77185053Y-62363208D01*
X77192796Y-62367258D01*
X77199639Y-62371010D01*
X77205842Y-62374590D01*
X77211180Y-62377823D01*
X77224701Y-62386263D01*
X77235796Y-62393389D01*
X77244864Y-62399525D01*
X77252305Y-62404994D01*
X77258521Y-62410120D01*
X77263910Y-62415225D01*
X77268874Y-62420633D01*
X77273811Y-62426667D01*
X77277329Y-62431253D01*
X77283391Y-62439920D01*
X77289158Y-62449548D01*
X77294864Y-62460610D01*
X77300739Y-62473577D01*
X77307017Y-62488920D01*
X77311624Y-62500926D01*
X77317975Y-62517327D01*
X77325464Y-62535835D01*
X77333751Y-62555642D01*
X77342495Y-62575943D01*
X77351356Y-62595931D01*
X77357009Y-62608358D01*
X77362734Y-62620604D01*
X77369117Y-62633917D01*
X77375968Y-62647930D01*
X77383098Y-62662275D01*
X77390317Y-62676582D01*
X77397434Y-62690484D01*
X77404261Y-62703613D01*
X77410608Y-62715600D01*
X77416283Y-62726076D01*
X77421099Y-62734675D01*
X77424864Y-62741027D01*
X77427196Y-62744516D01*
X77435162Y-62753991D01*
X77445656Y-62764885D01*
X77458401Y-62776938D01*
X77473124Y-62789890D01*
X77489548Y-62803482D01*
X77490347Y-62804124D01*
X77513127Y-62823091D01*
X77533126Y-62841265D01*
X77550627Y-62858975D01*
X77565917Y-62876551D01*
X77579280Y-62894321D01*
X77591001Y-62912614D01*
X77601366Y-62931761D01*
X77602024Y-62933093D01*
X77607192Y-62943197D01*
X77612338Y-62952223D01*
X77617768Y-62960485D01*
X77623786Y-62968297D01*
X77630699Y-62975973D01*
X77638811Y-62983827D01*
X77648427Y-62992174D01*
X77659853Y-63001328D01*
X77673394Y-63011602D01*
X77689356Y-63023312D01*
X77690472Y-63024121D01*
X77714612Y-63041494D01*
X77736557Y-63057024D01*
X77756645Y-63070934D01*
X77775208Y-63083445D01*
X77792584Y-63094782D01*
X77809107Y-63105166D01*
X77825112Y-63114820D01*
X77839893Y-63123378D01*
X77862037Y-63136352D01*
X77881527Y-63148673D01*
X77898825Y-63160669D01*
X77914394Y-63172666D01*
X77928694Y-63184992D01*
X77934396Y-63190310D01*
X77955372Y-63212480D01*
X77973722Y-63236413D01*
X77989313Y-63261902D01*
X78002012Y-63288741D01*
X78008110Y-63305169D01*
X78011706Y-63316736D01*
X78014886Y-63328537D01*
X78017482Y-63339814D01*
X78019325Y-63349807D01*
X78020244Y-63357758D01*
X78020316Y-63359860D01*
X78020089Y-63364465D01*
X78019460Y-63370823D01*
X78018541Y-63378172D01*
X78017448Y-63385749D01*
X78016293Y-63392792D01*
X78015192Y-63398540D01*
X78014257Y-63402230D01*
X78013849Y-63403114D01*
X78011889Y-63403206D01*
X78007185Y-63402551D01*
X78000146Y-63401243D01*
X77991184Y-63399375D01*
X77980709Y-63397043D01*
X77969132Y-63394340D01*
X77956864Y-63391360D01*
X77944315Y-63388197D01*
X77931897Y-63384945D01*
X77920020Y-63381698D01*
X77918793Y-63381353D01*
X77905392Y-63377587D01*
X77894183Y-63374507D01*
X77884619Y-63372038D01*
X77876151Y-63370103D01*
X77868230Y-63368626D01*
X77860308Y-63367529D01*
X77851837Y-63366736D01*
X77842269Y-63366171D01*
X77831054Y-63365757D01*
X77817644Y-63365417D01*
X77802334Y-63365093D01*
X77785240Y-63364708D01*
X77770910Y-63364289D01*
X77758844Y-63363782D01*
X77748541Y-63363131D01*
X77739498Y-63362281D01*
X77731215Y-63361176D01*
X77723190Y-63359761D01*
X77714922Y-63357981D01*
X77705909Y-63355780D01*
X77697004Y-63353462D01*
X77668135Y-63344378D01*
X77638449Y-63332208D01*
X77608046Y-63317000D01*
X77577024Y-63298804D01*
X77549853Y-63280752D01*
X77543507Y-63276268D01*
X77537034Y-63271595D01*
X77530180Y-63266537D01*
X77522695Y-63260899D01*
X77514325Y-63254487D01*
X77504819Y-63247105D01*
X77493925Y-63238558D01*
X77481391Y-63228650D01*
X77466965Y-63217186D01*
X77450395Y-63203971D01*
X77440056Y-63195711D01*
X77394585Y-63159360D01*
X77387266Y-63174437D01*
X77380713Y-63186899D01*
X77373303Y-63199245D01*
X77365516Y-63210770D01*
X77357835Y-63220768D01*
X77350741Y-63228534D01*
X77349631Y-63229578D01*
X77339486Y-63237572D01*
X77328771Y-63243344D01*
X77317241Y-63246893D01*
X77304649Y-63248214D01*
X77290750Y-63247305D01*
X77275296Y-63244163D01*
X77258043Y-63238786D01*
X77238743Y-63231169D01*
X77231851Y-63228149D01*
X77202443Y-63213566D01*
X77175361Y-63197223D01*
X77150730Y-63179232D01*
X77128676Y-63159704D01*
X77109324Y-63138750D01*
X77092800Y-63116480D01*
X77079353Y-63093253D01*
X77071956Y-63077232D01*
X77065886Y-63061011D01*
X77060921Y-63043824D01*
X77056838Y-63024901D01*
X77053557Y-63004515D01*
X77047860Y-62969626D01*
X77040840Y-62937311D01*
X77032343Y-62907095D01*
X77022213Y-62878499D01*
X77010294Y-62851049D01*
X76996431Y-62824267D01*
X76992542Y-62817446D01*
X76978664Y-62794814D01*
X76964038Y-62773585D01*
X76948157Y-62753117D01*
X76930512Y-62732767D01*
X76910595Y-62711893D01*
X76903102Y-62704452D01*
X76894558Y-62696167D01*
X76886302Y-62688392D01*
X76878058Y-62680909D01*
X76869550Y-62673500D01*
X76860504Y-62665946D01*
X76850642Y-62658031D01*
X76839690Y-62649536D01*
X76827372Y-62640242D01*
X76813413Y-62629933D01*
X76797536Y-62618389D01*
X76779466Y-62605394D01*
X76762916Y-62593570D01*
X76700432Y-62549288D01*
X76637981Y-62505562D01*
X76575327Y-62462239D01*
X76512239Y-62419165D01*
X76448481Y-62376188D01*
X76383822Y-62333155D01*
X76318026Y-62289913D01*
X76250860Y-62246310D01*
X76182092Y-62202193D01*
X76111486Y-62157408D01*
X76038810Y-62111804D01*
X75963831Y-62065227D01*
X75886313Y-62017525D01*
X75824275Y-61979643D01*
X75793597Y-61961011D01*
X75765468Y-61944018D01*
X75739679Y-61928544D01*
X75716024Y-61914473D01*
X75694296Y-61901687D01*
X75674290Y-61890067D01*
X75655799Y-61879496D01*
X75638615Y-61869856D01*
X75622532Y-61861029D01*
X75607344Y-61852898D01*
X75592845Y-61845345D01*
X75578826Y-61838252D01*
X75565083Y-61831501D01*
X75561013Y-61829539D01*
X75548035Y-61823373D01*
X75535686Y-61817656D01*
X75523653Y-61812268D01*
X75511621Y-61807093D01*
X75499278Y-61802010D01*
X75486310Y-61796903D01*
X75472403Y-61791652D01*
X75457246Y-61786139D01*
X75440523Y-61780245D01*
X75421922Y-61773852D01*
X75401129Y-61766843D01*
X75377832Y-61759097D01*
X75352803Y-61750854D01*
X75327997Y-61742672D01*
X75305983Y-61735316D01*
X75286427Y-61728665D01*
X75268996Y-61722597D01*
X75253354Y-61716991D01*
X75239169Y-61711726D01*
X75226107Y-61706680D01*
X75213834Y-61701732D01*
X75202017Y-61696760D01*
X75191374Y-61692111D01*
X75174943Y-61684612D01*
X75157651Y-61676350D01*
X75140045Y-61667612D01*
X75122673Y-61658684D01*
X75106082Y-61649854D01*
X75090820Y-61641407D01*
X75077434Y-61633630D01*
X75066472Y-61626811D01*
X75065779Y-61626356D01*
X75048100Y-61613012D01*
X75033287Y-61598118D01*
X75021313Y-61581628D01*
X75012150Y-61563494D01*
X75005774Y-61543669D01*
X75002156Y-61522107D01*
X75001411Y-61511586D01*
X75001279Y-61507809D01*
X75001224Y-61504008D01*
X75001271Y-61499951D01*
X75001444Y-61495405D01*
X75001768Y-61490137D01*
X75002265Y-61483913D01*
X75002960Y-61476501D01*
X75003877Y-61467668D01*
X75005040Y-61457181D01*
X75006473Y-61444806D01*
X75008200Y-61430312D01*
X75010244Y-61413465D01*
X75012631Y-61394031D01*
X75015383Y-61371779D01*
X75017895Y-61351550D01*
X75023365Y-61307458D01*
X75028569Y-61265349D01*
X75033499Y-61225298D01*
X75038144Y-61187379D01*
X75042497Y-61151669D01*
X75046549Y-61118244D01*
X75050290Y-61087178D01*
X75053712Y-61058547D01*
X75056805Y-61032427D01*
X75059561Y-61008894D01*
X75061971Y-60988022D01*
X75064027Y-60969888D01*
X75065718Y-60954567D01*
X75067036Y-60942134D01*
X75067972Y-60932665D01*
X75068518Y-60926236D01*
X75068664Y-60922922D01*
X75068541Y-60922473D01*
X75067310Y-60924193D01*
X75064463Y-60928378D01*
X75060174Y-60934762D01*
X75054621Y-60943080D01*
X75047977Y-60953065D01*
X75040419Y-60964453D01*
X75032123Y-60976976D01*
X75023262Y-60990370D01*
X75014014Y-61004369D01*
X75004553Y-61018708D01*
X74995056Y-61033119D01*
X74985696Y-61047338D01*
X74976651Y-61061099D01*
X74968094Y-61074136D01*
X74960203Y-61086184D01*
X74953152Y-61096976D01*
X74947117Y-61106247D01*
X74943188Y-61112312D01*
X74933284Y-61127743D01*
X74923145Y-61143712D01*
X74912970Y-61159891D01*
X74902962Y-61175954D01*
X74893318Y-61191571D01*
X74884241Y-61206415D01*
X74875931Y-61220160D01*
X74868588Y-61232476D01*
X74862411Y-61243036D01*
X74857603Y-61251513D01*
X74854362Y-61257578D01*
X74854325Y-61257651D01*
X74849587Y-61268323D01*
X74844474Y-61282193D01*
X74839001Y-61299213D01*
X74833184Y-61319339D01*
X74829333Y-61333649D01*
X74824660Y-61351276D01*
X74820579Y-61366129D01*
X74816927Y-61378611D01*
X74813538Y-61389127D01*
X74810250Y-61398078D01*
X74806896Y-61405869D01*
X74803313Y-61412903D01*
X74799336Y-61419584D01*
X74794800Y-61426314D01*
X74789542Y-61433496D01*
X74787534Y-61436148D01*
X74783081Y-61442017D01*
X74778782Y-61447746D01*
X74774325Y-61453761D01*
X74769399Y-61460486D01*
X74763695Y-61468347D01*
X74756902Y-61477770D01*
X74748709Y-61489180D01*
X74743130Y-61496963D01*
X74739083Y-61502684D01*
X74735646Y-61507827D01*
X74732694Y-61512762D01*
X74730100Y-61517861D01*
X74727739Y-61523496D01*
X74725485Y-61530038D01*
X74723211Y-61537858D01*
X74720791Y-61547328D01*
X74718100Y-61558819D01*
X74715012Y-61572702D01*
X74711399Y-61589348D01*
X74710743Y-61592391D01*
X74700514Y-61640002D01*
X74690948Y-61684871D01*
X74681975Y-61727364D01*
X74673526Y-61767843D01*
X74665530Y-61806675D01*
X74657919Y-61844223D01*
X74650624Y-61880851D01*
X74643573Y-61916923D01*
X74636699Y-61952804D01*
X74629931Y-61988858D01*
X74623201Y-62025450D01*
X74616438Y-62062943D01*
X74609573Y-62101702D01*
X74602536Y-62142092D01*
X74595259Y-62184475D01*
X74587671Y-62229217D01*
X74579703Y-62276683D01*
X74576437Y-62296252D01*
X74567951Y-62347567D01*
X74560031Y-62396335D01*
X74552643Y-62442856D01*
X74545752Y-62487432D01*
X74539325Y-62530364D01*
X74533326Y-62571956D01*
X74527723Y-62612507D01*
X74522479Y-62652319D01*
X74517563Y-62691695D01*
X74512938Y-62730935D01*
X74508572Y-62770342D01*
X74504429Y-62810217D01*
X74500477Y-62850861D01*
X74496679Y-62892576D01*
X74493003Y-62935665D01*
X74489415Y-62980427D01*
X74485879Y-63027165D01*
X74482362Y-63076181D01*
X74478829Y-63127776D01*
X74475247Y-63182251D01*
X74474255Y-63197679D01*
X74472962Y-63217784D01*
X74471549Y-63239577D01*
X74470065Y-63262330D01*
X74468558Y-63285314D01*
X74467074Y-63307800D01*
X74465663Y-63329062D01*
X74464372Y-63348369D01*
X74463466Y-63361798D01*
X74462271Y-63379529D01*
X74461292Y-63394466D01*
X74460517Y-63407073D01*
X74459934Y-63417812D01*
X74459530Y-63427147D01*
X74459293Y-63435542D01*
X74459210Y-63443460D01*
X74459268Y-63451366D01*
X74459457Y-63459722D01*
X74459762Y-63468992D01*
X74460171Y-63479640D01*
X74460250Y-63481593D01*
X74460955Y-63498187D01*
X74461655Y-63512017D01*
X74462402Y-63523587D01*
X74463249Y-63533398D01*
X74464250Y-63541952D01*
X74465459Y-63549753D01*
X74466928Y-63557302D01*
X74468712Y-63565101D01*
X74469450Y-63568101D01*
X74476993Y-63592332D01*
X74487084Y-63614622D01*
X74499839Y-63635215D01*
X74506014Y-63643408D01*
X74510453Y-63648807D01*
X74514866Y-63653706D01*
X74519693Y-63658495D01*
X74525372Y-63663564D01*
X74532344Y-63669302D01*
X74541048Y-63676100D01*
X74551924Y-63684347D01*
X74553440Y-63685486D01*
X74563502Y-63693238D01*
X74574649Y-63702155D01*
X74585829Y-63711375D01*
X74595988Y-63720036D01*
X74600797Y-63724282D01*
X74615976Y-63737447D01*
X74629905Y-63748468D01*
X74643270Y-63757829D01*
X74656758Y-63766017D01*
X74669066Y-63772533D01*
X74685909Y-63780224D01*
X74703762Y-63786941D01*
X74723018Y-63792782D01*
X74744069Y-63797845D01*
X74767309Y-63802228D01*
X74793130Y-63806029D01*
X74812273Y-63808322D01*
X74838097Y-63811471D01*
X74865098Y-63815317D01*
X74892496Y-63819721D01*
X74919510Y-63824547D01*
X74945362Y-63829657D01*
X74969270Y-63834914D01*
X74984322Y-63838580D01*
X75000241Y-63843592D01*
X75013227Y-63849813D01*
X75023427Y-63857376D01*
X75030993Y-63866414D01*
X75036073Y-63877060D01*
X75038416Y-63886627D01*
X75039165Y-63899210D01*
X75037165Y-63911353D01*
X75032322Y-63923223D01*
X75024543Y-63934983D01*
X75013736Y-63946798D01*
X74999807Y-63958833D01*
X74995818Y-63961902D01*
X74975221Y-63975545D01*
X74953768Y-63986111D01*
X74933117Y-63993131D01*
X74927440Y-63994599D01*
X74922374Y-63995711D01*
X74917303Y-63996523D01*
X74911610Y-63997094D01*
X74904677Y-63997481D01*
X74895889Y-63997740D01*
X74884627Y-63997928D01*
X74880860Y-63997977D01*
X74870528Y-63998051D01*
X74860629Y-63997984D01*
X74850655Y-63997754D01*
X74840096Y-63997333D01*
X74828444Y-63996698D01*
X74815189Y-63995822D01*
X74799821Y-63994682D01*
X74781833Y-63993252D01*
X74777163Y-63992871D01*
X74734563Y-63989373D01*
X74695060Y-63986119D01*
X74658494Y-63983094D01*
X74624707Y-63980279D01*
X74593540Y-63977660D01*
X74564833Y-63975218D01*
X74538428Y-63972938D01*
X74514166Y-63970803D01*
X74491887Y-63968797D01*
X74471433Y-63966903D01*
X74452645Y-63965104D01*
X74435363Y-63963384D01*
X74419429Y-63961727D01*
X74404684Y-63960115D01*
X74390968Y-63958533D01*
X74378123Y-63956963D01*
X74365990Y-63955390D01*
X74354409Y-63953797D01*
X74343223Y-63952166D01*
X74332271Y-63950482D01*
X74321395Y-63948729D01*
X74310435Y-63946889D01*
X74299234Y-63944946D01*
X74287631Y-63942883D01*
X74275503Y-63940691D01*
X74257665Y-63937262D01*
X74242654Y-63933914D01*
X74230040Y-63930476D01*
X74219394Y-63926776D01*
X74210287Y-63922642D01*
X74202290Y-63917904D01*
X74194972Y-63912390D01*
X74187905Y-63905929D01*
X74187567Y-63905595D01*
X74180451Y-63897831D01*
X74174544Y-63889665D01*
X74169544Y-63880487D01*
X74165149Y-63869684D01*
X74161060Y-63856646D01*
X74158319Y-63846272D01*
X74153956Y-63830024D01*
X74149545Y-63816282D01*
X74144794Y-63804294D01*
X74139413Y-63793311D01*
X74134375Y-63784607D01*
X74124064Y-63769395D01*
X74112566Y-63755506D01*
X74099367Y-63742429D01*
X74083954Y-63729650D01*
X74067512Y-63717808D01*
X74053463Y-63707267D01*
X74041289Y-63695918D01*
X74030829Y-63683447D01*
X74021922Y-63669538D01*
X74014408Y-63653878D01*
X74008127Y-63636152D01*
X74002919Y-63616043D01*
X73998624Y-63593239D01*
X73996423Y-63578173D01*
X73995116Y-63567604D01*
X73994140Y-63557746D01*
X73993452Y-63547805D01*
X73993008Y-63536984D01*
X73992766Y-63524487D01*
X73992681Y-63509586D01*
X73992955Y-63488139D01*
X73993874Y-63467122D01*
X73995502Y-63446081D01*
X73997902Y-63424557D01*
X74001136Y-63402096D01*
X74005269Y-63378239D01*
X74010364Y-63352531D01*
X74016484Y-63324514D01*
X74021090Y-63304642D01*
X74038965Y-63229393D01*
X74057732Y-63151145D01*
X74077359Y-63070030D01*
X74097814Y-62986181D01*
X74107743Y-62945713D01*
X74118785Y-62900728D01*
X74129068Y-62858706D01*
X74138638Y-62819446D01*
X74147543Y-62782746D01*
X74155828Y-62748405D01*
X74163541Y-62716221D01*
X74170728Y-62685993D01*
X74177435Y-62657520D01*
X74183709Y-62630598D01*
X74189598Y-62605028D01*
X74195146Y-62580607D01*
X74200401Y-62557133D01*
X74205410Y-62534406D01*
X74210219Y-62512224D01*
X74214875Y-62490384D01*
X74219424Y-62468686D01*
X74223913Y-62446928D01*
X74228388Y-62424908D01*
X74230126Y-62416279D01*
X74239644Y-62367762D01*
X74249184Y-62316885D01*
X74258762Y-62263554D01*
X74268393Y-62207671D01*
X74278093Y-62149140D01*
X74287878Y-62087865D01*
X74297762Y-62023750D01*
X74307762Y-61956698D01*
X74317892Y-61886613D01*
X74328170Y-61813399D01*
X74332065Y-61785116D01*
X74333263Y-61776317D01*
X74334847Y-61764602D01*
X74336780Y-61750246D01*
X74339024Y-61733525D01*
X74341545Y-61714715D01*
X74344304Y-61694091D01*
X74347266Y-61671928D01*
X74350393Y-61648502D01*
X74353649Y-61624088D01*
X74356997Y-61598961D01*
X74360401Y-61573398D01*
X74363825Y-61547673D01*
X74367230Y-61522061D01*
X74370581Y-61496839D01*
X74373842Y-61472282D01*
X74376975Y-61448664D01*
X74379943Y-61426262D01*
X74382711Y-61405350D01*
X74385241Y-61386205D01*
X74387498Y-61369102D01*
X74389443Y-61354315D01*
X74391041Y-61342121D01*
X74392255Y-61332795D01*
X74392575Y-61330320D01*
X74394724Y-61312282D01*
X74396726Y-61292607D01*
X74398605Y-61270979D01*
X74400389Y-61247080D01*
X74402101Y-61220595D01*
X74403766Y-61191207D01*
X74404009Y-61186614D01*
X74405567Y-61157848D01*
X74407100Y-61131985D01*
X74408666Y-61108663D01*
X74410327Y-61087521D01*
X74412142Y-61068197D01*
X74414170Y-61050330D01*
X74416472Y-61033557D01*
X74419107Y-61017518D01*
X74422135Y-61001849D01*
X74425617Y-60986191D01*
X74429612Y-60970180D01*
X74434179Y-60953455D01*
X74439380Y-60935655D01*
X74445273Y-60916418D01*
X74451918Y-60895382D01*
X74452520Y-60893499D01*
X74458585Y-60875579D01*
X74464859Y-60859428D01*
X74471618Y-60844662D01*
X74479136Y-60830900D01*
X74487689Y-60817757D01*
X74497553Y-60804852D01*
X74509003Y-60791801D01*
X74522314Y-60778223D01*
X74537764Y-60763733D01*
X74555626Y-60747949D01*
X74559971Y-60744209D01*
X74585877Y-60721442D01*
X74611427Y-60697820D01*
X74636806Y-60673137D01*
X74662197Y-60647187D01*
X74687785Y-60619764D01*
X74713753Y-60590662D01*
X74740285Y-60559674D01*
X74767566Y-60526595D01*
X74795779Y-60491218D01*
X74825109Y-60453337D01*
X74855053Y-60413665D01*
X74864709Y-60400514D01*
X74875119Y-60385950D01*
X74886101Y-60370255D01*
X74897472Y-60353711D01*
X74909049Y-60336602D01*
X74920650Y-60319210D01*
X74932092Y-60301816D01*
X74943193Y-60284705D01*
X74953770Y-60268157D01*
X74963639Y-60252457D01*
X74972619Y-60237886D01*
X74980526Y-60224726D01*
X74987178Y-60213261D01*
X74992393Y-60203772D01*
X74995987Y-60196543D01*
X74997018Y-60194126D01*
X74999423Y-60187946D01*
X75001294Y-60183034D01*
X75002367Y-60180092D01*
X75002520Y-60179576D01*
X75000951Y-60179445D01*
X74996501Y-60179323D01*
X74989555Y-60179213D01*
X74980498Y-60179121D01*
X74969715Y-60179050D01*
X74957591Y-60179004D01*
X74949855Y-60178991D01*
X74914295Y-60178846D01*
X74881077Y-60178482D01*
X74850305Y-60177905D01*
X74822081Y-60177119D01*
X74796509Y-60176128D01*
X74773693Y-60174938D01*
X74753736Y-60173552D01*
X74736741Y-60171975D01*
X74722811Y-60170212D01*
X74713035Y-60168482D01*
X74700115Y-60164666D01*
X74689241Y-60159253D01*
X74680697Y-60152471D01*
X74674769Y-60144548D01*
X74671741Y-60135711D01*
X74671698Y-60135432D01*
X74671229Y-60130450D01*
X74671384Y-60125285D01*
X74672272Y-60119734D01*
X74674003Y-60113589D01*
X74676688Y-60106646D01*
X74680436Y-60098700D01*
X74685357Y-60089544D01*
X74691561Y-60078973D01*
X74699159Y-60066782D01*
X74708260Y-60052766D01*
X74718974Y-60036719D01*
X74731411Y-60018435D01*
X74744506Y-59999409D01*
X74756851Y-59981475D01*
X74767344Y-59966080D01*
X74776050Y-59953120D01*
X74783037Y-59942493D01*
X74788371Y-59934095D01*
X74792119Y-59927822D01*
X74794348Y-59923571D01*
X74795124Y-59921239D01*
X74795126Y-59921168D01*
X74794749Y-59919457D01*
X74793376Y-59916670D01*
X74790653Y-59912119D01*
X74789264Y-59909904D01*
X74787720Y-59910364D01*
X74783390Y-59911867D01*
X74776549Y-59914313D01*
X74767471Y-59917603D01*
X74756429Y-59921636D01*
X74743697Y-59926312D01*
X74729550Y-59931532D01*
X74714261Y-59937196D01*
X74702628Y-59941519D01*
X74672811Y-59952612D01*
X74645888Y-59962624D01*
X74621691Y-59971610D01*
X74600053Y-59979629D01*
X74580807Y-59986738D01*
X74563785Y-59992993D01*
X74548820Y-59998453D01*
X74535746Y-60003174D01*
X74524394Y-60007215D01*
X74514598Y-60010632D01*
X74506190Y-60013483D01*
X74499003Y-60015824D01*
X74492869Y-60017714D01*
X74487623Y-60019210D01*
X74483095Y-60020369D01*
X74479120Y-60021248D01*
X74475529Y-60021905D01*
X74472156Y-60022397D01*
X74468833Y-60022782D01*
X74465394Y-60023116D01*
X74464329Y-60023214D01*
X74452788Y-60024267D01*
X74450040Y-60008886D01*
X74448787Y-60000834D01*
X74447833Y-59992741D01*
X74447333Y-59985984D01*
X74447293Y-59984181D01*
X74447916Y-59977576D01*
X74449817Y-59968857D01*
X74453046Y-59957875D01*
X74457650Y-59944481D01*
X74463678Y-59928526D01*
X74471178Y-59909861D01*
X74472620Y-59906366D01*
X74485114Y-59876194D01*
X74481569Y-59873323D01*
X74480579Y-59872617D01*
X74479479Y-59872272D01*
X74478000Y-59872464D01*
X74475869Y-59873367D01*
X74472819Y-59875155D01*
X74468578Y-59878003D01*
X74462877Y-59882083D01*
X74455445Y-59887572D01*
X74446012Y-59894643D01*
X74434307Y-59903470D01*
X74431223Y-59905800D01*
X74412562Y-59919916D01*
X74396073Y-59932444D01*
X74381302Y-59943740D01*
X74367796Y-59954157D01*
X74355101Y-59964052D01*
X74342763Y-59973777D01*
X74330328Y-59983689D01*
X74317343Y-59994142D01*
X74303353Y-60005491D01*
X74294606Y-60012619D01*
X74275414Y-60028208D01*
X74258442Y-60041823D01*
X74243442Y-60053632D01*
X74230169Y-60063804D01*
X74218375Y-60072505D01*
X74207815Y-60079904D01*
X74198240Y-60086168D01*
X74189406Y-60091465D01*
X74181064Y-60095964D01*
X74172969Y-60099831D01*
X74164874Y-60103235D01*
X74157225Y-60106098D01*
X74142798Y-60110493D01*
X74128253Y-60113567D01*
X74114196Y-60115274D01*
X74101234Y-60115566D01*
X74089971Y-60114396D01*
X74081502Y-60111934D01*
X74071875Y-60106099D01*
X74064378Y-60097865D01*
X74059087Y-60087375D01*
X74056079Y-60074770D01*
X74055368Y-60063712D01*
X74055669Y-60055467D01*
X74056579Y-60044537D01*
X74058109Y-60030840D01*
X74060270Y-60014296D01*
X74063072Y-59994820D01*
X74066527Y-59972332D01*
X74070645Y-59946750D01*
X74071682Y-59940447D01*
X74074709Y-59921795D01*
X74077133Y-59906088D01*
X74078987Y-59893069D01*
X74080307Y-59882479D01*
X74081126Y-59874061D01*
X74081477Y-59867556D01*
X74081496Y-59865928D01*
X74081423Y-59859354D01*
X74081227Y-59854223D01*
X74080942Y-59851255D01*
X74080765Y-59850804D01*
X74079296Y-59851678D01*
X74075383Y-59854180D01*
X74069303Y-59858130D01*
X74061331Y-59863346D01*
X74051743Y-59869648D01*
X74040814Y-59876855D01*
X74028821Y-59884786D01*
X74018886Y-59891370D01*
X74005678Y-59900080D01*
X73992819Y-59908462D01*
X73980667Y-59916289D01*
X73969579Y-59923336D01*
X73959913Y-59929375D01*
X73952025Y-59934182D01*
X73946273Y-59937530D01*
X73943976Y-59938754D01*
X73928778Y-59945192D01*
X73915036Y-59948730D01*
X73902761Y-59949368D01*
X73891964Y-59947107D01*
X73882654Y-59941947D01*
X73876977Y-59936551D01*
X73873237Y-59931154D01*
X73869526Y-59923567D01*
X73865810Y-59913660D01*
X73862056Y-59901303D01*
X73858233Y-59886367D01*
X73854307Y-59868720D01*
X73850246Y-59848233D01*
X73846016Y-59824776D01*
X73841585Y-59798219D01*
X73840640Y-59792329D01*
X73838650Y-59780155D01*
X73836680Y-59768684D01*
X73834824Y-59758417D01*
X73833175Y-59749857D01*
X73831826Y-59743504D01*
X73830871Y-59739859D01*
X73830844Y-59739782D01*
X73826628Y-59731183D01*
X73821021Y-59725508D01*
X73813870Y-59722677D01*
X73805027Y-59722609D01*
X73800253Y-59723507D01*
X73795367Y-59724985D01*
X73787670Y-59727735D01*
X73777329Y-59731689D01*
X73764511Y-59736776D01*
X73749382Y-59742929D01*
X73732110Y-59750078D01*
X73712861Y-59758154D01*
X73691802Y-59767087D01*
X73669100Y-59776809D01*
X73644921Y-59787250D01*
X73619433Y-59798342D01*
X73613886Y-59800766D01*
X73598137Y-59807200D01*
X73584637Y-59811622D01*
X73573042Y-59814005D01*
X73563009Y-59814324D01*
X73554193Y-59812551D01*
X73546250Y-59808661D01*
X73538836Y-59802626D01*
X73531621Y-59794438D01*
X73529692Y-59791937D01*
X73527841Y-59789446D01*
X73525942Y-59786743D01*
X73523868Y-59783610D01*
X73521491Y-59779826D01*
X73518684Y-59775173D01*
X73515319Y-59769429D01*
X73511270Y-59762376D01*
X73506409Y-59753793D01*
X73500608Y-59743461D01*
X73493741Y-59731160D01*
X73485681Y-59716670D01*
X73476299Y-59699771D01*
X73465468Y-59680243D01*
X73464965Y-59679337D01*
X73448286Y-59649314D01*
X73432594Y-59621184D01*
X73417942Y-59595041D01*
X73404383Y-59570977D01*
X73391970Y-59549083D01*
X73380757Y-59529454D01*
X73370795Y-59512181D01*
X73362138Y-59497357D01*
X73354840Y-59485075D01*
X73348953Y-59475427D01*
X73344530Y-59468506D01*
X73342593Y-59465690D01*
X73339328Y-59461342D01*
X73334687Y-59455404D01*
X73329013Y-59448292D01*
X73322651Y-59440424D01*
X73315944Y-59432217D01*
X73309237Y-59424088D01*
X73302874Y-59416453D01*
X73297199Y-59409731D01*
X73292555Y-59404338D01*
X73289287Y-59400692D01*
X73287785Y-59399234D01*
X73285369Y-59399032D01*
X73281255Y-59399688D01*
X73280129Y-59399970D01*
X73273968Y-59401629D01*
X73275844Y-59445398D01*
X73276432Y-59458026D01*
X73277097Y-59470474D01*
X73277799Y-59482096D01*
X73278496Y-59492246D01*
X73279148Y-59500279D01*
X73279596Y-59504642D01*
X73280731Y-59512408D01*
X73282626Y-59523275D01*
X73285264Y-59537173D01*
X73288633Y-59554028D01*
X73292715Y-59573771D01*
X73297497Y-59596329D01*
X73302964Y-59621631D01*
X73309101Y-59649605D01*
X73315892Y-59680179D01*
X73319910Y-59698116D01*
X73326510Y-59727510D01*
X73332432Y-59753919D01*
X73337717Y-59777549D01*
X73342404Y-59798601D01*
X73346533Y-59817279D01*
X73350144Y-59833785D01*
X73353277Y-59848323D01*
X73355971Y-59861095D01*
X73358267Y-59872305D01*
X73360203Y-59882155D01*
X73361821Y-59890849D01*
X73363159Y-59898589D01*
X73364257Y-59905578D01*
X73365156Y-59912020D01*
X73365895Y-59918117D01*
X73366514Y-59924073D01*
X73367052Y-59930090D01*
X73367550Y-59936371D01*
X73368048Y-59943119D01*
X73368102Y-59943873D01*
X73368820Y-59954363D01*
X73369227Y-59962340D01*
X73369309Y-59968545D01*
X73369047Y-59973719D01*
X73368426Y-59978602D01*
X73367429Y-59983934D01*
X73367172Y-59985172D01*
X73365715Y-59991866D01*
X73364493Y-59996103D01*
X73363086Y-59998624D01*
X73361075Y-60000172D01*
X73358041Y-60001490D01*
X73357919Y-60001538D01*
X73351579Y-60004028D01*
X73307741Y-59947421D01*
X73294445Y-59930232D01*
X73282877Y-59915224D01*
X73272747Y-59902009D01*
X73263765Y-59890199D01*
X73255641Y-59879407D01*
X73248086Y-59869244D01*
X73240809Y-59859322D01*
X73233521Y-59849255D01*
X73225931Y-59838654D01*
X73217751Y-59827132D01*
X73216014Y-59824675D01*
X73204228Y-59808555D01*
X73193635Y-59795256D01*
X73184090Y-59784624D01*
X73175447Y-59776502D01*
X73167560Y-59770734D01*
X73163710Y-59768614D01*
X73157044Y-59765844D01*
X73149500Y-59763446D01*
X73141690Y-59761521D01*
X73134226Y-59760169D01*
X73127720Y-59759490D01*
X73122785Y-59759584D01*
X73120033Y-59760552D01*
X73119667Y-59761396D01*
X73119979Y-59764223D01*
X73120905Y-59768571D01*
X73122490Y-59774578D01*
X73124782Y-59782382D01*
X73127824Y-59792121D01*
X73131663Y-59803934D01*
X73136345Y-59817957D01*
X73141914Y-59834329D01*
X73148418Y-59853189D01*
X73155901Y-59874674D01*
X73164408Y-59898923D01*
X73173987Y-59926073D01*
X73175955Y-59931638D01*
X73183697Y-59953520D01*
X73191530Y-59975666D01*
X73199329Y-59997723D01*
X73206970Y-60019338D01*
X73214328Y-60040157D01*
X73221277Y-60059828D01*
X73227694Y-60077996D01*
X73233453Y-60094309D01*
X73238430Y-60108413D01*
X73242499Y-60119956D01*
X73244042Y-60124335D01*
X73249367Y-60139452D01*
X73255070Y-60155630D01*
X73260880Y-60172100D01*
X73266527Y-60188094D01*
X73271738Y-60202844D01*
X73276244Y-60215583D01*
X73277760Y-60219866D01*
X73291931Y-60259875D01*
X73291629Y-60280862D01*
X73291444Y-60288821D01*
X73291154Y-60295551D01*
X73290796Y-60300405D01*
X73290409Y-60302734D01*
X73290353Y-60302823D01*
X73288255Y-60302980D01*
X73283667Y-60302251D01*
X73277197Y-60300796D01*
X73269451Y-60298774D01*
X73261033Y-60296342D01*
X73252551Y-60293661D01*
X73244610Y-60290889D01*
X73244094Y-60290697D01*
X73218674Y-60279801D01*
X73194050Y-60266336D01*
X73169750Y-60250032D01*
X73158023Y-60241087D01*
X73149926Y-60234357D01*
X73141182Y-60226450D01*
X73131615Y-60217179D01*
X73121049Y-60206357D01*
X73109307Y-60193797D01*
X73096213Y-60179312D01*
X73081591Y-60162715D01*
X73065265Y-60143820D01*
X73054902Y-60131683D01*
X73037860Y-60111664D01*
X73022755Y-60093961D01*
X73009423Y-60078394D01*
X72997698Y-60064780D01*
X72987416Y-60052938D01*
X72978411Y-60042686D01*
X72970518Y-60033841D01*
X72963572Y-60026222D01*
X72957408Y-60019647D01*
X72951860Y-60013935D01*
X72946764Y-60008903D01*
X72941954Y-60004370D01*
X72937265Y-60000153D01*
X72932532Y-59996071D01*
X72929210Y-59993285D01*
X72921963Y-59987328D01*
X72915539Y-59982177D01*
X72910374Y-59978170D01*
X72906900Y-59975643D01*
X72905600Y-59974913D01*
X72904508Y-59976324D01*
X72904089Y-59979461D01*
X72903828Y-59982620D01*
X72903109Y-59988316D01*
X72902028Y-59995866D01*
X72900680Y-60004587D01*
X72899921Y-60009263D01*
X72897661Y-60023525D01*
X72896062Y-60035260D01*
X72895104Y-60045136D01*
X72894763Y-60053821D01*
X72895016Y-60061981D01*
X72895842Y-60070284D01*
X72897218Y-60079396D01*
X72897502Y-60081060D01*
X72899595Y-60092997D01*
X72902259Y-60107949D01*
X72905459Y-60125722D01*
X72909159Y-60146122D01*
X72913323Y-60168953D01*
X72917916Y-60194023D01*
X72922901Y-60221137D01*
X72928242Y-60250100D01*
X72933905Y-60280718D01*
X72939852Y-60312798D01*
X72946049Y-60346145D01*
X72952459Y-60380564D01*
X72959047Y-60415863D01*
X72965777Y-60451845D01*
X72972612Y-60488318D01*
X72972646Y-60488498D01*
X72980067Y-60528200D01*
X72986898Y-60565048D01*
X72993133Y-60599011D01*
X72998767Y-60630059D01*
X73003795Y-60658163D01*
X73008212Y-60683291D01*
X73012013Y-60705414D01*
X73015192Y-60724502D01*
X73017745Y-60740525D01*
X73019665Y-60753452D01*
X73020948Y-60763254D01*
X73021588Y-60769899D01*
X73021666Y-60771992D01*
X73021384Y-60774041D01*
X73019980Y-60774865D01*
X73016620Y-60774718D01*
X73013909Y-60774355D01*
X72986024Y-60769186D01*
X72958830Y-60761834D01*
X72932872Y-60752500D01*
X72908699Y-60741386D01*
X72886856Y-60728694D01*
X72883113Y-60726188D01*
X72865014Y-60712785D01*
X72848876Y-60698560D01*
X72833897Y-60682732D01*
X72819274Y-60664520D01*
X72818105Y-60662949D01*
X72812475Y-60655087D01*
X72805630Y-60645123D01*
X72798027Y-60633759D01*
X72790123Y-60621697D01*
X72782377Y-60609640D01*
X72775246Y-60598291D01*
X72769187Y-60588352D01*
X72766175Y-60583213D01*
X72752513Y-60561436D01*
X72737824Y-60542194D01*
X72721557Y-60524908D01*
X72703162Y-60508997D01*
X72682090Y-60493881D01*
X72680676Y-60492952D01*
X72674715Y-60489198D01*
X72667669Y-60484980D01*
X72660129Y-60480625D01*
X72652687Y-60476461D01*
X72645933Y-60472816D01*
X72640458Y-60470017D01*
X72636853Y-60468392D01*
X72635865Y-60468117D01*
X72635652Y-60469699D01*
X72635450Y-60474272D01*
X72635263Y-60481563D01*
X72635095Y-60491297D01*
X72634948Y-60503201D01*
X72634827Y-60516999D01*
X72634733Y-60532418D01*
X72634670Y-60549182D01*
X72634642Y-60567019D01*
X72634640Y-60571782D01*
X72634622Y-60589853D01*
X72634568Y-60606923D01*
X72634481Y-60622717D01*
X72634366Y-60636963D01*
X72634226Y-60649385D01*
X72634063Y-60659710D01*
X72633881Y-60667662D01*
X72633682Y-60672968D01*
X72633472Y-60675353D01*
X72633416Y-60675461D01*
X72631107Y-60674951D01*
X72626541Y-60673626D01*
X72620542Y-60671756D01*
X72613933Y-60669608D01*
X72607538Y-60667452D01*
X72602181Y-60665554D01*
X72598686Y-60664184D01*
X72598401Y-60664054D01*
X72596078Y-60662130D01*
X72592005Y-60657830D01*
X72586376Y-60651400D01*
X72579386Y-60643089D01*
X72571229Y-60633142D01*
X72562101Y-60621808D01*
X72552195Y-60609334D01*
X72541706Y-60595967D01*
X72530830Y-60581955D01*
X72519760Y-60567543D01*
X72508691Y-60552981D01*
X72497818Y-60538514D01*
X72487336Y-60524391D01*
X72477439Y-60510859D01*
X72473285Y-60505107D01*
X72462314Y-60489996D01*
X72452845Y-60477489D01*
X72444561Y-60467481D01*
X72437147Y-60459863D01*
X72430286Y-60454528D01*
X72423659Y-60451370D01*
X72416952Y-60450280D01*
X72409846Y-60451152D01*
X72402025Y-60453878D01*
X72393172Y-60458351D01*
X72382971Y-60464465D01*
X72372708Y-60471062D01*
X72360604Y-60478503D01*
X72350192Y-60483806D01*
X72340887Y-60487180D01*
X72332107Y-60488832D01*
X72323270Y-60488970D01*
X72322555Y-60488923D01*
X72313453Y-60487461D01*
X72304938Y-60484266D01*
X72296696Y-60479085D01*
X72288413Y-60471664D01*
X72279774Y-60461751D01*
X72270465Y-60449091D01*
X72267285Y-60444407D01*
X72250743Y-60418271D01*
X72235548Y-60391311D01*
X72221469Y-60363035D01*
X72208275Y-60332949D01*
X72195736Y-60300564D01*
X72184222Y-60267224D01*
X72167305Y-60212305D01*
X72151705Y-60154926D01*
X72137536Y-60095660D01*
X72124910Y-60035083D01*
X72113941Y-59973771D01*
X72104743Y-59912298D01*
X72097428Y-59851239D01*
X72093167Y-59805079D01*
X72092312Y-59792235D01*
X72091557Y-59776683D01*
X72090908Y-59758983D01*
X72090373Y-59739691D01*
X72089958Y-59719367D01*
X72089670Y-59698568D01*
X72089516Y-59677852D01*
X72089503Y-59657776D01*
X72089636Y-59638899D01*
X72089924Y-59621779D01*
X72090373Y-59606973D01*
X72090684Y-59600135D01*
X72096722Y-59510614D01*
X72105419Y-59421243D01*
X72116819Y-59331743D01*
X72130966Y-59241834D01*
X72147903Y-59151233D01*
X72167673Y-59059661D01*
X72185817Y-58984486D01*
X72212282Y-58885975D01*
X72241502Y-58789187D01*
X72273512Y-58694036D01*
X72308344Y-58600440D01*
X72346034Y-58508314D01*
X72386616Y-58417573D01*
X72430123Y-58328134D01*
X72476589Y-58239913D01*
X72516234Y-58169609D01*
X72567866Y-58083908D01*
X72622002Y-58000301D01*
X72678648Y-57918784D01*
X72737806Y-57839353D01*
X72799481Y-57762001D01*
X72863677Y-57686726D01*
X72930398Y-57613521D01*
X72999648Y-57542382D01*
X73071431Y-57473304D01*
X73145751Y-57406282D01*
X73196708Y-57362743D01*
X73273346Y-57300763D01*
X73351828Y-57241448D01*
X73432087Y-57184839D01*
X73514053Y-57130976D01*
X73597660Y-57079901D01*
X73682840Y-57031657D01*
X73769525Y-56986283D01*
X73857646Y-56943821D01*
X73947137Y-56904313D01*
X73950855Y-56902749D01*
X74029690Y-56870979D01*
X74109967Y-56841314D01*
X74191841Y-56813712D01*
X74275462Y-56788133D01*
X74360984Y-56764535D01*
X74448559Y-56742879D01*
X74538339Y-56723123D01*
X74630478Y-56705227D01*
X74725127Y-56689150D01*
X74783695Y-56680286D01*
X74848390Y-56671295D01*
X74911861Y-56663231D01*
X74974716Y-56656036D01*
X75037568Y-56649654D01*
X75101026Y-56644028D01*
X75165700Y-56639101D01*
X75232201Y-56634815D01*
X75301140Y-56631115D01*
X75321775Y-56630139D01*
X75333029Y-56629717D01*
X75347178Y-56629341D01*
X75363884Y-56629012D01*
X75382804Y-56628730D01*
X75403601Y-56628494D01*
X75425932Y-56628305D01*
X75449459Y-56628163D01*
X75473841Y-56628067D01*
X75498738Y-56628017D01*
X75523809Y-56628014D01*
X75548714Y-56628058D01*
X75573114Y-56628148D01*
X75596668Y-56628285D01*
X75619036Y-56628469D01*
X75639878Y-56628699D01*
X75658853Y-56628976D01*
X75675622Y-56629299D01*
X75689844Y-56629669D01*
X75701179Y-56630086D01*
X75702269Y-56630136D01*
X75786862Y-56634683D01*
X75868691Y-56640209D01*
X75948126Y-56646757D01*
X76025534Y-56654375D01*
X76101283Y-56663107D01*
X76175739Y-56672999D01*
X76249271Y-56684097D01*
X76322247Y-56696445D01*
X76395034Y-56710090D01*
X76465414Y-56724523D01*
X76561761Y-56746149D01*
X76655250Y-56769269D01*
X76745937Y-56793905D01*
X76833879Y-56820077D01*
X76919133Y-56847805D01*
X77001754Y-56877112D01*
X77081800Y-56908016D01*
X77159326Y-56940539D01*
X77234389Y-56974702D01*
X77307046Y-57010525D01*
X77377352Y-57048028D01*
X77427555Y-57076673D01*
X77452855Y-57091727D01*
X77479370Y-57107907D01*
X77507262Y-57125320D01*
X77536691Y-57144070D01*
X77567818Y-57164262D01*
X77600804Y-57186001D01*
X77635810Y-57209392D01*
X77672998Y-57234538D01*
X77712528Y-57261546D01*
X77730481Y-57273892D01*
X77755306Y-57290991D01*
X77777743Y-57306435D01*
X77798089Y-57320425D01*
X77816641Y-57333163D01*
X77833699Y-57344851D01*
X77849558Y-57355690D01*
X77864518Y-57365883D01*
X77878877Y-57375632D01*
X77892930Y-57385137D01*
X77906978Y-57394601D01*
X77921316Y-57404226D01*
X77936244Y-57414214D01*
X77952059Y-57424766D01*
X77969058Y-57436084D01*
X77987540Y-57448370D01*
X78006461Y-57460936D01*
X78042271Y-57484668D01*
X78075532Y-57506617D01*
X78106379Y-57526859D01*
X78134945Y-57545472D01*
X78161365Y-57562533D01*
X78185775Y-57578119D01*
X78208308Y-57592308D01*
X78229100Y-57605178D01*
X78248284Y-57616804D01*
X78265996Y-57627266D01*
X78282369Y-57636640D01*
X78297539Y-57645003D01*
X78311640Y-57652433D01*
X78324806Y-57659007D01*
X78337173Y-57664802D01*
X78348875Y-57669896D01*
X78360046Y-57674367D01*
X78370821Y-57678290D01*
X78381334Y-57681745D01*
X78391721Y-57684807D01*
X78399843Y-57686979D01*
X78434258Y-57694128D01*
X78469074Y-57698062D01*
X78504103Y-57698782D01*
X78539161Y-57696287D01*
X78574062Y-57690576D01*
X78586686Y-57687700D01*
X78616719Y-57679258D01*
X78646607Y-57668650D01*
X78676683Y-57655720D01*
X78707279Y-57640315D01*
X78738729Y-57622283D01*
X78766785Y-57604507D01*
X78786991Y-57590715D01*
X78804816Y-57577501D01*
X78820945Y-57564318D01*
X78836063Y-57550618D01*
X78844236Y-57542623D01*
X78862143Y-57523608D01*
X78878946Y-57503528D01*
X78894781Y-57482132D01*
X78909785Y-57459173D01*
X78924095Y-57434400D01*
X78937847Y-57407566D01*
X78951179Y-57378421D01*
X78964227Y-57346716D01*
X78977129Y-57312202D01*
X78987814Y-57281269D01*
X79007657Y-57217561D01*
X79025134Y-57152191D01*
X79040270Y-57085031D01*
X79053089Y-57015951D01*
X79063616Y-56944822D01*
X79071877Y-56871516D01*
X79076001Y-56823184D01*
X79077282Y-56805231D01*
X79078419Y-56787294D01*
X79079414Y-56769182D01*
X79080266Y-56750706D01*
X79080976Y-56731676D01*
X79081544Y-56711901D01*
X79081971Y-56691192D01*
X79082258Y-56669358D01*
X79082405Y-56646210D01*
X79082411Y-56621557D01*
X79082279Y-56595210D01*
X79082008Y-56566978D01*
X79081599Y-56536672D01*
X79081051Y-56504101D01*
X79080367Y-56469076D01*
X79079545Y-56431406D01*
X79078587Y-56390901D01*
X79077494Y-56347372D01*
X79077192Y-56335727D01*
X79076475Y-56308115D01*
X79075744Y-56279763D01*
X79075006Y-56251037D01*
X79074273Y-56222298D01*
X79073552Y-56193910D01*
X79072853Y-56166237D01*
X79072185Y-56139642D01*
X79071557Y-56114488D01*
X79070978Y-56091138D01*
X79070458Y-56069955D01*
X79070005Y-56051304D01*
X79069630Y-56035546D01*
X79069623Y-56035251D01*
X79069118Y-56013832D01*
X79068573Y-55990713D01*
X79068003Y-55966572D01*
X79067425Y-55942083D01*
X79066854Y-55917923D01*
X79066307Y-55894768D01*
X79065799Y-55873294D01*
X79065346Y-55854177D01*
X79065206Y-55848271D01*
X79064825Y-55830351D01*
X79064464Y-55809821D01*
X79064132Y-55787337D01*
X79063834Y-55763557D01*
X79063578Y-55739135D01*
X79063371Y-55714729D01*
X79063221Y-55690994D01*
X79063135Y-55668587D01*
X79063119Y-55658840D01*
X79063114Y-55634959D01*
X79063159Y-55613943D01*
X79063270Y-55595392D01*
X79063465Y-55578904D01*
X79063761Y-55564079D01*
X79064178Y-55550516D01*
X79064731Y-55537815D01*
X79065440Y-55525574D01*
X79066322Y-55513393D01*
X79067394Y-55500871D01*
X79068675Y-55487607D01*
X79070181Y-55473201D01*
X79071932Y-55457252D01*
X79072124Y-55455529D01*
X79079205Y-55399434D01*
X79088139Y-55341049D01*
X79098837Y-55280715D01*
X79111215Y-55218770D01*
X79125184Y-55155554D01*
X79140658Y-55091405D01*
X79157550Y-55026664D01*
X79175774Y-54961669D01*
X79195242Y-54896759D01*
X79215868Y-54832274D01*
X79237564Y-54768553D01*
X79260245Y-54705935D01*
X79271690Y-54675762D01*
X79287687Y-54635077D01*
X79304305Y-54594438D01*
X79321405Y-54554135D01*
X79338849Y-54514456D01*
X79356499Y-54475688D01*
X79374218Y-54438119D01*
X79391868Y-54402039D01*
X79409311Y-54367735D01*
X79426409Y-54335496D01*
X79443025Y-54305609D01*
X79459020Y-54278364D01*
X79470755Y-54259478D01*
X79495406Y-54222726D01*
X79520725Y-54188548D01*
X79546619Y-54157038D01*
X79572996Y-54128285D01*
X79599764Y-54102382D01*
X79626831Y-54079420D01*
X79654105Y-54059491D01*
X79681494Y-54042686D01*
X79696432Y-54034878D01*
X79727085Y-54021642D01*
X79758681Y-54011503D01*
X79791056Y-54004488D01*
X79824045Y-54000619D01*
X79857486Y-53999923D01*
X79891214Y-54002424D01*
G37*
G04 #@! TD*
D12*
G04 #@! TO.C,R306*
X167763900Y-58209600D03*
X165938900Y-58209600D03*
G04 #@! TD*
D13*
G04 #@! TO.C,R303*
X217020235Y-56445235D03*
X215729765Y-55154765D03*
G04 #@! TD*
D14*
G04 #@! TO.C,RN202*
X145000000Y-94500000D03*
D15*
X145000000Y-97040000D03*
X145000000Y-99580000D03*
X145000000Y-102120000D03*
X145000000Y-104660000D03*
X145000000Y-107200000D03*
X145000000Y-109740000D03*
X145000000Y-112280000D03*
X152620000Y-112280000D03*
X152620000Y-109740000D03*
X152620000Y-107200000D03*
X152620000Y-104660000D03*
X152620000Y-102120000D03*
X152620000Y-99580000D03*
X152620000Y-97040000D03*
X152620000Y-94500000D03*
G04 #@! TD*
D16*
G04 #@! TO.C,R203*
X87000000Y-133666876D03*
X87000000Y-131841876D03*
G04 #@! TD*
G04 #@! TO.C,R227*
X106588624Y-130470500D03*
X106588624Y-128645500D03*
G04 #@! TD*
D17*
G04 #@! TO.C,R202*
X96750000Y-113000000D03*
X92950000Y-113000000D03*
G04 #@! TD*
D18*
G04 #@! TO.C,D306*
X71375000Y-84600000D03*
X71375000Y-87400000D03*
G04 #@! TD*
D19*
G04 #@! TO.C,R312*
X164483500Y-129111000D03*
X166308500Y-129111000D03*
G04 #@! TD*
D20*
G04 #@! TO.C,C206*
X132710624Y-128000000D03*
X127710624Y-128000000D03*
G04 #@! TD*
D21*
G04 #@! TO.C,J305*
X196000000Y-130000000D03*
G04 #@! TD*
D22*
G04 #@! TO.C,H303*
X172000000Y-118000000D03*
G04 #@! TD*
D23*
G04 #@! TO.C,J301*
X200000000Y-70000000D03*
G04 #@! TD*
D24*
G04 #@! TO.C,C203*
X94000000Y-133950000D03*
X94000000Y-132050000D03*
G04 #@! TD*
D19*
G04 #@! TO.C,R215*
X130182124Y-113429000D03*
X132007124Y-113429000D03*
G04 #@! TD*
G04 #@! TO.C,R232*
X142760124Y-127500000D03*
X144585124Y-127500000D03*
G04 #@! TD*
D25*
G04 #@! TO.C,JP215*
X141740000Y-118364000D03*
D26*
X140440000Y-118364000D03*
G04 #@! TD*
D27*
G04 #@! TO.C,C311*
X169457400Y-58209600D03*
X171357400Y-58209600D03*
G04 #@! TD*
D22*
G04 #@! TO.C,H306*
X185000000Y-95000000D03*
G04 #@! TD*
D28*
G04 #@! TO.C,D201*
X103833274Y-71587650D03*
X106166726Y-73921102D03*
G04 #@! TD*
D12*
G04 #@! TO.C,R305*
X175129900Y-58209600D03*
X173304900Y-58209600D03*
G04 #@! TD*
D16*
G04 #@! TO.C,R222*
X80000000Y-130162500D03*
X80000000Y-128337500D03*
G04 #@! TD*
D29*
G04 #@! TO.C,JP204*
X119034624Y-117899000D03*
D30*
X119034624Y-116599000D03*
G04 #@! TD*
D31*
G04 #@! TO.C,J101*
X227240000Y-144450000D03*
X227240000Y-55550000D03*
D32*
X224700000Y-63170000D03*
D33*
X224700000Y-68250000D03*
X224700000Y-73330000D03*
X224700000Y-78410000D03*
X224700000Y-83490000D03*
X224700000Y-88570000D03*
X224700000Y-93650000D03*
X224700000Y-98730000D03*
X224700000Y-103810000D03*
X224700000Y-108890000D03*
X224700000Y-113970000D03*
X224700000Y-119050000D03*
X224700000Y-124130000D03*
X224700000Y-129210000D03*
X224700000Y-134290000D03*
X224700000Y-139370000D03*
X219620000Y-63170000D03*
X219620000Y-68250000D03*
X219620000Y-73330000D03*
X219620000Y-78410000D03*
X219620000Y-83490000D03*
X219620000Y-88570000D03*
X219620000Y-93650000D03*
X219620000Y-98730000D03*
X219620000Y-103810000D03*
X219620000Y-108890000D03*
X219620000Y-113970000D03*
X219620000Y-119050000D03*
X219620000Y-124130000D03*
X219620000Y-129210000D03*
X219620000Y-134290000D03*
X219620000Y-139370000D03*
G04 #@! TD*
D34*
G04 #@! TO.C,JP307*
X163502900Y-64052360D03*
D35*
X163502900Y-62752360D03*
D36*
X163502900Y-61452360D03*
G04 #@! TD*
D17*
G04 #@! TO.C,R213*
X129194624Y-113429000D03*
X132994624Y-113429000D03*
G04 #@! TD*
D37*
G04 #@! TO.C,R304*
X195848000Y-61887500D03*
X195848000Y-63712500D03*
G04 #@! TD*
D38*
G04 #@! TO.C,U203*
X135482624Y-124859000D03*
X135482624Y-126129000D03*
X135482624Y-127399000D03*
X135482624Y-128669000D03*
X140432624Y-128669000D03*
X140432624Y-127399000D03*
X140432624Y-126129000D03*
X140432624Y-124859000D03*
G04 #@! TD*
D39*
G04 #@! TO.C,J208*
X97790000Y-104140000D03*
G04 #@! TD*
D40*
G04 #@! TO.C,U303*
X160396500Y-70274000D03*
X160396500Y-70924000D03*
X160396500Y-71574000D03*
X162171500Y-71574000D03*
X162171500Y-70924000D03*
X162171500Y-70274000D03*
D41*
X161284000Y-70924000D03*
G04 #@! TD*
D17*
G04 #@! TO.C,R228*
X124114624Y-125240000D03*
X124114624Y-129040000D03*
G04 #@! TD*
D29*
G04 #@! TO.C,JP302*
X172439400Y-56065600D03*
D30*
X172439400Y-54765600D03*
G04 #@! TD*
D22*
G04 #@! TO.C,H304*
X185000000Y-105000000D03*
G04 #@! TD*
D37*
G04 #@! TO.C,R229*
X124114624Y-126165000D03*
X124114624Y-127990000D03*
G04 #@! TD*
D16*
G04 #@! TO.C,R301*
X198896000Y-58824500D03*
X198896000Y-56999500D03*
G04 #@! TD*
D37*
G04 #@! TO.C,R212*
X109890624Y-126038000D03*
X109890624Y-127863000D03*
G04 #@! TD*
G04 #@! TO.C,R218*
X87500000Y-116337500D03*
X87500000Y-118162500D03*
G04 #@! TD*
D29*
G04 #@! TO.C,JP212*
X142240000Y-97170000D03*
D30*
X142240000Y-95870000D03*
G04 #@! TD*
D42*
G04 #@! TO.C,C305*
X175069000Y-60960000D03*
X178019000Y-60960000D03*
G04 #@! TD*
D37*
G04 #@! TO.C,R230*
X119288624Y-125846500D03*
X119288624Y-127671500D03*
G04 #@! TD*
D17*
G04 #@! TO.C,R217*
X100350000Y-117000000D03*
X104150000Y-117000000D03*
G04 #@! TD*
D20*
G04 #@! TO.C,C208*
X140584624Y-131336000D03*
X135584624Y-131336000D03*
G04 #@! TD*
D42*
G04 #@! TO.C,C312*
X171541000Y-131397000D03*
X174491000Y-131397000D03*
G04 #@! TD*
D23*
G04 #@! TO.C,J105*
X143499624Y-87249000D03*
G04 #@! TD*
D43*
G04 #@! TO.C,U301*
X178559400Y-58081600D03*
D44*
X180059400Y-57994100D03*
D43*
X181559400Y-58081600D03*
G04 #@! TD*
D45*
G04 #@! TO.C,U305*
X171085000Y-124802000D03*
X170435000Y-124802000D03*
X169785000Y-124802000D03*
X169135000Y-124802000D03*
X168485000Y-124802000D03*
X167835000Y-124802000D03*
X167835000Y-129102000D03*
X168485000Y-129102000D03*
X169135000Y-129102000D03*
X169785000Y-129102000D03*
X170435000Y-129102000D03*
X171085000Y-129102000D03*
D46*
X169460000Y-126952000D03*
G04 #@! TD*
D39*
G04 #@! TO.C,J207*
X97790000Y-101600000D03*
G04 #@! TD*
D17*
G04 #@! TO.C,R208*
X114462624Y-124859000D03*
X114462624Y-128659000D03*
G04 #@! TD*
G04 #@! TO.C,R214*
X109890624Y-125113000D03*
X109890624Y-128913000D03*
G04 #@! TD*
D19*
G04 #@! TO.C,R209*
X130166624Y-118509000D03*
X131991624Y-118509000D03*
G04 #@! TD*
D24*
G04 #@! TO.C,C308*
X164000000Y-71950000D03*
X164000000Y-70050000D03*
G04 #@! TD*
D39*
G04 #@! TO.C,J204*
X95250000Y-93980000D03*
G04 #@! TD*
G04 #@! TO.C,J206*
X97790000Y-99060000D03*
G04 #@! TD*
D47*
G04 #@! TO.C,D101*
X147250000Y-127000000D03*
X147250000Y-123000000D03*
G04 #@! TD*
D29*
G04 #@! TO.C,JP206*
X111414624Y-117899000D03*
D30*
X111414624Y-116599000D03*
G04 #@! TD*
D48*
G04 #@! TO.C,C209*
X145069624Y-132750000D03*
X145069624Y-130250000D03*
G04 #@! TD*
D49*
G04 #@! TO.C,Q201*
X93000000Y-70754376D03*
D50*
X91203949Y-72550427D03*
X89407898Y-74346478D03*
G04 #@! TD*
D51*
G04 #@! TO.C,C302*
X181950000Y-61016000D03*
X180050000Y-61016000D03*
G04 #@! TD*
D38*
G04 #@! TO.C,U202*
X86939624Y-126271500D03*
X86939624Y-127541500D03*
X86939624Y-128811500D03*
X86939624Y-130081500D03*
X91889624Y-130081500D03*
X91889624Y-128811500D03*
X91889624Y-127541500D03*
X91889624Y-126271500D03*
G04 #@! TD*
D39*
G04 #@! TO.C,J205*
X95250000Y-96520000D03*
G04 #@! TD*
D12*
G04 #@! TO.C,R310*
X166308500Y-124666000D03*
X164483500Y-124666000D03*
G04 #@! TD*
D22*
G04 #@! TO.C,H302*
X195000000Y-105000000D03*
G04 #@! TD*
D14*
G04 #@! TO.C,RN201*
X92710000Y-91440000D03*
D15*
X92710000Y-93980000D03*
X92710000Y-96520000D03*
X92710000Y-99060000D03*
X92710000Y-101600000D03*
X92710000Y-104140000D03*
X92710000Y-106680000D03*
X92710000Y-109220000D03*
X100330000Y-109220000D03*
X100330000Y-106680000D03*
X100330000Y-104140000D03*
X100330000Y-101600000D03*
X100330000Y-99060000D03*
X100330000Y-96520000D03*
X100330000Y-93980000D03*
X100330000Y-91440000D03*
G04 #@! TD*
D34*
G04 #@! TO.C,JP306*
X160962900Y-64052360D03*
D35*
X160962900Y-62752360D03*
D36*
X160962900Y-61452360D03*
G04 #@! TD*
D29*
G04 #@! TO.C,JP301*
X166343400Y-56065600D03*
D30*
X166343400Y-54765600D03*
G04 #@! TD*
D52*
G04 #@! TO.C,C303*
X209000000Y-58287246D03*
D53*
X209000000Y-65787246D03*
G04 #@! TD*
D54*
G04 #@! TO.C,D202*
X85650000Y-87267000D03*
X82350000Y-87267000D03*
G04 #@! TD*
D12*
G04 #@! TO.C,R205*
X96912500Y-128000000D03*
X95087500Y-128000000D03*
G04 #@! TD*
D17*
G04 #@! TO.C,R231*
X119288624Y-124859000D03*
X119288624Y-128659000D03*
G04 #@! TD*
D29*
G04 #@! TO.C,JP211*
X113954624Y-117899000D03*
D30*
X113954624Y-116599000D03*
G04 #@! TD*
D39*
G04 #@! TO.C,J202*
X95250000Y-99060000D03*
G04 #@! TD*
D17*
G04 #@! TO.C,R223*
X80000000Y-131150000D03*
X80000000Y-127350000D03*
G04 #@! TD*
D22*
G04 #@! TO.C,H301*
X208000000Y-118000000D03*
G04 #@! TD*
D23*
G04 #@! TO.C,J104*
X89500000Y-87004376D03*
G04 #@! TD*
D17*
G04 #@! TO.C,R221*
X147452000Y-117856000D03*
X151252000Y-117856000D03*
G04 #@! TD*
D55*
G04 #@! TO.C,JP217*
X124114624Y-116599000D03*
D56*
X124114624Y-117899000D03*
G04 #@! TD*
D23*
G04 #@! TO.C,J102*
X152000000Y-131000000D03*
G04 #@! TD*
D57*
G04 #@! TO.C,D302*
X181000000Y-128600000D03*
X181000000Y-131400000D03*
G04 #@! TD*
D27*
G04 #@! TO.C,C310*
X168002000Y-131143000D03*
X169902000Y-131143000D03*
G04 #@! TD*
D58*
G04 #@! TO.C,C309*
X174000000Y-126510000D03*
X174000000Y-128410000D03*
G04 #@! TD*
D37*
G04 #@! TO.C,R224*
X80000000Y-120912500D03*
X80000000Y-119087500D03*
G04 #@! TD*
D12*
G04 #@! TO.C,R311*
X166308500Y-131143000D03*
X164483500Y-131143000D03*
G04 #@! TD*
G04 #@! TO.C,R307*
X164004700Y-58158800D03*
X162179700Y-58158800D03*
G04 #@! TD*
G04 #@! TO.C,R309*
X161912500Y-122000000D03*
X160087500Y-122000000D03*
G04 #@! TD*
D22*
G04 #@! TO.C,H308*
X195000000Y-95000000D03*
G04 #@! TD*
D12*
G04 #@! TO.C,R216*
X103162500Y-117000000D03*
X101337500Y-117000000D03*
G04 #@! TD*
D39*
G04 #@! TO.C,J203*
X99000000Y-113000000D03*
G04 #@! TD*
D29*
G04 #@! TO.C,JP303*
X175487400Y-56065600D03*
D30*
X175487400Y-54765600D03*
G04 #@! TD*
D59*
G04 #@! TO.C,U302*
X192775000Y-63275000D03*
X192775000Y-62625000D03*
X192775000Y-61975000D03*
X192775000Y-61325000D03*
X192775000Y-60675000D03*
X192775000Y-60025000D03*
X192775000Y-59375000D03*
X192775000Y-58725000D03*
X187225000Y-58725000D03*
X187225000Y-59375000D03*
X187225000Y-60025000D03*
X187225000Y-60675000D03*
X187225000Y-61325000D03*
X187225000Y-61975000D03*
X187225000Y-62625000D03*
X187225000Y-63275000D03*
D60*
X190735000Y-60552500D03*
X190735000Y-61447500D03*
X189265000Y-60552500D03*
X189265000Y-62342500D03*
X190735000Y-59657500D03*
X189265000Y-59657500D03*
X190735000Y-62342500D03*
X189265000Y-61447500D03*
G04 #@! TD*
D16*
G04 #@! TO.C,R204*
X89750000Y-133662500D03*
X89750000Y-131837500D03*
G04 #@! TD*
D23*
G04 #@! TO.C,J103*
X152000000Y-125000000D03*
G04 #@! TD*
D61*
G04 #@! TO.C,Q301*
X162000000Y-119000000D03*
X162000000Y-117100000D03*
X160125000Y-118050000D03*
G04 #@! TD*
D16*
G04 #@! TO.C,R308*
X160000000Y-114912500D03*
X160000000Y-113087500D03*
G04 #@! TD*
D62*
G04 #@! TO.C,U201*
X119499624Y-84334000D03*
D63*
X117434872Y-85189248D03*
X116579624Y-87254000D03*
X117434872Y-89318752D03*
X119499624Y-90174000D03*
X121564376Y-89318752D03*
X122419624Y-87254000D03*
X121564376Y-85189248D03*
G04 #@! TD*
D29*
G04 #@! TO.C,JP222*
X86000000Y-114404376D03*
D30*
X86000000Y-113104376D03*
G04 #@! TD*
D23*
G04 #@! TO.C,J302*
X190000000Y-71100000D03*
G04 #@! TD*
D20*
G04 #@! TO.C,C205*
X83855624Y-123549000D03*
X83855624Y-118549000D03*
G04 #@! TD*
D34*
G04 #@! TO.C,JP305*
X166042900Y-64052360D03*
D35*
X166042900Y-62752360D03*
D36*
X166042900Y-61452360D03*
G04 #@! TD*
D27*
G04 #@! TO.C,C207*
X138050000Y-122954000D03*
X139950000Y-122954000D03*
G04 #@! TD*
D64*
G04 #@! TO.C,U304*
X168426200Y-61218560D03*
X168426200Y-61868560D03*
X168426200Y-62518560D03*
X168426200Y-63168560D03*
X172651200Y-63168560D03*
X172651200Y-62518560D03*
X172651200Y-61868560D03*
X172651200Y-61218560D03*
G04 #@! TD*
D18*
G04 #@! TO.C,D301*
X71375000Y-64600000D03*
X71375000Y-67400000D03*
G04 #@! TD*
D17*
G04 #@! TO.C,R220*
X98674624Y-87249000D03*
X94874624Y-87249000D03*
G04 #@! TD*
D29*
G04 #@! TO.C,JP210*
X108874624Y-117899000D03*
D30*
X108874624Y-116599000D03*
G04 #@! TD*
D14*
G04 #@! TO.C,RN204*
X87332263Y-109834376D03*
D15*
X87332263Y-107294376D03*
X87332263Y-104754376D03*
X87332263Y-102214376D03*
X87332263Y-99674376D03*
X87332263Y-97134376D03*
X87332263Y-94594376D03*
X87332263Y-92054376D03*
X79712263Y-92054376D03*
X79712263Y-94594376D03*
X79712263Y-97134376D03*
X79712263Y-99674376D03*
X79712263Y-102214376D03*
X79712263Y-104754376D03*
X79712263Y-107294376D03*
X79712263Y-109834376D03*
G04 #@! TD*
D37*
G04 #@! TO.C,R206*
X114462624Y-125784000D03*
X114462624Y-127609000D03*
G04 #@! TD*
D12*
G04 #@! TO.C,R219*
X97687124Y-87249000D03*
X95862124Y-87249000D03*
G04 #@! TD*
D65*
G04 #@! TO.C,JP214*
X143398000Y-115316000D03*
D66*
X142098000Y-115316000D03*
G04 #@! TD*
D17*
G04 #@! TO.C,R225*
X80000000Y-121900000D03*
X80000000Y-118100000D03*
G04 #@! TD*
D12*
G04 #@! TO.C,R210*
X101912500Y-121918000D03*
X100087500Y-121918000D03*
G04 #@! TD*
D14*
G04 #@! TO.C,RN203*
X108874624Y-121049000D03*
D15*
X111414624Y-121049000D03*
X113954624Y-121049000D03*
X116494624Y-121049000D03*
X119034624Y-121049000D03*
X121574624Y-121049000D03*
X124114624Y-121049000D03*
X124114624Y-113429000D03*
X121574624Y-113429000D03*
X119034624Y-113429000D03*
X116494624Y-113429000D03*
X113954624Y-113429000D03*
X111414624Y-113429000D03*
X108874624Y-113429000D03*
G04 #@! TD*
D57*
G04 #@! TO.C,D305*
X192000000Y-129100000D03*
X192000000Y-131900000D03*
G04 #@! TD*
D21*
G04 #@! TO.C,J304*
X185000000Y-130000000D03*
G04 #@! TD*
D17*
G04 #@! TO.C,R211*
X102900000Y-121918000D03*
X99100000Y-121918000D03*
G04 #@! TD*
D67*
G04 #@! TO.C,C306*
X191475000Y-67000000D03*
X188525000Y-67000000D03*
G04 #@! TD*
D39*
G04 #@! TO.C,J201*
X97790000Y-96520000D03*
G04 #@! TD*
D27*
G04 #@! TO.C,C202*
X91160624Y-124351000D03*
X93060624Y-124351000D03*
G04 #@! TD*
D17*
G04 #@! TO.C,R207*
X129194624Y-118509000D03*
X132994624Y-118509000D03*
G04 #@! TD*
D68*
G04 #@! TO.C,C313*
X161713000Y-130475000D03*
X161713000Y-127525000D03*
G04 #@! TD*
D29*
G04 #@! TO.C,JP304*
X169391400Y-56065600D03*
D30*
X169391400Y-54765600D03*
G04 #@! TD*
D19*
G04 #@! TO.C,R201*
X95762500Y-113000000D03*
X93937500Y-113000000D03*
G04 #@! TD*
D24*
G04 #@! TO.C,C301*
X185000000Y-60894000D03*
X185000000Y-58994000D03*
G04 #@! TD*
D57*
G04 #@! TO.C,D304*
X200000000Y-131900000D03*
X200000000Y-129100000D03*
G04 #@! TD*
D16*
G04 #@! TO.C,R302*
X194832000Y-58824500D03*
X194832000Y-56999500D03*
G04 #@! TD*
D24*
G04 #@! TO.C,C201*
X92000000Y-133950000D03*
X92000000Y-132050000D03*
G04 #@! TD*
G04 #@! TO.C,C304*
X196864000Y-58862000D03*
X196864000Y-56962000D03*
G04 #@! TD*
D19*
G04 #@! TO.C,R226*
X148439500Y-117856000D03*
X150264500Y-117856000D03*
G04 #@! TD*
D22*
G04 #@! TO.C,H305*
X172000000Y-82000000D03*
G04 #@! TD*
G04 #@! TO.C,H307*
X208000000Y-82000000D03*
G04 #@! TD*
D57*
G04 #@! TO.C,D303*
X189000000Y-129100000D03*
X189000000Y-131900000D03*
G04 #@! TD*
D29*
G04 #@! TO.C,JP219*
X121574624Y-117899000D03*
D30*
X121574624Y-116599000D03*
G04 #@! TD*
D29*
G04 #@! TO.C,JP218*
X82250000Y-114400000D03*
D30*
X82250000Y-113100000D03*
G04 #@! TD*
D12*
G04 #@! TO.C,R313*
X166308500Y-127079000D03*
X164483500Y-127079000D03*
G04 #@! TD*
D69*
G04 #@! TO.C,C307*
X176659000Y-126525000D03*
X176659000Y-129475000D03*
G04 #@! TD*
D20*
G04 #@! TO.C,C204*
X83855624Y-126677000D03*
X83855624Y-131677000D03*
G04 #@! TD*
D23*
G04 #@! TO.C,J303*
X180000000Y-70000000D03*
G04 #@! TD*
D55*
G04 #@! TO.C,JP205*
X116499624Y-116599000D03*
D56*
X116499624Y-117899000D03*
G04 #@! TD*
M02*
