G04 #@! TF.GenerationSoftware,KiCad,Pcbnew,(6.0.5)*
G04 #@! TF.CreationDate,2023-01-29T23:25:53+01:00*
G04 #@! TF.ProjectId,adrmu6layer,6164726d-7536-46c6-9179-65722e6b6963,1*
G04 #@! TF.SameCoordinates,Original*
G04 #@! TF.FileFunction,Paste,Top*
G04 #@! TF.FilePolarity,Positive*
%FSLAX46Y46*%
G04 Gerber Fmt 4.6, Leading zero omitted, Abs format (unit mm)*
G04 Created by KiCad (PCBNEW (6.0.5)) date 2023-01-29 23:25:53*
%MOMM*%
%LPD*%
G01*
G04 APERTURE LIST*
G04 Aperture macros list*
%AMRoundRect*
0 Rectangle with rounded corners*
0 $1 Rounding radius*
0 $2 $3 $4 $5 $6 $7 $8 $9 X,Y pos of 4 corners*
0 Add a 4 corners polygon primitive as box body*
4,1,4,$2,$3,$4,$5,$6,$7,$8,$9,$2,$3,0*
0 Add four circle primitives for the rounded corners*
1,1,$1+$1,$2,$3*
1,1,$1+$1,$4,$5*
1,1,$1+$1,$6,$7*
1,1,$1+$1,$8,$9*
0 Add four rect primitives between the rounded corners*
20,1,$1+$1,$2,$3,$4,$5,0*
20,1,$1+$1,$4,$5,$6,$7,0*
20,1,$1+$1,$6,$7,$8,$9,0*
20,1,$1+$1,$8,$9,$2,$3,0*%
%AMRotRect*
0 Rectangle, with rotation*
0 The origin of the aperture is its center*
0 $1 length*
0 $2 width*
0 $3 Rotation angle, in degrees counterclockwise*
0 Add horizontal line*
21,1,$1,$2,0,0,$3*%
%AMFreePoly0*
4,1,9,3.862500,-0.866500,0.737500,-0.866500,0.737500,-0.450000,-0.737500,-0.450000,-0.737500,0.450000,0.737500,0.450000,0.737500,0.866500,3.862500,0.866500,3.862500,-0.866500,3.862500,-0.866500,$1*%
G04 Aperture macros list end*
%ADD10RoundRect,0.250000X0.475000X-0.250000X0.475000X0.250000X-0.475000X0.250000X-0.475000X-0.250000X0*%
%ADD11RoundRect,0.250000X0.250000X0.475000X-0.250000X0.475000X-0.250000X-0.475000X0.250000X-0.475000X0*%
%ADD12RoundRect,0.225000X0.225000X0.250000X-0.225000X0.250000X-0.225000X-0.250000X0.225000X-0.250000X0*%
%ADD13RoundRect,0.250000X-0.650000X0.325000X-0.650000X-0.325000X0.650000X-0.325000X0.650000X0.325000X0*%
%ADD14RoundRect,0.250000X-0.325000X-0.650000X0.325000X-0.650000X0.325000X0.650000X-0.325000X0.650000X0*%
%ADD15RoundRect,0.250000X0.262500X0.450000X-0.262500X0.450000X-0.262500X-0.450000X0.262500X-0.450000X0*%
%ADD16RoundRect,0.250000X-0.750000X0.250000X-0.750000X-0.250000X0.750000X-0.250000X0.750000X0.250000X0*%
%ADD17RoundRect,0.250000X-0.262500X-0.450000X0.262500X-0.450000X0.262500X0.450000X-0.262500X0.450000X0*%
%ADD18R,0.850000X0.300000*%
%ADD19RoundRect,0.250000X0.450000X-0.262500X0.450000X0.262500X-0.450000X0.262500X-0.450000X-0.262500X0*%
%ADD20RoundRect,0.250000X-0.250000X-0.750000X0.250000X-0.750000X0.250000X0.750000X-0.250000X0.750000X0*%
%ADD21RoundRect,0.250000X-0.625000X0.375000X-0.625000X-0.375000X0.625000X-0.375000X0.625000X0.375000X0*%
%ADD22RoundRect,0.225000X-0.250000X0.225000X-0.250000X-0.225000X0.250000X-0.225000X0.250000X0.225000X0*%
%ADD23RoundRect,0.225000X0.250000X-0.225000X0.250000X0.225000X-0.250000X0.225000X-0.250000X-0.225000X0*%
%ADD24RoundRect,0.225000X-0.225000X-0.250000X0.225000X-0.250000X0.225000X0.250000X-0.225000X0.250000X0*%
%ADD25RotRect,0.900000X1.200000X315.000000*%
%ADD26RoundRect,0.250000X-0.450000X0.262500X-0.450000X-0.262500X0.450000X-0.262500X0.450000X0.262500X0*%
%ADD27RoundRect,0.160000X-0.160000X-0.310000X0.160000X-0.310000X0.160000X0.310000X-0.160000X0.310000X0*%
%ADD28RoundRect,0.062500X-0.375000X-0.062500X0.375000X-0.062500X0.375000X0.062500X-0.375000X0.062500X0*%
%ADD29RoundRect,0.160000X-0.245000X-0.160000X0.245000X-0.160000X0.245000X0.160000X-0.245000X0.160000X0*%
%ADD30RoundRect,0.093750X-0.093750X-0.106250X0.093750X-0.106250X0.093750X0.106250X-0.093750X0.106250X0*%
%ADD31R,0.900000X1.300000*%
%ADD32FreePoly0,90.000000*%
%ADD33RoundRect,0.167500X-0.407500X0.167500X-0.407500X-0.167500X0.407500X-0.167500X0.407500X0.167500X0*%
%ADD34RoundRect,0.100000X-0.100000X0.625000X-0.100000X-0.625000X0.100000X-0.625000X0.100000X0.625000X0*%
%ADD35R,0.625000X0.250000*%
%ADD36R,0.700000X0.450000*%
%ADD37R,0.575000X0.450000*%
%ADD38RoundRect,0.150000X-0.587500X-0.150000X0.587500X-0.150000X0.587500X0.150000X-0.587500X0.150000X0*%
%ADD39R,1.100000X1.100000*%
%ADD40RoundRect,0.150000X-0.825000X-0.150000X0.825000X-0.150000X0.825000X0.150000X-0.825000X0.150000X0*%
%ADD41R,0.900000X1.200000*%
%ADD42RoundRect,0.150000X0.587500X0.150000X-0.587500X0.150000X-0.587500X-0.150000X0.587500X-0.150000X0*%
%ADD43R,1.300000X0.900000*%
%ADD44FreePoly0,0.000000*%
%ADD45RoundRect,0.150000X-0.150000X0.587500X-0.150000X-0.587500X0.150000X-0.587500X0.150000X0.587500X0*%
%ADD46R,1.050000X0.450000*%
%ADD47R,0.882000X0.537000*%
%ADD48RoundRect,0.160000X0.160000X0.310000X-0.160000X0.310000X-0.160000X-0.310000X0.160000X-0.310000X0*%
%ADD49RoundRect,0.062500X0.375000X0.062500X-0.375000X0.062500X-0.375000X-0.062500X0.375000X-0.062500X0*%
%ADD50RoundRect,0.218750X0.218750X0.256250X-0.218750X0.256250X-0.218750X-0.256250X0.218750X-0.256250X0*%
%ADD51RoundRect,0.100000X-0.712500X-0.100000X0.712500X-0.100000X0.712500X0.100000X-0.712500X0.100000X0*%
%ADD52RoundRect,0.250000X0.325000X0.650000X-0.325000X0.650000X-0.325000X-0.650000X0.325000X-0.650000X0*%
%ADD53RoundRect,0.250000X0.650000X-0.325000X0.650000X0.325000X-0.650000X0.325000X-0.650000X-0.325000X0*%
%ADD54R,2.500000X1.800000*%
G04 APERTURE END LIST*
D10*
G04 #@! TO.C,C421*
X172000000Y-137050000D03*
X172000000Y-135150000D03*
G04 #@! TD*
D11*
G04 #@! TO.C,C420*
X145400000Y-122300000D03*
X143500000Y-122300000D03*
G04 #@! TD*
D12*
G04 #@! TO.C,C419*
X152375000Y-130500000D03*
X150825000Y-130500000D03*
G04 #@! TD*
D13*
G04 #@! TO.C,C418*
X134900000Y-122925000D03*
X134900000Y-125875000D03*
G04 #@! TD*
D12*
G04 #@! TO.C,C416*
X133575000Y-129900000D03*
X132025000Y-129900000D03*
G04 #@! TD*
D14*
G04 #@! TO.C,C415*
X124325000Y-133800000D03*
X127275000Y-133800000D03*
G04 #@! TD*
D15*
G04 #@! TO.C,R306*
X167763900Y-58209600D03*
X165938900Y-58209600D03*
G04 #@! TD*
D16*
G04 #@! TO.C,J401*
X161200000Y-137200000D03*
G04 #@! TD*
D17*
G04 #@! TO.C,R303*
X73509500Y-64262000D03*
X75334500Y-64262000D03*
G04 #@! TD*
D18*
G04 #@! TO.C,U402*
X155508000Y-125713520D03*
X155508000Y-125213520D03*
X155508000Y-124713520D03*
X155508000Y-124213520D03*
X155508000Y-123713520D03*
X153608000Y-123713520D03*
X153608000Y-124213520D03*
X153608000Y-124713520D03*
X153608000Y-125213520D03*
X153608000Y-125713520D03*
G04 #@! TD*
D19*
G04 #@! TO.C,R203*
X87000000Y-133666876D03*
X87000000Y-131841876D03*
G04 #@! TD*
G04 #@! TO.C,R401*
X120900000Y-135025000D03*
X120900000Y-133200000D03*
G04 #@! TD*
D13*
G04 #@! TO.C,C316*
X205308000Y-130525000D03*
X205308000Y-133475000D03*
G04 #@! TD*
D20*
G04 #@! TO.C,J306*
X175718500Y-130149600D03*
G04 #@! TD*
D21*
G04 #@! TO.C,D306*
X71375000Y-84600000D03*
X71375000Y-87400000D03*
G04 #@! TD*
D17*
G04 #@! TO.C,R312*
X167593000Y-130565000D03*
X169418000Y-130565000D03*
G04 #@! TD*
D22*
G04 #@! TO.C,C403*
X144200000Y-137125000D03*
X144200000Y-138675000D03*
G04 #@! TD*
D17*
G04 #@! TO.C,R318*
X82887500Y-61050000D03*
X84712500Y-61050000D03*
G04 #@! TD*
D23*
G04 #@! TO.C,C203*
X94000000Y-133775000D03*
X94000000Y-132225000D03*
G04 #@! TD*
D17*
G04 #@! TO.C,R215*
X131787500Y-113400000D03*
X133612500Y-113400000D03*
G04 #@! TD*
D15*
G04 #@! TO.C,R406*
X151712500Y-122000000D03*
X149887500Y-122000000D03*
G04 #@! TD*
D24*
G04 #@! TO.C,C311*
X169632400Y-58209600D03*
X171182400Y-58209600D03*
G04 #@! TD*
D25*
G04 #@! TO.C,D201*
X103833274Y-71587650D03*
X106166726Y-73921102D03*
G04 #@! TD*
D15*
G04 #@! TO.C,R305*
X175129900Y-58209600D03*
X173304900Y-58209600D03*
G04 #@! TD*
D19*
G04 #@! TO.C,R222*
X80000000Y-130162500D03*
X80000000Y-128337500D03*
G04 #@! TD*
D26*
G04 #@! TO.C,R304*
X195700000Y-61887500D03*
X195700000Y-63712500D03*
G04 #@! TD*
D27*
G04 #@! TO.C,U401*
X131500000Y-132715000D03*
X132300000Y-133885000D03*
X131500000Y-133885000D03*
X132300000Y-132715000D03*
D28*
X130462500Y-132550000D03*
X130462500Y-133050000D03*
X130462500Y-133550000D03*
X130462500Y-134050000D03*
X133337500Y-134050000D03*
X133337500Y-133550000D03*
X133337500Y-133050000D03*
X133337500Y-132550000D03*
G04 #@! TD*
D29*
G04 #@! TO.C,U303*
X161284000Y-71324000D03*
X161284000Y-70524000D03*
D30*
X160396500Y-70274000D03*
X160396500Y-70924000D03*
X160396500Y-71574000D03*
X162171500Y-71574000D03*
X162171500Y-70924000D03*
X162171500Y-70274000D03*
G04 #@! TD*
D26*
G04 #@! TO.C,R403*
X124114624Y-126165000D03*
X124114624Y-127990000D03*
G04 #@! TD*
G04 #@! TO.C,R301*
X197700000Y-61887500D03*
X197700000Y-63712500D03*
G04 #@! TD*
G04 #@! TO.C,R212*
X109890624Y-126038000D03*
X109890624Y-127863000D03*
G04 #@! TD*
G04 #@! TO.C,R218*
X87500000Y-116337500D03*
X87500000Y-118162500D03*
G04 #@! TD*
D14*
G04 #@! TO.C,C305*
X175069000Y-60960000D03*
X178019000Y-60960000D03*
G04 #@! TD*
D26*
G04 #@! TO.C,R404*
X119288624Y-125846500D03*
X119288624Y-127671500D03*
G04 #@! TD*
D13*
G04 #@! TO.C,C312*
X174956500Y-132383000D03*
X174956500Y-135333000D03*
G04 #@! TD*
D15*
G04 #@! TO.C,R221*
X96562500Y-125050000D03*
X94737500Y-125050000D03*
G04 #@! TD*
D31*
G04 #@! TO.C,U301*
X178559400Y-58081600D03*
D32*
X180059400Y-57994100D03*
D31*
X181559400Y-58081600D03*
G04 #@! TD*
D33*
G04 #@! TO.C,U305*
X171859500Y-127996000D03*
X173279500Y-127996000D03*
X173279500Y-128816000D03*
X171859500Y-128816000D03*
D34*
X174194500Y-126256000D03*
X173544500Y-126256000D03*
X172894500Y-126256000D03*
X172244500Y-126256000D03*
X171594500Y-126256000D03*
X170944500Y-126256000D03*
X170944500Y-130556000D03*
X171594500Y-130556000D03*
X172244500Y-130556000D03*
X172894500Y-130556000D03*
X173544500Y-130556000D03*
X174194500Y-130556000D03*
G04 #@! TD*
D27*
G04 #@! TO.C,U403*
X145100000Y-131985000D03*
X145900000Y-130815000D03*
X145900000Y-131985000D03*
X145100000Y-130815000D03*
D28*
X144062500Y-130650000D03*
X144062500Y-131150000D03*
X144062500Y-131650000D03*
X144062500Y-132150000D03*
X146937500Y-132150000D03*
X146937500Y-131650000D03*
X146937500Y-131150000D03*
X146937500Y-130650000D03*
G04 #@! TD*
D19*
G04 #@! TO.C,R409*
X147960000Y-125622500D03*
X147960000Y-123797500D03*
G04 #@! TD*
D35*
G04 #@! TO.C,U405*
X217087500Y-138300000D03*
X217087500Y-137800000D03*
D36*
X217050000Y-137300000D03*
D35*
X217087500Y-136800000D03*
X217087500Y-136300000D03*
X216312500Y-136300000D03*
X216312500Y-136800000D03*
D37*
X216287500Y-137300000D03*
D35*
X216312500Y-137800000D03*
X216312500Y-138300000D03*
G04 #@! TD*
D38*
G04 #@! TO.C,Q401*
X149952500Y-123770000D03*
X149952500Y-125670000D03*
X151827500Y-124720000D03*
G04 #@! TD*
D17*
G04 #@! TO.C,R209*
X131872000Y-117700000D03*
X133697000Y-117700000D03*
G04 #@! TD*
D23*
G04 #@! TO.C,C308*
X164000000Y-71775000D03*
X164000000Y-70225000D03*
G04 #@! TD*
D17*
G04 #@! TO.C,R314*
X82907500Y-56769000D03*
X84732500Y-56769000D03*
G04 #@! TD*
D39*
G04 #@! TO.C,D307*
X163100000Y-129594000D03*
X163100000Y-132394000D03*
G04 #@! TD*
D12*
G04 #@! TO.C,C302*
X181775000Y-61016000D03*
X180225000Y-61016000D03*
G04 #@! TD*
D40*
G04 #@! TO.C,U202*
X86939624Y-126271500D03*
X86939624Y-127541500D03*
X86939624Y-128811500D03*
X86939624Y-130081500D03*
X91889624Y-130081500D03*
X91889624Y-128811500D03*
X91889624Y-127541500D03*
X91889624Y-126271500D03*
G04 #@! TD*
D15*
G04 #@! TO.C,R310*
X169418000Y-126120000D03*
X167593000Y-126120000D03*
G04 #@! TD*
D41*
G04 #@! TO.C,D202*
X83526000Y-87267000D03*
X80226000Y-87267000D03*
G04 #@! TD*
D15*
G04 #@! TO.C,R205*
X96912500Y-128000000D03*
X95087500Y-128000000D03*
G04 #@! TD*
D39*
G04 #@! TO.C,D102*
X218310000Y-54610000D03*
X221110000Y-54610000D03*
G04 #@! TD*
D42*
G04 #@! TO.C,Q302*
X80644651Y-56830000D03*
X80644651Y-54930000D03*
X78769651Y-55880000D03*
G04 #@! TD*
D24*
G04 #@! TO.C,C315*
X161475000Y-122450000D03*
X163025000Y-122450000D03*
G04 #@! TD*
D12*
G04 #@! TO.C,C318*
X80775000Y-58600000D03*
X79225000Y-58600000D03*
G04 #@! TD*
D43*
G04 #@! TO.C,U306*
X159850000Y-124500000D03*
D44*
X159937500Y-126000000D03*
D43*
X159850000Y-127500000D03*
G04 #@! TD*
D45*
G04 #@! TO.C,Q303*
X80950000Y-60612500D03*
X79050000Y-60612500D03*
X80000000Y-62487500D03*
G04 #@! TD*
D24*
G04 #@! TO.C,C410*
X153795000Y-122160000D03*
X155345000Y-122160000D03*
G04 #@! TD*
D39*
G04 #@! TO.C,D302*
X186182000Y-129797000D03*
X186182000Y-126997000D03*
G04 #@! TD*
D24*
G04 #@! TO.C,C310*
X171286500Y-132597000D03*
X172836500Y-132597000D03*
G04 #@! TD*
D10*
G04 #@! TO.C,C407*
X118950000Y-135062500D03*
X118950000Y-133162500D03*
G04 #@! TD*
D22*
G04 #@! TO.C,C406*
X142200000Y-132200000D03*
X142200000Y-133750000D03*
G04 #@! TD*
G04 #@! TO.C,C309*
X175836300Y-126275800D03*
X175836300Y-127825800D03*
G04 #@! TD*
D26*
G04 #@! TO.C,R224*
X80000000Y-119087500D03*
X80000000Y-120912500D03*
G04 #@! TD*
D23*
G04 #@! TO.C,C314*
X165750000Y-126775000D03*
X165750000Y-125225000D03*
G04 #@! TD*
D15*
G04 #@! TO.C,R311*
X169418000Y-132597000D03*
X167593000Y-132597000D03*
G04 #@! TD*
G04 #@! TO.C,R315*
X84732500Y-54864000D03*
X82907500Y-54864000D03*
G04 #@! TD*
G04 #@! TO.C,R307*
X164004700Y-58158800D03*
X162179700Y-58158800D03*
G04 #@! TD*
D26*
G04 #@! TO.C,R413*
X160900000Y-133625000D03*
X160900000Y-135450000D03*
G04 #@! TD*
D19*
G04 #@! TO.C,R309*
X157900000Y-123012500D03*
X157900000Y-121187500D03*
G04 #@! TD*
D15*
G04 #@! TO.C,R216*
X103162500Y-117300000D03*
X101337500Y-117300000D03*
G04 #@! TD*
D46*
G04 #@! TO.C,U302*
X192775000Y-63275000D03*
X192775000Y-62625000D03*
X192775000Y-61975000D03*
X192775000Y-61325000D03*
X192775000Y-60675000D03*
X192775000Y-60025000D03*
X192775000Y-59375000D03*
X192775000Y-58725000D03*
X187225000Y-58725000D03*
X187225000Y-59375000D03*
X187225000Y-60025000D03*
X187225000Y-60675000D03*
X187225000Y-61325000D03*
X187225000Y-61975000D03*
X187225000Y-62625000D03*
X187225000Y-63275000D03*
D47*
X189265000Y-59657500D03*
X189265000Y-62342500D03*
X190735000Y-59657500D03*
X190735000Y-62342500D03*
X189265000Y-61447500D03*
X190735000Y-60552500D03*
X189265000Y-60552500D03*
X190735000Y-61447500D03*
G04 #@! TD*
D48*
G04 #@! TO.C,U404*
X146900000Y-137615000D03*
X146900000Y-138785000D03*
X147700000Y-138785000D03*
X147700000Y-137615000D03*
D49*
X148737500Y-138950000D03*
X148737500Y-138450000D03*
X148737500Y-137950000D03*
X148737500Y-137450000D03*
X145862500Y-137450000D03*
X145862500Y-137950000D03*
X145862500Y-138450000D03*
X145862500Y-138950000D03*
G04 #@! TD*
D22*
G04 #@! TO.C,C317*
X198062500Y-131725000D03*
X198062500Y-133275000D03*
G04 #@! TD*
D19*
G04 #@! TO.C,R204*
X89750000Y-133662500D03*
X89750000Y-131837500D03*
G04 #@! TD*
D15*
G04 #@! TO.C,R316*
X79312500Y-64450000D03*
X77487500Y-64450000D03*
G04 #@! TD*
G04 #@! TO.C,R410*
X137312500Y-134900000D03*
X135487500Y-134900000D03*
G04 #@! TD*
D23*
G04 #@! TO.C,C405*
X148700000Y-132000000D03*
X148700000Y-130450000D03*
G04 #@! TD*
D45*
G04 #@! TO.C,Q301*
X157950000Y-115062500D03*
X156050000Y-115062500D03*
X157000000Y-116937500D03*
G04 #@! TD*
D26*
G04 #@! TO.C,R414*
X160900000Y-130175000D03*
X160900000Y-132000000D03*
G04 #@! TD*
D19*
G04 #@! TO.C,R308*
X155000000Y-112912500D03*
X155000000Y-111087500D03*
G04 #@! TD*
D22*
G04 #@! TO.C,C205*
X83500000Y-125725000D03*
X83500000Y-127275000D03*
G04 #@! TD*
D43*
G04 #@! TO.C,U307*
X199912500Y-130453000D03*
D44*
X200000000Y-131953000D03*
D43*
X199912500Y-133453000D03*
G04 #@! TD*
D50*
G04 #@! TO.C,F301*
X181838700Y-130403600D03*
X180263700Y-130403600D03*
G04 #@! TD*
D12*
G04 #@! TO.C,C402*
X136375000Y-132200000D03*
X134825000Y-132200000D03*
G04 #@! TD*
D51*
G04 #@! TO.C,U304*
X168426200Y-61218560D03*
X168426200Y-61868560D03*
X168426200Y-62518560D03*
X168426200Y-63168560D03*
X172651200Y-63168560D03*
X172651200Y-62518560D03*
X172651200Y-61868560D03*
X172651200Y-61218560D03*
G04 #@! TD*
D21*
G04 #@! TO.C,D301*
X71375000Y-64600000D03*
X71375000Y-67400000D03*
G04 #@! TD*
D26*
G04 #@! TO.C,R206*
X114462624Y-125784000D03*
X114462624Y-127609000D03*
G04 #@! TD*
D15*
G04 #@! TO.C,R219*
X95563124Y-87249000D03*
X93738124Y-87249000D03*
G04 #@! TD*
G04 #@! TO.C,R234*
X130452500Y-109855000D03*
X128627500Y-109855000D03*
G04 #@! TD*
D23*
G04 #@! TO.C,C411*
X155900000Y-128832500D03*
X155900000Y-127282500D03*
G04 #@! TD*
D39*
G04 #@! TO.C,D103*
X218310000Y-57150000D03*
X221110000Y-57150000D03*
G04 #@! TD*
D15*
G04 #@! TO.C,R210*
X101912500Y-121918000D03*
X100087500Y-121918000D03*
G04 #@! TD*
D39*
G04 #@! TO.C,D305*
X196215000Y-126997000D03*
X196215000Y-129797000D03*
G04 #@! TD*
D20*
G04 #@! TO.C,J307*
X128300000Y-126762000D03*
G04 #@! TD*
D52*
G04 #@! TO.C,C306*
X191475000Y-67000000D03*
X188525000Y-67000000D03*
G04 #@! TD*
D24*
G04 #@! TO.C,C202*
X91335624Y-124351000D03*
X92885624Y-124351000D03*
G04 #@! TD*
D53*
G04 #@! TO.C,C313*
X165500000Y-131929000D03*
X165500000Y-128979000D03*
G04 #@! TD*
D17*
G04 #@! TO.C,R201*
X93937500Y-113000000D03*
X95762500Y-113000000D03*
G04 #@! TD*
D23*
G04 #@! TO.C,C301*
X185000000Y-60719000D03*
X185000000Y-59169000D03*
G04 #@! TD*
D39*
G04 #@! TO.C,D304*
X193802000Y-129797000D03*
X193802000Y-126997000D03*
G04 #@! TD*
D19*
G04 #@! TO.C,R302*
X194832000Y-58824500D03*
X194832000Y-56999500D03*
G04 #@! TD*
D23*
G04 #@! TO.C,C201*
X92000000Y-133775000D03*
X92000000Y-132225000D03*
G04 #@! TD*
D10*
G04 #@! TO.C,C304*
X196864000Y-58862000D03*
X196864000Y-56962000D03*
G04 #@! TD*
D17*
G04 #@! TO.C,R408*
X149487500Y-116000000D03*
X151312500Y-116000000D03*
G04 #@! TD*
D15*
G04 #@! TO.C,R317*
X84732500Y-59029600D03*
X82907500Y-59029600D03*
G04 #@! TD*
D54*
G04 #@! TO.C,D308*
X180524400Y-133146800D03*
X184524400Y-133146800D03*
G04 #@! TD*
D39*
G04 #@! TO.C,D303*
X183769000Y-127378000D03*
X183769000Y-130178000D03*
G04 #@! TD*
D15*
G04 #@! TO.C,R313*
X169418000Y-128533000D03*
X167593000Y-128533000D03*
G04 #@! TD*
D13*
G04 #@! TO.C,C307*
X177750500Y-130300200D03*
X177750500Y-133250200D03*
G04 #@! TD*
D23*
G04 #@! TO.C,C204*
X83500000Y-130775000D03*
X83500000Y-129225000D03*
G04 #@! TD*
D19*
G04 #@! TO.C,R412*
X140300000Y-132212500D03*
X140300000Y-130387500D03*
G04 #@! TD*
M02*
