M48
; DRILL file {KiCad (7.0.0)} date Fri Feb 17 09:17:24 2023
; FORMAT={-:-/ absolute / inch / decimal}
; #@! TF.CreationDate,2023-02-17T09:17:24+01:00
; #@! TF.GenerationSoftware,Kicad,Pcbnew,(7.0.0)
; #@! TF.FileFunction,Plated,1,6,PTH
FMAT,2
INCH
; #@! TA.AperFunction,Plated,PTH,ViaDrill
T1C0.0157
; #@! TA.AperFunction,Plated,PTH,ComponentDrill
T2C0.0236
; #@! TA.AperFunction,Plated,PTH,ComponentDrill
T3C0.0276
; #@! TA.AperFunction,Plated,PTH,ViaDrill
T4C0.0315
; #@! TA.AperFunction,Plated,PTH,ComponentDrill
T5C0.0315
; #@! TA.AperFunction,Plated,PTH,ComponentDrill
T6C0.0390
; #@! TA.AperFunction,Plated,PTH,ComponentDrill
T7C0.0394
; #@! TA.AperFunction,Plated,PTH,ComponentDrill
T8C0.0433
; #@! TA.AperFunction,Plated,PTH,ComponentDrill
T9C0.0472
; #@! TA.AperFunction,Plated,PTH,ComponentDrill
T10C0.0512
; #@! TA.AperFunction,Plated,PTH,ComponentDrill
T11C0.0630
; #@! TA.AperFunction,Plated,PTH,ComponentDrill
T12C0.0689
%
G90
G05
T1
X2.7953Y-2.5
X2.815Y-2.0374
X2.874Y-3.3071
X2.8937Y-3.4449
X3.2276Y-2.2334
X3.2362Y-4.5335
X3.2382Y-2.0374
X3.2874Y-5.1969
X3.3465Y-5.1181
X3.385Y-4.5335
X3.425Y-5.3071
X3.6219Y-4.8423
X3.622Y-5.32
X3.6614Y-2.0374
X3.69Y-4.98
X3.75Y-4.8681
X3.76Y-5.275
X3.8622Y-5.0394
X3.95Y-2.8
X4.0846Y-2.0374
X4.1831Y-4.1437
X4.5079Y-2.0374
X4.7224Y-5.2643
X4.9311Y-2.0374
X4.9409Y-4.1929
X5.0472Y-5.1614
X5.2008Y-5.1772
X5.2342Y-2.9057
X5.274Y-4.28
X5.2835Y-5.189
X5.3543Y-2.0374
X5.3701Y-5.1693
X5.5129Y-5.2548
X5.5709Y-4.4882
X5.5827Y-5.1614
X5.5984Y-5.2992
X5.6713Y-5.502
X5.6772Y-5.3661
X5.689Y-4.772
X5.7047Y-5.1024
X5.7125Y-5.2307
X5.752Y-5.1024
X5.752Y-5.2362
X5.7776Y-2.0374
X5.7992Y-5.5
X5.8425Y-5.1063
X5.8543Y-5.2293
X5.9961Y-4.9528
X6.0476Y-4.977
X6.102Y-4.9805
X6.1024Y-4.3465
X6.126Y-5.0827
X6.1358Y-4.8425
X6.1614Y-4.8031
X6.1657Y-4.9652
X6.2008Y-2.0374
X6.2047Y-4.937
X6.2107Y-4.8567
X6.2362Y-4.7908
X6.2756Y-2.7872
X6.3189Y-5.0197
X6.3346Y-5.0866
X6.3778Y-4.7766
X6.3976Y-4.6457
X6.3976Y-5.0394
X6.4134Y-5.1496
X6.4227Y-2.3266
X6.437Y-2.5787
X6.4605Y-2.4014
X6.4764Y-5.1693
X6.4961Y-2.7559
X6.4961Y-5.1181
X6.5118Y-4.9016
X6.549Y-2.2517
X6.5529Y-2.4154
X6.5551Y-5.1378
X6.5748Y-5.0394
X6.6142Y-4.9213
X6.6142Y-5.2756
X6.624Y-2.0374
X6.673Y-2.2396
X6.7165Y-5.0551
X6.7559Y-2.3307
X6.8057Y-2.3622
X6.811Y-5.2756
X6.819Y-2.2477
X6.8504Y-5.1772
X6.8701Y-5.0551
X6.8921Y-5.28
X6.9488Y-2.3694
X6.998Y-5.288
X7.0079Y-2.1595
X7.0354Y-2.5315
X7.0472Y-2.0374
X7.1417Y-2.4409
X7.2087Y-2.2579
X7.2087Y-2.3937
X7.2402Y-5.1693
X7.4705Y-2.0374
X7.4843Y-2.2835
X7.5472Y-5.1823
X7.5551Y-5.3425
X7.6575Y-5.3386
X7.6969Y-5.1823
X7.7835Y-2.5709
X7.8287Y-5.2028
X7.8937Y-2.0374
X7.9121Y-5.1453
X8.3169Y-2.0374
X8.7298Y-5.3169
X8.7402Y-2.0374
T2
X3.52Y-3.8
X3.7Y-3.6
X3.7Y-3.7
X3.7Y-3.8
X3.7Y-3.9
X3.7Y-4.0
X3.7Y-4.1
X3.7Y-4.2
X3.8Y-3.7
X3.8Y-3.8
X3.8Y-3.9
X3.8Y-4.0
X3.8Y-4.1
X3.8Y-4.2
X3.8Y-4.3
X4.0Y-3.9
T3
X4.5897Y-3.4352
X4.6234Y-3.3539
X4.6234Y-3.5165
X4.7047Y-3.3202
X4.7047Y-3.5502
X4.786Y-3.3539
X4.786Y-3.5165
X4.8197Y-3.4352
X5.5551Y-4.8622
X5.6535Y-4.8622
X6.7008Y-5.315
X6.7008Y-5.4134
T4
X5.9843Y-3.4352
T5
X3.1383Y-3.6242
X3.1383Y-3.7242
X3.1383Y-3.8242
X3.1383Y-3.9242
X3.1383Y-4.0242
X3.1383Y-4.1242
X3.1383Y-4.2242
X3.1383Y-4.3242
X3.1496Y-4.6496
X3.1496Y-4.7992
X3.1496Y-5.0138
X3.1496Y-5.1634
X3.4383Y-3.6242
X3.4383Y-3.7242
X3.4383Y-3.8242
X3.4383Y-3.9242
X3.4383Y-4.0242
X3.4383Y-4.1242
X3.4383Y-4.2242
X3.4383Y-4.3242
X3.6Y-3.6
X3.6Y-3.7
X3.6Y-3.8
X3.6Y-3.9
X3.6Y-4.0
X3.6Y-4.1
X3.6Y-4.2
X3.6Y-4.3
X3.6378Y-3.435
X3.6594Y-4.4488
X3.7874Y-3.435
X3.8091Y-4.4488
X3.9Y-3.6
X3.9Y-3.7
X3.9Y-3.8
X3.9Y-3.9
X3.9Y-4.0
X3.9Y-4.1
X3.9Y-4.2
X3.9Y-4.3
X3.9016Y-4.7999
X3.9508Y-4.6181
X4.0512Y-4.7999
X4.1Y-5.0031
X4.1Y-5.1016
X4.1Y-5.2
X4.1004Y-4.6181
X4.2864Y-4.4657
X4.2864Y-4.7657
X4.3264Y-4.9257
X4.3264Y-5.0753
X4.3864Y-4.4657
X4.3864Y-4.7657
X4.4864Y-4.4657
X4.4864Y-4.7657
X4.5064Y-4.9157
X4.5064Y-5.0653
X4.5864Y-4.4657
X4.5864Y-4.7657
X4.6864Y-4.4657
X4.6864Y-4.7657
X4.6964Y-4.9157
X4.6964Y-5.0653
X4.7864Y-4.4657
X4.7864Y-4.7657
X4.8543Y-5.2677
X4.8864Y-4.4657
X4.8864Y-4.7657
X4.8864Y-4.9307
X4.8864Y-5.0803
X4.9864Y-4.4657
X4.9864Y-4.7657
X5.0512Y-5.2677
X5.1299Y-5.1142
X5.1496Y-4.4646
X5.1535Y-4.6339
X5.2756Y-4.8031
X5.2756Y-5.0
X5.2992Y-4.4646
X5.3031Y-4.6339
X5.3268Y-5.1142
X5.5413Y-4.2028
X5.5413Y-4.3012
X5.5413Y-4.3996
X5.6535Y-5.0413
X5.6811Y-5.3071
X5.7087Y-3.7205
X5.7087Y-3.8205
X5.7087Y-3.9205
X5.7087Y-4.0205
X5.7087Y-4.1205
X5.7087Y-4.2205
X5.7087Y-4.3205
X5.7087Y-4.4205
X5.8465Y-4.5669
X5.8504Y-5.0413
X5.878Y-5.3071
X5.9961Y-4.5669
X6.0087Y-3.7205
X6.0087Y-3.8205
X6.0087Y-3.9205
X6.0087Y-4.0205
X6.0087Y-4.1205
X6.0087Y-4.2205
X6.0087Y-4.3205
X6.0087Y-4.4205
T6
X2.8858Y-2.2124
X2.8858Y-2.3896
T7
X3.3071Y-5.3051
X3.52Y-2.927
X3.5907Y-2.8563
X3.6614Y-2.7856
X5.5669Y-5.3701
T8
X6.4843Y-5.3228
X7.0866Y-2.874
X7.0866Y-5.0
X7.2047Y-2.874
X7.2047Y-5.0
X7.7559Y-2.874
X7.7559Y-5.0
X7.874Y-2.874
X7.874Y-5.0
T9
X8.1496Y-2.2948
X8.1496Y-2.59
T10
X2.9839Y-2.1628
X2.9839Y-2.4388
T11
X8.6465Y-2.487
X8.6465Y-2.687
X8.6465Y-2.887
X8.6465Y-3.087
X8.6465Y-3.287
X8.6465Y-3.487
X8.6465Y-3.687
X8.6465Y-3.887
X8.6465Y-4.087
X8.6465Y-4.287
X8.6465Y-4.487
X8.6465Y-4.687
X8.6465Y-4.887
X8.6465Y-5.087
X8.6465Y-5.287
X8.6465Y-5.487
X8.8465Y-2.487
X8.8465Y-2.687
X8.8465Y-2.887
X8.8465Y-3.087
X8.8465Y-3.287
X8.8465Y-3.487
X8.8465Y-3.687
X8.8465Y-3.887
X8.8465Y-4.087
X8.8465Y-4.287
X8.8465Y-4.487
X8.8465Y-4.687
X8.8465Y-4.887
X8.8465Y-5.087
X8.8465Y-5.287
X8.8465Y-5.487
T12
X3.4252Y-3.4252
X5.6496Y-3.435
X6.0433Y-5.2357
X6.0433Y-5.3866
X6.2109Y-5.2116
X6.2109Y-5.3866
T0
M30
