%TF.GenerationSoftware,KiCad,Pcbnew,(6.0.0)*%
%TF.CreationDate,2022-02-12T12:36:40+01:00*%
%TF.ProjectId,ADRmu,4144526d-752e-46b6-9963-61645f706362,0.3*%
%TF.SameCoordinates,Original*%
%TF.FileFunction,Legend,Bot*%
%TF.FilePolarity,Positive*%
%FSLAX46Y46*%
G04 Gerber Fmt 4.6, Leading zero omitted, Abs format (unit mm)*
G04 Created by KiCad (PCBNEW (6.0.0)) date 2022-02-12 12:36:40*
%MOMM*%
%LPD*%
G01*
G04 APERTURE LIST*
%ADD10C,0.150000*%
%ADD11C,0.120000*%
G04 APERTURE END LIST*
D10*
X200000000Y-75000000D02*
X210000000Y-75000000D01*
X210000000Y-75000000D02*
X210000000Y-125000000D01*
X210000000Y-125000000D02*
X200000000Y-125000000D01*
X200000000Y-125000000D02*
X200000000Y-75000000D01*
G36*
X200000000Y-75000000D02*
G01*
X210000000Y-75000000D01*
X210000000Y-125000000D01*
X200000000Y-125000000D01*
X200000000Y-75000000D01*
G37*
%TO.C,JP201*%
X91588380Y-112699285D02*
X92302666Y-112699285D01*
X92445523Y-112651666D01*
X92540761Y-112556428D01*
X92588380Y-112413571D01*
X92588380Y-112318333D01*
X92588380Y-113175476D02*
X91588380Y-113175476D01*
X91588380Y-113556428D01*
X91636000Y-113651666D01*
X91683619Y-113699285D01*
X91778857Y-113746904D01*
X91921714Y-113746904D01*
X92016952Y-113699285D01*
X92064571Y-113651666D01*
X92112190Y-113556428D01*
X92112190Y-113175476D01*
X91683619Y-114127857D02*
X91636000Y-114175476D01*
X91588380Y-114270714D01*
X91588380Y-114508809D01*
X91636000Y-114604047D01*
X91683619Y-114651666D01*
X91778857Y-114699285D01*
X91874095Y-114699285D01*
X92016952Y-114651666D01*
X92588380Y-114080238D01*
X92588380Y-114699285D01*
X91588380Y-115318333D02*
X91588380Y-115413571D01*
X91636000Y-115508809D01*
X91683619Y-115556428D01*
X91778857Y-115604047D01*
X91969333Y-115651666D01*
X92207428Y-115651666D01*
X92397904Y-115604047D01*
X92493142Y-115556428D01*
X92540761Y-115508809D01*
X92588380Y-115413571D01*
X92588380Y-115318333D01*
X92540761Y-115223095D01*
X92493142Y-115175476D01*
X92397904Y-115127857D01*
X92207428Y-115080238D01*
X91969333Y-115080238D01*
X91778857Y-115127857D01*
X91683619Y-115175476D01*
X91636000Y-115223095D01*
X91588380Y-115318333D01*
X92588380Y-116604047D02*
X92588380Y-116032619D01*
X92588380Y-116318333D02*
X91588380Y-116318333D01*
X91731238Y-116223095D01*
X91826476Y-116127857D01*
X91874095Y-116032619D01*
%TO.C,JP215*%
X98065380Y-137729285D02*
X98779666Y-137729285D01*
X98922523Y-137681666D01*
X99017761Y-137586428D01*
X99065380Y-137443571D01*
X99065380Y-137348333D01*
X99065380Y-138205476D02*
X98065380Y-138205476D01*
X98065380Y-138586428D01*
X98113000Y-138681666D01*
X98160619Y-138729285D01*
X98255857Y-138776904D01*
X98398714Y-138776904D01*
X98493952Y-138729285D01*
X98541571Y-138681666D01*
X98589190Y-138586428D01*
X98589190Y-138205476D01*
X98160619Y-139157857D02*
X98113000Y-139205476D01*
X98065380Y-139300714D01*
X98065380Y-139538809D01*
X98113000Y-139634047D01*
X98160619Y-139681666D01*
X98255857Y-139729285D01*
X98351095Y-139729285D01*
X98493952Y-139681666D01*
X99065380Y-139110238D01*
X99065380Y-139729285D01*
X99065380Y-140681666D02*
X99065380Y-140110238D01*
X99065380Y-140395952D02*
X98065380Y-140395952D01*
X98208238Y-140300714D01*
X98303476Y-140205476D01*
X98351095Y-140110238D01*
X98065380Y-141586428D02*
X98065380Y-141110238D01*
X98541571Y-141062619D01*
X98493952Y-141110238D01*
X98446333Y-141205476D01*
X98446333Y-141443571D01*
X98493952Y-141538809D01*
X98541571Y-141586428D01*
X98636809Y-141634047D01*
X98874904Y-141634047D01*
X98970142Y-141586428D01*
X99017761Y-141538809D01*
X99065380Y-141443571D01*
X99065380Y-141205476D01*
X99017761Y-141110238D01*
X98970142Y-141062619D01*
%TO.C,JP222*%
X89060714Y-97652380D02*
X89060714Y-98366666D01*
X89108333Y-98509523D01*
X89203571Y-98604761D01*
X89346428Y-98652380D01*
X89441666Y-98652380D01*
X88584523Y-98652380D02*
X88584523Y-97652380D01*
X88203571Y-97652380D01*
X88108333Y-97700000D01*
X88060714Y-97747619D01*
X88013095Y-97842857D01*
X88013095Y-97985714D01*
X88060714Y-98080952D01*
X88108333Y-98128571D01*
X88203571Y-98176190D01*
X88584523Y-98176190D01*
X87632142Y-97747619D02*
X87584523Y-97700000D01*
X87489285Y-97652380D01*
X87251190Y-97652380D01*
X87155952Y-97700000D01*
X87108333Y-97747619D01*
X87060714Y-97842857D01*
X87060714Y-97938095D01*
X87108333Y-98080952D01*
X87679761Y-98652380D01*
X87060714Y-98652380D01*
X86679761Y-97747619D02*
X86632142Y-97700000D01*
X86536904Y-97652380D01*
X86298809Y-97652380D01*
X86203571Y-97700000D01*
X86155952Y-97747619D01*
X86108333Y-97842857D01*
X86108333Y-97938095D01*
X86155952Y-98080952D01*
X86727380Y-98652380D01*
X86108333Y-98652380D01*
X85727380Y-97747619D02*
X85679761Y-97700000D01*
X85584523Y-97652380D01*
X85346428Y-97652380D01*
X85251190Y-97700000D01*
X85203571Y-97747619D01*
X85155952Y-97842857D01*
X85155952Y-97938095D01*
X85203571Y-98080952D01*
X85775000Y-98652380D01*
X85155952Y-98652380D01*
%TO.C,JP203*%
X73525380Y-118282285D02*
X74239666Y-118282285D01*
X74382523Y-118234666D01*
X74477761Y-118139428D01*
X74525380Y-117996571D01*
X74525380Y-117901333D01*
X74525380Y-118758476D02*
X73525380Y-118758476D01*
X73525380Y-119139428D01*
X73573000Y-119234666D01*
X73620619Y-119282285D01*
X73715857Y-119329904D01*
X73858714Y-119329904D01*
X73953952Y-119282285D01*
X74001571Y-119234666D01*
X74049190Y-119139428D01*
X74049190Y-118758476D01*
X73620619Y-119710857D02*
X73573000Y-119758476D01*
X73525380Y-119853714D01*
X73525380Y-120091809D01*
X73573000Y-120187047D01*
X73620619Y-120234666D01*
X73715857Y-120282285D01*
X73811095Y-120282285D01*
X73953952Y-120234666D01*
X74525380Y-119663238D01*
X74525380Y-120282285D01*
X73525380Y-120901333D02*
X73525380Y-120996571D01*
X73573000Y-121091809D01*
X73620619Y-121139428D01*
X73715857Y-121187047D01*
X73906333Y-121234666D01*
X74144428Y-121234666D01*
X74334904Y-121187047D01*
X74430142Y-121139428D01*
X74477761Y-121091809D01*
X74525380Y-120996571D01*
X74525380Y-120901333D01*
X74477761Y-120806095D01*
X74430142Y-120758476D01*
X74334904Y-120710857D01*
X74144428Y-120663238D01*
X73906333Y-120663238D01*
X73715857Y-120710857D01*
X73620619Y-120758476D01*
X73573000Y-120806095D01*
X73525380Y-120901333D01*
X73525380Y-121568000D02*
X73525380Y-122187047D01*
X73906333Y-121853714D01*
X73906333Y-121996571D01*
X73953952Y-122091809D01*
X74001571Y-122139428D01*
X74096809Y-122187047D01*
X74334904Y-122187047D01*
X74430142Y-122139428D01*
X74477761Y-122091809D01*
X74525380Y-121996571D01*
X74525380Y-121710857D01*
X74477761Y-121615619D01*
X74430142Y-121568000D01*
%TO.C,JP224*%
X112289380Y-137983285D02*
X113003666Y-137983285D01*
X113146523Y-137935666D01*
X113241761Y-137840428D01*
X113289380Y-137697571D01*
X113289380Y-137602333D01*
X113289380Y-138459476D02*
X112289380Y-138459476D01*
X112289380Y-138840428D01*
X112337000Y-138935666D01*
X112384619Y-138983285D01*
X112479857Y-139030904D01*
X112622714Y-139030904D01*
X112717952Y-138983285D01*
X112765571Y-138935666D01*
X112813190Y-138840428D01*
X112813190Y-138459476D01*
X112384619Y-139411857D02*
X112337000Y-139459476D01*
X112289380Y-139554714D01*
X112289380Y-139792809D01*
X112337000Y-139888047D01*
X112384619Y-139935666D01*
X112479857Y-139983285D01*
X112575095Y-139983285D01*
X112717952Y-139935666D01*
X113289380Y-139364238D01*
X113289380Y-139983285D01*
X112384619Y-140364238D02*
X112337000Y-140411857D01*
X112289380Y-140507095D01*
X112289380Y-140745190D01*
X112337000Y-140840428D01*
X112384619Y-140888047D01*
X112479857Y-140935666D01*
X112575095Y-140935666D01*
X112717952Y-140888047D01*
X113289380Y-140316619D01*
X113289380Y-140935666D01*
X112622714Y-141792809D02*
X113289380Y-141792809D01*
X112241761Y-141554714D02*
X112956047Y-141316619D01*
X112956047Y-141935666D01*
%TO.C,JP210*%
X94810714Y-130966380D02*
X94810714Y-131680666D01*
X94858333Y-131823523D01*
X94953571Y-131918761D01*
X95096428Y-131966380D01*
X95191666Y-131966380D01*
X94334523Y-131966380D02*
X94334523Y-130966380D01*
X93953571Y-130966380D01*
X93858333Y-131014000D01*
X93810714Y-131061619D01*
X93763095Y-131156857D01*
X93763095Y-131299714D01*
X93810714Y-131394952D01*
X93858333Y-131442571D01*
X93953571Y-131490190D01*
X94334523Y-131490190D01*
X93382142Y-131061619D02*
X93334523Y-131014000D01*
X93239285Y-130966380D01*
X93001190Y-130966380D01*
X92905952Y-131014000D01*
X92858333Y-131061619D01*
X92810714Y-131156857D01*
X92810714Y-131252095D01*
X92858333Y-131394952D01*
X93429761Y-131966380D01*
X92810714Y-131966380D01*
X91858333Y-131966380D02*
X92429761Y-131966380D01*
X92144047Y-131966380D02*
X92144047Y-130966380D01*
X92239285Y-131109238D01*
X92334523Y-131204476D01*
X92429761Y-131252095D01*
X91239285Y-130966380D02*
X91144047Y-130966380D01*
X91048809Y-131014000D01*
X91001190Y-131061619D01*
X90953571Y-131156857D01*
X90905952Y-131347333D01*
X90905952Y-131585428D01*
X90953571Y-131775904D01*
X91001190Y-131871142D01*
X91048809Y-131918761D01*
X91144047Y-131966380D01*
X91239285Y-131966380D01*
X91334523Y-131918761D01*
X91382142Y-131871142D01*
X91429761Y-131775904D01*
X91477380Y-131585428D01*
X91477380Y-131347333D01*
X91429761Y-131156857D01*
X91382142Y-131061619D01*
X91334523Y-131014000D01*
X91239285Y-130966380D01*
%TO.C,JP228*%
X107463380Y-137602285D02*
X108177666Y-137602285D01*
X108320523Y-137554666D01*
X108415761Y-137459428D01*
X108463380Y-137316571D01*
X108463380Y-137221333D01*
X108463380Y-138078476D02*
X107463380Y-138078476D01*
X107463380Y-138459428D01*
X107511000Y-138554666D01*
X107558619Y-138602285D01*
X107653857Y-138649904D01*
X107796714Y-138649904D01*
X107891952Y-138602285D01*
X107939571Y-138554666D01*
X107987190Y-138459428D01*
X107987190Y-138078476D01*
X107558619Y-139030857D02*
X107511000Y-139078476D01*
X107463380Y-139173714D01*
X107463380Y-139411809D01*
X107511000Y-139507047D01*
X107558619Y-139554666D01*
X107653857Y-139602285D01*
X107749095Y-139602285D01*
X107891952Y-139554666D01*
X108463380Y-138983238D01*
X108463380Y-139602285D01*
X107558619Y-139983238D02*
X107511000Y-140030857D01*
X107463380Y-140126095D01*
X107463380Y-140364190D01*
X107511000Y-140459428D01*
X107558619Y-140507047D01*
X107653857Y-140554666D01*
X107749095Y-140554666D01*
X107891952Y-140507047D01*
X108463380Y-139935619D01*
X108463380Y-140554666D01*
X107891952Y-141126095D02*
X107844333Y-141030857D01*
X107796714Y-140983238D01*
X107701476Y-140935619D01*
X107653857Y-140935619D01*
X107558619Y-140983238D01*
X107511000Y-141030857D01*
X107463380Y-141126095D01*
X107463380Y-141316571D01*
X107511000Y-141411809D01*
X107558619Y-141459428D01*
X107653857Y-141507047D01*
X107701476Y-141507047D01*
X107796714Y-141459428D01*
X107844333Y-141411809D01*
X107891952Y-141316571D01*
X107891952Y-141126095D01*
X107939571Y-141030857D01*
X107987190Y-140983238D01*
X108082428Y-140935619D01*
X108272904Y-140935619D01*
X108368142Y-140983238D01*
X108415761Y-141030857D01*
X108463380Y-141126095D01*
X108463380Y-141316571D01*
X108415761Y-141411809D01*
X108368142Y-141459428D01*
X108272904Y-141507047D01*
X108082428Y-141507047D01*
X107987190Y-141459428D01*
X107939571Y-141411809D01*
X107891952Y-141316571D01*
%TO.C,JP205*%
X123365214Y-128934380D02*
X123365214Y-129648666D01*
X123412833Y-129791523D01*
X123508071Y-129886761D01*
X123650928Y-129934380D01*
X123746166Y-129934380D01*
X122889023Y-129934380D02*
X122889023Y-128934380D01*
X122508071Y-128934380D01*
X122412833Y-128982000D01*
X122365214Y-129029619D01*
X122317595Y-129124857D01*
X122317595Y-129267714D01*
X122365214Y-129362952D01*
X122412833Y-129410571D01*
X122508071Y-129458190D01*
X122889023Y-129458190D01*
X121936642Y-129029619D02*
X121889023Y-128982000D01*
X121793785Y-128934380D01*
X121555690Y-128934380D01*
X121460452Y-128982000D01*
X121412833Y-129029619D01*
X121365214Y-129124857D01*
X121365214Y-129220095D01*
X121412833Y-129362952D01*
X121984261Y-129934380D01*
X121365214Y-129934380D01*
X120746166Y-128934380D02*
X120650928Y-128934380D01*
X120555690Y-128982000D01*
X120508071Y-129029619D01*
X120460452Y-129124857D01*
X120412833Y-129315333D01*
X120412833Y-129553428D01*
X120460452Y-129743904D01*
X120508071Y-129839142D01*
X120555690Y-129886761D01*
X120650928Y-129934380D01*
X120746166Y-129934380D01*
X120841404Y-129886761D01*
X120889023Y-129839142D01*
X120936642Y-129743904D01*
X120984261Y-129553428D01*
X120984261Y-129315333D01*
X120936642Y-129124857D01*
X120889023Y-129029619D01*
X120841404Y-128982000D01*
X120746166Y-128934380D01*
X119508071Y-128934380D02*
X119984261Y-128934380D01*
X120031880Y-129410571D01*
X119984261Y-129362952D01*
X119889023Y-129315333D01*
X119650928Y-129315333D01*
X119555690Y-129362952D01*
X119508071Y-129410571D01*
X119460452Y-129505809D01*
X119460452Y-129743904D01*
X119508071Y-129839142D01*
X119555690Y-129886761D01*
X119650928Y-129934380D01*
X119889023Y-129934380D01*
X119984261Y-129886761D01*
X120031880Y-129839142D01*
%TO.C,JP204*%
X102510380Y-137602285D02*
X103224666Y-137602285D01*
X103367523Y-137554666D01*
X103462761Y-137459428D01*
X103510380Y-137316571D01*
X103510380Y-137221333D01*
X103510380Y-138078476D02*
X102510380Y-138078476D01*
X102510380Y-138459428D01*
X102558000Y-138554666D01*
X102605619Y-138602285D01*
X102700857Y-138649904D01*
X102843714Y-138649904D01*
X102938952Y-138602285D01*
X102986571Y-138554666D01*
X103034190Y-138459428D01*
X103034190Y-138078476D01*
X102605619Y-139030857D02*
X102558000Y-139078476D01*
X102510380Y-139173714D01*
X102510380Y-139411809D01*
X102558000Y-139507047D01*
X102605619Y-139554666D01*
X102700857Y-139602285D01*
X102796095Y-139602285D01*
X102938952Y-139554666D01*
X103510380Y-138983238D01*
X103510380Y-139602285D01*
X102510380Y-140221333D02*
X102510380Y-140316571D01*
X102558000Y-140411809D01*
X102605619Y-140459428D01*
X102700857Y-140507047D01*
X102891333Y-140554666D01*
X103129428Y-140554666D01*
X103319904Y-140507047D01*
X103415142Y-140459428D01*
X103462761Y-140411809D01*
X103510380Y-140316571D01*
X103510380Y-140221333D01*
X103462761Y-140126095D01*
X103415142Y-140078476D01*
X103319904Y-140030857D01*
X103129428Y-139983238D01*
X102891333Y-139983238D01*
X102700857Y-140030857D01*
X102605619Y-140078476D01*
X102558000Y-140126095D01*
X102510380Y-140221333D01*
X102843714Y-141411809D02*
X103510380Y-141411809D01*
X102462761Y-141173714D02*
X103177047Y-140935619D01*
X103177047Y-141554666D01*
%TO.C,JP217*%
X123360714Y-123752380D02*
X123360714Y-124466666D01*
X123408333Y-124609523D01*
X123503571Y-124704761D01*
X123646428Y-124752380D01*
X123741666Y-124752380D01*
X122884523Y-124752380D02*
X122884523Y-123752380D01*
X122503571Y-123752380D01*
X122408333Y-123800000D01*
X122360714Y-123847619D01*
X122313095Y-123942857D01*
X122313095Y-124085714D01*
X122360714Y-124180952D01*
X122408333Y-124228571D01*
X122503571Y-124276190D01*
X122884523Y-124276190D01*
X121932142Y-123847619D02*
X121884523Y-123800000D01*
X121789285Y-123752380D01*
X121551190Y-123752380D01*
X121455952Y-123800000D01*
X121408333Y-123847619D01*
X121360714Y-123942857D01*
X121360714Y-124038095D01*
X121408333Y-124180952D01*
X121979761Y-124752380D01*
X121360714Y-124752380D01*
X120408333Y-124752380D02*
X120979761Y-124752380D01*
X120694047Y-124752380D02*
X120694047Y-123752380D01*
X120789285Y-123895238D01*
X120884523Y-123990476D01*
X120979761Y-124038095D01*
X120075000Y-123752380D02*
X119408333Y-123752380D01*
X119836904Y-124752380D01*
D11*
%TO.C,JP201*%
X89797000Y-115885000D02*
X90397000Y-115885000D01*
X91097000Y-115185000D02*
X91097000Y-113785000D01*
X89097000Y-113785000D02*
X89097000Y-115185000D01*
X90397000Y-113085000D02*
X89797000Y-113085000D01*
X89097000Y-115185000D02*
G75*
G03*
X89797000Y-115885000I699999J-1D01*
G01*
X89797000Y-113085000D02*
G75*
G03*
X89097000Y-113785000I-1J-699999D01*
G01*
X90397000Y-115885000D02*
G75*
G03*
X91097000Y-115185000I1J699999D01*
G01*
X91097000Y-113785000D02*
G75*
G03*
X90397000Y-113085000I-699999J1D01*
G01*
%TO.C,JP215*%
X101391000Y-140401500D02*
X101391000Y-139001500D01*
X100691000Y-138301500D02*
X100091000Y-138301500D01*
X99391000Y-139001500D02*
X99391000Y-140401500D01*
X100091000Y-141101500D02*
X100691000Y-141101500D01*
X100091000Y-138301500D02*
G75*
G03*
X99391000Y-139001500I-1J-699999D01*
G01*
X101391000Y-139001500D02*
G75*
G03*
X100691000Y-138301500I-699999J1D01*
G01*
X99391000Y-140401500D02*
G75*
G03*
X100091000Y-141101500I699999J-1D01*
G01*
X100691000Y-141101500D02*
G75*
G03*
X101391000Y-140401500I1J699999D01*
G01*
%TO.C,JP222*%
X88675000Y-100300000D02*
X88675000Y-99700000D01*
X87975000Y-99000000D02*
X86575000Y-99000000D01*
X85875000Y-99700000D02*
X85875000Y-100300000D01*
X86575000Y-101000000D02*
X87975000Y-101000000D01*
X87975000Y-101000000D02*
G75*
G03*
X88675000Y-100300000I1J699999D01*
G01*
X88675000Y-99700000D02*
G75*
G03*
X87975000Y-99000000I-699999J1D01*
G01*
X86575000Y-99000000D02*
G75*
G03*
X85875000Y-99700000I-1J-699999D01*
G01*
X85875000Y-100300000D02*
G75*
G03*
X86575000Y-101000000I699999J-1D01*
G01*
%TO.C,JP203*%
X76173000Y-118668000D02*
X75573000Y-118668000D01*
X75573000Y-121468000D02*
X76173000Y-121468000D01*
X74873000Y-119368000D02*
X74873000Y-120768000D01*
X76873000Y-120768000D02*
X76873000Y-119368000D01*
X76873000Y-119368000D02*
G75*
G03*
X76173000Y-118668000I-699999J1D01*
G01*
X74873000Y-120768000D02*
G75*
G03*
X75573000Y-121468000I699999J-1D01*
G01*
X76173000Y-121468000D02*
G75*
G03*
X76873000Y-120768000I1J699999D01*
G01*
X75573000Y-118668000D02*
G75*
G03*
X74873000Y-119368000I-1J-699999D01*
G01*
%TO.C,JP224*%
X113615000Y-139128500D02*
X113615000Y-140528500D01*
X115615000Y-140528500D02*
X115615000Y-139128500D01*
X114915000Y-138428500D02*
X114315000Y-138428500D01*
X114315000Y-141228500D02*
X114915000Y-141228500D01*
X113615000Y-140528500D02*
G75*
G03*
X114315000Y-141228500I699999J-1D01*
G01*
X114315000Y-138428500D02*
G75*
G03*
X113615000Y-139128500I-1J-699999D01*
G01*
X115615000Y-139128500D02*
G75*
G03*
X114915000Y-138428500I-699999J1D01*
G01*
X114915000Y-141228500D02*
G75*
G03*
X115615000Y-140528500I1J699999D01*
G01*
%TO.C,JP210*%
X94557000Y-133719000D02*
X94557000Y-133119000D01*
X92457000Y-134419000D02*
X93857000Y-134419000D01*
X91757000Y-133119000D02*
X91757000Y-133719000D01*
X93857000Y-132419000D02*
X92457000Y-132419000D01*
X91757000Y-133719000D02*
G75*
G03*
X92457000Y-134419000I699999J-1D01*
G01*
X92457000Y-132419000D02*
G75*
G03*
X91757000Y-133119000I-1J-699999D01*
G01*
X93857000Y-134419000D02*
G75*
G03*
X94557000Y-133719000I1J699999D01*
G01*
X94557000Y-133119000D02*
G75*
G03*
X93857000Y-132419000I-699999J1D01*
G01*
%TO.C,JP228*%
X110089000Y-138110000D02*
X109489000Y-138110000D01*
X109489000Y-140910000D02*
X110089000Y-140910000D01*
X110789000Y-140210000D02*
X110789000Y-138810000D01*
X108789000Y-138810000D02*
X108789000Y-140210000D01*
X108789000Y-140210000D02*
G75*
G03*
X109489000Y-140910000I699999J-1D01*
G01*
X110089000Y-140910000D02*
G75*
G03*
X110789000Y-140210000I1J699999D01*
G01*
X110789000Y-138810000D02*
G75*
G03*
X110089000Y-138110000I-699999J1D01*
G01*
X109489000Y-138110000D02*
G75*
G03*
X108789000Y-138810000I-1J-699999D01*
G01*
%TO.C,JP205*%
X122979500Y-131560000D02*
X122979500Y-130960000D01*
X120179500Y-130960000D02*
X120179500Y-131560000D01*
X122279500Y-130260000D02*
X120879500Y-130260000D01*
X120879500Y-132260000D02*
X122279500Y-132260000D01*
X122979500Y-130960000D02*
G75*
G03*
X122279500Y-130260000I-699999J1D01*
G01*
X120179500Y-131560000D02*
G75*
G03*
X120879500Y-132260000I699999J-1D01*
G01*
X122279500Y-132260000D02*
G75*
G03*
X122979500Y-131560000I1J699999D01*
G01*
X120879500Y-130260000D02*
G75*
G03*
X120179500Y-130960000I-1J-699999D01*
G01*
%TO.C,JP204*%
X103963000Y-138747500D02*
X103963000Y-140147500D01*
X104663000Y-140847500D02*
X105263000Y-140847500D01*
X105963000Y-140147500D02*
X105963000Y-138747500D01*
X105263000Y-138047500D02*
X104663000Y-138047500D01*
X104663000Y-138047500D02*
G75*
G03*
X103963000Y-138747500I-1J-699999D01*
G01*
X105963000Y-138747500D02*
G75*
G03*
X105263000Y-138047500I-699999J1D01*
G01*
X103963000Y-140147500D02*
G75*
G03*
X104663000Y-140847500I699999J-1D01*
G01*
X105263000Y-140847500D02*
G75*
G03*
X105963000Y-140147500I1J699999D01*
G01*
%TO.C,JP217*%
X122295000Y-125180000D02*
X120895000Y-125180000D01*
X120895000Y-127180000D02*
X122295000Y-127180000D01*
X122995000Y-126480000D02*
X122995000Y-125880000D01*
X120195000Y-125880000D02*
X120195000Y-126480000D01*
X120195000Y-126480000D02*
G75*
G03*
X120895000Y-127180000I699999J-1D01*
G01*
X120895000Y-125180000D02*
G75*
G03*
X120195000Y-125880000I-1J-699999D01*
G01*
X122995000Y-125880000D02*
G75*
G03*
X122295000Y-125180000I-699999J1D01*
G01*
X122295000Y-127180000D02*
G75*
G03*
X122995000Y-126480000I1J699999D01*
G01*
%TD*%
M02*
