G04 #@! TF.GenerationSoftware,KiCad,Pcbnew,(6.0.0)*
G04 #@! TF.CreationDate,2022-03-04T00:59:08+01:00*
G04 #@! TF.ProjectId,ADRmu,4144526d-752e-46b6-9963-61645f706362,0.4*
G04 #@! TF.SameCoordinates,Original*
G04 #@! TF.FileFunction,Legend,Bot*
G04 #@! TF.FilePolarity,Positive*
%FSLAX46Y46*%
G04 Gerber Fmt 4.6, Leading zero omitted, Abs format (unit mm)*
G04 Created by KiCad (PCBNEW (6.0.0)) date 2022-03-04 00:59:08*
%MOMM*%
%LPD*%
G01*
G04 APERTURE LIST*
%ADD10C,0.150000*%
%ADD11C,0.120000*%
G04 APERTURE END LIST*
D10*
G04 #@! TO.C,JP201*
X104452380Y-99968661D02*
X105166666Y-99968661D01*
X105309523Y-99921042D01*
X105404761Y-99825804D01*
X105452380Y-99682947D01*
X105452380Y-99587709D01*
X105452380Y-100444852D02*
X104452380Y-100444852D01*
X104452380Y-100825804D01*
X104500000Y-100921042D01*
X104547619Y-100968661D01*
X104642857Y-101016280D01*
X104785714Y-101016280D01*
X104880952Y-100968661D01*
X104928571Y-100921042D01*
X104976190Y-100825804D01*
X104976190Y-100444852D01*
X104547619Y-101397233D02*
X104500000Y-101444852D01*
X104452380Y-101540090D01*
X104452380Y-101778185D01*
X104500000Y-101873423D01*
X104547619Y-101921042D01*
X104642857Y-101968661D01*
X104738095Y-101968661D01*
X104880952Y-101921042D01*
X105452380Y-101349614D01*
X105452380Y-101968661D01*
X104452380Y-102587709D02*
X104452380Y-102682947D01*
X104500000Y-102778185D01*
X104547619Y-102825804D01*
X104642857Y-102873423D01*
X104833333Y-102921042D01*
X105071428Y-102921042D01*
X105261904Y-102873423D01*
X105357142Y-102825804D01*
X105404761Y-102778185D01*
X105452380Y-102682947D01*
X105452380Y-102587709D01*
X105404761Y-102492471D01*
X105357142Y-102444852D01*
X105261904Y-102397233D01*
X105071428Y-102349614D01*
X104833333Y-102349614D01*
X104642857Y-102397233D01*
X104547619Y-102444852D01*
X104500000Y-102492471D01*
X104452380Y-102587709D01*
X105452380Y-103873423D02*
X105452380Y-103301995D01*
X105452380Y-103587709D02*
X104452380Y-103587709D01*
X104595238Y-103492471D01*
X104690476Y-103397233D01*
X104738095Y-103301995D01*
G04 #@! TO.C,JP213*
X109452380Y-130214285D02*
X110166666Y-130214285D01*
X110309523Y-130166666D01*
X110404761Y-130071428D01*
X110452380Y-129928571D01*
X110452380Y-129833333D01*
X110452380Y-130690476D02*
X109452380Y-130690476D01*
X109452380Y-131071428D01*
X109500000Y-131166666D01*
X109547619Y-131214285D01*
X109642857Y-131261904D01*
X109785714Y-131261904D01*
X109880952Y-131214285D01*
X109928571Y-131166666D01*
X109976190Y-131071428D01*
X109976190Y-130690476D01*
X109547619Y-131642857D02*
X109500000Y-131690476D01*
X109452380Y-131785714D01*
X109452380Y-132023809D01*
X109500000Y-132119047D01*
X109547619Y-132166666D01*
X109642857Y-132214285D01*
X109738095Y-132214285D01*
X109880952Y-132166666D01*
X110452380Y-131595238D01*
X110452380Y-132214285D01*
X110452380Y-133166666D02*
X110452380Y-132595238D01*
X110452380Y-132880952D02*
X109452380Y-132880952D01*
X109595238Y-132785714D01*
X109690476Y-132690476D01*
X109738095Y-132595238D01*
X109452380Y-133500000D02*
X109452380Y-134119047D01*
X109833333Y-133785714D01*
X109833333Y-133928571D01*
X109880952Y-134023809D01*
X109928571Y-134071428D01*
X110023809Y-134119047D01*
X110261904Y-134119047D01*
X110357142Y-134071428D01*
X110404761Y-134023809D01*
X110452380Y-133928571D01*
X110452380Y-133642857D01*
X110404761Y-133547619D01*
X110357142Y-133500000D01*
G04 #@! TO.C,JP220*
X98560338Y-84901380D02*
X98560338Y-85615666D01*
X98607957Y-85758523D01*
X98703195Y-85853761D01*
X98846052Y-85901380D01*
X98941290Y-85901380D01*
X98084147Y-85901380D02*
X98084147Y-84901380D01*
X97703195Y-84901380D01*
X97607957Y-84949000D01*
X97560338Y-84996619D01*
X97512719Y-85091857D01*
X97512719Y-85234714D01*
X97560338Y-85329952D01*
X97607957Y-85377571D01*
X97703195Y-85425190D01*
X98084147Y-85425190D01*
X97131766Y-84996619D02*
X97084147Y-84949000D01*
X96988909Y-84901380D01*
X96750814Y-84901380D01*
X96655576Y-84949000D01*
X96607957Y-84996619D01*
X96560338Y-85091857D01*
X96560338Y-85187095D01*
X96607957Y-85329952D01*
X97179385Y-85901380D01*
X96560338Y-85901380D01*
X96179385Y-84996619D02*
X96131766Y-84949000D01*
X96036528Y-84901380D01*
X95798433Y-84901380D01*
X95703195Y-84949000D01*
X95655576Y-84996619D01*
X95607957Y-85091857D01*
X95607957Y-85187095D01*
X95655576Y-85329952D01*
X96227004Y-85901380D01*
X95607957Y-85901380D01*
X94988909Y-84901380D02*
X94893671Y-84901380D01*
X94798433Y-84949000D01*
X94750814Y-84996619D01*
X94703195Y-85091857D01*
X94655576Y-85282333D01*
X94655576Y-85520428D01*
X94703195Y-85710904D01*
X94750814Y-85806142D01*
X94798433Y-85853761D01*
X94893671Y-85901380D01*
X94988909Y-85901380D01*
X95084147Y-85853761D01*
X95131766Y-85806142D01*
X95179385Y-85710904D01*
X95227004Y-85520428D01*
X95227004Y-85282333D01*
X95179385Y-85091857D01*
X95131766Y-84996619D01*
X95084147Y-84949000D01*
X94988909Y-84901380D01*
G04 #@! TO.C,JP222*
X123452380Y-130214285D02*
X124166666Y-130214285D01*
X124309523Y-130166666D01*
X124404761Y-130071428D01*
X124452380Y-129928571D01*
X124452380Y-129833333D01*
X124452380Y-130690476D02*
X123452380Y-130690476D01*
X123452380Y-131071428D01*
X123500000Y-131166666D01*
X123547619Y-131214285D01*
X123642857Y-131261904D01*
X123785714Y-131261904D01*
X123880952Y-131214285D01*
X123928571Y-131166666D01*
X123976190Y-131071428D01*
X123976190Y-130690476D01*
X123547619Y-131642857D02*
X123500000Y-131690476D01*
X123452380Y-131785714D01*
X123452380Y-132023809D01*
X123500000Y-132119047D01*
X123547619Y-132166666D01*
X123642857Y-132214285D01*
X123738095Y-132214285D01*
X123880952Y-132166666D01*
X124452380Y-131595238D01*
X124452380Y-132214285D01*
X123547619Y-132595238D02*
X123500000Y-132642857D01*
X123452380Y-132738095D01*
X123452380Y-132976190D01*
X123500000Y-133071428D01*
X123547619Y-133119047D01*
X123642857Y-133166666D01*
X123738095Y-133166666D01*
X123880952Y-133119047D01*
X124452380Y-132547619D01*
X124452380Y-133166666D01*
X123547619Y-133547619D02*
X123500000Y-133595238D01*
X123452380Y-133690476D01*
X123452380Y-133928571D01*
X123500000Y-134023809D01*
X123547619Y-134071428D01*
X123642857Y-134119047D01*
X123738095Y-134119047D01*
X123880952Y-134071428D01*
X124452380Y-133500000D01*
X124452380Y-134119047D01*
G04 #@! TO.C,JP208*
X104310338Y-118215380D02*
X104310338Y-118929666D01*
X104357957Y-119072523D01*
X104453195Y-119167761D01*
X104596052Y-119215380D01*
X104691290Y-119215380D01*
X103834147Y-119215380D02*
X103834147Y-118215380D01*
X103453195Y-118215380D01*
X103357957Y-118263000D01*
X103310338Y-118310619D01*
X103262719Y-118405857D01*
X103262719Y-118548714D01*
X103310338Y-118643952D01*
X103357957Y-118691571D01*
X103453195Y-118739190D01*
X103834147Y-118739190D01*
X102881766Y-118310619D02*
X102834147Y-118263000D01*
X102738909Y-118215380D01*
X102500814Y-118215380D01*
X102405576Y-118263000D01*
X102357957Y-118310619D01*
X102310338Y-118405857D01*
X102310338Y-118501095D01*
X102357957Y-118643952D01*
X102929385Y-119215380D01*
X102310338Y-119215380D01*
X101691290Y-118215380D02*
X101596052Y-118215380D01*
X101500814Y-118263000D01*
X101453195Y-118310619D01*
X101405576Y-118405857D01*
X101357957Y-118596333D01*
X101357957Y-118834428D01*
X101405576Y-119024904D01*
X101453195Y-119120142D01*
X101500814Y-119167761D01*
X101596052Y-119215380D01*
X101691290Y-119215380D01*
X101786528Y-119167761D01*
X101834147Y-119120142D01*
X101881766Y-119024904D01*
X101929385Y-118834428D01*
X101929385Y-118596333D01*
X101881766Y-118405857D01*
X101834147Y-118310619D01*
X101786528Y-118263000D01*
X101691290Y-118215380D01*
X100786528Y-118643952D02*
X100881766Y-118596333D01*
X100929385Y-118548714D01*
X100977004Y-118453476D01*
X100977004Y-118405857D01*
X100929385Y-118310619D01*
X100881766Y-118263000D01*
X100786528Y-118215380D01*
X100596052Y-118215380D01*
X100500814Y-118263000D01*
X100453195Y-118310619D01*
X100405576Y-118405857D01*
X100405576Y-118453476D01*
X100453195Y-118548714D01*
X100500814Y-118596333D01*
X100596052Y-118643952D01*
X100786528Y-118643952D01*
X100881766Y-118691571D01*
X100929385Y-118739190D01*
X100977004Y-118834428D01*
X100977004Y-119024904D01*
X100929385Y-119120142D01*
X100881766Y-119167761D01*
X100786528Y-119215380D01*
X100596052Y-119215380D01*
X100500814Y-119167761D01*
X100453195Y-119120142D01*
X100405576Y-119024904D01*
X100405576Y-118834428D01*
X100453195Y-118739190D01*
X100500814Y-118691571D01*
X100596052Y-118643952D01*
G04 #@! TO.C,JP226*
X118952380Y-130214285D02*
X119666666Y-130214285D01*
X119809523Y-130166666D01*
X119904761Y-130071428D01*
X119952380Y-129928571D01*
X119952380Y-129833333D01*
X119952380Y-130690476D02*
X118952380Y-130690476D01*
X118952380Y-131071428D01*
X119000000Y-131166666D01*
X119047619Y-131214285D01*
X119142857Y-131261904D01*
X119285714Y-131261904D01*
X119380952Y-131214285D01*
X119428571Y-131166666D01*
X119476190Y-131071428D01*
X119476190Y-130690476D01*
X119047619Y-131642857D02*
X119000000Y-131690476D01*
X118952380Y-131785714D01*
X118952380Y-132023809D01*
X119000000Y-132119047D01*
X119047619Y-132166666D01*
X119142857Y-132214285D01*
X119238095Y-132214285D01*
X119380952Y-132166666D01*
X119952380Y-131595238D01*
X119952380Y-132214285D01*
X119047619Y-132595238D02*
X119000000Y-132642857D01*
X118952380Y-132738095D01*
X118952380Y-132976190D01*
X119000000Y-133071428D01*
X119047619Y-133119047D01*
X119142857Y-133166666D01*
X119238095Y-133166666D01*
X119380952Y-133119047D01*
X119952380Y-132547619D01*
X119952380Y-133166666D01*
X118952380Y-134023809D02*
X118952380Y-133833333D01*
X119000000Y-133738095D01*
X119047619Y-133690476D01*
X119190476Y-133595238D01*
X119380952Y-133547619D01*
X119761904Y-133547619D01*
X119857142Y-133595238D01*
X119904761Y-133642857D01*
X119952380Y-133738095D01*
X119952380Y-133928571D01*
X119904761Y-134023809D01*
X119857142Y-134071428D01*
X119761904Y-134119047D01*
X119523809Y-134119047D01*
X119428571Y-134071428D01*
X119380952Y-134023809D01*
X119333333Y-133928571D01*
X119333333Y-133738095D01*
X119380952Y-133642857D01*
X119428571Y-133595238D01*
X119523809Y-133547619D01*
G04 #@! TO.C,JP203*
X132864838Y-116183380D02*
X132864838Y-116897666D01*
X132912457Y-117040523D01*
X133007695Y-117135761D01*
X133150552Y-117183380D01*
X133245790Y-117183380D01*
X132388647Y-117183380D02*
X132388647Y-116183380D01*
X132007695Y-116183380D01*
X131912457Y-116231000D01*
X131864838Y-116278619D01*
X131817219Y-116373857D01*
X131817219Y-116516714D01*
X131864838Y-116611952D01*
X131912457Y-116659571D01*
X132007695Y-116707190D01*
X132388647Y-116707190D01*
X131436266Y-116278619D02*
X131388647Y-116231000D01*
X131293409Y-116183380D01*
X131055314Y-116183380D01*
X130960076Y-116231000D01*
X130912457Y-116278619D01*
X130864838Y-116373857D01*
X130864838Y-116469095D01*
X130912457Y-116611952D01*
X131483885Y-117183380D01*
X130864838Y-117183380D01*
X130245790Y-116183380D02*
X130150552Y-116183380D01*
X130055314Y-116231000D01*
X130007695Y-116278619D01*
X129960076Y-116373857D01*
X129912457Y-116564333D01*
X129912457Y-116802428D01*
X129960076Y-116992904D01*
X130007695Y-117088142D01*
X130055314Y-117135761D01*
X130150552Y-117183380D01*
X130245790Y-117183380D01*
X130341028Y-117135761D01*
X130388647Y-117088142D01*
X130436266Y-116992904D01*
X130483885Y-116802428D01*
X130483885Y-116564333D01*
X130436266Y-116373857D01*
X130388647Y-116278619D01*
X130341028Y-116231000D01*
X130245790Y-116183380D01*
X129579124Y-116183380D02*
X128960076Y-116183380D01*
X129293409Y-116564333D01*
X129150552Y-116564333D01*
X129055314Y-116611952D01*
X129007695Y-116659571D01*
X128960076Y-116754809D01*
X128960076Y-116992904D01*
X129007695Y-117088142D01*
X129055314Y-117135761D01*
X129150552Y-117183380D01*
X129436266Y-117183380D01*
X129531504Y-117135761D01*
X129579124Y-117088142D01*
G04 #@! TO.C,JP202*
X113952380Y-130214285D02*
X114666666Y-130214285D01*
X114809523Y-130166666D01*
X114904761Y-130071428D01*
X114952380Y-129928571D01*
X114952380Y-129833333D01*
X114952380Y-130690476D02*
X113952380Y-130690476D01*
X113952380Y-131071428D01*
X114000000Y-131166666D01*
X114047619Y-131214285D01*
X114142857Y-131261904D01*
X114285714Y-131261904D01*
X114380952Y-131214285D01*
X114428571Y-131166666D01*
X114476190Y-131071428D01*
X114476190Y-130690476D01*
X114047619Y-131642857D02*
X114000000Y-131690476D01*
X113952380Y-131785714D01*
X113952380Y-132023809D01*
X114000000Y-132119047D01*
X114047619Y-132166666D01*
X114142857Y-132214285D01*
X114238095Y-132214285D01*
X114380952Y-132166666D01*
X114952380Y-131595238D01*
X114952380Y-132214285D01*
X113952380Y-132833333D02*
X113952380Y-132928571D01*
X114000000Y-133023809D01*
X114047619Y-133071428D01*
X114142857Y-133119047D01*
X114333333Y-133166666D01*
X114571428Y-133166666D01*
X114761904Y-133119047D01*
X114857142Y-133071428D01*
X114904761Y-133023809D01*
X114952380Y-132928571D01*
X114952380Y-132833333D01*
X114904761Y-132738095D01*
X114857142Y-132690476D01*
X114761904Y-132642857D01*
X114571428Y-132595238D01*
X114333333Y-132595238D01*
X114142857Y-132642857D01*
X114047619Y-132690476D01*
X114000000Y-132738095D01*
X113952380Y-132833333D01*
X114047619Y-133547619D02*
X114000000Y-133595238D01*
X113952380Y-133690476D01*
X113952380Y-133928571D01*
X114000000Y-134023809D01*
X114047619Y-134071428D01*
X114142857Y-134119047D01*
X114238095Y-134119047D01*
X114380952Y-134071428D01*
X114952380Y-133500000D01*
X114952380Y-134119047D01*
G04 #@! TO.C,JP215*
X132860338Y-111001380D02*
X132860338Y-111715666D01*
X132907957Y-111858523D01*
X133003195Y-111953761D01*
X133146052Y-112001380D01*
X133241290Y-112001380D01*
X132384147Y-112001380D02*
X132384147Y-111001380D01*
X132003195Y-111001380D01*
X131907957Y-111049000D01*
X131860338Y-111096619D01*
X131812719Y-111191857D01*
X131812719Y-111334714D01*
X131860338Y-111429952D01*
X131907957Y-111477571D01*
X132003195Y-111525190D01*
X132384147Y-111525190D01*
X131431766Y-111096619D02*
X131384147Y-111049000D01*
X131288909Y-111001380D01*
X131050814Y-111001380D01*
X130955576Y-111049000D01*
X130907957Y-111096619D01*
X130860338Y-111191857D01*
X130860338Y-111287095D01*
X130907957Y-111429952D01*
X131479385Y-112001380D01*
X130860338Y-112001380D01*
X129907957Y-112001380D02*
X130479385Y-112001380D01*
X130193671Y-112001380D02*
X130193671Y-111001380D01*
X130288909Y-111144238D01*
X130384147Y-111239476D01*
X130479385Y-111287095D01*
X129003195Y-111001380D02*
X129479385Y-111001380D01*
X129527004Y-111477571D01*
X129479385Y-111429952D01*
X129384147Y-111382333D01*
X129146052Y-111382333D01*
X129050814Y-111429952D01*
X129003195Y-111477571D01*
X128955576Y-111572809D01*
X128955576Y-111810904D01*
X129003195Y-111906142D01*
X129050814Y-111953761D01*
X129146052Y-112001380D01*
X129384147Y-112001380D01*
X129479385Y-111953761D01*
X129527004Y-111906142D01*
D11*
G04 #@! TO.C,JP201*
X102799624Y-100354376D02*
X102199624Y-100354376D01*
X101499624Y-101054376D02*
X101499624Y-102454376D01*
X103499624Y-102454376D02*
X103499624Y-101054376D01*
X102199624Y-103154376D02*
X102799624Y-103154376D01*
X103499624Y-101054376D02*
G75*
G03*
X102799624Y-100354376I-699999J1D01*
G01*
X102799624Y-103154376D02*
G75*
G03*
X103499624Y-102454376I1J699999D01*
G01*
X102199624Y-100354376D02*
G75*
G03*
X101499624Y-101054376I-1J-699999D01*
G01*
X101499624Y-102454376D02*
G75*
G03*
X102199624Y-103154376I699999J-1D01*
G01*
G04 #@! TO.C,JP213*
X110890624Y-127650500D02*
X110890624Y-126250500D01*
X110190624Y-125550500D02*
X109590624Y-125550500D01*
X108890624Y-126250500D02*
X108890624Y-127650500D01*
X109590624Y-128350500D02*
X110190624Y-128350500D01*
X109590624Y-125550500D02*
G75*
G03*
X108890624Y-126250500I-1J-699999D01*
G01*
X110890624Y-126250500D02*
G75*
G03*
X110190624Y-125550500I-699999J1D01*
G01*
X108890624Y-127650500D02*
G75*
G03*
X109590624Y-128350500I699999J-1D01*
G01*
X110190624Y-128350500D02*
G75*
G03*
X110890624Y-127650500I1J699999D01*
G01*
G04 #@! TO.C,JP220*
X98174624Y-87549000D02*
X98174624Y-86949000D01*
X97474624Y-86249000D02*
X96074624Y-86249000D01*
X95374624Y-86949000D02*
X95374624Y-87549000D01*
X96074624Y-88249000D02*
X97474624Y-88249000D01*
X97474624Y-88249000D02*
G75*
G03*
X98174624Y-87549000I1J699999D01*
G01*
X98174624Y-86949000D02*
G75*
G03*
X97474624Y-86249000I-699999J1D01*
G01*
X96074624Y-86249000D02*
G75*
G03*
X95374624Y-86949000I-1J-699999D01*
G01*
X95374624Y-87549000D02*
G75*
G03*
X96074624Y-88249000I699999J-1D01*
G01*
G04 #@! TO.C,JP222*
X123114624Y-126377500D02*
X123114624Y-127777500D01*
X125114624Y-127777500D02*
X125114624Y-126377500D01*
X124414624Y-125677500D02*
X123814624Y-125677500D01*
X123814624Y-128477500D02*
X124414624Y-128477500D01*
X123114624Y-127777500D02*
G75*
G03*
X123814624Y-128477500I699999J-1D01*
G01*
X123814624Y-125677500D02*
G75*
G03*
X123114624Y-126377500I-1J-699999D01*
G01*
X125114624Y-126377500D02*
G75*
G03*
X124414624Y-125677500I-699999J1D01*
G01*
X124414624Y-128477500D02*
G75*
G03*
X125114624Y-127777500I1J699999D01*
G01*
G04 #@! TO.C,JP208*
X104056624Y-120968000D02*
X104056624Y-120368000D01*
X101956624Y-121668000D02*
X103356624Y-121668000D01*
X101256624Y-120368000D02*
X101256624Y-120968000D01*
X103356624Y-119668000D02*
X101956624Y-119668000D01*
X101256624Y-120968000D02*
G75*
G03*
X101956624Y-121668000I699999J-1D01*
G01*
X101956624Y-119668000D02*
G75*
G03*
X101256624Y-120368000I-1J-699999D01*
G01*
X103356624Y-121668000D02*
G75*
G03*
X104056624Y-120968000I1J699999D01*
G01*
X104056624Y-120368000D02*
G75*
G03*
X103356624Y-119668000I-699999J1D01*
G01*
G04 #@! TO.C,JP226*
X119588624Y-125359000D02*
X118988624Y-125359000D01*
X118988624Y-128159000D02*
X119588624Y-128159000D01*
X120288624Y-127459000D02*
X120288624Y-126059000D01*
X118288624Y-126059000D02*
X118288624Y-127459000D01*
X118288624Y-127459000D02*
G75*
G03*
X118988624Y-128159000I699999J-1D01*
G01*
X119588624Y-128159000D02*
G75*
G03*
X120288624Y-127459000I1J699999D01*
G01*
X120288624Y-126059000D02*
G75*
G03*
X119588624Y-125359000I-699999J1D01*
G01*
X118988624Y-125359000D02*
G75*
G03*
X118288624Y-126059000I-1J-699999D01*
G01*
G04 #@! TO.C,JP203*
X132479124Y-118809000D02*
X132479124Y-118209000D01*
X129679124Y-118209000D02*
X129679124Y-118809000D01*
X131779124Y-117509000D02*
X130379124Y-117509000D01*
X130379124Y-119509000D02*
X131779124Y-119509000D01*
X132479124Y-118209000D02*
G75*
G03*
X131779124Y-117509000I-699999J1D01*
G01*
X129679124Y-118809000D02*
G75*
G03*
X130379124Y-119509000I699999J-1D01*
G01*
X131779124Y-119509000D02*
G75*
G03*
X132479124Y-118809000I1J699999D01*
G01*
X130379124Y-117509000D02*
G75*
G03*
X129679124Y-118209000I-1J-699999D01*
G01*
G04 #@! TO.C,JP202*
X113462624Y-125996500D02*
X113462624Y-127396500D01*
X114162624Y-128096500D02*
X114762624Y-128096500D01*
X115462624Y-127396500D02*
X115462624Y-125996500D01*
X114762624Y-125296500D02*
X114162624Y-125296500D01*
X114162624Y-125296500D02*
G75*
G03*
X113462624Y-125996500I-1J-699999D01*
G01*
X115462624Y-125996500D02*
G75*
G03*
X114762624Y-125296500I-699999J1D01*
G01*
X113462624Y-127396500D02*
G75*
G03*
X114162624Y-128096500I699999J-1D01*
G01*
X114762624Y-128096500D02*
G75*
G03*
X115462624Y-127396500I1J699999D01*
G01*
G04 #@! TO.C,JP215*
X131794624Y-112429000D02*
X130394624Y-112429000D01*
X130394624Y-114429000D02*
X131794624Y-114429000D01*
X132494624Y-113729000D02*
X132494624Y-113129000D01*
X129694624Y-113129000D02*
X129694624Y-113729000D01*
X129694624Y-113729000D02*
G75*
G03*
X130394624Y-114429000I699999J-1D01*
G01*
X130394624Y-112429000D02*
G75*
G03*
X129694624Y-113129000I-1J-699999D01*
G01*
X132494624Y-113129000D02*
G75*
G03*
X131794624Y-112429000I-699999J1D01*
G01*
X131794624Y-114429000D02*
G75*
G03*
X132494624Y-113729000I1J699999D01*
G01*
G04 #@! TD*
M02*
