G04 #@! TF.GenerationSoftware,KiCad,Pcbnew,(6.0.0)*
G04 #@! TF.CreationDate,2022-02-12T13:04:56+01:00*
G04 #@! TF.ProjectId,ADRmu,4144526d-752e-46b6-9963-61645f706362,0.3*
G04 #@! TF.SameCoordinates,Original*
G04 #@! TF.FileFunction,Soldermask,Bot*
G04 #@! TF.FilePolarity,Negative*
%FSLAX46Y46*%
G04 Gerber Fmt 4.6, Leading zero omitted, Abs format (unit mm)*
G04 Created by KiCad (PCBNEW (6.0.0)) date 2022-02-12 13:04:56*
%MOMM*%
%LPD*%
G01*
G04 APERTURE LIST*
G04 Aperture macros list*
%AMRoundRect*
0 Rectangle with rounded corners*
0 $1 Rounding radius*
0 $2 $3 $4 $5 $6 $7 $8 $9 X,Y pos of 4 corners*
0 Add a 4 corners polygon primitive as box body*
4,1,4,$2,$3,$4,$5,$6,$7,$8,$9,$2,$3,0*
0 Add four circle primitives for the rounded corners*
1,1,$1+$1,$2,$3*
1,1,$1+$1,$4,$5*
1,1,$1+$1,$6,$7*
1,1,$1+$1,$8,$9*
0 Add four rect primitives between the rounded corners*
20,1,$1+$1,$2,$3,$4,$5,0*
20,1,$1+$1,$4,$5,$6,$7,0*
20,1,$1+$1,$6,$7,$8,$9,0*
20,1,$1+$1,$8,$9,$2,$3,0*%
%AMFreePoly0*
4,1,22,0.500000,-0.750000,0.000000,-0.750000,0.000000,-0.745033,-0.079941,-0.743568,-0.215256,-0.701293,-0.333266,-0.622738,-0.424486,-0.514219,-0.481581,-0.384460,-0.499164,-0.250000,-0.500000,-0.250000,-0.500000,0.250000,-0.499164,0.250000,-0.499963,0.256109,-0.478152,0.396186,-0.417904,0.524511,-0.324060,0.630769,-0.204165,0.706417,-0.067858,0.745374,0.000000,0.744959,0.000000,0.750000,
0.500000,0.750000,0.500000,-0.750000,0.500000,-0.750000,$1*%
%AMFreePoly1*
4,1,20,0.000000,0.744959,0.073905,0.744508,0.209726,0.703889,0.328688,0.626782,0.421226,0.519385,0.479903,0.390333,0.500000,0.250000,0.500000,-0.250000,0.499851,-0.262216,0.476331,-0.402017,0.414519,-0.529596,0.319384,-0.634700,0.198574,-0.708877,0.061801,-0.746166,0.000000,-0.745033,0.000000,-0.750000,-0.500000,-0.750000,-0.500000,0.750000,0.000000,0.750000,0.000000,0.744959,
0.000000,0.744959,$1*%
G04 Aperture macros list end*
%ADD10C,18.100000*%
%ADD11C,1.600000*%
%ADD12RoundRect,0.250002X1.699998X1.699998X-1.699998X1.699998X-1.699998X-1.699998X1.699998X-1.699998X0*%
%ADD13C,4.300000*%
%ADD14RoundRect,0.250002X-1.699998X-1.699998X1.699998X-1.699998X1.699998X1.699998X-1.699998X1.699998X0*%
%ADD15C,2.850000*%
%ADD16RoundRect,0.250000X-1.050000X1.050000X-1.050000X-1.050000X1.050000X-1.050000X1.050000X1.050000X0*%
%ADD17C,2.600000*%
%ADD18C,1.500000*%
%ADD19C,1.400000*%
%ADD20R,1.600000X1.600000*%
%ADD21O,1.600000X1.600000*%
%ADD22R,2.400000X2.400000*%
%ADD23C,2.400000*%
%ADD24O,1.200000X1.600000*%
%ADD25O,1.200000X1.200000*%
%ADD26FreePoly0,270.000000*%
%ADD27FreePoly1,270.000000*%
%ADD28FreePoly0,180.000000*%
%ADD29FreePoly1,180.000000*%
%ADD30FreePoly0,0.000000*%
%ADD31FreePoly1,0.000000*%
G04 APERTURE END LIST*
D10*
X119050000Y-100000000D02*
G75*
G03*
X119050000Y-100000000I-9050000J0D01*
G01*
D11*
G04 #@! TO.C,C206*
X123211000Y-140912000D03*
X118211000Y-140912000D03*
G04 #@! TD*
D12*
G04 #@! TO.C,J305*
X185000000Y-130000000D03*
G04 #@! TD*
D13*
G04 #@! TO.C,H303*
X157000000Y-118000000D03*
G04 #@! TD*
D14*
G04 #@! TO.C,J301*
X185000000Y-70000000D03*
G04 #@! TD*
D13*
G04 #@! TO.C,H306*
X170000000Y-95000000D03*
G04 #@! TD*
D15*
G04 #@! TO.C,J101*
X227240000Y-144450000D03*
X227240000Y-55550000D03*
D16*
X224700000Y-63170000D03*
D17*
X224700000Y-68250000D03*
X224700000Y-73330000D03*
X224700000Y-78410000D03*
X224700000Y-83490000D03*
X224700000Y-88570000D03*
X224700000Y-93650000D03*
X224700000Y-98730000D03*
X224700000Y-103810000D03*
X224700000Y-108890000D03*
X224700000Y-113970000D03*
X224700000Y-119050000D03*
X224700000Y-124130000D03*
X224700000Y-129210000D03*
X224700000Y-134290000D03*
X224700000Y-139370000D03*
X219620000Y-63170000D03*
X219620000Y-68250000D03*
X219620000Y-73330000D03*
X219620000Y-78410000D03*
X219620000Y-83490000D03*
X219620000Y-88570000D03*
X219620000Y-93650000D03*
X219620000Y-98730000D03*
X219620000Y-103810000D03*
X219620000Y-108890000D03*
X219620000Y-113970000D03*
X219620000Y-119050000D03*
X219620000Y-124130000D03*
X219620000Y-129210000D03*
X219620000Y-134290000D03*
X219620000Y-139370000D03*
G04 #@! TD*
D18*
G04 #@! TO.C,R215*
X119695000Y-126180000D03*
X123495000Y-126180000D03*
G04 #@! TD*
G04 #@! TO.C,R225*
X114615000Y-137991000D03*
X114615000Y-141791000D03*
G04 #@! TD*
D13*
G04 #@! TO.C,H304*
X170000000Y-105000000D03*
G04 #@! TD*
D18*
G04 #@! TO.C,R219*
X95057000Y-127958000D03*
X91257000Y-127958000D03*
G04 #@! TD*
D11*
G04 #@! TO.C,C208*
X131085000Y-144087000D03*
X126085000Y-144087000D03*
G04 #@! TD*
D14*
G04 #@! TO.C,J105*
X134000000Y-100000000D03*
G04 #@! TD*
D18*
G04 #@! TO.C,R210*
X104963000Y-137610000D03*
X104963000Y-141410000D03*
G04 #@! TD*
G04 #@! TO.C,R216*
X100391000Y-137864000D03*
X100391000Y-141664000D03*
G04 #@! TD*
D19*
G04 #@! TO.C,C209*
X135570000Y-142944000D03*
X135570000Y-145444000D03*
G04 #@! TD*
D18*
G04 #@! TO.C,R201*
X90097000Y-112585000D03*
X90097000Y-116385000D03*
G04 #@! TD*
D13*
G04 #@! TO.C,H302*
X180000000Y-105000000D03*
G04 #@! TD*
D20*
G04 #@! TO.C,RN201*
X86795000Y-122100000D03*
D21*
X86795000Y-119560000D03*
X86795000Y-117020000D03*
X86795000Y-114480000D03*
X86795000Y-111940000D03*
X86795000Y-109400000D03*
X86795000Y-106860000D03*
X86795000Y-104320000D03*
X79175000Y-104320000D03*
X79175000Y-106860000D03*
X79175000Y-109400000D03*
X79175000Y-111940000D03*
X79175000Y-114480000D03*
X79175000Y-117020000D03*
X79175000Y-119560000D03*
X79175000Y-122100000D03*
G04 #@! TD*
D22*
G04 #@! TO.C,C302*
X209000000Y-62000000D03*
D23*
X209000000Y-69500000D03*
G04 #@! TD*
D18*
G04 #@! TO.C,R228*
X109789000Y-137610000D03*
X109789000Y-141410000D03*
G04 #@! TD*
D13*
G04 #@! TO.C,H301*
X193000000Y-118000000D03*
G04 #@! TD*
D14*
G04 #@! TO.C,J104*
X80375000Y-100000000D03*
G04 #@! TD*
D18*
G04 #@! TO.C,R220*
X137531000Y-129094000D03*
X141331000Y-129094000D03*
G04 #@! TD*
D14*
G04 #@! TO.C,J102*
X138745000Y-137000000D03*
G04 #@! TD*
D13*
G04 #@! TO.C,H308*
X180000000Y-95000000D03*
G04 #@! TD*
D18*
G04 #@! TO.C,R203*
X75873000Y-118173000D03*
X75873000Y-121973000D03*
G04 #@! TD*
D14*
G04 #@! TO.C,J103*
X144775000Y-137000000D03*
G04 #@! TD*
D24*
G04 #@! TO.C,U201*
X110000000Y-97085000D03*
D25*
X107935248Y-97940248D03*
X107080000Y-100005000D03*
X107935248Y-102069752D03*
X110000000Y-102925000D03*
X112064752Y-102069752D03*
X112920000Y-100005000D03*
X112064752Y-97940248D03*
G04 #@! TD*
D14*
G04 #@! TO.C,J302*
X175000000Y-71000000D03*
G04 #@! TD*
D11*
G04 #@! TO.C,C205*
X74356000Y-136300000D03*
X74356000Y-131300000D03*
G04 #@! TD*
D18*
G04 #@! TO.C,R223*
X89175000Y-100000000D03*
X85375000Y-100000000D03*
G04 #@! TD*
D20*
G04 #@! TO.C,RN204*
X78039000Y-76662245D03*
D21*
X78039000Y-79202245D03*
X78039000Y-81742245D03*
X78039000Y-84282245D03*
X78039000Y-86822245D03*
X78039000Y-89362245D03*
X78039000Y-91902245D03*
X78039000Y-94442245D03*
X85659000Y-94442245D03*
X85659000Y-91902245D03*
X85659000Y-89362245D03*
X85659000Y-86822245D03*
X85659000Y-84282245D03*
X85659000Y-81742245D03*
X85659000Y-79202245D03*
X85659000Y-76662245D03*
G04 #@! TD*
D20*
G04 #@! TO.C,RN203*
X99375000Y-133800000D03*
D21*
X101915000Y-133800000D03*
X104455000Y-133800000D03*
X106995000Y-133800000D03*
X109535000Y-133800000D03*
X112075000Y-133800000D03*
X114615000Y-133800000D03*
X114615000Y-126180000D03*
X112075000Y-126180000D03*
X109535000Y-126180000D03*
X106995000Y-126180000D03*
X104455000Y-126180000D03*
X101915000Y-126180000D03*
X99375000Y-126180000D03*
G04 #@! TD*
D12*
G04 #@! TO.C,J304*
X165000000Y-130000000D03*
G04 #@! TD*
D18*
G04 #@! TO.C,R213*
X95057000Y-133419000D03*
X91257000Y-133419000D03*
G04 #@! TD*
G04 #@! TO.C,R209*
X119695000Y-131260000D03*
X123495000Y-131260000D03*
G04 #@! TD*
D20*
G04 #@! TO.C,RN202*
X135570000Y-107511000D03*
D21*
X135570000Y-110051000D03*
X135570000Y-112591000D03*
X135570000Y-115131000D03*
X135570000Y-117671000D03*
X135570000Y-120211000D03*
X135570000Y-122751000D03*
X135570000Y-125291000D03*
X143190000Y-125291000D03*
X143190000Y-122751000D03*
X143190000Y-120211000D03*
X143190000Y-117671000D03*
X143190000Y-115131000D03*
X143190000Y-112591000D03*
X143190000Y-110051000D03*
X143190000Y-107511000D03*
G04 #@! TD*
D13*
G04 #@! TO.C,H305*
X157000000Y-82000000D03*
G04 #@! TD*
G04 #@! TO.C,H307*
X193000000Y-82000000D03*
G04 #@! TD*
D11*
G04 #@! TO.C,C204*
X74356000Y-144428000D03*
X74356000Y-139428000D03*
G04 #@! TD*
D14*
G04 #@! TO.C,J303*
X165000000Y-70000000D03*
G04 #@! TD*
D26*
G04 #@! TO.C,JP201*
X90097000Y-113835000D03*
D27*
X90097000Y-115135000D03*
G04 #@! TD*
D26*
G04 #@! TO.C,JP215*
X100391000Y-139051500D03*
D27*
X100391000Y-140351500D03*
G04 #@! TD*
D28*
G04 #@! TO.C,JP222*
X87925000Y-100000000D03*
D29*
X86625000Y-100000000D03*
G04 #@! TD*
D26*
G04 #@! TO.C,JP203*
X75873000Y-119418000D03*
D27*
X75873000Y-120718000D03*
G04 #@! TD*
D26*
G04 #@! TO.C,JP224*
X114615000Y-139178500D03*
D27*
X114615000Y-140478500D03*
G04 #@! TD*
D28*
G04 #@! TO.C,JP210*
X93807000Y-133419000D03*
D29*
X92507000Y-133419000D03*
G04 #@! TD*
D26*
G04 #@! TO.C,JP228*
X109789000Y-138860000D03*
D27*
X109789000Y-140160000D03*
G04 #@! TD*
D30*
G04 #@! TO.C,JP205*
X120929500Y-131260000D03*
D31*
X122229500Y-131260000D03*
G04 #@! TD*
D26*
G04 #@! TO.C,JP204*
X104963000Y-138797500D03*
D27*
X104963000Y-140097500D03*
G04 #@! TD*
D30*
G04 #@! TO.C,JP217*
X120945000Y-126180000D03*
D31*
X122245000Y-126180000D03*
G04 #@! TD*
M02*
