G04 #@! TF.GenerationSoftware,KiCad,Pcbnew,(6.0.5)*
G04 #@! TF.CreationDate,2022-08-15T10:11:38+02:00*
G04 #@! TF.ProjectId,ADRmu,4144526d-752e-46b6-9963-61645f706362,0.6*
G04 #@! TF.SameCoordinates,Original*
G04 #@! TF.FileFunction,Legend,Bot*
G04 #@! TF.FilePolarity,Positive*
%FSLAX46Y46*%
G04 Gerber Fmt 4.6, Leading zero omitted, Abs format (unit mm)*
G04 Created by KiCad (PCBNEW (6.0.5)) date 2022-08-15 10:11:38*
%MOMM*%
%LPD*%
G01*
G04 APERTURE LIST*
%ADD10C,0.150000*%
%ADD11C,0.300000*%
%ADD12C,0.120000*%
G04 APERTURE END LIST*
D10*
X168000000Y-125000000D02*
X158000000Y-125000000D01*
X158000000Y-125000000D02*
X158000000Y-75000000D01*
X158000000Y-75000000D02*
X168000000Y-75000000D01*
X168000000Y-75000000D02*
X168000000Y-125000000D01*
G36*
X168000000Y-125000000D02*
G01*
X158000000Y-125000000D01*
X158000000Y-75000000D01*
X168000000Y-75000000D01*
X168000000Y-125000000D01*
G37*
D11*
X156433333Y-77309523D02*
X156433333Y-78261904D01*
X157004761Y-77119047D02*
X155004761Y-77785714D01*
X157004761Y-78452380D01*
X157004761Y-79119047D02*
X155004761Y-79119047D01*
X155004761Y-79595238D01*
X155100000Y-79880952D01*
X155290476Y-80071428D01*
X155480952Y-80166666D01*
X155861904Y-80261904D01*
X156147619Y-80261904D01*
X156528571Y-80166666D01*
X156719047Y-80071428D01*
X156909523Y-79880952D01*
X157004761Y-79595238D01*
X157004761Y-79119047D01*
X157004761Y-82261904D02*
X156052380Y-81595238D01*
X157004761Y-81119047D02*
X155004761Y-81119047D01*
X155004761Y-81880952D01*
X155100000Y-82071428D01*
X155195238Y-82166666D01*
X155385714Y-82261904D01*
X155671428Y-82261904D01*
X155861904Y-82166666D01*
X155957142Y-82071428D01*
X156052380Y-81880952D01*
X156052380Y-81119047D01*
X157004761Y-83119047D02*
X155671428Y-83119047D01*
X155861904Y-83119047D02*
X155766666Y-83214285D01*
X155671428Y-83404761D01*
X155671428Y-83690476D01*
X155766666Y-83880952D01*
X155957142Y-83976190D01*
X157004761Y-83976190D01*
X155957142Y-83976190D02*
X155766666Y-84071428D01*
X155671428Y-84261904D01*
X155671428Y-84547619D01*
X155766666Y-84738095D01*
X155957142Y-84833333D01*
X157004761Y-84833333D01*
X155671428Y-86642857D02*
X157004761Y-86642857D01*
X155671428Y-85785714D02*
X156719047Y-85785714D01*
X156909523Y-85880952D01*
X157004761Y-86071428D01*
X157004761Y-86357142D01*
X156909523Y-86547619D01*
X156814285Y-86642857D01*
X157004761Y-90166666D02*
X157004761Y-89023809D01*
X157004761Y-89595238D02*
X155004761Y-89595238D01*
X155290476Y-89404761D01*
X155480952Y-89214285D01*
X155576190Y-89023809D01*
X155004761Y-91404761D02*
X155004761Y-91595238D01*
X155100000Y-91785714D01*
X155195238Y-91880952D01*
X155385714Y-91976190D01*
X155766666Y-92071428D01*
X156242857Y-92071428D01*
X156623809Y-91976190D01*
X156814285Y-91880952D01*
X156909523Y-91785714D01*
X157004761Y-91595238D01*
X157004761Y-91404761D01*
X156909523Y-91214285D01*
X156814285Y-91119047D01*
X156623809Y-91023809D01*
X156242857Y-90928571D01*
X155766666Y-90928571D01*
X155385714Y-91023809D01*
X155195238Y-91119047D01*
X155100000Y-91214285D01*
X155004761Y-91404761D01*
X155004761Y-92642857D02*
X157004761Y-93309523D01*
X155004761Y-93976190D01*
X156909523Y-96071428D02*
X157004761Y-96357142D01*
X157004761Y-96833333D01*
X156909523Y-97023809D01*
X156814285Y-97119047D01*
X156623809Y-97214285D01*
X156433333Y-97214285D01*
X156242857Y-97119047D01*
X156147619Y-97023809D01*
X156052380Y-96833333D01*
X155957142Y-96452380D01*
X155861904Y-96261904D01*
X155766666Y-96166666D01*
X155576190Y-96071428D01*
X155385714Y-96071428D01*
X155195238Y-96166666D01*
X155100000Y-96261904D01*
X155004761Y-96452380D01*
X155004761Y-96928571D01*
X155100000Y-97214285D01*
X155671428Y-97785714D02*
X155671428Y-98547619D01*
X155004761Y-98071428D02*
X156719047Y-98071428D01*
X156909523Y-98166666D01*
X157004761Y-98357142D01*
X157004761Y-98547619D01*
X157004761Y-100071428D02*
X155957142Y-100071428D01*
X155766666Y-99976190D01*
X155671428Y-99785714D01*
X155671428Y-99404761D01*
X155766666Y-99214285D01*
X156909523Y-100071428D02*
X157004761Y-99880952D01*
X157004761Y-99404761D01*
X156909523Y-99214285D01*
X156719047Y-99119047D01*
X156528571Y-99119047D01*
X156338095Y-99214285D01*
X156242857Y-99404761D01*
X156242857Y-99880952D01*
X156147619Y-100071428D01*
X155671428Y-101023809D02*
X157004761Y-101023809D01*
X155861904Y-101023809D02*
X155766666Y-101119047D01*
X155671428Y-101309523D01*
X155671428Y-101595238D01*
X155766666Y-101785714D01*
X155957142Y-101880952D01*
X157004761Y-101880952D01*
X157004761Y-103690476D02*
X155004761Y-103690476D01*
X156909523Y-103690476D02*
X157004761Y-103499999D01*
X157004761Y-103119047D01*
X156909523Y-102928571D01*
X156814285Y-102833333D01*
X156623809Y-102738095D01*
X156052380Y-102738095D01*
X155861904Y-102833333D01*
X155766666Y-102928571D01*
X155671428Y-103119047D01*
X155671428Y-103499999D01*
X155766666Y-103690476D01*
X157004761Y-105499999D02*
X155957142Y-105499999D01*
X155766666Y-105404761D01*
X155671428Y-105214285D01*
X155671428Y-104833333D01*
X155766666Y-104642857D01*
X156909523Y-105499999D02*
X157004761Y-105309523D01*
X157004761Y-104833333D01*
X156909523Y-104642857D01*
X156719047Y-104547619D01*
X156528571Y-104547619D01*
X156338095Y-104642857D01*
X156242857Y-104833333D01*
X156242857Y-105309523D01*
X156147619Y-105499999D01*
X157004761Y-106452380D02*
X155671428Y-106452380D01*
X156052380Y-106452380D02*
X155861904Y-106547619D01*
X155766666Y-106642857D01*
X155671428Y-106833333D01*
X155671428Y-107023809D01*
X157004761Y-108547619D02*
X155004761Y-108547619D01*
X156909523Y-108547619D02*
X157004761Y-108357142D01*
X157004761Y-107976190D01*
X156909523Y-107785714D01*
X156814285Y-107690476D01*
X156623809Y-107595238D01*
X156052380Y-107595238D01*
X155861904Y-107690476D01*
X155766666Y-107785714D01*
X155671428Y-107976190D01*
X155671428Y-108357142D01*
X155766666Y-108547619D01*
X157004761Y-112166666D02*
X156052380Y-111499999D01*
X157004761Y-111023809D02*
X155004761Y-111023809D01*
X155004761Y-111785714D01*
X155100000Y-111976190D01*
X155195238Y-112071428D01*
X155385714Y-112166666D01*
X155671428Y-112166666D01*
X155861904Y-112071428D01*
X155957142Y-111976190D01*
X156052380Y-111785714D01*
X156052380Y-111023809D01*
X156909523Y-113785714D02*
X157004761Y-113595238D01*
X157004761Y-113214285D01*
X156909523Y-113023809D01*
X156719047Y-112928571D01*
X155957142Y-112928571D01*
X155766666Y-113023809D01*
X155671428Y-113214285D01*
X155671428Y-113595238D01*
X155766666Y-113785714D01*
X155957142Y-113880952D01*
X156147619Y-113880952D01*
X156338095Y-112928571D01*
X155671428Y-114547619D02*
X157004761Y-115023809D01*
X155671428Y-115499999D01*
X155004761Y-118166666D02*
X155004761Y-118357142D01*
X155100000Y-118547619D01*
X155195238Y-118642857D01*
X155385714Y-118738095D01*
X155766666Y-118833333D01*
X156242857Y-118833333D01*
X156623809Y-118738095D01*
X156814285Y-118642857D01*
X156909523Y-118547619D01*
X157004761Y-118357142D01*
X157004761Y-118166666D01*
X156909523Y-117976190D01*
X156814285Y-117880952D01*
X156623809Y-117785714D01*
X156242857Y-117690476D01*
X155766666Y-117690476D01*
X155385714Y-117785714D01*
X155195238Y-117880952D01*
X155100000Y-117976190D01*
X155004761Y-118166666D01*
X156814285Y-119690476D02*
X156909523Y-119785714D01*
X157004761Y-119690476D01*
X156909523Y-119595238D01*
X156814285Y-119690476D01*
X157004761Y-119690476D01*
X155004761Y-121499999D02*
X155004761Y-121119047D01*
X155100000Y-120928571D01*
X155195238Y-120833333D01*
X155480952Y-120642857D01*
X155861904Y-120547619D01*
X156623809Y-120547619D01*
X156814285Y-120642857D01*
X156909523Y-120738095D01*
X157004761Y-120928571D01*
X157004761Y-121309523D01*
X156909523Y-121499999D01*
X156814285Y-121595238D01*
X156623809Y-121690476D01*
X156147619Y-121690476D01*
X155957142Y-121595238D01*
X155861904Y-121499999D01*
X155766666Y-121309523D01*
X155766666Y-120928571D01*
X155861904Y-120738095D01*
X155957142Y-120642857D01*
X156147619Y-120547619D01*
D10*
G04 #@! TO.C,JP208*
X107543004Y-125164785D02*
X108257290Y-125164785D01*
X108400147Y-125117166D01*
X108495385Y-125021928D01*
X108543004Y-124879071D01*
X108543004Y-124783833D01*
X108543004Y-125640976D02*
X107543004Y-125640976D01*
X107543004Y-126021928D01*
X107590624Y-126117166D01*
X107638243Y-126164785D01*
X107733481Y-126212404D01*
X107876338Y-126212404D01*
X107971576Y-126164785D01*
X108019195Y-126117166D01*
X108066814Y-126021928D01*
X108066814Y-125640976D01*
X107638243Y-126593357D02*
X107590624Y-126640976D01*
X107543004Y-126736214D01*
X107543004Y-126974309D01*
X107590624Y-127069547D01*
X107638243Y-127117166D01*
X107733481Y-127164785D01*
X107828719Y-127164785D01*
X107971576Y-127117166D01*
X108543004Y-126545738D01*
X108543004Y-127164785D01*
X107543004Y-127783833D02*
X107543004Y-127879071D01*
X107590624Y-127974309D01*
X107638243Y-128021928D01*
X107733481Y-128069547D01*
X107923957Y-128117166D01*
X108162052Y-128117166D01*
X108352528Y-128069547D01*
X108447766Y-128021928D01*
X108495385Y-127974309D01*
X108543004Y-127879071D01*
X108543004Y-127783833D01*
X108495385Y-127688595D01*
X108447766Y-127640976D01*
X108352528Y-127593357D01*
X108162052Y-127545738D01*
X107923957Y-127545738D01*
X107733481Y-127593357D01*
X107638243Y-127640976D01*
X107590624Y-127688595D01*
X107543004Y-127783833D01*
X107971576Y-128688595D02*
X107923957Y-128593357D01*
X107876338Y-128545738D01*
X107781100Y-128498119D01*
X107733481Y-128498119D01*
X107638243Y-128545738D01*
X107590624Y-128593357D01*
X107543004Y-128688595D01*
X107543004Y-128879071D01*
X107590624Y-128974309D01*
X107638243Y-129021928D01*
X107733481Y-129069547D01*
X107781100Y-129069547D01*
X107876338Y-129021928D01*
X107923957Y-128974309D01*
X107971576Y-128879071D01*
X107971576Y-128688595D01*
X108019195Y-128593357D01*
X108066814Y-128545738D01*
X108162052Y-128498119D01*
X108352528Y-128498119D01*
X108447766Y-128545738D01*
X108495385Y-128593357D01*
X108543004Y-128688595D01*
X108543004Y-128879071D01*
X108495385Y-128974309D01*
X108447766Y-129021928D01*
X108352528Y-129069547D01*
X108162052Y-129069547D01*
X108066814Y-129021928D01*
X108019195Y-128974309D01*
X107971576Y-128879071D01*
G04 #@! TO.C,JP213*
X96436338Y-84901380D02*
X96436338Y-85615666D01*
X96483957Y-85758523D01*
X96579195Y-85853761D01*
X96722052Y-85901380D01*
X96817290Y-85901380D01*
X95960147Y-85901380D02*
X95960147Y-84901380D01*
X95579195Y-84901380D01*
X95483957Y-84949000D01*
X95436338Y-84996619D01*
X95388719Y-85091857D01*
X95388719Y-85234714D01*
X95436338Y-85329952D01*
X95483957Y-85377571D01*
X95579195Y-85425190D01*
X95960147Y-85425190D01*
X95007766Y-84996619D02*
X94960147Y-84949000D01*
X94864909Y-84901380D01*
X94626814Y-84901380D01*
X94531576Y-84949000D01*
X94483957Y-84996619D01*
X94436338Y-85091857D01*
X94436338Y-85187095D01*
X94483957Y-85329952D01*
X95055385Y-85901380D01*
X94436338Y-85901380D01*
X93483957Y-85901380D02*
X94055385Y-85901380D01*
X93769671Y-85901380D02*
X93769671Y-84901380D01*
X93864909Y-85044238D01*
X93960147Y-85139476D01*
X94055385Y-85187095D01*
X93150624Y-84901380D02*
X92531576Y-84901380D01*
X92864909Y-85282333D01*
X92722052Y-85282333D01*
X92626814Y-85329952D01*
X92579195Y-85377571D01*
X92531576Y-85472809D01*
X92531576Y-85710904D01*
X92579195Y-85806142D01*
X92626814Y-85853761D01*
X92722052Y-85901380D01*
X93007766Y-85901380D01*
X93103004Y-85853761D01*
X93150624Y-85806142D01*
G04 #@! TO.C,JP220*
X84502380Y-96464285D02*
X85216666Y-96464285D01*
X85359523Y-96416666D01*
X85454761Y-96321428D01*
X85502380Y-96178571D01*
X85502380Y-96083333D01*
X85502380Y-96940476D02*
X84502380Y-96940476D01*
X84502380Y-97321428D01*
X84550000Y-97416666D01*
X84597619Y-97464285D01*
X84692857Y-97511904D01*
X84835714Y-97511904D01*
X84930952Y-97464285D01*
X84978571Y-97416666D01*
X85026190Y-97321428D01*
X85026190Y-96940476D01*
X84597619Y-97892857D02*
X84550000Y-97940476D01*
X84502380Y-98035714D01*
X84502380Y-98273809D01*
X84550000Y-98369047D01*
X84597619Y-98416666D01*
X84692857Y-98464285D01*
X84788095Y-98464285D01*
X84930952Y-98416666D01*
X85502380Y-97845238D01*
X85502380Y-98464285D01*
X84597619Y-98845238D02*
X84550000Y-98892857D01*
X84502380Y-98988095D01*
X84502380Y-99226190D01*
X84550000Y-99321428D01*
X84597619Y-99369047D01*
X84692857Y-99416666D01*
X84788095Y-99416666D01*
X84930952Y-99369047D01*
X85502380Y-98797619D01*
X85502380Y-99416666D01*
X84502380Y-100035714D02*
X84502380Y-100130952D01*
X84550000Y-100226190D01*
X84597619Y-100273809D01*
X84692857Y-100321428D01*
X84883333Y-100369047D01*
X85121428Y-100369047D01*
X85311904Y-100321428D01*
X85407142Y-100273809D01*
X85454761Y-100226190D01*
X85502380Y-100130952D01*
X85502380Y-100035714D01*
X85454761Y-99940476D01*
X85407142Y-99892857D01*
X85311904Y-99845238D01*
X85121428Y-99797619D01*
X84883333Y-99797619D01*
X84692857Y-99845238D01*
X84597619Y-99892857D01*
X84550000Y-99940476D01*
X84502380Y-100035714D01*
G04 #@! TO.C,JP216*
X121767004Y-125291785D02*
X122481290Y-125291785D01*
X122624147Y-125244166D01*
X122719385Y-125148928D01*
X122767004Y-125006071D01*
X122767004Y-124910833D01*
X122767004Y-125767976D02*
X121767004Y-125767976D01*
X121767004Y-126148928D01*
X121814624Y-126244166D01*
X121862243Y-126291785D01*
X121957481Y-126339404D01*
X122100338Y-126339404D01*
X122195576Y-126291785D01*
X122243195Y-126244166D01*
X122290814Y-126148928D01*
X122290814Y-125767976D01*
X121862243Y-126720357D02*
X121814624Y-126767976D01*
X121767004Y-126863214D01*
X121767004Y-127101309D01*
X121814624Y-127196547D01*
X121862243Y-127244166D01*
X121957481Y-127291785D01*
X122052719Y-127291785D01*
X122195576Y-127244166D01*
X122767004Y-126672738D01*
X122767004Y-127291785D01*
X122767004Y-128244166D02*
X122767004Y-127672738D01*
X122767004Y-127958452D02*
X121767004Y-127958452D01*
X121909862Y-127863214D01*
X122005100Y-127767976D01*
X122052719Y-127672738D01*
X121767004Y-129101309D02*
X121767004Y-128910833D01*
X121814624Y-128815595D01*
X121862243Y-128767976D01*
X122005100Y-128672738D01*
X122195576Y-128625119D01*
X122576528Y-128625119D01*
X122671766Y-128672738D01*
X122719385Y-128720357D01*
X122767004Y-128815595D01*
X122767004Y-129006071D01*
X122719385Y-129101309D01*
X122671766Y-129148928D01*
X122576528Y-129196547D01*
X122338433Y-129196547D01*
X122243195Y-129148928D01*
X122195576Y-129101309D01*
X122147957Y-129006071D01*
X122147957Y-128815595D01*
X122195576Y-128720357D01*
X122243195Y-128672738D01*
X122338433Y-128625119D01*
G04 #@! TO.C,JP207*
X102785714Y-119570380D02*
X102785714Y-120284666D01*
X102833333Y-120427523D01*
X102928571Y-120522761D01*
X103071428Y-120570380D01*
X103166666Y-120570380D01*
X102309523Y-120570380D02*
X102309523Y-119570380D01*
X101928571Y-119570380D01*
X101833333Y-119618000D01*
X101785714Y-119665619D01*
X101738095Y-119760857D01*
X101738095Y-119903714D01*
X101785714Y-119998952D01*
X101833333Y-120046571D01*
X101928571Y-120094190D01*
X102309523Y-120094190D01*
X101357142Y-119665619D02*
X101309523Y-119618000D01*
X101214285Y-119570380D01*
X100976190Y-119570380D01*
X100880952Y-119618000D01*
X100833333Y-119665619D01*
X100785714Y-119760857D01*
X100785714Y-119856095D01*
X100833333Y-119998952D01*
X101404761Y-120570380D01*
X100785714Y-120570380D01*
X100166666Y-119570380D02*
X100071428Y-119570380D01*
X99976190Y-119618000D01*
X99928571Y-119665619D01*
X99880952Y-119760857D01*
X99833333Y-119951333D01*
X99833333Y-120189428D01*
X99880952Y-120379904D01*
X99928571Y-120475142D01*
X99976190Y-120522761D01*
X100071428Y-120570380D01*
X100166666Y-120570380D01*
X100261904Y-120522761D01*
X100309523Y-120475142D01*
X100357142Y-120379904D01*
X100404761Y-120189428D01*
X100404761Y-119951333D01*
X100357142Y-119760857D01*
X100309523Y-119665619D01*
X100261904Y-119618000D01*
X100166666Y-119570380D01*
X99500000Y-119570380D02*
X98833333Y-119570380D01*
X99261904Y-120570380D01*
G04 #@! TO.C,JP201*
X96635714Y-110652380D02*
X96635714Y-111366666D01*
X96683333Y-111509523D01*
X96778571Y-111604761D01*
X96921428Y-111652380D01*
X97016666Y-111652380D01*
X96159523Y-111652380D02*
X96159523Y-110652380D01*
X95778571Y-110652380D01*
X95683333Y-110700000D01*
X95635714Y-110747619D01*
X95588095Y-110842857D01*
X95588095Y-110985714D01*
X95635714Y-111080952D01*
X95683333Y-111128571D01*
X95778571Y-111176190D01*
X96159523Y-111176190D01*
X95207142Y-110747619D02*
X95159523Y-110700000D01*
X95064285Y-110652380D01*
X94826190Y-110652380D01*
X94730952Y-110700000D01*
X94683333Y-110747619D01*
X94635714Y-110842857D01*
X94635714Y-110938095D01*
X94683333Y-111080952D01*
X95254761Y-111652380D01*
X94635714Y-111652380D01*
X94016666Y-110652380D02*
X93921428Y-110652380D01*
X93826190Y-110700000D01*
X93778571Y-110747619D01*
X93730952Y-110842857D01*
X93683333Y-111033333D01*
X93683333Y-111271428D01*
X93730952Y-111461904D01*
X93778571Y-111557142D01*
X93826190Y-111604761D01*
X93921428Y-111652380D01*
X94016666Y-111652380D01*
X94111904Y-111604761D01*
X94159523Y-111557142D01*
X94207142Y-111461904D01*
X94254761Y-111271428D01*
X94254761Y-111033333D01*
X94207142Y-110842857D01*
X94159523Y-110747619D01*
X94111904Y-110700000D01*
X94016666Y-110652380D01*
X92730952Y-111652380D02*
X93302380Y-111652380D01*
X93016666Y-111652380D02*
X93016666Y-110652380D01*
X93111904Y-110795238D01*
X93207142Y-110890476D01*
X93302380Y-110938095D01*
G04 #@! TO.C,JP221*
X116941004Y-124973285D02*
X117655290Y-124973285D01*
X117798147Y-124925666D01*
X117893385Y-124830428D01*
X117941004Y-124687571D01*
X117941004Y-124592333D01*
X117941004Y-125449476D02*
X116941004Y-125449476D01*
X116941004Y-125830428D01*
X116988624Y-125925666D01*
X117036243Y-125973285D01*
X117131481Y-126020904D01*
X117274338Y-126020904D01*
X117369576Y-125973285D01*
X117417195Y-125925666D01*
X117464814Y-125830428D01*
X117464814Y-125449476D01*
X117036243Y-126401857D02*
X116988624Y-126449476D01*
X116941004Y-126544714D01*
X116941004Y-126782809D01*
X116988624Y-126878047D01*
X117036243Y-126925666D01*
X117131481Y-126973285D01*
X117226719Y-126973285D01*
X117369576Y-126925666D01*
X117941004Y-126354238D01*
X117941004Y-126973285D01*
X117036243Y-127354238D02*
X116988624Y-127401857D01*
X116941004Y-127497095D01*
X116941004Y-127735190D01*
X116988624Y-127830428D01*
X117036243Y-127878047D01*
X117131481Y-127925666D01*
X117226719Y-127925666D01*
X117369576Y-127878047D01*
X117941004Y-127306619D01*
X117941004Y-127925666D01*
X117941004Y-128878047D02*
X117941004Y-128306619D01*
X117941004Y-128592333D02*
X116941004Y-128592333D01*
X117083862Y-128497095D01*
X117179100Y-128401857D01*
X117226719Y-128306619D01*
G04 #@! TO.C,JP203*
X133870214Y-119761380D02*
X133870214Y-120475666D01*
X133917833Y-120618523D01*
X134013071Y-120713761D01*
X134155928Y-120761380D01*
X134251166Y-120761380D01*
X133394023Y-120761380D02*
X133394023Y-119761380D01*
X133013071Y-119761380D01*
X132917833Y-119809000D01*
X132870214Y-119856619D01*
X132822595Y-119951857D01*
X132822595Y-120094714D01*
X132870214Y-120189952D01*
X132917833Y-120237571D01*
X133013071Y-120285190D01*
X133394023Y-120285190D01*
X132441642Y-119856619D02*
X132394023Y-119809000D01*
X132298785Y-119761380D01*
X132060690Y-119761380D01*
X131965452Y-119809000D01*
X131917833Y-119856619D01*
X131870214Y-119951857D01*
X131870214Y-120047095D01*
X131917833Y-120189952D01*
X132489261Y-120761380D01*
X131870214Y-120761380D01*
X131251166Y-119761380D02*
X131155928Y-119761380D01*
X131060690Y-119809000D01*
X131013071Y-119856619D01*
X130965452Y-119951857D01*
X130917833Y-120142333D01*
X130917833Y-120380428D01*
X130965452Y-120570904D01*
X131013071Y-120666142D01*
X131060690Y-120713761D01*
X131155928Y-120761380D01*
X131251166Y-120761380D01*
X131346404Y-120713761D01*
X131394023Y-120666142D01*
X131441642Y-120570904D01*
X131489261Y-120380428D01*
X131489261Y-120142333D01*
X131441642Y-119951857D01*
X131394023Y-119856619D01*
X131346404Y-119809000D01*
X131251166Y-119761380D01*
X130584500Y-119761380D02*
X129965452Y-119761380D01*
X130298785Y-120142333D01*
X130155928Y-120142333D01*
X130060690Y-120189952D01*
X130013071Y-120237571D01*
X129965452Y-120332809D01*
X129965452Y-120570904D01*
X130013071Y-120666142D01*
X130060690Y-120713761D01*
X130155928Y-120761380D01*
X130441642Y-120761380D01*
X130536880Y-120713761D01*
X130584500Y-120666142D01*
G04 #@! TO.C,JP202*
X112115004Y-124910785D02*
X112829290Y-124910785D01*
X112972147Y-124863166D01*
X113067385Y-124767928D01*
X113115004Y-124625071D01*
X113115004Y-124529833D01*
X113115004Y-125386976D02*
X112115004Y-125386976D01*
X112115004Y-125767928D01*
X112162624Y-125863166D01*
X112210243Y-125910785D01*
X112305481Y-125958404D01*
X112448338Y-125958404D01*
X112543576Y-125910785D01*
X112591195Y-125863166D01*
X112638814Y-125767928D01*
X112638814Y-125386976D01*
X112210243Y-126339357D02*
X112162624Y-126386976D01*
X112115004Y-126482214D01*
X112115004Y-126720309D01*
X112162624Y-126815547D01*
X112210243Y-126863166D01*
X112305481Y-126910785D01*
X112400719Y-126910785D01*
X112543576Y-126863166D01*
X113115004Y-126291738D01*
X113115004Y-126910785D01*
X112115004Y-127529833D02*
X112115004Y-127625071D01*
X112162624Y-127720309D01*
X112210243Y-127767928D01*
X112305481Y-127815547D01*
X112495957Y-127863166D01*
X112734052Y-127863166D01*
X112924528Y-127815547D01*
X113019766Y-127767928D01*
X113067385Y-127720309D01*
X113115004Y-127625071D01*
X113115004Y-127529833D01*
X113067385Y-127434595D01*
X113019766Y-127386976D01*
X112924528Y-127339357D01*
X112734052Y-127291738D01*
X112495957Y-127291738D01*
X112305481Y-127339357D01*
X112210243Y-127386976D01*
X112162624Y-127434595D01*
X112115004Y-127529833D01*
X112210243Y-128244119D02*
X112162624Y-128291738D01*
X112115004Y-128386976D01*
X112115004Y-128625071D01*
X112162624Y-128720309D01*
X112210243Y-128767928D01*
X112305481Y-128815547D01*
X112400719Y-128815547D01*
X112543576Y-128767928D01*
X113115004Y-128196500D01*
X113115004Y-128815547D01*
G04 #@! TO.C,JP209*
X133885714Y-114681380D02*
X133885714Y-115395666D01*
X133933333Y-115538523D01*
X134028571Y-115633761D01*
X134171428Y-115681380D01*
X134266666Y-115681380D01*
X133409523Y-115681380D02*
X133409523Y-114681380D01*
X133028571Y-114681380D01*
X132933333Y-114729000D01*
X132885714Y-114776619D01*
X132838095Y-114871857D01*
X132838095Y-115014714D01*
X132885714Y-115109952D01*
X132933333Y-115157571D01*
X133028571Y-115205190D01*
X133409523Y-115205190D01*
X132457142Y-114776619D02*
X132409523Y-114729000D01*
X132314285Y-114681380D01*
X132076190Y-114681380D01*
X131980952Y-114729000D01*
X131933333Y-114776619D01*
X131885714Y-114871857D01*
X131885714Y-114967095D01*
X131933333Y-115109952D01*
X132504761Y-115681380D01*
X131885714Y-115681380D01*
X131266666Y-114681380D02*
X131171428Y-114681380D01*
X131076190Y-114729000D01*
X131028571Y-114776619D01*
X130980952Y-114871857D01*
X130933333Y-115062333D01*
X130933333Y-115300428D01*
X130980952Y-115490904D01*
X131028571Y-115586142D01*
X131076190Y-115633761D01*
X131171428Y-115681380D01*
X131266666Y-115681380D01*
X131361904Y-115633761D01*
X131409523Y-115586142D01*
X131457142Y-115490904D01*
X131504761Y-115300428D01*
X131504761Y-115062333D01*
X131457142Y-114871857D01*
X131409523Y-114776619D01*
X131361904Y-114729000D01*
X131266666Y-114681380D01*
X130457142Y-115681380D02*
X130266666Y-115681380D01*
X130171428Y-115633761D01*
X130123809Y-115586142D01*
X130028571Y-115443285D01*
X129980952Y-115252809D01*
X129980952Y-114871857D01*
X130028571Y-114776619D01*
X130076190Y-114729000D01*
X130171428Y-114681380D01*
X130361904Y-114681380D01*
X130457142Y-114729000D01*
X130504761Y-114776619D01*
X130552380Y-114871857D01*
X130552380Y-115109952D01*
X130504761Y-115205190D01*
X130457142Y-115252809D01*
X130361904Y-115300428D01*
X130171428Y-115300428D01*
X130076190Y-115252809D01*
X130028571Y-115205190D01*
X129980952Y-115109952D01*
D12*
G04 #@! TO.C,JP208*
X109590624Y-128350500D02*
X110190624Y-128350500D01*
X110890624Y-127650500D02*
X110890624Y-126250500D01*
X108890624Y-126250500D02*
X108890624Y-127650500D01*
X110190624Y-125550500D02*
X109590624Y-125550500D01*
X110890624Y-126250500D02*
G75*
G03*
X110190624Y-125550500I-699999J1D01*
G01*
X108890624Y-127650500D02*
G75*
G03*
X109590624Y-128350500I700000J0D01*
G01*
X110190624Y-128350500D02*
G75*
G03*
X110890624Y-127650500I0J700000D01*
G01*
X109590624Y-125550500D02*
G75*
G03*
X108890624Y-126250500I-1J-699999D01*
G01*
G04 #@! TO.C,JP213*
X93950624Y-88249000D02*
X95350624Y-88249000D01*
X93250624Y-86949000D02*
X93250624Y-87549000D01*
X96050624Y-87549000D02*
X96050624Y-86949000D01*
X95350624Y-86249000D02*
X93950624Y-86249000D01*
X96050624Y-86949000D02*
G75*
G03*
X95350624Y-86249000I-699999J1D01*
G01*
X93250624Y-87549000D02*
G75*
G03*
X93950624Y-88249000I700000J0D01*
G01*
X95350624Y-88249000D02*
G75*
G03*
X96050624Y-87549000I1J699999D01*
G01*
X93950624Y-86249000D02*
G75*
G03*
X93250624Y-86949000I0J-700000D01*
G01*
G04 #@! TO.C,JP220*
X83550000Y-96850000D02*
X82950000Y-96850000D01*
X84250000Y-98950000D02*
X84250000Y-97550000D01*
X82950000Y-99650000D02*
X83550000Y-99650000D01*
X82250000Y-97550000D02*
X82250000Y-98950000D01*
X82950000Y-96850000D02*
G75*
G03*
X82250000Y-97550000I0J-700000D01*
G01*
X82250000Y-98950000D02*
G75*
G03*
X82950000Y-99650000I699999J-1D01*
G01*
X83550000Y-99650000D02*
G75*
G03*
X84250000Y-98950000I1J699999D01*
G01*
X84250000Y-97550000D02*
G75*
G03*
X83550000Y-96850000I-700000J0D01*
G01*
G04 #@! TO.C,JP216*
X125114624Y-127777500D02*
X125114624Y-126377500D01*
X123114624Y-126377500D02*
X123114624Y-127777500D01*
X124414624Y-125677500D02*
X123814624Y-125677500D01*
X123814624Y-128477500D02*
X124414624Y-128477500D01*
X123114624Y-127777500D02*
G75*
G03*
X123814624Y-128477500I700000J0D01*
G01*
X123814624Y-125677500D02*
G75*
G03*
X123114624Y-126377500I-1J-699999D01*
G01*
X125114624Y-126377500D02*
G75*
G03*
X124414624Y-125677500I-699999J1D01*
G01*
X124414624Y-128477500D02*
G75*
G03*
X125114624Y-127777500I0J700000D01*
G01*
G04 #@! TO.C,JP207*
X101700000Y-120918000D02*
X100300000Y-120918000D01*
X99600000Y-121618000D02*
X99600000Y-122218000D01*
X102400000Y-122218000D02*
X102400000Y-121618000D01*
X100300000Y-122918000D02*
X101700000Y-122918000D01*
X102400000Y-121618000D02*
G75*
G03*
X101700000Y-120918000I-699999J1D01*
G01*
X100300000Y-120918000D02*
G75*
G03*
X99600000Y-121618000I0J-700000D01*
G01*
X101700000Y-122918000D02*
G75*
G03*
X102400000Y-122218000I1J699999D01*
G01*
X99600000Y-122218000D02*
G75*
G03*
X100300000Y-122918000I700000J0D01*
G01*
G04 #@! TO.C,JP201*
X95550000Y-112000000D02*
X94150000Y-112000000D01*
X94150000Y-114000000D02*
X95550000Y-114000000D01*
X93450000Y-112700000D02*
X93450000Y-113300000D01*
X96250000Y-113300000D02*
X96250000Y-112700000D01*
X93450000Y-113300000D02*
G75*
G03*
X94150000Y-114000000I700000J0D01*
G01*
X95550000Y-114000000D02*
G75*
G03*
X96250000Y-113300000I1J699999D01*
G01*
X96250000Y-112700000D02*
G75*
G03*
X95550000Y-112000000I-699999J1D01*
G01*
X94150000Y-112000000D02*
G75*
G03*
X93450000Y-112700000I0J-700000D01*
G01*
G04 #@! TO.C,JP221*
X119588624Y-125359000D02*
X118988624Y-125359000D01*
X120288624Y-127459000D02*
X120288624Y-126059000D01*
X118988624Y-128159000D02*
X119588624Y-128159000D01*
X118288624Y-126059000D02*
X118288624Y-127459000D01*
X119588624Y-128159000D02*
G75*
G03*
X120288624Y-127459000I0J700000D01*
G01*
X120288624Y-126059000D02*
G75*
G03*
X119588624Y-125359000I-699999J1D01*
G01*
X118288624Y-127459000D02*
G75*
G03*
X118988624Y-128159000I700000J0D01*
G01*
X118988624Y-125359000D02*
G75*
G03*
X118288624Y-126059000I-1J-699999D01*
G01*
G04 #@! TO.C,JP203*
X133484500Y-118809000D02*
X133484500Y-118209000D01*
X132784500Y-117509000D02*
X131384500Y-117509000D01*
X131384500Y-119509000D02*
X132784500Y-119509000D01*
X130684500Y-118209000D02*
X130684500Y-118809000D01*
X130684500Y-118809000D02*
G75*
G03*
X131384500Y-119509000I699999J-1D01*
G01*
X133484500Y-118209000D02*
G75*
G03*
X132784500Y-117509000I-700000J0D01*
G01*
X131384500Y-117509000D02*
G75*
G03*
X130684500Y-118209000I-1J-699999D01*
G01*
X132784500Y-119509000D02*
G75*
G03*
X133484500Y-118809000I0J700000D01*
G01*
G04 #@! TO.C,JP202*
X115462624Y-127396500D02*
X115462624Y-125996500D01*
X114762624Y-125296500D02*
X114162624Y-125296500D01*
X113462624Y-125996500D02*
X113462624Y-127396500D01*
X114162624Y-128096500D02*
X114762624Y-128096500D01*
X113462624Y-127396500D02*
G75*
G03*
X114162624Y-128096500I700000J0D01*
G01*
X114162624Y-125296500D02*
G75*
G03*
X113462624Y-125996500I-1J-699999D01*
G01*
X114762624Y-128096500D02*
G75*
G03*
X115462624Y-127396500I0J700000D01*
G01*
X115462624Y-125996500D02*
G75*
G03*
X114762624Y-125296500I-699999J1D01*
G01*
G04 #@! TO.C,JP209*
X132800000Y-112429000D02*
X131400000Y-112429000D01*
X131400000Y-114429000D02*
X132800000Y-114429000D01*
X130700000Y-113129000D02*
X130700000Y-113729000D01*
X133500000Y-113729000D02*
X133500000Y-113129000D01*
X132800000Y-114429000D02*
G75*
G03*
X133500000Y-113729000I0J700000D01*
G01*
X131400000Y-112429000D02*
G75*
G03*
X130700000Y-113129000I-1J-699999D01*
G01*
X130700000Y-113729000D02*
G75*
G03*
X131400000Y-114429000I699999J-1D01*
G01*
X133500000Y-113129000D02*
G75*
G03*
X132800000Y-112429000I-700000J0D01*
G01*
G04 #@! TD*
M02*
