G04 #@! TF.GenerationSoftware,KiCad,Pcbnew,(6.0.5)*
G04 #@! TF.CreationDate,2023-01-29T19:52:40+01:00*
G04 #@! TF.ProjectId,fplate,66706c61-7465-42e6-9b69-6361645f7063,0.8*
G04 #@! TF.SameCoordinates,Original*
G04 #@! TF.FileFunction,Legend,Top*
G04 #@! TF.FilePolarity,Positive*
%FSLAX46Y46*%
G04 Gerber Fmt 4.6, Leading zero omitted, Abs format (unit mm)*
G04 Created by KiCad (PCBNEW (6.0.5)) date 2023-01-29 19:52:40*
%MOMM*%
%LPD*%
G01*
G04 APERTURE LIST*
%ADD10C,0.120000*%
%ADD11C,1.000000*%
%ADD12C,0.250000*%
%ADD13C,0.375000*%
%ADD14C,0.300000*%
%ADD15C,0.150000*%
G04 APERTURE END LIST*
D10*
X98000000Y-110000000D02*
X116000000Y-110000000D01*
X116000000Y-110000000D02*
X116000000Y-101000000D01*
X116000000Y-101000000D02*
X98000000Y-101000000D01*
X98000000Y-101000000D02*
X98000000Y-110000000D01*
X119500000Y-110000000D02*
X134500000Y-110000000D01*
X134500000Y-110000000D02*
X134500000Y-101000000D01*
X134500000Y-101000000D02*
X119500000Y-101000000D01*
X119500000Y-101000000D02*
X119500000Y-110000000D01*
D11*
X129308333Y-77500000D02*
X134641666Y-77500000D01*
X131975000Y-80166666D02*
X131975000Y-74833333D01*
D12*
X151593386Y-105464047D02*
X150953386Y-104554523D01*
X150496243Y-105464047D02*
X150496243Y-103554047D01*
X151227672Y-103554047D01*
X151410529Y-103645000D01*
X151501958Y-103735952D01*
X151593386Y-103917857D01*
X151593386Y-104190714D01*
X151501958Y-104372619D01*
X151410529Y-104463571D01*
X151227672Y-104554523D01*
X150496243Y-104554523D01*
X153147672Y-105373095D02*
X152964815Y-105464047D01*
X152599101Y-105464047D01*
X152416243Y-105373095D01*
X152324815Y-105191190D01*
X152324815Y-104463571D01*
X152416243Y-104281666D01*
X152599101Y-104190714D01*
X152964815Y-104190714D01*
X153147672Y-104281666D01*
X153239101Y-104463571D01*
X153239101Y-104645476D01*
X152324815Y-104827380D01*
X153787672Y-104190714D02*
X154519101Y-104190714D01*
X154061958Y-105464047D02*
X154061958Y-103826904D01*
X154153386Y-103645000D01*
X154336243Y-103554047D01*
X154519101Y-103554047D01*
X155890529Y-105373095D02*
X155707672Y-105464047D01*
X155341958Y-105464047D01*
X155159101Y-105373095D01*
X155067672Y-105191190D01*
X155067672Y-104463571D01*
X155159101Y-104281666D01*
X155341958Y-104190714D01*
X155707672Y-104190714D01*
X155890529Y-104281666D01*
X155981958Y-104463571D01*
X155981958Y-104645476D01*
X155067672Y-104827380D01*
X156804815Y-105464047D02*
X156804815Y-104190714D01*
X156804815Y-104554523D02*
X156896243Y-104372619D01*
X156987672Y-104281666D01*
X157170529Y-104190714D01*
X157353386Y-104190714D01*
X158724815Y-105373095D02*
X158541958Y-105464047D01*
X158176243Y-105464047D01*
X157993386Y-105373095D01*
X157901958Y-105191190D01*
X157901958Y-104463571D01*
X157993386Y-104281666D01*
X158176243Y-104190714D01*
X158541958Y-104190714D01*
X158724815Y-104281666D01*
X158816243Y-104463571D01*
X158816243Y-104645476D01*
X157901958Y-104827380D01*
X159639101Y-104190714D02*
X159639101Y-105464047D01*
X159639101Y-104372619D02*
X159730529Y-104281666D01*
X159913386Y-104190714D01*
X160187672Y-104190714D01*
X160370529Y-104281666D01*
X160461958Y-104463571D01*
X160461958Y-105464047D01*
X162199101Y-105373095D02*
X162016243Y-105464047D01*
X161650529Y-105464047D01*
X161467672Y-105373095D01*
X161376243Y-105282142D01*
X161284815Y-105100238D01*
X161284815Y-104554523D01*
X161376243Y-104372619D01*
X161467672Y-104281666D01*
X161650529Y-104190714D01*
X162016243Y-104190714D01*
X162199101Y-104281666D01*
X163753386Y-105373095D02*
X163570529Y-105464047D01*
X163204815Y-105464047D01*
X163021958Y-105373095D01*
X162930529Y-105191190D01*
X162930529Y-104463571D01*
X163021958Y-104281666D01*
X163204815Y-104190714D01*
X163570529Y-104190714D01*
X163753386Y-104281666D01*
X163844815Y-104463571D01*
X163844815Y-104645476D01*
X162930529Y-104827380D01*
X166039101Y-105373095D02*
X166313386Y-105464047D01*
X166770529Y-105464047D01*
X166953386Y-105373095D01*
X167044815Y-105282142D01*
X167136243Y-105100238D01*
X167136243Y-104918333D01*
X167044815Y-104736428D01*
X166953386Y-104645476D01*
X166770529Y-104554523D01*
X166404815Y-104463571D01*
X166221958Y-104372619D01*
X166130529Y-104281666D01*
X166039101Y-104099761D01*
X166039101Y-103917857D01*
X166130529Y-103735952D01*
X166221958Y-103645000D01*
X166404815Y-103554047D01*
X166861958Y-103554047D01*
X167136243Y-103645000D01*
X167684815Y-104190714D02*
X168416243Y-104190714D01*
X167959101Y-103554047D02*
X167959101Y-105191190D01*
X168050529Y-105373095D01*
X168233386Y-105464047D01*
X168416243Y-105464047D01*
X169879101Y-105464047D02*
X169879101Y-104463571D01*
X169787672Y-104281666D01*
X169604815Y-104190714D01*
X169239101Y-104190714D01*
X169056243Y-104281666D01*
X169879101Y-105373095D02*
X169696243Y-105464047D01*
X169239101Y-105464047D01*
X169056243Y-105373095D01*
X168964815Y-105191190D01*
X168964815Y-105009285D01*
X169056243Y-104827380D01*
X169239101Y-104736428D01*
X169696243Y-104736428D01*
X169879101Y-104645476D01*
X170793386Y-104190714D02*
X170793386Y-105464047D01*
X170793386Y-104372619D02*
X170884815Y-104281666D01*
X171067672Y-104190714D01*
X171341958Y-104190714D01*
X171524815Y-104281666D01*
X171616243Y-104463571D01*
X171616243Y-105464047D01*
X173353386Y-105464047D02*
X173353386Y-103554047D01*
X173353386Y-105373095D02*
X173170529Y-105464047D01*
X172804815Y-105464047D01*
X172621958Y-105373095D01*
X172530529Y-105282142D01*
X172439101Y-105100238D01*
X172439101Y-104554523D01*
X172530529Y-104372619D01*
X172621958Y-104281666D01*
X172804815Y-104190714D01*
X173170529Y-104190714D01*
X173353386Y-104281666D01*
X175090529Y-105464047D02*
X175090529Y-104463571D01*
X174999101Y-104281666D01*
X174816243Y-104190714D01*
X174450529Y-104190714D01*
X174267672Y-104281666D01*
X175090529Y-105373095D02*
X174907672Y-105464047D01*
X174450529Y-105464047D01*
X174267672Y-105373095D01*
X174176243Y-105191190D01*
X174176243Y-105009285D01*
X174267672Y-104827380D01*
X174450529Y-104736428D01*
X174907672Y-104736428D01*
X175090529Y-104645476D01*
X176004815Y-105464047D02*
X176004815Y-104190714D01*
X176004815Y-104554523D02*
X176096243Y-104372619D01*
X176187672Y-104281666D01*
X176370529Y-104190714D01*
X176553386Y-104190714D01*
X178016243Y-105464047D02*
X178016243Y-103554047D01*
X178016243Y-105373095D02*
X177833386Y-105464047D01*
X177467672Y-105464047D01*
X177284815Y-105373095D01*
X177193386Y-105282142D01*
X177101958Y-105100238D01*
X177101958Y-104554523D01*
X177193386Y-104372619D01*
X177284815Y-104281666D01*
X177467672Y-104190714D01*
X177833386Y-104190714D01*
X178016243Y-104281666D01*
D11*
X148358333Y-77500000D02*
X153691666Y-77500000D01*
D13*
X123678571Y-108678571D02*
X123678571Y-107178571D01*
X123678571Y-107892857D02*
X124535714Y-107892857D01*
X124535714Y-108678571D02*
X124535714Y-107178571D01*
X125821428Y-108607142D02*
X125678571Y-108678571D01*
X125392857Y-108678571D01*
X125250000Y-108607142D01*
X125178571Y-108464285D01*
X125178571Y-107892857D01*
X125250000Y-107750000D01*
X125392857Y-107678571D01*
X125678571Y-107678571D01*
X125821428Y-107750000D01*
X125892857Y-107892857D01*
X125892857Y-108035714D01*
X125178571Y-108178571D01*
X127178571Y-108678571D02*
X127178571Y-107892857D01*
X127107142Y-107750000D01*
X126964285Y-107678571D01*
X126678571Y-107678571D01*
X126535714Y-107750000D01*
X127178571Y-108607142D02*
X127035714Y-108678571D01*
X126678571Y-108678571D01*
X126535714Y-108607142D01*
X126464285Y-108464285D01*
X126464285Y-108321428D01*
X126535714Y-108178571D01*
X126678571Y-108107142D01*
X127035714Y-108107142D01*
X127178571Y-108035714D01*
X128107142Y-108678571D02*
X127964285Y-108607142D01*
X127892857Y-108464285D01*
X127892857Y-107178571D01*
X128464285Y-107678571D02*
X129035714Y-107678571D01*
X128678571Y-107178571D02*
X128678571Y-108464285D01*
X128750000Y-108607142D01*
X128892857Y-108678571D01*
X129035714Y-108678571D01*
X129535714Y-108678571D02*
X129535714Y-107178571D01*
X130178571Y-108678571D02*
X130178571Y-107892857D01*
X130107142Y-107750000D01*
X129964285Y-107678571D01*
X129750000Y-107678571D01*
X129607142Y-107750000D01*
X129535714Y-107821428D01*
X130750000Y-107678571D02*
X131107142Y-108678571D01*
X131464285Y-107678571D02*
X131107142Y-108678571D01*
X130964285Y-109035714D01*
X130892857Y-109107142D01*
X130750000Y-109178571D01*
X101178571Y-107178571D02*
X101178571Y-108392857D01*
X101250000Y-108535714D01*
X101321428Y-108607142D01*
X101464285Y-108678571D01*
X101750000Y-108678571D01*
X101892857Y-108607142D01*
X101964285Y-108535714D01*
X102035714Y-108392857D01*
X102035714Y-107178571D01*
X102750000Y-107678571D02*
X102750000Y-108678571D01*
X102750000Y-107821428D02*
X102821428Y-107750000D01*
X102964285Y-107678571D01*
X103178571Y-107678571D01*
X103321428Y-107750000D01*
X103392857Y-107892857D01*
X103392857Y-108678571D01*
X104750000Y-108678571D02*
X104750000Y-107178571D01*
X104750000Y-108607142D02*
X104607142Y-108678571D01*
X104321428Y-108678571D01*
X104178571Y-108607142D01*
X104107142Y-108535714D01*
X104035714Y-108392857D01*
X104035714Y-107964285D01*
X104107142Y-107821428D01*
X104178571Y-107750000D01*
X104321428Y-107678571D01*
X104607142Y-107678571D01*
X104750000Y-107750000D01*
X105464285Y-108678571D02*
X105464285Y-107678571D01*
X105464285Y-107178571D02*
X105392857Y-107250000D01*
X105464285Y-107321428D01*
X105535714Y-107250000D01*
X105464285Y-107178571D01*
X105464285Y-107321428D01*
X106107142Y-108607142D02*
X106250000Y-108678571D01*
X106535714Y-108678571D01*
X106678571Y-108607142D01*
X106750000Y-108464285D01*
X106750000Y-108392857D01*
X106678571Y-108250000D01*
X106535714Y-108178571D01*
X106321428Y-108178571D01*
X106178571Y-108107142D01*
X106107142Y-107964285D01*
X106107142Y-107892857D01*
X106178571Y-107750000D01*
X106321428Y-107678571D01*
X106535714Y-107678571D01*
X106678571Y-107750000D01*
X107178571Y-107678571D02*
X107750000Y-107678571D01*
X107392857Y-107178571D02*
X107392857Y-108464285D01*
X107464285Y-108607142D01*
X107607142Y-108678571D01*
X107750000Y-108678571D01*
X108892857Y-107678571D02*
X108892857Y-108678571D01*
X108250000Y-107678571D02*
X108250000Y-108464285D01*
X108321428Y-108607142D01*
X108464285Y-108678571D01*
X108678571Y-108678571D01*
X108821428Y-108607142D01*
X108892857Y-108535714D01*
X109607142Y-108678571D02*
X109607142Y-107678571D01*
X109607142Y-107964285D02*
X109678571Y-107821428D01*
X109750000Y-107750000D01*
X109892857Y-107678571D01*
X110035714Y-107678571D01*
X110535714Y-108678571D02*
X110535714Y-107178571D01*
X110535714Y-107750000D02*
X110678571Y-107678571D01*
X110964285Y-107678571D01*
X111107142Y-107750000D01*
X111178571Y-107821428D01*
X111250000Y-107964285D01*
X111250000Y-108392857D01*
X111178571Y-108535714D01*
X111107142Y-108607142D01*
X110964285Y-108678571D01*
X110678571Y-108678571D01*
X110535714Y-108607142D01*
X112464285Y-108607142D02*
X112321428Y-108678571D01*
X112035714Y-108678571D01*
X111892857Y-108607142D01*
X111821428Y-108464285D01*
X111821428Y-107892857D01*
X111892857Y-107750000D01*
X112035714Y-107678571D01*
X112321428Y-107678571D01*
X112464285Y-107750000D01*
X112535714Y-107892857D01*
X112535714Y-108035714D01*
X111821428Y-108178571D01*
X113821428Y-108678571D02*
X113821428Y-107178571D01*
X113821428Y-108607142D02*
X113678571Y-108678571D01*
X113392857Y-108678571D01*
X113250000Y-108607142D01*
X113178571Y-108535714D01*
X113107142Y-108392857D01*
X113107142Y-107964285D01*
X113178571Y-107821428D01*
X113250000Y-107750000D01*
X113392857Y-107678571D01*
X113678571Y-107678571D01*
X113821428Y-107750000D01*
D14*
X150547791Y-101645083D02*
X151738267Y-101645083D01*
X150309696Y-102359369D02*
X151143029Y-99859369D01*
X151976362Y-102359369D01*
X152809696Y-102359369D02*
X152809696Y-99859369D01*
X153404934Y-99859369D01*
X153762077Y-99978417D01*
X154000172Y-100216512D01*
X154119220Y-100454607D01*
X154238267Y-100930797D01*
X154238267Y-101287940D01*
X154119220Y-101764131D01*
X154000172Y-102002226D01*
X153762077Y-102240321D01*
X153404934Y-102359369D01*
X152809696Y-102359369D01*
X156738267Y-102359369D02*
X155904934Y-101168893D01*
X155309696Y-102359369D02*
X155309696Y-99859369D01*
X156262077Y-99859369D01*
X156500172Y-99978417D01*
X156619220Y-100097464D01*
X156738267Y-100335559D01*
X156738267Y-100692702D01*
X156619220Y-100930797D01*
X156500172Y-101049845D01*
X156262077Y-101168893D01*
X155309696Y-101168893D01*
X157809696Y-102359369D02*
X157809696Y-100692702D01*
X157809696Y-100930797D02*
X157928743Y-100811750D01*
X158166839Y-100692702D01*
X158523981Y-100692702D01*
X158762077Y-100811750D01*
X158881124Y-101049845D01*
X158881124Y-102359369D01*
X158881124Y-101049845D02*
X159000172Y-100811750D01*
X159238267Y-100692702D01*
X159595410Y-100692702D01*
X159833505Y-100811750D01*
X159952553Y-101049845D01*
X159952553Y-102359369D01*
X162214458Y-100692702D02*
X162214458Y-102359369D01*
X161143029Y-100692702D02*
X161143029Y-102002226D01*
X161262077Y-102240321D01*
X161500172Y-102359369D01*
X161857315Y-102359369D01*
X162095410Y-102240321D01*
X162214458Y-102121274D01*
X166619220Y-102359369D02*
X165190648Y-102359369D01*
X165904934Y-102359369D02*
X165904934Y-99859369D01*
X165666839Y-100216512D01*
X165428743Y-100454607D01*
X165190648Y-100573655D01*
X168166839Y-99859369D02*
X168404934Y-99859369D01*
X168643029Y-99978417D01*
X168762077Y-100097464D01*
X168881124Y-100335559D01*
X169000172Y-100811750D01*
X169000172Y-101406988D01*
X168881124Y-101883178D01*
X168762077Y-102121274D01*
X168643029Y-102240321D01*
X168404934Y-102359369D01*
X168166839Y-102359369D01*
X167928743Y-102240321D01*
X167809696Y-102121274D01*
X167690648Y-101883178D01*
X167571601Y-101406988D01*
X167571601Y-100811750D01*
X167690648Y-100335559D01*
X167809696Y-100097464D01*
X167928743Y-99978417D01*
X168166839Y-99859369D01*
X169714458Y-99859369D02*
X170547791Y-102359369D01*
X171381124Y-99859369D01*
X174119220Y-102359369D02*
X174119220Y-99859369D01*
X174714458Y-99859369D01*
X175071601Y-99978417D01*
X175309696Y-100216512D01*
X175428743Y-100454607D01*
X175547791Y-100930797D01*
X175547791Y-101287940D01*
X175428743Y-101764131D01*
X175309696Y-102002226D01*
X175071601Y-102240321D01*
X174714458Y-102359369D01*
X174119220Y-102359369D01*
X178047791Y-102121274D02*
X177928743Y-102240321D01*
X177571601Y-102359369D01*
X177333505Y-102359369D01*
X176976362Y-102240321D01*
X176738267Y-102002226D01*
X176619220Y-101764131D01*
X176500172Y-101287940D01*
X176500172Y-100930797D01*
X176619220Y-100454607D01*
X176738267Y-100216512D01*
X176976362Y-99978417D01*
X177333505Y-99859369D01*
X177571601Y-99859369D01*
X177928743Y-99978417D01*
X178047791Y-100097464D01*
D15*
X99620978Y-104271428D02*
X99420978Y-103985714D01*
X99278121Y-104271428D02*
X99278121Y-103671428D01*
X99506692Y-103671428D01*
X99563835Y-103700000D01*
X99592407Y-103728571D01*
X99620978Y-103785714D01*
X99620978Y-103871428D01*
X99592407Y-103928571D01*
X99563835Y-103957142D01*
X99506692Y-103985714D01*
X99278121Y-103985714D01*
X99849550Y-104242857D02*
X99935264Y-104271428D01*
X100078121Y-104271428D01*
X100135264Y-104242857D01*
X100163835Y-104214285D01*
X100192407Y-104157142D01*
X100192407Y-104100000D01*
X100163835Y-104042857D01*
X100135264Y-104014285D01*
X100078121Y-103985714D01*
X99963835Y-103957142D01*
X99906692Y-103928571D01*
X99878121Y-103900000D01*
X99849550Y-103842857D01*
X99849550Y-103785714D01*
X99878121Y-103728571D01*
X99906692Y-103700000D01*
X99963835Y-103671428D01*
X100106692Y-103671428D01*
X100192407Y-103700000D01*
X100363835Y-103671428D02*
X100706692Y-103671428D01*
X100535264Y-104271428D02*
X100535264Y-103671428D01*
X150388386Y-107192725D02*
X150388386Y-106292725D01*
X150902672Y-107192725D02*
X150516958Y-106678440D01*
X150902672Y-106292725D02*
X150388386Y-106807011D01*
X151631243Y-107149868D02*
X151545529Y-107192725D01*
X151374101Y-107192725D01*
X151288386Y-107149868D01*
X151245529Y-107064154D01*
X151245529Y-106721297D01*
X151288386Y-106635583D01*
X151374101Y-106592725D01*
X151545529Y-106592725D01*
X151631243Y-106635583D01*
X151674101Y-106721297D01*
X151674101Y-106807011D01*
X151245529Y-106892725D01*
X152402672Y-107149868D02*
X152316958Y-107192725D01*
X152145529Y-107192725D01*
X152059815Y-107149868D01*
X152016958Y-107064154D01*
X152016958Y-106721297D01*
X152059815Y-106635583D01*
X152145529Y-106592725D01*
X152316958Y-106592725D01*
X152402672Y-106635583D01*
X152445529Y-106721297D01*
X152445529Y-106807011D01*
X152016958Y-106892725D01*
X152831243Y-106592725D02*
X152831243Y-107492725D01*
X152831243Y-106635583D02*
X152916958Y-106592725D01*
X153088386Y-106592725D01*
X153174101Y-106635583D01*
X153216958Y-106678440D01*
X153259815Y-106764154D01*
X153259815Y-107021297D01*
X153216958Y-107107011D01*
X153174101Y-107149868D01*
X153088386Y-107192725D01*
X152916958Y-107192725D01*
X152831243Y-107149868D01*
X154331243Y-106592725D02*
X154331243Y-107492725D01*
X154331243Y-106635583D02*
X154416958Y-106592725D01*
X154588386Y-106592725D01*
X154674101Y-106635583D01*
X154716958Y-106678440D01*
X154759815Y-106764154D01*
X154759815Y-107021297D01*
X154716958Y-107107011D01*
X154674101Y-107149868D01*
X154588386Y-107192725D01*
X154416958Y-107192725D01*
X154331243Y-107149868D01*
X155274101Y-107192725D02*
X155188386Y-107149868D01*
X155145529Y-107107011D01*
X155102672Y-107021297D01*
X155102672Y-106764154D01*
X155145529Y-106678440D01*
X155188386Y-106635583D01*
X155274101Y-106592725D01*
X155402672Y-106592725D01*
X155488386Y-106635583D01*
X155531243Y-106678440D01*
X155574101Y-106764154D01*
X155574101Y-107021297D01*
X155531243Y-107107011D01*
X155488386Y-107149868D01*
X155402672Y-107192725D01*
X155274101Y-107192725D01*
X155874101Y-106592725D02*
X156045529Y-107192725D01*
X156216958Y-106764154D01*
X156388386Y-107192725D01*
X156559815Y-106592725D01*
X157245529Y-107149868D02*
X157159815Y-107192725D01*
X156988386Y-107192725D01*
X156902672Y-107149868D01*
X156859815Y-107064154D01*
X156859815Y-106721297D01*
X156902672Y-106635583D01*
X156988386Y-106592725D01*
X157159815Y-106592725D01*
X157245529Y-106635583D01*
X157288386Y-106721297D01*
X157288386Y-106807011D01*
X156859815Y-106892725D01*
X157674101Y-107192725D02*
X157674101Y-106592725D01*
X157674101Y-106764154D02*
X157716958Y-106678440D01*
X157759815Y-106635583D01*
X157845529Y-106592725D01*
X157931243Y-106592725D01*
X158574101Y-107149868D02*
X158488386Y-107192725D01*
X158316958Y-107192725D01*
X158231243Y-107149868D01*
X158188386Y-107064154D01*
X158188386Y-106721297D01*
X158231243Y-106635583D01*
X158316958Y-106592725D01*
X158488386Y-106592725D01*
X158574101Y-106635583D01*
X158616958Y-106721297D01*
X158616958Y-106807011D01*
X158188386Y-106892725D01*
X159388386Y-107192725D02*
X159388386Y-106292725D01*
X159388386Y-107149868D02*
X159302672Y-107192725D01*
X159131243Y-107192725D01*
X159045529Y-107149868D01*
X159002672Y-107107011D01*
X158959815Y-107021297D01*
X158959815Y-106764154D01*
X159002672Y-106678440D01*
X159045529Y-106635583D01*
X159131243Y-106592725D01*
X159302672Y-106592725D01*
X159388386Y-106635583D01*
X160631243Y-107192725D02*
X160545529Y-107149868D01*
X160502672Y-107107011D01*
X160459815Y-107021297D01*
X160459815Y-106764154D01*
X160502672Y-106678440D01*
X160545529Y-106635583D01*
X160631243Y-106592725D01*
X160759815Y-106592725D01*
X160845529Y-106635583D01*
X160888386Y-106678440D01*
X160931243Y-106764154D01*
X160931243Y-107021297D01*
X160888386Y-107107011D01*
X160845529Y-107149868D01*
X160759815Y-107192725D01*
X160631243Y-107192725D01*
X161316958Y-106592725D02*
X161316958Y-107192725D01*
X161316958Y-106678440D02*
X161359815Y-106635583D01*
X161445529Y-106592725D01*
X161574101Y-106592725D01*
X161659815Y-106635583D01*
X161702672Y-106721297D01*
X161702672Y-107192725D01*
X162688386Y-106592725D02*
X163031243Y-106592725D01*
X162816958Y-107192725D02*
X162816958Y-106421297D01*
X162859815Y-106335583D01*
X162945529Y-106292725D01*
X163031243Y-106292725D01*
X163459815Y-107192725D02*
X163374101Y-107149868D01*
X163331243Y-107107011D01*
X163288386Y-107021297D01*
X163288386Y-106764154D01*
X163331243Y-106678440D01*
X163374101Y-106635583D01*
X163459815Y-106592725D01*
X163588386Y-106592725D01*
X163674101Y-106635583D01*
X163716958Y-106678440D01*
X163759815Y-106764154D01*
X163759815Y-107021297D01*
X163716958Y-107107011D01*
X163674101Y-107149868D01*
X163588386Y-107192725D01*
X163459815Y-107192725D01*
X164145529Y-107192725D02*
X164145529Y-106592725D01*
X164145529Y-106764154D02*
X164188386Y-106678440D01*
X164231243Y-106635583D01*
X164316958Y-106592725D01*
X164402672Y-106592725D01*
X165388386Y-107192725D02*
X165388386Y-106292725D01*
X165388386Y-106635583D02*
X165474101Y-106592725D01*
X165645529Y-106592725D01*
X165731243Y-106635583D01*
X165774101Y-106678440D01*
X165816958Y-106764154D01*
X165816958Y-107021297D01*
X165774101Y-107107011D01*
X165731243Y-107149868D01*
X165645529Y-107192725D01*
X165474101Y-107192725D01*
X165388386Y-107149868D01*
X166545529Y-107149868D02*
X166459815Y-107192725D01*
X166288386Y-107192725D01*
X166202672Y-107149868D01*
X166159815Y-107064154D01*
X166159815Y-106721297D01*
X166202672Y-106635583D01*
X166288386Y-106592725D01*
X166459815Y-106592725D01*
X166545529Y-106635583D01*
X166588386Y-106721297D01*
X166588386Y-106807011D01*
X166159815Y-106892725D01*
X166931243Y-107149868D02*
X167016958Y-107192725D01*
X167188386Y-107192725D01*
X167274101Y-107149868D01*
X167316958Y-107064154D01*
X167316958Y-107021297D01*
X167274101Y-106935583D01*
X167188386Y-106892725D01*
X167059815Y-106892725D01*
X166974101Y-106849868D01*
X166931243Y-106764154D01*
X166931243Y-106721297D01*
X166974101Y-106635583D01*
X167059815Y-106592725D01*
X167188386Y-106592725D01*
X167274101Y-106635583D01*
X167574101Y-106592725D02*
X167916958Y-106592725D01*
X167702672Y-106292725D02*
X167702672Y-107064154D01*
X167745529Y-107149868D01*
X167831243Y-107192725D01*
X167916958Y-107192725D01*
X168902672Y-106592725D02*
X168902672Y-107492725D01*
X168902672Y-106635583D02*
X168988386Y-106592725D01*
X169159815Y-106592725D01*
X169245529Y-106635583D01*
X169288386Y-106678440D01*
X169331243Y-106764154D01*
X169331243Y-107021297D01*
X169288386Y-107107011D01*
X169245529Y-107149868D01*
X169159815Y-107192725D01*
X168988386Y-107192725D01*
X168902672Y-107149868D01*
X170059815Y-107149868D02*
X169974101Y-107192725D01*
X169802672Y-107192725D01*
X169716958Y-107149868D01*
X169674101Y-107064154D01*
X169674101Y-106721297D01*
X169716958Y-106635583D01*
X169802672Y-106592725D01*
X169974101Y-106592725D01*
X170059815Y-106635583D01*
X170102672Y-106721297D01*
X170102672Y-106807011D01*
X169674101Y-106892725D01*
X170488386Y-107192725D02*
X170488386Y-106592725D01*
X170488386Y-106764154D02*
X170531243Y-106678440D01*
X170574101Y-106635583D01*
X170659815Y-106592725D01*
X170745529Y-106592725D01*
X170916958Y-106592725D02*
X171259815Y-106592725D01*
X171045529Y-107192725D02*
X171045529Y-106421297D01*
X171088386Y-106335583D01*
X171174101Y-106292725D01*
X171259815Y-106292725D01*
X171688386Y-107192725D02*
X171602672Y-107149868D01*
X171559815Y-107107011D01*
X171516958Y-107021297D01*
X171516958Y-106764154D01*
X171559815Y-106678440D01*
X171602672Y-106635583D01*
X171688386Y-106592725D01*
X171816958Y-106592725D01*
X171902672Y-106635583D01*
X171945529Y-106678440D01*
X171988386Y-106764154D01*
X171988386Y-107021297D01*
X171945529Y-107107011D01*
X171902672Y-107149868D01*
X171816958Y-107192725D01*
X171688386Y-107192725D01*
X172374101Y-107192725D02*
X172374101Y-106592725D01*
X172374101Y-106764154D02*
X172416958Y-106678440D01*
X172459815Y-106635583D01*
X172545529Y-106592725D01*
X172631243Y-106592725D01*
X172931243Y-107192725D02*
X172931243Y-106592725D01*
X172931243Y-106678440D02*
X172974101Y-106635583D01*
X173059815Y-106592725D01*
X173188386Y-106592725D01*
X173274101Y-106635583D01*
X173316958Y-106721297D01*
X173316958Y-107192725D01*
X173316958Y-106721297D02*
X173359815Y-106635583D01*
X173445529Y-106592725D01*
X173574101Y-106592725D01*
X173659815Y-106635583D01*
X173702672Y-106721297D01*
X173702672Y-107192725D01*
X174516958Y-107192725D02*
X174516958Y-106721297D01*
X174474101Y-106635583D01*
X174388386Y-106592725D01*
X174216958Y-106592725D01*
X174131243Y-106635583D01*
X174516958Y-107149868D02*
X174431243Y-107192725D01*
X174216958Y-107192725D01*
X174131243Y-107149868D01*
X174088386Y-107064154D01*
X174088386Y-106978440D01*
X174131243Y-106892725D01*
X174216958Y-106849868D01*
X174431243Y-106849868D01*
X174516958Y-106807011D01*
X174945529Y-106592725D02*
X174945529Y-107192725D01*
X174945529Y-106678440D02*
X174988386Y-106635583D01*
X175074101Y-106592725D01*
X175202672Y-106592725D01*
X175288386Y-106635583D01*
X175331243Y-106721297D01*
X175331243Y-107192725D01*
X176145529Y-107149868D02*
X176059815Y-107192725D01*
X175888386Y-107192725D01*
X175802672Y-107149868D01*
X175759815Y-107107011D01*
X175716958Y-107021297D01*
X175716958Y-106764154D01*
X175759815Y-106678440D01*
X175802672Y-106635583D01*
X175888386Y-106592725D01*
X176059815Y-106592725D01*
X176145529Y-106635583D01*
X176874101Y-107149868D02*
X176788386Y-107192725D01*
X176616958Y-107192725D01*
X176531243Y-107149868D01*
X176488386Y-107064154D01*
X176488386Y-106721297D01*
X176531243Y-106635583D01*
X176616958Y-106592725D01*
X176788386Y-106592725D01*
X176874101Y-106635583D01*
X176916958Y-106721297D01*
X176916958Y-106807011D01*
X176488386Y-106892725D01*
X150816958Y-108641725D02*
X150388386Y-108641725D01*
X150388386Y-107741725D01*
X151245529Y-108641725D02*
X151159815Y-108598868D01*
X151116958Y-108556011D01*
X151074101Y-108470297D01*
X151074101Y-108213154D01*
X151116958Y-108127440D01*
X151159815Y-108084583D01*
X151245529Y-108041725D01*
X151374101Y-108041725D01*
X151459815Y-108084583D01*
X151502672Y-108127440D01*
X151545529Y-108213154D01*
X151545529Y-108470297D01*
X151502672Y-108556011D01*
X151459815Y-108598868D01*
X151374101Y-108641725D01*
X151245529Y-108641725D01*
X151845529Y-108041725D02*
X152016958Y-108641725D01*
X152188386Y-108213154D01*
X152359815Y-108641725D01*
X152531243Y-108041725D01*
X153559815Y-108041725D02*
X153559815Y-108641725D01*
X153559815Y-108127440D02*
X153602672Y-108084583D01*
X153688386Y-108041725D01*
X153816958Y-108041725D01*
X153902672Y-108084583D01*
X153945529Y-108170297D01*
X153945529Y-108641725D01*
X154502672Y-108641725D02*
X154416958Y-108598868D01*
X154374101Y-108556011D01*
X154331243Y-108470297D01*
X154331243Y-108213154D01*
X154374101Y-108127440D01*
X154416958Y-108084583D01*
X154502672Y-108041725D01*
X154631243Y-108041725D01*
X154716958Y-108084583D01*
X154759815Y-108127440D01*
X154802672Y-108213154D01*
X154802672Y-108470297D01*
X154759815Y-108556011D01*
X154716958Y-108598868D01*
X154631243Y-108641725D01*
X154502672Y-108641725D01*
X155188386Y-108641725D02*
X155188386Y-108041725D01*
X155188386Y-107741725D02*
X155145529Y-107784583D01*
X155188386Y-107827440D01*
X155231243Y-107784583D01*
X155188386Y-107741725D01*
X155188386Y-107827440D01*
X155574101Y-108598868D02*
X155659815Y-108641725D01*
X155831243Y-108641725D01*
X155916958Y-108598868D01*
X155959815Y-108513154D01*
X155959815Y-108470297D01*
X155916958Y-108384583D01*
X155831243Y-108341725D01*
X155702672Y-108341725D01*
X155616958Y-108298868D01*
X155574101Y-108213154D01*
X155574101Y-108170297D01*
X155616958Y-108084583D01*
X155702672Y-108041725D01*
X155831243Y-108041725D01*
X155916958Y-108084583D01*
X156688386Y-108598868D02*
X156602672Y-108641725D01*
X156431243Y-108641725D01*
X156345529Y-108598868D01*
X156302672Y-108513154D01*
X156302672Y-108170297D01*
X156345529Y-108084583D01*
X156431243Y-108041725D01*
X156602672Y-108041725D01*
X156688386Y-108084583D01*
X156731243Y-108170297D01*
X156731243Y-108256011D01*
X156302672Y-108341725D01*
X158531243Y-108641725D02*
X158488386Y-108641725D01*
X158402672Y-108598868D01*
X158274101Y-108470297D01*
X158059815Y-108213154D01*
X157974101Y-108084583D01*
X157931243Y-107956011D01*
X157931243Y-107870297D01*
X157974101Y-107784583D01*
X158059815Y-107741725D01*
X158102672Y-107741725D01*
X158188386Y-107784583D01*
X158231243Y-107870297D01*
X158231243Y-107913154D01*
X158188386Y-107998868D01*
X158145529Y-108041725D01*
X157888386Y-108213154D01*
X157845529Y-108256011D01*
X157802672Y-108341725D01*
X157802672Y-108470297D01*
X157845529Y-108556011D01*
X157888386Y-108598868D01*
X157974101Y-108641725D01*
X158102672Y-108641725D01*
X158188386Y-108598868D01*
X158231243Y-108556011D01*
X158359815Y-108384583D01*
X158402672Y-108256011D01*
X158402672Y-108170297D01*
X159474101Y-107741725D02*
X159988386Y-107741725D01*
X159731243Y-108641725D02*
X159731243Y-107741725D01*
X160631243Y-108598868D02*
X160545529Y-108641725D01*
X160374101Y-108641725D01*
X160288386Y-108598868D01*
X160245529Y-108513154D01*
X160245529Y-108170297D01*
X160288386Y-108084583D01*
X160374101Y-108041725D01*
X160545529Y-108041725D01*
X160631243Y-108084583D01*
X160674101Y-108170297D01*
X160674101Y-108256011D01*
X160245529Y-108341725D01*
X161059815Y-108641725D02*
X161059815Y-108041725D01*
X161059815Y-108127440D02*
X161102672Y-108084583D01*
X161188386Y-108041725D01*
X161316958Y-108041725D01*
X161402672Y-108084583D01*
X161445529Y-108170297D01*
X161445529Y-108641725D01*
X161445529Y-108170297D02*
X161488386Y-108084583D01*
X161574101Y-108041725D01*
X161702672Y-108041725D01*
X161788386Y-108084583D01*
X161831243Y-108170297D01*
X161831243Y-108641725D01*
X162259815Y-108041725D02*
X162259815Y-108941725D01*
X162259815Y-108084583D02*
X162345529Y-108041725D01*
X162516958Y-108041725D01*
X162602672Y-108084583D01*
X162645529Y-108127440D01*
X162688386Y-108213154D01*
X162688386Y-108470297D01*
X162645529Y-108556011D01*
X162602672Y-108598868D01*
X162516958Y-108641725D01*
X162345529Y-108641725D01*
X162259815Y-108598868D01*
X163416958Y-108598868D02*
X163331243Y-108641725D01*
X163159815Y-108641725D01*
X163074101Y-108598868D01*
X163031243Y-108513154D01*
X163031243Y-108170297D01*
X163074101Y-108084583D01*
X163159815Y-108041725D01*
X163331243Y-108041725D01*
X163416958Y-108084583D01*
X163459815Y-108170297D01*
X163459815Y-108256011D01*
X163031243Y-108341725D01*
X163845529Y-108641725D02*
X163845529Y-108041725D01*
X163845529Y-108213154D02*
X163888386Y-108127440D01*
X163931243Y-108084583D01*
X164016958Y-108041725D01*
X164102672Y-108041725D01*
X164788386Y-108641725D02*
X164788386Y-108170297D01*
X164745529Y-108084583D01*
X164659815Y-108041725D01*
X164488386Y-108041725D01*
X164402672Y-108084583D01*
X164788386Y-108598868D02*
X164702672Y-108641725D01*
X164488386Y-108641725D01*
X164402672Y-108598868D01*
X164359815Y-108513154D01*
X164359815Y-108427440D01*
X164402672Y-108341725D01*
X164488386Y-108298868D01*
X164702672Y-108298868D01*
X164788386Y-108256011D01*
X165088386Y-108041725D02*
X165431243Y-108041725D01*
X165216958Y-107741725D02*
X165216958Y-108513154D01*
X165259815Y-108598868D01*
X165345529Y-108641725D01*
X165431243Y-108641725D01*
X166116958Y-108041725D02*
X166116958Y-108641725D01*
X165731243Y-108041725D02*
X165731243Y-108513154D01*
X165774101Y-108598868D01*
X165859815Y-108641725D01*
X165988386Y-108641725D01*
X166074101Y-108598868D01*
X166116958Y-108556011D01*
X166545529Y-108641725D02*
X166545529Y-108041725D01*
X166545529Y-108213154D02*
X166588386Y-108127440D01*
X166631243Y-108084583D01*
X166716958Y-108041725D01*
X166802672Y-108041725D01*
X167445529Y-108598868D02*
X167359815Y-108641725D01*
X167188386Y-108641725D01*
X167102672Y-108598868D01*
X167059815Y-108513154D01*
X167059815Y-108170297D01*
X167102672Y-108084583D01*
X167188386Y-108041725D01*
X167359815Y-108041725D01*
X167445529Y-108084583D01*
X167488386Y-108170297D01*
X167488386Y-108256011D01*
X167059815Y-108341725D01*
X168516958Y-108598868D02*
X168602672Y-108641725D01*
X168774101Y-108641725D01*
X168859815Y-108598868D01*
X168902672Y-108513154D01*
X168902672Y-108470297D01*
X168859815Y-108384583D01*
X168774101Y-108341725D01*
X168645529Y-108341725D01*
X168559815Y-108298868D01*
X168516958Y-108213154D01*
X168516958Y-108170297D01*
X168559815Y-108084583D01*
X168645529Y-108041725D01*
X168774101Y-108041725D01*
X168859815Y-108084583D01*
X169159815Y-108041725D02*
X169502672Y-108041725D01*
X169288386Y-107741725D02*
X169288386Y-108513154D01*
X169331243Y-108598868D01*
X169416958Y-108641725D01*
X169502672Y-108641725D01*
X170188386Y-108641725D02*
X170188386Y-108170297D01*
X170145529Y-108084583D01*
X170059815Y-108041725D01*
X169888386Y-108041725D01*
X169802672Y-108084583D01*
X170188386Y-108598868D02*
X170102672Y-108641725D01*
X169888386Y-108641725D01*
X169802672Y-108598868D01*
X169759815Y-108513154D01*
X169759815Y-108427440D01*
X169802672Y-108341725D01*
X169888386Y-108298868D01*
X170102672Y-108298868D01*
X170188386Y-108256011D01*
X170616958Y-108641725D02*
X170616958Y-107741725D01*
X170616958Y-108084583D02*
X170702672Y-108041725D01*
X170874101Y-108041725D01*
X170959815Y-108084583D01*
X171002672Y-108127440D01*
X171045529Y-108213154D01*
X171045529Y-108470297D01*
X171002672Y-108556011D01*
X170959815Y-108598868D01*
X170874101Y-108641725D01*
X170702672Y-108641725D01*
X170616958Y-108598868D01*
X171559815Y-108641725D02*
X171474101Y-108598868D01*
X171431243Y-108513154D01*
X171431243Y-107741725D01*
X172245529Y-108598868D02*
X172159815Y-108641725D01*
X171988386Y-108641725D01*
X171902672Y-108598868D01*
X171859815Y-108513154D01*
X171859815Y-108170297D01*
X171902672Y-108084583D01*
X171988386Y-108041725D01*
X172159815Y-108041725D01*
X172245529Y-108084583D01*
X172288386Y-108170297D01*
X172288386Y-108256011D01*
X171859815Y-108341725D01*
X150388386Y-109619297D02*
X150688386Y-109619297D01*
X150816958Y-110090725D02*
X150388386Y-110090725D01*
X150388386Y-109190725D01*
X150816958Y-109190725D01*
X151116958Y-110090725D02*
X151588386Y-109490725D01*
X151116958Y-109490725D02*
X151588386Y-110090725D01*
X151802672Y-109490725D02*
X152145529Y-109490725D01*
X151931243Y-109190725D02*
X151931243Y-109962154D01*
X151974101Y-110047868D01*
X152059815Y-110090725D01*
X152145529Y-110090725D01*
X152445529Y-110090725D02*
X152445529Y-109490725D01*
X152445529Y-109662154D02*
X152488386Y-109576440D01*
X152531243Y-109533583D01*
X152616958Y-109490725D01*
X152702672Y-109490725D01*
X153345529Y-110047868D02*
X153259815Y-110090725D01*
X153088386Y-110090725D01*
X153002672Y-110047868D01*
X152959815Y-109962154D01*
X152959815Y-109619297D01*
X153002672Y-109533583D01*
X153088386Y-109490725D01*
X153259815Y-109490725D01*
X153345529Y-109533583D01*
X153388386Y-109619297D01*
X153388386Y-109705011D01*
X152959815Y-109790725D01*
X153774101Y-110090725D02*
X153774101Y-109490725D01*
X153774101Y-109576440D02*
X153816958Y-109533583D01*
X153902672Y-109490725D01*
X154031243Y-109490725D01*
X154116958Y-109533583D01*
X154159815Y-109619297D01*
X154159815Y-110090725D01*
X154159815Y-109619297D02*
X154202672Y-109533583D01*
X154288386Y-109490725D01*
X154416958Y-109490725D01*
X154502672Y-109533583D01*
X154545529Y-109619297D01*
X154545529Y-110090725D01*
X155316958Y-110047868D02*
X155231243Y-110090725D01*
X155059815Y-110090725D01*
X154974101Y-110047868D01*
X154931243Y-109962154D01*
X154931243Y-109619297D01*
X154974101Y-109533583D01*
X155059815Y-109490725D01*
X155231243Y-109490725D01*
X155316958Y-109533583D01*
X155359815Y-109619297D01*
X155359815Y-109705011D01*
X154931243Y-109790725D01*
X156816958Y-110047868D02*
X156731243Y-110090725D01*
X156559815Y-110090725D01*
X156474101Y-110047868D01*
X156431243Y-110005011D01*
X156388386Y-109919297D01*
X156388386Y-109662154D01*
X156431243Y-109576440D01*
X156474101Y-109533583D01*
X156559815Y-109490725D01*
X156731243Y-109490725D01*
X156816958Y-109533583D01*
X157331243Y-110090725D02*
X157245529Y-110047868D01*
X157202672Y-110005011D01*
X157159815Y-109919297D01*
X157159815Y-109662154D01*
X157202672Y-109576440D01*
X157245529Y-109533583D01*
X157331243Y-109490725D01*
X157459815Y-109490725D01*
X157545529Y-109533583D01*
X157588386Y-109576440D01*
X157631243Y-109662154D01*
X157631243Y-109919297D01*
X157588386Y-110005011D01*
X157545529Y-110047868D01*
X157459815Y-110090725D01*
X157331243Y-110090725D01*
X158016958Y-110090725D02*
X158016958Y-109490725D01*
X158016958Y-109576440D02*
X158059815Y-109533583D01*
X158145529Y-109490725D01*
X158274101Y-109490725D01*
X158359815Y-109533583D01*
X158402672Y-109619297D01*
X158402672Y-110090725D01*
X158402672Y-109619297D02*
X158445529Y-109533583D01*
X158531243Y-109490725D01*
X158659815Y-109490725D01*
X158745529Y-109533583D01*
X158788386Y-109619297D01*
X158788386Y-110090725D01*
X159216958Y-110090725D02*
X159216958Y-109490725D01*
X159216958Y-109576440D02*
X159259815Y-109533583D01*
X159345529Y-109490725D01*
X159474101Y-109490725D01*
X159559815Y-109533583D01*
X159602672Y-109619297D01*
X159602672Y-110090725D01*
X159602672Y-109619297D02*
X159645529Y-109533583D01*
X159731243Y-109490725D01*
X159859815Y-109490725D01*
X159945529Y-109533583D01*
X159988386Y-109619297D01*
X159988386Y-110090725D01*
X160545529Y-110090725D02*
X160459815Y-110047868D01*
X160416958Y-110005011D01*
X160374101Y-109919297D01*
X160374101Y-109662154D01*
X160416958Y-109576440D01*
X160459815Y-109533583D01*
X160545529Y-109490725D01*
X160674101Y-109490725D01*
X160759815Y-109533583D01*
X160802672Y-109576440D01*
X160845529Y-109662154D01*
X160845529Y-109919297D01*
X160802672Y-110005011D01*
X160759815Y-110047868D01*
X160674101Y-110090725D01*
X160545529Y-110090725D01*
X161231243Y-109490725D02*
X161231243Y-110090725D01*
X161231243Y-109576440D02*
X161274101Y-109533583D01*
X161359815Y-109490725D01*
X161488386Y-109490725D01*
X161574101Y-109533583D01*
X161616958Y-109619297D01*
X161616958Y-110090725D01*
X162731243Y-110090725D02*
X162731243Y-109490725D01*
X162731243Y-109576440D02*
X162774101Y-109533583D01*
X162859815Y-109490725D01*
X162988386Y-109490725D01*
X163074101Y-109533583D01*
X163116958Y-109619297D01*
X163116958Y-110090725D01*
X163116958Y-109619297D02*
X163159815Y-109533583D01*
X163245529Y-109490725D01*
X163374101Y-109490725D01*
X163459815Y-109533583D01*
X163502672Y-109619297D01*
X163502672Y-110090725D01*
X164059815Y-110090725D02*
X163974101Y-110047868D01*
X163931243Y-110005011D01*
X163888386Y-109919297D01*
X163888386Y-109662154D01*
X163931243Y-109576440D01*
X163974101Y-109533583D01*
X164059815Y-109490725D01*
X164188386Y-109490725D01*
X164274101Y-109533583D01*
X164316958Y-109576440D01*
X164359815Y-109662154D01*
X164359815Y-109919297D01*
X164316958Y-110005011D01*
X164274101Y-110047868D01*
X164188386Y-110090725D01*
X164059815Y-110090725D01*
X165131243Y-110090725D02*
X165131243Y-109190725D01*
X165131243Y-110047868D02*
X165045529Y-110090725D01*
X164874101Y-110090725D01*
X164788386Y-110047868D01*
X164745529Y-110005011D01*
X164702672Y-109919297D01*
X164702672Y-109662154D01*
X164745529Y-109576440D01*
X164788386Y-109533583D01*
X164874101Y-109490725D01*
X165045529Y-109490725D01*
X165131243Y-109533583D01*
X165902672Y-110047868D02*
X165816958Y-110090725D01*
X165645529Y-110090725D01*
X165559815Y-110047868D01*
X165516958Y-109962154D01*
X165516958Y-109619297D01*
X165559815Y-109533583D01*
X165645529Y-109490725D01*
X165816958Y-109490725D01*
X165902672Y-109533583D01*
X165945529Y-109619297D01*
X165945529Y-109705011D01*
X165516958Y-109790725D01*
X167016958Y-110090725D02*
X167016958Y-109490725D01*
X167016958Y-109662154D02*
X167059815Y-109576440D01*
X167102672Y-109533583D01*
X167188386Y-109490725D01*
X167274101Y-109490725D01*
X167916958Y-110047868D02*
X167831243Y-110090725D01*
X167659815Y-110090725D01*
X167574101Y-110047868D01*
X167531243Y-109962154D01*
X167531243Y-109619297D01*
X167574101Y-109533583D01*
X167659815Y-109490725D01*
X167831243Y-109490725D01*
X167916958Y-109533583D01*
X167959815Y-109619297D01*
X167959815Y-109705011D01*
X167531243Y-109790725D01*
X168345529Y-109490725D02*
X168345529Y-110262154D01*
X168302672Y-110347868D01*
X168216958Y-110390725D01*
X168174101Y-110390725D01*
X168345529Y-109190725D02*
X168302672Y-109233583D01*
X168345529Y-109276440D01*
X168388386Y-109233583D01*
X168345529Y-109190725D01*
X168345529Y-109276440D01*
X169116958Y-110047868D02*
X169031243Y-110090725D01*
X168859815Y-110090725D01*
X168774101Y-110047868D01*
X168731243Y-109962154D01*
X168731243Y-109619297D01*
X168774101Y-109533583D01*
X168859815Y-109490725D01*
X169031243Y-109490725D01*
X169116958Y-109533583D01*
X169159815Y-109619297D01*
X169159815Y-109705011D01*
X168731243Y-109790725D01*
X169931243Y-110047868D02*
X169845529Y-110090725D01*
X169674101Y-110090725D01*
X169588386Y-110047868D01*
X169545529Y-110005011D01*
X169502672Y-109919297D01*
X169502672Y-109662154D01*
X169545529Y-109576440D01*
X169588386Y-109533583D01*
X169674101Y-109490725D01*
X169845529Y-109490725D01*
X169931243Y-109533583D01*
X170188386Y-109490725D02*
X170531243Y-109490725D01*
X170316958Y-109190725D02*
X170316958Y-109962154D01*
X170359815Y-110047868D01*
X170445529Y-110090725D01*
X170531243Y-110090725D01*
X170831243Y-110090725D02*
X170831243Y-109490725D01*
X170831243Y-109190725D02*
X170788386Y-109233583D01*
X170831243Y-109276440D01*
X170874101Y-109233583D01*
X170831243Y-109190725D01*
X170831243Y-109276440D01*
X171388386Y-110090725D02*
X171302672Y-110047868D01*
X171259815Y-110005011D01*
X171216958Y-109919297D01*
X171216958Y-109662154D01*
X171259815Y-109576440D01*
X171302672Y-109533583D01*
X171388386Y-109490725D01*
X171516958Y-109490725D01*
X171602672Y-109533583D01*
X171645529Y-109576440D01*
X171688386Y-109662154D01*
X171688386Y-109919297D01*
X171645529Y-110005011D01*
X171602672Y-110047868D01*
X171516958Y-110090725D01*
X171388386Y-110090725D01*
X172074101Y-109490725D02*
X172074101Y-110090725D01*
X172074101Y-109576440D02*
X172116958Y-109533583D01*
X172202672Y-109490725D01*
X172331243Y-109490725D01*
X172416958Y-109533583D01*
X172459815Y-109619297D01*
X172459815Y-110090725D01*
X150345529Y-111496868D02*
X150474101Y-111539725D01*
X150688386Y-111539725D01*
X150774101Y-111496868D01*
X150816958Y-111454011D01*
X150859815Y-111368297D01*
X150859815Y-111282583D01*
X150816958Y-111196868D01*
X150774101Y-111154011D01*
X150688386Y-111111154D01*
X150516958Y-111068297D01*
X150431243Y-111025440D01*
X150388386Y-110982583D01*
X150345529Y-110896868D01*
X150345529Y-110811154D01*
X150388386Y-110725440D01*
X150431243Y-110682583D01*
X150516958Y-110639725D01*
X150731243Y-110639725D01*
X150859815Y-110682583D01*
X151245529Y-111539725D02*
X151245529Y-110639725D01*
X151631243Y-111539725D02*
X151631243Y-111068297D01*
X151588386Y-110982583D01*
X151502672Y-110939725D01*
X151374101Y-110939725D01*
X151288386Y-110982583D01*
X151245529Y-111025440D01*
X152188386Y-111539725D02*
X152102672Y-111496868D01*
X152059815Y-111454011D01*
X152016958Y-111368297D01*
X152016958Y-111111154D01*
X152059815Y-111025440D01*
X152102672Y-110982583D01*
X152188386Y-110939725D01*
X152316958Y-110939725D01*
X152402672Y-110982583D01*
X152445529Y-111025440D01*
X152488386Y-111111154D01*
X152488386Y-111368297D01*
X152445529Y-111454011D01*
X152402672Y-111496868D01*
X152316958Y-111539725D01*
X152188386Y-111539725D01*
X152874101Y-111539725D02*
X152874101Y-110939725D01*
X152874101Y-111111154D02*
X152916958Y-111025440D01*
X152959815Y-110982583D01*
X153045529Y-110939725D01*
X153131243Y-110939725D01*
X153302672Y-110939725D02*
X153645529Y-110939725D01*
X153431243Y-110639725D02*
X153431243Y-111411154D01*
X153474101Y-111496868D01*
X153559815Y-111539725D01*
X153645529Y-111539725D01*
X155016958Y-111496868D02*
X154931243Y-111539725D01*
X154759815Y-111539725D01*
X154674101Y-111496868D01*
X154631243Y-111454011D01*
X154588386Y-111368297D01*
X154588386Y-111111154D01*
X154631243Y-111025440D01*
X154674101Y-110982583D01*
X154759815Y-110939725D01*
X154931243Y-110939725D01*
X155016958Y-110982583D01*
X155402672Y-111539725D02*
X155402672Y-110939725D01*
X155402672Y-110639725D02*
X155359815Y-110682583D01*
X155402672Y-110725440D01*
X155445529Y-110682583D01*
X155402672Y-110639725D01*
X155402672Y-110725440D01*
X155831243Y-111539725D02*
X155831243Y-110939725D01*
X155831243Y-111111154D02*
X155874101Y-111025440D01*
X155916958Y-110982583D01*
X156002672Y-110939725D01*
X156088386Y-110939725D01*
X156774101Y-111496868D02*
X156688386Y-111539725D01*
X156516958Y-111539725D01*
X156431243Y-111496868D01*
X156388386Y-111454011D01*
X156345529Y-111368297D01*
X156345529Y-111111154D01*
X156388386Y-111025440D01*
X156431243Y-110982583D01*
X156516958Y-110939725D01*
X156688386Y-110939725D01*
X156774101Y-110982583D01*
X157545529Y-110939725D02*
X157545529Y-111539725D01*
X157159815Y-110939725D02*
X157159815Y-111411154D01*
X157202672Y-111496868D01*
X157288386Y-111539725D01*
X157416958Y-111539725D01*
X157502672Y-111496868D01*
X157545529Y-111454011D01*
X157974101Y-111539725D02*
X157974101Y-110939725D01*
X157974101Y-110639725D02*
X157931243Y-110682583D01*
X157974101Y-110725440D01*
X158016958Y-110682583D01*
X157974101Y-110639725D01*
X157974101Y-110725440D01*
X158274101Y-110939725D02*
X158616958Y-110939725D01*
X158402672Y-110639725D02*
X158402672Y-111411154D01*
X158445529Y-111496868D01*
X158531243Y-111539725D01*
X158616958Y-111539725D01*
X160331243Y-111539725D02*
X160288386Y-111539725D01*
X160202672Y-111496868D01*
X160074101Y-111368297D01*
X159859815Y-111111154D01*
X159774101Y-110982583D01*
X159731243Y-110854011D01*
X159731243Y-110768297D01*
X159774101Y-110682583D01*
X159859815Y-110639725D01*
X159902672Y-110639725D01*
X159988386Y-110682583D01*
X160031243Y-110768297D01*
X160031243Y-110811154D01*
X159988386Y-110896868D01*
X159945529Y-110939725D01*
X159688386Y-111111154D01*
X159645529Y-111154011D01*
X159602672Y-111239725D01*
X159602672Y-111368297D01*
X159645529Y-111454011D01*
X159688386Y-111496868D01*
X159774101Y-111539725D01*
X159902672Y-111539725D01*
X159988386Y-111496868D01*
X160031243Y-111454011D01*
X160159815Y-111282583D01*
X160202672Y-111154011D01*
X160202672Y-111068297D01*
X161402672Y-111068297D02*
X161702672Y-111068297D01*
X161831243Y-111539725D02*
X161402672Y-111539725D01*
X161402672Y-110639725D01*
X161831243Y-110639725D01*
X162174101Y-111496868D02*
X162302672Y-111539725D01*
X162516958Y-111539725D01*
X162602672Y-111496868D01*
X162645529Y-111454011D01*
X162688386Y-111368297D01*
X162688386Y-111282583D01*
X162645529Y-111196868D01*
X162602672Y-111154011D01*
X162516958Y-111111154D01*
X162345529Y-111068297D01*
X162259815Y-111025440D01*
X162216958Y-110982583D01*
X162174101Y-110896868D01*
X162174101Y-110811154D01*
X162216958Y-110725440D01*
X162259815Y-110682583D01*
X162345529Y-110639725D01*
X162559815Y-110639725D01*
X162688386Y-110682583D01*
X163074101Y-111539725D02*
X163074101Y-110639725D01*
X163288386Y-110639725D01*
X163416958Y-110682583D01*
X163502672Y-110768297D01*
X163545529Y-110854011D01*
X163588386Y-111025440D01*
X163588386Y-111154011D01*
X163545529Y-111325440D01*
X163502672Y-111411154D01*
X163416958Y-111496868D01*
X163288386Y-111539725D01*
X163074101Y-111539725D01*
X164616958Y-111496868D02*
X164702672Y-111539725D01*
X164874101Y-111539725D01*
X164959815Y-111496868D01*
X165002672Y-111411154D01*
X165002672Y-111368297D01*
X164959815Y-111282583D01*
X164874101Y-111239725D01*
X164745529Y-111239725D01*
X164659815Y-111196868D01*
X164616958Y-111111154D01*
X164616958Y-111068297D01*
X164659815Y-110982583D01*
X164745529Y-110939725D01*
X164874101Y-110939725D01*
X164959815Y-110982583D01*
X165774101Y-111539725D02*
X165774101Y-111068297D01*
X165731243Y-110982583D01*
X165645529Y-110939725D01*
X165474101Y-110939725D01*
X165388386Y-110982583D01*
X165774101Y-111496868D02*
X165688386Y-111539725D01*
X165474101Y-111539725D01*
X165388386Y-111496868D01*
X165345529Y-111411154D01*
X165345529Y-111325440D01*
X165388386Y-111239725D01*
X165474101Y-111196868D01*
X165688386Y-111196868D01*
X165774101Y-111154011D01*
X166074101Y-110939725D02*
X166416958Y-110939725D01*
X166202672Y-111539725D02*
X166202672Y-110768297D01*
X166245529Y-110682583D01*
X166331243Y-110639725D01*
X166416958Y-110639725D01*
X167059815Y-111496868D02*
X166974101Y-111539725D01*
X166802672Y-111539725D01*
X166716958Y-111496868D01*
X166674101Y-111411154D01*
X166674101Y-111068297D01*
X166716958Y-110982583D01*
X166802672Y-110939725D01*
X166974101Y-110939725D01*
X167059815Y-110982583D01*
X167102672Y-111068297D01*
X167102672Y-111154011D01*
X166674101Y-111239725D01*
G04 #@! TO.C,G\u002A\u002A\u002A*
G36*
X175466950Y-108562520D02*
G01*
X175477317Y-108563930D01*
X175498680Y-108567664D01*
X175522281Y-108572710D01*
X175547460Y-108578878D01*
X175573554Y-108585977D01*
X175599902Y-108593815D01*
X175625843Y-108602203D01*
X175650716Y-108610949D01*
X175673859Y-108619862D01*
X175680038Y-108622404D01*
X175713952Y-108637484D01*
X175747121Y-108654023D01*
X175779153Y-108671773D01*
X175809655Y-108690490D01*
X175838233Y-108709925D01*
X175864493Y-108729834D01*
X175888044Y-108749969D01*
X175896791Y-108758199D01*
X175908357Y-108769711D01*
X175918687Y-108780705D01*
X175928088Y-108791623D01*
X175936866Y-108802904D01*
X175945328Y-108814986D01*
X175953783Y-108828311D01*
X175962536Y-108843316D01*
X175971895Y-108860442D01*
X175982166Y-108880129D01*
X175982742Y-108881251D01*
X175996564Y-108907744D01*
X176009569Y-108931575D01*
X176022029Y-108953165D01*
X176034216Y-108972932D01*
X176046402Y-108991293D01*
X176058860Y-109008669D01*
X176071861Y-109025478D01*
X176085678Y-109042138D01*
X176092231Y-109049694D01*
X176106191Y-109065028D01*
X176120306Y-109079322D01*
X176135050Y-109092981D01*
X176150902Y-109106411D01*
X176168339Y-109120018D01*
X176187837Y-109134207D01*
X176207719Y-109147930D01*
X176223448Y-109158678D01*
X176240229Y-109170348D01*
X176257785Y-109182737D01*
X176275843Y-109195640D01*
X176294125Y-109208850D01*
X176312357Y-109222164D01*
X176330264Y-109235376D01*
X176347569Y-109248282D01*
X176363998Y-109260676D01*
X176379275Y-109272355D01*
X176393124Y-109283111D01*
X176405271Y-109292742D01*
X176415440Y-109301042D01*
X176423354Y-109307805D01*
X176426753Y-109310896D01*
X176435780Y-109319997D01*
X176445143Y-109330518D01*
X176454441Y-109341909D01*
X176463270Y-109353621D01*
X176471227Y-109365104D01*
X176477909Y-109375808D01*
X176482913Y-109385183D01*
X176485178Y-109390592D01*
X176487351Y-109399433D01*
X176487963Y-109408453D01*
X176487049Y-109416680D01*
X176484641Y-109423139D01*
X176484021Y-109424083D01*
X176480688Y-109427387D01*
X176475743Y-109430911D01*
X176472731Y-109432616D01*
X176467483Y-109434709D01*
X176461173Y-109436078D01*
X176453464Y-109436715D01*
X176444020Y-109436613D01*
X176432503Y-109435765D01*
X176418578Y-109434164D01*
X176401907Y-109431804D01*
X176396832Y-109431026D01*
X176379712Y-109428258D01*
X176359889Y-109424863D01*
X176337846Y-109420936D01*
X176314066Y-109416570D01*
X176289030Y-109411860D01*
X176263222Y-109406901D01*
X176237124Y-109401785D01*
X176211219Y-109396607D01*
X176185990Y-109391462D01*
X176161920Y-109386442D01*
X176139490Y-109381643D01*
X176119184Y-109377158D01*
X176111399Y-109375390D01*
X176082876Y-109368929D01*
X176057172Y-109363297D01*
X176033960Y-109358448D01*
X176012912Y-109354335D01*
X175993702Y-109350912D01*
X175976002Y-109348132D01*
X175959484Y-109345950D01*
X175943822Y-109344317D01*
X175928688Y-109343190D01*
X175913754Y-109342520D01*
X175898694Y-109342261D01*
X175883180Y-109342368D01*
X175879040Y-109342449D01*
X175866536Y-109342833D01*
X175854124Y-109343454D01*
X175841380Y-109344360D01*
X175827878Y-109345594D01*
X175813193Y-109347203D01*
X175796902Y-109349234D01*
X175778580Y-109351730D01*
X175757800Y-109354739D01*
X175739672Y-109357463D01*
X175696408Y-109364643D01*
X175656005Y-109372621D01*
X175618136Y-109381491D01*
X175582472Y-109391346D01*
X175548685Y-109402281D01*
X175516448Y-109414389D01*
X175485432Y-109427765D01*
X175471602Y-109434313D01*
X175451819Y-109444294D01*
X175434585Y-109453809D01*
X175419300Y-109463259D01*
X175405365Y-109473048D01*
X175392181Y-109483575D01*
X175379148Y-109495245D01*
X175375461Y-109498755D01*
X175360833Y-109513595D01*
X175347817Y-109528508D01*
X175336143Y-109543945D01*
X175325544Y-109560359D01*
X175315750Y-109578202D01*
X175306493Y-109597927D01*
X175297505Y-109619985D01*
X175288517Y-109644830D01*
X175288203Y-109645746D01*
X175265770Y-109714374D01*
X175245470Y-109783285D01*
X175227230Y-109852822D01*
X175210980Y-109923326D01*
X175196649Y-109995141D01*
X175184166Y-110068607D01*
X175173461Y-110144066D01*
X175164462Y-110221861D01*
X175160612Y-110261395D01*
X175158250Y-110288162D01*
X175156115Y-110314527D01*
X175154191Y-110340838D01*
X175152460Y-110367443D01*
X175150907Y-110394691D01*
X175149514Y-110422929D01*
X175148265Y-110452506D01*
X175147145Y-110483770D01*
X175146135Y-110517070D01*
X175145221Y-110552754D01*
X175144385Y-110591169D01*
X175143966Y-110612849D01*
X175143116Y-110679824D01*
X175143006Y-110749412D01*
X175143638Y-110821683D01*
X175145014Y-110896707D01*
X175147136Y-110974552D01*
X175150006Y-111055289D01*
X175153626Y-111138986D01*
X175157997Y-111225713D01*
X175163122Y-111315539D01*
X175163813Y-111326941D01*
X175165298Y-111350633D01*
X175166702Y-111371522D01*
X175168067Y-111390068D01*
X175169434Y-111406730D01*
X175170844Y-111421970D01*
X175172340Y-111436248D01*
X175173963Y-111450024D01*
X175175755Y-111463757D01*
X175176943Y-111472279D01*
X175187326Y-111533768D01*
X175200813Y-111594299D01*
X175217413Y-111653899D01*
X175237135Y-111712591D01*
X175259989Y-111770399D01*
X175285983Y-111827347D01*
X175315128Y-111883461D01*
X175347431Y-111938764D01*
X175364124Y-111965124D01*
X175372042Y-111977097D01*
X175381839Y-111991533D01*
X175393416Y-112008296D01*
X175406674Y-112027248D01*
X175421515Y-112048253D01*
X175437839Y-112071175D01*
X175455549Y-112095876D01*
X175474545Y-112122221D01*
X175494729Y-112150072D01*
X175516002Y-112179292D01*
X175538267Y-112209746D01*
X175561423Y-112241296D01*
X175585372Y-112273806D01*
X175610016Y-112307139D01*
X175635256Y-112341159D01*
X175645690Y-112355187D01*
X175660827Y-112375561D01*
X175674161Y-112393604D01*
X175685866Y-112409580D01*
X175696117Y-112423757D01*
X175705088Y-112436400D01*
X175712954Y-112447776D01*
X175719891Y-112458150D01*
X175726073Y-112467790D01*
X175731675Y-112476961D01*
X175736871Y-112485929D01*
X175741838Y-112494961D01*
X175746749Y-112504323D01*
X175751779Y-112514281D01*
X175756540Y-112523945D01*
X175776005Y-112567116D01*
X175793451Y-112612739D01*
X175808855Y-112660678D01*
X175822190Y-112710797D01*
X175833431Y-112762960D01*
X175842554Y-112817031D01*
X175849532Y-112872874D01*
X175854340Y-112930353D01*
X175856953Y-112989332D01*
X175857346Y-113049675D01*
X175857104Y-113064474D01*
X175856640Y-113085500D01*
X175856120Y-113103769D01*
X175855453Y-113119756D01*
X175854547Y-113133932D01*
X175853310Y-113146772D01*
X175851650Y-113158748D01*
X175849475Y-113170334D01*
X175846693Y-113182004D01*
X175843213Y-113194231D01*
X175838942Y-113207487D01*
X175833788Y-113222246D01*
X175827660Y-113238982D01*
X175820465Y-113258168D01*
X175818433Y-113263550D01*
X175813765Y-113275540D01*
X175809815Y-113284734D01*
X175806365Y-113291464D01*
X175803199Y-113296064D01*
X175800098Y-113298866D01*
X175796846Y-113300203D01*
X175794341Y-113300446D01*
X175789590Y-113299580D01*
X175785005Y-113296839D01*
X175780447Y-113292007D01*
X175775777Y-113284866D01*
X175770856Y-113275201D01*
X175765543Y-113262795D01*
X175759698Y-113247431D01*
X175759127Y-113245857D01*
X175756285Y-113238056D01*
X175753797Y-113231354D01*
X175751892Y-113226354D01*
X175750797Y-113223660D01*
X175750669Y-113223403D01*
X175748952Y-113223400D01*
X175745558Y-113225579D01*
X175740876Y-113229593D01*
X175735297Y-113235098D01*
X175729210Y-113241745D01*
X175726653Y-113244727D01*
X175718376Y-113255020D01*
X175710640Y-113265668D01*
X175703224Y-113277066D01*
X175695910Y-113289610D01*
X175688477Y-113303696D01*
X175680706Y-113319720D01*
X175672377Y-113338077D01*
X175663588Y-113358418D01*
X175653632Y-113381416D01*
X175644441Y-113401606D01*
X175635846Y-113419311D01*
X175627677Y-113434853D01*
X175619763Y-113448555D01*
X175611935Y-113460738D01*
X175604023Y-113471725D01*
X175603488Y-113472423D01*
X175599431Y-113477379D01*
X175594321Y-113483154D01*
X175588638Y-113489263D01*
X175582862Y-113495217D01*
X175577474Y-113500527D01*
X175572953Y-113504708D01*
X175569780Y-113507270D01*
X175568619Y-113507839D01*
X175566762Y-113506467D01*
X175563885Y-113502766D01*
X175560367Y-113497358D01*
X175556586Y-113490865D01*
X175552920Y-113483910D01*
X175549749Y-113477115D01*
X175549309Y-113476076D01*
X175545981Y-113467487D01*
X175543222Y-113458882D01*
X175540955Y-113449780D01*
X175539102Y-113439703D01*
X175537586Y-113428171D01*
X175536329Y-113414704D01*
X175535253Y-113398823D01*
X175534494Y-113384546D01*
X175533487Y-113366646D01*
X175532309Y-113351481D01*
X175530888Y-113338521D01*
X175529153Y-113327236D01*
X175527030Y-113317097D01*
X175524449Y-113307573D01*
X175523745Y-113305295D01*
X175519505Y-113291874D01*
X175511289Y-113307999D01*
X175504534Y-113321632D01*
X175499134Y-113333525D01*
X175494699Y-113344696D01*
X175490841Y-113356166D01*
X175487169Y-113368956D01*
X175485319Y-113376019D01*
X175477819Y-113403030D01*
X175469886Y-113427061D01*
X175461410Y-113448383D01*
X175452284Y-113467264D01*
X175442400Y-113483975D01*
X175441739Y-113484977D01*
X175428063Y-113503500D01*
X175413322Y-113519281D01*
X175397148Y-113532581D01*
X175379173Y-113543657D01*
X175359031Y-113552767D01*
X175336354Y-113560171D01*
X175333856Y-113560848D01*
X175315204Y-113566337D01*
X175299164Y-113572299D01*
X175285080Y-113579086D01*
X175272301Y-113587054D01*
X175260174Y-113596556D01*
X175249391Y-113606596D01*
X175244022Y-113612042D01*
X175238997Y-113617416D01*
X175233986Y-113623128D01*
X175228660Y-113629584D01*
X175222688Y-113637194D01*
X175215739Y-113646365D01*
X175207485Y-113657506D01*
X175200486Y-113667059D01*
X175186326Y-113686208D01*
X175173657Y-113702781D01*
X175162270Y-113716988D01*
X175151955Y-113729041D01*
X175142500Y-113739149D01*
X175133697Y-113747525D01*
X175125335Y-113754379D01*
X175117204Y-113759923D01*
X175109095Y-113764367D01*
X175100796Y-113767922D01*
X175099656Y-113768343D01*
X175094230Y-113770094D01*
X175086963Y-113772142D01*
X175078621Y-113774303D01*
X175069969Y-113776396D01*
X175061775Y-113778238D01*
X175054803Y-113779648D01*
X175049819Y-113780444D01*
X175048297Y-113780554D01*
X175047324Y-113780292D01*
X175046370Y-113779290D01*
X175045341Y-113777223D01*
X175044142Y-113773766D01*
X175042676Y-113768596D01*
X175040848Y-113761388D01*
X175038563Y-113751816D01*
X175035726Y-113739558D01*
X175033898Y-113731563D01*
X175031104Y-113719441D01*
X175028506Y-113708417D01*
X175026200Y-113698876D01*
X175024280Y-113691201D01*
X175022842Y-113685776D01*
X175021980Y-113682985D01*
X175021807Y-113682689D01*
X175020499Y-113683877D01*
X175017300Y-113687157D01*
X175012516Y-113692206D01*
X175006452Y-113698698D01*
X174999414Y-113706309D01*
X174993127Y-113713160D01*
X174971296Y-113736743D01*
X174949973Y-113759213D01*
X174929370Y-113780362D01*
X174909701Y-113799980D01*
X174891180Y-113817857D01*
X174874019Y-113833785D01*
X174858433Y-113847553D01*
X174844634Y-113858953D01*
X174844522Y-113859041D01*
X174826490Y-113872809D01*
X174810383Y-113884087D01*
X174796081Y-113892934D01*
X174783465Y-113899408D01*
X174772419Y-113903569D01*
X174762822Y-113905476D01*
X174754557Y-113905186D01*
X174752457Y-113904717D01*
X174744570Y-113900956D01*
X174737008Y-113894093D01*
X174729880Y-113884282D01*
X174723296Y-113871681D01*
X174717366Y-113856446D01*
X174716308Y-113853223D01*
X174714371Y-113847465D01*
X174712666Y-113842947D01*
X174711536Y-113840566D01*
X174711466Y-113840478D01*
X174709663Y-113840758D01*
X174706117Y-113843037D01*
X174701298Y-113846907D01*
X174695672Y-113851964D01*
X174689710Y-113857802D01*
X174683880Y-113864014D01*
X174682553Y-113865515D01*
X174679491Y-113869061D01*
X174674600Y-113874773D01*
X174668159Y-113882322D01*
X174660449Y-113891379D01*
X174651747Y-113901617D01*
X174642335Y-113912707D01*
X174632491Y-113924320D01*
X174628394Y-113929159D01*
X174605805Y-113955711D01*
X174585097Y-113979776D01*
X174566169Y-114001462D01*
X174548919Y-114020878D01*
X174533247Y-114038133D01*
X174519052Y-114053335D01*
X174506231Y-114066592D01*
X174494684Y-114078013D01*
X174484311Y-114087707D01*
X174475008Y-114095783D01*
X174467681Y-114101597D01*
X174450101Y-114113918D01*
X174429984Y-114126362D01*
X174408013Y-114138524D01*
X174388752Y-114148168D01*
X174373676Y-114155133D01*
X174361033Y-114160442D01*
X174350510Y-114164205D01*
X174341791Y-114166529D01*
X174334562Y-114167524D01*
X174332609Y-114167580D01*
X174323902Y-114166747D01*
X174317390Y-114164057D01*
X174312825Y-114159223D01*
X174309956Y-114151959D01*
X174308533Y-114141978D01*
X174308409Y-114139818D01*
X174308315Y-114136658D01*
X174308364Y-114133326D01*
X174308603Y-114129547D01*
X174309077Y-114125042D01*
X174309834Y-114119535D01*
X174310919Y-114112749D01*
X174312380Y-114104405D01*
X174314263Y-114094227D01*
X174316614Y-114081937D01*
X174319481Y-114067258D01*
X174322909Y-114049913D01*
X174326626Y-114031223D01*
X174331562Y-114006448D01*
X174335899Y-113984655D01*
X174339677Y-113965623D01*
X174342933Y-113949129D01*
X174345706Y-113934952D01*
X174348036Y-113922871D01*
X174349960Y-113912664D01*
X174351518Y-113904110D01*
X174352748Y-113896987D01*
X174353689Y-113891074D01*
X174354380Y-113886149D01*
X174354859Y-113881990D01*
X174355165Y-113878377D01*
X174355336Y-113875087D01*
X174355413Y-113871899D01*
X174355432Y-113868592D01*
X174355432Y-113848212D01*
X174348353Y-113845588D01*
X174341274Y-113842965D01*
X174315703Y-113879938D01*
X174309252Y-113889319D01*
X174301335Y-113900917D01*
X174292292Y-113914229D01*
X174282464Y-113928751D01*
X174272192Y-113943980D01*
X174261816Y-113959411D01*
X174251677Y-113974542D01*
X174246538Y-113982232D01*
X174233439Y-114001798D01*
X174221898Y-114018881D01*
X174211717Y-114033751D01*
X174202697Y-114046677D01*
X174194638Y-114057929D01*
X174187340Y-114067777D01*
X174180603Y-114076489D01*
X174174229Y-114084335D01*
X174168018Y-114091585D01*
X174161771Y-114098507D01*
X174155580Y-114105068D01*
X174137874Y-114122559D01*
X174120291Y-114137918D01*
X174102196Y-114151575D01*
X174082958Y-114163958D01*
X174061945Y-114175496D01*
X174038523Y-114186618D01*
X174029645Y-114190490D01*
X174022589Y-114193415D01*
X174013758Y-114196931D01*
X174003550Y-114200895D01*
X173992360Y-114205160D01*
X173980583Y-114209583D01*
X173968617Y-114214019D01*
X173956857Y-114218322D01*
X173945699Y-114222349D01*
X173935539Y-114225954D01*
X173926773Y-114228993D01*
X173919797Y-114231320D01*
X173915008Y-114232792D01*
X173912800Y-114233263D01*
X173912708Y-114233231D01*
X173911837Y-114231410D01*
X173910011Y-114227028D01*
X173907427Y-114220580D01*
X173904284Y-114212561D01*
X173900779Y-114203464D01*
X173900639Y-114203098D01*
X173896438Y-114192298D01*
X173893132Y-114184302D01*
X173890582Y-114178814D01*
X173888647Y-114175541D01*
X173887187Y-114174187D01*
X173886808Y-114174112D01*
X173882245Y-114174700D01*
X173874736Y-114176444D01*
X173864380Y-114179312D01*
X173851274Y-114183274D01*
X173835516Y-114188297D01*
X173817203Y-114194351D01*
X173796433Y-114201405D01*
X173773303Y-114209427D01*
X173747912Y-114218387D01*
X173744683Y-114219536D01*
X173718230Y-114228694D01*
X173694219Y-114236419D01*
X173672209Y-114242814D01*
X173651758Y-114247980D01*
X173632425Y-114252018D01*
X173613769Y-114255032D01*
X173595348Y-114257122D01*
X173576722Y-114258390D01*
X173576244Y-114258413D01*
X173566391Y-114258626D01*
X173555504Y-114258456D01*
X173544124Y-114257951D01*
X173532795Y-114257163D01*
X173522056Y-114256144D01*
X173512450Y-114254944D01*
X173504519Y-114253613D01*
X173498805Y-114252204D01*
X173495942Y-114250856D01*
X173496139Y-114249108D01*
X173497200Y-114244526D01*
X173499042Y-114237404D01*
X173501586Y-114228036D01*
X173504749Y-114216716D01*
X173508449Y-114203735D01*
X173512606Y-114189389D01*
X173517139Y-114173970D01*
X173519212Y-114166982D01*
X173523911Y-114151170D01*
X173528316Y-114136296D01*
X173532340Y-114122655D01*
X173535898Y-114110541D01*
X173538902Y-114100251D01*
X173541268Y-114092079D01*
X173542908Y-114086319D01*
X173543736Y-114083267D01*
X173543821Y-114082860D01*
X173542310Y-114082469D01*
X173537804Y-114083266D01*
X173530346Y-114085237D01*
X173519978Y-114088369D01*
X173506742Y-114092647D01*
X173490682Y-114098058D01*
X173471838Y-114104588D01*
X173450255Y-114112224D01*
X173425973Y-114120952D01*
X173421502Y-114122571D01*
X173391467Y-114133394D01*
X173363459Y-114143346D01*
X173337616Y-114152383D01*
X173314075Y-114160458D01*
X173292971Y-114167525D01*
X173274442Y-114173537D01*
X173258625Y-114178449D01*
X173245655Y-114182214D01*
X173241712Y-114183280D01*
X173231461Y-114185711D01*
X173222397Y-114187137D01*
X173212790Y-114187786D01*
X173206564Y-114187895D01*
X173198316Y-114187864D01*
X173192452Y-114187577D01*
X173188091Y-114186895D01*
X173184355Y-114185683D01*
X173180436Y-114183841D01*
X173173600Y-114179366D01*
X173167894Y-114173365D01*
X173163251Y-114165601D01*
X173159600Y-114155835D01*
X173156873Y-114143829D01*
X173155001Y-114129345D01*
X173153914Y-114112145D01*
X173153544Y-114091990D01*
X173153543Y-114091162D01*
X173153529Y-114064551D01*
X173148222Y-114065436D01*
X173145091Y-114065833D01*
X173139250Y-114066456D01*
X173131240Y-114067253D01*
X173121604Y-114068170D01*
X173110885Y-114069153D01*
X173105355Y-114069647D01*
X173076817Y-114072319D01*
X173051195Y-114075042D01*
X173028140Y-114077876D01*
X173007302Y-114080882D01*
X172988334Y-114084121D01*
X172970883Y-114087653D01*
X172954603Y-114091538D01*
X172939142Y-114095838D01*
X172924151Y-114100612D01*
X172921555Y-114101499D01*
X172901928Y-114109021D01*
X172885522Y-114116928D01*
X172872348Y-114125215D01*
X172868451Y-114128247D01*
X172864367Y-114131909D01*
X172858749Y-114137421D01*
X172851529Y-114144854D01*
X172842640Y-114154282D01*
X172832014Y-114165778D01*
X172819586Y-114179416D01*
X172805288Y-114195267D01*
X172789052Y-114213404D01*
X172770812Y-114233902D01*
X172756502Y-114250047D01*
X172740603Y-114267982D01*
X172726633Y-114283659D01*
X172714380Y-114297286D01*
X172703633Y-114309074D01*
X172694182Y-114319230D01*
X172685815Y-114327966D01*
X172678321Y-114335488D01*
X172671489Y-114342008D01*
X172665108Y-114347734D01*
X172658967Y-114352875D01*
X172652854Y-114357640D01*
X172646559Y-114362238D01*
X172639871Y-114366880D01*
X172635862Y-114369584D01*
X172615583Y-114382064D01*
X172594590Y-114392722D01*
X172572312Y-114401784D01*
X172548177Y-114409474D01*
X172521612Y-114416019D01*
X172514202Y-114417568D01*
X172490275Y-114423108D01*
X172468951Y-114429602D01*
X172449649Y-114437279D01*
X172431787Y-114446364D01*
X172417227Y-114455414D01*
X172412860Y-114458749D01*
X172406349Y-114464284D01*
X172397837Y-114471888D01*
X172387465Y-114481429D01*
X172375378Y-114492776D01*
X172361718Y-114505797D01*
X172346627Y-114520361D01*
X172346448Y-114520536D01*
X172320287Y-114545800D01*
X172296104Y-114568880D01*
X172273656Y-114589987D01*
X172252701Y-114609332D01*
X172232998Y-114627128D01*
X172214305Y-114643586D01*
X172196379Y-114658918D01*
X172178979Y-114673336D01*
X172161863Y-114687052D01*
X172144789Y-114700276D01*
X172127516Y-114713222D01*
X172120644Y-114718262D01*
X172089596Y-114740710D01*
X172059322Y-114762186D01*
X172029095Y-114783191D01*
X171998186Y-114804226D01*
X171965867Y-114825792D01*
X171931410Y-114848388D01*
X171930763Y-114848809D01*
X171890925Y-114874730D01*
X171884559Y-114869688D01*
X171878193Y-114864647D01*
X171881646Y-114857823D01*
X171885431Y-114850470D01*
X171890638Y-114840549D01*
X171897110Y-114828351D01*
X171904690Y-114814167D01*
X171913221Y-114798287D01*
X171922547Y-114781003D01*
X171932510Y-114762606D01*
X171942953Y-114743386D01*
X171953720Y-114723635D01*
X171964654Y-114703643D01*
X171972325Y-114689659D01*
X171982972Y-114670273D01*
X171992164Y-114653527D01*
X172000010Y-114639195D01*
X172006621Y-114627053D01*
X172012107Y-114616875D01*
X172016579Y-114608434D01*
X172020148Y-114601507D01*
X172022923Y-114595867D01*
X172025017Y-114591288D01*
X172026538Y-114587546D01*
X172027598Y-114584415D01*
X172028308Y-114581669D01*
X172028777Y-114579083D01*
X172029117Y-114576431D01*
X172029438Y-114573488D01*
X172029482Y-114573088D01*
X172030064Y-114567042D01*
X172030319Y-114562546D01*
X172030212Y-114560320D01*
X172030084Y-114560210D01*
X172007292Y-114573385D01*
X171987350Y-114586593D01*
X171973672Y-114596958D01*
X171949166Y-114616207D01*
X171925117Y-114634003D01*
X171900979Y-114650689D01*
X171876206Y-114666609D01*
X171850251Y-114682104D01*
X171822569Y-114697519D01*
X171792613Y-114713196D01*
X171772512Y-114723270D01*
X171760704Y-114729072D01*
X171749620Y-114734445D01*
X171738835Y-114739583D01*
X171727925Y-114744679D01*
X171716465Y-114749925D01*
X171704030Y-114755515D01*
X171690196Y-114761641D01*
X171674538Y-114768497D01*
X171656632Y-114776275D01*
X171640536Y-114783234D01*
X171618199Y-114792920D01*
X171598420Y-114801602D01*
X171580730Y-114809496D01*
X171564658Y-114816821D01*
X171549736Y-114823795D01*
X171535492Y-114830636D01*
X171521458Y-114837562D01*
X171507164Y-114844792D01*
X171500096Y-114848421D01*
X171450289Y-114875095D01*
X171402621Y-114902697D01*
X171355975Y-114931891D01*
X171324818Y-114952618D01*
X171314996Y-114959154D01*
X171305015Y-114965534D01*
X171295550Y-114971343D01*
X171287274Y-114976170D01*
X171280863Y-114979603D01*
X171279910Y-114980065D01*
X171273747Y-114982711D01*
X171265184Y-114986016D01*
X171254955Y-114989717D01*
X171243795Y-114993549D01*
X171232435Y-114997250D01*
X171229831Y-114998067D01*
X171211315Y-115003969D01*
X171195734Y-115009255D01*
X171182840Y-115014040D01*
X171172386Y-115018443D01*
X171164123Y-115022578D01*
X171157804Y-115026563D01*
X171153182Y-115030513D01*
X171150007Y-115034545D01*
X171149235Y-115035915D01*
X171147950Y-115039200D01*
X171145955Y-115045350D01*
X171143332Y-115054061D01*
X171140168Y-115065031D01*
X171136547Y-115077955D01*
X171132554Y-115092532D01*
X171128274Y-115108458D01*
X171123792Y-115125430D01*
X171119192Y-115143145D01*
X171118939Y-115144126D01*
X171102298Y-115211794D01*
X171087755Y-115277327D01*
X171075256Y-115341049D01*
X171064748Y-115403282D01*
X171056177Y-115464350D01*
X171049490Y-115524575D01*
X171044633Y-115584281D01*
X171043693Y-115599267D01*
X171042688Y-115621441D01*
X171042234Y-115644000D01*
X171042311Y-115666432D01*
X171042898Y-115688227D01*
X171043975Y-115708875D01*
X171045520Y-115727865D01*
X171047514Y-115744686D01*
X171049934Y-115758829D01*
X171050201Y-115760085D01*
X171056391Y-115781902D01*
X171065119Y-115801780D01*
X171076456Y-115819812D01*
X171090477Y-115836090D01*
X171107254Y-115850707D01*
X171126860Y-115863757D01*
X171135932Y-115868779D01*
X171150225Y-115876929D01*
X171161616Y-115884915D01*
X171170439Y-115893002D01*
X171177031Y-115901457D01*
X171177033Y-115901462D01*
X171198103Y-115933305D01*
X171218935Y-115962479D01*
X171239995Y-115989505D01*
X171261748Y-116014904D01*
X171284658Y-116039195D01*
X171309190Y-116062901D01*
X171335809Y-116086542D01*
X171360473Y-116107015D01*
X171369481Y-116114221D01*
X171378438Y-116121231D01*
X171387533Y-116128168D01*
X171396954Y-116135158D01*
X171406891Y-116142325D01*
X171417530Y-116149796D01*
X171429061Y-116157693D01*
X171441673Y-116166143D01*
X171455553Y-116175271D01*
X171470889Y-116185201D01*
X171487872Y-116196058D01*
X171506688Y-116207967D01*
X171527526Y-116221053D01*
X171550575Y-116235441D01*
X171576024Y-116251255D01*
X171604060Y-116268622D01*
X171607059Y-116270477D01*
X171681696Y-116316577D01*
X171753745Y-116360943D01*
X171823334Y-116403654D01*
X171890591Y-116444788D01*
X171955646Y-116484422D01*
X172018627Y-116522636D01*
X172079663Y-116559506D01*
X172138883Y-116595111D01*
X172196416Y-116629530D01*
X172252390Y-116662840D01*
X172306934Y-116695119D01*
X172325201Y-116705888D01*
X172345363Y-116717750D01*
X172363068Y-116728131D01*
X172378662Y-116737222D01*
X172392493Y-116745215D01*
X172404909Y-116752302D01*
X172416256Y-116758675D01*
X172426883Y-116764523D01*
X172437137Y-116770040D01*
X172447364Y-116775416D01*
X172457914Y-116780844D01*
X172469132Y-116786514D01*
X172481367Y-116792618D01*
X172492972Y-116798364D01*
X172503319Y-116803468D01*
X172512743Y-116808097D01*
X172521549Y-116812395D01*
X172530044Y-116816503D01*
X172538533Y-116820564D01*
X172547321Y-116824721D01*
X172556716Y-116829116D01*
X172567022Y-116833891D01*
X172578545Y-116839190D01*
X172591591Y-116845154D01*
X172606466Y-116851926D01*
X172623475Y-116859648D01*
X172642924Y-116868464D01*
X172659430Y-116875939D01*
X172680790Y-116885632D01*
X172699422Y-116894138D01*
X172715586Y-116901583D01*
X172729544Y-116908096D01*
X172741556Y-116913802D01*
X172751884Y-116918829D01*
X172760789Y-116923304D01*
X172768532Y-116927354D01*
X172775375Y-116931106D01*
X172781578Y-116934686D01*
X172786916Y-116937919D01*
X172800437Y-116946359D01*
X172811532Y-116953485D01*
X172820600Y-116959621D01*
X172828041Y-116965090D01*
X172834257Y-116970216D01*
X172839646Y-116975321D01*
X172844610Y-116980729D01*
X172849547Y-116986763D01*
X172853065Y-116991349D01*
X172859127Y-117000016D01*
X172864894Y-117009644D01*
X172870600Y-117020706D01*
X172876475Y-117033673D01*
X172882753Y-117049016D01*
X172887360Y-117061022D01*
X172893711Y-117077423D01*
X172901200Y-117095931D01*
X172909487Y-117115738D01*
X172918231Y-117136039D01*
X172927092Y-117156027D01*
X172932745Y-117168454D01*
X172938470Y-117180700D01*
X172944853Y-117194013D01*
X172951704Y-117208026D01*
X172958834Y-117222371D01*
X172966053Y-117236678D01*
X172973170Y-117250580D01*
X172979997Y-117263709D01*
X172986344Y-117275696D01*
X172992019Y-117286172D01*
X172996835Y-117294771D01*
X173000600Y-117301123D01*
X173002932Y-117304612D01*
X173010898Y-117314087D01*
X173021392Y-117324981D01*
X173034137Y-117337034D01*
X173048860Y-117349986D01*
X173065284Y-117363578D01*
X173066083Y-117364220D01*
X173088863Y-117383187D01*
X173108862Y-117401361D01*
X173126363Y-117419071D01*
X173141653Y-117436647D01*
X173155016Y-117454417D01*
X173166737Y-117472710D01*
X173177102Y-117491857D01*
X173177760Y-117493189D01*
X173182928Y-117503293D01*
X173188074Y-117512319D01*
X173193504Y-117520581D01*
X173199522Y-117528393D01*
X173206435Y-117536069D01*
X173214547Y-117543923D01*
X173224163Y-117552270D01*
X173235589Y-117561424D01*
X173249130Y-117571698D01*
X173265092Y-117583408D01*
X173266208Y-117584217D01*
X173290348Y-117601590D01*
X173312293Y-117617120D01*
X173332381Y-117631030D01*
X173350944Y-117643541D01*
X173368320Y-117654878D01*
X173384843Y-117665262D01*
X173400848Y-117674916D01*
X173415629Y-117683474D01*
X173437773Y-117696448D01*
X173457263Y-117708769D01*
X173474561Y-117720765D01*
X173490130Y-117732762D01*
X173504430Y-117745088D01*
X173510132Y-117750406D01*
X173531108Y-117772576D01*
X173549458Y-117796509D01*
X173565049Y-117821998D01*
X173577748Y-117848837D01*
X173583846Y-117865265D01*
X173587442Y-117876832D01*
X173590622Y-117888633D01*
X173593218Y-117899910D01*
X173595061Y-117909903D01*
X173595980Y-117917854D01*
X173596052Y-117919956D01*
X173595825Y-117924561D01*
X173595196Y-117930919D01*
X173594277Y-117938268D01*
X173593184Y-117945845D01*
X173592029Y-117952888D01*
X173590928Y-117958636D01*
X173589993Y-117962326D01*
X173589585Y-117963210D01*
X173587625Y-117963302D01*
X173582921Y-117962647D01*
X173575882Y-117961339D01*
X173566920Y-117959471D01*
X173556445Y-117957139D01*
X173544868Y-117954436D01*
X173532600Y-117951456D01*
X173520051Y-117948293D01*
X173507633Y-117945041D01*
X173495756Y-117941794D01*
X173494529Y-117941449D01*
X173481128Y-117937683D01*
X173469919Y-117934603D01*
X173460355Y-117932134D01*
X173451887Y-117930199D01*
X173443966Y-117928722D01*
X173436044Y-117927625D01*
X173427573Y-117926832D01*
X173418005Y-117926267D01*
X173406790Y-117925853D01*
X173393380Y-117925513D01*
X173378070Y-117925189D01*
X173360976Y-117924804D01*
X173346646Y-117924385D01*
X173334580Y-117923878D01*
X173324277Y-117923227D01*
X173315234Y-117922377D01*
X173306951Y-117921272D01*
X173298926Y-117919857D01*
X173290658Y-117918077D01*
X173281645Y-117915876D01*
X173272740Y-117913558D01*
X173243871Y-117904474D01*
X173214185Y-117892304D01*
X173183782Y-117877096D01*
X173152760Y-117858900D01*
X173125589Y-117840848D01*
X173119243Y-117836364D01*
X173112770Y-117831691D01*
X173105916Y-117826633D01*
X173098431Y-117820995D01*
X173090061Y-117814583D01*
X173080555Y-117807201D01*
X173069661Y-117798654D01*
X173057127Y-117788746D01*
X173042701Y-117777282D01*
X173026131Y-117764067D01*
X173015792Y-117755807D01*
X172970321Y-117719456D01*
X172963002Y-117734533D01*
X172956449Y-117746995D01*
X172949039Y-117759341D01*
X172941252Y-117770866D01*
X172933571Y-117780864D01*
X172926477Y-117788630D01*
X172925367Y-117789674D01*
X172915222Y-117797668D01*
X172904507Y-117803440D01*
X172892977Y-117806989D01*
X172880385Y-117808310D01*
X172866486Y-117807401D01*
X172851032Y-117804259D01*
X172833779Y-117798882D01*
X172814479Y-117791265D01*
X172807587Y-117788245D01*
X172778179Y-117773662D01*
X172751097Y-117757319D01*
X172726466Y-117739328D01*
X172704412Y-117719800D01*
X172685060Y-117698846D01*
X172668536Y-117676576D01*
X172655089Y-117653349D01*
X172647692Y-117637328D01*
X172641622Y-117621107D01*
X172636657Y-117603920D01*
X172632574Y-117584997D01*
X172629293Y-117564611D01*
X172623596Y-117529722D01*
X172616576Y-117497407D01*
X172608079Y-117467191D01*
X172597949Y-117438595D01*
X172586030Y-117411145D01*
X172572167Y-117384363D01*
X172568278Y-117377542D01*
X172554400Y-117354910D01*
X172539774Y-117333681D01*
X172523893Y-117313213D01*
X172506248Y-117292863D01*
X172486331Y-117271989D01*
X172478838Y-117264548D01*
X172470294Y-117256263D01*
X172462038Y-117248488D01*
X172453794Y-117241005D01*
X172445286Y-117233596D01*
X172436240Y-117226042D01*
X172426378Y-117218127D01*
X172415426Y-117209632D01*
X172403108Y-117200338D01*
X172389149Y-117190029D01*
X172373272Y-117178485D01*
X172355202Y-117165490D01*
X172338652Y-117153666D01*
X172276168Y-117109384D01*
X172213717Y-117065658D01*
X172151063Y-117022335D01*
X172087975Y-116979261D01*
X172024217Y-116936284D01*
X171959558Y-116893251D01*
X171893762Y-116850009D01*
X171826596Y-116806406D01*
X171757828Y-116762289D01*
X171687222Y-116717504D01*
X171614546Y-116671900D01*
X171539567Y-116625323D01*
X171462049Y-116577621D01*
X171400011Y-116539739D01*
X171369333Y-116521107D01*
X171341204Y-116504114D01*
X171315415Y-116488640D01*
X171291760Y-116474569D01*
X171270032Y-116461783D01*
X171250026Y-116450163D01*
X171231535Y-116439592D01*
X171214351Y-116429952D01*
X171198268Y-116421125D01*
X171183080Y-116412994D01*
X171168581Y-116405441D01*
X171154562Y-116398348D01*
X171140819Y-116391597D01*
X171136749Y-116389635D01*
X171123771Y-116383469D01*
X171111422Y-116377752D01*
X171099389Y-116372364D01*
X171087357Y-116367189D01*
X171075014Y-116362106D01*
X171062046Y-116356999D01*
X171048139Y-116351748D01*
X171032982Y-116346235D01*
X171016259Y-116340341D01*
X170997658Y-116333948D01*
X170976865Y-116326939D01*
X170953568Y-116319193D01*
X170928539Y-116310950D01*
X170903733Y-116302768D01*
X170881719Y-116295412D01*
X170862163Y-116288761D01*
X170844732Y-116282693D01*
X170829090Y-116277087D01*
X170814905Y-116271822D01*
X170801843Y-116266776D01*
X170789570Y-116261828D01*
X170777753Y-116256856D01*
X170767110Y-116252207D01*
X170750679Y-116244708D01*
X170733387Y-116236446D01*
X170715781Y-116227708D01*
X170698409Y-116218780D01*
X170681818Y-116209950D01*
X170666556Y-116201503D01*
X170653170Y-116193726D01*
X170642208Y-116186907D01*
X170641515Y-116186452D01*
X170623836Y-116173108D01*
X170609023Y-116158214D01*
X170597049Y-116141724D01*
X170587886Y-116123590D01*
X170581510Y-116103765D01*
X170577892Y-116082203D01*
X170577147Y-116071682D01*
X170577015Y-116067905D01*
X170576960Y-116064104D01*
X170577007Y-116060047D01*
X170577180Y-116055501D01*
X170577504Y-116050233D01*
X170578001Y-116044009D01*
X170578696Y-116036597D01*
X170579613Y-116027764D01*
X170580776Y-116017277D01*
X170582209Y-116004902D01*
X170583936Y-115990408D01*
X170585980Y-115973561D01*
X170588367Y-115954127D01*
X170591119Y-115931875D01*
X170593631Y-115911646D01*
X170599101Y-115867554D01*
X170604305Y-115825445D01*
X170609235Y-115785394D01*
X170613880Y-115747475D01*
X170618233Y-115711765D01*
X170622285Y-115678340D01*
X170626026Y-115647274D01*
X170629448Y-115618643D01*
X170632541Y-115592523D01*
X170635297Y-115568990D01*
X170637707Y-115548118D01*
X170639763Y-115529984D01*
X170641454Y-115514663D01*
X170642772Y-115502230D01*
X170643708Y-115492761D01*
X170644254Y-115486332D01*
X170644400Y-115483018D01*
X170644277Y-115482569D01*
X170643046Y-115484289D01*
X170640199Y-115488474D01*
X170635910Y-115494858D01*
X170630357Y-115503176D01*
X170623713Y-115513161D01*
X170616155Y-115524549D01*
X170607859Y-115537072D01*
X170598998Y-115550466D01*
X170589750Y-115564465D01*
X170580289Y-115578804D01*
X170570792Y-115593215D01*
X170561432Y-115607434D01*
X170552387Y-115621195D01*
X170543830Y-115634232D01*
X170535939Y-115646280D01*
X170528888Y-115657072D01*
X170522853Y-115666343D01*
X170518924Y-115672408D01*
X170509020Y-115687839D01*
X170498881Y-115703808D01*
X170488706Y-115719987D01*
X170478698Y-115736050D01*
X170469054Y-115751667D01*
X170459977Y-115766511D01*
X170451667Y-115780256D01*
X170444324Y-115792572D01*
X170438147Y-115803132D01*
X170433339Y-115811609D01*
X170430098Y-115817674D01*
X170430061Y-115817747D01*
X170425323Y-115828419D01*
X170420210Y-115842289D01*
X170414737Y-115859309D01*
X170408920Y-115879435D01*
X170405069Y-115893745D01*
X170400396Y-115911372D01*
X170396315Y-115926225D01*
X170392663Y-115938707D01*
X170389274Y-115949223D01*
X170385986Y-115958174D01*
X170382632Y-115965965D01*
X170379049Y-115972999D01*
X170375072Y-115979680D01*
X170370536Y-115986410D01*
X170365278Y-115993592D01*
X170363270Y-115996244D01*
X170358817Y-116002113D01*
X170354518Y-116007842D01*
X170350061Y-116013857D01*
X170345135Y-116020582D01*
X170339431Y-116028443D01*
X170332638Y-116037866D01*
X170324445Y-116049276D01*
X170318866Y-116057059D01*
X170314819Y-116062780D01*
X170311382Y-116067923D01*
X170308430Y-116072858D01*
X170305836Y-116077957D01*
X170303475Y-116083592D01*
X170301221Y-116090134D01*
X170298947Y-116097954D01*
X170296527Y-116107424D01*
X170293836Y-116118915D01*
X170290748Y-116132798D01*
X170287135Y-116149444D01*
X170286479Y-116152487D01*
X170276250Y-116200098D01*
X170266684Y-116244967D01*
X170257711Y-116287460D01*
X170249262Y-116327939D01*
X170241266Y-116366771D01*
X170233655Y-116404319D01*
X170226360Y-116440947D01*
X170219309Y-116477019D01*
X170212435Y-116512900D01*
X170205667Y-116548954D01*
X170198937Y-116585546D01*
X170192174Y-116623039D01*
X170185309Y-116661798D01*
X170178272Y-116702188D01*
X170170995Y-116744571D01*
X170163407Y-116789313D01*
X170155439Y-116836779D01*
X170152173Y-116856348D01*
X170143687Y-116907663D01*
X170135767Y-116956431D01*
X170128379Y-117002952D01*
X170121488Y-117047528D01*
X170115061Y-117090460D01*
X170109062Y-117132052D01*
X170103459Y-117172603D01*
X170098215Y-117212415D01*
X170093299Y-117251791D01*
X170088674Y-117291031D01*
X170084308Y-117330438D01*
X170080165Y-117370313D01*
X170076213Y-117410957D01*
X170072415Y-117452672D01*
X170068739Y-117495761D01*
X170065151Y-117540523D01*
X170061615Y-117587261D01*
X170058098Y-117636277D01*
X170054565Y-117687872D01*
X170050983Y-117742347D01*
X170049991Y-117757775D01*
X170048698Y-117777880D01*
X170047285Y-117799673D01*
X170045801Y-117822426D01*
X170044294Y-117845410D01*
X170042810Y-117867896D01*
X170041399Y-117889158D01*
X170040108Y-117908465D01*
X170039202Y-117921894D01*
X170038007Y-117939625D01*
X170037028Y-117954562D01*
X170036253Y-117967169D01*
X170035670Y-117977908D01*
X170035266Y-117987243D01*
X170035029Y-117995638D01*
X170034946Y-118003556D01*
X170035004Y-118011462D01*
X170035193Y-118019818D01*
X170035498Y-118029088D01*
X170035907Y-118039736D01*
X170035986Y-118041689D01*
X170036691Y-118058283D01*
X170037391Y-118072113D01*
X170038138Y-118083683D01*
X170038985Y-118093494D01*
X170039986Y-118102048D01*
X170041195Y-118109849D01*
X170042664Y-118117398D01*
X170044448Y-118125197D01*
X170045186Y-118128197D01*
X170052729Y-118152428D01*
X170062820Y-118174718D01*
X170075575Y-118195311D01*
X170081750Y-118203504D01*
X170086189Y-118208903D01*
X170090602Y-118213802D01*
X170095429Y-118218591D01*
X170101108Y-118223660D01*
X170108080Y-118229398D01*
X170116784Y-118236196D01*
X170127660Y-118244443D01*
X170129176Y-118245582D01*
X170139238Y-118253334D01*
X170150385Y-118262251D01*
X170161565Y-118271471D01*
X170171724Y-118280132D01*
X170176533Y-118284378D01*
X170191712Y-118297543D01*
X170205641Y-118308564D01*
X170219006Y-118317925D01*
X170232494Y-118326113D01*
X170244802Y-118332629D01*
X170261645Y-118340320D01*
X170279498Y-118347037D01*
X170298754Y-118352878D01*
X170319805Y-118357941D01*
X170343045Y-118362324D01*
X170368866Y-118366125D01*
X170388009Y-118368418D01*
X170413833Y-118371567D01*
X170440834Y-118375413D01*
X170468232Y-118379817D01*
X170495246Y-118384643D01*
X170521098Y-118389753D01*
X170545006Y-118395010D01*
X170560058Y-118398676D01*
X170575977Y-118403688D01*
X170588963Y-118409909D01*
X170599163Y-118417472D01*
X170606729Y-118426510D01*
X170611809Y-118437156D01*
X170614152Y-118446723D01*
X170614901Y-118459306D01*
X170612901Y-118471449D01*
X170608058Y-118483319D01*
X170600279Y-118495079D01*
X170589472Y-118506894D01*
X170575543Y-118518929D01*
X170571554Y-118521998D01*
X170550957Y-118535641D01*
X170529504Y-118546207D01*
X170508853Y-118553227D01*
X170503176Y-118554695D01*
X170498110Y-118555807D01*
X170493039Y-118556619D01*
X170487346Y-118557190D01*
X170480413Y-118557577D01*
X170471625Y-118557836D01*
X170460363Y-118558024D01*
X170456596Y-118558073D01*
X170446264Y-118558147D01*
X170436365Y-118558080D01*
X170426391Y-118557850D01*
X170415832Y-118557429D01*
X170404180Y-118556794D01*
X170390925Y-118555918D01*
X170375557Y-118554778D01*
X170357569Y-118553348D01*
X170352899Y-118552967D01*
X170310299Y-118549469D01*
X170270796Y-118546215D01*
X170234230Y-118543190D01*
X170200443Y-118540375D01*
X170169276Y-118537756D01*
X170140569Y-118535314D01*
X170114164Y-118533034D01*
X170089902Y-118530899D01*
X170067623Y-118528893D01*
X170047169Y-118526999D01*
X170028381Y-118525200D01*
X170011099Y-118523480D01*
X169995165Y-118521823D01*
X169980420Y-118520211D01*
X169966704Y-118518629D01*
X169953859Y-118517059D01*
X169941726Y-118515486D01*
X169930145Y-118513893D01*
X169918959Y-118512262D01*
X169908007Y-118510578D01*
X169897131Y-118508825D01*
X169886171Y-118506985D01*
X169874970Y-118505042D01*
X169863367Y-118502979D01*
X169851239Y-118500787D01*
X169833401Y-118497358D01*
X169818390Y-118494010D01*
X169805776Y-118490572D01*
X169795130Y-118486872D01*
X169786023Y-118482738D01*
X169778026Y-118478000D01*
X169770708Y-118472486D01*
X169763641Y-118466025D01*
X169763303Y-118465691D01*
X169756187Y-118457927D01*
X169750280Y-118449761D01*
X169745280Y-118440583D01*
X169740885Y-118429780D01*
X169736796Y-118416742D01*
X169734055Y-118406368D01*
X169729692Y-118390120D01*
X169725281Y-118376378D01*
X169720530Y-118364390D01*
X169715149Y-118353407D01*
X169710111Y-118344703D01*
X169699800Y-118329491D01*
X169688302Y-118315602D01*
X169675103Y-118302525D01*
X169659690Y-118289746D01*
X169643248Y-118277904D01*
X169629199Y-118267363D01*
X169617025Y-118256014D01*
X169606565Y-118243543D01*
X169597658Y-118229634D01*
X169590144Y-118213974D01*
X169583863Y-118196248D01*
X169578655Y-118176139D01*
X169574360Y-118153335D01*
X169572159Y-118138269D01*
X169570852Y-118127700D01*
X169569876Y-118117842D01*
X169569188Y-118107901D01*
X169568744Y-118097080D01*
X169568502Y-118084583D01*
X169568417Y-118069682D01*
X169568691Y-118048235D01*
X169569610Y-118027218D01*
X169571238Y-118006177D01*
X169573638Y-117984653D01*
X169576872Y-117962192D01*
X169581005Y-117938335D01*
X169586100Y-117912627D01*
X169592220Y-117884610D01*
X169596826Y-117864738D01*
X169614701Y-117789489D01*
X169633468Y-117711241D01*
X169653095Y-117630126D01*
X169673550Y-117546277D01*
X169683479Y-117505809D01*
X169694521Y-117460824D01*
X169704804Y-117418802D01*
X169714374Y-117379542D01*
X169723279Y-117342842D01*
X169731564Y-117308501D01*
X169739277Y-117276317D01*
X169746464Y-117246089D01*
X169753171Y-117217616D01*
X169759445Y-117190694D01*
X169765334Y-117165124D01*
X169770882Y-117140703D01*
X169776137Y-117117229D01*
X169781146Y-117094502D01*
X169785955Y-117072320D01*
X169790611Y-117050480D01*
X169795160Y-117028782D01*
X169799649Y-117007024D01*
X169804124Y-116985004D01*
X169805862Y-116976375D01*
X169815380Y-116927858D01*
X169824920Y-116876981D01*
X169834498Y-116823650D01*
X169844129Y-116767767D01*
X169853829Y-116709236D01*
X169863614Y-116647961D01*
X169873498Y-116583846D01*
X169883498Y-116516794D01*
X169893628Y-116446709D01*
X169903906Y-116373495D01*
X169907801Y-116345212D01*
X169908999Y-116336413D01*
X169910583Y-116324698D01*
X169912516Y-116310342D01*
X169914760Y-116293621D01*
X169917281Y-116274811D01*
X169920040Y-116254187D01*
X169923002Y-116232024D01*
X169926129Y-116208598D01*
X169929385Y-116184184D01*
X169932733Y-116159057D01*
X169936137Y-116133494D01*
X169939561Y-116107769D01*
X169942966Y-116082157D01*
X169946317Y-116056935D01*
X169949578Y-116032378D01*
X169952711Y-116008760D01*
X169955679Y-115986358D01*
X169958447Y-115965446D01*
X169960977Y-115946301D01*
X169963234Y-115929198D01*
X169965179Y-115914411D01*
X169966777Y-115902217D01*
X169967991Y-115892891D01*
X169968311Y-115890416D01*
X169970460Y-115872378D01*
X169972462Y-115852703D01*
X169974341Y-115831075D01*
X169976125Y-115807176D01*
X169977837Y-115780691D01*
X169979502Y-115751303D01*
X169979745Y-115746710D01*
X169981303Y-115717944D01*
X169982836Y-115692081D01*
X169984402Y-115668759D01*
X169986063Y-115647617D01*
X169987878Y-115628293D01*
X169989906Y-115610426D01*
X169992208Y-115593653D01*
X169994843Y-115577614D01*
X169997871Y-115561945D01*
X170001353Y-115546287D01*
X170005348Y-115530276D01*
X170009915Y-115513551D01*
X170015116Y-115495751D01*
X170021009Y-115476514D01*
X170027654Y-115455478D01*
X170028256Y-115453595D01*
X170034321Y-115435675D01*
X170040595Y-115419524D01*
X170047354Y-115404758D01*
X170054872Y-115390996D01*
X170063425Y-115377853D01*
X170073289Y-115364948D01*
X170084739Y-115351897D01*
X170098050Y-115338319D01*
X170113500Y-115323829D01*
X170131362Y-115308045D01*
X170135707Y-115304305D01*
X170161613Y-115281538D01*
X170187163Y-115257916D01*
X170212542Y-115233233D01*
X170237933Y-115207283D01*
X170263521Y-115179860D01*
X170289489Y-115150758D01*
X170316021Y-115119770D01*
X170343302Y-115086691D01*
X170371515Y-115051314D01*
X170400845Y-115013433D01*
X170430789Y-114973761D01*
X170440445Y-114960610D01*
X170450855Y-114946046D01*
X170461837Y-114930351D01*
X170473208Y-114913807D01*
X170484785Y-114896698D01*
X170496386Y-114879306D01*
X170507828Y-114861912D01*
X170518929Y-114844801D01*
X170529506Y-114828253D01*
X170539375Y-114812553D01*
X170548355Y-114797982D01*
X170556262Y-114784822D01*
X170562914Y-114773357D01*
X170568129Y-114763868D01*
X170571723Y-114756639D01*
X170572754Y-114754222D01*
X170575159Y-114748042D01*
X170577030Y-114743130D01*
X170578103Y-114740188D01*
X170578256Y-114739672D01*
X170576687Y-114739541D01*
X170572237Y-114739419D01*
X170565291Y-114739309D01*
X170556234Y-114739217D01*
X170545451Y-114739146D01*
X170533327Y-114739100D01*
X170525591Y-114739087D01*
X170490031Y-114738942D01*
X170456813Y-114738578D01*
X170426041Y-114738001D01*
X170397817Y-114737215D01*
X170372245Y-114736224D01*
X170349429Y-114735034D01*
X170329472Y-114733648D01*
X170312477Y-114732071D01*
X170298547Y-114730308D01*
X170288771Y-114728578D01*
X170275851Y-114724762D01*
X170264977Y-114719349D01*
X170256433Y-114712567D01*
X170250505Y-114704644D01*
X170247477Y-114695807D01*
X170247434Y-114695528D01*
X170246965Y-114690546D01*
X170247120Y-114685381D01*
X170248008Y-114679830D01*
X170249739Y-114673685D01*
X170252424Y-114666742D01*
X170256172Y-114658796D01*
X170261093Y-114649640D01*
X170267297Y-114639069D01*
X170274895Y-114626878D01*
X170283996Y-114612862D01*
X170294710Y-114596815D01*
X170307147Y-114578531D01*
X170320242Y-114559505D01*
X170332587Y-114541571D01*
X170343080Y-114526176D01*
X170351786Y-114513216D01*
X170358773Y-114502589D01*
X170364107Y-114494191D01*
X170367855Y-114487918D01*
X170370084Y-114483667D01*
X170370860Y-114481335D01*
X170370862Y-114481264D01*
X170370485Y-114479553D01*
X170369112Y-114476766D01*
X170366389Y-114472215D01*
X170365000Y-114470000D01*
X170363456Y-114470460D01*
X170359126Y-114471963D01*
X170352285Y-114474409D01*
X170343207Y-114477699D01*
X170332165Y-114481732D01*
X170319433Y-114486408D01*
X170305286Y-114491628D01*
X170289997Y-114497292D01*
X170278364Y-114501615D01*
X170248547Y-114512708D01*
X170221624Y-114522720D01*
X170197427Y-114531706D01*
X170175789Y-114539725D01*
X170156543Y-114546834D01*
X170139521Y-114553089D01*
X170124556Y-114558549D01*
X170111482Y-114563270D01*
X170100130Y-114567311D01*
X170090334Y-114570728D01*
X170081926Y-114573579D01*
X170074739Y-114575920D01*
X170068605Y-114577810D01*
X170063359Y-114579306D01*
X170058831Y-114580465D01*
X170054856Y-114581344D01*
X170051265Y-114582001D01*
X170047892Y-114582493D01*
X170044569Y-114582878D01*
X170041130Y-114583212D01*
X170040065Y-114583310D01*
X170028524Y-114584363D01*
X170025776Y-114568982D01*
X170024523Y-114560930D01*
X170023569Y-114552837D01*
X170023069Y-114546080D01*
X170023029Y-114544277D01*
X170023652Y-114537672D01*
X170025553Y-114528953D01*
X170028782Y-114517971D01*
X170033386Y-114504577D01*
X170039414Y-114488622D01*
X170046914Y-114469957D01*
X170048356Y-114466462D01*
X170060850Y-114436290D01*
X170057305Y-114433419D01*
X170056315Y-114432713D01*
X170055215Y-114432368D01*
X170053736Y-114432560D01*
X170051605Y-114433463D01*
X170048555Y-114435251D01*
X170044314Y-114438099D01*
X170038613Y-114442179D01*
X170031181Y-114447668D01*
X170021748Y-114454739D01*
X170010043Y-114463566D01*
X170006959Y-114465896D01*
X169988298Y-114480012D01*
X169971809Y-114492540D01*
X169957038Y-114503836D01*
X169943532Y-114514253D01*
X169930837Y-114524148D01*
X169918499Y-114533873D01*
X169906064Y-114543785D01*
X169893079Y-114554238D01*
X169879089Y-114565587D01*
X169870342Y-114572715D01*
X169851150Y-114588304D01*
X169834178Y-114601919D01*
X169819178Y-114613728D01*
X169805905Y-114623900D01*
X169794111Y-114632601D01*
X169783551Y-114640000D01*
X169773976Y-114646264D01*
X169765142Y-114651561D01*
X169756800Y-114656060D01*
X169748705Y-114659927D01*
X169740610Y-114663331D01*
X169732961Y-114666194D01*
X169718534Y-114670589D01*
X169703989Y-114673663D01*
X169689932Y-114675370D01*
X169676970Y-114675662D01*
X169665707Y-114674492D01*
X169657238Y-114672030D01*
X169647611Y-114666195D01*
X169640114Y-114657961D01*
X169634823Y-114647471D01*
X169631815Y-114634866D01*
X169631104Y-114623808D01*
X169631405Y-114615563D01*
X169632315Y-114604633D01*
X169633845Y-114590936D01*
X169636006Y-114574392D01*
X169638808Y-114554916D01*
X169642263Y-114532428D01*
X169646381Y-114506846D01*
X169647418Y-114500543D01*
X169650445Y-114481891D01*
X169652869Y-114466184D01*
X169654723Y-114453165D01*
X169656043Y-114442575D01*
X169656862Y-114434157D01*
X169657213Y-114427652D01*
X169657232Y-114426024D01*
X169657159Y-114419450D01*
X169656963Y-114414319D01*
X169656678Y-114411351D01*
X169656501Y-114410900D01*
X169655032Y-114411774D01*
X169651119Y-114414276D01*
X169645039Y-114418226D01*
X169637067Y-114423442D01*
X169627479Y-114429744D01*
X169616550Y-114436951D01*
X169604557Y-114444882D01*
X169594622Y-114451466D01*
X169581414Y-114460176D01*
X169568555Y-114468558D01*
X169556403Y-114476385D01*
X169545315Y-114483432D01*
X169535649Y-114489471D01*
X169527761Y-114494278D01*
X169522009Y-114497626D01*
X169519712Y-114498850D01*
X169504514Y-114505288D01*
X169490772Y-114508826D01*
X169478497Y-114509464D01*
X169467700Y-114507203D01*
X169458390Y-114502043D01*
X169452713Y-114496647D01*
X169448973Y-114491250D01*
X169445262Y-114483663D01*
X169441546Y-114473756D01*
X169437792Y-114461399D01*
X169433969Y-114446463D01*
X169430043Y-114428816D01*
X169425982Y-114408329D01*
X169421752Y-114384872D01*
X169417321Y-114358315D01*
X169416376Y-114352425D01*
X169414386Y-114340251D01*
X169412416Y-114328780D01*
X169410560Y-114318513D01*
X169408911Y-114309953D01*
X169407562Y-114303600D01*
X169406607Y-114299955D01*
X169406580Y-114299878D01*
X169402364Y-114291279D01*
X169396757Y-114285604D01*
X169389606Y-114282773D01*
X169380763Y-114282705D01*
X169375989Y-114283603D01*
X169371103Y-114285081D01*
X169363406Y-114287831D01*
X169353065Y-114291785D01*
X169340247Y-114296872D01*
X169325118Y-114303025D01*
X169307846Y-114310174D01*
X169288597Y-114318250D01*
X169267538Y-114327183D01*
X169244836Y-114336905D01*
X169220657Y-114347346D01*
X169195169Y-114358438D01*
X169189622Y-114360862D01*
X169173873Y-114367296D01*
X169160373Y-114371718D01*
X169148778Y-114374101D01*
X169138745Y-114374420D01*
X169129929Y-114372647D01*
X169121986Y-114368757D01*
X169114572Y-114362722D01*
X169107357Y-114354534D01*
X169105428Y-114352033D01*
X169103577Y-114349542D01*
X169101678Y-114346839D01*
X169099604Y-114343706D01*
X169097227Y-114339922D01*
X169094420Y-114335269D01*
X169091055Y-114329525D01*
X169087006Y-114322472D01*
X169082145Y-114313889D01*
X169076344Y-114303557D01*
X169069477Y-114291256D01*
X169061417Y-114276766D01*
X169052035Y-114259867D01*
X169041204Y-114240339D01*
X169040701Y-114239433D01*
X169024022Y-114209410D01*
X169008330Y-114181280D01*
X168993678Y-114155137D01*
X168980119Y-114131073D01*
X168967706Y-114109179D01*
X168956493Y-114089550D01*
X168946531Y-114072277D01*
X168937874Y-114057453D01*
X168930576Y-114045171D01*
X168924689Y-114035523D01*
X168920266Y-114028602D01*
X168918329Y-114025786D01*
X168915064Y-114021438D01*
X168910423Y-114015500D01*
X168904749Y-114008388D01*
X168898387Y-114000520D01*
X168891680Y-113992313D01*
X168884973Y-113984184D01*
X168878610Y-113976549D01*
X168872935Y-113969827D01*
X168868291Y-113964434D01*
X168865023Y-113960788D01*
X168863521Y-113959330D01*
X168861105Y-113959128D01*
X168856991Y-113959784D01*
X168855865Y-113960066D01*
X168849704Y-113961725D01*
X168851580Y-114005494D01*
X168852168Y-114018122D01*
X168852833Y-114030570D01*
X168853535Y-114042192D01*
X168854232Y-114052342D01*
X168854884Y-114060375D01*
X168855332Y-114064738D01*
X168856467Y-114072504D01*
X168858362Y-114083371D01*
X168861000Y-114097269D01*
X168864369Y-114114124D01*
X168868451Y-114133867D01*
X168873233Y-114156425D01*
X168878700Y-114181727D01*
X168884837Y-114209701D01*
X168891628Y-114240275D01*
X168895646Y-114258212D01*
X168902246Y-114287606D01*
X168908168Y-114314015D01*
X168913453Y-114337645D01*
X168918140Y-114358697D01*
X168922269Y-114377375D01*
X168925880Y-114393881D01*
X168929013Y-114408419D01*
X168931707Y-114421191D01*
X168934003Y-114432401D01*
X168935939Y-114442251D01*
X168937557Y-114450945D01*
X168938895Y-114458685D01*
X168939993Y-114465674D01*
X168940892Y-114472116D01*
X168941631Y-114478213D01*
X168942250Y-114484169D01*
X168942788Y-114490186D01*
X168943286Y-114496467D01*
X168943784Y-114503215D01*
X168943838Y-114503969D01*
X168944556Y-114514459D01*
X168944963Y-114522436D01*
X168945045Y-114528641D01*
X168944783Y-114533815D01*
X168944162Y-114538698D01*
X168943165Y-114544030D01*
X168942908Y-114545268D01*
X168941451Y-114551962D01*
X168940229Y-114556199D01*
X168938822Y-114558720D01*
X168936811Y-114560268D01*
X168933777Y-114561586D01*
X168933655Y-114561634D01*
X168927315Y-114564124D01*
X168883477Y-114507517D01*
X168870181Y-114490328D01*
X168858613Y-114475320D01*
X168848483Y-114462105D01*
X168839501Y-114450295D01*
X168831377Y-114439503D01*
X168823822Y-114429340D01*
X168816545Y-114419418D01*
X168809257Y-114409351D01*
X168801667Y-114398750D01*
X168793487Y-114387228D01*
X168791750Y-114384771D01*
X168779964Y-114368651D01*
X168769371Y-114355352D01*
X168759826Y-114344720D01*
X168751183Y-114336598D01*
X168743296Y-114330830D01*
X168739446Y-114328710D01*
X168732780Y-114325940D01*
X168725236Y-114323542D01*
X168717426Y-114321617D01*
X168709962Y-114320265D01*
X168703456Y-114319586D01*
X168698521Y-114319680D01*
X168695769Y-114320648D01*
X168695403Y-114321492D01*
X168695715Y-114324319D01*
X168696641Y-114328667D01*
X168698226Y-114334674D01*
X168700518Y-114342478D01*
X168703560Y-114352217D01*
X168707399Y-114364030D01*
X168712081Y-114378053D01*
X168717650Y-114394425D01*
X168724154Y-114413285D01*
X168731637Y-114434770D01*
X168740144Y-114459019D01*
X168749723Y-114486169D01*
X168751691Y-114491734D01*
X168759433Y-114513616D01*
X168767266Y-114535762D01*
X168775065Y-114557819D01*
X168782706Y-114579434D01*
X168790064Y-114600253D01*
X168797013Y-114619924D01*
X168803430Y-114638092D01*
X168809189Y-114654405D01*
X168814166Y-114668509D01*
X168818235Y-114680052D01*
X168819778Y-114684431D01*
X168825103Y-114699548D01*
X168830806Y-114715726D01*
X168836616Y-114732196D01*
X168842263Y-114748190D01*
X168847474Y-114762940D01*
X168851980Y-114775679D01*
X168853496Y-114779962D01*
X168867667Y-114819971D01*
X168867365Y-114840958D01*
X168867180Y-114848917D01*
X168866890Y-114855647D01*
X168866532Y-114860501D01*
X168866145Y-114862830D01*
X168866089Y-114862919D01*
X168863991Y-114863076D01*
X168859403Y-114862347D01*
X168852933Y-114860892D01*
X168845187Y-114858870D01*
X168836769Y-114856438D01*
X168828287Y-114853757D01*
X168820346Y-114850985D01*
X168819830Y-114850793D01*
X168794410Y-114839897D01*
X168769786Y-114826432D01*
X168745486Y-114810128D01*
X168733759Y-114801183D01*
X168725662Y-114794453D01*
X168716918Y-114786546D01*
X168707351Y-114777275D01*
X168696785Y-114766453D01*
X168685043Y-114753893D01*
X168671949Y-114739408D01*
X168657327Y-114722811D01*
X168641001Y-114703916D01*
X168630638Y-114691779D01*
X168613596Y-114671760D01*
X168598491Y-114654057D01*
X168585159Y-114638490D01*
X168573434Y-114624876D01*
X168563152Y-114613034D01*
X168554147Y-114602782D01*
X168546254Y-114593937D01*
X168539308Y-114586318D01*
X168533144Y-114579743D01*
X168527596Y-114574031D01*
X168522500Y-114568999D01*
X168517690Y-114564466D01*
X168513001Y-114560249D01*
X168508268Y-114556167D01*
X168504946Y-114553381D01*
X168497699Y-114547424D01*
X168491275Y-114542273D01*
X168486110Y-114538266D01*
X168482636Y-114535739D01*
X168481336Y-114535009D01*
X168480244Y-114536420D01*
X168479825Y-114539557D01*
X168479564Y-114542716D01*
X168478845Y-114548412D01*
X168477764Y-114555962D01*
X168476416Y-114564683D01*
X168475657Y-114569359D01*
X168473397Y-114583621D01*
X168471798Y-114595356D01*
X168470840Y-114605232D01*
X168470499Y-114613917D01*
X168470752Y-114622077D01*
X168471578Y-114630380D01*
X168472954Y-114639492D01*
X168473238Y-114641156D01*
X168475331Y-114653093D01*
X168477995Y-114668045D01*
X168481195Y-114685818D01*
X168484895Y-114706218D01*
X168489059Y-114729049D01*
X168493652Y-114754119D01*
X168498637Y-114781233D01*
X168503978Y-114810196D01*
X168509641Y-114840814D01*
X168515588Y-114872894D01*
X168521785Y-114906241D01*
X168528195Y-114940660D01*
X168534783Y-114975959D01*
X168541513Y-115011941D01*
X168548348Y-115048414D01*
X168548382Y-115048594D01*
X168555803Y-115088296D01*
X168562634Y-115125144D01*
X168568869Y-115159107D01*
X168574503Y-115190155D01*
X168579531Y-115218259D01*
X168583948Y-115243387D01*
X168587749Y-115265510D01*
X168590928Y-115284598D01*
X168593481Y-115300621D01*
X168595401Y-115313548D01*
X168596684Y-115323350D01*
X168597324Y-115329995D01*
X168597402Y-115332088D01*
X168597120Y-115334137D01*
X168595716Y-115334961D01*
X168592356Y-115334814D01*
X168589645Y-115334451D01*
X168561760Y-115329282D01*
X168534566Y-115321930D01*
X168508608Y-115312596D01*
X168484435Y-115301482D01*
X168462592Y-115288790D01*
X168458849Y-115286284D01*
X168440750Y-115272881D01*
X168424612Y-115258656D01*
X168409633Y-115242828D01*
X168395010Y-115224616D01*
X168393841Y-115223045D01*
X168388211Y-115215183D01*
X168381366Y-115205219D01*
X168373763Y-115193855D01*
X168365859Y-115181793D01*
X168358113Y-115169736D01*
X168350982Y-115158387D01*
X168344923Y-115148448D01*
X168341911Y-115143309D01*
X168328249Y-115121532D01*
X168313560Y-115102290D01*
X168297293Y-115085004D01*
X168278898Y-115069093D01*
X168257826Y-115053977D01*
X168256412Y-115053048D01*
X168250451Y-115049294D01*
X168243405Y-115045076D01*
X168235865Y-115040721D01*
X168228423Y-115036557D01*
X168221669Y-115032912D01*
X168216194Y-115030113D01*
X168212589Y-115028488D01*
X168211601Y-115028213D01*
X168211388Y-115029795D01*
X168211186Y-115034368D01*
X168210999Y-115041659D01*
X168210831Y-115051393D01*
X168210684Y-115063297D01*
X168210563Y-115077095D01*
X168210469Y-115092514D01*
X168210406Y-115109278D01*
X168210378Y-115127115D01*
X168210376Y-115131878D01*
X168210358Y-115149949D01*
X168210304Y-115167019D01*
X168210217Y-115182813D01*
X168210102Y-115197059D01*
X168209962Y-115209481D01*
X168209799Y-115219806D01*
X168209617Y-115227758D01*
X168209418Y-115233064D01*
X168209208Y-115235449D01*
X168209152Y-115235557D01*
X168206843Y-115235047D01*
X168202277Y-115233722D01*
X168196278Y-115231852D01*
X168189669Y-115229704D01*
X168183274Y-115227548D01*
X168177917Y-115225650D01*
X168174422Y-115224280D01*
X168174137Y-115224150D01*
X168171814Y-115222226D01*
X168167741Y-115217926D01*
X168162112Y-115211496D01*
X168155122Y-115203185D01*
X168146965Y-115193238D01*
X168137837Y-115181904D01*
X168127931Y-115169430D01*
X168117442Y-115156063D01*
X168106566Y-115142051D01*
X168095496Y-115127639D01*
X168084427Y-115113077D01*
X168073554Y-115098610D01*
X168063072Y-115084487D01*
X168053175Y-115070955D01*
X168049021Y-115065203D01*
X168038050Y-115050092D01*
X168028581Y-115037585D01*
X168020297Y-115027577D01*
X168012883Y-115019959D01*
X168006022Y-115014624D01*
X167999395Y-115011466D01*
X167992688Y-115010376D01*
X167985582Y-115011248D01*
X167977761Y-115013974D01*
X167968908Y-115018447D01*
X167958707Y-115024561D01*
X167948444Y-115031158D01*
X167936340Y-115038599D01*
X167925928Y-115043902D01*
X167916623Y-115047276D01*
X167907843Y-115048928D01*
X167899006Y-115049066D01*
X167898291Y-115049019D01*
X167889189Y-115047557D01*
X167880674Y-115044362D01*
X167872432Y-115039181D01*
X167864149Y-115031760D01*
X167855510Y-115021847D01*
X167846201Y-115009187D01*
X167843021Y-115004503D01*
X167826479Y-114978367D01*
X167811284Y-114951407D01*
X167797205Y-114923131D01*
X167784011Y-114893045D01*
X167771472Y-114860660D01*
X167759958Y-114827320D01*
X167743041Y-114772401D01*
X167727441Y-114715022D01*
X167713272Y-114655756D01*
X167700646Y-114595179D01*
X167689677Y-114533867D01*
X167680479Y-114472394D01*
X167673164Y-114411335D01*
X167668903Y-114365175D01*
X167668048Y-114352331D01*
X167667293Y-114336779D01*
X167666644Y-114319079D01*
X167666109Y-114299787D01*
X167665694Y-114279463D01*
X167665406Y-114258664D01*
X167665252Y-114237948D01*
X167665239Y-114217872D01*
X167665372Y-114198995D01*
X167665660Y-114181875D01*
X167666109Y-114167069D01*
X167666420Y-114160231D01*
X167672458Y-114070710D01*
X167681155Y-113981339D01*
X167692555Y-113891839D01*
X167706702Y-113801930D01*
X167723639Y-113711329D01*
X167743409Y-113619757D01*
X167761553Y-113544582D01*
X167788018Y-113446071D01*
X167817238Y-113349283D01*
X167849248Y-113254132D01*
X167884080Y-113160536D01*
X167921770Y-113068410D01*
X167962352Y-112977669D01*
X168005859Y-112888230D01*
X168052325Y-112800009D01*
X168091970Y-112729705D01*
X168143602Y-112644004D01*
X168197738Y-112560397D01*
X168254384Y-112478880D01*
X168313542Y-112399449D01*
X168375217Y-112322097D01*
X168439413Y-112246822D01*
X168506134Y-112173617D01*
X168575384Y-112102478D01*
X168647167Y-112033400D01*
X168721487Y-111966378D01*
X168772444Y-111922839D01*
X168849082Y-111860859D01*
X168927564Y-111801544D01*
X169007823Y-111744935D01*
X169089789Y-111691072D01*
X169173396Y-111639997D01*
X169258576Y-111591753D01*
X169345261Y-111546379D01*
X169433382Y-111503917D01*
X169522873Y-111464409D01*
X169526591Y-111462845D01*
X169605426Y-111431075D01*
X169685703Y-111401410D01*
X169767577Y-111373808D01*
X169851198Y-111348229D01*
X169936720Y-111324631D01*
X170024295Y-111302975D01*
X170114075Y-111283219D01*
X170206214Y-111265323D01*
X170300863Y-111249246D01*
X170359431Y-111240382D01*
X170424126Y-111231391D01*
X170487597Y-111223327D01*
X170550452Y-111216132D01*
X170613304Y-111209750D01*
X170676762Y-111204124D01*
X170741436Y-111199197D01*
X170807937Y-111194911D01*
X170876876Y-111191211D01*
X170897511Y-111190235D01*
X170908765Y-111189813D01*
X170922914Y-111189437D01*
X170939620Y-111189108D01*
X170958540Y-111188826D01*
X170979337Y-111188590D01*
X171001668Y-111188401D01*
X171025195Y-111188259D01*
X171049577Y-111188163D01*
X171074474Y-111188113D01*
X171099545Y-111188110D01*
X171124450Y-111188154D01*
X171148850Y-111188244D01*
X171172404Y-111188381D01*
X171194772Y-111188565D01*
X171215614Y-111188795D01*
X171234589Y-111189072D01*
X171251358Y-111189395D01*
X171265580Y-111189765D01*
X171276915Y-111190182D01*
X171278005Y-111190232D01*
X171362598Y-111194779D01*
X171444427Y-111200305D01*
X171523862Y-111206853D01*
X171601270Y-111214471D01*
X171677019Y-111223203D01*
X171751475Y-111233095D01*
X171825007Y-111244193D01*
X171897983Y-111256541D01*
X171970770Y-111270186D01*
X172041150Y-111284619D01*
X172137497Y-111306245D01*
X172230986Y-111329365D01*
X172321673Y-111354001D01*
X172409615Y-111380173D01*
X172494869Y-111407901D01*
X172577490Y-111437208D01*
X172657536Y-111468112D01*
X172735062Y-111500635D01*
X172810125Y-111534798D01*
X172882782Y-111570621D01*
X172953088Y-111608124D01*
X173003291Y-111636769D01*
X173028591Y-111651823D01*
X173055106Y-111668003D01*
X173082998Y-111685416D01*
X173112427Y-111704166D01*
X173143554Y-111724358D01*
X173176540Y-111746097D01*
X173211546Y-111769488D01*
X173248734Y-111794634D01*
X173288264Y-111821642D01*
X173306217Y-111833988D01*
X173331042Y-111851087D01*
X173353479Y-111866531D01*
X173373825Y-111880521D01*
X173392377Y-111893259D01*
X173409435Y-111904947D01*
X173425294Y-111915786D01*
X173440254Y-111925979D01*
X173454613Y-111935728D01*
X173468666Y-111945233D01*
X173482714Y-111954697D01*
X173497052Y-111964322D01*
X173511980Y-111974310D01*
X173527795Y-111984862D01*
X173544794Y-111996180D01*
X173563276Y-112008466D01*
X173582197Y-112021032D01*
X173618007Y-112044764D01*
X173651268Y-112066713D01*
X173682115Y-112086955D01*
X173710681Y-112105568D01*
X173737101Y-112122629D01*
X173761511Y-112138215D01*
X173784044Y-112152404D01*
X173804836Y-112165274D01*
X173824020Y-112176900D01*
X173841732Y-112187362D01*
X173858105Y-112196736D01*
X173873275Y-112205099D01*
X173887376Y-112212529D01*
X173900542Y-112219103D01*
X173912909Y-112224898D01*
X173924611Y-112229992D01*
X173935782Y-112234463D01*
X173946557Y-112238386D01*
X173957070Y-112241841D01*
X173967457Y-112244903D01*
X173975579Y-112247075D01*
X174009994Y-112254224D01*
X174044810Y-112258158D01*
X174079839Y-112258878D01*
X174114897Y-112256383D01*
X174149798Y-112250672D01*
X174162422Y-112247796D01*
X174192455Y-112239354D01*
X174222343Y-112228746D01*
X174252419Y-112215816D01*
X174283015Y-112200411D01*
X174314465Y-112182379D01*
X174342521Y-112164603D01*
X174362727Y-112150811D01*
X174380552Y-112137597D01*
X174396681Y-112124414D01*
X174411799Y-112110714D01*
X174419972Y-112102719D01*
X174437879Y-112083704D01*
X174454682Y-112063624D01*
X174470517Y-112042228D01*
X174485521Y-112019269D01*
X174499831Y-111994496D01*
X174513583Y-111967662D01*
X174526915Y-111938517D01*
X174539963Y-111906812D01*
X174552865Y-111872298D01*
X174563550Y-111841365D01*
X174583393Y-111777657D01*
X174600870Y-111712287D01*
X174616006Y-111645127D01*
X174628825Y-111576047D01*
X174639352Y-111504918D01*
X174647613Y-111431612D01*
X174651737Y-111383280D01*
X174653018Y-111365327D01*
X174654155Y-111347390D01*
X174655150Y-111329278D01*
X174656002Y-111310802D01*
X174656712Y-111291772D01*
X174657280Y-111271997D01*
X174657707Y-111251288D01*
X174657994Y-111229454D01*
X174658141Y-111206306D01*
X174658147Y-111181653D01*
X174658015Y-111155306D01*
X174657744Y-111127074D01*
X174657335Y-111096768D01*
X174656787Y-111064197D01*
X174656103Y-111029172D01*
X174655281Y-110991502D01*
X174654323Y-110950997D01*
X174653230Y-110907468D01*
X174652928Y-110895823D01*
X174652211Y-110868211D01*
X174651480Y-110839859D01*
X174650742Y-110811133D01*
X174650009Y-110782394D01*
X174649288Y-110754006D01*
X174648589Y-110726333D01*
X174647921Y-110699738D01*
X174647293Y-110674584D01*
X174646714Y-110651234D01*
X174646194Y-110630051D01*
X174645741Y-110611400D01*
X174645366Y-110595642D01*
X174645359Y-110595347D01*
X174644854Y-110573928D01*
X174644309Y-110550809D01*
X174643739Y-110526668D01*
X174643161Y-110502179D01*
X174642590Y-110478019D01*
X174642043Y-110454864D01*
X174641535Y-110433390D01*
X174641082Y-110414273D01*
X174640942Y-110408367D01*
X174640561Y-110390447D01*
X174640200Y-110369917D01*
X174639868Y-110347433D01*
X174639570Y-110323653D01*
X174639314Y-110299231D01*
X174639107Y-110274825D01*
X174638957Y-110251090D01*
X174638871Y-110228683D01*
X174638855Y-110218936D01*
X174638850Y-110195055D01*
X174638895Y-110174039D01*
X174639006Y-110155488D01*
X174639201Y-110139000D01*
X174639497Y-110124175D01*
X174639914Y-110110612D01*
X174640467Y-110097911D01*
X174641176Y-110085670D01*
X174642058Y-110073489D01*
X174643130Y-110060967D01*
X174644411Y-110047703D01*
X174645917Y-110033297D01*
X174647668Y-110017348D01*
X174647860Y-110015625D01*
X174654941Y-109959530D01*
X174663875Y-109901145D01*
X174674573Y-109840811D01*
X174686951Y-109778866D01*
X174700920Y-109715650D01*
X174716394Y-109651501D01*
X174733286Y-109586760D01*
X174751510Y-109521765D01*
X174770978Y-109456855D01*
X174791604Y-109392370D01*
X174813300Y-109328649D01*
X174835981Y-109266031D01*
X174847426Y-109235858D01*
X174863423Y-109195173D01*
X174880041Y-109154534D01*
X174897141Y-109114231D01*
X174914585Y-109074552D01*
X174932235Y-109035784D01*
X174949954Y-108998215D01*
X174967604Y-108962135D01*
X174985047Y-108927831D01*
X175002145Y-108895592D01*
X175018761Y-108865705D01*
X175034756Y-108838460D01*
X175046491Y-108819574D01*
X175071142Y-108782822D01*
X175096461Y-108748644D01*
X175122355Y-108717134D01*
X175148732Y-108688381D01*
X175175500Y-108662478D01*
X175202567Y-108639516D01*
X175229841Y-108619587D01*
X175257230Y-108602782D01*
X175272168Y-108594974D01*
X175302821Y-108581738D01*
X175334417Y-108571599D01*
X175366792Y-108564584D01*
X175399781Y-108560715D01*
X175433222Y-108560019D01*
X175466950Y-108562520D01*
G37*
G04 #@! TD*
M02*
