G04 #@! TF.GenerationSoftware,KiCad,Pcbnew,(6.0.5)*
G04 #@! TF.CreationDate,2022-08-23T23:34:12+02:00*
G04 #@! TF.ProjectId,backplane,6261636b-706c-4616-9e65-2e6b69636164,rev?*
G04 #@! TF.SameCoordinates,Original*
G04 #@! TF.FileFunction,Legend,Bot*
G04 #@! TF.FilePolarity,Positive*
%FSLAX46Y46*%
G04 Gerber Fmt 4.6, Leading zero omitted, Abs format (unit mm)*
G04 Created by KiCad (PCBNEW (6.0.5)) date 2022-08-23 23:34:12*
%MOMM*%
%LPD*%
G01*
G04 APERTURE LIST*
%ADD10C,0.300000*%
%ADD11C,0.150000*%
%ADD12C,0.120000*%
G04 APERTURE END LIST*
D10*
X395557142Y-67722714D02*
X393042857Y-67722714D01*
X394300000Y-68979857D02*
X394300000Y-66465571D01*
X395557142Y-73035714D02*
X393042857Y-73035714D01*
X396657142Y-79605857D02*
X396657142Y-76305857D01*
X395400000Y-76305857D01*
X395085714Y-76463000D01*
X394928571Y-76620142D01*
X394771428Y-76934428D01*
X394771428Y-77405857D01*
X394928571Y-77720142D01*
X395085714Y-77877285D01*
X395400000Y-78034428D01*
X396657142Y-78034428D01*
X393357142Y-77877285D02*
X392257142Y-77877285D01*
X391785714Y-79605857D02*
X393357142Y-79605857D01*
X393357142Y-76305857D01*
X391785714Y-76305857D01*
D11*
G04 #@! TO.C,JP104*
X331785714Y-87652380D02*
X331785714Y-88366666D01*
X331833333Y-88509523D01*
X331928571Y-88604761D01*
X332071428Y-88652380D01*
X332166666Y-88652380D01*
X331309523Y-88652380D02*
X331309523Y-87652380D01*
X330928571Y-87652380D01*
X330833333Y-87700000D01*
X330785714Y-87747619D01*
X330738095Y-87842857D01*
X330738095Y-87985714D01*
X330785714Y-88080952D01*
X330833333Y-88128571D01*
X330928571Y-88176190D01*
X331309523Y-88176190D01*
X329785714Y-88652380D02*
X330357142Y-88652380D01*
X330071428Y-88652380D02*
X330071428Y-87652380D01*
X330166666Y-87795238D01*
X330261904Y-87890476D01*
X330357142Y-87938095D01*
X329166666Y-87652380D02*
X329071428Y-87652380D01*
X328976190Y-87700000D01*
X328928571Y-87747619D01*
X328880952Y-87842857D01*
X328833333Y-88033333D01*
X328833333Y-88271428D01*
X328880952Y-88461904D01*
X328928571Y-88557142D01*
X328976190Y-88604761D01*
X329071428Y-88652380D01*
X329166666Y-88652380D01*
X329261904Y-88604761D01*
X329309523Y-88557142D01*
X329357142Y-88461904D01*
X329404761Y-88271428D01*
X329404761Y-88033333D01*
X329357142Y-87842857D01*
X329309523Y-87747619D01*
X329261904Y-87700000D01*
X329166666Y-87652380D01*
X327976190Y-87985714D02*
X327976190Y-88652380D01*
X328214285Y-87604761D02*
X328452380Y-88319047D01*
X327833333Y-88319047D01*
G04 #@! TO.C,R101*
X26206547Y-105102380D02*
X26539880Y-104626190D01*
X26777976Y-105102380D02*
X26777976Y-104102380D01*
X26397023Y-104102380D01*
X26301785Y-104150000D01*
X26254166Y-104197619D01*
X26206547Y-104292857D01*
X26206547Y-104435714D01*
X26254166Y-104530952D01*
X26301785Y-104578571D01*
X26397023Y-104626190D01*
X26777976Y-104626190D01*
X25254166Y-105102380D02*
X25825595Y-105102380D01*
X25539880Y-105102380D02*
X25539880Y-104102380D01*
X25635119Y-104245238D01*
X25730357Y-104340476D01*
X25825595Y-104388095D01*
X24635119Y-104102380D02*
X24539880Y-104102380D01*
X24444642Y-104150000D01*
X24397023Y-104197619D01*
X24349404Y-104292857D01*
X24301785Y-104483333D01*
X24301785Y-104721428D01*
X24349404Y-104911904D01*
X24397023Y-105007142D01*
X24444642Y-105054761D01*
X24539880Y-105102380D01*
X24635119Y-105102380D01*
X24730357Y-105054761D01*
X24777976Y-105007142D01*
X24825595Y-104911904D01*
X24873214Y-104721428D01*
X24873214Y-104483333D01*
X24825595Y-104292857D01*
X24777976Y-104197619D01*
X24730357Y-104150000D01*
X24635119Y-104102380D01*
X23349404Y-105102380D02*
X23920833Y-105102380D01*
X23635119Y-105102380D02*
X23635119Y-104102380D01*
X23730357Y-104245238D01*
X23825595Y-104340476D01*
X23920833Y-104388095D01*
G04 #@! TO.C,R104*
X331119047Y-105102380D02*
X331452380Y-104626190D01*
X331690476Y-105102380D02*
X331690476Y-104102380D01*
X331309523Y-104102380D01*
X331214285Y-104150000D01*
X331166666Y-104197619D01*
X331119047Y-104292857D01*
X331119047Y-104435714D01*
X331166666Y-104530952D01*
X331214285Y-104578571D01*
X331309523Y-104626190D01*
X331690476Y-104626190D01*
X330166666Y-105102380D02*
X330738095Y-105102380D01*
X330452380Y-105102380D02*
X330452380Y-104102380D01*
X330547619Y-104245238D01*
X330642857Y-104340476D01*
X330738095Y-104388095D01*
X329547619Y-104102380D02*
X329452380Y-104102380D01*
X329357142Y-104150000D01*
X329309523Y-104197619D01*
X329261904Y-104292857D01*
X329214285Y-104483333D01*
X329214285Y-104721428D01*
X329261904Y-104911904D01*
X329309523Y-105007142D01*
X329357142Y-105054761D01*
X329452380Y-105102380D01*
X329547619Y-105102380D01*
X329642857Y-105054761D01*
X329690476Y-105007142D01*
X329738095Y-104911904D01*
X329785714Y-104721428D01*
X329785714Y-104483333D01*
X329738095Y-104292857D01*
X329690476Y-104197619D01*
X329642857Y-104150000D01*
X329547619Y-104102380D01*
X328357142Y-104435714D02*
X328357142Y-105102380D01*
X328595238Y-104054761D02*
X328833333Y-104769047D01*
X328214285Y-104769047D01*
G04 #@! TO.C,R103*
X230119047Y-105102380D02*
X230452380Y-104626190D01*
X230690476Y-105102380D02*
X230690476Y-104102380D01*
X230309523Y-104102380D01*
X230214285Y-104150000D01*
X230166666Y-104197619D01*
X230119047Y-104292857D01*
X230119047Y-104435714D01*
X230166666Y-104530952D01*
X230214285Y-104578571D01*
X230309523Y-104626190D01*
X230690476Y-104626190D01*
X229166666Y-105102380D02*
X229738095Y-105102380D01*
X229452380Y-105102380D02*
X229452380Y-104102380D01*
X229547619Y-104245238D01*
X229642857Y-104340476D01*
X229738095Y-104388095D01*
X228547619Y-104102380D02*
X228452380Y-104102380D01*
X228357142Y-104150000D01*
X228309523Y-104197619D01*
X228261904Y-104292857D01*
X228214285Y-104483333D01*
X228214285Y-104721428D01*
X228261904Y-104911904D01*
X228309523Y-105007142D01*
X228357142Y-105054761D01*
X228452380Y-105102380D01*
X228547619Y-105102380D01*
X228642857Y-105054761D01*
X228690476Y-105007142D01*
X228738095Y-104911904D01*
X228785714Y-104721428D01*
X228785714Y-104483333D01*
X228738095Y-104292857D01*
X228690476Y-104197619D01*
X228642857Y-104150000D01*
X228547619Y-104102380D01*
X227880952Y-104102380D02*
X227261904Y-104102380D01*
X227595238Y-104483333D01*
X227452380Y-104483333D01*
X227357142Y-104530952D01*
X227309523Y-104578571D01*
X227261904Y-104673809D01*
X227261904Y-104911904D01*
X227309523Y-105007142D01*
X227357142Y-105054761D01*
X227452380Y-105102380D01*
X227738095Y-105102380D01*
X227833333Y-105054761D01*
X227880952Y-105007142D01*
G04 #@! TO.C,JP103*
X229785714Y-87652380D02*
X229785714Y-88366666D01*
X229833333Y-88509523D01*
X229928571Y-88604761D01*
X230071428Y-88652380D01*
X230166666Y-88652380D01*
X229309523Y-88652380D02*
X229309523Y-87652380D01*
X228928571Y-87652380D01*
X228833333Y-87700000D01*
X228785714Y-87747619D01*
X228738095Y-87842857D01*
X228738095Y-87985714D01*
X228785714Y-88080952D01*
X228833333Y-88128571D01*
X228928571Y-88176190D01*
X229309523Y-88176190D01*
X227785714Y-88652380D02*
X228357142Y-88652380D01*
X228071428Y-88652380D02*
X228071428Y-87652380D01*
X228166666Y-87795238D01*
X228261904Y-87890476D01*
X228357142Y-87938095D01*
X227166666Y-87652380D02*
X227071428Y-87652380D01*
X226976190Y-87700000D01*
X226928571Y-87747619D01*
X226880952Y-87842857D01*
X226833333Y-88033333D01*
X226833333Y-88271428D01*
X226880952Y-88461904D01*
X226928571Y-88557142D01*
X226976190Y-88604761D01*
X227071428Y-88652380D01*
X227166666Y-88652380D01*
X227261904Y-88604761D01*
X227309523Y-88557142D01*
X227357142Y-88461904D01*
X227404761Y-88271428D01*
X227404761Y-88033333D01*
X227357142Y-87842857D01*
X227309523Y-87747619D01*
X227261904Y-87700000D01*
X227166666Y-87652380D01*
X226500000Y-87652380D02*
X225880952Y-87652380D01*
X226214285Y-88033333D01*
X226071428Y-88033333D01*
X225976190Y-88080952D01*
X225928571Y-88128571D01*
X225880952Y-88223809D01*
X225880952Y-88461904D01*
X225928571Y-88557142D01*
X225976190Y-88604761D01*
X226071428Y-88652380D01*
X226357142Y-88652380D01*
X226452380Y-88604761D01*
X226500000Y-88557142D01*
G04 #@! TO.C,R102*
X128119047Y-105102380D02*
X128452380Y-104626190D01*
X128690476Y-105102380D02*
X128690476Y-104102380D01*
X128309523Y-104102380D01*
X128214285Y-104150000D01*
X128166666Y-104197619D01*
X128119047Y-104292857D01*
X128119047Y-104435714D01*
X128166666Y-104530952D01*
X128214285Y-104578571D01*
X128309523Y-104626190D01*
X128690476Y-104626190D01*
X127166666Y-105102380D02*
X127738095Y-105102380D01*
X127452380Y-105102380D02*
X127452380Y-104102380D01*
X127547619Y-104245238D01*
X127642857Y-104340476D01*
X127738095Y-104388095D01*
X126547619Y-104102380D02*
X126452380Y-104102380D01*
X126357142Y-104150000D01*
X126309523Y-104197619D01*
X126261904Y-104292857D01*
X126214285Y-104483333D01*
X126214285Y-104721428D01*
X126261904Y-104911904D01*
X126309523Y-105007142D01*
X126357142Y-105054761D01*
X126452380Y-105102380D01*
X126547619Y-105102380D01*
X126642857Y-105054761D01*
X126690476Y-105007142D01*
X126738095Y-104911904D01*
X126785714Y-104721428D01*
X126785714Y-104483333D01*
X126738095Y-104292857D01*
X126690476Y-104197619D01*
X126642857Y-104150000D01*
X126547619Y-104102380D01*
X125833333Y-104197619D02*
X125785714Y-104150000D01*
X125690476Y-104102380D01*
X125452380Y-104102380D01*
X125357142Y-104150000D01*
X125309523Y-104197619D01*
X125261904Y-104292857D01*
X125261904Y-104388095D01*
X125309523Y-104530952D01*
X125880952Y-105102380D01*
X125261904Y-105102380D01*
G04 #@! TO.C,JP102*
X128785714Y-87652380D02*
X128785714Y-88366666D01*
X128833333Y-88509523D01*
X128928571Y-88604761D01*
X129071428Y-88652380D01*
X129166666Y-88652380D01*
X128309523Y-88652380D02*
X128309523Y-87652380D01*
X127928571Y-87652380D01*
X127833333Y-87700000D01*
X127785714Y-87747619D01*
X127738095Y-87842857D01*
X127738095Y-87985714D01*
X127785714Y-88080952D01*
X127833333Y-88128571D01*
X127928571Y-88176190D01*
X128309523Y-88176190D01*
X126785714Y-88652380D02*
X127357142Y-88652380D01*
X127071428Y-88652380D02*
X127071428Y-87652380D01*
X127166666Y-87795238D01*
X127261904Y-87890476D01*
X127357142Y-87938095D01*
X126166666Y-87652380D02*
X126071428Y-87652380D01*
X125976190Y-87700000D01*
X125928571Y-87747619D01*
X125880952Y-87842857D01*
X125833333Y-88033333D01*
X125833333Y-88271428D01*
X125880952Y-88461904D01*
X125928571Y-88557142D01*
X125976190Y-88604761D01*
X126071428Y-88652380D01*
X126166666Y-88652380D01*
X126261904Y-88604761D01*
X126309523Y-88557142D01*
X126357142Y-88461904D01*
X126404761Y-88271428D01*
X126404761Y-88033333D01*
X126357142Y-87842857D01*
X126309523Y-87747619D01*
X126261904Y-87700000D01*
X126166666Y-87652380D01*
X125452380Y-87747619D02*
X125404761Y-87700000D01*
X125309523Y-87652380D01*
X125071428Y-87652380D01*
X124976190Y-87700000D01*
X124928571Y-87747619D01*
X124880952Y-87842857D01*
X124880952Y-87938095D01*
X124928571Y-88080952D01*
X125500000Y-88652380D01*
X124880952Y-88652380D01*
G04 #@! TO.C,J110*
X401452380Y-52214285D02*
X402166666Y-52214285D01*
X402309523Y-52166666D01*
X402404761Y-52071428D01*
X402452380Y-51928571D01*
X402452380Y-51833333D01*
X402452380Y-53214285D02*
X402452380Y-52642857D01*
X402452380Y-52928571D02*
X401452380Y-52928571D01*
X401595238Y-52833333D01*
X401690476Y-52738095D01*
X401738095Y-52642857D01*
X402452380Y-54166666D02*
X402452380Y-53595238D01*
X402452380Y-53880952D02*
X401452380Y-53880952D01*
X401595238Y-53785714D01*
X401690476Y-53690476D01*
X401738095Y-53595238D01*
X401452380Y-54785714D02*
X401452380Y-54880952D01*
X401500000Y-54976190D01*
X401547619Y-55023809D01*
X401642857Y-55071428D01*
X401833333Y-55119047D01*
X402071428Y-55119047D01*
X402261904Y-55071428D01*
X402357142Y-55023809D01*
X402404761Y-54976190D01*
X402452380Y-54880952D01*
X402452380Y-54785714D01*
X402404761Y-54690476D01*
X402357142Y-54642857D01*
X402261904Y-54595238D01*
X402071428Y-54547619D01*
X401833333Y-54547619D01*
X401642857Y-54595238D01*
X401547619Y-54642857D01*
X401500000Y-54690476D01*
X401452380Y-54785714D01*
G04 #@! TO.C,J109*
X414172380Y-72214285D02*
X414886666Y-72214285D01*
X415029523Y-72166666D01*
X415124761Y-72071428D01*
X415172380Y-71928571D01*
X415172380Y-71833333D01*
X415172380Y-73214285D02*
X415172380Y-72642857D01*
X415172380Y-72928571D02*
X414172380Y-72928571D01*
X414315238Y-72833333D01*
X414410476Y-72738095D01*
X414458095Y-72642857D01*
X414172380Y-73833333D02*
X414172380Y-73928571D01*
X414220000Y-74023809D01*
X414267619Y-74071428D01*
X414362857Y-74119047D01*
X414553333Y-74166666D01*
X414791428Y-74166666D01*
X414981904Y-74119047D01*
X415077142Y-74071428D01*
X415124761Y-74023809D01*
X415172380Y-73928571D01*
X415172380Y-73833333D01*
X415124761Y-73738095D01*
X415077142Y-73690476D01*
X414981904Y-73642857D01*
X414791428Y-73595238D01*
X414553333Y-73595238D01*
X414362857Y-73642857D01*
X414267619Y-73690476D01*
X414220000Y-73738095D01*
X414172380Y-73833333D01*
X415172380Y-74642857D02*
X415172380Y-74833333D01*
X415124761Y-74928571D01*
X415077142Y-74976190D01*
X414934285Y-75071428D01*
X414743809Y-75119047D01*
X414362857Y-75119047D01*
X414267619Y-75071428D01*
X414220000Y-75023809D01*
X414172380Y-74928571D01*
X414172380Y-74738095D01*
X414220000Y-74642857D01*
X414267619Y-74595238D01*
X414362857Y-74547619D01*
X414600952Y-74547619D01*
X414696190Y-74595238D01*
X414743809Y-74642857D01*
X414791428Y-74738095D01*
X414791428Y-74928571D01*
X414743809Y-75023809D01*
X414696190Y-75071428D01*
X414600952Y-75119047D01*
G04 #@! TO.C,JP105*
X408052380Y-59814285D02*
X408766666Y-59814285D01*
X408909523Y-59766666D01*
X409004761Y-59671428D01*
X409052380Y-59528571D01*
X409052380Y-59433333D01*
X409052380Y-60290476D02*
X408052380Y-60290476D01*
X408052380Y-60671428D01*
X408100000Y-60766666D01*
X408147619Y-60814285D01*
X408242857Y-60861904D01*
X408385714Y-60861904D01*
X408480952Y-60814285D01*
X408528571Y-60766666D01*
X408576190Y-60671428D01*
X408576190Y-60290476D01*
X409052380Y-61814285D02*
X409052380Y-61242857D01*
X409052380Y-61528571D02*
X408052380Y-61528571D01*
X408195238Y-61433333D01*
X408290476Y-61338095D01*
X408338095Y-61242857D01*
X408052380Y-62433333D02*
X408052380Y-62528571D01*
X408100000Y-62623809D01*
X408147619Y-62671428D01*
X408242857Y-62719047D01*
X408433333Y-62766666D01*
X408671428Y-62766666D01*
X408861904Y-62719047D01*
X408957142Y-62671428D01*
X409004761Y-62623809D01*
X409052380Y-62528571D01*
X409052380Y-62433333D01*
X409004761Y-62338095D01*
X408957142Y-62290476D01*
X408861904Y-62242857D01*
X408671428Y-62195238D01*
X408433333Y-62195238D01*
X408242857Y-62242857D01*
X408147619Y-62290476D01*
X408100000Y-62338095D01*
X408052380Y-62433333D01*
X408052380Y-63671428D02*
X408052380Y-63195238D01*
X408528571Y-63147619D01*
X408480952Y-63195238D01*
X408433333Y-63290476D01*
X408433333Y-63528571D01*
X408480952Y-63623809D01*
X408528571Y-63671428D01*
X408623809Y-63719047D01*
X408861904Y-63719047D01*
X408957142Y-63671428D01*
X409004761Y-63623809D01*
X409052380Y-63528571D01*
X409052380Y-63290476D01*
X409004761Y-63195238D01*
X408957142Y-63147619D01*
G04 #@! TO.C,J112*
X339285714Y-98452380D02*
X339285714Y-99166666D01*
X339333333Y-99309523D01*
X339428571Y-99404761D01*
X339571428Y-99452380D01*
X339666666Y-99452380D01*
X338285714Y-99452380D02*
X338857142Y-99452380D01*
X338571428Y-99452380D02*
X338571428Y-98452380D01*
X338666666Y-98595238D01*
X338761904Y-98690476D01*
X338857142Y-98738095D01*
X337333333Y-99452380D02*
X337904761Y-99452380D01*
X337619047Y-99452380D02*
X337619047Y-98452380D01*
X337714285Y-98595238D01*
X337809523Y-98690476D01*
X337904761Y-98738095D01*
X336952380Y-98547619D02*
X336904761Y-98500000D01*
X336809523Y-98452380D01*
X336571428Y-98452380D01*
X336476190Y-98500000D01*
X336428571Y-98547619D01*
X336380952Y-98642857D01*
X336380952Y-98738095D01*
X336428571Y-98880952D01*
X337000000Y-99452380D01*
X336380952Y-99452380D01*
G04 #@! TO.C,JP101*
X27135714Y-87652380D02*
X27135714Y-88366666D01*
X27183333Y-88509523D01*
X27278571Y-88604761D01*
X27421428Y-88652380D01*
X27516666Y-88652380D01*
X26659523Y-88652380D02*
X26659523Y-87652380D01*
X26278571Y-87652380D01*
X26183333Y-87700000D01*
X26135714Y-87747619D01*
X26088095Y-87842857D01*
X26088095Y-87985714D01*
X26135714Y-88080952D01*
X26183333Y-88128571D01*
X26278571Y-88176190D01*
X26659523Y-88176190D01*
X25135714Y-88652380D02*
X25707142Y-88652380D01*
X25421428Y-88652380D02*
X25421428Y-87652380D01*
X25516666Y-87795238D01*
X25611904Y-87890476D01*
X25707142Y-87938095D01*
X24516666Y-87652380D02*
X24421428Y-87652380D01*
X24326190Y-87700000D01*
X24278571Y-87747619D01*
X24230952Y-87842857D01*
X24183333Y-88033333D01*
X24183333Y-88271428D01*
X24230952Y-88461904D01*
X24278571Y-88557142D01*
X24326190Y-88604761D01*
X24421428Y-88652380D01*
X24516666Y-88652380D01*
X24611904Y-88604761D01*
X24659523Y-88557142D01*
X24707142Y-88461904D01*
X24754761Y-88271428D01*
X24754761Y-88033333D01*
X24707142Y-87842857D01*
X24659523Y-87747619D01*
X24611904Y-87700000D01*
X24516666Y-87652380D01*
X23230952Y-88652380D02*
X23802380Y-88652380D01*
X23516666Y-88652380D02*
X23516666Y-87652380D01*
X23611904Y-87795238D01*
X23707142Y-87890476D01*
X23802380Y-87938095D01*
G04 #@! TO.C,J111*
X339285714Y-102452380D02*
X339285714Y-103166666D01*
X339333333Y-103309523D01*
X339428571Y-103404761D01*
X339571428Y-103452380D01*
X339666666Y-103452380D01*
X338285714Y-103452380D02*
X338857142Y-103452380D01*
X338571428Y-103452380D02*
X338571428Y-102452380D01*
X338666666Y-102595238D01*
X338761904Y-102690476D01*
X338857142Y-102738095D01*
X337333333Y-103452380D02*
X337904761Y-103452380D01*
X337619047Y-103452380D02*
X337619047Y-102452380D01*
X337714285Y-102595238D01*
X337809523Y-102690476D01*
X337904761Y-102738095D01*
X336380952Y-103452380D02*
X336952380Y-103452380D01*
X336666666Y-103452380D02*
X336666666Y-102452380D01*
X336761904Y-102595238D01*
X336857142Y-102690476D01*
X336952380Y-102738095D01*
D12*
G04 #@! TO.C,JP104*
X328600000Y-89700000D02*
X328600000Y-90300000D01*
X331400000Y-90300000D02*
X331400000Y-89700000D01*
X330700000Y-89000000D02*
X329300000Y-89000000D01*
X329300000Y-91000000D02*
X330700000Y-91000000D01*
X328600000Y-90300000D02*
G75*
G03*
X329300000Y-91000000I700000J0D01*
G01*
X330700000Y-91000000D02*
G75*
G03*
X331400000Y-90300000I1J699999D01*
G01*
X331400000Y-89700000D02*
G75*
G03*
X330700000Y-89000000I-699999J1D01*
G01*
X329300000Y-89000000D02*
G75*
G03*
X328600000Y-89700000I0J-700000D01*
G01*
G04 #@! TO.C,R101*
X24860436Y-102265000D02*
X25314564Y-102265000D01*
X24860436Y-103735000D02*
X25314564Y-103735000D01*
G04 #@! TO.C,R104*
X329772936Y-102265000D02*
X330227064Y-102265000D01*
X329772936Y-103735000D02*
X330227064Y-103735000D01*
G04 #@! TO.C,R103*
X228772936Y-102265000D02*
X229227064Y-102265000D01*
X228772936Y-103735000D02*
X229227064Y-103735000D01*
G04 #@! TO.C,JP103*
X229400000Y-90300000D02*
X229400000Y-89700000D01*
X227300000Y-91000000D02*
X228700000Y-91000000D01*
X228700000Y-89000000D02*
X227300000Y-89000000D01*
X226600000Y-89700000D02*
X226600000Y-90300000D01*
X228700000Y-91000000D02*
G75*
G03*
X229400000Y-90300000I1J699999D01*
G01*
X229400000Y-89700000D02*
G75*
G03*
X228700000Y-89000000I-699999J1D01*
G01*
X227300000Y-89000000D02*
G75*
G03*
X226600000Y-89700000I0J-700000D01*
G01*
X226600000Y-90300000D02*
G75*
G03*
X227300000Y-91000000I700000J0D01*
G01*
G04 #@! TO.C,R102*
X126772936Y-102265000D02*
X127227064Y-102265000D01*
X126772936Y-103735000D02*
X127227064Y-103735000D01*
G04 #@! TO.C,JP102*
X127700000Y-89000000D02*
X126300000Y-89000000D01*
X125600000Y-89700000D02*
X125600000Y-90300000D01*
X128400000Y-90300000D02*
X128400000Y-89700000D01*
X126300000Y-91000000D02*
X127700000Y-91000000D01*
X125600000Y-90300000D02*
G75*
G03*
X126300000Y-91000000I700000J0D01*
G01*
X126300000Y-89000000D02*
G75*
G03*
X125600000Y-89700000I0J-700000D01*
G01*
X127700000Y-91000000D02*
G75*
G03*
X128400000Y-90300000I1J699999D01*
G01*
X128400000Y-89700000D02*
G75*
G03*
X127700000Y-89000000I-699999J1D01*
G01*
G04 #@! TO.C,J110*
X402800000Y-49400000D02*
X402800000Y-48150000D01*
X402800000Y-48150000D02*
X404050000Y-48150000D01*
X405350000Y-49200000D02*
X408300000Y-49200000D01*
X403100000Y-58550000D02*
X403100000Y-56750000D01*
X405350000Y-58550000D02*
X405350000Y-57800000D01*
X403100000Y-48450000D02*
X403850000Y-48450000D01*
X408300000Y-49200000D02*
X408300000Y-53500000D01*
X405350000Y-57800000D02*
X408300000Y-57800000D01*
X403090000Y-58560000D02*
X403090000Y-48440000D01*
X403850000Y-48450000D02*
X403850000Y-50250000D01*
X409060000Y-58560000D02*
X403090000Y-58560000D01*
X408300000Y-57800000D02*
X408300000Y-53500000D01*
X403090000Y-48440000D02*
X409060000Y-48440000D01*
X403100000Y-55250000D02*
X403100000Y-51750000D01*
X405350000Y-48450000D02*
X405350000Y-49200000D01*
X403100000Y-50250000D02*
X403100000Y-48450000D01*
X403850000Y-56750000D02*
X403850000Y-58550000D01*
X403850000Y-51750000D02*
X403850000Y-55250000D01*
X409060000Y-48440000D02*
X409060000Y-58560000D01*
X403850000Y-55250000D02*
X403100000Y-55250000D01*
X403850000Y-58550000D02*
X403100000Y-58550000D01*
X403850000Y-50250000D02*
X403100000Y-50250000D01*
X403100000Y-51750000D02*
X403850000Y-51750000D01*
X403100000Y-56750000D02*
X403850000Y-56750000D01*
G04 #@! TO.C,J109*
X413720000Y-75250000D02*
X412280000Y-75250000D01*
X403320000Y-75250000D02*
X398480000Y-75250000D01*
X413720000Y-80250000D02*
X407280000Y-80250000D01*
X405800000Y-75750000D02*
X404800000Y-75750000D01*
X408320000Y-70250000D02*
X407280000Y-70250000D01*
X405800000Y-70750000D02*
X404800000Y-70750000D01*
X398480000Y-81870000D02*
X398480000Y-65130000D01*
X401500000Y-81870000D02*
X401500000Y-65130000D01*
X413720000Y-81870000D02*
X413720000Y-65130000D01*
X407500000Y-65750000D02*
X403100000Y-65750000D01*
X403320000Y-69750000D02*
X403100000Y-69750000D01*
X407500000Y-75750000D02*
X403100000Y-75750000D01*
X403320000Y-74750000D02*
X403100000Y-74750000D01*
X413720000Y-70250000D02*
X412280000Y-70250000D01*
X407500000Y-79750000D02*
X407500000Y-75750000D01*
X407500000Y-69750000D02*
X407280000Y-69750000D01*
X403320000Y-80250000D02*
X398480000Y-80250000D01*
X404800000Y-67520000D02*
X404800000Y-65750000D01*
X407500000Y-79750000D02*
X407280000Y-79750000D01*
X403100000Y-79750000D02*
X403100000Y-75750000D01*
X403100000Y-69750000D02*
X403100000Y-65750000D01*
X403100000Y-74750000D02*
X403100000Y-70750000D01*
X408320000Y-75250000D02*
X407280000Y-75250000D01*
X405800000Y-65750000D02*
X404800000Y-65750000D01*
X407500000Y-74750000D02*
X407500000Y-70750000D01*
X400480000Y-82110000D02*
X398240000Y-82110000D01*
X407500000Y-70750000D02*
X403100000Y-70750000D01*
X413720000Y-81870000D02*
X398480000Y-81870000D01*
X407500000Y-74750000D02*
X407280000Y-74750000D01*
X403320000Y-79750000D02*
X403100000Y-79750000D01*
X405800000Y-77520000D02*
X405800000Y-75750000D01*
X413720000Y-65130000D02*
X412280000Y-65130000D01*
X404800000Y-72520000D02*
X404800000Y-70750000D01*
X398240000Y-82110000D02*
X398240000Y-80110000D01*
X405800000Y-67520000D02*
X405800000Y-65750000D01*
X404800000Y-77520000D02*
X404800000Y-75750000D01*
X407500000Y-69750000D02*
X407500000Y-65750000D01*
X408320000Y-65130000D02*
X398480000Y-65130000D01*
X403320000Y-70250000D02*
X398480000Y-70250000D01*
X405800000Y-72520000D02*
X405800000Y-70750000D01*
X400049576Y-74200865D02*
G75*
G03*
X400049000Y-71299000I-339576J1450865D01*
G01*
X409564067Y-77959202D02*
G75*
G03*
X412279000Y-76889000I1485933J209202D01*
G01*
X400049576Y-79200865D02*
G75*
G03*
X400049000Y-76299000I-339576J1450865D01*
G01*
X409564067Y-72959202D02*
G75*
G03*
X412279000Y-71889000I1485933J209202D01*
G01*
X400050000Y-71300000D02*
G75*
G03*
X400049867Y-74199969I339000J-1450000D01*
G01*
X400050000Y-76300000D02*
G75*
G03*
X400049867Y-79199969I339000J-1450000D01*
G01*
X400049576Y-69200865D02*
G75*
G03*
X400049000Y-66299000I-339576J1450865D01*
G01*
X409564067Y-67959202D02*
G75*
G03*
X412279000Y-66889000I1485933J209202D01*
G01*
X400050000Y-66300000D02*
G75*
G03*
X400049867Y-69199969I339000J-1450000D01*
G01*
G04 #@! TO.C,JP105*
X407800000Y-62300000D02*
X407800000Y-60900000D01*
X405800000Y-60900000D02*
X405800000Y-62300000D01*
X407100000Y-60200000D02*
X406500000Y-60200000D01*
X406500000Y-63000000D02*
X407100000Y-63000000D01*
X407100000Y-63000000D02*
G75*
G03*
X407800000Y-62300000I1J699999D01*
G01*
X407800000Y-60900000D02*
G75*
G03*
X407100000Y-60200000I-700000J0D01*
G01*
X406500000Y-60200000D02*
G75*
G03*
X405800000Y-60900000I0J-700000D01*
G01*
X405800000Y-62300000D02*
G75*
G03*
X406500000Y-63000000I699999J-1D01*
G01*
G04 #@! TO.C,JP101*
X23950000Y-89700000D02*
X23950000Y-90300000D01*
X24650000Y-91000000D02*
X26050000Y-91000000D01*
X26050000Y-89000000D02*
X24650000Y-89000000D01*
X26750000Y-90300000D02*
X26750000Y-89700000D01*
X24650000Y-89000000D02*
G75*
G03*
X23950000Y-89700000I0J-700000D01*
G01*
X26050000Y-91000000D02*
G75*
G03*
X26750000Y-90300000I1J699999D01*
G01*
X23950000Y-90300000D02*
G75*
G03*
X24650000Y-91000000I700000J0D01*
G01*
X26750000Y-89700000D02*
G75*
G03*
X26050000Y-89000000I-699999J1D01*
G01*
G04 #@! TD*
M02*
