G04 #@! TF.GenerationSoftware,KiCad,Pcbnew,(6.0.5)*
G04 #@! TF.CreationDate,2022-08-23T23:34:12+02:00*
G04 #@! TF.ProjectId,backplane,6261636b-706c-4616-9e65-2e6b69636164,rev?*
G04 #@! TF.SameCoordinates,Original*
G04 #@! TF.FileFunction,Soldermask,Bot*
G04 #@! TF.FilePolarity,Negative*
%FSLAX46Y46*%
G04 Gerber Fmt 4.6, Leading zero omitted, Abs format (unit mm)*
G04 Created by KiCad (PCBNEW (6.0.5)) date 2022-08-23 23:34:12*
%MOMM*%
%LPD*%
G01*
G04 APERTURE LIST*
G04 Aperture macros list*
%AMRoundRect*
0 Rectangle with rounded corners*
0 $1 Rounding radius*
0 $2 $3 $4 $5 $6 $7 $8 $9 X,Y pos of 4 corners*
0 Add a 4 corners polygon primitive as box body*
4,1,4,$2,$3,$4,$5,$6,$7,$8,$9,$2,$3,0*
0 Add four circle primitives for the rounded corners*
1,1,$1+$1,$2,$3*
1,1,$1+$1,$4,$5*
1,1,$1+$1,$6,$7*
1,1,$1+$1,$8,$9*
0 Add four rect primitives between the rounded corners*
20,1,$1+$1,$2,$3,$4,$5,0*
20,1,$1+$1,$4,$5,$6,$7,0*
20,1,$1+$1,$6,$7,$8,$9,0*
20,1,$1+$1,$8,$9,$2,$3,0*%
%AMFreePoly0*
4,1,22,0.500000,-0.750000,0.000000,-0.750000,0.000000,-0.745033,-0.079941,-0.743568,-0.215256,-0.701293,-0.333266,-0.622738,-0.424486,-0.514219,-0.481581,-0.384460,-0.499164,-0.250000,-0.500000,-0.250000,-0.500000,0.250000,-0.499164,0.250000,-0.499963,0.256109,-0.478152,0.396186,-0.417904,0.524511,-0.324060,0.630769,-0.204165,0.706417,-0.067858,0.745374,0.000000,0.744959,0.000000,0.750000,
0.500000,0.750000,0.500000,-0.750000,0.500000,-0.750000,$1*%
%AMFreePoly1*
4,1,20,0.000000,0.744959,0.073905,0.744508,0.209726,0.703889,0.328688,0.626782,0.421226,0.519385,0.479903,0.390333,0.500000,0.250000,0.500000,-0.250000,0.499851,-0.262216,0.476331,-0.402017,0.414519,-0.529596,0.319384,-0.634700,0.198574,-0.708877,0.061801,-0.746166,0.000000,-0.745033,0.000000,-0.750000,-0.500000,-0.750000,-0.500000,0.750000,0.000000,0.750000,0.000000,0.744959,
0.000000,0.744959,$1*%
G04 Aperture macros list end*
%ADD10C,2.850000*%
%ADD11RoundRect,0.249999X-0.525001X-0.525001X0.525001X-0.525001X0.525001X0.525001X-0.525001X0.525001X0*%
%ADD12C,1.550000*%
%ADD13C,5.000000*%
%ADD14FreePoly0,180.000000*%
%ADD15FreePoly1,180.000000*%
%ADD16RoundRect,0.250000X-0.262500X-0.450000X0.262500X-0.450000X0.262500X0.450000X-0.262500X0.450000X0*%
%ADD17RoundRect,0.250000X-0.725000X0.600000X-0.725000X-0.600000X0.725000X-0.600000X0.725000X0.600000X0*%
%ADD18O,1.950000X1.700000*%
%ADD19R,3.000000X2.000000*%
%ADD20O,3.000000X2.000000*%
%ADD21FreePoly0,90.000000*%
%ADD22FreePoly1,90.000000*%
%ADD23RoundRect,0.250001X0.799999X0.799999X-0.799999X0.799999X-0.799999X-0.799999X0.799999X-0.799999X0*%
G04 APERTURE END LIST*
D10*
G04 #@! TO.C,J106*
X281230000Y-19300000D03*
X281230000Y-109300000D03*
D11*
X278990000Y-27470000D03*
D12*
X278990000Y-32550000D03*
X278990000Y-37630000D03*
X278990000Y-42710000D03*
X278990000Y-47790000D03*
X278990000Y-52870000D03*
X278990000Y-57950000D03*
X278990000Y-63030000D03*
X278990000Y-68110000D03*
X278990000Y-73190000D03*
X278990000Y-78270000D03*
X278990000Y-83350000D03*
X278990000Y-88430000D03*
X278990000Y-93510000D03*
X278990000Y-98590000D03*
X278990000Y-103670000D03*
X284070000Y-27470000D03*
X284070000Y-32550000D03*
X284070000Y-37630000D03*
X284070000Y-42710000D03*
X284070000Y-47790000D03*
X284070000Y-52870000D03*
X284070000Y-57950000D03*
X284070000Y-63030000D03*
X284070000Y-68110000D03*
X284070000Y-73190000D03*
X284070000Y-78270000D03*
X284070000Y-83350000D03*
X284070000Y-88430000D03*
X284070000Y-93510000D03*
X284070000Y-98590000D03*
X284070000Y-103670000D03*
G04 #@! TD*
D13*
G04 #@! TO.C,H104*
X418390000Y-125600000D03*
G04 #@! TD*
D10*
G04 #@! TO.C,J104*
X179630000Y-19300000D03*
X179630000Y-109300000D03*
D11*
X177390000Y-27470000D03*
D12*
X177390000Y-32550000D03*
X177390000Y-37630000D03*
X177390000Y-42710000D03*
X177390000Y-47790000D03*
X177390000Y-52870000D03*
X177390000Y-57950000D03*
X177390000Y-63030000D03*
X177390000Y-68110000D03*
X177390000Y-73190000D03*
X177390000Y-78270000D03*
X177390000Y-83350000D03*
X177390000Y-88430000D03*
X177390000Y-93510000D03*
X177390000Y-98590000D03*
X177390000Y-103670000D03*
X182470000Y-27470000D03*
X182470000Y-32550000D03*
X182470000Y-37630000D03*
X182470000Y-42710000D03*
X182470000Y-47790000D03*
X182470000Y-52870000D03*
X182470000Y-57950000D03*
X182470000Y-63030000D03*
X182470000Y-68110000D03*
X182470000Y-73190000D03*
X182470000Y-78270000D03*
X182470000Y-83350000D03*
X182470000Y-88430000D03*
X182470000Y-93510000D03*
X182470000Y-98590000D03*
X182470000Y-103670000D03*
G04 #@! TD*
D13*
G04 #@! TO.C,H107*
X144070000Y-125600000D03*
G04 #@! TD*
D10*
G04 #@! TO.C,J108*
X382830000Y-19300000D03*
X382830000Y-109300000D03*
D11*
X380590000Y-27470000D03*
D12*
X380590000Y-32550000D03*
X380590000Y-37630000D03*
X380590000Y-42710000D03*
X380590000Y-47790000D03*
X380590000Y-52870000D03*
X380590000Y-57950000D03*
X380590000Y-63030000D03*
X380590000Y-68110000D03*
X380590000Y-73190000D03*
X380590000Y-78270000D03*
X380590000Y-83350000D03*
X380590000Y-88430000D03*
X380590000Y-93510000D03*
X380590000Y-98590000D03*
X380590000Y-103670000D03*
X385670000Y-27470000D03*
X385670000Y-32550000D03*
X385670000Y-37630000D03*
X385670000Y-42710000D03*
X385670000Y-47790000D03*
X385670000Y-52870000D03*
X385670000Y-57950000D03*
X385670000Y-63030000D03*
X385670000Y-68110000D03*
X385670000Y-73190000D03*
X385670000Y-78270000D03*
X385670000Y-83350000D03*
X385670000Y-88430000D03*
X385670000Y-93510000D03*
X385670000Y-98590000D03*
X385670000Y-103670000D03*
G04 #@! TD*
D13*
G04 #@! TO.C,H106*
X6910000Y-125600000D03*
G04 #@! TD*
D10*
G04 #@! TO.C,J103*
X118670000Y-109300000D03*
X118670000Y-19300000D03*
D11*
X116430000Y-27470000D03*
D12*
X116430000Y-32550000D03*
X116430000Y-37630000D03*
X116430000Y-42710000D03*
X116430000Y-47790000D03*
X116430000Y-52870000D03*
X116430000Y-57950000D03*
X116430000Y-63030000D03*
X116430000Y-68110000D03*
X116430000Y-73190000D03*
X116430000Y-78270000D03*
X116430000Y-83350000D03*
X116430000Y-88430000D03*
X116430000Y-93510000D03*
X116430000Y-98590000D03*
X116430000Y-103670000D03*
X121510000Y-27470000D03*
X121510000Y-32550000D03*
X121510000Y-37630000D03*
X121510000Y-42710000D03*
X121510000Y-47790000D03*
X121510000Y-52870000D03*
X121510000Y-57950000D03*
X121510000Y-63030000D03*
X121510000Y-68110000D03*
X121510000Y-73190000D03*
X121510000Y-78270000D03*
X121510000Y-83350000D03*
X121510000Y-88430000D03*
X121510000Y-93510000D03*
X121510000Y-98590000D03*
X121510000Y-103670000D03*
G04 #@! TD*
D10*
G04 #@! TO.C,J105*
X220270000Y-109300000D03*
X220270000Y-19300000D03*
D11*
X218030000Y-27470000D03*
D12*
X218030000Y-32550000D03*
X218030000Y-37630000D03*
X218030000Y-42710000D03*
X218030000Y-47790000D03*
X218030000Y-52870000D03*
X218030000Y-57950000D03*
X218030000Y-63030000D03*
X218030000Y-68110000D03*
X218030000Y-73190000D03*
X218030000Y-78270000D03*
X218030000Y-83350000D03*
X218030000Y-88430000D03*
X218030000Y-93510000D03*
X218030000Y-98590000D03*
X218030000Y-103670000D03*
X223110000Y-27470000D03*
X223110000Y-32550000D03*
X223110000Y-37630000D03*
X223110000Y-42710000D03*
X223110000Y-47790000D03*
X223110000Y-52870000D03*
X223110000Y-57950000D03*
X223110000Y-63030000D03*
X223110000Y-68110000D03*
X223110000Y-73190000D03*
X223110000Y-78270000D03*
X223110000Y-83350000D03*
X223110000Y-88430000D03*
X223110000Y-93510000D03*
X223110000Y-98590000D03*
X223110000Y-103670000D03*
G04 #@! TD*
D13*
G04 #@! TO.C,H103*
X281230000Y-3100000D03*
G04 #@! TD*
D10*
G04 #@! TO.C,J101*
X17070000Y-19300000D03*
X17070000Y-109300000D03*
D11*
X14830000Y-27470000D03*
D12*
X14830000Y-32550000D03*
X14830000Y-37630000D03*
X14830000Y-42710000D03*
X14830000Y-47790000D03*
X14830000Y-52870000D03*
X14830000Y-57950000D03*
X14830000Y-63030000D03*
X14830000Y-68110000D03*
X14830000Y-73190000D03*
X14830000Y-78270000D03*
X14830000Y-83350000D03*
X14830000Y-88430000D03*
X14830000Y-93510000D03*
X14830000Y-98590000D03*
X14830000Y-103670000D03*
X19910000Y-27470000D03*
X19910000Y-32550000D03*
X19910000Y-37630000D03*
X19910000Y-42710000D03*
X19910000Y-47790000D03*
X19910000Y-52870000D03*
X19910000Y-57950000D03*
X19910000Y-63030000D03*
X19910000Y-68110000D03*
X19910000Y-73190000D03*
X19910000Y-78270000D03*
X19910000Y-83350000D03*
X19910000Y-88430000D03*
X19910000Y-93510000D03*
X19910000Y-98590000D03*
X19910000Y-103670000D03*
G04 #@! TD*
D13*
G04 #@! TO.C,H102*
X6910000Y-3100000D03*
G04 #@! TD*
G04 #@! TO.C,H101*
X144070000Y-3100000D03*
G04 #@! TD*
G04 #@! TO.C,H105*
X281230000Y-125600000D03*
G04 #@! TD*
G04 #@! TO.C,H108*
X418390000Y-3100000D03*
G04 #@! TD*
D10*
G04 #@! TO.C,J107*
X321870000Y-19300000D03*
X321870000Y-109300000D03*
D11*
X319630000Y-27470000D03*
D12*
X319630000Y-32550000D03*
X319630000Y-37630000D03*
X319630000Y-42710000D03*
X319630000Y-47790000D03*
X319630000Y-52870000D03*
X319630000Y-57950000D03*
X319630000Y-63030000D03*
X319630000Y-68110000D03*
X319630000Y-73190000D03*
X319630000Y-78270000D03*
X319630000Y-83350000D03*
X319630000Y-88430000D03*
X319630000Y-93510000D03*
X319630000Y-98590000D03*
X319630000Y-103670000D03*
X324710000Y-27470000D03*
X324710000Y-32550000D03*
X324710000Y-37630000D03*
X324710000Y-42710000D03*
X324710000Y-47790000D03*
X324710000Y-52870000D03*
X324710000Y-57950000D03*
X324710000Y-63030000D03*
X324710000Y-68110000D03*
X324710000Y-73190000D03*
X324710000Y-78270000D03*
X324710000Y-83350000D03*
X324710000Y-88430000D03*
X324710000Y-93510000D03*
X324710000Y-98590000D03*
X324710000Y-103670000D03*
G04 #@! TD*
D10*
G04 #@! TO.C,J102*
X78030000Y-109300000D03*
X78030000Y-19300000D03*
D11*
X75790000Y-27470000D03*
D12*
X75790000Y-32550000D03*
X75790000Y-37630000D03*
X75790000Y-42710000D03*
X75790000Y-47790000D03*
X75790000Y-52870000D03*
X75790000Y-57950000D03*
X75790000Y-63030000D03*
X75790000Y-68110000D03*
X75790000Y-73190000D03*
X75790000Y-78270000D03*
X75790000Y-83350000D03*
X75790000Y-88430000D03*
X75790000Y-93510000D03*
X75790000Y-98590000D03*
X75790000Y-103670000D03*
X80870000Y-27470000D03*
X80870000Y-32550000D03*
X80870000Y-37630000D03*
X80870000Y-42710000D03*
X80870000Y-47790000D03*
X80870000Y-52870000D03*
X80870000Y-57950000D03*
X80870000Y-63030000D03*
X80870000Y-68110000D03*
X80870000Y-73190000D03*
X80870000Y-78270000D03*
X80870000Y-83350000D03*
X80870000Y-88430000D03*
X80870000Y-93510000D03*
X80870000Y-98590000D03*
X80870000Y-103670000D03*
G04 #@! TD*
D14*
G04 #@! TO.C,JP104*
X330650000Y-90000000D03*
D15*
X329350000Y-90000000D03*
G04 #@! TD*
D16*
G04 #@! TO.C,R101*
X24175000Y-103000000D03*
X26000000Y-103000000D03*
G04 #@! TD*
G04 #@! TO.C,R104*
X329087500Y-103000000D03*
X330912500Y-103000000D03*
G04 #@! TD*
G04 #@! TO.C,R103*
X228087500Y-103000000D03*
X229912500Y-103000000D03*
G04 #@! TD*
D14*
G04 #@! TO.C,JP103*
X228650000Y-90000000D03*
D15*
X227350000Y-90000000D03*
G04 #@! TD*
D16*
G04 #@! TO.C,R102*
X126087500Y-103000000D03*
X127912500Y-103000000D03*
G04 #@! TD*
D14*
G04 #@! TO.C,JP102*
X127650000Y-90000000D03*
D15*
X126350000Y-90000000D03*
G04 #@! TD*
D17*
G04 #@! TO.C,J110*
X405550000Y-51000000D03*
D18*
X405550000Y-53500000D03*
X405550000Y-56000000D03*
G04 #@! TD*
D19*
G04 #@! TO.C,J109*
X405300000Y-79000000D03*
X410300000Y-76500000D03*
D20*
X410300000Y-71500000D03*
X405300000Y-74000000D03*
X405300000Y-69000000D03*
X410300000Y-66500000D03*
G04 #@! TD*
D21*
G04 #@! TO.C,JP105*
X406800000Y-62250000D03*
D22*
X406800000Y-60950000D03*
G04 #@! TD*
D23*
G04 #@! TO.C,J112*
X334000000Y-98850000D03*
G04 #@! TD*
D14*
G04 #@! TO.C,JP101*
X26000000Y-90000000D03*
D15*
X24700000Y-90000000D03*
G04 #@! TD*
D23*
G04 #@! TO.C,J111*
X334000000Y-103000000D03*
G04 #@! TD*
M02*
