M48
; DRILL file {KiCad (6.0.5)} date Tue Aug 23 23:34:15 2022
; FORMAT={-:-/ absolute / inch / decimal}
; #@! TF.CreationDate,2022-08-23T23:34:15+02:00
; #@! TF.GenerationSoftware,Kicad,Pcbnew,(6.0.5)
; #@! TF.FileFunction,Plated,1,2,PTH
FMAT,2
INCH
; #@! TA.AperFunction,Plated,PTH,ComponentDrill
T1C0.0374
; #@! TA.AperFunction,Plated,PTH,ComponentDrill
T2C0.0394
; #@! TA.AperFunction,Plated,PTH,ComponentDrill
T3C0.0433
; #@! TA.AperFunction,Plated,PTH,ComponentDrill
T4C0.0472
; #@! TA.AperFunction,Plated,PTH,ComponentDrill
T5C0.0984
%
G90
G05
T1
X15.9665Y-2.0079
X15.9665Y-2.1063
X15.9665Y-2.2047
T2
X0.5839Y-1.0815
X0.5839Y-1.2815
X0.5839Y-1.4815
X0.5839Y-1.6815
X0.5839Y-1.8815
X0.5839Y-2.0815
X0.5839Y-2.2815
X0.5839Y-2.4815
X0.5839Y-2.6815
X0.5839Y-2.8815
X0.5839Y-3.0815
X0.5839Y-3.2815
X0.5839Y-3.4815
X0.5839Y-3.6815
X0.5839Y-3.8815
X0.5839Y-4.0815
X0.7839Y-1.0815
X0.7839Y-1.2815
X0.7839Y-1.4815
X0.7839Y-1.6815
X0.7839Y-1.8815
X0.7839Y-2.0815
X0.7839Y-2.2815
X0.7839Y-2.4815
X0.7839Y-2.6815
X0.7839Y-2.8815
X0.7839Y-3.0815
X0.7839Y-3.2815
X0.7839Y-3.4815
X0.7839Y-3.6815
X0.7839Y-3.8815
X0.7839Y-4.0815
X2.9839Y-1.0815
X2.9839Y-1.2815
X2.9839Y-1.4815
X2.9839Y-1.6815
X2.9839Y-1.8815
X2.9839Y-2.0815
X2.9839Y-2.2815
X2.9839Y-2.4815
X2.9839Y-2.6815
X2.9839Y-2.8815
X2.9839Y-3.0815
X2.9839Y-3.2815
X2.9839Y-3.4815
X2.9839Y-3.6815
X2.9839Y-3.8815
X2.9839Y-4.0815
X3.1839Y-1.0815
X3.1839Y-1.2815
X3.1839Y-1.4815
X3.1839Y-1.6815
X3.1839Y-1.8815
X3.1839Y-2.0815
X3.1839Y-2.2815
X3.1839Y-2.4815
X3.1839Y-2.6815
X3.1839Y-2.8815
X3.1839Y-3.0815
X3.1839Y-3.2815
X3.1839Y-3.4815
X3.1839Y-3.6815
X3.1839Y-3.8815
X3.1839Y-4.0815
X4.5839Y-1.0815
X4.5839Y-1.2815
X4.5839Y-1.4815
X4.5839Y-1.6815
X4.5839Y-1.8815
X4.5839Y-2.0815
X4.5839Y-2.2815
X4.5839Y-2.4815
X4.5839Y-2.6815
X4.5839Y-2.8815
X4.5839Y-3.0815
X4.5839Y-3.2815
X4.5839Y-3.4815
X4.5839Y-3.6815
X4.5839Y-3.8815
X4.5839Y-4.0815
X4.7839Y-1.0815
X4.7839Y-1.2815
X4.7839Y-1.4815
X4.7839Y-1.6815
X4.7839Y-1.8815
X4.7839Y-2.0815
X4.7839Y-2.2815
X4.7839Y-2.4815
X4.7839Y-2.6815
X4.7839Y-2.8815
X4.7839Y-3.0815
X4.7839Y-3.2815
X4.7839Y-3.4815
X4.7839Y-3.6815
X4.7839Y-3.8815
X4.7839Y-4.0815
X6.9839Y-1.0815
X6.9839Y-1.2815
X6.9839Y-1.4815
X6.9839Y-1.6815
X6.9839Y-1.8815
X6.9839Y-2.0815
X6.9839Y-2.2815
X6.9839Y-2.4815
X6.9839Y-2.6815
X6.9839Y-2.8815
X6.9839Y-3.0815
X6.9839Y-3.2815
X6.9839Y-3.4815
X6.9839Y-3.6815
X6.9839Y-3.8815
X6.9839Y-4.0815
X7.1839Y-1.0815
X7.1839Y-1.2815
X7.1839Y-1.4815
X7.1839Y-1.6815
X7.1839Y-1.8815
X7.1839Y-2.0815
X7.1839Y-2.2815
X7.1839Y-2.4815
X7.1839Y-2.6815
X7.1839Y-2.8815
X7.1839Y-3.0815
X7.1839Y-3.2815
X7.1839Y-3.4815
X7.1839Y-3.6815
X7.1839Y-3.8815
X7.1839Y-4.0815
X8.5839Y-1.0815
X8.5839Y-1.2815
X8.5839Y-1.4815
X8.5839Y-1.6815
X8.5839Y-1.8815
X8.5839Y-2.0815
X8.5839Y-2.2815
X8.5839Y-2.4815
X8.5839Y-2.6815
X8.5839Y-2.8815
X8.5839Y-3.0815
X8.5839Y-3.2815
X8.5839Y-3.4815
X8.5839Y-3.6815
X8.5839Y-3.8815
X8.5839Y-4.0815
X8.7839Y-1.0815
X8.7839Y-1.2815
X8.7839Y-1.4815
X8.7839Y-1.6815
X8.7839Y-1.8815
X8.7839Y-2.0815
X8.7839Y-2.2815
X8.7839Y-2.4815
X8.7839Y-2.6815
X8.7839Y-2.8815
X8.7839Y-3.0815
X8.7839Y-3.2815
X8.7839Y-3.4815
X8.7839Y-3.6815
X8.7839Y-3.8815
X8.7839Y-4.0815
X10.9839Y-1.0815
X10.9839Y-1.2815
X10.9839Y-1.4815
X10.9839Y-1.6815
X10.9839Y-1.8815
X10.9839Y-2.0815
X10.9839Y-2.2815
X10.9839Y-2.4815
X10.9839Y-2.6815
X10.9839Y-2.8815
X10.9839Y-3.0815
X10.9839Y-3.2815
X10.9839Y-3.4815
X10.9839Y-3.6815
X10.9839Y-3.8815
X10.9839Y-4.0815
X11.1839Y-1.0815
X11.1839Y-1.2815
X11.1839Y-1.4815
X11.1839Y-1.6815
X11.1839Y-1.8815
X11.1839Y-2.0815
X11.1839Y-2.2815
X11.1839Y-2.4815
X11.1839Y-2.6815
X11.1839Y-2.8815
X11.1839Y-3.0815
X11.1839Y-3.2815
X11.1839Y-3.4815
X11.1839Y-3.6815
X11.1839Y-3.8815
X11.1839Y-4.0815
X12.5839Y-1.0815
X12.5839Y-1.2815
X12.5839Y-1.4815
X12.5839Y-1.6815
X12.5839Y-1.8815
X12.5839Y-2.0815
X12.5839Y-2.2815
X12.5839Y-2.4815
X12.5839Y-2.6815
X12.5839Y-2.8815
X12.5839Y-3.0815
X12.5839Y-3.2815
X12.5839Y-3.4815
X12.5839Y-3.6815
X12.5839Y-3.8815
X12.5839Y-4.0815
X12.7839Y-1.0815
X12.7839Y-1.2815
X12.7839Y-1.4815
X12.7839Y-1.6815
X12.7839Y-1.8815
X12.7839Y-2.0815
X12.7839Y-2.2815
X12.7839Y-2.4815
X12.7839Y-2.6815
X12.7839Y-2.8815
X12.7839Y-3.0815
X12.7839Y-3.2815
X12.7839Y-3.4815
X12.7839Y-3.6815
X12.7839Y-3.8815
X12.7839Y-4.0815
X14.9839Y-1.0815
X14.9839Y-1.2815
X14.9839Y-1.4815
X14.9839Y-1.6815
X14.9839Y-1.8815
X14.9839Y-2.0815
X14.9839Y-2.2815
X14.9839Y-2.4815
X14.9839Y-2.6815
X14.9839Y-2.8815
X14.9839Y-3.0815
X14.9839Y-3.2815
X14.9839Y-3.4815
X14.9839Y-3.6815
X14.9839Y-3.8815
X14.9839Y-4.0815
X15.1839Y-1.0815
X15.1839Y-1.2815
X15.1839Y-1.4815
X15.1839Y-1.6815
X15.1839Y-1.8815
X15.1839Y-2.0815
X15.1839Y-2.2815
X15.1839Y-2.4815
X15.1839Y-2.6815
X15.1839Y-2.8815
X15.1839Y-3.0815
X15.1839Y-3.2815
X15.1839Y-3.4815
X15.1839Y-3.6815
X15.1839Y-3.8815
X15.1839Y-4.0815
T3
X13.1496Y-3.8917
X13.1496Y-4.0551
T4
X15.9567Y-2.7165
X15.9567Y-2.9134
X15.9567Y-3.1102
X16.1535Y-2.6181
X16.1535Y-2.815
X16.1535Y-3.0118
T5
X0.272Y-0.122
X0.272Y-4.9449
X5.672Y-0.122
X5.672Y-4.9449
X11.072Y-0.122
X11.072Y-4.9449
X16.472Y-0.122
X16.472Y-4.9449
T0
M30
